<svg xmlns="http://www.w3.org/2000/svg"><defs><symbol id="activity" viewBox="0 0 24 24"><polyline points="22 12 18 12 15 21 9 3 6 12 2 12"></polyline></symbol><symbol id="airplay" viewBox="0 0 24 24"><path d="M5 17H4a2 2 0 0 1-2-2V5a2 2 0 0 1 2-2h16a2 2 0 0 1 2 2v10a2 2 0 0 1-2 2h-1"></path><polygon points="12 15 17 21 7 21 12 15"></polygon></symbol><symbol id="alert-circle" viewBox="0 0 24 24"><circle cx="12" cy="12" r="10"></circle><line x1="12" y1="8" x2="12" y2="12"></line><line x1="12" y1="16" x2="12.01" y2="16"></line></symbol><symbol id="alert-octagon" viewBox="0 0 24 24"><polygon points="7.86 2 16.14 2 22 7.86 22 16.14 16.14 22 7.86 22 2 16.14 2 7.86 7.86 2"></polygon><line x1="12" y1="8" x2="12" y2="12"></line><line x1="12" y1="16" x2="12.01" y2="16"></line></symbol><symbol id="alert-triangle" viewBox="0 0 24 24"><path d="M10.29 3.86L1.82 18a2 2 0 0 0 1.71 3h16.94a2 2 0 0 0 1.71-3L13.71 3.86a2 2 0 0 0-3.42 0z"></path><line x1="12" y1="9" x2="12" y2="13"></line><line x1="12" y1="17" x2="12.01" y2="17"></line></symbol><symbol id="align-center" viewBox="0 0 24 24"><line x1="18" y1="10" x2="6" y2="10"></line><line x1="21" y1="6" x2="3" y2="6"></line><line x1="21" y1="14" x2="3" y2="14"></line><line x1="18" y1="18" x2="6" y2="18"></line></symbol><symbol id="align-justify" viewBox="0 0 24 24"><line x1="21" y1="10" x2="3" y2="10"></line><line x1="21" y1="6" x2="3" y2="6"></line><line x1="21" y1="14" x2="3" y2="14"></line><line x1="21" y1="18" x2="3" y2="18"></line></symbol><symbol id="align-left" viewBox="0 0 24 24"><line x1="17" y1="10" x2="3" y2="10"></line><line x1="21" y1="6" x2="3" y2="6"></line><line x1="21" y1="14" x2="3" y2="14"></line><line x1="17" y1="18" x2="3" y2="18"></line></symbol><symbol id="align-right" viewBox="0 0 24 24"><line x1="21" y1="10" x2="7" y2="10"></line><line x1="21" y1="6" x2="3" y2="6"></line><line x1="21" y1="14" x2="3" y2="14"></line><line x1="21" y1="18" x2="7" y2="18"></line></symbol><symbol id="anchor" viewBox="0 0 24 24"><circle cx="12" cy="5" r="3"></circle><line x1="12" y1="22" x2="12" y2="8"></line><path d="M5 12H2a10 10 0 0 0 20 0h-3"></path></symbol><symbol id="aperture" viewBox="0 0 24 24"><circle cx="12" cy="12" r="10"></circle><line x1="14.31" y1="8" x2="20.05" y2="17.94"></line><line x1="9.69" y1="8" x2="21.17" y2="8"></line><line x1="7.38" y1="12" x2="13.12" y2="2.06"></line><line x1="9.69" y1="16" x2="3.95" y2="6.06"></line><line x1="14.31" y1="16" x2="2.83" y2="16"></line><line x1="16.62" y1="12" x2="10.88" y2="21.94"></line></symbol><symbol id="archive" viewBox="0 0 24 24"><polyline points="21 8 21 21 3 21 3 8"></polyline><rect x="1" y="3" width="22" height="5"></rect><line x1="10" y1="12" x2="14" y2="12"></line></symbol><symbol id="arrow-down-circle" viewBox="0 0 24 24"><circle cx="12" cy="12" r="10"></circle><polyline points="8 12 12 16 16 12"></polyline><line x1="12" y1="8" x2="12" y2="16"></line></symbol><symbol id="arrow-down-left" viewBox="0 0 24 24"><line x1="17" y1="7" x2="7" y2="17"></line><polyline points="17 17 7 17 7 7"></polyline></symbol><symbol id="arrow-down-right" viewBox="0 0 24 24"><line x1="7" y1="7" x2="17" y2="17"></line><polyline points="17 7 17 17 7 17"></polyline></symbol><symbol id="arrow-down" viewBox="0 0 24 24"><line x1="12" y1="5" x2="12" y2="19"></line><polyline points="19 12 12 19 5 12"></polyline></symbol><symbol id="arrow-left-circle" viewBox="0 0 24 24"><circle cx="12" cy="12" r="10"></circle><polyline points="12 8 8 12 12 16"></polyline><line x1="16" y1="12" x2="8" y2="12"></line></symbol><symbol id="arrow-left" viewBox="0 0 24 24"><line x1="19" y1="12" x2="5" y2="12"></line><polyline points="12 19 5 12 12 5"></polyline></symbol><symbol id="arrow-right-circle" viewBox="0 0 24 24"><circle cx="12" cy="12" r="10"></circle><polyline points="12 16 16 12 12 8"></polyline><line x1="8" y1="12" x2="16" y2="12"></line></symbol><symbol id="arrow-right" viewBox="0 0 24 24"><line x1="5" y1="12" x2="19" y2="12"></line><polyline points="12 5 19 12 12 19"></polyline></symbol><symbol id="arrow-up-circle" viewBox="0 0 24 24"><circle cx="12" cy="12" r="10"></circle><polyline points="16 12 12 8 8 12"></polyline><line x1="12" y1="16" x2="12" y2="8"></line></symbol><symbol id="arrow-up-left" viewBox="0 0 24 24"><line x1="17" y1="17" x2="7" y2="7"></line><polyline points="7 17 7 7 17 7"></polyline></symbol><symbol id="arrow-up-right" viewBox="0 0 24 24"><line x1="7" y1="17" x2="17" y2="7"></line><polyline points="7 7 17 7 17 17"></polyline></symbol><symbol id="arrow-up" viewBox="0 0 24 24"><line x1="12" y1="19" x2="12" y2="5"></line><polyline points="5 12 12 5 19 12"></polyline></symbol><symbol id="at-sign" viewBox="0 0 24 24"><circle cx="12" cy="12" r="4"></circle><path d="M16 8v5a3 3 0 0 0 6 0v-1a10 10 0 1 0-3.92 7.94"></path></symbol><symbol id="award" viewBox="0 0 24 24"><circle cx="12" cy="8" r="7"></circle><polyline points="8.21 13.89 7 23 12 20 17 23 15.79 13.88"></polyline></symbol><symbol id="bar-chart-2" viewBox="0 0 24 24"><line x1="18" y1="20" x2="18" y2="10"></line><line x1="12" y1="20" x2="12" y2="4"></line><line x1="6" y1="20" x2="6" y2="14"></line></symbol><symbol id="bar-chart" viewBox="0 0 24 24"><line x1="12" y1="20" x2="12" y2="10"></line><line x1="18" y1="20" x2="18" y2="4"></line><line x1="6" y1="20" x2="6" y2="16"></line></symbol><symbol id="battery-charging" viewBox="0 0 24 24"><path d="M5 18H3a2 2 0 0 1-2-2V8a2 2 0 0 1 2-2h3.19M15 6h2a2 2 0 0 1 2 2v8a2 2 0 0 1-2 2h-3.19"></path><line x1="23" y1="13" x2="23" y2="11"></line><polyline points="11 6 7 12 13 12 9 18"></polyline></symbol><symbol id="battery" viewBox="0 0 24 24"><rect x="1" y="6" width="18" height="12" rx="2" ry="2"></rect><line x1="23" y1="13" x2="23" y2="11"></line></symbol><symbol id="bell-off" viewBox="0 0 24 24"><path d="M13.73 21a2 2 0 0 1-3.46 0"></path><path d="M18.63 13A17.89 17.89 0 0 1 18 8"></path><path d="M6.26 6.26A5.86 5.86 0 0 0 6 8c0 7-3 9-3 9h14"></path><path d="M18 8a6 6 0 0 0-9.33-5"></path><line x1="1" y1="1" x2="23" y2="23"></line></symbol><symbol id="bell" viewBox="0 0 24 24"><path d="M18 8A6 6 0 0 0 6 8c0 7-3 9-3 9h18s-3-2-3-9"></path><path d="M13.73 21a2 2 0 0 1-3.46 0"></path></symbol><symbol id="bluetooth" viewBox="0 0 24 24"><polyline points="6.5 6.5 17.5 17.5 12 23 12 1 17.5 6.5 6.5 17.5"></polyline></symbol><symbol id="bold" viewBox="0 0 24 24"><path d="M6 4h8a4 4 0 0 1 4 4 4 4 0 0 1-4 4H6z"></path><path d="M6 12h9a4 4 0 0 1 4 4 4 4 0 0 1-4 4H6z"></path></symbol><symbol id="book-open" viewBox="0 0 24 24"><path d="M2 3h6a4 4 0 0 1 4 4v14a3 3 0 0 0-3-3H2z"></path><path d="M22 3h-6a4 4 0 0 0-4 4v14a3 3 0 0 1 3-3h7z"></path></symbol><symbol id="book" viewBox="0 0 24 24"><path d="M4 19.5A2.5 2.5 0 0 1 6.5 17H20"></path><path d="M6.5 2H20v20H6.5A2.5 2.5 0 0 1 4 19.5v-15A2.5 2.5 0 0 1 6.5 2z"></path></symbol><symbol id="bookmark" viewBox="0 0 24 24"><path d="M19 21l-7-5-7 5V5a2 2 0 0 1 2-2h10a2 2 0 0 1 2 2z"></path></symbol><symbol id="box" viewBox="0 0 24 24"><path d="M21 16V8a2 2 0 0 0-1-1.73l-7-4a2 2 0 0 0-2 0l-7 4A2 2 0 0 0 3 8v8a2 2 0 0 0 1 1.73l7 4a2 2 0 0 0 2 0l7-4A2 2 0 0 0 21 16z"></path><polyline points="3.27 6.96 12 12.01 20.73 6.96"></polyline><line x1="12" y1="22.08" x2="12" y2="12"></line></symbol><symbol id="briefcase" viewBox="0 0 24 24"><rect x="2" y="7" width="20" height="14" rx="2" ry="2"></rect><path d="M16 21V5a2 2 0 0 0-2-2h-4a2 2 0 0 0-2 2v16"></path></symbol><symbol id="calendar" viewBox="0 0 24 24"><rect x="3" y="4" width="18" height="18" rx="2" ry="2"></rect><line x1="16" y1="2" x2="16" y2="6"></line><line x1="8" y1="2" x2="8" y2="6"></line><line x1="3" y1="10" x2="21" y2="10"></line></symbol><symbol id="camera-off" viewBox="0 0 24 24"><line x1="1" y1="1" x2="23" y2="23"></line><path d="M21 21H3a2 2 0 0 1-2-2V8a2 2 0 0 1 2-2h3m3-3h6l2 3h4a2 2 0 0 1 2 2v9.34m-7.72-2.06a4 4 0 1 1-5.56-5.56"></path></symbol><symbol id="camera" viewBox="0 0 24 24"><path d="M23 19a2 2 0 0 1-2 2H3a2 2 0 0 1-2-2V8a2 2 0 0 1 2-2h4l2-3h6l2 3h4a2 2 0 0 1 2 2z"></path><circle cx="12" cy="13" r="4"></circle></symbol><symbol id="cast" viewBox="0 0 24 24"><path d="M2 16.1A5 5 0 0 1 5.9 20M2 12.05A9 9 0 0 1 9.95 20M2 8V6a2 2 0 0 1 2-2h16a2 2 0 0 1 2 2v12a2 2 0 0 1-2 2h-6"></path><line x1="2" y1="20" x2="2.01" y2="20"></line></symbol><symbol id="check-circle" viewBox="0 0 24 24"><path d="M22 11.08V12a10 10 0 1 1-5.93-9.14"></path><polyline points="22 4 12 14.01 9 11.01"></polyline></symbol><symbol id="check-square" viewBox="0 0 24 24"><polyline points="9 11 12 14 22 4"></polyline><path d="M21 12v7a2 2 0 0 1-2 2H5a2 2 0 0 1-2-2V5a2 2 0 0 1 2-2h11"></path></symbol><symbol id="check" viewBox="0 0 24 24"><polyline points="20 6 9 17 4 12"></polyline></symbol><symbol id="chevron-down" viewBox="0 0 24 24"><polyline points="6 9 12 15 18 9"></polyline></symbol><symbol id="chevron-left" viewBox="0 0 24 24"><polyline points="15 18 9 12 15 6"></polyline></symbol><symbol id="chevron-right" viewBox="0 0 24 24"><polyline points="9 18 15 12 9 6"></polyline></symbol><symbol id="chevron-up" viewBox="0 0 24 24"><polyline points="18 15 12 9 6 15"></polyline></symbol><symbol id="chevrons-down" viewBox="0 0 24 24"><polyline points="7 13 12 18 17 13"></polyline><polyline points="7 6 12 11 17 6"></polyline></symbol><symbol id="chevrons-left" viewBox="0 0 24 24"><polyline points="11 17 6 12 11 7"></polyline><polyline points="18 17 13 12 18 7"></polyline></symbol><symbol id="chevrons-right" viewBox="0 0 24 24"><polyline points="13 17 18 12 13 7"></polyline><polyline points="6 17 11 12 6 7"></polyline></symbol><symbol id="chevrons-up" viewBox="0 0 24 24"><polyline points="17 11 12 6 7 11"></polyline><polyline points="17 18 12 13 7 18"></polyline></symbol><symbol id="chrome" viewBox="0 0 24 24"><circle cx="12" cy="12" r="10"></circle><circle cx="12" cy="12" r="4"></circle><line x1="21.17" y1="8" x2="12" y2="8"></line><line x1="3.95" y1="6.06" x2="8.54" y2="14"></line><line x1="10.88" y1="21.94" x2="15.46" y2="14"></line></symbol><symbol id="circle" viewBox="0 0 24 24"><circle cx="12" cy="12" r="10"></circle></symbol><symbol id="clipboard" viewBox="0 0 24 24"><path d="M16 4h2a2 2 0 0 1 2 2v14a2 2 0 0 1-2 2H6a2 2 0 0 1-2-2V6a2 2 0 0 1 2-2h2"></path><rect x="8" y="2" width="8" height="4" rx="1" ry="1"></rect></symbol><symbol id="clock" viewBox="0 0 24 24"><circle cx="12" cy="12" r="10"></circle><polyline points="12 6 12 12 16 14"></polyline></symbol><symbol id="cloud-drizzle" viewBox="0 0 24 24"><line x1="8" y1="19" x2="8" y2="21"></line><line x1="8" y1="13" x2="8" y2="15"></line><line x1="16" y1="19" x2="16" y2="21"></line><line x1="16" y1="13" x2="16" y2="15"></line><line x1="12" y1="21" x2="12" y2="23"></line><line x1="12" y1="15" x2="12" y2="17"></line><path d="M20 16.58A5 5 0 0 0 18 7h-1.26A8 8 0 1 0 4 15.25"></path></symbol><symbol id="cloud-lightning" viewBox="0 0 24 24"><path d="M19 16.9A5 5 0 0 0 18 7h-1.26a8 8 0 1 0-11.62 9"></path><polyline points="13 11 9 17 15 17 11 23"></polyline></symbol><symbol id="cloud-off" viewBox="0 0 24 24"><path d="M22.61 16.95A5 5 0 0 0 18 10h-1.26a8 8 0 0 0-7.05-6M5 5a8 8 0 0 0 4 15h9a5 5 0 0 0 1.7-.3"></path><line x1="1" y1="1" x2="23" y2="23"></line></symbol><symbol id="cloud-rain" viewBox="0 0 24 24"><line x1="16" y1="13" x2="16" y2="21"></line><line x1="8" y1="13" x2="8" y2="21"></line><line x1="12" y1="15" x2="12" y2="23"></line><path d="M20 16.58A5 5 0 0 0 18 7h-1.26A8 8 0 1 0 4 15.25"></path></symbol><symbol id="cloud-snow" viewBox="0 0 24 24"><path d="M20 17.58A5 5 0 0 0 18 8h-1.26A8 8 0 1 0 4 16.25"></path><line x1="8" y1="16" x2="8.01" y2="16"></line><line x1="8" y1="20" x2="8.01" y2="20"></line><line x1="12" y1="18" x2="12.01" y2="18"></line><line x1="12" y1="22" x2="12.01" y2="22"></line><line x1="16" y1="16" x2="16.01" y2="16"></line><line x1="16" y1="20" x2="16.01" y2="20"></line></symbol><symbol id="cloud" viewBox="0 0 24 24"><path d="M18 10h-1.26A8 8 0 1 0 9 20h9a5 5 0 0 0 0-10z"></path></symbol><symbol id="code" viewBox="0 0 24 24"><polyline points="16 18 22 12 16 6"></polyline><polyline points="8 6 2 12 8 18"></polyline></symbol><symbol id="codepen" viewBox="0 0 24 24"><polygon points="12 2 22 8.5 22 15.5 12 22 2 15.5 2 8.5 12 2"></polygon><line x1="12" y1="22" x2="12" y2="15.5"></line><polyline points="22 8.5 12 15.5 2 8.5"></polyline><polyline points="2 15.5 12 8.5 22 15.5"></polyline><line x1="12" y1="2" x2="12" y2="8.5"></line></symbol><symbol id="codesandbox" viewBox="0 0 24 24"><path d="M21 16V8a2 2 0 0 0-1-1.73l-7-4a2 2 0 0 0-2 0l-7 4A2 2 0 0 0 3 8v8a2 2 0 0 0 1 1.73l7 4a2 2 0 0 0 2 0l7-4A2 2 0 0 0 21 16z"></path><polyline points="7.5 4.21 12 6.81 16.5 4.21"></polyline><polyline points="7.5 19.79 7.5 14.6 3 12"></polyline><polyline points="21 12 16.5 14.6 16.5 19.79"></polyline><polyline points="3.27 6.96 12 12.01 20.73 6.96"></polyline><line x1="12" y1="22.08" x2="12" y2="12"></line></symbol><symbol id="coffee" viewBox="0 0 24 24"><path d="M18 8h1a4 4 0 0 1 0 8h-1"></path><path d="M2 8h16v9a4 4 0 0 1-4 4H6a4 4 0 0 1-4-4V8z"></path><line x1="6" y1="1" x2="6" y2="4"></line><line x1="10" y1="1" x2="10" y2="4"></line><line x1="14" y1="1" x2="14" y2="4"></line></symbol><symbol id="columns" viewBox="0 0 24 24"><path d="M12 3h7a2 2 0 0 1 2 2v14a2 2 0 0 1-2 2h-7m0-18H5a2 2 0 0 0-2 2v14a2 2 0 0 0 2 2h7m0-18v18"></path></symbol><symbol id="command" viewBox="0 0 24 24"><path d="M18 3a3 3 0 0 0-3 3v12a3 3 0 0 0 3 3 3 3 0 0 0 3-3 3 3 0 0 0-3-3H6a3 3 0 0 0-3 3 3 3 0 0 0 3 3 3 3 0 0 0 3-3V6a3 3 0 0 0-3-3 3 3 0 0 0-3 3 3 3 0 0 0 3 3h12a3 3 0 0 0 3-3 3 3 0 0 0-3-3z"></path></symbol><symbol id="compass" viewBox="0 0 24 24"><circle cx="12" cy="12" r="10"></circle><polygon points="16.24 7.76 14.12 14.12 7.76 16.24 9.88 9.88 16.24 7.76"></polygon></symbol><symbol id="copy" viewBox="0 0 24 24"><rect x="9" y="9" width="13" height="13" rx="2" ry="2"></rect><path d="M5 15H4a2 2 0 0 1-2-2V4a2 2 0 0 1 2-2h9a2 2 0 0 1 2 2v1"></path></symbol><symbol id="corner-down-left" viewBox="0 0 24 24"><polyline points="9 10 4 15 9 20"></polyline><path d="M20 4v7a4 4 0 0 1-4 4H4"></path></symbol><symbol id="corner-down-right" viewBox="0 0 24 24"><polyline points="15 10 20 15 15 20"></polyline><path d="M4 4v7a4 4 0 0 0 4 4h12"></path></symbol><symbol id="corner-left-down" viewBox="0 0 24 24"><polyline points="14 15 9 20 4 15"></polyline><path d="M20 4h-7a4 4 0 0 0-4 4v12"></path></symbol><symbol id="corner-left-up" viewBox="0 0 24 24"><polyline points="14 9 9 4 4 9"></polyline><path d="M20 20h-7a4 4 0 0 1-4-4V4"></path></symbol><symbol id="corner-right-down" viewBox="0 0 24 24"><polyline points="10 15 15 20 20 15"></polyline><path d="M4 4h7a4 4 0 0 1 4 4v12"></path></symbol><symbol id="corner-right-up" viewBox="0 0 24 24"><polyline points="10 9 15 4 20 9"></polyline><path d="M4 20h7a4 4 0 0 0 4-4V4"></path></symbol><symbol id="corner-up-left" viewBox="0 0 24 24"><polyline points="9 14 4 9 9 4"></polyline><path d="M20 20v-7a4 4 0 0 0-4-4H4"></path></symbol><symbol id="corner-up-right" viewBox="0 0 24 24"><polyline points="15 14 20 9 15 4"></polyline><path d="M4 20v-7a4 4 0 0 1 4-4h12"></path></symbol><symbol id="cpu" viewBox="0 0 24 24"><rect x="4" y="4" width="16" height="16" rx="2" ry="2"></rect><rect x="9" y="9" width="6" height="6"></rect><line x1="9" y1="1" x2="9" y2="4"></line><line x1="15" y1="1" x2="15" y2="4"></line><line x1="9" y1="20" x2="9" y2="23"></line><line x1="15" y1="20" x2="15" y2="23"></line><line x1="20" y1="9" x2="23" y2="9"></line><line x1="20" y1="14" x2="23" y2="14"></line><line x1="1" y1="9" x2="4" y2="9"></line><line x1="1" y1="14" x2="4" y2="14"></line></symbol><symbol id="credit-card" viewBox="0 0 24 24"><rect x="1" y="4" width="22" height="16" rx="2" ry="2"></rect><line x1="1" y1="10" x2="23" y2="10"></line></symbol><symbol id="crop" viewBox="0 0 24 24"><path d="M6.13 1L6 16a2 2 0 0 0 2 2h15"></path><path d="M1 6.13L16 6a2 2 0 0 1 2 2v15"></path></symbol><symbol id="crosshair" viewBox="0 0 24 24"><circle cx="12" cy="12" r="10"></circle><line x1="22" y1="12" x2="18" y2="12"></line><line x1="6" y1="12" x2="2" y2="12"></line><line x1="12" y1="6" x2="12" y2="2"></line><line x1="12" y1="22" x2="12" y2="18"></line></symbol><symbol id="database" viewBox="0 0 24 24"><ellipse cx="12" cy="5" rx="9" ry="3"></ellipse><path d="M21 12c0 1.66-4 3-9 3s-9-1.34-9-3"></path><path d="M3 5v14c0 1.66 4 3 9 3s9-1.34 9-3V5"></path></symbol><symbol id="delete" viewBox="0 0 24 24"><path d="M21 4H8l-7 8 7 8h13a2 2 0 0 0 2-2V6a2 2 0 0 0-2-2z"></path><line x1="18" y1="9" x2="12" y2="15"></line><line x1="12" y1="9" x2="18" y2="15"></line></symbol><symbol id="disc" viewBox="0 0 24 24"><circle cx="12" cy="12" r="10"></circle><circle cx="12" cy="12" r="3"></circle></symbol><symbol id="divide-circle" viewBox="0 0 24 24"><line x1="8" y1="12" x2="16" y2="12"></line><line x1="12" y1="16" x2="12" y2="16"></line><line x1="12" y1="8" x2="12" y2="8"></line><circle cx="12" cy="12" r="10"></circle></symbol><symbol id="divide-square" viewBox="0 0 24 24"><rect x="3" y="3" width="18" height="18" rx="2" ry="2"></rect><line x1="8" y1="12" x2="16" y2="12"></line><line x1="12" y1="16" x2="12" y2="16"></line><line x1="12" y1="8" x2="12" y2="8"></line></symbol><symbol id="divide" viewBox="0 0 24 24"><circle cx="12" cy="6" r="2"></circle><line x1="5" y1="12" x2="19" y2="12"></line><circle cx="12" cy="18" r="2"></circle></symbol><symbol id="dollar-sign" viewBox="0 0 24 24"><line x1="12" y1="1" x2="12" y2="23"></line><path d="M17 5H9.5a3.5 3.5 0 0 0 0 7h5a3.5 3.5 0 0 1 0 7H6"></path></symbol><symbol id="download-cloud" viewBox="0 0 24 24"><polyline points="8 17 12 21 16 17"></polyline><line x1="12" y1="12" x2="12" y2="21"></line><path d="M20.88 18.09A5 5 0 0 0 18 9h-1.26A8 8 0 1 0 3 16.29"></path></symbol><symbol id="download" viewBox="0 0 24 24"><path d="M21 15v4a2 2 0 0 1-2 2H5a2 2 0 0 1-2-2v-4"></path><polyline points="7 10 12 15 17 10"></polyline><line x1="12" y1="15" x2="12" y2="3"></line></symbol><symbol id="dribbble" viewBox="0 0 24 24"><circle cx="12" cy="12" r="10"></circle><path d="M8.56 2.75c4.37 6.03 6.02 9.42 8.03 17.72m2.54-15.38c-3.72 4.35-8.94 5.66-16.88 5.85m19.5 1.9c-3.5-.93-6.63-.82-8.94 0-2.58.92-5.01 2.86-7.44 6.32"></path></symbol><symbol id="droplet" viewBox="0 0 24 24"><path d="M12 2.69l5.66 5.66a8 8 0 1 1-11.31 0z"></path></symbol><symbol id="edit-2" viewBox="0 0 24 24"><path d="M17 3a2.828 2.828 0 1 1 4 4L7.5 20.5 2 22l1.5-5.5L17 3z"></path></symbol><symbol id="edit-3" viewBox="0 0 24 24"><path d="M12 20h9"></path><path d="M16.5 3.5a2.121 2.121 0 0 1 3 3L7 19l-4 1 1-4L16.5 3.5z"></path></symbol><symbol id="edit" viewBox="0 0 24 24"><path d="M11 4H4a2 2 0 0 0-2 2v14a2 2 0 0 0 2 2h14a2 2 0 0 0 2-2v-7"></path><path d="M18.5 2.5a2.121 2.121 0 0 1 3 3L12 15l-4 1 1-4 9.5-9.5z"></path></symbol><symbol id="external-link" viewBox="0 0 24 24"><path d="M18 13v6a2 2 0 0 1-2 2H5a2 2 0 0 1-2-2V8a2 2 0 0 1 2-2h6"></path><polyline points="15 3 21 3 21 9"></polyline><line x1="10" y1="14" x2="21" y2="3"></line></symbol><symbol id="eye-off" viewBox="0 0 24 24"><path d="M17.94 17.94A10.07 10.07 0 0 1 12 20c-7 0-11-8-11-8a18.45 18.45 0 0 1 5.06-5.94M9.9 4.24A9.12 9.12 0 0 1 12 4c7 0 11 8 11 8a18.5 18.5 0 0 1-2.16 3.19m-6.72-1.07a3 3 0 1 1-4.24-4.24"></path><line x1="1" y1="1" x2="23" y2="23"></line></symbol><symbol id="eye" viewBox="0 0 24 24"><path d="M1 12s4-8 11-8 11 8 11 8-4 8-11 8-11-8-11-8z"></path><circle cx="12" cy="12" r="3"></circle></symbol><symbol id="facebook" viewBox="0 0 24 24"><path d="M18 2h-3a5 5 0 0 0-5 5v3H7v4h3v8h4v-8h3l1-4h-4V7a1 1 0 0 1 1-1h3z"></path></symbol><symbol id="fast-forward" viewBox="0 0 24 24"><polygon points="13 19 22 12 13 5 13 19"></polygon><polygon points="2 19 11 12 2 5 2 19"></polygon></symbol><symbol id="feather" viewBox="0 0 24 24"><path d="M20.24 12.24a6 6 0 0 0-8.49-8.49L5 10.5V19h8.5z"></path><line x1="16" y1="8" x2="2" y2="22"></line><line x1="17.5" y1="15" x2="9" y2="15"></line></symbol><symbol id="figma" viewBox="0 0 24 24"><path d="M5 5.5A3.5 3.5 0 0 1 8.5 2H12v7H8.5A3.5 3.5 0 0 1 5 5.5z"></path><path d="M12 2h3.5a3.5 3.5 0 1 1 0 7H12V2z"></path><path d="M12 12.5a3.5 3.5 0 1 1 7 0 3.5 3.5 0 1 1-7 0z"></path><path d="M5 19.5A3.5 3.5 0 0 1 8.5 16H12v3.5a3.5 3.5 0 1 1-7 0z"></path><path d="M5 12.5A3.5 3.5 0 0 1 8.5 9H12v7H8.5A3.5 3.5 0 0 1 5 12.5z"></path></symbol><symbol id="file-minus" viewBox="0 0 24 24"><path d="M14 2H6a2 2 0 0 0-2 2v16a2 2 0 0 0 2 2h12a2 2 0 0 0 2-2V8z"></path><polyline points="14 2 14 8 20 8"></polyline><line x1="9" y1="15" x2="15" y2="15"></line></symbol><symbol id="file-plus" viewBox="0 0 24 24"><path d="M14 2H6a2 2 0 0 0-2 2v16a2 2 0 0 0 2 2h12a2 2 0 0 0 2-2V8z"></path><polyline points="14 2 14 8 20 8"></polyline><line x1="12" y1="18" x2="12" y2="12"></line><line x1="9" y1="15" x2="15" y2="15"></line></symbol><symbol id="file-text" viewBox="0 0 24 24"><path d="M14 2H6a2 2 0 0 0-2 2v16a2 2 0 0 0 2 2h12a2 2 0 0 0 2-2V8z"></path><polyline points="14 2 14 8 20 8"></polyline><line x1="16" y1="13" x2="8" y2="13"></line><line x1="16" y1="17" x2="8" y2="17"></line><polyline points="10 9 9 9 8 9"></polyline></symbol><symbol id="file" viewBox="0 0 24 24"><path d="M13 2H6a2 2 0 0 0-2 2v16a2 2 0 0 0 2 2h12a2 2 0 0 0 2-2V9z"></path><polyline points="13 2 13 9 20 9"></polyline></symbol><symbol id="film" viewBox="0 0 24 24"><rect x="2" y="2" width="20" height="20" rx="2.18" ry="2.18"></rect><line x1="7" y1="2" x2="7" y2="22"></line><line x1="17" y1="2" x2="17" y2="22"></line><line x1="2" y1="12" x2="22" y2="12"></line><line x1="2" y1="7" x2="7" y2="7"></line><line x1="2" y1="17" x2="7" y2="17"></line><line x1="17" y1="17" x2="22" y2="17"></line><line x1="17" y1="7" x2="22" y2="7"></line></symbol><symbol id="filter" viewBox="0 0 24 24"><polygon points="22 3 2 3 10 12.46 10 19 14 21 14 12.46 22 3"></polygon></symbol><symbol id="flag" viewBox="0 0 24 24"><path d="M4 15s1-1 4-1 5 2 8 2 4-1 4-1V3s-1 1-4 1-5-2-8-2-4 1-4 1z"></path><line x1="4" y1="22" x2="4" y2="15"></line></symbol><symbol id="folder-minus" viewBox="0 0 24 24"><path d="M22 19a2 2 0 0 1-2 2H4a2 2 0 0 1-2-2V5a2 2 0 0 1 2-2h5l2 3h9a2 2 0 0 1 2 2z"></path><line x1="9" y1="14" x2="15" y2="14"></line></symbol><symbol id="folder-plus" viewBox="0 0 24 24"><path d="M22 19a2 2 0 0 1-2 2H4a2 2 0 0 1-2-2V5a2 2 0 0 1 2-2h5l2 3h9a2 2 0 0 1 2 2z"></path><line x1="12" y1="11" x2="12" y2="17"></line><line x1="9" y1="14" x2="15" y2="14"></line></symbol><symbol id="folder" viewBox="0 0 24 24"><path d="M22 19a2 2 0 0 1-2 2H4a2 2 0 0 1-2-2V5a2 2 0 0 1 2-2h5l2 3h9a2 2 0 0 1 2 2z"></path></symbol><symbol id="framer" viewBox="0 0 24 24"><path d="M5 16V9h14V2H5l14 14h-7m-7 0l7 7v-7m-7 0h7"></path></symbol><symbol id="frown" viewBox="0 0 24 24"><circle cx="12" cy="12" r="10"></circle><path d="M16 16s-1.5-2-4-2-4 2-4 2"></path><line x1="9" y1="9" x2="9.01" y2="9"></line><line x1="15" y1="9" x2="15.01" y2="9"></line></symbol><symbol id="gift" viewBox="0 0 24 24"><polyline points="20 12 20 22 4 22 4 12"></polyline><rect x="2" y="7" width="20" height="5"></rect><line x1="12" y1="22" x2="12" y2="7"></line><path d="M12 7H7.5a2.5 2.5 0 0 1 0-5C11 2 12 7 12 7z"></path><path d="M12 7h4.5a2.5 2.5 0 0 0 0-5C13 2 12 7 12 7z"></path></symbol><symbol id="git-branch" viewBox="0 0 24 24"><line x1="6" y1="3" x2="6" y2="15"></line><circle cx="18" cy="6" r="3"></circle><circle cx="6" cy="18" r="3"></circle><path d="M18 9a9 9 0 0 1-9 9"></path></symbol><symbol id="git-commit" viewBox="0 0 24 24"><circle cx="12" cy="12" r="4"></circle><line x1="1.05" y1="12" x2="7" y2="12"></line><line x1="17.01" y1="12" x2="22.96" y2="12"></line></symbol><symbol id="git-merge" viewBox="0 0 24 24"><circle cx="18" cy="18" r="3"></circle><circle cx="6" cy="6" r="3"></circle><path d="M6 21V9a9 9 0 0 0 9 9"></path></symbol><symbol id="git-pull-request" viewBox="0 0 24 24"><circle cx="18" cy="18" r="3"></circle><circle cx="6" cy="6" r="3"></circle><path d="M13 6h3a2 2 0 0 1 2 2v7"></path><line x1="6" y1="9" x2="6" y2="21"></line></symbol><symbol id="github" viewBox="0 0 24 24"><path d="M9 19c-5 1.5-5-2.5-7-3m14 6v-3.87a3.37 3.37 0 0 0-.94-2.61c3.14-.35 6.44-1.54 6.44-7A5.44 5.44 0 0 0 20 4.77 5.07 5.07 0 0 0 19.91 1S18.73.65 16 2.48a13.38 13.38 0 0 0-7 0C6.27.65 5.09 1 5.09 1A5.07 5.07 0 0 0 5 4.77a5.44 5.44 0 0 0-1.5 3.78c0 5.42 3.3 6.61 6.44 7A3.37 3.37 0 0 0 9 18.13V22"></path></symbol><symbol id="gitlab" viewBox="0 0 24 24"><path d="M22.65 14.39L12 22.13 1.35 14.39a.84.84 0 0 1-.3-.94l1.22-3.78 2.44-7.51A.42.42 0 0 1 4.82 2a.43.43 0 0 1 .58 0 .42.42 0 0 1 .11.18l2.44 7.49h8.1l2.44-7.51A.42.42 0 0 1 18.6 2a.43.43 0 0 1 .58 0 .42.42 0 0 1 .11.18l2.44 7.51L23 13.45a.84.84 0 0 1-.35.94z"></path></symbol><symbol id="globe" viewBox="0 0 24 24"><circle cx="12" cy="12" r="10"></circle><line x1="2" y1="12" x2="22" y2="12"></line><path d="M12 2a15.3 15.3 0 0 1 4 10 15.3 15.3 0 0 1-4 10 15.3 15.3 0 0 1-4-10 15.3 15.3 0 0 1 4-10z"></path></symbol><symbol id="grid" viewBox="0 0 24 24"><rect x="3" y="3" width="7" height="7"></rect><rect x="14" y="3" width="7" height="7"></rect><rect x="14" y="14" width="7" height="7"></rect><rect x="3" y="14" width="7" height="7"></rect></symbol><symbol id="hard-drive" viewBox="0 0 24 24"><line x1="22" y1="12" x2="2" y2="12"></line><path d="M5.45 5.11L2 12v6a2 2 0 0 0 2 2h16a2 2 0 0 0 2-2v-6l-3.45-6.89A2 2 0 0 0 16.76 4H7.24a2 2 0 0 0-1.79 1.11z"></path><line x1="6" y1="16" x2="6.01" y2="16"></line><line x1="10" y1="16" x2="10.01" y2="16"></line></symbol><symbol id="hash" viewBox="0 0 24 24"><line x1="4" y1="9" x2="20" y2="9"></line><line x1="4" y1="15" x2="20" y2="15"></line><line x1="10" y1="3" x2="8" y2="21"></line><line x1="16" y1="3" x2="14" y2="21"></line></symbol><symbol id="headphones" viewBox="0 0 24 24"><path d="M3 18v-6a9 9 0 0 1 18 0v6"></path><path d="M21 19a2 2 0 0 1-2 2h-1a2 2 0 0 1-2-2v-3a2 2 0 0 1 2-2h3zM3 19a2 2 0 0 0 2 2h1a2 2 0 0 0 2-2v-3a2 2 0 0 0-2-2H3z"></path></symbol><symbol id="heart" viewBox="0 0 24 24"><path d="M20.84 4.61a5.5 5.5 0 0 0-7.78 0L12 5.67l-1.06-1.06a5.5 5.5 0 0 0-7.78 7.78l1.06 1.06L12 21.23l7.78-7.78 1.06-1.06a5.5 5.5 0 0 0 0-7.78z"></path></symbol><symbol id="help-circle" viewBox="0 0 24 24"><circle cx="12" cy="12" r="10"></circle><path d="M9.09 9a3 3 0 0 1 5.83 1c0 2-3 3-3 3"></path><line x1="12" y1="17" x2="12.01" y2="17"></line></symbol><symbol id="hexagon" viewBox="0 0 24 24"><path d="M21 16V8a2 2 0 0 0-1-1.73l-7-4a2 2 0 0 0-2 0l-7 4A2 2 0 0 0 3 8v8a2 2 0 0 0 1 1.73l7 4a2 2 0 0 0 2 0l7-4A2 2 0 0 0 21 16z"></path></symbol><symbol id="home" viewBox="0 0 24 24"><path d="M3 9l9-7 9 7v11a2 2 0 0 1-2 2H5a2 2 0 0 1-2-2z"></path><polyline points="9 22 9 12 15 12 15 22"></polyline></symbol><symbol id="image" viewBox="0 0 24 24"><rect x="3" y="3" width="18" height="18" rx="2" ry="2"></rect><circle cx="8.5" cy="8.5" r="1.5"></circle><polyline points="21 15 16 10 5 21"></polyline></symbol><symbol id="inbox" viewBox="0 0 24 24"><polyline points="22 12 16 12 14 15 10 15 8 12 2 12"></polyline><path d="M5.45 5.11L2 12v6a2 2 0 0 0 2 2h16a2 2 0 0 0 2-2v-6l-3.45-6.89A2 2 0 0 0 16.76 4H7.24a2 2 0 0 0-1.79 1.11z"></path></symbol><symbol id="info" viewBox="0 0 24 24"><circle cx="12" cy="12" r="10"></circle><line x1="12" y1="16" x2="12" y2="12"></line><line x1="12" y1="8" x2="12.01" y2="8"></line></symbol><symbol id="instagram" viewBox="0 0 24 24"><rect x="2" y="2" width="20" height="20" rx="5" ry="5"></rect><path d="M16 11.37A4 4 0 1 1 12.63 8 4 4 0 0 1 16 11.37z"></path><line x1="17.5" y1="6.5" x2="17.51" y2="6.5"></line></symbol><symbol id="italic" viewBox="0 0 24 24"><line x1="19" y1="4" x2="10" y2="4"></line><line x1="14" y1="20" x2="5" y2="20"></line><line x1="15" y1="4" x2="9" y2="20"></line></symbol><symbol id="key" viewBox="0 0 24 24"><path d="M21 2l-2 2m-7.61 7.61a5.5 5.5 0 1 1-7.778 7.778 5.5 5.5 0 0 1 7.777-7.777zm0 0L15.5 7.5m0 0l3 3L22 7l-3-3m-3.5 3.5L19 4"></path></symbol><symbol id="layers" viewBox="0 0 24 24"><polygon points="12 2 2 7 12 12 22 7 12 2"></polygon><polyline points="2 17 12 22 22 17"></polyline><polyline points="2 12 12 17 22 12"></polyline></symbol><symbol id="layout" viewBox="0 0 24 24"><rect x="3" y="3" width="18" height="18" rx="2" ry="2"></rect><line x1="3" y1="9" x2="21" y2="9"></line><line x1="9" y1="21" x2="9" y2="9"></line></symbol><symbol id="life-buoy" viewBox="0 0 24 24"><circle cx="12" cy="12" r="10"></circle><circle cx="12" cy="12" r="4"></circle><line x1="4.93" y1="4.93" x2="9.17" y2="9.17"></line><line x1="14.83" y1="14.83" x2="19.07" y2="19.07"></line><line x1="14.83" y1="9.17" x2="19.07" y2="4.93"></line><line x1="14.83" y1="9.17" x2="18.36" y2="5.64"></line><line x1="4.93" y1="19.07" x2="9.17" y2="14.83"></line></symbol><symbol id="link-2" viewBox="0 0 24 24"><path d="M15 7h3a5 5 0 0 1 5 5 5 5 0 0 1-5 5h-3m-6 0H6a5 5 0 0 1-5-5 5 5 0 0 1 5-5h3"></path><line x1="8" y1="12" x2="16" y2="12"></line></symbol><symbol id="link" viewBox="0 0 24 24"><path d="M10 13a5 5 0 0 0 7.54.54l3-3a5 5 0 0 0-7.07-7.07l-1.72 1.71"></path><path d="M14 11a5 5 0 0 0-7.54-.54l-3 3a5 5 0 0 0 7.07 7.07l1.71-1.71"></path></symbol><symbol id="linkedin" viewBox="0 0 24 24"><path d="M16 8a6 6 0 0 1 6 6v7h-4v-7a2 2 0 0 0-2-2 2 2 0 0 0-2 2v7h-4v-7a6 6 0 0 1 6-6z"></path><rect x="2" y="9" width="4" height="12"></rect><circle cx="4" cy="4" r="2"></circle></symbol><symbol id="list" viewBox="0 0 24 24"><line x1="8" y1="6" x2="21" y2="6"></line><line x1="8" y1="12" x2="21" y2="12"></line><line x1="8" y1="18" x2="21" y2="18"></line><line x1="3" y1="6" x2="3.01" y2="6"></line><line x1="3" y1="12" x2="3.01" y2="12"></line><line x1="3" y1="18" x2="3.01" y2="18"></line></symbol><symbol id="loader" viewBox="0 0 24 24"><line x1="12" y1="2" x2="12" y2="6"></line><line x1="12" y1="18" x2="12" y2="22"></line><line x1="4.93" y1="4.93" x2="7.76" y2="7.76"></line><line x1="16.24" y1="16.24" x2="19.07" y2="19.07"></line><line x1="2" y1="12" x2="6" y2="12"></line><line x1="18" y1="12" x2="22" y2="12"></line><line x1="4.93" y1="19.07" x2="7.76" y2="16.24"></line><line x1="16.24" y1="7.76" x2="19.07" y2="4.93"></line></symbol><symbol id="lock" viewBox="0 0 24 24"><rect x="3" y="11" width="18" height="11" rx="2" ry="2"></rect><path d="M7 11V7a5 5 0 0 1 10 0v4"></path></symbol><symbol id="log-in" viewBox="0 0 24 24"><path d="M15 3h4a2 2 0 0 1 2 2v14a2 2 0 0 1-2 2h-4"></path><polyline points="10 17 15 12 10 7"></polyline><line x1="15" y1="12" x2="3" y2="12"></line></symbol><symbol id="log-out" viewBox="0 0 24 24"><path d="M9 21H5a2 2 0 0 1-2-2V5a2 2 0 0 1 2-2h4"></path><polyline points="16 17 21 12 16 7"></polyline><line x1="21" y1="12" x2="9" y2="12"></line></symbol><symbol id="mail" viewBox="0 0 24 24"><path d="M4 4h16c1.1 0 2 .9 2 2v12c0 1.1-.9 2-2 2H4c-1.1 0-2-.9-2-2V6c0-1.1.9-2 2-2z"></path><polyline points="22,6 12,13 2,6"></polyline></symbol><symbol id="map-pin" viewBox="0 0 24 24"><path d="M21 10c0 7-9 13-9 13s-9-6-9-13a9 9 0 0 1 18 0z"></path><circle cx="12" cy="10" r="3"></circle></symbol><symbol id="map" viewBox="0 0 24 24"><polygon points="1 6 1 22 8 18 16 22 23 18 23 2 16 6 8 2 1 6"></polygon><line x1="8" y1="2" x2="8" y2="18"></line><line x1="16" y1="6" x2="16" y2="22"></line></symbol><symbol id="maximize-2" viewBox="0 0 24 24"><polyline points="15 3 21 3 21 9"></polyline><polyline points="9 21 3 21 3 15"></polyline><line x1="21" y1="3" x2="14" y2="10"></line><line x1="3" y1="21" x2="10" y2="14"></line></symbol><symbol id="maximize" viewBox="0 0 24 24"><path d="M8 3H5a2 2 0 0 0-2 2v3m18 0V5a2 2 0 0 0-2-2h-3m0 18h3a2 2 0 0 0 2-2v-3M3 16v3a2 2 0 0 0 2 2h3"></path></symbol><symbol id="meh" viewBox="0 0 24 24"><circle cx="12" cy="12" r="10"></circle><line x1="8" y1="15" x2="16" y2="15"></line><line x1="9" y1="9" x2="9.01" y2="9"></line><line x1="15" y1="9" x2="15.01" y2="9"></line></symbol><symbol id="menu" viewBox="0 0 24 24"><line x1="3" y1="12" x2="21" y2="12"></line><line x1="3" y1="6" x2="21" y2="6"></line><line x1="3" y1="18" x2="21" y2="18"></line></symbol><symbol id="message-circle" viewBox="0 0 24 24"><path d="M21 11.5a8.38 8.38 0 0 1-.9 3.8 8.5 8.5 0 0 1-7.6 4.7 8.38 8.38 0 0 1-3.8-.9L3 21l1.9-5.7a8.38 8.38 0 0 1-.9-3.8 8.5 8.5 0 0 1 4.7-7.6 8.38 8.38 0 0 1 3.8-.9h.5a8.48 8.48 0 0 1 8 8v.5z"></path></symbol><symbol id="message-square" viewBox="0 0 24 24"><path d="M21 15a2 2 0 0 1-2 2H7l-4 4V5a2 2 0 0 1 2-2h14a2 2 0 0 1 2 2z"></path></symbol><symbol id="mic-off" viewBox="0 0 24 24"><line x1="1" y1="1" x2="23" y2="23"></line><path d="M9 9v3a3 3 0 0 0 5.12 2.12M15 9.34V4a3 3 0 0 0-5.94-.6"></path><path d="M17 16.95A7 7 0 0 1 5 12v-2m14 0v2a7 7 0 0 1-.11 1.23"></path><line x1="12" y1="19" x2="12" y2="23"></line><line x1="8" y1="23" x2="16" y2="23"></line></symbol><symbol id="mic" viewBox="0 0 24 24"><path d="M12 1a3 3 0 0 0-3 3v8a3 3 0 0 0 6 0V4a3 3 0 0 0-3-3z"></path><path d="M19 10v2a7 7 0 0 1-14 0v-2"></path><line x1="12" y1="19" x2="12" y2="23"></line><line x1="8" y1="23" x2="16" y2="23"></line></symbol><symbol id="minimize-2" viewBox="0 0 24 24"><polyline points="4 14 10 14 10 20"></polyline><polyline points="20 10 14 10 14 4"></polyline><line x1="14" y1="10" x2="21" y2="3"></line><line x1="3" y1="21" x2="10" y2="14"></line></symbol><symbol id="minimize" viewBox="0 0 24 24"><path d="M8 3v3a2 2 0 0 1-2 2H3m18 0h-3a2 2 0 0 1-2-2V3m0 18v-3a2 2 0 0 1 2-2h3M3 16h3a2 2 0 0 1 2 2v3"></path></symbol><symbol id="minus-circle" viewBox="0 0 24 24"><circle cx="12" cy="12" r="10"></circle><line x1="8" y1="12" x2="16" y2="12"></line></symbol><symbol id="minus-square" viewBox="0 0 24 24"><rect x="3" y="3" width="18" height="18" rx="2" ry="2"></rect><line x1="8" y1="12" x2="16" y2="12"></line></symbol><symbol id="minus" viewBox="0 0 24 24"><line x1="5" y1="12" x2="19" y2="12"></line></symbol><symbol id="monitor" viewBox="0 0 24 24"><rect x="2" y="3" width="20" height="14" rx="2" ry="2"></rect><line x1="8" y1="21" x2="16" y2="21"></line><line x1="12" y1="17" x2="12" y2="21"></line></symbol><symbol id="moon" viewBox="0 0 24 24"><path d="M21 12.79A9 9 0 1 1 11.21 3 7 7 0 0 0 21 12.79z"></path></symbol><symbol id="more-horizontal" viewBox="0 0 24 24"><circle cx="12" cy="12" r="1"></circle><circle cx="19" cy="12" r="1"></circle><circle cx="5" cy="12" r="1"></circle></symbol><symbol id="more-vertical" viewBox="0 0 24 24"><circle cx="12" cy="12" r="1"></circle><circle cx="12" cy="5" r="1"></circle><circle cx="12" cy="19" r="1"></circle></symbol><symbol id="mouse-pointer" viewBox="0 0 24 24"><path d="M3 3l7.07 16.97 2.51-7.39 7.39-2.51L3 3z"></path><path d="M13 13l6 6"></path></symbol><symbol id="move" viewBox="0 0 24 24"><polyline points="5 9 2 12 5 15"></polyline><polyline points="9 5 12 2 15 5"></polyline><polyline points="15 19 12 22 9 19"></polyline><polyline points="19 9 22 12 19 15"></polyline><line x1="2" y1="12" x2="22" y2="12"></line><line x1="12" y1="2" x2="12" y2="22"></line></symbol><symbol id="music" viewBox="0 0 24 24"><path d="M9 18V5l12-2v13"></path><circle cx="6" cy="18" r="3"></circle><circle cx="18" cy="16" r="3"></circle></symbol><symbol id="navigation-2" viewBox="0 0 24 24"><polygon points="12 2 19 21 12 17 5 21 12 2"></polygon></symbol><symbol id="navigation" viewBox="0 0 24 24"><polygon points="3 11 22 2 13 21 11 13 3 11"></polygon></symbol><symbol id="octagon" viewBox="0 0 24 24"><polygon points="7.86 2 16.14 2 22 7.86 22 16.14 16.14 22 7.86 22 2 16.14 2 7.86 7.86 2"></polygon></symbol><symbol id="package" viewBox="0 0 24 24"><line x1="16.5" y1="9.4" x2="7.5" y2="4.21"></line><path d="M21 16V8a2 2 0 0 0-1-1.73l-7-4a2 2 0 0 0-2 0l-7 4A2 2 0 0 0 3 8v8a2 2 0 0 0 1 1.73l7 4a2 2 0 0 0 2 0l7-4A2 2 0 0 0 21 16z"></path><polyline points="3.27 6.96 12 12.01 20.73 6.96"></polyline><line x1="12" y1="22.08" x2="12" y2="12"></line></symbol><symbol id="paperclip" viewBox="0 0 24 24"><path d="M21.44 11.05l-9.19 9.19a6 6 0 0 1-8.49-8.49l9.19-9.19a4 4 0 0 1 5.66 5.66l-9.2 9.19a2 2 0 0 1-2.83-2.83l8.49-8.48"></path></symbol><symbol id="pause-circle" viewBox="0 0 24 24"><circle cx="12" cy="12" r="10"></circle><line x1="10" y1="15" x2="10" y2="9"></line><line x1="14" y1="15" x2="14" y2="9"></line></symbol><symbol id="pause" viewBox="0 0 24 24"><rect x="6" y="4" width="4" height="16"></rect><rect x="14" y="4" width="4" height="16"></rect></symbol><symbol id="pen-tool" viewBox="0 0 24 24"><path d="M12 19l7-7 3 3-7 7-3-3z"></path><path d="M18 13l-1.5-7.5L2 2l3.5 14.5L13 18l5-5z"></path><path d="M2 2l7.586 7.586"></path><circle cx="11" cy="11" r="2"></circle></symbol><symbol id="percent" viewBox="0 0 24 24"><line x1="19" y1="5" x2="5" y2="19"></line><circle cx="6.5" cy="6.5" r="2.5"></circle><circle cx="17.5" cy="17.5" r="2.5"></circle></symbol><symbol id="phone-call" viewBox="0 0 24 24"><path d="M15.05 5A5 5 0 0 1 19 8.95M15.05 1A9 9 0 0 1 23 8.94m-1 7.98v3a2 2 0 0 1-2.18 2 19.79 19.79 0 0 1-8.63-3.07 19.5 19.5 0 0 1-6-6 19.79 19.79 0 0 1-3.07-8.67A2 2 0 0 1 4.11 2h3a2 2 0 0 1 2 1.72 12.84 12.84 0 0 0 .7 2.81 2 2 0 0 1-.45 2.11L8.09 9.91a16 16 0 0 0 6 6l1.27-1.27a2 2 0 0 1 2.11-.45 12.84 12.84 0 0 0 2.81.7A2 2 0 0 1 22 16.92z"></path></symbol><symbol id="phone-forwarded" viewBox="0 0 24 24"><polyline points="19 1 23 5 19 9"></polyline><line x1="15" y1="5" x2="23" y2="5"></line><path d="M22 16.92v3a2 2 0 0 1-2.18 2 19.79 19.79 0 0 1-8.63-3.07 19.5 19.5 0 0 1-6-6 19.79 19.79 0 0 1-3.07-8.67A2 2 0 0 1 4.11 2h3a2 2 0 0 1 2 1.72 12.84 12.84 0 0 0 .7 2.81 2 2 0 0 1-.45 2.11L8.09 9.91a16 16 0 0 0 6 6l1.27-1.27a2 2 0 0 1 2.11-.45 12.84 12.84 0 0 0 2.81.7A2 2 0 0 1 22 16.92z"></path></symbol><symbol id="phone-incoming" viewBox="0 0 24 24"><polyline points="16 2 16 8 22 8"></polyline><line x1="23" y1="1" x2="16" y2="8"></line><path d="M22 16.92v3a2 2 0 0 1-2.18 2 19.79 19.79 0 0 1-8.63-3.07 19.5 19.5 0 0 1-6-6 19.79 19.79 0 0 1-3.07-8.67A2 2 0 0 1 4.11 2h3a2 2 0 0 1 2 1.72 12.84 12.84 0 0 0 .7 2.81 2 2 0 0 1-.45 2.11L8.09 9.91a16 16 0 0 0 6 6l1.27-1.27a2 2 0 0 1 2.11-.45 12.84 12.84 0 0 0 2.81.7A2 2 0 0 1 22 16.92z"></path></symbol><symbol id="phone-missed" viewBox="0 0 24 24"><line x1="23" y1="1" x2="17" y2="7"></line><line x1="17" y1="1" x2="23" y2="7"></line><path d="M22 16.92v3a2 2 0 0 1-2.18 2 19.79 19.79 0 0 1-8.63-3.07 19.5 19.5 0 0 1-6-6 19.79 19.79 0 0 1-3.07-8.67A2 2 0 0 1 4.11 2h3a2 2 0 0 1 2 1.72 12.84 12.84 0 0 0 .7 2.81 2 2 0 0 1-.45 2.11L8.09 9.91a16 16 0 0 0 6 6l1.27-1.27a2 2 0 0 1 2.11-.45 12.84 12.84 0 0 0 2.81.7A2 2 0 0 1 22 16.92z"></path></symbol><symbol id="phone-off" viewBox="0 0 24 24"><path d="M10.68 13.31a16 16 0 0 0 3.41 2.6l1.27-1.27a2 2 0 0 1 2.11-.45 12.84 12.84 0 0 0 2.81.7 2 2 0 0 1 1.72 2v3a2 2 0 0 1-2.18 2 19.79 19.79 0 0 1-8.63-3.07 19.42 19.42 0 0 1-3.33-2.67m-2.67-3.34a19.79 19.79 0 0 1-3.07-8.63A2 2 0 0 1 4.11 2h3a2 2 0 0 1 2 1.72 12.84 12.84 0 0 0 .7 2.81 2 2 0 0 1-.45 2.11L8.09 9.91"></path><line x1="23" y1="1" x2="1" y2="23"></line></symbol><symbol id="phone-outgoing" viewBox="0 0 24 24"><polyline points="23 7 23 1 17 1"></polyline><line x1="16" y1="8" x2="23" y2="1"></line><path d="M22 16.92v3a2 2 0 0 1-2.18 2 19.79 19.79 0 0 1-8.63-3.07 19.5 19.5 0 0 1-6-6 19.79 19.79 0 0 1-3.07-8.67A2 2 0 0 1 4.11 2h3a2 2 0 0 1 2 1.72 12.84 12.84 0 0 0 .7 2.81 2 2 0 0 1-.45 2.11L8.09 9.91a16 16 0 0 0 6 6l1.27-1.27a2 2 0 0 1 2.11-.45 12.84 12.84 0 0 0 2.81.7A2 2 0 0 1 22 16.92z"></path></symbol><symbol id="phone" viewBox="0 0 24 24"><path d="M22 16.92v3a2 2 0 0 1-2.18 2 19.79 19.79 0 0 1-8.63-3.07 19.5 19.5 0 0 1-6-6 19.79 19.79 0 0 1-3.07-8.67A2 2 0 0 1 4.11 2h3a2 2 0 0 1 2 1.72 12.84 12.84 0 0 0 .7 2.81 2 2 0 0 1-.45 2.11L8.09 9.91a16 16 0 0 0 6 6l1.27-1.27a2 2 0 0 1 2.11-.45 12.84 12.84 0 0 0 2.81.7A2 2 0 0 1 22 16.92z"></path></symbol><symbol id="pie-chart" viewBox="0 0 24 24"><path d="M21.21 15.89A10 10 0 1 1 8 2.83"></path><path d="M22 12A10 10 0 0 0 12 2v10z"></path></symbol><symbol id="play-circle" viewBox="0 0 24 24"><circle cx="12" cy="12" r="10"></circle><polygon points="10 8 16 12 10 16 10 8"></polygon></symbol><symbol id="play" viewBox="0 0 24 24"><polygon points="5 3 19 12 5 21 5 3"></polygon></symbol><symbol id="plus-circle" viewBox="0 0 24 24"><circle cx="12" cy="12" r="10"></circle><line x1="12" y1="8" x2="12" y2="16"></line><line x1="8" y1="12" x2="16" y2="12"></line></symbol><symbol id="plus-square" viewBox="0 0 24 24"><rect x="3" y="3" width="18" height="18" rx="2" ry="2"></rect><line x1="12" y1="8" x2="12" y2="16"></line><line x1="8" y1="12" x2="16" y2="12"></line></symbol><symbol id="plus" viewBox="0 0 24 24"><line x1="12" y1="5" x2="12" y2="19"></line><line x1="5" y1="12" x2="19" y2="12"></line></symbol><symbol id="pocket" viewBox="0 0 24 24"><path d="M4 3h16a2 2 0 0 1 2 2v6a10 10 0 0 1-10 10A10 10 0 0 1 2 11V5a2 2 0 0 1 2-2z"></path><polyline points="8 10 12 14 16 10"></polyline></symbol><symbol id="power" viewBox="0 0 24 24"><path d="M18.36 6.64a9 9 0 1 1-12.73 0"></path><line x1="12" y1="2" x2="12" y2="12"></line></symbol><symbol id="printer" viewBox="0 0 24 24"><polyline points="6 9 6 2 18 2 18 9"></polyline><path d="M6 18H4a2 2 0 0 1-2-2v-5a2 2 0 0 1 2-2h16a2 2 0 0 1 2 2v5a2 2 0 0 1-2 2h-2"></path><rect x="6" y="14" width="12" height="8"></rect></symbol><symbol id="radio" viewBox="0 0 24 24"><circle cx="12" cy="12" r="2"></circle><path d="M16.24 7.76a6 6 0 0 1 0 8.49m-8.48-.01a6 6 0 0 1 0-8.49m11.31-2.82a10 10 0 0 1 0 14.14m-14.14 0a10 10 0 0 1 0-14.14"></path></symbol><symbol id="refresh-ccw" viewBox="0 0 24 24"><polyline points="1 4 1 10 7 10"></polyline><polyline points="23 20 23 14 17 14"></polyline><path d="M20.49 9A9 9 0 0 0 5.64 5.64L1 10m22 4l-4.64 4.36A9 9 0 0 1 3.51 15"></path></symbol><symbol id="refresh-cw" viewBox="0 0 24 24"><polyline points="23 4 23 10 17 10"></polyline><polyline points="1 20 1 14 7 14"></polyline><path d="M3.51 9a9 9 0 0 1 14.85-3.36L23 10M1 14l4.64 4.36A9 9 0 0 0 20.49 15"></path></symbol><symbol id="repeat" viewBox="0 0 24 24"><polyline points="17 1 21 5 17 9"></polyline><path d="M3 11V9a4 4 0 0 1 4-4h14"></path><polyline points="7 23 3 19 7 15"></polyline><path d="M21 13v2a4 4 0 0 1-4 4H3"></path></symbol><symbol id="rewind" viewBox="0 0 24 24"><polygon points="11 19 2 12 11 5 11 19"></polygon><polygon points="22 19 13 12 22 5 22 19"></polygon></symbol><symbol id="rotate-ccw" viewBox="0 0 24 24"><polyline points="1 4 1 10 7 10"></polyline><path d="M3.51 15a9 9 0 1 0 2.13-9.36L1 10"></path></symbol><symbol id="rotate-cw" viewBox="0 0 24 24"><polyline points="23 4 23 10 17 10"></polyline><path d="M20.49 15a9 9 0 1 1-2.12-9.36L23 10"></path></symbol><symbol id="rss" viewBox="0 0 24 24"><path d="M4 11a9 9 0 0 1 9 9"></path><path d="M4 4a16 16 0 0 1 16 16"></path><circle cx="5" cy="19" r="1"></circle></symbol><symbol id="save" viewBox="0 0 24 24"><path d="M19 21H5a2 2 0 0 1-2-2V5a2 2 0 0 1 2-2h11l5 5v11a2 2 0 0 1-2 2z"></path><polyline points="17 21 17 13 7 13 7 21"></polyline><polyline points="7 3 7 8 15 8"></polyline></symbol><symbol id="scissors" viewBox="0 0 24 24"><circle cx="6" cy="6" r="3"></circle><circle cx="6" cy="18" r="3"></circle><line x1="20" y1="4" x2="8.12" y2="15.88"></line><line x1="14.47" y1="14.48" x2="20" y2="20"></line><line x1="8.12" y1="8.12" x2="12" y2="12"></line></symbol><symbol id="search" viewBox="0 0 24 24"><circle cx="11" cy="11" r="8"></circle><line x1="21" y1="21" x2="16.65" y2="16.65"></line></symbol><symbol id="send" viewBox="0 0 24 24"><line x1="22" y1="2" x2="11" y2="13"></line><polygon points="22 2 15 22 11 13 2 9 22 2"></polygon></symbol><symbol id="server" viewBox="0 0 24 24"><rect x="2" y="2" width="20" height="8" rx="2" ry="2"></rect><rect x="2" y="14" width="20" height="8" rx="2" ry="2"></rect><line x1="6" y1="6" x2="6.01" y2="6"></line><line x1="6" y1="18" x2="6.01" y2="18"></line></symbol><symbol id="settings" viewBox="0 0 24 24"><circle cx="12" cy="12" r="3"></circle><path d="M19.4 15a1.65 1.65 0 0 0 .33 1.82l.06.06a2 2 0 0 1 0 2.83 2 2 0 0 1-2.83 0l-.06-.06a1.65 1.65 0 0 0-1.82-.33 1.65 1.65 0 0 0-1 1.51V21a2 2 0 0 1-2 2 2 2 0 0 1-2-2v-.09A1.65 1.65 0 0 0 9 19.4a1.65 1.65 0 0 0-1.82.33l-.06.06a2 2 0 0 1-2.83 0 2 2 0 0 1 0-2.83l.06-.06a1.65 1.65 0 0 0 .33-1.82 1.65 1.65 0 0 0-1.51-1H3a2 2 0 0 1-2-2 2 2 0 0 1 2-2h.09A1.65 1.65 0 0 0 4.6 9a1.65 1.65 0 0 0-.33-1.82l-.06-.06a2 2 0 0 1 0-2.83 2 2 0 0 1 2.83 0l.06.06a1.65 1.65 0 0 0 1.82.33H9a1.65 1.65 0 0 0 1-1.51V3a2 2 0 0 1 2-2 2 2 0 0 1 2 2v.09a1.65 1.65 0 0 0 1 1.51 1.65 1.65 0 0 0 1.82-.33l.06-.06a2 2 0 0 1 2.83 0 2 2 0 0 1 0 2.83l-.06.06a1.65 1.65 0 0 0-.33 1.82V9a1.65 1.65 0 0 0 1.51 1H21a2 2 0 0 1 2 2 2 2 0 0 1-2 2h-.09a1.65 1.65 0 0 0-1.51 1z"></path></symbol><symbol id="share-2" viewBox="0 0 24 24"><circle cx="18" cy="5" r="3"></circle><circle cx="6" cy="12" r="3"></circle><circle cx="18" cy="19" r="3"></circle><line x1="8.59" y1="13.51" x2="15.42" y2="17.49"></line><line x1="15.41" y1="6.51" x2="8.59" y2="10.49"></line></symbol><symbol id="share" viewBox="0 0 24 24"><path d="M4 12v8a2 2 0 0 0 2 2h12a2 2 0 0 0 2-2v-8"></path><polyline points="16 6 12 2 8 6"></polyline><line x1="12" y1="2" x2="12" y2="15"></line></symbol><symbol id="shield-off" viewBox="0 0 24 24"><path d="M19.69 14a6.9 6.9 0 0 0 .31-2V5l-8-3-3.16 1.18"></path><path d="M4.73 4.73L4 5v7c0 6 8 10 8 10a20.29 20.29 0 0 0 5.62-4.38"></path><line x1="1" y1="1" x2="23" y2="23"></line></symbol><symbol id="shield" viewBox="0 0 24 24"><path d="M12 22s8-4 8-10V5l-8-3-8 3v7c0 6 8 10 8 10z"></path></symbol><symbol id="shopping-bag" viewBox="0 0 24 24"><path d="M6 2L3 6v14a2 2 0 0 0 2 2h14a2 2 0 0 0 2-2V6l-3-4z"></path><line x1="3" y1="6" x2="21" y2="6"></line><path d="M16 10a4 4 0 0 1-8 0"></path></symbol><symbol id="shopping-cart" viewBox="0 0 24 24"><circle cx="9" cy="21" r="1"></circle><circle cx="20" cy="21" r="1"></circle><path d="M1 1h4l2.68 13.39a2 2 0 0 0 2 1.61h9.72a2 2 0 0 0 2-1.61L23 6H6"></path></symbol><symbol id="shuffle" viewBox="0 0 24 24"><polyline points="16 3 21 3 21 8"></polyline><line x1="4" y1="20" x2="21" y2="3"></line><polyline points="21 16 21 21 16 21"></polyline><line x1="15" y1="15" x2="21" y2="21"></line><line x1="4" y1="4" x2="9" y2="9"></line></symbol><symbol id="sidebar" viewBox="0 0 24 24"><rect x="3" y="3" width="18" height="18" rx="2" ry="2"></rect><line x1="9" y1="3" x2="9" y2="21"></line></symbol><symbol id="skip-back" viewBox="0 0 24 24"><polygon points="19 20 9 12 19 4 19 20"></polygon><line x1="5" y1="19" x2="5" y2="5"></line></symbol><symbol id="skip-forward" viewBox="0 0 24 24"><polygon points="5 4 15 12 5 20 5 4"></polygon><line x1="19" y1="5" x2="19" y2="19"></line></symbol><symbol id="slack" viewBox="0 0 24 24"><path d="M14.5 10c-.83 0-1.5-.67-1.5-1.5v-5c0-.83.67-1.5 1.5-1.5s1.5.67 1.5 1.5v5c0 .83-.67 1.5-1.5 1.5z"></path><path d="M20.5 10H19V8.5c0-.83.67-1.5 1.5-1.5s1.5.67 1.5 1.5-.67 1.5-1.5 1.5z"></path><path d="M9.5 14c.83 0 1.5.67 1.5 1.5v5c0 .83-.67 1.5-1.5 1.5S8 21.33 8 20.5v-5c0-.83.67-1.5 1.5-1.5z"></path><path d="M3.5 14H5v1.5c0 .83-.67 1.5-1.5 1.5S2 16.33 2 15.5 2.67 14 3.5 14z"></path><path d="M14 14.5c0-.83.67-1.5 1.5-1.5h5c.83 0 1.5.67 1.5 1.5s-.67 1.5-1.5 1.5h-5c-.83 0-1.5-.67-1.5-1.5z"></path><path d="M15.5 19H14v1.5c0 .83.67 1.5 1.5 1.5s1.5-.67 1.5-1.5-.67-1.5-1.5-1.5z"></path><path d="M10 9.5C10 8.67 9.33 8 8.5 8h-5C2.67 8 2 8.67 2 9.5S2.67 11 3.5 11h5c.83 0 1.5-.67 1.5-1.5z"></path><path d="M8.5 5H10V3.5C10 2.67 9.33 2 8.5 2S7 2.67 7 3.5 7.67 5 8.5 5z"></path></symbol><symbol id="slash" viewBox="0 0 24 24"><circle cx="12" cy="12" r="10"></circle><line x1="4.93" y1="4.93" x2="19.07" y2="19.07"></line></symbol><symbol id="sliders" viewBox="0 0 24 24"><line x1="4" y1="21" x2="4" y2="14"></line><line x1="4" y1="10" x2="4" y2="3"></line><line x1="12" y1="21" x2="12" y2="12"></line><line x1="12" y1="8" x2="12" y2="3"></line><line x1="20" y1="21" x2="20" y2="16"></line><line x1="20" y1="12" x2="20" y2="3"></line><line x1="1" y1="14" x2="7" y2="14"></line><line x1="9" y1="8" x2="15" y2="8"></line><line x1="17" y1="16" x2="23" y2="16"></line></symbol><symbol id="smartphone" viewBox="0 0 24 24"><rect x="5" y="2" width="14" height="20" rx="2" ry="2"></rect><line x1="12" y1="18" x2="12.01" y2="18"></line></symbol><symbol id="smile" viewBox="0 0 24 24"><circle cx="12" cy="12" r="10"></circle><path d="M8 14s1.5 2 4 2 4-2 4-2"></path><line x1="9" y1="9" x2="9.01" y2="9"></line><line x1="15" y1="9" x2="15.01" y2="9"></line></symbol><symbol id="speaker" viewBox="0 0 24 24"><rect x="4" y="2" width="16" height="20" rx="2" ry="2"></rect><circle cx="12" cy="14" r="4"></circle><line x1="12" y1="6" x2="12.01" y2="6"></line></symbol><symbol id="square" viewBox="0 0 24 24"><rect x="3" y="3" width="18" height="18" rx="2" ry="2"></rect></symbol><symbol id="star" viewBox="0 0 24 24"><polygon points="12 2 15.09 8.26 22 9.27 17 14.14 18.18 21.02 12 17.77 5.82 21.02 7 14.14 2 9.27 8.91 8.26 12 2"></polygon></symbol><symbol id="stop-circle" viewBox="0 0 24 24"><circle cx="12" cy="12" r="10"></circle><rect x="9" y="9" width="6" height="6"></rect></symbol><symbol id="sun" viewBox="0 0 24 24"><circle cx="12" cy="12" r="5"></circle><line x1="12" y1="1" x2="12" y2="3"></line><line x1="12" y1="21" x2="12" y2="23"></line><line x1="4.22" y1="4.22" x2="5.64" y2="5.64"></line><line x1="18.36" y1="18.36" x2="19.78" y2="19.78"></line><line x1="1" y1="12" x2="3" y2="12"></line><line x1="21" y1="12" x2="23" y2="12"></line><line x1="4.22" y1="19.78" x2="5.64" y2="18.36"></line><line x1="18.36" y1="5.64" x2="19.78" y2="4.22"></line></symbol><symbol id="sunrise" viewBox="0 0 24 24"><path d="M17 18a5 5 0 0 0-10 0"></path><line x1="12" y1="2" x2="12" y2="9"></line><line x1="4.22" y1="10.22" x2="5.64" y2="11.64"></line><line x1="1" y1="18" x2="3" y2="18"></line><line x1="21" y1="18" x2="23" y2="18"></line><line x1="18.36" y1="11.64" x2="19.78" y2="10.22"></line><line x1="23" y1="22" x2="1" y2="22"></line><polyline points="8 6 12 2 16 6"></polyline></symbol><symbol id="sunset" viewBox="0 0 24 24"><path d="M17 18a5 5 0 0 0-10 0"></path><line x1="12" y1="9" x2="12" y2="2"></line><line x1="4.22" y1="10.22" x2="5.64" y2="11.64"></line><line x1="1" y1="18" x2="3" y2="18"></line><line x1="21" y1="18" x2="23" y2="18"></line><line x1="18.36" y1="11.64" x2="19.78" y2="10.22"></line><line x1="23" y1="22" x2="1" y2="22"></line><polyline points="16 5 12 9 8 5"></polyline></symbol><symbol id="tablet" viewBox="0 0 24 24"><rect x="4" y="2" width="16" height="20" rx="2" ry="2"></rect><line x1="12" y1="18" x2="12.01" y2="18"></line></symbol><symbol id="tag" viewBox="0 0 24 24"><path d="M20.59 13.41l-7.17 7.17a2 2 0 0 1-2.83 0L2 12V2h10l8.59 8.59a2 2 0 0 1 0 2.82z"></path><line x1="7" y1="7" x2="7.01" y2="7"></line></symbol><symbol id="target" viewBox="0 0 24 24"><circle cx="12" cy="12" r="10"></circle><circle cx="12" cy="12" r="6"></circle><circle cx="12" cy="12" r="2"></circle></symbol><symbol id="terminal" viewBox="0 0 24 24"><polyline points="4 17 10 11 4 5"></polyline><line x1="12" y1="19" x2="20" y2="19"></line></symbol><symbol id="thermometer" viewBox="0 0 24 24"><path d="M14 14.76V3.5a2.5 2.5 0 0 0-5 0v11.26a4.5 4.5 0 1 0 5 0z"></path></symbol><symbol id="thumbs-down" viewBox="0 0 24 24"><path d="M10 15v4a3 3 0 0 0 3 3l4-9V2H5.72a2 2 0 0 0-2 1.7l-1.38 9a2 2 0 0 0 2 2.3zm7-13h2.67A2.31 2.31 0 0 1 22 4v7a2.31 2.31 0 0 1-2.33 2H17"></path></symbol><symbol id="thumbs-up" viewBox="0 0 24 24"><path d="M14 9V5a3 3 0 0 0-3-3l-4 9v11h11.28a2 2 0 0 0 2-1.7l1.38-9a2 2 0 0 0-2-2.3zM7 22H4a2 2 0 0 1-2-2v-7a2 2 0 0 1 2-2h3"></path></symbol><symbol id="toggle-left" viewBox="0 0 24 24"><rect x="1" y="5" width="22" height="14" rx="7" ry="7"></rect><circle cx="8" cy="12" r="3"></circle></symbol><symbol id="toggle-right" viewBox="0 0 24 24"><rect x="1" y="5" width="22" height="14" rx="7" ry="7"></rect><circle cx="16" cy="12" r="3"></circle></symbol><symbol id="tool" viewBox="0 0 24 24"><path d="M14.7 6.3a1 1 0 0 0 0 1.4l1.6 1.6a1 1 0 0 0 1.4 0l3.77-3.77a6 6 0 0 1-7.94 7.94l-6.91 6.91a2.12 2.12 0 0 1-3-3l6.91-6.91a6 6 0 0 1 7.94-7.94l-3.76 3.76z"></path></symbol><symbol id="trash-2" viewBox="0 0 24 24"><polyline points="3 6 5 6 21 6"></polyline><path d="M19 6v14a2 2 0 0 1-2 2H7a2 2 0 0 1-2-2V6m3 0V4a2 2 0 0 1 2-2h4a2 2 0 0 1 2 2v2"></path><line x1="10" y1="11" x2="10" y2="17"></line><line x1="14" y1="11" x2="14" y2="17"></line></symbol><symbol id="trash" viewBox="0 0 24 24"><polyline points="3 6 5 6 21 6"></polyline><path d="M19 6v14a2 2 0 0 1-2 2H7a2 2 0 0 1-2-2V6m3 0V4a2 2 0 0 1 2-2h4a2 2 0 0 1 2 2v2"></path></symbol><symbol id="trello" viewBox="0 0 24 24"><rect x="3" y="3" width="18" height="18" rx="2" ry="2"></rect><rect x="7" y="7" width="3" height="9"></rect><rect x="14" y="7" width="3" height="5"></rect></symbol><symbol id="trending-down" viewBox="0 0 24 24"><polyline points="23 18 13.5 8.5 8.5 13.5 1 6"></polyline><polyline points="17 18 23 18 23 12"></polyline></symbol><symbol id="trending-up" viewBox="0 0 24 24"><polyline points="23 6 13.5 15.5 8.5 10.5 1 18"></polyline><polyline points="17 6 23 6 23 12"></polyline></symbol><symbol id="triangle" viewBox="0 0 24 24"><path d="M10.29 3.86L1.82 18a2 2 0 0 0 1.71 3h16.94a2 2 0 0 0 1.71-3L13.71 3.86a2 2 0 0 0-3.42 0z"></path></symbol><symbol id="truck" viewBox="0 0 24 24"><rect x="1" y="3" width="15" height="13"></rect><polygon points="16 8 20 8 23 11 23 16 16 16 16 8"></polygon><circle cx="5.5" cy="18.5" r="2.5"></circle><circle cx="18.5" cy="18.5" r="2.5"></circle></symbol><symbol id="tv" viewBox="0 0 24 24"><rect x="2" y="7" width="20" height="15" rx="2" ry="2"></rect><polyline points="17 2 12 7 7 2"></polyline></symbol><symbol id="twitch" viewBox="0 0 24 24"><path d="M21 2H3v16h5v4l4-4h5l4-4V2zm-10 9V7m5 4V7"></path></symbol><symbol id="twitter" viewBox="0 0 24 24"><path d="M23 3a10.9 10.9 0 0 1-3.14 1.53 4.48 4.48 0 0 0-7.86 3v1A10.66 10.66 0 0 1 3 4s-4 9 5 13a11.64 11.64 0 0 1-7 2c9 5 20 0 20-11.5a4.5 4.5 0 0 0-.08-.83A7.72 7.72 0 0 0 23 3z"></path></symbol><symbol id="type" viewBox="0 0 24 24"><polyline points="4 7 4 4 20 4 20 7"></polyline><line x1="9" y1="20" x2="15" y2="20"></line><line x1="12" y1="4" x2="12" y2="20"></line></symbol><symbol id="umbrella" viewBox="0 0 24 24"><path d="M23 12a11.05 11.05 0 0 0-22 0zm-5 7a3 3 0 0 1-6 0v-7"></path></symbol><symbol id="underline" viewBox="0 0 24 24"><path d="M6 3v7a6 6 0 0 0 6 6 6 6 0 0 0 6-6V3"></path><line x1="4" y1="21" x2="20" y2="21"></line></symbol><symbol id="unlock" viewBox="0 0 24 24"><rect x="3" y="11" width="18" height="11" rx="2" ry="2"></rect><path d="M7 11V7a5 5 0 0 1 9.9-1"></path></symbol><symbol id="upload-cloud" viewBox="0 0 24 24"><polyline points="16 16 12 12 8 16"></polyline><line x1="12" y1="12" x2="12" y2="21"></line><path d="M20.39 18.39A5 5 0 0 0 18 9h-1.26A8 8 0 1 0 3 16.3"></path><polyline points="16 16 12 12 8 16"></polyline></symbol><symbol id="upload" viewBox="0 0 24 24"><path d="M21 15v4a2 2 0 0 1-2 2H5a2 2 0 0 1-2-2v-4"></path><polyline points="17 8 12 3 7 8"></polyline><line x1="12" y1="3" x2="12" y2="15"></line></symbol><symbol id="user-check" viewBox="0 0 24 24"><path d="M16 21v-2a4 4 0 0 0-4-4H5a4 4 0 0 0-4 4v2"></path><circle cx="8.5" cy="7" r="4"></circle><polyline points="17 11 19 13 23 9"></polyline></symbol><symbol id="user-minus" viewBox="0 0 24 24"><path d="M16 21v-2a4 4 0 0 0-4-4H5a4 4 0 0 0-4 4v2"></path><circle cx="8.5" cy="7" r="4"></circle><line x1="23" y1="11" x2="17" y2="11"></line></symbol><symbol id="user-plus" viewBox="0 0 24 24"><path d="M16 21v-2a4 4 0 0 0-4-4H5a4 4 0 0 0-4 4v2"></path><circle cx="8.5" cy="7" r="4"></circle><line x1="20" y1="8" x2="20" y2="14"></line><line x1="23" y1="11" x2="17" y2="11"></line></symbol><symbol id="user-x" viewBox="0 0 24 24"><path d="M16 21v-2a4 4 0 0 0-4-4H5a4 4 0 0 0-4 4v2"></path><circle cx="8.5" cy="7" r="4"></circle><line x1="18" y1="8" x2="23" y2="13"></line><line x1="23" y1="8" x2="18" y2="13"></line></symbol><symbol id="user" viewBox="0 0 24 24"><path d="M20 21v-2a4 4 0 0 0-4-4H8a4 4 0 0 0-4 4v2"></path><circle cx="12" cy="7" r="4"></circle></symbol><symbol id="users" viewBox="0 0 24 24"><path d="M17 21v-2a4 4 0 0 0-4-4H5a4 4 0 0 0-4 4v2"></path><circle cx="9" cy="7" r="4"></circle><path d="M23 21v-2a4 4 0 0 0-3-3.87"></path><path d="M16 3.13a4 4 0 0 1 0 7.75"></path></symbol><symbol id="video-off" viewBox="0 0 24 24"><path d="M16 16v1a2 2 0 0 1-2 2H3a2 2 0 0 1-2-2V7a2 2 0 0 1 2-2h2m5.66 0H14a2 2 0 0 1 2 2v3.34l1 1L23 7v10"></path><line x1="1" y1="1" x2="23" y2="23"></line></symbol><symbol id="video" viewBox="0 0 24 24"><polygon points="23 7 16 12 23 17 23 7"></polygon><rect x="1" y="5" width="15" height="14" rx="2" ry="2"></rect></symbol><symbol id="voicemail" viewBox="0 0 24 24"><circle cx="5.5" cy="11.5" r="4.5"></circle><circle cx="18.5" cy="11.5" r="4.5"></circle><line x1="5.5" y1="16" x2="18.5" y2="16"></line></symbol><symbol id="volume-1" viewBox="0 0 24 24"><polygon points="11 5 6 9 2 9 2 15 6 15 11 19 11 5"></polygon><path d="M15.54 8.46a5 5 0 0 1 0 7.07"></path></symbol><symbol id="volume-2" viewBox="0 0 24 24"><polygon points="11 5 6 9 2 9 2 15 6 15 11 19 11 5"></polygon><path d="M19.07 4.93a10 10 0 0 1 0 14.14M15.54 8.46a5 5 0 0 1 0 7.07"></path></symbol><symbol id="volume-x" viewBox="0 0 24 24"><polygon points="11 5 6 9 2 9 2 15 6 15 11 19 11 5"></polygon><line x1="23" y1="9" x2="17" y2="15"></line><line x1="17" y1="9" x2="23" y2="15"></line></symbol><symbol id="volume" viewBox="0 0 24 24"><polygon points="11 5 6 9 2 9 2 15 6 15 11 19 11 5"></polygon></symbol><symbol id="watch" viewBox="0 0 24 24"><circle cx="12" cy="12" r="7"></circle><polyline points="12 9 12 12 13.5 13.5"></polyline><path d="M16.51 17.35l-.35 3.83a2 2 0 0 1-2 1.82H9.83a2 2 0 0 1-2-1.82l-.35-3.83m.01-10.7l.35-3.83A2 2 0 0 1 9.83 1h4.35a2 2 0 0 1 2 1.82l.35 3.83"></path></symbol><symbol id="wifi-off" viewBox="0 0 24 24"><line x1="1" y1="1" x2="23" y2="23"></line><path d="M16.72 11.06A10.94 10.94 0 0 1 19 12.55"></path><path d="M5 12.55a10.94 10.94 0 0 1 5.17-2.39"></path><path d="M10.71 5.05A16 16 0 0 1 22.58 9"></path><path d="M1.42 9a15.91 15.91 0 0 1 4.7-2.88"></path><path d="M8.53 16.11a6 6 0 0 1 6.95 0"></path><line x1="12" y1="20" x2="12.01" y2="20"></line></symbol><symbol id="wifi" viewBox="0 0 24 24"><path d="M5 12.55a11 11 0 0 1 14.08 0"></path><path d="M1.42 9a16 16 0 0 1 21.16 0"></path><path d="M8.53 16.11a6 6 0 0 1 6.95 0"></path><line x1="12" y1="20" x2="12.01" y2="20"></line></symbol><symbol id="wind" viewBox="0 0 24 24"><path d="M9.59 4.59A2 2 0 1 1 11 8H2m10.59 11.41A2 2 0 1 0 14 16H2m15.73-8.27A2.5 2.5 0 1 1 19.5 12H2"></path></symbol><symbol id="x-circle" viewBox="0 0 24 24"><circle cx="12" cy="12" r="10"></circle><line x1="15" y1="9" x2="9" y2="15"></line><line x1="9" y1="9" x2="15" y2="15"></line></symbol><symbol id="x-octagon" viewBox="0 0 24 24"><polygon points="7.86 2 16.14 2 22 7.86 22 16.14 16.14 22 7.86 22 2 16.14 2 7.86 7.86 2"></polygon><line x1="15" y1="9" x2="9" y2="15"></line><line x1="9" y1="9" x2="15" y2="15"></line></symbol><symbol id="x-square" viewBox="0 0 24 24"><rect x="3" y="3" width="18" height="18" rx="2" ry="2"></rect><line x1="9" y1="9" x2="15" y2="15"></line><line x1="15" y1="9" x2="9" y2="15"></line></symbol><symbol id="x" viewBox="0 0 24 24"><line x1="18" y1="6" x2="6" y2="18"></line><line x1="6" y1="6" x2="18" y2="18"></line></symbol><symbol id="youtube" viewBox="0 0 24 24"><path d="M22.54 6.42a2.78 2.78 0 0 0-1.94-2C18.88 4 12 4 12 4s-6.88 0-8.6.46a2.78 2.78 0 0 0-1.94 2A29 29 0 0 0 1 11.75a29 29 0 0 0 .46 5.33A2.78 2.78 0 0 0 3.4 19c1.72.46 8.6.46 8.6.46s6.88 0 8.6-.46a2.78 2.78 0 0 0 1.94-2 29 29 0 0 0 .46-5.25 29 29 0 0 0-.46-5.33z"></path><polygon points="9.75 15.02 15.5 11.75 9.75 8.48 9.75 15.02"></polygon></symbol><symbol id="zap-off" viewBox="0 0 24 24"><polyline points="12.41 6.75 13 2 10.57 4.92"></polyline><polyline points="18.57 12.91 21 10 15.66 10"></polyline><polyline points="8 8 3 14 12 14 11 22 16 16"></polyline><line x1="1" y1="1" x2="23" y2="23"></line></symbol><symbol id="zap" viewBox="0 0 24 24"><polygon points="13 2 3 14 12 14 11 22 21 10 12 10 13 2"></polygon></symbol><symbol id="zoom-in" viewBox="0 0 24 24"><circle cx="11" cy="11" r="8"></circle><line x1="21" y1="21" x2="16.65" y2="16.65"></line><line x1="11" y1="8" x2="11" y2="14"></line><line x1="8" y1="11" x2="14" y2="11"></line></symbol><symbol id="zoom-out" viewBox="0 0 24 24"><circle cx="11" cy="11" r="8"></circle><line x1="21" y1="21" x2="16.65" y2="16.65"></line><line x1="8" y1="11" x2="14" y2="11"></line></symbol>
<symbol id="zoom-out" viewBox="0 0 24 24"><circle cx="11" cy="11" r="8"></circle><line x1="21" y1="21" x2="16.65" y2="16.65"></line><line x1="8" y1="11" x2="14" y2="11"></line></symbol>
<symbol id="svgicon-chef-hat" viewBox="0 0 32 32"><title>chef-hat</title><path fill="none" stroke-width="1" stroke-miterlimit="10" stroke-linecap="round" stroke-linejoin="round" d="M23.336 4c-0.8 0-1.549 0.2-2.205 0.555-0.633-2.243-3.357-3.888-5.8-3.888s-5.2 1.645-5.833 3.888c-0.656-0.355-1.409-0.555-2.203-0.555-2.579 0-4.669 2.089-4.669 4.667s2 4.667 4.667 4.667v17.917h16.039v-17.917c2.667 0 4.669-2.089 4.669-4.667s-2.088-4.667-4.664-4.667zM7.292 25.917h16.039M11.305 20.584v5.333M15.292 19.251v6.667M19.317 20.584v5.333"></path></symbol>
<symbol id="svgicon-drink-coffee" viewBox="0 0 32 32"><title>drink-coffee</title><path fill="none" stroke-width="1" stroke-miterlimit="10" stroke-linecap="round" stroke-linejoin="round" d="M24 31.333h-16l-1.333-21.333h18.667zM5.333 4.667h21.333v5.333h-21.333zM25.333 4.667h-18.667l1.333-4h16z"></path><path fill="none" stroke-width="1" stroke-miterlimit="10" stroke-linecap="butt" stroke-linejoin="round" d="M7 15.333h18M7.5 23.333h17.028"></path><path fill="none" stroke-width="1" stroke-miterlimit="10" stroke-linecap="round" stroke-linejoin="round" d="M12.667 19.333h6.667"></path></symbol><symbol id="svgicon-music-note" viewBox="0 0 32 32"><title>music-note</title><path fill="none" stroke-width="1" stroke-miterlimit="10" stroke-linecap="butt" stroke-linejoin="round" d="M12.667 27.333c0 2-1.791 4-4 4-2.208 0-4-1.791-4-4 0-2.208 1.792-4 4-4h4v4zM27.333 22c0 2-1.791 4-4 4-2.208 0-4-1.791-4-4 0-2.208 1.792-4 4-4h4v4zM12.667 24.667v-17.333l14.667-6v19.333M12.667 12l14.667-6"></path></symbol>
<symbol id="svgicon-notebook-2" viewBox="0 0 32 32"><title>notebook-2</title><path fill="none" stroke-width="1" stroke-miterlimit="10" stroke-linecap="round" stroke-linejoin="round" d="M27.333 24.667h-22.667v-13.333h22.667zM2 27.333v-16.667c0-1.104 0.896-2 2-2h24c1.104 0 2 0.896 2 2v16.667"></path><path fill="none" stroke-width="1" stroke-miterlimit="10" stroke-linecap="round" stroke-linejoin="round" d="M19.333 27.333v1h-6.667v-1h-12v2.667c0 0.737 0.597 1 1 1h28c0.737 0 1-0.596 1-1v-2.667h-12z"></path></symbol>
<symbol id="svgicon-paint-palette" viewBox="0 0 32 32"><title>paint-palette</title><path fill="none" stroke-width="1" stroke-miterlimit="10" stroke-linecap="round" stroke-linejoin="round" d="M5.157 27.852c-5.988-5.987-5.988-15.697 0-21.685s15.696-5.987 21.685 0 5.988 15.697 0 21.685c-2.863 2.864-7.507 2.864-10.371 0l-5.656-5.656c-0.521-0.521-1.365-0.521-1.885 0-0.521 0.521-0.521 1.364 0 1.885 1.040 1.041 1.040 2.729 0 3.771-1.043 1.041-2.732 1.041-3.773 0z"></path><path fill="none" stroke-width="1" stroke-miterlimit="10" stroke-linecap="round" stroke-linejoin="round" d="M23.655 10.411c0 1.104-0.895 1.999-1.999 1.999s-1.999-0.895-1.999-1.999c0-1.104 0.895-1.999 1.999-1.999s1.999 0.895 1.999 1.999z"></path><path fill="none" stroke-width="1" stroke-miterlimit="10" stroke-linecap="round" stroke-linejoin="round" d="M26.667 17.008c0 0.736-0.597 1-1 1s-1-0.597-1-1c0-0.736 0.597-1 1-1s1 0.597 1 1z"></path><path fill="none" stroke-width="1" stroke-miterlimit="10" stroke-linecap="round" stroke-linejoin="round" d="M24.323 23.609c0 1.473-1.194 2.667-2.667 2.667s-2.667-1.194-2.667-2.667c0-1.473 1.194-2.667 2.667-2.667s2.667 1.194 2.667 2.667z"></path><path fill="none" stroke-width="1" stroke-miterlimit="10" stroke-linecap="round" stroke-linejoin="round" d="M15.641 8.995c0 1.104-0.895 1.999-1.999 1.999s-1.999-0.895-1.999-1.999c0-1.104 0.895-1.999 1.999-1.999s1.999 0.895 1.999 1.999z"></path></symbol>
<symbol id="svgicon-figma" viewBox="0 0 43 63.5"><title>figma</title><g><path fill="none" stroke-width="3" stroke-miterlimit="10" d="M21.6,32.8c-0.1,0.2-0.1,0.5-0.1,0.7c0,2.8,0,5.6,0,8.4c-0.2,0.3-0.6,0.2-0.9,0.2c-2.6,0-5.3,0-7.9,0c-0.5,0-1,0-1.5,0c-0.4,0-0.7,0-1-0.3c-2.2-0.2-4-1-5.7-2.4C2.2,37.4,1,34.8,1,31.6c0-2.7,1-5,2.9-7c0.1-0.1,0.2-0.3,0.3-0.4c1.5-1.3,3.3-2.3,5.3-2.6c0.2,0,0.3,0,0.5-0.1c1.2-0.6,2.5-0.3,3.7-0.3c2.3,0,4.5,0,6.8,0c0.3,0,0.6,0,0.9,0.1c0.1,0,0.1,0.1,0.1,0.1c0.1,0.2,0.1,0.3,0.1,0.5c0,2.3,0.1,4.6,0,6.9c0,0.6,0.1,1.2,0.1,1.8c0,0.6-0.1,1.2,0,1.7C21.8,32.6,21.8,32.8,21.6,32.8z"/><path fill="none" stroke-width="3" stroke-miterlimit="10" d="M21.5,1c3.6,0,7.2-0.1,10.8,0c4.8,0.1,9.1,4.2,9.7,8.9c0.7,5.4-3.1,10.7-8.8,11.4c-0.1,0-0.3,0-0.3,0.2c-0.1,0.2-0.3,0.2-0.4,0.2c-0.6-0.1-1.3,0-1.9,0c-2.7-0.2-5.4,0-8.1-0.1c-0.3,0-0.7,0.1-0.9-0.2l0,0c-0.2-0.2-0.2-0.4-0.2-0.6c0-0.6,0-1.1,0-1.7c0-5.7,0-11.5,0-17.2C21.3,1.7,21.2,1.3,21.5,1z"/><path fill="none" stroke-width="3" stroke-miterlimit="10" d="M21.5,1c0,6.8,0,13.7,0,20.5c-3.8,0-7.7-0.1-11.5,0.1c0.1,0,0.1-0.1,0.2-0.2c-2-0.2-3.8-0.9-5.3-2.1c-2.2-1.7-3.5-4-3.9-6.8C0.4,7.2,4,2.1,9.5,1.2C9.9,1.1,10.4,1,10.8,1C14.3,1,17.9,1,21.5,1z"/><path fill="none" stroke-width="3" stroke-miterlimit="10" d="M30.6,21.6c0.8-0.1,1.5-0.1,2.3,0c1.5,0.1,5.2,1.8,5.2,2.1c0.3,0.2,0.5,0.4,0.8,0.7c1.1,1.1,1.9,2.3,2.5,3.7c2.4,6.2-1.7,13-8.4,13.8c-5.5,0.7-10.5-3.1-11.4-8.6c0-0.2,0-0.3,0-0.5c-0.1-0.7-0.1-1.4,0-2.1c0-1,0-1.9,0.4-2.8c1.2-2.9,3.3-4.9,6.2-6C29,21.6,29.8,21.6,30.6,21.6z"/><path fill="none" stroke-width="3" stroke-miterlimit="10" d="M10.2,41.9c3.8,0.2,7.5,0,11.3,0.1c0,3.6,0.1,7.3,0,10.9c-0.2,4.9-4.1,9-9,9.5C6.9,63.1,2,59.4,1.1,53.9c-0.9-5.6,3-10.9,8.6-11.8C9.9,42.1,10.1,42.2,10.2,41.9z"/><path fill="none" stroke-width="3" stroke-miterlimit="10" d="M30.6,21.6c-4.8,0.5-8.6,4.5-9,9.1c-0.1-0.2-0.1-0.5-0.1-0.7c0-2.8,0-5.7,0-8.5c2.8,0,5.6,0,8.4,0C30.2,21.5,30.4,21.5,30.6,21.6z"/></g></symbol>
<symbol id="svgicon-virtual_reality" viewBox="0 0 71.8 112.1"><title>virtual_reality</title><g><path fill="#cacaca" d="M46,83.6c9.5,2.7,16.2,8.3,19.8,17.4c1.1,2.7,1.6,5.6,1.6,8.5c0,1.7-0.6,2.6-2.4,2.6c-19.5,0-38.9,0-58.4,0c-2,0-2.4-1-2.4-2.7c0-11.1,8.2-21.6,19.3-24.8c0.7-0.2,1.4-0.4,2.1-0.6c-0.4-0.6-1-0.3-1.5-0.3c-6.6,0-13.1-0.1-19.7,0c-2,0-2.9-0.7-2.8-2.8c0.1-8.8,0-17.5,0-26.3c0-1.2-0.2-2.2-0.7-3.4c-1.3-3.1-1.4-6.2,0.2-9.3c0.9-1.8,0.4-3.9,0.4-5.8c-0.2-5.7,0.8-11.1,3.2-16.3c7.7-16.6,27.7-24.2,44.5-17c0.4,0.2,0.8,0.4,1.2,0.6C51.7,3.8,52.6,4.6,52,6c-0.6,1.4-1.8,1.2-3,0.6c-4.1-1.9-8.4-3-12.9-3C24.4,3.8,15.4,9,9.2,19c-0.3,0.5-0.6,1-0.7,1.6c2-1.4,4.7-1.3,6.4-3.5c2.7-3.6,6.4-6.1,10.5-7.9c1.3-0.6,2.3-0.5,3.4,0.5c2.6,2.3,5.7,4.1,8.8,5.7c5,2.6,10.3,3.7,16,3.2c3.3-0.3,6.6-0.1,9.2,2.4c0.5-1-0.2-1.6-0.5-2.2c-1.7-2.9-3.9-5.5-6.4-7.7c-1-0.8-1.7-1.8-0.7-3c1-1.2,2.1-0.6,3,0.2c7.4,6.6,11.5,14.9,11.9,24.9c0.1,1.5,0,2.9,0,4.4c0,2,0.1,3.8,1,5.7c1.2,2.6,0.7,5.3-0.3,7.8c-0.5,1.1-0.6,2.2-0.6,3.4c0,8.7,0,17.4,0,26c0,2.7-0.3,3-3,3C60,83.6,53,83.6,46,83.6z M35.9,22.3c-6.5,0-13,0.2-19.5-0.1c-4.8-0.2-7.1,2.6-7,7c0.1,6.3,0.2,12.7-0.1,19c-0.2,4.2,2.2,6.9,5.9,7c13.7,0.1,27.4,0.1,41.1,0c3.8,0,5.9-2,6-5.8c0.1-7.1,0.1-14.3,0-21.4c-0.1-3.7-2.3-5.7-6-5.7C49.4,22.3,42.6,22.3,35.9,22.3z M5.2,56.9c0,7.4,0,14.6,0,21.9c0,1.4,0.9,1.1,1.6,1.1c6.1,0,12.2,0,18.4,0c0.6,0,1.5,0.4,1.6-0.5c0.1-0.7-0.7-0.8-1.3-1c-2.2-0.9-4.2-2.1-6-3.5c-1-0.7-1.2-1.7-0.5-2.7c0.7-0.9,1.6-0.9,2.5-0.3c0.4,0.2,0.7,0.5,1.1,0.7c7.9,5.1,16.1,5.6,24.4,1.3c6.2-3.2,10-8.3,11.8-15.1c-15.3,0-30.5,0-45.7,0c0.6,3,2,5.6,3.6,8c0.7,1,0.9,2.1-0.3,2.8c-1.2,0.8-2,0.1-2.7-0.9c-1.5-2.2-3-4.4-3.4-7C9.6,58.8,7.8,57.7,5.2,56.9z M50.5,89.2c-0.2,0.5-0.3,0.8-0.4,1.2c-2.3,6.4-7.6,10.3-14.1,10.4c-6.4,0.1-11.9-3.9-14.1-10.4c-0.6-1.7-1.2-1-2-0.5c-6.5,3.8-10.5,9.3-11.8,16.7c-0.3,1.6,0,2,1.6,2c6.3-0.1,12.7,0,19,0c11.2,0,22.3,0,33.5,0c0.8,0,1.9,0.4,1.6-1.2C62.4,99.1,58,93,50.5,89.2z M34.7,80.4c-4.2-0.4-4.2-0.4-4.2,3c0,3.3-0.1,3.4-3.2,4c-0.4,0.1-0.9,0.2-1.3,0.2c-1,0.1-1.1,0.5-0.8,1.5c1.3,4.6,5.6,8,10.4,8.1c5,0.1,9.3-2.9,10.9-7.5c0.5-1.4,0.3-2-1.2-2.2c-4.4-0.6-4.2-0.6-4.2-5.1c0-0.4,0-0.7,0-1.1c0.1-1-0.2-1.4-1.3-1.2C37.9,80.3,35.9,80.4,34.7,80.4z M66.5,56.4c-1.5,1.8-3.8,1.1-4.4,3.3c-2.3,8.9-7.8,15.1-16.2,18.7c-0.5,0.2-1.1,0.3-1,0.9c0.1,0.7,0.8,0.5,1.2,0.5c6.3,0,12.7,0,19,0c1.1,0,1.3-0.4,1.3-1.4C66.5,71.4,66.5,64.2,66.5,56.4z M34.9,18.5c-2.6-1.8-5.3-3.4-7.6-5.4c-0.4-0.4-0.8-0.5-1.4-0.2c-2.7,1.3-5.2,3-7.4,5.5C24.2,18.5,29.6,18.5,34.9,18.5z M5.7,42.7c-2.9,2.1-2.8,6.5,0.5,9.7C5.4,49,5.8,45.9,5.7,42.7z M65.8,42.4c0,3.4,0,6.5,0,9.6C68.7,49,68.9,45,65.8,42.4z M5.7,38.4c0-2.3,0-4.5,0-6.8C5.1,33.9,5.1,36.1,5.7,38.4z M66,38.4c0.5-2.2,0.7-4.5,0-6.7C66,33.9,66,36.2,66,38.4z"/><path fill="#cacaca" d="M35.8,51.7c-5.5,0-11.1,0-16.6,0c-4,0-6.1-2.1-6.2-6c0-4.7,0-9.3,0-14c0-3.7,2.1-5.9,5.8-5.9c6.8-0.1,13.6,0,20.3,0c1.3,0,2.5,0.1,2.5,1.7c0,1.7-1.3,1.9-2.6,1.9c-6.5,0-13,0-19.5,0c-2.5,0-2.9,0.4-2.9,2.9c0,4.4,0.1,8.8,0,13.1c0,2,0.8,2.8,2.7,2.8c11,0,22,0,33,0c2,0,2.8-0.9,2.8-2.9c-0.1-4.3,0-8.6,0-12.9c0-2.6-0.4-3-3.1-3c-1.5,0-3.1,0-4.6,0c-1.2,0-2.3-0.4-2.3-1.8c0-1.4,0.9-1.8,2.2-1.8c2.1,0,4.2-0.1,6.3,0.1c2.9,0.2,4.9,2.2,5,5.1c0.1,5.2,0.1,10.4,0,15.5c-0.1,3.1-2.4,5.2-5.6,5.2C47.3,51.7,41.6,51.7,35.8,51.7z"/><path fill="#cacaca" d="M29,67.5c-0.1-3.9,3.1-7.3,6.8-7.4c3.7,0,6.9,3.3,6.9,7.3c0,3.8-3,7.1-6.7,7.3C32.3,74.8,29,71.5,29,67.5z M38.8,66.1c-0.5-1.5-1.4-2.3-2.9-2.3c-1.5,0-2.6,0.7-3.1,2.3C34.9,66.1,36.8,66.1,38.8,66.1z M33.5,70c1.7,1.2,3,1.3,4.5,0C36.5,69.6,35.2,69.6,33.5,70z"/></g></symbol>
<symbol id="svgicon-vision" viewBox="0 0 305 305"><title>vision</title><g><g><path fill="none" stroke="#cacaca" stroke-width="10" stroke-miterlimit="10" d="M150.5,300C69.9,300,3,234.3,3,152.5C3,71.9,68.7,5,150.5,5C231.1,5,298,70.7,298,152.5C298,234.3,231.1,300,150.5,300L150.5,300z"/></g><g><path fill="none" stroke="#cacaca" stroke-width="10" stroke-miterlimit="10" d="M134.4,136.4l-24.8,57l57-24.8l24.8-57L134.4,136.4L134.4,136.4z"/></g></g></symbol>
<symbol id="svgicon-business_obj" viewBox="0 0 300 300"><title>business_obj</title><g><g><path fill="none" stroke="#cacaca" stroke-width="10" stroke-miterlimit="10" d="M139,273.3c-34,0-65.6-13.4-89.9-37.7s-37.7-55.9-37.7-89.9c0-34,13.4-65.6,37.7-89.9S105,18.2,139,18.2c34,0,65.6,13.4,89.9,37.7s37.7,55.9,37.7,89.9c0,34-13.4,65.6-37.7,89.9C204.6,259.9,171.8,273.3,139,273.3L139,273.3z"/></g></g><line fill="none" stroke="#cacaca" stroke-width="10" stroke-miterlimit="10" x1="139" y1="0" x2="139" y2="293.9"/><line fill="none" stroke="#cacaca" stroke-width="10" stroke-miterlimit="10" x1="-9.2" y1="147" x2="284.8" y2="147"/></symbol>
<symbol id="svgicon-assessment" viewBox="0 0 300 300"><title>assessment</title><g><g><path fill="none" stroke="#cacaca" stroke-width="10" stroke-miterlimit="10" d="M236.8,181.9C236,218,239,253,236,289c0,2-2,4-3,5c-2,2-5,3-8,3c-68,0-136,2-204-1c-1,0-3-1-4-2c-2-2-4-5-4-8c0-87-1-173,0-260c0-3,1-6,4-7c14-6,29-2,44.4-2.7"/><path fill="none" stroke="#cacaca" stroke-width="10" stroke-miterlimit="10" d="M187.2,15.1C204,16,223,9,237,21c2,20,0,39,1,58.6"/></g><g><path fill="none" stroke="#cacaca" stroke-width="10" stroke-miterlimit="10" d="M166.6,53.8H84.3c-14.5,0-25.4-12.1-25.4-25.4C58.9,13.9,71,3,84.3,3h82.3C181.1,3,192,15.1,192,28.4C192,42.9,181.1,53.8,166.6,53.8L166.6,53.8z"/></g><g><g><path fill="none" stroke="#cacaca" stroke-width="10" stroke-miterlimit="10" d="M176.2,196.6h-0.8l-26.7-3.3c-2.5,0-4.2-1.7-5.8-3.3c-1.7-1.7-1.7-4.2-0.8-6.7l6.7-26.7c0.8-1.7,1.7-3.3,3.3-5l72.6-49.3l16.7-10.9l5.8-3.3c1.7-0.8,4.2-1.7,6.7-1.7s4.2,1.7,5,3.3l20,30.1c1.7,1.7,1.7,4.2,1.7,6.7c0,2.5-1.7,4.2-3.3,5l-94.3,64.3C179.6,195.8,177.9,196.6,176.2,196.6L176.2,196.6z M159.5,177.4l14.2,1.7l85.2-58.4L248,104.8l-85.2,58.4L159.5,177.4L159.5,177.4z"/></g></g></g><line fill="none" stroke="#cacaca" stroke-width="10" stroke-miterlimit="10" x1="83.1" y1="28.4" x2="167.8" y2="28.4"/></symbol>
<symbol id="svgicon-execution" viewBox="0 0 300 300"><title>execution</title><g><g><g><path fill="none" stroke="#cacaca" stroke-width="10" stroke-miterlimit="10" d="M256,150.6"/><path fill="none" stroke="#cacaca" stroke-width="10" stroke-miterlimit="10" d="M208,102.7c-4.9-4.9-4.9-12.3,0-17.2c4.9-4.9,12.3-4.9,17.2,0l56.6,56.6c4.9,4.9,4.9,12.3,0,17.2l-56.6,56.6c-2.5,2.5-4.9,3.7-8.6,3.7l0,0c-3.7,0-6.1-1.2-8.6-3.7c-4.9-4.9-4.9-12.3,0-17.2"/></g><g><path fill="none" stroke="#cacaca" stroke-width="10" stroke-miterlimit="10" d="M91.1,198.6c4.9,4.9,4.9,12.3,0,17.2c-2.5,2.5-6.1,3.7-8.6,3.7l0,0c-3.7,0-6.1-1.2-8.6-3.7l-56.6-56.6c-4.9-4.9-4.9-12.3,0-17.2l56.6-56.6c4.9-4.9,12.3-4.9,17.2,0c4.9,4.9,4.9,12.3,0,17.2"/><path fill="none" stroke="#cacaca" stroke-width="10" stroke-miterlimit="10" d="M43.1,150.6"/></g></g><g><path fill="none" stroke="#cacaca" stroke-width="10" stroke-miterlimit="10" d="M197,28.9l-92.2,248.4"/></g></g></symbol>
<symbol id="svgicon-instagram" viewBox="0 0 24 24"><path fill="none" stroke="#fff" stroke-width="1.5" stroke-linecap="round" stroke-linejoin="round" d="M7,2h10c2.8,0,5,2.2,5,5v10c0,2.8-2.2,5-5,5H7c-2.8,0-5-2.2-5-5V7C2,4.2,4.2,2,7,2z"/><path fill="none" stroke="#fff" stroke-width="1.5" stroke-linecap="round" stroke-linejoin="round" d="M16,11.4c0.3,2.2-1.2,4.2-3.4,4.5c-2.2,0.3-4.2-1.2-4.5-3.4C7.8,10.4,9.3,8.3,11.5,8c0.4-0.1,0.8-0.1,1.2,0C14.4,8.3,15.7,9.6,16,11.4z"/><line fill="none" stroke="#fff" stroke-width="1.5" stroke-linecap="round" stroke-linejoin="round" x1="17.5" y1="6.5" x2="17.5" y2="6.5"/></symbol><symbol id="svgicon-github" viewBox="0 0 24 24"><path fill="none" stroke="#fff" stroke-width="1.5" stroke-linecap="round" stroke-linejoin="round" d="M8.2,19.8c-5,1.5-5-2.5-7-3 M15.2,22.8v-3.9c0.1-1-0.3-1.9-0.9-2.6c3.1-0.3,6.4-1.5,6.4-7c0-1.4-0.5-2.7-1.5-3.8c0.5-1.2,0.4-2.6-0.1-3.8c0,0-1.2-0.4-3.9,1.5c-2.3-0.6-4.7-0.6-7,0C5.5,1.4,4.3,1.8,4.3,1.8C3.8,2.9,3.8,4.3,4.2,5.5c-1,1-1.5,2.4-1.5,3.8c0,5.4,3.3,6.6,6.4,7c-0.7,0.7-1,1.6-0.9,2.6v3.9"/></symbol>
<symbol id="checked_icon" viewBox="401.8 0 465 605.8"><g><g><path fill="#CACACA" stroke="#CACACA" stroke-width="5" stroke-miterlimit="10" d="M633.9,456c-109.2,0-199.1-89.9-199.1-199.1S524.7,57.8,633.9,57.8S833,147.7,833,256.9S743.1,456,633.9,456L633.9,456z M633.9,66.1c-105.1,0-190.8,85.7-190.8,190.8s85.7,190.8,190.8,190.8S824.7,362,824.7,256.9S739,66.1,633.9,66.1L633.9,66.1z"/></g></g><g><path fill="#CACACA" stroke="#CACACA" stroke-width="13" stroke-miterlimit="10" d="M597.9,339.8c-1.4,0-2.8,0-2.8-1.4l-58.1-62.2c-1.4-1.4-1.4-4.1,0-6.9c1.4-1.4,4.1-1.4,6.9,0l55.3,58.1l125.8-152.1c1.4-1.4,4.1-2.8,6.9,0c1.4,1.4,2.8,4.1,0,6.9l-130,157.6C600.7,339.8,599.3,339.8,597.9,339.8L597.9,339.8L597.9,339.8z"/></g></symbol>
<symbol id="target_blank" viewBox="435.3 180.9 392.4 392.5"><g><g><g><path fill="#303136" d="M635.2,464.1c-0.8,0.8-1.8,1.3-2.9,1.5c-2.9,0.5-5.6-1.5-6.1-4.4l-13-81.4l-81.5-12.6c-2.9-0.4-4.9-3.2-4.4-6c0.4-2.9,3.1-4.9,6-4.4l85.3,13.2c2.3,0.4,4,2.1,4.4,4.4l13.6,85.2C636.9,461.3,636.3,463,635.2,464.1L635.2,464.1z"/></g><g><path fill="#303136" d="M621.5,378.9l-92.6,93c-2.1,2.1-5.4,2.1-7.5,0c-2.1-2.1-2.1-5.4,0-7.5l92.6-93c2.1-2.1,5.4-2.1,7.5,0C623.6,373.5,623.6,376.9,621.5,378.9L621.5,378.9z"/></g></g></g></symbol>


<symbol id="bg_triangle_round" viewBox="0 0 134.8 148.4">
<linearGradient id="SVGID_1_" gradientUnits="userSpaceOnUse" x1="-23.5003" y1="15.3995" x2="125.8853" y2="15.3995" gradientTransform="matrix(-0.8837 0.4681 -0.4681 -0.8837 126.4549 65.7797)">
	<stop  offset="0" style="stop-color:#C2982E"/>
	<stop  offset="0" style="stop-color:#A2792C"/>
	<stop  offset="0.4607" style="stop-color:#CDA430"/>
	<stop  offset="0.5618" style="stop-color:#CDA430"/>
	<stop  offset="0.8202" style="stop-color:#F8D975"/>
	<stop  offset="1" style="stop-color:#C2982E"/>
	<stop  offset="1" style="stop-color:#A2792C"/>
</linearGradient>
<path opacity="0.54" fill="none" stroke="url(#SVGID_1_)" stroke-width="43" stroke-miterlimit="10" d="M109.7,29.9
	c12,18.8-7.9,80.8-26.8,92.8c-18.8,12-44.5-4.2-56.5-23c-12-18.8-0.6-46.3,20.2-59.7C65.4,28,97.6,11.1,109.7,29.9z"/>
</symbol>

<symbol id="bg_round" viewBox="0 0 150.8 150.8">
<linearGradient id="SVGID_1_" gradientUnits="userSpaceOnUse" x1="110.3895" y1="83.7706" x2="261.153" y2="83.7706" gradientTransform="matrix(0.7381 0.6747 -0.6747 0.7381 -5.221 -111.7853)">
	<stop  offset="0" style="stop-color:#C2982E"/>
	<stop  offset="0" style="stop-color:#A2792C"/>
	<stop  offset="0.4607" style="stop-color:#CDA430"/>
	<stop  offset="0.5618" style="stop-color:#CDA430"/>
	<stop  offset="0.8202" style="stop-color:#F8D975"/>
	<stop  offset="1" style="stop-color:#C2982E"/>
	<stop  offset="1" style="stop-color:#A2792C"/>
</linearGradient>
<circle opacity="0.54" fill="none" stroke="url(#SVGID_1_)" stroke-width="43" stroke-miterlimit="10" cx="75.4" cy="75.4" r="53.9"/>
</symbol>


<symbol id="meka_logo_app" viewBox="0 0 621 304">
<path class="st0" d="M512.8,173.8L512.8,173.8c-12.5,7.7-29,3.7-36.7-8.8l0,0c-7.7-12.5-3.7-29,8.8-36.7l0,0
	c12.5-7.7,29-3.7,36.7,8.8l0,0C529.3,149.6,525.3,166.1,512.8,173.8z"/>
<circle class="st0" cx="480.3" cy="67" r="29.8"/>
<polygon class="st0" points="550.5,85.6 550.4,19.2 603.1,59.5 "/>
<path class="st0" d="M606.1,121.2c6.6,10.4-4.4,44.6-14.8,51.3c-10.4,6.6-24.6-2.3-31.2-12.7c-6.6-10.4-0.4-25.6,11.2-33
	C581.6,120.1,599.4,110.8,606.1,121.2z"/>
<g>
	<path class="st1" d="M135.9,244.6v54.2h-8.3v-52.1c0-17.5-8.3-29.2-23.2-29.2c-17.5,0-28.9,17-30.4,35.8v45.5h-8.4v-52.1
		c0-17.5-8.5-29.2-23.4-29.2c-17.3,0-28.9,17-30.4,35.8v45.5H3.5v-87.5h7.8l0.5,19.4c6.7-11.2,17.6-21.1,32.7-21.1
		c14.9,0,24.7,9.2,28,23.2c6.6-12.1,17.8-23.2,34.1-23.2C125.3,209.5,135.9,223.9,135.9,244.6z"/>
	<path class="st1" d="M242.1,257.6h-79.2c0.7,21.3,15.9,35.3,36.8,35.3c17.5,0,27.9-10,31.8-19.4l7.4,1.2
		c-4,12.1-17.6,25.8-39.4,25.8c-25.6,0-45-18.7-45-46c0-24.6,18.2-45,43.8-45c26.8,0,43.8,21.8,43.8,46.2L242.1,257.6L242.1,257.6z
		 M162.9,251.2h70.7c-1-18-14.4-34.1-35.3-34.1C178.3,217.1,163.6,232.3,162.9,251.2z"/>
	<path class="st1" d="M295.9,249.3l40.7,49.5H326l-36.2-43.9l-16,15v28.9h-8.3V169h8.3v89.8l51-47.6h11.8L295.9,249.3z"/>
	<path class="st1" d="M390.9,209.5c17.8,0,32.9,10.6,39.1,25.3l0.3-23.5h8.1v87.5h-8.1l-0.3-23.7c-6.2,14.9-21.3,25.4-39.1,25.4
		c-25.1,0-45.2-20.4-45.2-45.7C345.7,229.9,365.8,209.5,390.9,209.5z M391.9,292.5c20.8,0,37.5-17,37.5-37.7
		c0-20.4-16.8-37.4-37.5-37.4c-20.9,0-37.9,17-37.9,37.4C354,275.6,371,292.5,391.9,292.5z"/>
</g>
<path class="st1" d="M234.6,182.8c0,0-71,0-71.1,0c0.1,2.1,0.2,4.3,0.2,6.4c0.1,0,0.3,0,0.4,0h70.7
	C234.7,187.1,234.7,185,234.6,182.8z"/>
<path class="st1" d="M432.7,182.8c0,0-71,0-71.1,0c0.1,2.1,0.2,4.3,0.2,6.4c0.1,0,0.3,0,0.4,0h70.7
	C432.9,187.1,432.8,185,432.7,182.8z"/>
</symbol>

<symbol id="landing_ai" viewBox="0 0 1000 1000">
<g>
	<g>
		<g>
			<g id="XMLID_4_">
				<g>
					<path fill="#D7DBDD" d="M998.6,92.6v359.5c0,36.4-29.6,66.1-66.1,66.1h-56.6v131.5c0,8.6-5.7,17.3-14.2,21.5
						c-2.8,1.4-7.1,2.9-10.2,2.9c-5.2,0-11.1-3.4-14.2-5.5l-0.2-0.2L672.2,537.6v-9l169.2,134.1c4,2.6,7.9,4.2,10.2,4.2
						c1.6,0,4.7-0.9,7-2.1c6.2-3.1,10.3-9.2,10.3-15.3V511.2h63.6c32.6,0,59.1-26.5,59.1-59.1V92.6c0-32.6-26.5-59.1-59.1-59.1
						H395.1C362.5,33.5,336,60,336,92.6v233.3h-7V92.6c0-36.4,29.6-66.1,66.1-66.1h537.4C968.9,26.5,998.6,56.1,998.6,92.6z"/>
					<path fill="#D7DBDD" d="M991.6,92.6v359.5c0,32.6-26.5,59.1-59.1,59.1h-63.6v138.3c0,6.1-4.1,12.2-10.3,15.3
						c-2.3,1.2-5.4,2.1-7,2.1c-2.3,0-6.2-1.6-10.2-4.2L672.2,528.6V392c0-36.5-29.7-66.1-66.1-66.1H336V92.6
						c0-32.6,26.5-59.1,59.1-59.1h537.4C965.1,33.5,991.6,60,991.6,92.6z"/>
					<path fill="#D7DBDD" d="M672.2,537.6v215.1c0,36.4-29.6,66.1-66.1,66.1h-254l-189,148.9c-5.4,5.2-12,5.7-14.6,5.7
						c-3.1,0-7.3-1.4-10.2-2.8c-8.5-4.2-14.2-12.9-14.2-21.5V817.6H68.7c-36.4,0-66.1-29.6-66.1-66.1V392
						c0-36.4,29.6-66.1,66.1-66.1H329v3.5h7v-3.5h270.1c36.4,0,66.1,29.6,66.1,66.1v136.6l-1-0.8v-5.6c-2.9,0-5,1.4-6.1,3.3V392
						c0-32.6-26.5-59.1-59.1-59.1H68.7c-32.6,0-59.1,26.5-59.1,59.1v359.5c0,32.6,26.5,59.1,59.1,59.1h62.4v138.5
						c0,6,4.2,12.2,10.3,15.3c2.3,1.2,5.4,2.1,7,2.1c1.4,0,6.2-0.3,9.8-3.9l0.3-0.3l191.1-150.4H606c32.6,0,59.1-26.5,59.1-59.1V532
						L672.2,537.6z"/>
					<path fill="#D7DBDD" d="M672.2,528.6v9l-7.1-5.6v-6.5c1.2-1.9,3.2-3.3,6.1-3.3v5.6L672.2,528.6z"/>
					<path fill="#D7DBDD" d="M665.1,532v220.8c0,32.6-26.5,59.1-59.1,59.1H349.6L158.5,962.3l-0.3,0.3c-3.6,3.6-8.4,3.9-9.8,3.9
						c-1.6,0-4.7-0.9-7-2.1c-6.1-3.1-10.3-9.3-10.3-15.3V810.6H68.7c-32.6,0-59.1-26.5-59.1-59.1V392c0-32.6,26.5-59.1,59.1-59.1
						H606c32.6,0,59.1,26.5,59.1,59.1v133.5c-0.7,1.2-1.1,2.6-1.1,3.9v1.7L665.1,532z"/>
					<path fill="#D7DBDD" d="M665.1,525.5v6.5l-1.1-0.9v-1.7C664,528,664.4,526.7,665.1,525.5z"/>
					<rect x="329" y="325.9" fill="#D7DBDD" width="7" height="3.5"/>
				</g>
				<g>
				</g>
			</g>
		</g>
	</g>
</g>
<g>
	<g id="XMLID_1_">
		<g>
			<path fill="#FFFFFF" d="M672,327c-0.7-0.1-1.3-0.2-2-0.3c-7.8-1-15.6-1.8-23.4-2.4c-17.3-1.3-34.7-1.7-52-1.7c-2.9,0-5.9,0-8.8,0
				c-3,0-6,0.1-9.1,0.1c-1.1,0-2.2,0-3.2,0c-4.7,0.1-9.4,0.1-14.1,0.2c-3.3,0.1-6.6,0.1-9.8,0.1c-3,0.1-6,0.1-9,0.1
				c-0.8,0-1.6,0-2.4,0c-4.1-13.5-6.3-27.8-6.3-42.4c0-38.4,14.6-74.4,41.6-101.2s62.8-41.6,101.2-41.6c37.4,0,72.7,14.8,99.5,41.6
				c26.9,26.9,42.2,63,43.3,101.2c0,38.4-14.6,74.2-41.6,101.2c-26.9,26.8-62.8,41.6-101.2,41.6c-1.2,0-2.5,0-3.7-0.1
				c0.1-1,0.1-1.9,0.1-2.9c0.1-0.8,0.1-1.6,0.1-2.5c0.1-1,0.1-2,0.1-3c0.1-1.1,0.1-2.2,0.1-3.3c0-0.9,0.1-1.8,0.1-2.7
				c0-1.1,0.1-2.1,0.1-3.2c0-1.2,0.1-2.4,0.1-3.6c0.3-25.2-1.3-50.4-1.5-75.8C670.7,326.8,671.3,326.9,672,327z"/>
			<path fill="#FFFFFF" d="M671.1,418.2c0.1-1,0.1-2,0.1-3C671.2,416.2,671.2,417.2,671.1,418.2z"/>
			<path fill="#FFFFFF" d="M573.5,322.9c-4.7,0.1-9.4,0.1-14.1,0.2C564.1,323,568.8,322.9,573.5,322.9z"/>
			<path fill="#FFFFFF" d="M671,420.7c0,1-0.1,1.9-0.1,2.9c1.2,0,2.5,0.1,3.7,0.1c38.4,0,74.2-14.8,101.2-41.6
				c26.9-26.9,41.6-62.8,41.6-101.2c-1-38.2-16.3-74.2-43.3-101.2c-26.8-26.8-62.1-41.6-99.5-41.6c-38.4,0-74.2,14.8-101.2,41.6
				s-41.6,62.8-41.6,101.2c0,14.6,2.2,28.9,6.3,42.4c-6.2,0.1-12.5,0.1-18.7,0.1c-3.8-13.8-5.8-28.1-5.8-42.7
				c0-42.6,16.8-82.8,47.5-113.4s70.9-47.5,113.4-47.5c42.6,0,82.8,16.8,113.4,47.5c30.6,30.6,47.5,70.9,47.5,113.4
				s-16.8,82.8-47.5,113.4c-30.6,30.6-70.9,47.5-113.4,47.5c-1.8,0-3.5,0-5.2-0.1C670.1,434.6,670.6,427.6,671,420.7z"/>
			<path fill="#FFFFFF" d="M671.4,409.3c0,0.9,0,1.8-0.1,2.7C671.4,411.1,671.4,410.2,671.4,409.3z"/>
			<path fill="#FFFFFF" d="M671.5,406.1c0-1.2,0.1-2.4,0.1-3.6C671.5,403.7,671.5,404.9,671.5,406.1z"/>
			<path fill="#FFFFFF" d="M672,327c-0.7-0.1-1.3-0.2-2-0.2v0C670.7,326.8,671.3,326.9,672,327z"/>
			<path fill="#FFFFFF" d="M670,326.8c-7.8-1-15.6-1.8-23.4-2.4C654.4,325,662.2,325.7,670,326.8L670,326.8z"/>
			<path fill="#FFFFFF" d="M594.5,322.7c-2.9,0-5.9,0-8.8,0C588.7,322.7,591.6,322.7,594.5,322.7z"/>
			<path fill="#FFFFFF" d="M585.8,322.7c-3,0-6,0.1-9.1,0.1C579.7,322.8,582.7,322.8,585.8,322.7z"/>
			<path fill="#FFFFFF" d="M549.6,323.2c-3,0.1-6,0.1-9,0.1C543.6,323.3,546.6,323.2,549.6,323.2z"/>
			<path fill="#FFFFFF" d="M538.1,323.3L538.1,323.3c0.8,0,1.6,0,2.4,0C539.7,323.3,538.9,323.3,538.1,323.3z"/>
		</g>
		<g>
		</g>
	</g>
</g>
<g>
	<g id="XMLID_2_">
		<g>
			<path fill="#FFFFFF" d="M429.6,482.8c0,22.8-8.7,44.1-24.7,60.1c-16,15.9-37.3,24.7-60.1,24.7c-22.8,0-44.1-8.7-60.1-24.7
				c-15.9-16-24.7-37.3-24.7-60.1c0-22.8,8.7-44.2,24.7-60.1c16-15.9,37.3-24.7,60.1-24.7c22.2,0,43.2,8.8,59.1,24.7
				C419.9,438.7,429,460.1,429.6,482.8z"/>
			<path fill="#FFFFFF" d="M412.2,415.3c18.2,18.2,28.2,42.1,28.2,67.4c0,25.3-10,49.2-28.2,67.4c-18.2,18.2-42.1,28.2-67.4,28.2
				c-25.3,0-49.2-10-67.4-28.2c-18.2-18.2-28.2-42.1-28.2-67.4c0-25.3,10-49.2,28.2-67.4c18.2-18.2,42.1-28.2,67.4-28.2
				C370.1,387.1,394,397.1,412.2,415.3z M404.9,542.9c16-16,24.7-37.3,24.7-60.1c-0.6-22.7-9.7-44.1-25.7-60.1
				C388,406.8,367,398,344.8,398c-22.8,0-44.1,8.8-60.1,24.7c-16,15.9-24.7,37.3-24.7,60.1c0,22.8,8.8,44.1,24.7,60.1
				c16,16,37.3,24.7,60.1,24.7C367.6,567.6,388.9,558.8,404.9,542.9z"/>
		</g>
		<g>
		</g>
	</g>
</g>
<g>
	<g>
		<path fill="#6DD9F7" d="M632.5,430.6C632.7,431.8,632.7,431.8,632.5,430.6C632.7,431.8,632.7,431.8,632.5,430.6z"/>
	</g>
	<g>
		<path fill="#6DD9F7" d="M614.1,188.7c-18.1-14.1-42.4-10.7-60.4,1.6c-17.9,13.5-24.5,28.8-18.3,46.7c6,16.8,23.4,35.4,43,60.4
			c4.3,5.1,8.2,10.7,11.9,16.2c4.1,6.1,11.2,9.5,18.5,9c3.8-0.2,7.8,0.2,12,0.7c11.7,1.5,22.4-7.1,23.3-18.9
			c0.9-11.2,1.2-22.9,1.1-34.9C644.7,230.9,633.2,201.6,614.1,188.7z"/>
	</g>
</g>
<g>
	<path fill="#ED9E6E" d="M559.5,416.6L559.5,416.6L559.5,416.6L559.5,416.6"/>
</g>
<g>
	<path fill="#ED9E6E" d="M857.7,342.9L857.7,342.9v-1.2C857.7,341.7,857.7,341.7,857.7,342.9"/>
</g>
<g>
	<path fill="#D7DBDD" d="M742.3,230.1c-12.3,3.7-20.9,16-17.2,28.2c3.7,12.3,16,20.9,28.2,17.2c12.3-3.7,20.9-16,17.2-28.2
		C768.1,235,754.6,227.6,742.3,230.1"/>
</g>
<g>
	<path fill="#D7DBDD" d="M712.9,363.8c-28.2,13.5-46.6,4.9-50.3-2.5c-1.2-2.5,0-4.9,2.5-6.1l69.9-35.6c2.5-1.2,4.9,0,6.1,2.5
		C744.8,329.4,741.1,350.3,712.9,363.8z"/>
</g>
<g>
	<path fill="#6DD9F7" d="M797,214.7c-14.4-23.3-34.8-42.8-59.1-56.1c-24.9-13.7-52.1-20-78.8-18.3l-0.5-7
		c27.9-1.8,56.5,4.8,82.6,19.1c25.4,14,46.7,34.2,61.7,58.6L797,214.7z"/>
</g>
<g>
	<path fill="#D7DBDD" d="M637.4,284.8c-3.7-12.3-16-20.9-28.2-17.2c-12.3,3.7-20.9,16-17.2,28.2c3.7,12.3,16,20.9,28.2,17.2
		C632.5,310.5,641.1,297,637.4,284.8"/>
</g>
<g>
	<g id="XMLID_3_">
		<g>
			<path fill="#FFFFFF" d="M435.6,612.1c31.5,11.8,49,45.3,47.7,71l-6.1,81.8c0.6,3-0.1,5.9-1.9,8.2c-2.1,2.5-5.4,4-9,4H213.5
				c-6.8,0-12-5.1-12.1-11.9l-6.1-82.2c-1.3-29.1,20.1-60.9,47.7-70.9c30.9-11.1,63.3-16.8,96.3-16.8S404.7,600.9,435.6,612.1z
				 M479.8,682.8c1.2-24.6-16-56.5-45.4-67.5c-61.4-22.1-128.9-22.1-190.2,0c-27,9.8-46.6,40.5-45.4,67.5l6.1,82.2
				c0,4.9,3.7,8.6,8.6,8.6h252.8c4.9,0,8.5-3.7,7.4-8.6L479.8,682.8z"/>
			<path fill="#FFFFFF" d="M434.4,615.3c29.4,11,46.6,42.9,45.4,67.5l-6.1,82.2c1.1,4.9-2.5,8.6-7.4,8.6H213.5
				c-4.9,0-8.6-3.7-8.6-8.6l-6.1-82.2c-1.2-27,18.4-57.7,45.4-67.5C305.5,593.2,373,593.2,434.4,615.3z M476.4,682.5
				c1.1-22.5-15-53.4-43.1-63.9c-30.1-10.8-61.7-16.3-93.9-16.3s-63.8,5.5-93.9,16.4c-25.1,9-44.4,37.7-43.2,63.9l6.1,82.4
				c0,3,2.1,5.1,5.1,5.1h252.8c1.5,0,2.8-0.5,3.5-1.5c0.6-0.7,0.7-1.7,0.5-2.8l-0.1-0.5L476.4,682.5z"/>
			<path fill="#FFFFFF" d="M433.3,618.6c28.1,10.5,44.2,41.4,43.1,63.9l-6.2,82.8l0.1,0.5c0.2,1.1,0.1,2.1-0.5,2.8
				c-0.7,1-2,1.5-3.5,1.5H213.5c-3,0-5.1-2.1-5.1-5.1l-6.1-82.4c-1.2-26.2,18.1-54.9,43.2-63.9c30.1-10.9,61.7-16.4,93.9-16.4
				S403.2,607.8,433.3,618.6z"/>
		</g>
		<g>
		</g>
	</g>
</g>
<g>
	<path fill="#6DD9F7" d="M405.3,462c-9.6-24-32-40.9-57.2-43.2l0.6-7c27.8,2.5,52.5,21.2,63.1,47.6L405.3,462z"/>
</g>
</symbol>

<symbol id="landing_perso_progress" viewBox="0 0 1000 1000">
<g>
	<g>
		<path fill="#D7DBDD" d="M753,930.9c-54.5,0-108.9,0-163.4,0c-11,0-24.5-1.9-24.5-16.5c0-2.8,0-5.6,0-8.4c0-18.6,0-37.3,0-55.9
			c0-132.2,0-264.5,0-396.7c0-15.8,0-31.5,0-47.3c0-22,19.9-20.1,36-20.1c34.2,0,68.4,0,102.6,0c13.4,0,26.7,0,40.1,0
			c11,0,24.6,1.9,24.6,16.5c0,106.9,0,213.8,0,320.7c0,46.7,0,93.4,0,140c0,13.7,0,27.5,0,41.2C768.3,915.4,768.9,930.9,753,930.9z"
			/>
	</g>
	<g>
		<path fill="#D7DBDD" d="M472.8,930.9c-54.5,0-108.9,0-163.4,0c-11,0-24.5-1.9-24.5-16.5c0-4.7,0-9.4,0-14c0-27.9,0-55.7,0-83.6
			c0-61.9,0-123.9,0-185.8c0-7.6-0.7-15.1,5.8-20.9c6.6-5.9,17.6-4.1,25.8-4.1c33.4,0,66.8,0,100.3,0c14.5,0,29.1,0,43.6,0
			c9.6,0,20.6-1.6,26.6,8c3.3,5.4,2.4,12.5,2.4,18.6c0,10.6,0,21.3,0,31.9c0,68,0,136,0,204c0,12.6,0,25.2,0,37.8
			C489.3,917.1,487.7,930.9,472.8,930.9z"/>
	</g>
	<g>
		<path fill="#D7DBDD" d="M192.7,930.9c-54.4,0-108.8,0-163.1,0c-10.9,0-23.6-2.6-23.6-16.7c0-9.6,0-19.1,0-28.7
			c0-32.4,0-64.8,0-97.3c0-11.2,2.4-24.1,16.8-24.1c8.5,0,16.9,0,25.4,0c34.7,0,69.5,0,104.2,0c15.8,0,56.7-7.4,56.7,17.7
			c0,29,0,58,0,87c0,12.7,0,25.3,0,38C209.2,917.6,206.8,930.9,192.7,930.9z"/>
	</g>
	<g>
		<path fill="#D7DBDD" d="M535.5,349.3c-14,0-21.8-17.2-11.7-27.3c2.5-2.5,5-5,7.5-7.5c12.8-12.8,25.6-25.6,38.4-38.4
			c22.1-22.1,44.2-44.2,66.3-66.3c-37-37-74-73.9-111-110.9c-15-14.9,5.5-39.2,21.1-23.9c5.2,4.2,9.7,9.7,14.4,14.4
			c24.1,24.1,48.2,48.2,72.3,72.3c12.3,12.3,26.4,24,37.4,37.4c15.8,15.8-15.5,38-25.1,47.6c-21.5,21.5-43,43.1-64.5,64.6
			c-8.5,8.5-17,17-25.4,25.5C549.6,342.3,544.1,349.3,535.5,349.3z"/>
	</g>
	<g>
		<path fill="#D7DBDD" d="M114.7,641.3c-30.1,0-9.6-49.9-5.1-65.2c7.3-25,16.5-49.4,27.3-73.1c21.3-46.3,49.2-89.6,82.7-128
			c66.4-76.3,154.4-133.1,251.7-161.2c24.7-7.2,50-12.5,75.5-15.9c12.4-1.7,24.9-2.9,37.4-3.6c11.2-0.7,29.6-4.5,39.6,1.2
			c10.7,6.1,11.5,22.4,0.5,28.6c-10.1,5.7-28.6,2.4-40,3.2c-25.8,1.7-51.5,5.4-76.8,11.1c-98.6,22.5-189,76.1-256.8,151.1
			c-32.6,36.2-59.9,77.1-80.7,121.2c-10.6,22.5-19.5,45.7-26.7,69.5c-3.6,12.1-6.8,24.3-9.5,36.7
			C131.4,628.3,129.3,641.3,114.7,641.3z"/>
	</g>
	<g>
		<path fill="#6DD9F7" d="M730.5,424.9c-25.1,0-50.1,0-75.2,0c-13,0-26,0-39.1,0c-4.2,0-8.4,0-12.6,0c-5.3,0-5.3-11.8,0-11.8
			c26.1,0,52.2,0,78.3,0c13.8,0,27.5,0,41.3,0c2.4,0,4.8,0,7.3,0c3,0,10.6-2,10.6,1.8c0,3.3,0,6.6,0,10
			C741.1,423.9,731.2,424.9,730.5,424.9L730.5,424.9z"/>
	</g>
	<g>
		<path fill="#6DD9F7" d="M448,646c-25.8,0-51.6,0-77.4,0c-12.9,0-25.8,0-38.7,0c-3.5,0-12.4,1.7-13.9,0c-1.1-1.2,0-8.3,0-10
			c0-3.8,7.6-1.8,10.6-1.8c25.8,0,51.6,0,77.4,0c12.9,0,25.8,0,38.7,0c3.5,0,12.4-1.7,13.9,0c1.1,1.2,0,8.3,0,10
			C458.6,648,451,646,448,646L448,646z"/>
	</g>
	<g>
		<path fill="#6DD9F7" d="M163.1,800.8c-25.1,0-50.1,0-75.2,0c-13,0-26,0-39.1,0c-4.2,0-8.4,0-12.6,0c-5.3,0-5.3-11.8,0-11.8
			c26.1,0,52.2,0,78.3,0c13.8,0,27.5,0,41.3,0c2.4,0,4.8,0,7.3,0c3,0,10.6-2,10.6,1.8c0,3.3,0,6.6,0,10
			C173.8,799.8,163.8,800.8,163.1,800.8L163.1,800.8z"/>
	</g>
</g>
<g>
	<g id="XMLID_1_">
		<g>
			<path fill="#6DD9F7" d="M816.8,227.5c6.1,9,12.2,17.9,18.4,26.9c4.1,6,8.2,12,12.3,18c1.5,2.2,5.8,6.5,5.8,9.5
				c0,3-4.7,7.2-6.2,9.3c-4.5,5.9-9,11.7-13.5,17.5c-6.7,8.8-13.4,17.5-20.2,26.3c10.6-3,21.2-6.1,31.8-9.2
				c8.5-2.4,23.4-10.3,32.5-8.4c3,0.6,5.3,6,6.8,8.2c4.1,6,8.2,12,12.3,18c6.1,9,12.2,17.9,18.4,26.9c0.2-11,0.4-22,0.6-33
				c0.1-7.3,0.3-14.7,0.4-22c0.1-2.9-0.8-8,0.6-10.7c1-1.9,8.2-3,10.1-3.5c6.9-2,13.7-4,20.6-5.9c11.3-3.2,22.6-6.5,34-9.8
				c-9.9-3.4-19.7-6.7-29.6-10c-7-2.4-14.1-4.8-21.1-7.2c-3.2-1.1-8.2-1.6-10.1-4.8c-1.8-2.9-0.6-8.4-0.6-11.5
				c0.1-7.3,0.3-14.7,0.4-22c0.2-11,0.4-22,0.6-33c-6.7,8.8-13.5,17.5-20.2,26.3c-4.5,5.8-9,11.7-13.5,17.6c-2,2.5-4.4,7.3-7.7,8.5
				c-2.5,0.9-8.5-2.5-10.6-3.2c-6.9-2.5-13.9-4.9-20.8-7.4C837.6,234.9,827.2,231.2,816.8,227.5z M842.1,285.5
				c4-5.3-8.4-17.5-11.6-22.2c-8.8-13.1-17.6-26.1-26.4-39.2c-9.2-13.7,13.1-4.8,18.1-3c15.8,5.6,31.6,11.2,47.4,16.9
				c0.9,0.3,6.8,3.1,7.5,2.3c3.2-4.2,6.3-8.3,9.5-12.5c10.2-13.4,20.4-26.8,30.5-40.2c1.1-1.5,6.4-10.3,9.4-7.4
				c3.9,1.8,2.2,10.7,2.1,13.8c-0.5,16.7-1.1,33.5-1.6,50.2c-0.2,4.6-0.3,9.1-0.5,13.7c0,1.1,7.6,3.1,8.6,3.4
				c15.9,5.7,31.8,11.3,47.7,17c4.1,1.5,12.5,2.6,15,6.7c3.9,6.4-7.6,7.7-11.5,8.9c-19.1,5.7-38.2,11.5-57.3,17.2
				c-4.6,1.4-4.8,0.7-5,5.4c-0.3,8.7-0.6,17.4-0.9,26.2c-0.2,5.3,2,46.9-4.8,46.9c-3,0-5.5-5.7-6.7-7.6c-4.6-6.9-9.3-13.8-13.9-20.7
				c-7.7-11.4-15.3-22.8-23-34.1c-1.2-1.8-28.7,8.3-31.4,9.1c-13.1,3.9-26.2,7.9-39.4,11.8c-7.1,2.1-5.8-4.8-3.2-8.1
				c4.2-5.6,8.5-11.2,12.7-16.8C823,310.5,832.6,298,842.1,285.5z"/>
			<path fill="#6DD9F7" d="M835.2,254.4c-6.1-9-12.2-17.9-18.4-26.9c10.4,3.7,20.8,7.4,31.2,11.1c7,2.5,13.9,4.9,20.8,7.4
				c2.1,0.8,8.1,4.1,10.6,3.2c3.3-1.1,5.7-5.9,7.7-8.5c4.5-5.9,9-11.7,13.5-17.6c6.7-8.8,13.5-17.5,20.2-26.3c-0.2,11-0.4,22-0.6,33
				c-0.1,7.3-0.3,14.7-0.4,22c0,3.1-1.2,8.6,0.6,11.5c1.9,3.2,6.9,3.7,10.1,4.8c7,2.4,14.1,4.8,21.1,7.2c9.9,3.3,19.7,6.7,29.6,10
				c-11.3,3.3-22.6,6.5-34,9.8c-6.9,2-13.7,4-20.6,5.9c-1.9,0.5-9.1,1.6-10.1,3.5c-1.4,2.7-0.5,7.9-0.6,10.7
				c-0.1,7.3-0.3,14.7-0.4,22c-0.2,11-0.4,22-0.6,33c-6.1-9-12.2-17.9-18.4-26.9c-4.1-6-8.2-12-12.3-18c-1.5-2.2-3.8-7.6-6.8-8.2
				c-9.1-1.9-23.9,5.9-32.5,8.4c-10.6,3.1-21.2,6.1-31.8,9.2c6.7-8.8,13.5-17.5,20.2-26.3c4.5-5.9,9-11.7,13.5-17.5
				c1.6-2.1,6.2-6.3,6.2-9.3c0-3-4.3-7.3-5.8-9.5C843.3,266.4,839.3,260.4,835.2,254.4z"/>
		</g>
		<g>
		</g>
	</g>
</g>
</symbol>


<symbol id="landing_perso_radar" viewBox="0 0 1280 800">
<circle fill="#D7DBDD" cx="638.9" cy="398.9" r="392.9"/>
<g>
	<g>
		<linearGradient id="SVGID_1_" gradientUnits="userSpaceOnUse" x1="417.4569" y1="386.4263" x2="698.5465" y2="624.2001">
			<stop  offset="0" style="stop-color:#FFC171"/>
			<stop  offset="1" style="stop-color:#FF616E"/>
		</linearGradient>
		<path fill="url(#SVGID_1_)" d="M641.8,405.1c-277.3-4.2-477.9,46.8,1.6,284.3"/>
		<g>
			<path fill="#FFFFFF" d="M640.5,799.1c-53.8,0-106.1-10.6-155.2-31.3c-47.4-20.1-90.1-48.8-126.7-85.4s-65.4-79.3-85.4-126.8
				c-20.8-49.1-31.3-101.4-31.3-155.2s10.5-106.1,31.1-155.2c20-47.5,48.6-90.1,85-126.7c36.5-36.6,79-65.4,126.4-85.4
				c49-20.8,101.3-31.3,155.1-31.3c53.8,0,106.1,10.6,155.2,31.3c47.4,20.1,90.1,48.8,126.7,85.4c36.6,36.6,65.4,79.2,85.4,126.7
				c20.8,49.1,31.3,101.4,31.3,155.2s-10.5,106.1-31.1,155.2c-19.9,47.5-48.6,90.2-85,126.7c-36.5,36.6-79,65.4-126.4,85.4
				C746.5,788.6,694.3,799.1,640.5,799.1z M639.5,7.4c-53.1,0-104.6,10.4-152.9,30.9C439.9,58.1,398,86.4,362,122.5
				c-35.9,36.1-64.2,78.1-83.8,125c-20.4,48.4-30.7,99.9-30.7,153s10.4,104.6,30.9,153c19.8,46.8,48.1,88.8,84.2,125
				c36.1,36.1,78.1,64.4,125,84.2c48.5,20.5,99.9,30.9,153,30.9c53.1,0,104.6-10.4,152.9-30.9c46.7-19.8,88.6-48.1,124.6-84.2
				c35.9-36.1,64.2-78.1,83.8-125c20.4-48.5,30.7-99.9,30.7-153s-10.4-104.6-30.9-153c-19.8-46.8-48.1-88.8-84.2-125
				c-36.1-36.1-78.2-64.4-125-84.2C744.2,17.8,692.6,7.4,639.5,7.4z"/>
		</g>
		<g>
			<path fill="#FFFFFF" d="M640.5,719.4c-43.2,0-85.1-8.5-124.6-25.1c-38.1-16.1-72.3-39.1-101.7-68.4
				c-29.4-29.3-52.4-63.4-68.5-101.4c-16.6-39.3-25.1-81-25.1-124c0-176.3,143.4-319.8,319.8-319.8c43.2,0,85,8.5,124.4,25.1
				c38,16.1,72.1,39.1,101.4,68.4c29.2,29.3,52.2,63.4,68.2,101.4c16.6,39.3,25,81,25,124s-8.5,84.7-25.1,124.2
				c-16.1,38.1-39.1,72.2-68.4,101.7c-29.4,29.4-63.4,52.6-101.4,68.7C725.1,710.9,683.4,719.4,640.5,719.4z M640.5,86.2
				c-173.3,0-314.2,141-314.2,314.2c0,42.2,8.3,83.2,24.6,121.8c15.8,37.3,38.5,70.8,67.3,99.6c28.9,28.8,62.5,51.4,99.8,67.2
				c38.7,16.4,79.9,24.6,122.4,24.6c42.2,0,83.2-8.3,121.8-24.8c37.3-15.9,70.8-38.6,99.6-67.5c28.8-28.9,51.4-62.6,67.2-99.9
				c16.4-38.7,24.6-79.8,24.6-122s-8.2-83.2-24.6-121.8c-15.8-37.3-38.3-70.8-67-99.6C803.1,118.9,724.3,86.2,640.5,86.2z"/>
		</g>
		<g>
			<path fill="#FFFFFF" d="M640.5,640.6c-64.4,0-124.8-24.9-170-70.1s-70.1-105.6-70.1-170c0-64.3,25-124.7,70.5-170
				c45.4-45.2,105.6-70.1,169.7-70.1s124.3,24.9,169.7,70.1c45.4,45.3,70.5,105.7,70.5,170c0,64.1-24.9,124.3-70.1,169.7
				C765.1,615.5,704.8,640.6,640.5,640.6z M640.5,165.9c-62.6,0-121.4,24.3-165.7,68.5c-44.4,44.2-68.8,103.2-68.8,166
				c0,62.9,24.3,121.9,68.5,166c44.2,44.1,103.1,68.5,166,68.5c62.8,0,121.8-24.4,166-68.8C850.6,521.8,875,463,875,400.4
				c0-62.8-24.4-121.8-68.8-166C761.9,190.2,703,165.9,640.5,165.9z"/>
			<linearGradient id="SVGID_2_" gradientUnits="userSpaceOnUse" x1="598.4877" y1="293.4821" x2="815.7164" y2="477.236">
				<stop  offset="0" style="stop-color:#FFC171"/>
				<stop  offset="1" style="stop-color:#FF616E"/>
			</linearGradient>
			<path fill="url(#SVGID_2_)" d="M640.5,637.8c37-97.1,143.9-102,237.3-237.3c157.5-228.2-77.9-152.8-237.3-156.6"/>
		</g>
		<g>
			<path fill="#FFFFFF" d="M640.5,560.9c-43,0-83.4-16.7-113.9-47c-30.6-30.5-47.4-71-47.4-114.2c0-43.4,16.7-83.9,47-114.2
				c30.3-30.3,71-47,114.2-47c43.3,0,83.9,16.7,114.2,47s47,71,47,114.2c0,43.2-16.8,83.8-47.4,114.2
				C723.9,544.2,683.4,560.9,640.5,560.9z M640.5,243.8c-41.8,0-81,16.2-110.3,45.4c-29.3,29.3-45.4,68.5-45.4,110.3
				c0,41.8,16.2,80.9,45.8,110.3c29.4,29.3,68.5,45.4,109.9,45.4c41.5,0,80.6-16.2,109.9-45.4c29.5-29.4,45.8-68.6,45.8-110.3
				c0-41.8-16.2-81-45.4-110.3C721.4,260,682.3,243.8,640.5,243.8z"/>
		</g>
		<g>
			<path fill="#FFFFFF" d="M640.5,482.1c-45,0-81.6-36.6-81.6-81.6s36.6-81.6,81.6-81.6c45,0,81.6,36.6,81.6,81.6
				S685.4,482.1,640.5,482.1z M640.5,324.5c-41.9,0-76,34.1-76,76s34.1,76,76,76c41.9,0,76-34.1,76-76
				C716.5,358.6,682.4,324.5,640.5,324.5z"/>
		</g>
	</g>
	<g>
		<g>
			<rect x="637.7" y="400.5" fill="#FFFFFF" width="5.6" height="394.9"/>
		</g>
		<g>
			
				<rect x="582.7" y="537.2" transform="matrix(0.7071 0.7071 -0.7071 0.7071 610.2593 -393.3925)" fill="#FFFFFF" width="394.6" height="5.6"/>
		</g>
		<g>
			<rect x="640.5" y="397.7" fill="#FFFFFF" width="394.9" height="5.6"/>
		</g>
		<g>
			
				<rect x="777.1" y="62.9" transform="matrix(0.7083 0.706 -0.706 0.7083 411.4932 -474.5778)" fill="#FFFFFF" width="5.6" height="395.3"/>
		</g>
		<g>
			<rect x="637.7" y="4.6" fill="#FFFFFF" width="5.6" height="395.8"/>
		</g>
		<g>
			
				<rect x="302.6" y="257.7" transform="matrix(0.7071 0.7071 -0.7071 0.7071 330.8325 -277.6212)" fill="#FFFFFF" width="395.9" height="5.6"/>
		</g>
		<g>
			<rect x="244.6" y="397.7" fill="#FFFFFF" width="395.8" height="5.6"/>
		</g>
		<g>
			
				<rect x="497.8" y="342.4" transform="matrix(0.706 0.7082 -0.7082 0.706 529.6031 -195.7348)" fill="#FFFFFF" width="5.6" height="395.3"/>
		</g>
	</g>
	<g>
		<g>
			
				<rect x="711.8" y="385.9" transform="matrix(-0.9272 0.3746 -0.3746 -0.9272 1595.6595 856.4921)" fill="#FFFFFF" width="5.6" height="394.9"/>
		</g>
		<g>
			
				<rect x="624.9" y="474.5" transform="matrix(0.9205 0.3907 -0.3907 0.9205 251.8661 -283.3262)" fill="#FFFFFF" width="394.6" height="5.6"/>
		</g>
		<g>
			
				<rect x="626.2" y="323.5" transform="matrix(-0.9272 0.3746 -0.3746 -0.9272 1709.6335 320.2868)" fill="#FFFFFF" width="394.9" height="5.6"/>
		</g>
		<g>
			
				<rect x="714.7" y="20.7" transform="matrix(0.9211 0.3892 -0.3892 0.9211 141.5553 -262.0644)" fill="#FFFFFF" width="5.6" height="395.3"/>
		</g>
		<g>
			
				<rect x="563.7" y="18.8" transform="matrix(-0.9272 0.3746 -0.3746 -0.9272 1172.9149 205.5225)" fill="#FFFFFF" width="5.6" height="395.8"/>
		</g>
		<g>
			
				<rect x="260.5" y="320.1" transform="matrix(0.9205 0.3907 -0.3907 0.9205 162.6267 -153.4575)" fill="#FFFFFF" width="395.9" height="5.6"/>
		</g>
		<g>
			
				<rect x="259.2" y="471.6" transform="matrix(-0.9272 0.3746 -0.3746 -0.9272 1058.6639 743.0314)" fill="#FFFFFF" width="395.8" height="5.6"/>
		</g>
		<g>
			
				<rect x="560.4" y="384.4" transform="matrix(0.9199 0.3922 -0.3922 0.9199 273.3727 -174.2253)" fill="#FFFFFF" width="5.6" height="395.3"/>
		</g>
	</g>
</g>
<g id="QpTMHw.tif">
	
		<image overflow="visible" width="730" height="570" id="Layer_0" transform="matrix(1.8595 0 0 1.8595 -1399.522 -104.1177)">
	</image>
</g>
</symbol>


<symbol id="social_twitter" viewBox="0 0 56.5 45.9">
<path fill="#6DD9F7" d="M56.5,5.4c-2.1,0.9-4.3,1.5-6.7,1.8c2.4-1.4,4.2-3.7,5.1-6.4c-2.2,1.3-4.7,2.3-7.4,2.8
	C45.5,1.4,42.5,0,39.1,0c-7.5,0-13,7-11.3,14.2C18.2,13.8,9.7,9.1,3.9,2.1c-3,5.2-1.6,12,3.6,15.5c-1.9-0.1-3.7-0.6-5.3-1.5
	C2.1,21.5,6,26.6,11.6,27.7c-1.6,0.4-3.4,0.5-5.2,0.2c1.5,4.6,5.8,8,10.8,8.1c-4.9,3.8-11,5.5-17.2,4.8c5.1,3.3,11.2,5.2,17.8,5.2
	c21.5,0,33.7-18.2,33-34.5C53,9.8,55,7.8,56.5,5.4L56.5,5.4z"/>
</symbol>


<symbol id="social_linkedin" viewBox="0 0 24 24"><path d="M0 0v24h24v-24h-24zm8 19h-3v-11h3v11zm-1.5-12.268c-.966 0-1.75-.79-1.75-1.764s.784-1.764 1.75-1.764 1.75.79 1.75 1.764-.783 1.764-1.75 1.764zm13.5 12.268h-3v-5.604c0-3.368-4-3.113-4 0v5.604h-3v-11h3v1.765c1.397-2.586 7-2.777 7 2.476v6.759z"/></symbol>


</defs></svg>

