<?xml version="1.0" encoding="utf-8"?>
<!-- Generator: Adobe Illustrator 18.0.0, SVG Export Plug-In . SVG Version: 6.00 Build 0)  -->
<!DOCTYPE svg PUBLIC "-//W3C//DTD SVG 1.1//EN" "http://www.w3.org/Graphics/SVG/1.1/DTD/svg11.dtd">
<svg version="1.1" id="Calque_1" xmlns="http://www.w3.org/2000/svg" xmlns:xlink="http://www.w3.org/1999/xlink" x="0px" y="0px"
	 viewBox="277.9 -73.2 444.3 1000" enable-background="new 277.9 -73.2 444.3 1000" xml:space="preserve">
<g>
	<path fill="#1E81ED" d="M282.4,6.3c5.7,1,6.6,8.1,9.1,13c-4.8-0.1-5.1,5.4-11.7,3.3C276.4,16.7,277.5,9.6,282.4,6.3z"/>
	<path fill="#1E81ED" d="M283.7-73.2c0.9,0,1.7,0,2.6,0C286.2-71.7,284-71.2,283.7-73.2z"/>
	<path fill="#1E81ED" d="M285,105.3c1.4-7.4,2.6-5.3,6.6-9.7c0.3,6.8,6.4,9.7,1.3,14.7C287.7,111.6,288.1,106.2,285,105.3z"/>
	<path fill="#1E81ED" d="M292.8,188.1c5.1-0.4,3.3,7.8,7.8,8.1c-1.7,3.3-4.3,5.6-7.8,6.6C286.4,199.7,287,191.4,292.8,188.1z"/>
	<path fill="#1E81ED" d="M295.4,780.7C294.8,781.3,296.2,779.6,295.4,780.7L295.4,780.7z"/>
	<path fill="#1E81ED" d="M297.9,305c-0.1-9.3-1.6-20.2,6.6-19.5c0.1,8.5,5.8,10,6.6,17.8C307.3,307.9,302.6,309.1,297.9,305z"/>
	<path fill="#1E81ED" d="M304.5,473.8c3.8,2.3,4.4-1.3,7.8,1.6c-1.4,7.1,0,5.3,1.3,11.4c1.6-0.7,2.7-2.1,2.6-4.8
		C327.4,505,288.2,504.3,304.5,473.8z"/>
	<path fill="#1E81ED" d="M303.2,373.2c6.4-1.6,7.7,3.3,11.7,4.8c-3.6,5.3,1.4,10.3,3.8,13C311.6,408.4,294.2,385.2,303.2,373.2z"/>
	<path fill="#1E81ED" d="M305.8,620c0.3-8.3,2.1-14.7,7.8-16.2c6.6,0.6,4.8,11.3,6.6,17.8C315.5,625.7,308.8,625.7,305.8,620z"/>
	<path fill="#1E81ED" d="M310.9,899.1c-5-9.3-7.1-34.3,3.8-34.1C324.1,865.4,330.7,899.7,310.9,899.1z"/>
	<path fill="#1E81ED" d="M313.6,766.1c1,0.3,1.3,1.6,2.6,1.6c10.4,6.3,10.5,32.2-1.3,30.8C305.5,797.5,303.2,771.8,313.6,766.1z"/>
	<path fill="#1E81ED" d="M309.6,678.4c16.8-6.1,18.1,30.6,6.6,30.8C306.5,709.5,304.1,691.2,309.6,678.4z"/>
	<path fill="#1E81ED" d="M314.9,478.6C314.3,479.4,315.7,477.7,314.9,478.6L314.9,478.6z"/>
	<path fill="#1E81ED" d="M320,389.4c-1.6-0.3-1.1-3-1.3-4.8C320.3,384.9,319.9,387.5,320,389.4z"/>
	<path fill="#1E81ED" d="M359.1,228.7c4.4,4.1,2.1,16.8,9.1,17.8c-2.8,8.8-1.7,22.7-14.2,19.5C348.5,257.1,347.1,229.9,359.1,228.7z
		"/>
	<path fill="#1E81ED" d="M356.5-65.1c9.1,0.6,10,11.3,13,19.5c-2.7-0.7-2.4,2.3-2.6,4.8c-3,0-6.1,0-9.1,0
		C353.8-46.3,349.9-60,356.5-65.1z"/>
	<path fill="#1E81ED" d="M368.2,926.8c-3.4,0-7,0-10.4,0c-4.1-4.6-2.7-17.7,5.1-19.5C367.5,910,367.3,921.9,368.2,926.8z"/>
	<path fill="#1E81ED" d="M360.3,12.8c1.7,0,3.4,0,5.1,0c5.3,7.4,5.6,21.1,10.4,29.2c-2,5-5.7,8-13,6.6
		C358.2,41.3,352.6,21,360.3,12.8z"/>
	<path fill="#1E81ED" d="M374.6,793.7c8.4,11,4.7,46.3-7.8,43.9C353.5,834.9,361.5,795,374.6,793.7z M369.5,805.1
		C370.3,804,368.9,805.7,369.5,805.1L369.5,805.1z"/>
	<path fill="#1E81ED" d="M369.5,129.7c2.1,4.8,2.8,11.5,6.6,14.7C367.5,167.6,350.1,132.5,369.5,129.7z"/>
	<path fill="#1E81ED" d="M368.2,693c2.6,0,5.1,0,7.8,0c2.3,7.3-1.6,13.1,3.8,14.7C377.2,735.8,356.1,708.5,368.2,693z"/>
	<path fill="#1E81ED" d="M366.9,584.2c2-0.1,5,0.7,5.1-1.6c5.6,5.8,2.6,12.7,6.6,21.1C368.9,617.4,358.9,596.2,366.9,584.2z"/>
	<path fill="#1E81ED" d="M366.9,676.7C366.3,677.4,367.7,675.7,366.9,676.7L366.9,676.7z"/>
	<path fill="#1E81ED" d="M366.9,381.3c3.7-1.9,6.7-1.9,10.4,0c0.1,5.8-1,13.3,2.6,14.7C374.9,413.5,359.8,398,366.9,381.3z"/>
	<path fill="#1E81ED" d="M378.6,483.6c-1,8.7,1.4,13.4,5.1,16.2C375,536.1,353.6,476.2,378.6,483.6z"/>
	<path fill="#1E81ED" d="M374.6,30.7c2.3,0.4,3,2.8,2.6,6.6C375,36.8,374.3,34.4,374.6,30.7z"/>
	<path fill="#1E81ED" d="M379.9,275.7c-1.6-0.4-1.3-3.3,0-3.3C381.7,273.3,379.7,274,379.9,275.7z"/>
	<path fill="#1E81ED" d="M382.4,494.9c-0.4-0.3-2.4-3.6-1.3-4.8C382,488.9,384.7,496.5,382.4,494.9z"/>
	<path fill="#1E81ED" d="M424,204.4c11.3,4.6,4.7,27.5-6.6,21.1C413.5,216.5,418.8,206.9,424,204.4z M426.6,217.3
		C427.4,216.3,426.2,218,426.6,217.3L426.6,217.3z M426.6,214C427.4,213,426.2,214.8,426.6,214L426.6,214z"/>
	<path fill="#1E81ED" d="M417.5,33.9c3.7-0.3,5.4-3,9.1-3.3c7.1,5.7,6.3,21.7-1.3,25.9C414.3,56.9,416.6,45.3,417.5,33.9z"/>
	<path fill="#1E81ED" d="M430.6-65.1c11.7,7.6,1.4,36.9-10.4,24.4C422-50.8,421.3-64.2,430.6-65.1z"/>
	<path fill="#1E81ED" d="M421.5,141.1c0.1-7.6-0.6-15.8,1.3-21.1c5.4,0.4,5.1-2.1,9.1,0C438.6,128.8,432,148.4,421.5,141.1z"/>
	<path fill="#1E81ED" d="M429.3,308.2c12.4,2,7.6,29.8-5.1,21.1C421.2,317.2,426.6,316.8,429.3,308.2z"/>
	<path fill="#1E81ED" d="M433.1,598.9c3-0.4,3-4.4,0-4.8c0.3-1.3,1.1-1.9,2.6-1.6c0.9,2.4,1.6-0.1,0,0c-2.4-3.1,0.7-3,0-8.1
		c1.7,0,3.4,0,5.1,0c3.4,8.3,3.7,20.1-3.8,22.8c-1.3-3.3-6.7-1.4-6.6-6.6C431.6,600.1,433.1,600.5,433.1,598.9z M438.3,595.6
		c0.3,1.3,0,3.1,1.3,3.3C439.4,597.6,439.6,595.6,438.3,595.6z"/>
	<path fill="#1E81ED" d="M431.9,595.6C430.3,595.8,431,593.2,431.9,595.6L431.9,595.6z"/>
	<path fill="#1E81ED" d="M439.7,399.1c-0.1,2.1-1.7,2.3-1.3,4.8c-6,0.9-7.1-4.1-7.8-9.7c6.3,5.1,1.1-5.1,6.6-4.8
		C437,393.7,436.3,399,439.7,399.1z"/>
	<path fill="#1E81ED" d="M431.9,681.7c-1-5.7,2-6.3,1.3-11.4c9,1.1,0.9-2.8,3.8-6.6c4.4,2,6.1,7.6,5.1,16.2
		C437.4,678.8,436.7,682.8,431.9,681.7z M438.3,671.9c0.3,1.3,0,3.1,1.3,3.3C439.4,673.9,439.6,672,438.3,671.9z"/>
	<path fill="#1E81ED" d="M433.1,598.9c-1-0.4-1.6-1.4-1.3-3.3C432.9,595.9,433.3,596.9,433.1,598.9z"/>
	<path fill="#1E81ED" d="M437,905.7c0.1-4.1,1.9-6.3,5.1-6.6c-4.7-5.8,3-4.8,1.3-13c7.3-0.4,7.6,7.8,7.8,16.2
		C445.1,907.8,443.3,908.8,437,905.7z"/>
	<path fill="#1E81ED" d="M437,832.6c-0.7-5.3,0.9-7.6,1.3-11.4c4,0.3,2.1,2.6,7.8,3.3c-1.9-2.6-4.6-4-3.8-9.7
		c6.4,2.4,6.1,9.8,6.6,16.2c-3.4-1-4.7,0.7-3.8,4.8C441.8,835.3,439.4,833.9,437,832.6z"/>
	<path fill="#1E81ED" d="M443.6,524.1c0,1.6,0,3.3,0,4.8c1-0.3,1.3-1.6,2.6-1.6C446.7,524.7,445.1,524.4,443.6,524.1
		c0.9-2.1,2.8-3,5.1-3.3c-0.4,9.1,0.1,13-6.6,16.2c-2.4-0.3-4.3-1-5.1-3.3c1.3-3.3,2.6-6.6,3.8-9.7
		C441.8,524.1,442.7,524.1,443.6,524.1z"/>
	<path fill="#1E81ED" d="M444.8,748.2c8.4,5.6,6.1,16.5,1.3,24.4C435.3,770.6,441,754.2,444.8,748.2z"/>
	<path fill="#1E81ED" d="M439.7,399.1c0.1-2,0.4-3.8,2.6-3.3c0,1.1,0,2.1,0,3.3C441.4,399.1,440.6,399.1,439.7,399.1z"/>
	<path fill="#1E81ED" d="M442.3,521C437.1,519.1,447.4,519.1,442.3,521L442.3,521z"/>
	<path fill="#1E81ED" d="M442.3,392.7C441.7,393.3,443.1,391.6,442.3,392.7L442.3,392.7z"/>
	<path fill="#1E81ED" d="M444.8,460.8c0.4,0,0.9,0,1.3,0C445.8,459,444.8,460,444.8,460.8c-0.9,0-1.7,0-2.6,0
		c-0.7-8,3.3-0.9,3.8-8.1c2,0,2.8,12-1.3,9.7C444.8,462,444.8,461.4,444.8,460.8z"/>
	<path fill="#1E81ED" d="M474.8,14.4c4-2.3,4.7,0.7,10.4,0C499,43.2,458.8,46.5,474.8,14.4z M478.6,24.1
		C479.5,23.1,478,24.8,478.6,24.1L478.6,24.1z M481.3,17.7c-1.3,0-1.6,2.8,0,3.3C481.2,19.1,483.2,18.4,481.3,17.7z"/>
	<path fill="#1E81ED" d="M474.8-63.5c7.4,1.3,4.8,6.1,11.7,1.6c2.7,8.5-0.7,14-3.8,19.5C469.6-40.4,469.6-54.8,474.8-63.5z
		 M482.6-55.4C483.4-56.4,482-54.7,482.6-55.4L482.6-55.4z"/>
	<path fill="#1E81ED" d="M478.6,196.2c13.8-9.3,24.1,26.2,9.1,34.1C478.2,227.3,477.6,207.6,478.6,196.2z"/>
	<path fill="#1E81ED" d="M489,116.7c-1.3,0-2.6,0-3.8,0c-0.1,4.6,3.1,4.7,6.6,4.8c-1.9,5.3-4.7,9.4-10.4,9.7
		c-3-2.8-4.3-7.6-3.8-14.7C481.3,117.9,489.3,110.3,489,116.7z M486.4,123.1C487.3,122.1,485.9,123.8,486.4,123.1L486.4,123.1z"/>
	<path fill="#1E81ED" d="M500.7,392.7c3.3,6.3,6.1,12.8,5.1,24.4C491.1,442.2,475.5,381.9,500.7,392.7z"/>
	<path fill="#1E81ED" d="M491.7,296.8c16.1-0.1,16.5,31.6,5.1,30.8C488.7,327.2,481,305.4,491.7,296.8z"/>
	<path fill="#1E81ED" d="M489,116.7C490.6,116.6,489.9,119,489,116.7L489,116.7z"/>
	<path fill="#1E81ED" d="M511.1,545.3c-5.4,2.7-9.4,6.1-14.2,1.6c-4.7-14.1-5.8-36.5,6.6-34.1C510.7,514.3,514.1,532.1,511.1,545.3z
		"/>
	<path fill="#1E81ED" d="M504.7,785.6c14.4,2,13.1,37-1.3,37.3c-0.4-3.3-3.4-3.3-5.1-4.8c1-14.5-6-25.1,1.3-34.1
		C502.7,781.7,502.5,791.4,504.7,785.6z"/>
	<path fill="#1E81ED" d="M513.8,720.6c0-0.6,0-1.1,0-1.6C512.2,719.3,513.1,720.6,513.8,720.6c0,2.1,0,4.3,0,6.6
		c-13.4,12.8-20.5-21.9-3.8-21.1c3.7,2.4,4.6,8.4,5.1,14.7C514.7,720.6,514.2,720.6,513.8,720.6z M508.5,710.9
		C509.4,709.8,508,711.5,508.5,710.9L508.5,710.9z M509.8,720.6c0.3,1.3,0,3.1,1.3,3.3C510.8,722.6,511.1,720.6,509.8,720.6z"/>
	<path fill="#1E81ED" d="M512.5,639.4c0-0.6,0-1.1,0-1.6C510.9,638.1,511.7,639.4,512.5,639.4c-9,15-17.8-16.1-10.4-27.6
		C512.4,607.5,523.3,632.7,512.5,639.4z M509.8,620c-1.3,0-1.6,2.8,0,3.3C509.7,621.4,511.8,620.7,509.8,620z"/>
	<path fill="#1E81ED" d="M504.7,785.6C500.7,785.1,505.8,778.7,504.7,785.6L504.7,785.6z"/>
	<path fill="#1E81ED" d="M507.2,879.8c5.4,2.3,10.5-4.8,13,13C514.9,908.4,498.6,894,507.2,879.8z M515.1,886.2
		C515.9,885.2,514.5,886.9,515.1,886.2L515.1,886.2z"/>
	<path fill="#1E81ED" d="M515.1,680C514.5,680.7,515.9,679,515.1,680L515.1,680z"/>
	<path fill="#1E81ED" d="M563.1-42.4c0.3,1.3,1.1,1.9,2.6,1.6c-3.6,6.7-13.7,9-18.2,1.6c2.1-7.4-0.4-10.4,0-19.5
		c4.4-2.8,5.8,2.1,10.4,3.3C559.3-50.6,559-43.6,563.1-42.4z"/>
	<path fill="#1E81ED" d="M554,11.1c7.1,0.9,6.4,11.4,7.8,19.5c1.7,4,4-3,5.1,1.6c-0.6,5.6-3.6,2-1.3,8.1
		C550.3,56.9,547.1,25.4,554,11.1z"/>
	<path fill="#1E81ED" d="M554,113.4c5.6-2,6.6-0.1,10.4,3.3c-0.6,6-0.6,9.1-2.6,16.2C552,131.4,554.1,119.9,554,113.4z"/>
	<path fill="#1E81ED" d="M559.3,219c3.4-0.6,3.6-5.3,9.1-3.3c3.7,6.6-0.1,12.3,5.1,16.2C567.4,248.8,555.4,233.4,559.3,219z"/>
	<path fill="#1E81ED" d="M564.4,25.8C564,26.5,565.2,24.7,564.4,25.8L564.4,25.8z"/>
	<path fill="#1E81ED" d="M563.1-42.4C561.7-50,569.2-40.6,563.1-42.4L563.1-42.4z"/>
	<path fill="#1E81ED" d="M569.7,852.1c19.9-7.8,18.7,32.9,5.1,32.5C564,884.2,565.5,863.8,569.7,852.1z"/>
	<path fill="#1E81ED" d="M570.9,777.5c5.4,0.4,6.1-2.7,10.4,0c1.1,6.3,1.7,13,1.3,21.1c-4.3-2.7-4.7,5.7-9.1,4.8
		C564.7,801.8,565.2,786.4,570.9,777.5z M570.9,792C571.8,791,570.4,792.7,570.9,792L570.9,792z"/>
	<path fill="#1E81ED" d="M569.7,683.3c19.1-9.7,18.2,28.2,5.1,27.6C564.4,710.3,567.5,695.5,569.7,683.3z"/>
	<path fill="#1E81ED" d="M568.4,126.4C567.8,127.1,569.2,125.4,568.4,126.4L568.4,126.4z"/>
	<path fill="#1E81ED" d="M587.9,628.1c-5.6-2.8-6.7,4.8-7.8,4.8c-10.5-0.3-10.7-26.4,0-27.6C587.5,604.5,591,612.2,587.9,628.1z
		 M581.3,621.6C582.2,620.6,580.8,622.3,581.3,621.6L581.3,621.6z"/>
	<path fill="#1E81ED" d="M586.6,344c0.1,4.1,0.7,7.7,2.6,9.7c-10.1,21.5-22.5-17-9.1-21.1C584,334.2,583.2,341.6,586.6,344z"/>
	<path fill="#1E81ED" d="M581.3,439.7c6.7,1.4,8.1,9.4,13,13c-0.1,5.8-2,9.4-2.6,14.7c-3.8,0.1-4.6,4-11.7,3.3
		C574.2,465,576.2,445.6,581.3,439.7z"/>
	<path fill="#1E81ED" d="M581.3,519.3c8.7,4.3,14.7,12,13,29.2c-4.4,0.9-5.7,5.8-11.7,4.8c-0.6-2-1.7-3.3-3.8-3.3
		C578.5,538.1,577.4,528.7,581.3,519.3z M583.9,537.2C589,535.2,578.8,535.2,583.9,537.2L583.9,537.2z"/>
	<path fill="#1E81ED" d="M586.6,344c0-1.6,0-3.3,0-4.8c1.7,1,2.4,3.4,2.6,6.6C587.9,345.6,587.6,344.3,586.6,344z"/>
	<path fill="#1E81ED" d="M590.5,350.4C589.9,351.1,591.3,349.4,590.5,350.4L590.5,350.4z"/>
	<path fill="#1E81ED" d="M622.9,207.6c-1.6-0.4-1.3-3.3,0-3.3C624.8,205.1,622.8,205.8,622.9,207.6z"/>
	<path fill="#1E81ED" d="M634.6,409c9.7,1.4,8.8,11,11.7,17.8C637.1,453,618.1,422.4,634.6,409z"/>
	<path fill="#1E81ED" d="M641.2,298.5c13.1,3,12.7,22.9,2.6,30.8C624.5,332.5,634.2,303.7,641.2,298.5z"/>
	<path fill="#1E81ED" d="M642.5,850.5c2.6-0.6,4.4,11.7,5.1,3.3c1.9,2.6,3.7,5.1,5.1,8.1c-1.4,8-3.8,14.7-9.1,17.8
		C632.1,877.5,635.8,856.1,642.5,850.5z M648.9,866.7c-0.7-2.4,1.6-8.4-1.3-8.1C648.3,863.7,644.6,865.2,648.9,866.7z"/>
	<path fill="#1E81ED" d="M642.5,688.1c4.1-0.9,4.6,3,9.1,1.6c1.6,4.6,1.4,11.3,1.3,17.8C639.9,724,630.4,699.8,642.5,688.1z"/>
	<path fill="#1E81ED" d="M655.4,519.3c0.1,2.8-0.3,5-1.3,6.6c-3.6-1.1-2.6,3.3-5.1,3.3c-6.8-2.8-9.5-10.8-10.4-21.1
		c3.8-6.4,10.7-1.4,15.5,0C653.4,511.4,651,518.4,655.4,519.3z"/>
	<path fill="#1E81ED" d="M650.3,184.8c9.7,5.8,5.4,32.5-6.6,25.9c-8.1-6-7.6-26.4,1.3-27.6C648.6,182.8,648.2,191.5,650.3,184.8z
		 M650.3,191.4c0.1,1.9-0.3,4.6,1.3,4.8C651.3,194.4,651.7,191.7,650.3,191.4z"/>
	<path fill="#1E81ED" d="M641.2,77.7c10.4-3.7,23.7,17.2,11.7,30.8c-4.7,0.6-8.4-0.3-11.7-1.6C638.9,96.1,636.9,87.5,641.2,77.7z"/>
	<path fill="#1E81ED" d="M648.9,775.7c2.7,6.7-3,13.7,5.1,13c-1,4.7-3.1,8-5.1,11.4C636.3,801.5,637.6,775.2,648.9,775.7z"/>
	<path fill="#1E81ED" d="M641.2,926.8c-1-7.8,2.4-10,6.6-11.4c1.6,8,8.5-0.7,7.8,9.7c-2.4,0.7-5.6-5-5.3,1.6
		C647.2,926.8,644.2,926.8,641.2,926.8z"/>
	<path fill="#1E81ED" d="M652.9,602c3.7,2.8,2.4,12.1,5.1,16.2c-1.7,1.6-4.8,1.6-5.1,4.8C641.5,623.4,642,602.9,652.9,602z"/>
	<path fill="#1E81ED" d="M654.2,525.8C655.7,525.7,655,528.1,654.2,525.8L654.2,525.8z"/>
	<path fill="#1E81ED" d="M656.7,926.8c-0.4,0-0.9,0-1.3,0c0-0.6,0-1.1,0-1.6C656.3,925.2,657,925.4,656.7,926.8z"/>
	<path fill="#1E81ED" d="M655.4,519.3C655.3,517.4,657.3,518.3,655.4,519.3L655.4,519.3z"/>
	<path fill="#1E81ED" d="M656.7,512.8C656.1,513.6,657.6,511.7,656.7,512.8L656.7,512.8z"/>
	<path fill="#1E81ED" d="M658,605.3C657.6,606,658.9,604.3,658,605.3L658,605.3z"/>
	<path fill="#1E81ED" d="M658,524.1C657.6,524.8,658.9,523.1,658,524.1L658,524.1z"/>
	<path fill="#1E81ED" d="M659.3,613.4c-1.3,0-1-2-1.3-3.3C659.3,610.3,659,612.2,659.3,613.4z"/>
	<path fill="#1E81ED" d="M715.3,205.9c0-2.7-1-4.3-2.6-4.8C712.6,203.9,713.6,205.4,715.3,205.9c0,1.1,0,2.1,0,3.3
		c-9.8,6.3-12.8-7-14.2-16.2c5.4-12,20.4-8.7,19.5,9.7C717.8,202.8,718.8,207.2,715.3,205.9z M717.8,201.1c-0.6-3.1-0.4-7-3.8-6.6
		C713.7,198.7,716,199.7,717.8,201.1z"/>
	<path fill="#1E81ED" d="M716.6,4.7c-1.6,0.3-1.1,3-1.3,4.8C716.7,9.3,716.3,6.6,716.6,4.7c9.7,8.5,6.6,35.5-7.8,29.2
		c-4.7-13.4-8.4-27.2-3.8-40.6C710.9-5.7,712.4,1.2,716.6,4.7z M717.8,14.4C718.7,13.4,717.3,15.1,717.8,14.4L717.8,14.4z"/>
</g>
</svg>
