<svg xmlns="http://www.w3.org/2000/svg" viewBox="0 0 420 420"><path d="M420 227.8v-.8c-4.5 2.7-9.1 5.3-10.3 6-7.4 4.6-13 8.8-17.3 13.3-3.9 4.2-8.7 7-15.7 9.9-1 .4-2.1.8-3.4 1.3l-3.3 1.3c-6.8 2.6-10.4 4.4-13.3 7.1-3 2.7-6.7 4.6-11.7 6.2-1.4.4-2.8.8-4.5 1.3l-4.3 1.1c-3.7.9-5.8 1.7-7.4 2.6-2.2 1.3-4.6 2.3-8.9 3.5-1.1.3-2.2.6-3.4 1-1.4.4-2.5.7-3.6 1.1-2.7.8-5.3 1.7-7.8 2.8-1.9.8-3.8 2.7-6.1 5.9-1.5 2.1-2.9 4.2-4.3 6.4-4 6.3-5.3 8.2-7.2 10.1-1 1-2.1 2-3.2 3-1.6 1.3-7.3 5.3-8.3 6.1-1 .8-1.9 1.8-2.6 2.9-.9 1.6-1.3 3.2-1.9 6.2-1.5 7.4-2.5 10.4-5.7 15.5-2.8 4.4-4.8 6.9-6.9 9.1l-1 1-2.6 2.5c-1.2 1.1-2.2 2.2-3.4 3.4-3.2 3.4-5.6 7.4-6.9 11.8-1.7 5.7-1.9 10.8-1.2 19 .3 4.1.4 4.4.4 5.7 0 7.3.1 12.3.4 18 .2 2.8.4 5.5.7 7.8h.6c-.8-6.7-1-15.3-1-25.9 0-1.3 0-1.7-.4-5.8-.7-8.1-.5-13.2 1.2-18.8 1.3-4.3 3.6-8.3 6.7-11.6 1.2-1.2 2.2-2.3 3.4-3.4.4-.4 2.2-2.1 2.6-2.5.4-.3.7-.7 1.1-1 2.2-2.2 4.1-4.7 7-9.2 3.3-5.2 4.3-8.2 5.8-15.7.6-2.9 1-4.5 1.9-6 .5-.9 1.3-1.7 2.4-2.7 1-.8 6.6-4.8 8.3-6.1 1.2-1 2.3-2 3.3-3 1.9-2 3.2-3.9 7.2-10.3 1.3-2.2 2.8-4.3 4.3-6.4 2.2-3 4.1-4.9 5.9-5.6 2.4-1 4.9-1.9 7.8-2.8 1.8-.5 3.5-1.1 5.3-1.5l1.7-.5c4.3-1.3 6.9-2.2 9.1-3.6 1.5-.9 3.6-1.6 7.2-2.6l4.3-1.1c1.7-.4 3.2-.8 4.6-1.3 5.1-1.6 8.9-3.5 12-6.3 2.8-2.6 6.3-4.3 13-6.9l3.3-1.3c1.3-.5 2.4-.9 3.4-1.3 7.1-2.9 11.9-5.8 15.9-10.1 4.2-4.5 9.8-8.7 17.1-13.2.9-.5 5.3-3 9.7-5.6v-45.2c-2.8 5.7-6 10.4-8.9 12.5-1.8 1.3-3.8 2.8-6.3 4.8-1.5 1.2-2.9 2.3-4.4 3.5l-.9.7c-1.1.9-2.3 1.8-3.4 2.7-5.3 4.2-9 7-12.3 9.2-2.2 1.4-2.7 1.9-5.6 5-4.1 4.2-8.2 6-20.4 7.7-7.9 1-14 3.4-21.5 7.7-1.2.7-5.1 3-4.9 2.9-1.9 1.1-3.3 1.9-4.6 2.6-3.9 2-7.3 2.9-11 2.9-12 0-29 8-36.1 16-8.4 9.4-22 19.4-31.6 21.8-5.2 1.3-8.3 4.9-9.8 10.3-.9 3.1-1.1 5.8-1.1 9.7 0 .6 0 .7.2 2.5.3 3.6.2 6.1-.5 9.3-1.1 4.3-3.4 8.8-7.4 13.6-9.7 11.6-16 32.6-16 50.1v6.1c.1 7.6.1 11-.2 15.3-.4 7.8-1.5 14.5-3.5 20.5h-.8c2.1-6 3.1-12.7 3.5-20.5.2-4.3.2-7.8.2-15.3v-6.1c0-17.7 6.3-38.8 16.2-50.6 3.9-4.7 6.2-9.1 7.3-13.3.8-3.1.8-5.5.5-9-.2-1.9-.2-2-.2-2.6 0-3.9.2-6.7 1.1-9.9 1.6-5.6 4.9-9.4 10.3-10.8 9.5-2.4 23-12.3 31.3-21.6 7.3-8.1 24.4-16.2 36.6-16.2 3.5 0 6.8-.9 10.7-2.8 1.3-.7 2.7-1.4 4.6-2.5-.2.1 3.7-2.2 4.9-2.9 7.6-4.3 13.7-6.8 21.8-7.8 12-1.6 16-3.3 20-7.4 3-3.1 3.5-3.6 5.7-5.1 3.3-2.2 7-5 12.3-9.2 1.1-.9 2.3-1.8 3.4-2.7l.9-.7c1.5-1.2 2.9-2.3 4.4-3.5 2.6-2 4.6-3.6 6.3-4.9 3.1-2.2 6.4-7.4 9.3-13.6v46.8zm0-81.1c-.4 0-.9 0-1.4.1-4.3.4-9.7 2.4-15.3 5.2-2.5 1.3-5.9 1.9-9.9 1.9-3.3 0-6.8-.3-10.3-.9-1.2-.2-2.3-.4-3.3-.6-.8-.2-1.6-.3-2.5-.4-3.9-.3-7.8-.5-11.7-.6-7.3-.1-12 .5-12.6 1.9-.3.7.4 1.8 2.1 3.4.7.7 1.6 1.4 2.8 2.5 1.1.9 2.2 1.9 3.4 2.8 1 .8 2.2 1.3 3.8 1.7.5.1.6.1 1.8.4 2.5.5 3.5.9 4.3 1.8 1 1.2 1 3.2-.1 6.2-1.7 4.8-4 7-7.1 7.2-2.5.2-5.3-.9-10.2-3.5-3.2-1.7-4.8-5.1-5.8-10.7-.1-.6-.2-1.2-.3-2l-.3-1.9c-.7-4.6-1.3-6.4-2.6-7.1-.6-.3-1.1-.5-1.7-.7-1.6-.5-3.2-.7-5.7-.6-1.6 0-10.3.7-9.6.6-14.4 1-20.2 3.5-26 10.5-1 1.2-2 2.5-3 3.8l-1.6 2.2-1.8 2.3c-2.9 3.7-4.9 5.9-7.3 7.8-.5.4-.9.7-1.5 1.1l-2.9 2.1c-1.2.9-2.4 1.8-3.6 2.8-3.2 2.6-6.8 6-11.4 10.7-5.8 6-8.2 9.5-8.2 11.1 0 1.2 1.1 1.5 4.8 1.7 1.1.1 1.5.1 2.1.1 2.1.2 3.6.5 4.8 1.2 5.2 2.9 8.1 5.1 9.8 8.1 2.3 4.3.6 9-6.2 14.2-5.8 4.4-7.8 7.2-7.9 10.5 0 .8 0 1.3.2 3.1.5 4.5.2 7.4-2 12.2-.8 1.8-1.8 3.6-2.9 5.3-2 2.8-3.8 4-7.4 5.4-.3.1-2.3.9-3 1.1-1.3.5-2.4 1-3.5 1.5-2.9 1.4-5.9 3.2-9.2 5.8-5.9 4.5-9.3 10.2-11.2 17.5-.8 2.9-1.1 4.8-2 10.6-.9 6-1.5 8.8-2.9 11.6-1.5 3-8.3 18.6-9.1 20.2-1.4 3.2-2.9 6.3-4.5 9.4-2.8 5.7-5.3 9.8-7.5 12.4-3.8 4.5-6.3 10-9.6 19.9-.4 1.3-.9 2.6-1.3 3.9-1.3 3.7-2.1 6-3 8.3-4.3 10.7-17.8 18.4-32.5 18.4-7.8 0-14.4-1.9-21.7-6-3.9-2.2-3.2-1.7-15.6-10.2-10-6.8-12.4-7.5-14.3-4.8-.3.3-1.3 1.9-1.3 1.9-1 1.5-2.2 2.8-3.5 4.1-.5.6-3.9 4.1-4.9 5.2-1.7 1.8-3 3.4-4.2 4.8-1.4 1.7-2.6 3.5-3.6 5.4-.9 1.8-1.3 3.7-1.9 7.4-.1.7-.2 1.5-.3 2.2H85l.3-2.3c.5-3.8 1-5.7 1.9-7.6 1-1.9 2.2-3.8 3.6-5.5 1.2-1.5 2.5-3.1 4.2-4.9 1-1.1 4.4-4.7 4.9-5.2 1.2-1.3 2.4-2.6 3.4-4 0 0 1-1.6 1.3-2 2.3-3.1 5-2.4 15.3 4.7 12.4 8.4 11.6 8 15.5 10.1 7.2 4 13.6 5.9 21.4 5.9 14.5 0 27.7-7.5 31.9-18 1.1-2.7 2.1-5.5 3-8.2.4-1.3.9-2.6 1.3-3.9 3.4-9.9 5.9-15.5 9.8-20.1 2.1-2.6 4.6-6.7 7.4-12.3 1.4-2.7 2.8-5.8 4.4-9.3.7-1.6 7.6-17.2 9.1-20.2 1.3-2.6 1.9-5.4 2.8-11.4.9-5.9 1.2-7.7 2-10.7 2-7.5 5.4-13.2 11.4-17.9 2.9-2.3 6-4.2 9.3-5.8 1.2-.6 2.3-1 3.6-1.5.7-.3 2.7-1 3-1.1 3.5-1.3 5.2-2.5 7.1-5.1.9-1.3 1.9-3 2.8-5.1 2.1-4.6 2.4-7.4 1.9-11.8-.2-1.1-.2-2.1-.2-3.2.2-3.5 2.2-6.5 8.2-11 6.5-5 8.2-9.3 6-13.3-1.5-2.9-4.4-5-9.5-7.8-1.1-.6-2.5-.9-4.5-1.1-.6 0-.9-.1-2.1-.1-4-.2-5.3-.6-5.4-2.3-.1-2 2.4-5.5 8.4-11.7 4.6-4.8 8.2-8.2 11.4-10.8 1.3-1 2.4-1.9 3.6-2.8l2.9-2.1c.6-.4 1-.8 1.5-1.1 2.3-1.8 4.3-3.9 7.1-7.6.6-.8 1.2-1.5 1.7-2.3l1.6-2.2c1.3-1.7 2.1-2.8 3-3.8 5.9-7.1 11.9-9.8 26.1-10.7-.3 0 8.4-.6 10-.7 2.5-.1 4.2.1 5.9.7.6.2 1.1.4 1.7.7 1.6.8 2.2 2.7 3 7.6l.3 1.9c.1.7.2 1.4.3 2 1 5.4 2.5 8.6 5.5 10.2 4.7 2.6 7.4 3.6 9.8 3.5 2.8-.2 4.9-2.2 6.5-6.8 1-2.8 1-4.5.2-5.5-.6-.8-1.6-1.1-3.9-1.6-.6-.1-1.2-.2-1.9-.4-1.8-.4-3.1-1-4.2-1.9-1.1-.9-2.2-1.9-3.3-2.8-1-.8-1.9-1.6-2.9-2.5-1.9-1.8-2.7-3.1-2.3-4.2.7-1.8 5.5-2.5 13.2-2.4 3.9.1 7.8.3 11.7.6 1.9.3 2.2.3 2.6.4 1 .2 2.1.4 3.2.6 3.4.6 6.8.9 10.2.9 3.9 0 7.2-.6 9.6-1.8 5.7-2.8 11.1-4.8 15.5-5.3.5 0 1-.1 1.4-.1v.5zm0-70.7v1c-6 11.2-12.1 20.7-16.6 25.1-2.2 2.2-5.3 3.4-9.5 3.9-3.1.3-5.8.3-13.4-.1-6.9-.4-10.7-.3-14.4.5-3.5.8-7 1.3-10.5 1.5l-1.6.1c-8.7.5-13.6 1.2-22.9 4-3.2.9-6.5 1.7-10 2.4-7.5 1.4-15.2 2.4-22.8 2.8-5.3.3-9.3.4-14.2.4-3.8 0-8.3 1.1-12.6 3.6-5.8 3.4-10.5 9-13.7 17.1-.9 2.4-2 4.7-3.2 6.9-2.5 4.3-4.8 6.3-9.4 8.5l-2.8 1.4c-3.9 1.9-7.4 4.3-10.6 7.2-5.7 5.1-9.6 11.6-15.8 24.9l-1.5 3.1c-5.1 11-8.1 16.3-12.2 20.9-5.4 6.1-14.2 10.1-28.2 14-3.1.9-13.3 3.6-13.5 3.6-4.8 1.3-8.2 2.3-10.9 3.4-7.4 3-13.1 7.4-25.5 18.5l-1.2 1.1c-6 5.4-9.4 8.3-13.2 11.1-2.8 2-5.6 4-9.1 6.2-1.4.9-7.2 4.6-8.6 5.6-8.1 5.2-13 9.1-17.2 14-1.7 1.9-3.2 4-4.5 6.2-2.9 4.8-4.4 9.2-6.4 17.6l-1.1 4.4c-.4 1.7-.8 3.2-1.2 4.6-2.1 7.5-4.8 12.1-10.4 18.8l-2.9 3.5c-1 1.2-2 2.4-2.9 3.7-1 1.3-1.8 2.8-2.4 4.4-.8 2.3-1.1 4.1-1.3 8.3-.4 7-1 10.5-3.2 15.8-1.1 2.6-4 9.8-4.5 11-.7 1.8-1.6 3.5-2.5 5.2-2 3.6-4.7 7.1-9.2 11.8-4.2 4.4-6.2 7.6-7.4 11.2-.4 1.1-.7 2.2-1 3.4l-.3 1.3H13l.4-1.5c.4-1.5.6-2.4 1-3.4 1.3-3.7 3.3-6.9 7.6-11.4 4.4-4.7 7.1-8.2 9.1-11.7.9-1.7 1.7-3.4 2.5-5.1.5-1.2 3.4-8.4 4.5-11 2.2-5.2 2.8-8.7 3.2-15.6.2-4.3.5-6.2 1.4-8.5.6-1.6 1.4-3.2 2.5-4.6.9-1.2 1.8-2.4 3-3.7l2.9-3.5c5.5-6.6 8.2-11.2 10.2-18.6.4-1.4.8-2.9 1.2-4.6l1.1-4.4c2.1-8.4 3.6-12.8 6.5-17.7 1.3-2.2 2.8-4.2 4.6-6.3 4.3-5 9.3-8.9 17.4-14.2 1.4-.9 7.2-4.6 8.6-5.6 3.5-2.3 6.3-4.2 9-6.2 3.8-2.8 7.1-5.6 13.1-11.1l1.2-1.1c12.4-11.2 18.2-15.7 25.7-18.7 2.8-1.1 6.2-2.2 11-3.5.1 0 10.4-2.7 13.5-3.6 13.9-3.9 22.6-7.9 27.9-13.8 4-4.5 7-9.8 12-20.7l1.5-3.1c6.2-13.3 10.1-19.9 15.9-25.1 3.2-2.9 6.9-5.4 10.8-7.3l2.8-1.4c4.4-2.2 6.6-4 9.1-8.2 1.2-2.2 2.3-4.4 3.1-6.8 3.2-8.3 8-14 14-17.5 4.4-2.6 9.1-3.7 13-3.7 4.9 0 8.9-.1 14.1-.4 7.6-.4 15.2-1.3 22.7-2.8 3.5-.7 6.8-1.5 10-2.4 9.4-2.8 14.3-3.5 23.1-4l1.6-.1c4-.3 6.9-.6 10.4-1.5 3.7-.9 7.6-.9 15.8-.5 6.3.3 9 .4 12.1.1 4-.4 7-1.6 9.1-3.7 4.3-4.2 10.5-14 16.8-25.4zm0 315c-.9-3.2-1.5-7.4-2.3-14.2l-.2-1.4-.2-1.4c-1.3-11-2.1-15.4-3.8-17.2-1.7-1.7-2.1-3.5-1.7-6.1.1-.4.1-.8.3-1.5.5-2.5.5-3.5.1-4.8-.6-1.7-2.3-3.1-5.4-4.4-3.5-1.5-4.5-3.4-3.4-5.9.5-1 1.2-2.1 2.4-3.5.7-.8 3.8-4.2 3.5-3.9 4.2-4.7 6.2-8 6.2-11.6-.1-3.6 1.6-7 4.5-9.1v.9c-2.5 1.9-3.9 5-3.8 8.2 0 3.8-2 7.2-6.4 12.1.3-.3-2.8 3-3.5 3.9-1.1 1.4-1.9 2.4-2.3 3.4-.9 2.1-.2 3.7 3 5 3.2 1.4 5 2.9 5.7 4.8.5 1.4.5 2.6 0 5.2-.1.7-.2 1.1-.3 1.5-.3 2.3 0 3.9 1.5 5.5 1.9 1.9 2.7 6.3 4 17.6l.2 1.4.2 1.4c.6 4.9 1.1 8.5 1.6 11.3v2.8zm0-44c-.9-2.2-3-6.9-3.3-7.8-.7-1.8-.8-2.7-.6-3.6.1-.6 1.4-3.3 1.5-3.7 1-2.5 1.8-5.2 2.4-7.8v2.8c-.5 1.8-1.1 3.6-1.7 5.3-.2.5-1.4 3.1-1.5 3.6-.2.8-.1 1.6.6 3.2.3.7 1.7 4 2.7 6.4v1.6zm0-59.6c-1.2 1.2-2.6 2-4.5 2.9-.2.1-9.8 3.8-14.3 5.9-6.5 3-11.7 4.1-16.1 3.7-3.5-.4-6.3-1.6-10.3-4.2l-2.2-1.5c-1.2-.8-2.5-1.6-3.8-2.3-2.8-1.5-2.3-4.1 1-7.4 2.6-2.6 6.7-5.6 13.1-9.7l3.1-2c12.5-8 12.7-8.1 15.6-10.4 7.9-6.3 13.8-9.8 18.4-10.6v.7c-4.5.8-10.2 4.2-18 10.4-2.9 2.3-3 2.4-15.6 10.4-1 .7-2.1 1.3-3.1 2-6.3 4.1-10.4 7.1-13 9.6-3 3-3.5 5-1.2 6.2 1.2.6 2.3 1.3 3.8 2.3l2.2 1.5c3.9 2.5 6.6 3.7 10 4 4.3.4 9.3-.6 15.7-3.6 4.5-2.1 14.1-5.9 14.3-5.9 2.1-1 3.6-1.9 4.8-3.3v1.3zm0-28.4v.7c-4.6.2-8.5 2.2-13.9 6.3l-3.3 2.6c-1 .8-2 1.5-3.1 2.2-.6.4-3.9 2.3-4.4 2.6-2.3 1.4-4.3 2.7-6.2 3.9-2 1.3-3.9 2.7-5.7 4.1-3.2 2.6-5.2 4.8-5.6 6.5-.4 1.9 1 3.2 5 3.8 7.5 1.2 14.7 0 21.4-3.2 4.5-2.1 8.5-5 12-8.5 1.4-1.6 2.7-3.3 3.8-5.2v1.3c-.9 1.5-2 3-3.3 4.3-3.6 3.6-7.7 6.5-12.2 8.7-6.8 3.3-14.2 4.6-21.9 3.3-4.3-.7-6.1-2.3-5.5-4.7.5-1.9 2.5-4.2 5.9-6.9 1.7-1.3 3.6-2.7 5.8-4.2 1.9-1.3 3.9-2.5 6.3-3.9.5-.3 3.8-2.3 4.4-2.6.9-.6 1.8-1.2 3-2.2.6-.4 2.7-2.2 3.3-2.6 5.4-4.1 9.4-6.1 14.2-6.3zm0-109v.7c-1.2-.2-3 .2-5.5 1.1-7.1 2.6-9.7 3.6-13.5 4.8-1.3.4-1.9.6-2.7.9-1 .4-2.2.5-4.8.8-.6.1-1.2.1-1.9.2-5.5.7-7.9 1.7-7.9 4.3 0 3.1 2 9.3 5.6 18.2.7 1.7 1.2 3.5 1.6 5.4l.6 2.4c1.3 5.4 2.2 7.5 3.9 8.2 1.6.6 3.3.4 5.3-.5 2.5-1.2 5.1-3.5 7.9-6.7 1.1-1.2 2.1-2.5 3.2-3.9l2.2-2.9c1.8-2.3 4.3-8.6 5.9-14.2v2.4c-1.6 5.1-3.7 10.2-5.4 12.3-.3.4-1.9 2.4-2.2 2.9-1.1 1.5-2.2 2.7-3.3 4-2.9 3.2-5.6 5.6-8.1 6.8-2.1 1-4.1 1.2-5.8.5-2-.8-3-3.1-4.3-8.7l-.6-2.4c-.6-2.3-1-3.8-1.6-5.3-3.6-9-5.7-15.2-5.7-18.4 0-3.1 2.7-4.3 8.6-5 .6-.1 1.2-.1 1.9-.2 2.5-.3 3.6-.5 4.6-.8l2.7-.9c3.8-1.2 6.4-2.1 13.5-4.7 2.5-1.1 4.4-1.4 5.8-1.3zM0 203.9c7.1-7.9 12.7-16.2 16.1-24.7 2.3-5.7 4.3-11.3 7.6-21.3l1.1-3.4c4.6-13.9 7.1-20.8 10.3-27.6 4.2-8.9 8.8-14.8 14.2-17.8 4.7-2.6 7.1-5.5 8.5-9.2.5-1.5 1-3 1.3-4.6.9-3.6 1.4-5.3 2.7-7.2 1.7-2.5 4.4-4.6 8.5-6.3 11-4.6 11.7-4.9 12.6-6.3.5-.7.6-1.5.5-3.1 0-.5-.2-2.7-.2-2.8-.1-1.3-.1-2.6-.1-3.9 0-7 .1-7.9 1.7-9.2.4-.3.8-.6 1.4-.9.2-.1 1.5-.8 2-1 2.2-1.2 4.4-2.6 6.4-4.1 1.4-1.1 1.8-1.5 5.6-5.5 2.6-2.9 4.3-4.4 6.3-5.7 2.5-1.6 5-2.2 7.6-1.5 3.1.8 7.6 1.4 13.1 1.7 4.8.3 9 .3 15.4.3 3.4 0 6.3.3 10.8 1.1 5.4.9 6.5 1.1 8.7 1.1 2.8 0 5.2-.6 7.5-2.1 3.5-2.2 5.7-3.3 7.8-3.6 2.5-.4 3.3-.3 11.6 1.4 12.1 2.6 21.6.9 28.7-6.8 3.6-3.9 3.8-6.2 2.4-10.3-.6-1.7-.7-2.2-.8-3-.2-1.8.3-3.3 1.9-4.8 1.9-1.9 3.3-6.4 4.4-12.8h1.4c-1.1 6.8-2.6 11.6-4.8 13.8-1.3 1.3-1.7 2.4-1.5 3.7.1.7.2 1.1.7 2.7 1.6 4.6 1.2 7.4-2.7 11.7-7.5 8.1-17.5 9.9-30 7.2-8-1.7-8.8-1.8-11-1.4-1.9.3-3.9 1.3-7.3 3.4-2.5 1.6-5.3 2.4-8.2 2.3-2.3 0-3.4-.2-8.9-1.1-4.4-.8-7.2-1.1-10.5-1.1-6.4 0-10.6-.1-15.4-.3-5.7-.3-10.2-.9-13.4-1.8-3.9-1.1-7.1 1-12.5 6.7-3.8 4.1-4.3 4.6-5.8 5.7-2.1 1.6-4.3 3-6.6 4.2-.5.3-1.8.9-2 1-.6.3-.9.5-1.2.8-1 .8-1.1 1.7-1.1 8.1 0 1.3 0 2.5.1 3.8 0 .1.1 2.3.2 2.8.1 1.9-.1 3-.8 4-1.2 1.7-1.6 2-13.3 6.8-3.8 1.6-6.3 3.5-7.8 5.8-1.2 1.8-1.7 3.3-2.5 6.8-.6 2.4-.8 3.4-1.4 4.8-1.5 4-4.2 7.1-9.2 9.9-5.1 2.9-9.5 8.6-13.6 17.2-3.2 6.7-5.7 13.6-10.3 27.5l-1.1 3.4c-3.3 10.1-5.3 15.7-7.6 21.4-3.8 9-9.8 17.9-17.5 26.2v-2.1zm0 55.2v-.4h.7c4.4 0 5.2 3.6 3.2 9.4-1 2.8-2.3 5.4-3.9 7.9v-1.3c1.3-2.2 2.4-4.4 3.3-6.8 1.9-5.3 1.2-8.4-2.6-8.4H0v-32.6c3.2-1.9 6.4-3.8 9.6-5.8 9.6-6.6 20.8-26.3 20.8-37.5 0-12.7 15.1-50.9 22.5-55.6 8.9-5.7 22.5-19.6 25-26.4 1.3-3.7 3.8-5.1 10.1-6.6 4.3-1 6-1.7 7.5-3.4 1-1.2 1.9-3.4 3-7.2.2-.5 1.3-4.7 1.7-5.9 2.5-8.5 5.1-12.9 9.4-14.3 1.7-.5 2.1-.7 6.8-2.6 5.2-2.1 8.4-3.1 12-3.4 4.7-.5 9.2.5 13.7 3.3 3.8 2.3 8.5 3.3 14.1 3.2 4.2-.1 8.5-.7 13.9-2 1.3-.3 5.2-1.2 5.8-1.4 1.9-.4 3-.6 3.8-.6 3.5 0 6.2 0 9.9-.2 5.5-.2 10.9-.6 15.9-1.3 5.9-.8 11.1-1.9 15.3-3.4 13.2-4.6 22.8-12.8 23.5-19.3.2-1.8.3-2.1 2-7.8 1.6-5.6 2.2-9.1 1.9-12.8-.1-1.6-.5-3.1-1-4.5-1-2.7-1.8-6.6-2.4-11.3h.6c.5 4.5 1.3 8.2 2.4 11.1.6 1.5.9 3.1 1.1 4.7.3 3.8-.3 7.4-1.9 13-1.7 5.6-1.7 5.9-1.9 7.7-.8 6.8-10.6 15.2-24 19.9-4.2 1.5-9.5 2.6-15.4 3.4-5 .7-10.4 1.1-16 1.3-3.7.1-6.5.2-10 .2-.7 0-1.8.2-3.7.6-.6.1-4.5 1.1-5.8 1.4-5.4 1.2-9.7 1.9-14 2-5.7.1-10.6-.9-14.5-3.3-4.4-2.7-8.7-3.6-13.2-3.2-3.5.3-6.6 1.3-11.8 3.4-4.7 1.9-5.1 2.1-6.9 2.6-4 1.2-6.5 5.6-9 13.8-.4 1.2-1.5 5.4-1.7 5.9-1.2 4-2 6.1-3.2 7.5-1.6 1.8-3.4 2.5-8.4 3.7-5.5 1.3-7.8 2.6-9 6-2.6 7-16.3 21-25.3 26.8-7.2 4.6-22.2 42.6-22.2 55C31 195 19.6 215 9.9 221.7c-1.5 1-5.8 3.6-10 6.1v-.8 32.1H0zM0 137v-.8c5.2-2.7 10.2-7.1 15.3-13.2 2.7-3.2 9.9-13.1 11-14.3 1.3-1.4 2.8-2.8 5.2-4.5.8-.6 3.4-2.5 3.8-2.8 6.5-4.8 9.8-8.3 11.2-13.5.6-2.1 1.1-4.7 1.7-8.6.2-1 1.4-8.7 1.8-11 2-11.7 4-18.7 7-22.4 7.6-9.2 13.9-19.2 13.9-22.8 0-1.8.2-2.3 4.2-11 .5-1 .9-1.9 1.2-2.7 1.7-4 2.7-7 2.9-9.3h.8c-.2 2.4-1.2 5.5-3 9.6-.4.8-.8 1.7-1.2 2.8-3.9 8.4-4.2 9.1-4.2 10.7 0 3.8-6.4 13.8-14.1 23.2-2.9 3.6-4.9 10.5-6.9 22.1-.4 2.3-1.6 10-1.8 11-.6 3.9-1.2 6.5-1.7 8.7-1.4 5.4-4.8 9-11.4 13.9l-3.8 2.8c-2.3 1.7-3.9 3-5.1 4.4-1.1 1.2-8.3 11.1-11 14.3C10.5 129.7 5.4 134.3 0 137zm0 254v-3c.3 1.7.7 3.1 1.1 4.3 1.4 4.2 3.2 5.8 5.7 4.6 13.2-6.2 23.5-17 23.5-27.8 0-11.4 4.4-22.5 11.9-32.6 1.3-1.8 2.5-3.1 3.9-4.2.5-.4 1-.8 1.6-1.3l1.4-1c2.6-1.9 3.7-3.7 4.9-8.9.5-2.2 1-3.5 2.9-9.3l.4-1.3c2.3-6.7 3.2-10.5 2.9-13.1-.3-3.1-2.6-3.7-7.9-1.2-2.1 1-4.2 1.9-6.4 2.6-9.7 3.3-18.8 4.1-29.7 3.8h-2.4c-3.6 0-7.2.7-10.5 2.1-1.2.5-2.4 1.2-3.4 2v-.9c1-.7 2-1.3 3.2-1.8 3.7-1.5 7.8-2.3 11.8-2.1h1.4c10.9.3 19.9-.5 29.5-3.8 2.1-.7 4.3-1.6 6.3-2.6 5.6-2.7 8.5-2 8.9 1.7.3 2.7-.6 6.6-2.9 13.4l-.4 1.3c-2 5.8-2.4 7.1-2.9 9.3-1.3 5.3-2.5 7.3-5.2 9.3l-1.4 1c-.6.4-1.1.8-1.6 1.2-1.4 1.2-2.6 2.6-3.7 4.1-7.4 10-11.8 20.9-11.8 32.1 0 11.2-10.4 22.1-23.9 28.4-3 1.4-5.1-.5-6.7-5-.2-.3-.4-.8-.5-1.3zm0-43.6v-1.7l1 2.3c1.5 3.4 2.4 7.2 3 11.7.5 3.7.6 6.5.7 12.9.1 6.5.3 8.9 1.1 10.5.9 1.8 2.6 1.6 5.8-1 12-10 15.2-16 15.2-27 0-5 .8-8.7 2.6-12.4 1.6-3.3 2.5-4.6 9.3-13.7 1.6-2.2 3.4-4.2 5.3-6.1.8-.8 1.6-1.5 2.5-2.1.3-.2.4-.4.6-.5.8-.6 1.4-1.4 1.8-2.3.6-1.3 1.2-2.7 1.6-4.2l.3-.8.3-.8c.2-.6.3-1.1.5-1.5.3-1.1.5-1.9.6-2.6.3-1.5.1-2.4-.6-2.9-1.6-1.2-6.5-.2-16.6 3.4-6.7 2.4-11.2 2.9-19.4 3-5.4 0-7.3.3-9.2 1.5-2.4 1.5-4.1 4.5-5.3 10-.3 1.5-.7 2.9-1 4.2v-2.8l.4-1.6c1.3-5.7 3-8.8 5.6-10.4 2.1-1.3 4.1-1.5 9.6-1.6 8.1-.1 12.6-.6 19.2-2.9 10.4-3.7 15.3-4.7 17.2-3.4 1 .7 1.2 1.8.9 3.6-.2.9-.4 1.8-.7 2.6l-.5 1.5-.3.8-.3.8c-.4 1.5-1 2.9-1.6 4.3-.6 1.1-1.1 1.8-2 2.5l-.6.5-.7.6c-.6.5-1.2 1-1.7 1.5-1.9 1.9-3.6 3.9-5.2 6.1-6.8 9-7.7 10.4-9.3 13.6-1.8 3.6-2.5 7.1-2.5 12 0 11.2-3.4 17.4-15.5 27.5-3.5 2.9-5.7 3.2-6.9.8-.9-1.7-1.1-4.2-1.2-10.8-.1-6.4-.3-9.2-.7-12.9-.6-4.4-1.5-8.2-2.9-11.5l-.4-.7zM265.9 0h.7l1 3.7c2.3 8.1 3.4 13.5 3.7 19.5.3 7.7-1.1 14.9-4.6 21.8-5.5 10.6-14.3 18.5-25.3 23.9-8.7 4.2-18.3 6.4-25.3 6.4-4.8 0-12.1 1-26.1 3.2l-1.6.3c-17.1 2.8-22.1 3.5-26.2 3.5-2.4 0-2.9-.1-13.7-2-2.5-.4-4.4-.8-6.3-1-14.2-2.1-21.7-.8-22.4 5.5-.1.6-.1 1.2-.2 2l-.2 1.9c-.8 7.6-1.4 11-3 14-2 3.7-5.4 5.6-10.9 5.6-7.1 0-9 .4-10.8 2.2.4-.4-3.5 4.1-5.7 6.1-1.9 1.7-10 8.8-11 9.7-1.5 1.4-3.1 2.7-4.6 4.1-4.9 4.5-8.3 8.2-10.2 11.3-4.1 6.5-7.3 12.6-8.2 16.8-1.2 5.8 2.6 6.7 13.3.8 10.2-5.5 20.6-10.6 31.2-15.3 2.4-1.1 9.8-4.3 11-4.9 3.5-1.6 5.8-2.7 7.5-3.6l1.4-.7 1.5-.8c1.2-.7 2.4-1.2 3.5-1.8 12.7-6.1 24.1-7.3 35.2-.8 16 9.3 26.8 25.9 26.8 39.5 0 13.4-.5 17.6-3.6 23.2-1 1.8-2.1 3.4-3.5 5-4.5 5.4-8.3 11.3-8.9 14.9-.8 4.4 3.3 4.9 14.1 0 9.3-4.3 15.7-10.5 19.9-18.4 1.8-3.4 3.2-6.9 4.3-10.6.6-2.1 2.2-8.2 2.4-8.7.3-1.2.7-2.3 1.2-3.4 5.2-10.4 14.8-21.3 25.4-26.1 5.3-2.4 9.1-6.8 13.6-14.5.6-1 3-5.3 3.6-6.4 2.5-4.3 4.4-6.8 6.6-8.4 7.1-5.2 20.1-7.8 35.2-7.8 5.3 0 11.6-.9 19.2-2.5 3.5-.8 7-1.6 10.5-2.5-.9.2 10.9-2.8 13.6-3.4 9.9-2.3 28.7-3.5 44.8-3.5 12.1 0 19.5-6.5 27-27.1 4.6-12.7 4.6-18.5 1.9-24l-.8-1.7c-.7-1.3-1.1-2.8-1.1-4.3 0-2.8 0-2.8 1.7-17.2.3-2.6.6-4.7.8-6.7.6-5.9 1-10.6 1-14.6V.1h.7v2.1c0 4-.3 8.7-1 14.6-.2 2-.5 4.1-.8 6.8-1.7 14.3-1.7 14.3-1.7 17.1 0 1.4.3 2.5 1 4 .2.4.8 1.6.8 1.7 2.8 5.8 2.8 11.7-1.9 24.6-7.6 20.9-15.1 27.5-27.6 27.5-16.1 0-34.9 1.2-44.7 3.5-2.7.6-14.5 3.6-13.6 3.4-3.5.9-7 1.7-10.5 2.5-7.7 1.6-14.1 2.5-19.4 2.5-15 0-27.8 2.6-34.8 7.6-2.1 1.5-3.9 4-6.4 8.2-.6 1.1-3 5.4-3.6 6.4-4.5 7.9-8.4 12.4-13.9 14.8-10.4 4.6-19.9 15.4-25 25.7-.5 1.1-.9 2.1-1.2 3.3-.2.6-1.7 6.6-2.4 8.7-1.1 3.7-2.5 7.3-4.3 10.7-4.3 8.1-10.8 14.4-20.3 18.7-11.3 5.1-16.1 4.6-15.1-.7.7-3.7 4.5-9.7 9.1-15.2 1.3-1.5 2.4-3.1 3.4-4.9 3-5.5 3.5-9.6 3.5-22.9 0-13.3-10.6-29.7-26.4-38.9-10.9-6.4-22.1-5.2-34.6.8-1.7.8-3.4 1.7-5 2.6l-1.4.7c-2.5 1.3-5 2.5-7.6 3.6-1.2.5-8.5 3.8-11 4.9-10.6 4.7-20.9 9.8-31.1 15.3-11.2 6.1-15.6 5-14.3-1.6.9-4.3 4.1-10.5 8.3-17.1 2-3.1 5.4-6.9 10.3-11.4 1.4-1.3 2.9-2.7 4.6-4.2 1-.9 9.1-7.9 11-9.7 2.2-2 6-6.4 5.7-6.1 2-2 4-2.4 11.3-2.4 5.2 0 8.4-1.7 10.3-5.2 1.5-2.8 2.2-6.2 2.9-13.7l.2-1.9.2-2c.4-3.8 3.1-5.9 7.9-6.7 3.8-.6 8.8-.4 15.3.6 1.9.3 3.8.6 6.3 1 10.7 1.9 11.2 2 13.5 2 4 0 9-.7 26.1-3.5l1.6-.3c14.1-2.3 21.4-3.2 26.2-3.2 7 0 16.5-2.2 25-6.4 10.9-5.2 19.7-13.1 25-23.5 3.5-6.8 4.9-13.9 4.6-21.5-.3-5.9-1.4-11.3-3.7-19.3l-.9-3.7zm9.3 0h.7c.5 2.7 1.3 6.1 2.5 10.4 2.5 9.8 2.1 18.9-.5 27.1-1.7 5.3-4.4 10.2-7.9 14.5-4.1 4.8-8.6 9.2-13.5 13.1-7.9 6.3-16.3 10.8-25.2 12.9-5.2 1.2-10.5 2.1-15.8 2.8-2.2.3-4.4.6-7.2.9l-6.6.8c-8.1 1-12.2 1.8-15.1 3.1-6.5 2.9-19.8 4.2-34.4 4.2-1 0-2-.1-3-.2-1.8-.3-3.5-.7-6.4-1.6-5.1-1.5-6.7-1.9-8.8-1.8-2.7.2-4.6 1.6-5.9 4.8-1.3 3.3-1.7 5.3-2.3 10.5-.8 6.3-2 8.5-7 10-1.6.5-3.2 1.1-4.8 1.9-.4.2-.8.4-1.2.7l-.9.6c-1.3.8-2.7 1-6.5 1-2.2 0-6.2-.4-6.7-.3-.9.2-.5-.1-5 4.4-1 1-2.4 2.2-4.4 3.8-1.1.8-5 3.8-5.6 4.2-3.5 2.6-5.8 4.6-7.7 6.6-3.4 3.5-4.8 6.4-3.9 8.9.9 2.6 2.8 3.1 6.2 2 1.9-.7 3.7-1.5 5.4-2.4 1-.5 5.4-2.9 6.6-3.5 2.8-1.5 5.7-2.8 8.6-4 2.6-1 5.2-2.2 7.7-3.4 1.4-.7 7.5-3.6 9.1-4.3 3.1-1.5 5.7-2.6 8.2-3.7 12-5.1 20.5-6.9 26.4-4.6l3.8 1.5c1.6.6 2.9 1.1 4.2 1.7 3.1 1.3 6.2 2.7 9.1 4.2 12.8 6.7 21.2 15.5 24.3 27.9 4.9 19.5 2.5 31.8-5.7 43.6-2.8 4-2.5 6.4 0 6.3 2.9-.2 7.1-3.5 10.6-8.8 2.2-3.4 3.6-7.3 5.6-15.1l1.2-4.4c.5-1.7.9-3.2 1.3-4.5 3.4-11.6 7.7-19.1 15.1-24.3 5-3.5 16.6-10.8 17.8-11.7 4.7-3.4 7.4-6.6 10-12.6 5.4-12.2 14.8-17 31.1-17 6.5 0 12.5-.8 20.7-2.4 1.4-.3 2.9-.6 4.3-.9 1.7-.3 2.8-.6 4-.8 2.8-.5 4.9-.8 6.7-.8 3.1 0 6.6-.7 22-4.2l2.1-.5c11.4-2.6 17.9-3.7 22.1-3.7 1.1 0 1.7 0 4.5.1 5.5.1 8.6.1 12.1-.1 11.5-.7 18.7-3.7 20.8-10.2.7-2.1 1.5-4.2 2.5-6.2-.1.2 1.6-3.5 2-4.5 3.8-8.6 3.9-15.3-1-27.6-1.8-4.7-3.1-9.5-3.7-14.5-1.1-8.4-1-16.2.1-28.2l.1-1.5h.7l-.1 1.5c-1 12-1.2 19.7-.1 28.1.6 4.9 1.8 9.7 3.6 14.3 5 12.4 4.8 19.3 1 28.1-.4 1-2.1 4.7-2 4.5-.9 2-1.8 4-2.5 6.1-2.3 6.8-9.7 9.9-21.5 10.7-3.6.2-6.7.2-12.2.1-2.8-.1-3.4-.1-4.5-.1-4.1 0-10.6 1.2-22 3.7l-2.1.5c-15.5 3.5-18.9 4.2-22.1 4.2-1.7 0-3.8.3-6.6.8-1.1.2-2.3.4-3.9.8-1.4.3-2.9.6-4.3.9-8.2 1.7-14.2 2.5-20.8 2.5-16.1 0-25.2 4.7-30.5 16.5-2.7 6.2-5.5 9.5-10.3 12.9-1.2.9-12.8 8.2-17.8 11.7-7.2 5.1-11.4 12.5-14.8 23.9-.4 1.4-.8 2.8-1.3 4.5l-1.2 4.4c-2.1 7.8-3.5 11.8-5.7 15.2-3.5 5.5-8 8.9-11.1 9.1-3.3.2-3.7-3-.7-7.4 8.1-11.6 10.4-23.8 5.5-43.1-3-12.2-11.3-20.8-24-27.4-2.8-1.5-5.7-2.8-9.1-4.2-1.3-.5-2.6-1-4.2-1.7l-3.8-1.5c-5.6-2.2-14-.4-25.8 4.6-2.5 1-5 2.2-8.1 3.7l-9.1 4.3c-3.3 1.6-5.7 2.6-7.8 3.4-2.9 1.1-5.8 2.5-8.5 3.9-1.1.6-5.5 2.9-6.6 3.5-1.8 1-3.6 1.8-5.5 2.5-3.7 1.2-6 .6-7.1-2.4-1-2.8.5-5.9 4.1-9.6 1.9-2 4.3-4 7.8-6.6.6-.4 4.5-3.4 5.6-4.2 1.5-1.1 3-2.4 4.4-3.7 4.7-4.7 4.3-4.3 5.3-4.6.6-.1 4.7.3 6.8.3 3.7 0 4.9-.2 6.1-.9l.9-.6c.4-.3.8-.5 1.3-.7 1.6-.8 3.2-1.4 4.9-1.9 4.6-1.4 5.8-3.4 6.5-9.4.7-5.3 1-7.3 2.4-10.7 1.4-3.5 3.5-5.1 6.5-5.2 2.2-.1 3.8.2 9.1 1.8 2.1.7 4.2 1.2 6.3 1.6 1 .2 2 .2 2.9.2 14.5 0 27.8-1.3 34.1-4.2 3-1.4 7.2-2.2 15.3-3.2l6.6-.8c2.7-.3 5-.6 7.2-.9 5.7-.8 10.8-1.7 15.7-2.8 8.7-2 17-6.5 24.9-12.7 4.9-3.9 9.4-8.3 13.4-13 3.5-4.2 6.1-9 7.8-14.2 2.6-8.1 3-17 .5-26.7-.7-3.5-1.6-7.1-2.3-10.6zm79.5 0h.9c-.3.5-.6.8-.8 1.1-2.8 3.5-4.8 5.6-6.9 6.7-1.1.6-2.3 1-3.5 1-1.7 0-3 .5-4.7 1.5l-1.9 1.2c-3.1 2-5.6 2.9-9.5 2.9-3.9 0-7-.9-11.3-2.8-.5-.2-1.1-.5-1.6-.7l-1.5-.7c-1.1-.5-2-.8-2.9-1-.7-.2-1.5-.3-2.3-.3-1.6 0-3-.5-7.7-2.4l-1.1-.5c-3.5-1.4-5.7-2-7.4-1.9-2.1.1-3.1 1.4-3.1 4.3 0 14.6-3.6 35.4-8.5 40.2-5.3 5.3-18.6 16.6-23.8 20.4-9.2 6.6-21.8 14.2-30.9 17.6-3 1.1-6.2 2.1-9.3 2.8-2.3.5-4.6 1-7.9 1.6-.4.1-6.2 1.1-8 1.4-3.4.6-6.5 1.2-9.8 1.9-14.4 3.1-17.5 3.5-26.7 3.5-1.7 0-2 0-9.8-1.4-1.7-.3-3-.5-4.3-.7-5.7-.8-9.7-1-12.3-.1-3.2 1-4.2 3.3-2.6 7.4 1.4 3.7 3.4 6 6.2 7.5 2.3 1.2 4.7 1.8 9.7 2.6 6.6 1 7.7 1.2 10.8 2 4.5 1.2 8.9 2.9 13 5.2 5.8 3.2 10.2 8.1 14 14.6 1.9 3.3 6.6 13.6 7.4 14.9 2.4 4.1 4.4 4.6 7.6 1.4 3.5-3.5 7.2-5.9 14.8-9.9.3-.2 1.4-.8 1.5-.8 5.6-3 8.3-4.6 11.1-6.7 3.6-2.7 6.1-5.7 7.5-9.2 6-14.2 14.5-23.4 22.7-23.4h3.8c7.4.1 12.1 0 17.4-.2 9.6-.4 16.6-1.5 20.6-3.3 4.1-1.9 9.4-3.8 16.9-6.3 2.4-.8 4.4-1.4 8.9-2.9 5.4-1.7 7.8-2.5 10.6-3.4 2.6-.9 5.3-1.8 7.9-2.6 2.6-.8 4.2-1.4 5.6-1.9 1.6-.6 3.2-1.3 4.7-2.1 1.3-.7 2.6-1.5 4.1-2.5 2.4-1.6 4.3-2.2 8.4-2.9l.8-.1c4-.7 6.3-1.6 8.9-3.9 5.5-4.9 6-16.3 2.7-31.2-1.2-5.4-1.5-13.5-1.1-24.9.1-4.4.3-8.7.6-13.1h.7l-.1 2.1c-.2 4.5-.4 7.7-.5 11-.4 11.3-.1 19.4 1.1 24.7 3.4 15.2 2.8 26.8-2.9 31.9-2.7 2.4-5.2 3.4-9.3 4.1l-.8.1c-4 .7-5.8 1.2-8.2 2.8-1.3.9-2.7 1.7-4.2 2.5s-3.1 1.5-4.7 2.1c-1.5.6-3.1 1.1-5.6 2-2.6.9-5.3 1.7-7.9 2.6-2.9 1-5.2 1.7-10.6 3.4-4.5 1.4-6.5 2.1-8.9 2.9-7.5 2.5-12.8 4.4-16.8 6.3-4 1.9-11.2 2.9-20.8 3.3-5.3.2-10.1.3-17.5.2h-3.8c-7.8 0-16.2 9-22.1 22.9-1.5 3.6-4.1 6.7-7.8 9.5-2.8 2.2-5.6 3.8-11.2 6.7l-1.5.8c-7.5 4-11.2 6.3-14.6 9.7-3.6 3.6-6.1 2.9-8.7-1.6-.8-1.3-5.5-11.6-7.4-14.9-3.7-6.5-8-11.2-13.7-14.4-4.1-2.2-8.4-4-12.9-5.1-3.1-.8-4.2-1-10.8-2-5-.8-7.5-1.4-9.9-2.7-3-1.6-5-4-6.5-7.9-1.7-4.5-.5-7.2 3-8.3 2.8-.9 6.9-.7 12.7.1 1.3.2 2.6.4 4.3.7 7.7 1.3 8 1.4 9.7 1.4 9.1 0 12.1-.4 26.5-3.5 3.3-.7 6.4-1.3 9.8-1.9 1.9-.3 7.7-1.3 8-1.4 3.2-.6 5.6-1 7.8-1.6 3.2-.8 6.1-1.6 9.2-2.8 9-3.4 21.6-10.9 30.7-17.5 5.2-3.7 18.5-15 23.8-20.3 4.7-4.7 8.3-25.4 8.3-39.7 0-3.2 1.3-4.8 3.7-5 1.8-.1 4.1.5 7.7 1.9l1.1.4c4.6 1.8 6 2.3 7.4 2.3.8 0 1.6.1 2.4.3.9.2 1.9.6 3 1.1.8.3 1.6.7 2.3 1.1l.8.4c4.2 1.9 7.2 2.8 11 2.8s6.2-.8 9.2-2.7c.1-.1 1.5-1 1.9-1.2 1.8-1.1 3.2-1.7 5.1-1.7 1 0 2.1-.3 3.1-.9 1.9-1.1 4-3.1 6.7-6.5l.8-.4zM227.4 420H226c.3-2.1.6-4.3.9-6.8.3-2.9.5-5.8.7-8.6.1-1 .1-1.9-.2-5.1-.3-1.4-.7-2.9-1-4.6-1.4-7.9-1.9-16.1-.8-23.7.6-4.4 1.8-8.6 3.6-12.6 2.2-4.7 5.2-9 8.8-12.8 2.4-2.5 3.9-3.9 8.3-7.6 3.1-2.7 4.4-3.9 5.3-5.3.4-.8.7-1.4.7-2.1 0-1.2 0-1.2-.5-6.5-.3-2.6-.4-4.4-.5-6.3-.3-8.5 1.1-13.7 5.7-15.3 11.1-3.7 18.1-8.5 23.4-17.9 6.6-11.8 18-22.1 25.1-22.1 8.6 0 14-1.4 20.6-6.2 4.7-3.5 6.6-4.6 8.7-5.2 1.6-.4 2.7-.5 6.4-.5 1.3 0 2.5-.6 3.9-1.8.8-.7 3.6-3.6 3.9-3.9 4.2-4.1 8.4-6.2 14.6-6.2 1.7 0 3.2 0 5.1.1 5.3.2 6.2.1 7.9-.5 2.1-.8 3.9-2.1 10.3-7.8 5.6-5 7.5-6.3 16-11.6 1-.6 1.8-1.1 2.6-1.7 2.4-1.6 4.6-3.3 6.6-5.3 2.9-2.7 5.6-5.5 8.1-8.3v2.1c-2.3 2.5-4.7 4.9-7.2 7.3-2.2 2.1-4.3 3.8-6.8 5.4-.8.5-1.6 1.1-2.6 1.7-8.4 5.3-10.3 6.5-15.8 11.4-6.6 5.9-8.4 7.2-10.8 8.1-1.9.7-2.9.7-8.4.6-1.9-.1-3.4-.1-5.1-.1-5.8 0-9.6 1.9-13.6 5.8-.3.3-3.2 3.3-4 4-1.7 1.5-3.1 2.2-4.8 2.2-3.6 0-4.6.1-6 .5-1.9.5-3.7 1.7-8.3 5-6.9 5-12.5 6.4-21.4 6.4-6.4 0-17.5 10-23.9 21.4-5.5 9.8-12.8 14.7-24.2 18.6-3.7 1.2-5 6-4.7 13.9.1 1.8.2 3.6.5 6.2.5 5.3.5 5.3.5 6.6 0 1-.3 1.9-.9 2.9-.9 1.5-2.3 2.9-5.6 5.6-4.4 3.7-5.8 5-8.2 7.5-3.5 3.7-6.4 7.9-8.6 12.4-1.8 3.9-3 8-3.5 12.2-1 7.5-.6 15.5.8 23.2.3 1.7.6 3.2.9 4.5.1.5.2.9.4 2.8-.2 3.8-.4 7.5-.8 11.3-.1 2.4-.4 4.7-.7 6.7zm-9.7 0h-.7l.1-.2c2.1-5 3-8.3 3-13.1 0-2.5 0-3.5-.5-11-.5-8.4-.7-13.8-.4-19.8.4-8.1 1.7-15.5 4.1-22.5.9-2.7 2-5.3 3.2-7.8 2.4-5 4.8-8.7 7.3-11.6 1-1.1 2-2.2 3-3.2.3-.3 2.1-2 2.6-2.4 4-3.9 5.3-8.1 5.3-20.4 0-13.2 2-16.7 11.1-19.8.8-.3 1.3-.5 1.9-.7 1.5-.5 2.9-1.2 4.3-1.9 3.5-1.8 6.8-4.4 10.1-8 17.9-19.4 26-24.6 39.5-24.6 5.8 0 10.2-1.4 15.4-4.4 1.2-.7 9.7-6.2 12.7-7.9 2-1.1 4-2.1 6-3.1 5.5-2.5 9.8-3.1 18.6-3.4 5.3-.1 7.5-.3 10-1.1 3.2-1 5.6-2.8 7.7-5.9 1.5-2.4 4.8-5 10.3-8.5 1.1-.7 2.3-1.4 4-2.5 6.7-4.1 8.1-5 10.4-6.7 3.7-2.8 6.5-5.9 9.6-10.4 1.4-2 2.7-4.1 3.9-6.1v1.3c-1.4 2.2-2.4 3.8-3.4 5.2-3.1 4.5-5.9 7.7-9.7 10.5-2.3 1.7-3.7 2.6-10.4 6.7-1.3.8-2.6 1.6-3.9 2.5-5.4 3.4-8.6 6-10.1 8.2-2.1 3.2-4.7 5.2-8 6.2-2.6.8-4.8 1-10.2 1.1-8.8.2-12.9.8-18.3 3.3-2 .9-4 1.9-6 3-3 1.7-11.4 7.2-12.7 7.9-5.3 3.1-9.8 4.5-15.8 4.5-13.2 0-21.2 5.2-39 24.4-3.4 3.7-6.8 6.3-10.3 8.1-1.4.7-2.8 1.3-4.4 1.9-.6.2-1.2.4-3.8 1.3-3.6 1.2-5.2 2.3-6.5 4.5-1.6 2.6-2.3 7-2.3 14.1 0 12.5-1.3 16.9-5.5 20.9-.5.5-2.3 2.1-2.6 2.4-1.1 1-2.1 2-3 3.1-2.5 2.9-4.8 6.5-7.2 11.5-1.2 2.5-2.3 5.1-3.2 7.7-2.4 7-3.6 14.4-4 22.4-.3 6-.2 11.3.4 19.7.5 7.5.5 8.5.5 11 0 4.7-.7 7.9-3.1 13.6zm17.4 0h-.7c0-3.3 0-6.6.2-10.5.2-4.5-.3-8.2-1.8-17l-.2-1.3c-1.5-8.8-1.9-13.5-1.4-18.5.7-6.5 3.3-11.7 8.4-15.9 15.4-12.7 20.9-21.1 20.9-31.2 0-1.8-.2-3.4-.7-5.7-.7-3.4-.8-4-.7-5.3.1-1.8.9-3.3 2.5-4.7 1.9-1.6 4.9-3.2 9.6-4.9 6.8-2.4 10.9-6.4 17-15.1l1.2-1.7c3.1-4.4 5-6.7 7.3-8.9 3-2.8 6.3-4.7 10.2-5.7 9.3-2.3 14.3-3.8 17.8-5.3 1.3-.6 2.5-1.2 3.7-1.9.8-.5 1.2-.7 3-1.8 1.9-1.2 3.7-1.5 8-1.6 3.8-.1 5.5-.3 7.7-1 2.6-.8 4.9-2.3 6.7-4.4 3.4-3.7 7-5.3 12.5-6.2.8-.1 1.3-.2 2.7-.4 4.8-.7 7-1.2 9.4-2.5 3.2-1.7 4.8-3.1 16.4-13.8l2.2-2c6.8-6.1 11.3-9.7 15-11.5 3-1.5 5.3-3.3 7.9-6v1c-2.4 2.5-4.7 4.2-7.6 5.6-3.6 1.8-8.1 5.4-14.9 11.4l-2.2 2c-11.8 10.7-13.4 12.1-16.6 13.9-2.6 1.4-4.8 1.9-9.7 2.6-1.4.2-1.9.3-2.7.4-5.3.9-8.8 2.4-12.1 6-1.9 2.1-4.3 3.7-7 4.5-2.2.7-4 .9-7.9 1-4.2.1-5.9.4-7.6 1.5l-3 1.8c-1.2.7-2.5 1.4-3.8 1.9-3.5 1.5-8.5 3.1-17.9 5.4-6.8 1.7-10.7 5.4-17.1 14.4l-1.2 1.7c-6.2 8.8-10.4 12.8-17.4 15.3-4.6 1.7-7.6 3.2-9.4 4.8-1.5 1.3-2.1 2.6-2.3 4.2-.1 1.2 0 1.8.7 5.1.5 2.4.7 4 .7 5.9 0 10.3-5.6 18.9-21.2 31.8-4.9 4.1-7.5 9.1-8.2 15.4-.5 4.9-.1 9.6 1.4 18.3l.2 1.3c1.5 8.8 2 12.6 1.8 17.2.2 3.8.2 7.1.2 10.4zm-167.7 0H66c.5-2.7.8-6.2 1.1-11.2.1-2.2.2-2.8.3-3.9.9-12.3 2.8-19 8-23.2 3.3-2.6 5-6.2 6.1-11.2.4-1.8.5-2.7.9-6.4.5-3.9.8-5.6 1.6-7.3 1-2.2 2.7-3.3 5.2-3.3 10 0 26.9 6.4 37.5 14.1 6.1 4.4 14.9 9.3 22.2 12 9.1 3.3 15.3 3.1 17.3-1.2 1.2-2.5 1.3-2.9 1.9-4 2-4.7 3.3-8.5 3.7-12.3.2-1.5.2-3 0-4.3-.2-1.9-1-3.2-2.9-5.1l-.9-1c-.6-.6-1.2-1.3-1.7-2-.7-.9-1.2-1.9-1.7-2.8l-.8-1.5c-1.1-2.2-1.9-3.2-2.9-3.9-3.7-2.5-10.4-3.9-20-4.8-2.1-.2-4.2-.4-6.3-.5l-1.5-.1c-6.7-.5-10.6-1.1-13.3-2.2-9.8-4.1-24.2-18.5-24.2-25.8 0-3.7 1.2-6.7 3.8-9.9 1.4-1.7 7.8-8.2 8.9-9.5 3.2-3.5 7.1-6.7 12.4-10.3 2-1.3 10.3-6.7 12.2-8 1.6-1.1 3.1-2.4 4.4-3.8 1.1-1.1 4.9-5 5-5.1 5-5.1 8.9-8.1 13.8-10.1 2.4-.9 5.7-2 12.2-3.8 2.7-.8 5.5-1.5 8.2-2.3 3-.8 5.9-1.7 8.9-2.6 14.3-4.4 23.8-8.5 28.5-12.9 6.1-5.7 8.2-9.7 11-18.2 1.4-4.4 2.2-6.3 3.5-8.9 6.7-12.4 20.1-27.6 30.4-31.8 9.9-4.1 13.6-8.2 13.6-12.7 0-2 1.9-5.9 4.8-9.6 3.3-4.3 7.4-8 11.7-9.9 8.7-4 23.4-7.1 33.2-7.1 3.7 0 6.9-1.1 11.5-3.4 6.4-3.3 7.1-3.6 9.5-3.6 7.3 0 22.4-1.8 32-4.2l2.7-.7 2.4-.6c1.8-.5 3-.8 4.1-1 2.7-.6 4.7-.9 6.7-.8 1.9 0 3.8.4 6.1 1 3.2 1 9.6-.6 16-4 2.4-1.2 4.7-2.7 6.9-4.3v1.7c-7.8 5.7-18 9.6-23.3 8-1.8-.6-3.8-.9-5.7-1-1.8 0-3.7.2-6.4.8-2.2.5-4.4 1-6.5 1.6l-2.7.7c-9.7 2.4-24.9 4.2-32.3 4.2-2.1 0-2.7.3-8.9 3.4-4.8 2.5-8.1 3.6-12.1 3.6-9.5 0-24 3-32.6 6.9-4 1.9-8 5.3-11.2 9.5-2.7 3.5-4.5 7.1-4.5 8.8 0 5.1-4.1 9.7-14.4 13.9-10 4.1-23.2 19-29.7 31.2-1.3 2.5-2.1 4.4-3.4 8.7-2.8 8.7-5.1 12.9-11.4 18.8-5 4.6-14.6 8.8-29.1 13.2-3 .9-5.9 1.8-8.9 2.6-2.7.8-5.5 1.5-8.3 2.3-6.5 1.8-9.8 2.8-12.1 3.7-4.7 1.9-8.4 4.8-13.3 9.7-.1.1-3.9 4.1-5 5.1-1.4 1.4-3 2.8-4.6 4-1.9 1.3-10.3 6.7-12.2 8.1-5.2 3.5-9.1 6.7-12.1 10-1.2 1.3-7.6 7.8-8.9 9.4-2.4 3-3.5 5.6-3.5 9 0 6.7 14 20.7 23.3 24.6 2.6 1.1 6.4 1.6 12.9 2.1 1 .1 2 .2 3 .2 2.3.2 3.5.3 4.8.4 9.8 1 16.7 2.4 20.6 5 1.3.8 2.1 2 3.4 4.4l.8 1.5c.5.9 1 1.8 1.6 2.7.4.6.9 1.1 1.6 1.8.2.2.8.8.9 1 2 2.2 3 3.7 3.2 6 .2 1.5.2 3 0 4.6-.4 3.9-1.7 7.9-3.8 12.7-.5 1.2-.7 1.5-1.9 4.1-2.4 5.2-9.3 5.5-19.1 1.9-7.5-2.7-16.4-7.6-22.6-12.2-10.3-7.6-27-13.9-36.7-13.9-3.5 0-4.5 2.1-5.3 9.3-.2 2.2-.5 4.4-1 6.5-1.1 5.3-3 9.1-6.6 12-4.8 3.9-6.6 10.3-7.5 22.3-.1 1.1-.1 1.7-.3 3.9 0 5-.3 8.5-.8 11.2zm5.3 0H72c.2-1 .4-2.1.6-3.2l.7-3.9c1.8-9.3 2.9-13.9 4.7-16.8 1.2-2 2.6-3.8 5.6-7.7 5.7-7.2 7.6-10.2 7.6-13.1v-1.2-2.6c.1-3.5 1-5.7 3.2-6.6 2.7-1 7.3.3 14.1 4.5 6.7 4.1 12.3 7.5 18.1 10.9.9.5 10 5.9 12.4 7.3l4.5 2.7c9.7 5.9 27.3 3.5 32.4-5.5 2.5-4.4 3.2-6 5.4-12.1.3-.7.5-1.4.8-2.1.8-1.9 1.7-3.7 2.8-5.3 6.5-9.8 10.4-18.2 10.4-25.7 0-2.6.5-4.6 2.4-10.4.4-1.1.6-1.9.8-2.6 2.5-8.6 2.1-13.4-3-16.8a16.1 16.1 0 00-7-2.6c-5-.7-10.1.8-16.7 4.1-1.1.5-4.6 2.4-5.3 2.7-1 .5-2 1-2.9 1.6l-3.1 1.9c-8.1 4.8-14.3 6.4-23 4.3-2.3-.6-4.4-1-9.2-1.8-9.3-1.7-13.1-2.6-16.3-4.5-4.4-2.6-5.2-6.3-2-11.6 2.8-4.7 6.2-9 10.1-12.8 1.9-1.9 3.8-3.6 5.8-5.4 0 0 4.3-3.7 5.5-4.7 1.6-1.4 3.1-2.9 4.6-4.4 5.4-5.9 8.9-9.3 14.1-13 7-5 15-8.6 24.6-10.9 25.9-6 35.7-8.9 41.2-12.5 6-4 14.9-17.3 25.8-38.3 3.7-7.1 8.6-12.9 14.8-18 3.6-3 6.7-5.1 12.3-8.6 5.2-3.2 6.7-4.3 8-5.7.8-1 1.5-2.2 2.1-3.4.4-.9 2-4.5 2.1-4.7 1-2.1 1.8-3.8 2.8-5.4 4.6-7.7 11.2-12.6 22-14.5 8.9-1.6 13.9-1.9 20.8-1.6 2.3.1 2.9.1 3.9.1 3.6 0 6.8-.7 11.6-2.7 14.5-5.8 27.1-8.4 41.4-8.4 2.1 0 4.2.1 7.3.3l1.5.1c8.7.7 12.7.7 17.7-.4 3.5-.8 6.8-2 9.9-3.8v.8c-3 1.7-6.3 2.9-9.7 3.7-5.2 1.1-9.2 1.1-17.9.5l-1.5-.1c-3.1-.2-5.2-.3-7.3-.3-14.2 0-26.7 2.6-41.2 8.4-4.9 2-8.2 2.7-11.9 2.7-1.1 0-1.7 0-4-.1-6.8-.3-11.8 0-20.6 1.6-10.5 1.9-17 6.7-21.5 14.2-1 1.7-1.9 3.5-2.7 5.3-.1.2-1.7 3.8-2.1 4.7-.6 1.3-1.3 2.5-2.2 3.6-1.3 1.5-2.8 2.6-8.1 5.8-5.6 3.5-8.6 5.6-12.2 8.5-6.1 5.1-11 10.8-14.6 17.8-10.9 21.1-19.9 34.5-26 38.6-5.6 3.7-15.4 6.6-41.4 12.6-9.6 2.2-17.5 5.9-24.4 10.8-5.1 3.6-8.6 7-13.9 12.9-1.5 1.6-3 3.1-4.6 4.5-1.2 1-5.5 4.8-5.5 4.7-2.3 2-4.1 3.6-5.8 5.3-3.8 3.8-7.2 8-10 12.7-3 5-2.3 8.3 1.8 10.7 3.1 1.8 6.9 2.8 16.3 4.5 3 .5 6.1 1.1 9 1.8 8.5 2.1 14.4.6 22.4-4.2l3.1-1.9c1.2-.7 2.1-1.2 2.9-1.6.7-.3 4.2-2.2 5.3-2.7 6.7-3.4 11.9-4.9 17.1-4.2 2.6.3 5.1 1.3 7.3 2.7 5.5 3.6 5.9 8.8 3.3 17.6-.2.7-.4 1.5-.8 2.6-1.8 5.7-2.3 7.7-2.3 10.2 0 7.6-4 16.2-10.6 26.1-1.1 1.6-2 3.4-2.8 5.2-.3.6-.5 1.3-.8 2.1-2.3 6.2-2.9 7.8-5.5 12.2-5.4 9.4-23.4 11.9-33.4 5.7l-4.5-2.7c-2.4-1.4-11.5-6.8-12.4-7.3-5.9-3.5-11.5-6.8-18.1-10.9-6.7-4.1-11-5.4-13.5-4.4-1.9.7-2.7 2.7-2.8 5.9v3.8c0 3.1-1.9 6.1-8.1 13.9-2.7 3.5-4.1 5.3-5.3 7.3-1.7 2.8-2.9 7.4-4.6 16.6l-.7 3.9-.4 2.7zm7 0H79v-.7c0-8.7 5.9-23.5 13.4-30.3 1-.9 1.8-1.9 2.6-2.9.8-1.1 1.4-2.2 2-3.4.3-.5 1.2-2.6 1.5-3 2.3-4.4 4.8-4.6 11.9.3.9.6 4.3 2.9 4.5 3.1 1.8 1.3 3.3 2.2 4.7 3.2 3.5 2.4 6.6 4.3 9.5 6.1 10 6.1 17.9 9.3 23.9 9.3 11.8 0 22.9-4.2 27.8-10.3 1.1-1.4 2.2-3.6 3.5-6.7.6-1.3 1.1-2.8 1.9-4.8l1.9-5.1c3.3-8.7 5.4-13.3 8.1-16.3 5.5-6.1 10.4-25.2 10.4-36.8 0-1.3.1-2.2.7-5.8.3-1.5.4-2.5.5-3.5.4-3.9.1-6.6-1.2-8.7-3.2-5-13.8-6.5-27-3.3-4.6 1-9 2.5-13.3 4.4-3.6 1.7-12 6.8-11.6 6.6-4.7 2.5-9.1 2.9-17.4.9-20.7-5-21.3-6-10.7-18.7 12.2-14.6 33-32.3 39.5-32.3 7 0 37.7-8.4 46.1-12.5 6.6-3.3 17-14.8 25.8-26.5.5-.7 9.5-15.1 13.5-20.7 6.6-9.2 12.8-15.8 18.9-19.2 5.1-2.9 9.2-7.2 13.2-13.1 1.4-2 7.4-12.3 8.9-14.3 1.1-1.3 2.1-2.2 3.2-2.7 9.9-4.4 17-6.3 27.5-6.3h20.3c2.8 0 5.2-.3 16.1-1.7l3-.4c7-.9 11.6-1.3 15.3-1.3h4.2c13 .1 20-.3 31.4-2.8 2.2-.5 4.3-1.2 6.4-2.3v.8c-2 1-4.1 1.7-6.2 2.2-11.5 2.5-18.5 3-31.6 2.8h-4.2c-3.6 0-8.2.4-15.2 1.3l-3 .4c-11 1.5-13.3 1.7-16.2 1.7h-20.3c-10.4 0-17.4 1.9-27.2 6.3-.9.4-1.9 1.2-2.9 2.5-1.5 1.9-7.5 12.2-8.9 14.2-4 6-8.2 10.3-13.4 13.3-6 3.4-12.2 9.9-18.7 19-4 5.6-12.9 20-13.5 20.7-8.8 11.7-19.3 23.3-26.1 26.7-8.5 4.2-39.3 12.6-46.4 12.6-6.2 0-26.9 17.6-39 32-10.2 12.2-9.9 12.7 10.3 17.6 8.1 2 12.3 1.6 16.9-.8-.5.2 7.9-4.9 11.6-6.6 3.8-1.7 8.1-3.2 13.4-4.5 13.4-3.2 24.3-1.6 27.7 3.6 1.4 2.2 1.7 5.1 1.3 9.1-.1 1.2-.3 2.4-.5 3.6-.6 3.6-.7 4.4-.7 5.7 0 11.8-4.9 31-10.6 37.3-2.6 2.9-4.7 7.4-8 16.1-.2.7-1.5 4.2-1.9 5.1-.7 1.9-1.3 3.4-1.9 4.8-1.3 3.2-2.5 5.4-3.6 6.9-5 6.4-16.3 10.6-28.3 10.6-6.2 0-14.1-3.3-24.3-9.4-2.9-1.8-6-3.7-9.5-6.1-1.6-1.1-3.1-2.1-4.7-3.2l-4.5-3.1c-6.8-4.6-8.8-4.5-10.9-.5-.2.5-1.2 2.5-1.5 3-.6 1.2-1.3 2.4-2.1 3.5s-1.7 2.1-2.7 3c-7.3 6.7-13.2 21.3-13.2 29.8l.3.5zm-19.9 0H59c.8-1.8 1.3-3.6 1.3-5.6 0-14 3.4-29.4 8.5-34.5 3.6-3.6 5.4-5.9 6.9-8.9 1.8-3.8 2.8-8.4 2.8-14.6 0-4.8.8-8.1 2.4-10.5 1.2-1.9 2.5-2.9 6.2-5.3 1-.6 1.9-1.2 2.7-2 3.2-2.8 4.6-4.3 5.4-6.6 1-2.8.7-6.3-1.3-11.2-.8-1.9-1.7-3.8-2.8-5.6l-.7-1.2c-.7-1.1-1.3-2.3-1.8-3.5C85 303 86 297.3 94 289.7c5.8-5.5 12.1-10.6 18.7-15.1 2.8-1.9 11.7-7.6 13.5-8.7 1.4-1 3-2.3 5.4-4.4 0 0 5.1-4.5 6.6-5.8 3.5-3 6.4-5.2 9.1-7.1 3.3-2.2 6.3-3.7 9-4.4 8.9-2.4 10.9-2.9 15.2-4.2 8.8-2.5 15.4-4.8 19.7-7 1.7-.8 3.4-1.5 5.2-2 6.1-1.9 8.4-2.9 11.9-5.7 4.7-3.8 9.1-10 13.5-19.5 11.2-24.3 13.3-27.6 22.5-34.4 2.2-1.7 4.5-2.9 8-4.5l1.6-.7c8.3-3.7 11.8-6.2 14.8-12.2 1.3-2.6 1.7-4.4 2.4-8.6.5-3.6 1-5.3 2.5-7.2 1.8-2.4 4.9-4.4 10-6.3 2.4-.9 5.1-1.7 8.4-2.6 11.4-3 17.7-3.7 27.7-4.1 4.8-.2 6.6-.4 8.9-1.4.8-.4 1.7-.9 2.5-1.5 2.6-1.9 5.7-3.2 9.3-4 4-.9 7.5-1.1 13.1-1h1.6c2 0 4.8-.7 13.8-3.3 7.6-2.2 11.2-3 13.5-3 .6 0 1.3.1 2.5.3l3.5.6c6.9 1.2 12.2 1.3 17.6-.1 5.6-1.5 10.3-4.7 14.2-10v1.1c-3.8 4.9-8.5 8-14 9.5s-10.9 1.4-17.9.2l-3.5-.6c-1.1-.2-1.8-.3-2.4-.3-2.2 0-5.8.9-13.8 3.1-8.6 2.5-11.4 3.2-13.5 3.2h-1.7c-5.6-.1-9 .1-12.9 1-3.5.8-6.5 2-9 3.8-.8.6-1.7 1.1-2.6 1.6-2.3 1-4.2 1.3-9.1 1.5-10 .3-16.2 1-27.5 4-2.8.7-5.6 1.6-8.4 2.6-5 1.9-8 3.8-9.7 6.1-1.3 1.8-1.8 3.3-2.3 6.9-.6 4.3-1.1 6.1-2.4 8.8-1.6 3.2-3.9 5.9-6.8 8-2.2 1.6-4.2 2.6-8.3 4.5l-1.6.7c-3.5 1.6-5.7 2.8-7.9 4.4-9 6.8-11.1 9.9-22.3 34.1-4.4 9.6-8.9 15.9-13.7 19.8-3.6 2.9-6 3.9-12.1 5.8-1.8.5-3.5 1.1-5.1 1.9-4.4 2.2-11 4.5-19.8 7-5.1 1.5-10.1 2.9-15.2 4.2-2.6.7-5.5 2.2-8.8 4.3-3.2 2.2-6.2 4.5-9.1 7-1.6 1.3-6.6 5.8-6.6 5.8-1.7 1.6-3.6 3.1-5.5 4.5-1.7 1.2-10.7 6.9-13.5 8.7-6.6 4.5-12.9 9.5-18.7 15-7.8 7.4-8.7 12.8-5.2 20 .6 1.2 1.2 2.3 1.8 3.5l.7 1.2c1.1 1.8 2 3.8 2.8 5.7 2 5 2.4 8.7 1.3 11.7-.9 2.4-2.3 4-5.6 6.9-.8.7-1.6 1.3-3.7 2.6-2.7 1.7-4 2.7-5.1 4.5-1.5 2.3-2.3 5.5-2.3 10.2 0 6.3-.9 11-2.8 14.9-1.5 3.1-3.4 5.4-7.1 9.1-4.9 4.9-8.3 20.2-8.3 34 0 2.1-.5 3.9-1.2 5.7zm197 0h-.7l-.8-4.1c-2.2-11.4-2.8-18.3-1.9-26.1.5-4.1.5-6.8.4-10.7-.1-3.1-.1-4 .1-5.3.5-3 2.4-6 7.3-11.4 6.4-7.1 8.6-10.8 13.9-21.1.9-1.8 1.6-3.1 2.4-4.4.6-1.1 1.3-2.1 1.9-3.2 2.2-3.3 4.9-5.9 11.8-11.8 7.9-6.7 10.9-9.7 12.7-13.4.5-1 .9-2 1.4-3.1.4-.9.7-1.9 1-2.8 2.5-7 5.6-9.8 16.1-12.5 3.5-.9 14.4-3.6 15-3.7 11.4-2.9 17.8-5.2 23.5-8.8 4.1-2.6 4.1-2.6 19.4-11.6l1.8-1.1c7.2-4.2 12-7.1 15.9-9.8 2.1-1.4 4.2-2.9 6.2-4.4l4.5-3.6c3.5-2.8 7.3-5.2 11.3-7.2v.8c-3.9 1.9-7.5 4.2-10.9 6.9.1-.1-3.3 2.7-4.5 3.6-2 1.6-4.1 3-6.2 4.4-4 2.6-8.8 5.6-16 9.8l-1.8 1.1c-15.3 8.9-15.3 8.9-19.4 11.6-5.8 3.7-12.3 6-23.7 8.9-.6.1-11.5 2.8-15 3.7-5.6 1.5-9.2 3.2-11.5 5.3-1.9 1.7-2.8 3.4-4 6.8l-1.1 2.9c-.4 1.1-.9 2.1-1.4 3.1-1.9 3.8-4.9 6.8-12.9 13.6-6.8 5.8-9.5 8.4-11.7 11.6-.7 1-1.3 2.1-1.9 3.1-.7 1.3-1.4 2.5-2.3 4.4-5.3 10.4-7.6 14.1-14 21.3-4.8 5.4-6.6 8.2-7.1 11.1-.2 1.3-.2 2.1-.1 5.2.2 4 .1 6.7-.4 10.8-.9 7.6-.2 14.6 1.9 25.9l.8 4.2zm-53.9 0h-1.5l1-3c.7-2.3 1.3-4.7 1.9-7.2 1.9-8.8 2.3-16.4 2.3-28.7 0-4-1.3-6.8-2.9-6.8-2.1 0-4.9 3.9-7.6 11.8-6.8 19.7-15.8 28.9-30 28.9-15.7 0-20.4-.9-33.8-7-2.3-1-4.5-2.2-6.6-3.5-2.1-1.2-8.9-5.9-10.4-6.7-2.9-1.6-4.9-1.9-6.8-.7-.4.3-.9.6-1.3 1.1l-3 2.7c-.7.6-1.4 1.1-2.1 1.7l-.7.6c-5.8 4.6-7.9 7.9-7.9 14.7v2.1H92v-2.1c0-7.3 2.3-10.9 8.4-15.8.5-.4.9-.7 1.4-1.1.6-.4 1-.8 1.4-1.1 1-.8 2-1.7 2.9-2.6.5-.5 1-.9 1.6-1.3 2.4-1.5 4.9-1.2 8.2.6 1.5.8 8.4 5.5 10.4 6.8 2.1 1.3 4.2 2.4 6.4 3.4 13.2 6 17.8 6.9 33.2 6.9 13.4 0 22-8.8 28.7-28 3-8.5 6-12.8 8.9-12.8 2.7 0 4.3 3.5 4.3 8.2 0 12.3-.4 20-2.3 28.9-.5 2.6-1.2 5-1.9 7.4-.1.9-.4 1.8-.7 2.6zM99 420l.3-.6c1.7-2.9 3.2-6 4.5-9 1.9-4.3 4-6.6 6.4-7.2 2.6-.6 5 .5 8.7 3.5 3.8 3 4.2 3.3 5.4 3.5 1.1.1 3 .8 6.1 2 .9.3 7.5 3 9.6 3.8 2.1.8 4.1 1.5 5.9 2.2 2.2.7 4.1 1.4 6 1.9h-2.4c-1.2-.4-2.5-.8-3.8-1.3-2-.7-3.9-1.4-5.9-2.2-2.1-.8-8.7-3.4-9.6-3.8-3.1-1.2-5-1.8-6-2-1.3-.2-1.8-.5-5.7-3.6-3.6-2.9-5.8-3.9-8.1-3.4-2.2.5-4.1 2.7-5.9 6.8-1.4 3.2-3 6.3-4.7 9.4H99zm79 0c2.9-.9 5.7-2.4 8-4.4 1.1-1 2.3-2.4 3.8-4.4.7-1 1.5-2.2 2.4-3.6.6-.9 1.2-1.8 1.8-2.8l.3-.5.7-1c.7-1.2 1.5-2.3 2.3-3.4.7-1 1.3-1.6 1.7-1.7.7-.3 1.1.3 1.1 1.4v1.5c0 4.9-.1 8-.5 11.5-.3 2.5-.8 5-1.7 7.5h-.8c.9-2.4 1.5-5 1.7-7.5.4-3.5.5-6.6.5-11.5v-1.5c0-.7-.1-.8-.1-.8-.3.1-.7.6-1.4 1.5-.8 1.1-1.6 2.2-2.3 3.4l-.7 1-.3.5c-.6.9-1.2 1.8-1.8 2.8-.9 1.4-1.7 2.5-2.4 3.6-1.5 2-2.7 3.6-3.9 4.6-1.9 1.7-4 3-6.3 3.9H178zm-128.1 0h-1c2.3-2.4 3.6-5.8 3.6-10.5 0-13 0-12.1.7-14.5.4-1.4 1-2.6 2.3-4.6.3-.5 3.4-5.5 4.7-7.6 2.1-3.5 7.7-11.5 8.5-13 2.4-4.3 3.3-8.4 3.3-16.9 0-5.5 1.7-9.9 5.6-16.4l2-3.2c.6-1 1.2-2 1.7-3.1 1.1-2.2 1.7-4 1.8-5.8.1-2.6-.9-5.1-3.4-7.6-3.6-3.6-6-3.8-7.8-1.3-1.5 2-2.4 5.4-3.5 11.5-.1.7-.6 3.2-.6 3.2-.6 3.3-1 5.1-1.5 6.7-.9 3.1-2.6 5.3-5.8 8.6l-2.3 2.2c-4.4 4.5-6.7 8.1-7.9 13.6l-.8 3.9c-.6 2.9-1.1 4.9-1.6 7-2.6 9.6-6.7 18.2-15.7 31.3-5.4 7.8-7.7 13.2-7.6 16.6H24c-.1-3.6 2.3-9.1 7.7-17 9-13.1 13.1-21.6 15.6-31.1.5-2 1-4.1 1.6-6.9l.8-3.9c1.2-5.8 3.6-9.4 8.1-14 .4-.4 2-2 2.3-2.2 3.2-3.2 4.8-5.3 5.7-8.3.6-2.2 1.1-4.4 1.4-6.6l.6-3.2c1.1-6.2 2.1-9.7 3.7-11.8 2.1-2.9 5-2.6 8.9 1.2 2.6 2.7 3.8 5.3 3.6 8.2-.1 1.9-.7 3.8-1.9 6.1-.5 1.1-1.1 2.1-1.8 3.1l-2 3.2c-3.8 6.4-5.5 10.7-5.5 16 0 8.6-.9 12.9-3.4 17.3-.8 1.5-6.4 9.6-8.5 13-1.3 2.1-4.4 7.1-4.7 7.6-1.2 2-1.8 3.2-2.2 4.5-.7 2.3-.7 1.5-.7 14.3 0 4.5-1.2 7.9-3.4 10.4zM217.3 0h.7c-.3.6-.5 1.3-.8 2-2.7 6.4-3.8 10.6-3.8 17.7 0 5.4-1.5 8.1-4.7 9.2-2.4.8-4 .7-12.3-.3-8.1-1-13.4-1.1-19.7-.1-4.4 1.7-18.2 4.9-22.5 4.9-7.8 0-25.8-2-37.9-4.9-4-1-8.3-.4-11.9 1.7-2.8 1.6-5 3.5-9.7 8.4-4.4 4.5-6.7 6.5-9.7 8.1-5 2.7-7.9 5.4-9.4 8.6C74.3 58 74 60.8 74 66c0 3.1-1.9 4.7-6.6 6.8.1 0-2.1.9-2.7 1.2-6.2 2.8-8.9 5.8-8.9 11.6 0 8.8-3.4 13.5-12.1 19.6l-3.2 2.2c-1.3.9-2.3 1.6-3.3 2.3-.6.5-1.3.9-1.8 1.4-5 3.9-7.7 10.2-10.9 23.3-.4 1.8-2.3 9.8-2.9 12-1.1 4.6-2.3 9.1-3.6 13.6-1 3.2-3.2 10.6-3.5 11.6-.7 2.4-1.1 3.5-1.7 4.4-.6 1-4.8 6.4-8.9 12.8L0 195v-1.3l3.2-5.2c2.8-4.4 5.7-8.6 8.8-12.8-.2.4.9-2 1.7-4.3.3-1 2.5-8.4 3.5-11.6 1.3-4.2 2.4-8.5 3.6-13.5.5-2.2 2.4-10.2 2.8-12 3.2-13.3 6-19.7 11.2-23.7.6-.5 1.2-.9 1.9-1.4 1-.7 2-1.4 3.3-2.3l3.2-2.2c8.6-6 11.9-10.5 11.9-19 0-6.1 2.9-9.3 9.3-12.2.6-.3 2.8-1.2 2.7-1.2 4.5-2 6.2-3.5 6.2-6.2 0-5.3.4-8.2 1.7-11 1.6-3.4 4.6-6.2 9.7-8.9 2.9-1.6 5.1-3.5 9.9-8.4 4.4-4.5 6.6-6.4 9.5-8.1 3.7-2.2 8.2-2.9 12.4-1.8 12.1 2.9 30 4.9 37.7 4.9 4.3 0 18-3.2 22.4-4.9 6.4-1 11.8-.9 20 .1 8.1 1 9.7 1.1 12 .3 2.8-.9 4.2-3.4 4.2-8.5-.2-7.2.9-11.6 4.5-19.8zm17.1 0h.7c0 3.9.2 8 .5 13.6.3 6.8.4 10.2.4 15.1 0 6.9-3.3 12.2-9.2 16.2-4.6 3.1-10.4 5.2-17 6.5-2.6.4-6.6.4-15.9.2-4.7-.1-6.5-.2-8.7-.2-1.9 0-3.5.3-5.3 1-.6.2-3.2 1.2-3.9 1.5-4.6 1.6-9.5 2.5-17.3 2.5-5.7 0-9.5-1-15.7-3.4l-2.2-.9c-8.8-3.4-14.9-3.6-26 .8-7.8 3.1-12.7 6.4-15.6 10.4-2.2 3-3 5.5-4.2 11.1-.9 4.3-1.3 6.1-2.4 8.5-1.2 2.5-2.8 4.1-4.9 5.1-1.6.7-3 1.1-6.5 1.5-6.3.9-8.9 2.2-10.9 6.7-2.6 5.9-5.4 9.7-9.9 13.8-1.7 1.5-9.2 7.7-11.1 9.4-5.7 5-9.7 12.2-13.1 22.4-.8 2.5-1.6 5-2.3 7.5 0 0-1.6 5.6-2 7.1-5.9 20.2-12.5 37.1-18.3 42.9-2 2-3.5 4-7.3 9.1-2.4 3.1-4.4 5.6-6.3 7.6v-1.1c1.9-2.1 4-4.8 6.6-8.4 2.8-3.9 4.4-5.9 6.4-7.9 5.6-5.7 12.2-22.5 18.1-42.6.4-1.5 2-7 2-7.1.8-3 1.5-5.3 2.3-7.5 3.4-10.3 7.4-17.6 13.3-22.7 1.9-1.7 9.4-7.9 11.1-9.4 4.5-4.1 7.2-7.8 9.8-13.6 1.2-2.7 2.8-4.4 5-5.5 1.7-.8 3.2-1.2 6.7-1.7 3.2-.4 4.5-.7 6.1-1.4 2-.9 3.5-2.4 4.6-4.7 1.1-2.3 1.6-4.1 2.4-8.3 1.1-5.7 2-8.3 4.3-11.3 3-4.1 8-7.5 15.9-10.6 11.3-4.5 17.6-4.3 26.5-.8l2.2.9c6.1 2.4 9.9 3.4 15.4 3.4 7.8 0 12.6-.8 17.1-2.4.7-.3 3.3-1.3 3.9-1.5 1.8-.7 3.7-1 5.6-1 2.1 0 4 0 9.8.2 8.1.2 12 .2 14.6-.2 6.5-1.3 12.3-3.4 16.7-6.4 5.7-3.9 8.9-9 8.9-15.6 0-4.9-.1-8.3-.5-15.9-.2-5.2-.4-9.1-.4-12.9zM65.6 0H67c-.5 2.8-1.1 4.8-2.1 6.6-1.6 3.1-2 4-3.7 9.1-.4 1.2-.8 2.4-1.4 3.5-1.6 3.3-4.1 6.2-9.1 10-5.6 4.3-10 11.6-14 22.1-1.7 4.4-6.1 18-6.7 19.7-1.9 5-4.6 8.9-10.9 16.6L17.2 90c-4.2 5.2-6.5 8.5-8.2 12-1.6 3.5-5 6.9-9 9.9v-1.7c3.6-2.8 6.4-5.8 7.8-8.8 1.7-3.7 4.1-7.1 8.4-12.3l1.9-2.3c6.2-7.6 8.9-11.4 10.7-16.2.6-1.6 5.1-15.3 6.7-19.7 4.1-10.7 8.6-18.2 14.4-22.7 4.8-3.7 7.3-6.5 8.7-9.5.5-.9.8-1.9 1.3-3.4 1.7-5.2 2.1-6.2 3.8-9.4.9-1.8 1.6-3.8 1.9-5.9zm6.7 0h.7c-1.2 5.8-2 8.8-3.2 10.6-1.1 1.8-2.1 3.7-2.9 5.7-.9 2.1-1.7 4.3-2.5 6.6-.3.8-.5 1.5-1.7 3.8-3.1 3-6.1 6.1-9 9.3-2.4 2.8-4.2 5.1-5 6.7-.7 1.3-1.4 4.2-2.5 9-.4 2-2.6 12-3.2 14.7-2.5 11.5-4.7 18.6-7 22.3-5.4 8.7-7.5 11-26 28.7-3 2.9-6.4 5.5-10.1 7.6v-.8c3.5-2 6.7-4.5 9.6-7.3 18.6-17.6 20.7-19.9 26-28.5 2.2-3.6 4.3-10.7 6.9-22.1.6-2.7 2.7-12.7 3.2-14.7 1.1-4.9 1.9-7.8 2.6-9.2.9-1.7 2.6-4.1 5.1-6.9.6-.7 1.3-1.5 2-2.2 1.7-1.8 3.5-3.6 5.3-5.4l2.4-2.4c.9-3.2 2.1-6.3 3.4-9.4.8-2 1.8-4 2.9-5.8 1-1.7 1.8-4.7 3-10.3zM58.2 0h.8c-1.5 3.3-4.2 6.3-7.9 8.6-5 3.2-11.5 5-17 5-6.2 0-8.2 4.9-8.2 15.1 0 1.2 0 2.2.1 4.2.1 2.3.1 3.1.1 4.2 0 4-.5 7.9-1.4 11.6-.4 1.7-.9 3.3-1.5 4.9-1.6 3.7-3.2 7.4-4.9 11.1C13.8 75 9.2 85.2 4.5 95.4c-1.2 2.7-2.7 5.2-4.5 7.6v-1.2c1.5-2.1 2.8-4.3 3.9-6.7 5.9-13 11.8-26 17.5-39.1.4-.8.7-1.6 1.7-4.1 1.5-4.8 2.3-9.8 2.3-14.8 0-1.1 0-1.9-.1-4.2-.1-2-.1-3-.1-4.2 0-4.8.4-8.1 1.4-10.7 1.3-3.3 3.7-5 7.4-5 5.4 0 11.7-1.8 16.6-4.9 3.6-2.3 6.2-5 7.6-8.1zM256 0h.7c1.3 7 1.5 8.9 1.6 12.8.8 6.5.9 13 .3 19.5-.7 6.1-2.2 11.2-4.6 14.8-7.9 11.6-27.8 20.5-46.4 20.5-3.6 0-7.3.2-11.4.6-5.7.6-11.4 1.3-17 2.2-15.1 2.3-19.3 2.8-25.4 2.8-4.8 0-8.5-.7-15.2-2.7l-1.9-.6c-1-.3-1.8-.5-2.6-.7-5.6-1.4-9.9-1.4-15.2.5-2.8 1-5.1 3.1-6.4 5.7-1.1 2.1-1.7 4.2-2.8 9-1 4.7-1.6 6.7-2.8 8.9-1.4 2.8-3.9 4.9-6.9 5.9-2.2.7-4.5 1.5-6.6 2.4-4.6 2-7.1 3.9-9.6 7.3-.9 1.2-.7.9-3.8 5.5-1.4 2.1-3.3 4.1-5.9 6.4-1.4 1.2-7.5 6.2-9 7.5-5.1 4.4-8.8 8.5-11.6 13.4-2.9 5.1-5.5 12.8-7.9 23.3-.6 2.6-1.2 5.4-1.8 8.5l-.8 4.1-.8 3.8c-1.3 6.3-1.9 9.3-2.6 11.4-4.8 14.3-12.1 29.5-19 35.9-3.6 3.3-5.7 5-7.8 6.2-.6.4-1.3.7-2 1.1-.3.2-6.7 3.1-9.9 4.7l-.9.3v-.8l.5-.3c3.2-1.6 9.6-4.5 9.9-4.7.7-.3 1.3-.7 2-1.1 2.1-1.2 4.1-2.9 7.6-6.1 6.8-6.2 14-21.4 18.8-35.6.7-2 1.4-5.1 2.6-11.3l.8-3.8c.8-4.2 1.7-8.4 2.7-12.6 2.4-10.5 5-18.3 8-23.5 2.9-5 6.6-9.1 11.8-13.6 1.5-1.3 7.6-6.3 9-7.5 2.6-2.3 4.5-4.2 5.8-6.3 3.1-4.7 2.9-4.3 3.8-5.6 2.7-3.5 5.2-5.5 9.9-7.6 1.8-.8 4-1.6 6.7-2.4 2.8-.9 5.2-2.8 6.5-5.5 1.1-2.1 1.7-4.1 2.8-9.1 1-4.4 1.6-6.5 2.8-8.7 1.4-2.8 3.8-5 6.8-6.1 5.4-2 9.9-2 15.6-.5.8.2 1.6.4 2.6.7l2.6.8c5.9 1.8 9.5 2.5 14.3 2.5 6 0 10.3-.5 25.3-2.8 5.7-.9 11.4-1.6 17.1-2.2 4.1-.4 7.9-.6 11.5-.6 18.4 0 38-8.8 45.8-20.2 2.4-3.5 3.8-8.4 4.5-14.5.6-5.4.5-11.2 0-16.7-.1-1.2-.2-2.4-.4-3.6-.2-2.9-.4-4.7-1.7-11.7zM13.3 0h.7c-1.3 5.3-1.9 7.2-3.8 11.4-1.4 3.1-1.9 6.5-1.7 10.5.1 3 .5 5.4 1.6 11.3.8 4.1 1.1 6.2 1.4 8.6.7 6.3.2 11.3-2 16C6.5 64.3 3.4 70.7 0 77v-1.5c3.1-5.9 6.1-11.9 8.8-18 2.1-4.6 2.6-9.5 1.9-15.7-.3-2.4-.6-4.4-1.4-8.5-1.1-6-1.5-8.4-1.6-11.4-.2-4.1.3-7.6 1.8-10.8C11.4 7 12 5.2 13.3 0zM210 0c-.9 2.7-2.1 5.4-3.4 7.9-1.8 3.3-2.8 6-3.4 8.4l-.3 1.3-.2 1c-.1.5-.2 1-.5 1.5-.5.7-1.4.9-3.6.9.6 0-6.9-.2-10.5-.2-7.1 0-12.9.6-20.6 1.8-11.8 1.9-12.4 2-16.6 1.8-1.9-.1-3.8-.3-5.6-.8-12.4-2.9-32.3-4.1-38.3-2.1-1.9.6-4.1 2-6.7 3.9-1.6 1.2-3.1 2.5-4.6 3.9-1 .9-6.4 6-7.5 6.9-1 .8-5.7 5.2-6.2 5.7-1 .9-2.1 1.9-3.2 2.7-3.5 2.8-6.2 4.4-8.3 4.4-2.5 0-3 0-3.6-.3-.8-.4-1-1.2-.8-2.5.5-2.6 3.1-7.6 9-17.5 4-6.7 6.6-12.7 8.2-18.5 1-3.6 1.4-5.2 2.1-10.2h.7C85.4 5.1 85 6.8 84 10.4c-1.7 5.8-4.3 11.9-8.3 18.6-5.8 9.8-8.4 14.8-8.9 17.3-.2 1-.1 1.5.4 1.7.4.2.9.2 2.4.2 2.7 0 5.4-1.5 8.7-4.2 1-.8 2-1.7 3.2-2.7.5-.4 5.2-4.8 6.2-5.7 1.1-.9 6.5-6 7.5-6.9 1.7-1.5 3.2-2.8 4.6-3.9 2.6-2 4.9-3.4 6.9-4 6.1-2.1 26.2-.9 38.7 2.1 1.8.4 3.6.7 5.5.7 4.1.2 4.7.1 16.4-1.8C175 20.6 180.8 20 188 20c3.6 0 11.2.2 10.5.2 2 0 2.7-.1 3-.6.2-.2.3-.6.4-1.2l.2-1 .3-1.3c.6-2.5 1.7-5.2 3.5-8.6 1.3-2.4 2.4-4.9 3.3-7.6h.8zm-7 0c-4.1 12.9-6.7 15.8-13.8 15.8-3.1 0-7.1.2-20 1.1l-1.1.1c-10.9.7-16.4 1-20.1 1-3.7 0-9.2-.7-20.1-2.4l-1.1-.2c-12.9-2-16.8-2.5-20-2.5-3.1 0-5.1.7-7.7 2.4-.1 0-1.3.8-1.6 1.1-1.7 1.1-3 1.6-4.7 1.6-2 0-2.9-1.1-2.9-3 0-.7.1-1.6.3-3 .1-.6.6-3.2.7-3.8.6-3 .9-5.5 1-8.2h1.4c-.1 2.8-.5 5.4-1 8.5-.1.7-.6 3.2-.7 3.8-.2.9-.3 1.8-.3 2.7 0 1.2.3 1.6 1.5 1.6 1.4 0 2.5-.4 4-1.4.3-.2 1.5-1 1.6-1 2.8-1.8 5-2.6 8.4-2.6 3.2 0 7.2.5 20.2 2.5l1.1.2c10.8 1.7 16.3 2.3 19.9 2.3 3.7 0 9.2-.3 20-1l1.1-.1c12.9-.8 16.9-1.1 20.1-1.1 6.2 0 8.5-2.4 12.3-14.4h1.5zM98.9 0h.8c-1.4 2.8-1.9 3.7-1.9 4.5-.1.8.3 1.2 1.6 1.4 1.3.2 2.7.3 7.6.3 4.2 0 9.1.4 15 1.2 2.8.4 5.6.8 9.2 1.4 16.9 2.7 15.8 2.5 18.9 2.5 16.9 0 36.5-1.6 42.5-5 2-1.1 3.6-3.3 4.6-6.2h.8c-1.2 3.3-2.8 5.6-5.1 6.9-6.2 3.5-25.8 5.1-42.9 5.1-3.1 0-2 .2-19-2.5-3.6-.6-6.5-1-9.2-1.4-5.8-.9-10.6-1.3-14.8-1.3-5 0-6.4 0-7.7-.3-1.7-.3-2.4-1-2.2-2.2 0-.9.4-1.7 1.8-4.4zm53.5 0c4 .9 7.3 1.4 9.9 1.4C169 1.4 174 1 178 0h2.1c-4.4 1.4-9.9 2-17.7 2-3.1 0-7.2-.7-12.3-2h2.3zM49 0c-2 2.2-4.9 3.6-8.4 4.3-2.8.6-5.2.7-9 .7h-1.2c-3.8 0-6.2-.8-7.1-3.3-.2-.6-.3-1.1-.3-1.7h.7c0 .5.1 1 .3 1.5.7 2.1 2.9 2.8 6.4 2.8h1.2c3.7.1 6.2-.1 8.9-.6C43.6 3 46.2 1.8 48 0h1zM0 145c5.1-.1 8 2.3 8 7.8 0 8-3.5 19.9-8 29.2v-1.6c4.1-8.9 7.3-20 7.3-27.6 0-5-2.6-7.2-7.3-7.1v-.7zm0 5c.9.1 1.5.4 2 .9 1 1 1.1 2.6.8 5.3l-.1.9-.3 2.7c0 2.2-1 6.7-2.5 11.1v-2.4c1.1-3.6 1.8-6.9 1.8-8.7 0-.7.1-1.2.3-2.8l.1-.9c.3-2.5.2-3.9-.6-4.7-.4-.4-.9-.6-1.5-.7v-.7zm0 137v-1c.8-1 1.5-2.1 2.1-3.2.9-1.9 1.9-4.3 3.2-8.2 5.4-16.3 5.4-18.4.2-21-1.6-.8-3.3-1-5.4-.6v-.7c1.9-.4 3.9-.1 5.7.7 5.7 2.8 5.7 5.3.2 21.8-1.3 3.9-2.3 6.4-3.2 8.3-.8 1.4-1.7 2.7-2.8 3.9zm24 28.9c1.2 0 2.1-.2 5.8-.9l1.7-.3c5.8-1.1 8.9-.9 10.2 1.6 1 1.9-.3 4.1-3.3 6.8-1.1 1-2.3 2-3.6 2.9-.7.5-3.4 2.5-4.1 3-1.3 1-2.1 1.7-2.4 2.1-.9 1.2-1.6 2.5-2 3.9 0-.1-2.8 9.6-4.9 15.6-1.9 5.5-3.9 7.5-6.2 6-1.5-1-2.6-3-4.6-7.7-1.4-3.2-1.8-4-2.4-5.2-3.2-5.7-2.7-16.8 0-23.1.8-2.1 2.7-3.7 4.9-4.2 1.8-.5 3.4-.5 8.3-.5H24zm-.5 2h-2.7c-8.4-.1-10.3.4-11.8 3.8-2.5 5.9-3 16.5 0 21.8.7 1.2 1 2 2.4 5.3 1.9 4.4 3 6.4 4.1 7.1 1.1.8 2.4-.6 4.1-5.3 1.7-5.2 3.3-10.3 4.9-15.6.5-1.5 1.3-2.9 2.2-4.2.5-.6 1.3-1.3 2.7-2.4.6-.5 3.4-2.5 4-3 1.4-1 2.5-1.9 3.4-2.8 2.5-2.3 3.5-4 3-5.1-.8-1.7-3.5-1.9-8.6-.9l-1.6.3c-3.8.8-4.8 1-6.1 1zM265.3 420c-2.4-8.6-2.6-9.9-2.6-13.3 0-2.3-.1-4.4-.3-8-.4-7.3-.5-9.5.2-12 .8-3.3 2.9-5 6.8-5h18.2c2.9 0 3.6 1.3 4.1 5 .1.6.1.7.1.9.6 3.8 2 5.3 6.2 5.3 2.5 0 3.9.3 4.5 1 .5.6.5 1 .3 2.8-.6 3.7.3 6.2 5.2 9.7 4.4 3.1 8.1 3.8 11.6 2.4 2.7-1.1 4.7-2.9 8.3-7l.8-.9.8-.9c.6-.7 1.2-1.4 1.9-2 2-1.9 4.2-3.5 6.7-4.7 1.1-.5 1.2-.6 4-1.8 4.3-1.9 6.3-3.2 8.2-5.3 1.8-2.1 3.3-3.4 4.7-4.2 2.2-1.3 3.8-1.5 9.6-1.5 4.2 0 7.4-3 12.6-10.5l2-2.8c.7-1.1 1.4-1.9 2-2.7 5.5-7.1 13.5-7.3 21.5.7 3.9 3.9 7.1 13.6 9.5 27 1.7 9.7 2.9 20.7 3.1 28h-.7c-.2-7.2-1.4-18.2-3.1-27.8-2.4-13.2-5.6-22.9-9.3-26.7-7.7-7.7-15.2-7.5-20.5-.7-.6.8-1.2 1.6-1.9 2.6l-2 2.8c-5.3 7.7-8.7 10.8-13.2 10.8-5.6 0-7.1.2-9.2 1.4-1.3.8-2.7 2-4.5 4.1-2 2.3-4.1 3.6-8.5 5.5l-3.9 1.8c-2.4 1.2-4.6 2.7-6.5 4.6-.9.9-1.8 1.9-2.6 2.8l-.8.9c-3.7 4.2-5.8 6.1-8.6 7.2-3.7 1.5-7.6.8-12.2-2.4-5.1-3.6-6.2-6.4-5.5-10.4.2-1.5.2-1.8-.1-2.2-.4-.5-1.6-.7-4-.7-4.6 0-6.3-1.8-6.9-5.9l-.1-.9c-.5-3.4-1.1-4.4-3.4-4.4h-18.2c-3.5 0-5.3 1.4-6.1 4.5-.6 2.4-.6 4.6-.2 11.8.2 2.7.3 5.3.3 8 0 3.4.2 4.7 2.7 13.3h-1zm9.7 0c-.9-4.6-1.1-7.5-.9-10.4 0-.5.1-1 .1-1.7l.2-1.8c.2-2.7.3-4.9.3-7.9 0-3.5 1-5.5 2.9-5.9 1.7-.4 3.9.4 6.4 2.1 4.6 3.2 9.8 9.2 11.6 13.5 3.3 8 9.9 11 23.4 11 6 0 10-1.7 14.4-5.5 1-.9 10.5-10.5 14.7-14 5-4.3 8.2-5.3 14.4-5.8 3.9-.3 5.6-.6 8-1.7 3.2-1.4 6.5-3.8 10.4-7.9 5.2-5.5 9.2-6.3 12.2-3 2.3 2.5 3.8 7.4 4.8 14.2.5 3.6.7 5.4 1.1 12.2.2 2.6.1 3.7-.6 12.7h-.7c.8-8.9.8-10 .6-12.6-.4-6.7-.6-8.5-1.1-12.2-.9-6.7-2.4-11.4-4.6-13.8-2.6-2.9-6.2-2.2-11.2 3-3.9 4.1-7.4 6.7-10.6 8.1-2.5 1.1-4.3 1.4-8.1 1.7-6.1.5-9.2 1.5-14.1 5.7-4.1 3.5-13.6 13.1-14.7 14-4.6 4-8.7 5.7-14.9 5.7-13.8 0-20.6-3.1-24-11.4-1.7-4.2-6.8-10.1-11.3-13.2-2.4-1.6-4.4-2.4-5.9-2-1.5.4-2.4 2.1-2.4 5.2 0 3-.1 5.2-.3 7.9l-.2 1.8c-.1.7-.1 1.2-.1 1.7-.2 2.9 0 5.7 1 10.4h-.8zm80 0c1.7-2.3 6.2-8.2 7.6-10 3.8-4.9 9.1-8.6 13.5-9.7 4.9-1.2 8 1 8 6.4 0 2.8 0 3.6-.5 13.2h-.7c.5-9.7.5-10.5.5-13.2 0-5-2.7-6.9-7.1-5.8-4.2 1-9.4 4.7-13.1 9.5-1.3 1.6-5.3 7-7.2 9.5h-1zm-7.4-237.8c2.4 1.9 4.9 3.6 8 5.4.7.4 5.9 3.4 7.2 4.3 7.9 4.9 10.4 9.4 8.6 17.7-1 4.6-3.2 7.8-6.5 10.1-2.7 1.8-5.6 3-11.2 4.6-8.3 2.4-9.5 2.8-13.1 4.4-1.9.8-3.7 1.8-5.4 2.9-7.7 5-13.3 5.4-19.5 2.3-2.5-1.2-12-7.7-12-7.7-1.2-.8-2.4-1.5-3.6-2.2-11.2-6.2-23.9-16.9-24-22.3-.1-2.4 1.4-4.6 4.4-7.2.7-.6 1.5-1.3 2.6-2.1.5-.4 2.4-1.8 2.7-2.1 3.1-2.4 5-4.1 6.5-5.9 7.7-9.7 18.5-20.1 23.9-22.6 8.4-3.9 13.8-4 19.1.1 2.3 1.8 3.9 4.6 6 9.4.2.5 1.6 3.8 2 4.7 1.1 2.6 2 4.1 3 4.9.3.5.8.9 1.3 1.3zm-2.2.4c-1.1-1-2.1-2.6-3.4-5.3-.4-.9-1.8-4.3-2-4.7-2-4.5-3.6-7.2-5.6-8.8-4.8-3.7-9.7-3.6-17.8.1-5.2 2.4-15.9 12.7-23.6 22.2-1.6 2-3.6 3.7-6.8 6.1l-2.8 2.1c-.9.6-1.7 1.3-2.5 2-2.7 2.3-4 4.2-3.9 6.1.1 4.6 12.7 15.2 23.5 21.1 1.2.7 2.5 1.4 3.7 2.2.1.1 9.6 6.4 12 7.6 5.8 2.9 10.9 2.5 18.3-2.2 1.8-1.1 3.7-2.1 5.7-3 3.7-1.6 4.9-2 13.4-4.5 5.5-1.6 8.4-2.7 10.9-4.4 3.1-2.1 5.1-5 6-9.2 1.7-7.7-.6-11.6-8-16.2-1.3-.8-6.5-3.8-7.3-4.2-3.2-1.9-5.7-3.6-8.2-5.5-.6-.6-1.1-1.1-1.6-1.5zM61 168.8c3-2.1 5.5-3.5 8.5-4.9.6-.3 1.2-.5 1.9-.9l3.1-1.3c4.3-1.8 8.4-3.9 12.4-6.3 6.3-3.7 12.8-7.1 19.5-10.1 3-1.4 15.3-6.9 14.8-6.7 13.4-6 19.7-4.8 34.6 5.6 5.5 3.9 9.3 9.3 11.5 15.9 2.1 6.2 2.6 11.5 2.6 19.4 0 5.8-.5 9.1-2.6 13.3-2.9 5.8-8.6 11.3-17.9 16.4-17.1 9.4-27.2 19.3-37 33.5-6.2 9-33.4 30.9-45.6 37.9-14.7 8.4-33 15.4-45.5 15.4-7 0-10.3-3.3-10.3-9.4 0-4.4 1.4-9.6 4.4-17 2.1-5.2 1.4-9-1.5-15.6-2.2-5-2.7-6.4-2.7-8.8 0-2.3 1.3-4.8 3.9-7.7 1.8-2.1 2.4-2.7 8.3-8 3.6-3.3 5.7-5.3 7.5-7.5 6.6-7.9 8.8-13.6 12.5-31.3C45.6 180.1 48 176.5 54 173c.6-.3 2.8-1.6 3.3-1.9 1.2-.7 2.5-1.5 3.7-2.3zm.8.9c-1.2.9-2.5 1.7-3.8 2.4l-3.3 1.9c-5.8 3.4-8.1 6.9-10.3 17.3-3.7 17.8-6 23.6-12.7 31.7-1.9 2.2-4 4.3-7.6 7.6-5.9 5.4-6.5 5.9-8.3 8-2.5 2.8-3.7 5.2-3.7 7.3 0 2.2.5 3.6 2.7 8.5 3 6.7 3.7 10.8 1.5 16.2-2.9 7.3-4.4 12.5-4.4 16.8.1 5.7 3 8.7 9.7 8.7 12.4 0 30.6-6.9 45.4-15.4 12.1-6.9 39.3-28.9 45.5-37.8 9.9-14.3 20-24.3 37.3-33.8 9.2-5.1 14.8-10.4 17.7-16.1 2-4.1 2.5-7.3 2.5-13 0-7.8-.5-13.1-2.6-19.2-2.2-6.5-5.9-11.7-11.3-15.5-14.8-10.4-20.8-11.5-34-5.6.5-.2-11.9 5.3-14.8 6.7-1.2.6-2.3 1.1-3.4 1.6-5.5 2.6-10.8 5.5-16.1 8.5-4 2.4-8.2 4.5-12.5 6.3l-3.1 1.3c-.7.3-1.3.6-1.9.9-3 1.2-5.8 2.9-8.5 4.7zm-5.6 8.3c5.4-4.4 8.6-5.7 16.5-7.9 4.3-1.2 6.4-2.1 8.6-4 2.7-2.3 5.2-3.2 11.1-4.3 1.9-.4 2.6-.5 3.5-.7 3.8-.9 6.6-2.1 9.2-4.1 7.3-6 17.7-9.9 25.4-9.9 3.7 0 11.7 5.3 18 12 7.5 8 11.1 16.3 8.9 22.8-2.2 6.4-8 13-16.1 19.5-5.9 4.7-12.8 9.1-17.6 11.5-2.6 1.3-4.6 3.4-6.8 7-.5.8-7.8 14.2-11.2 19.5-3.9 6.1-10.8 12.2-21.1 19.6-2.1 1.5-4.3 3-6.4 4.5-.1.1-4.8 3.3-6 4.1-4.5 3.1-7.2 5.2-9.1 6.9-8.1 7.5-25.9 10.9-30.5 6.3-1.4-1.4-1.5-2.8-1.4-7.4.3-6.6-.3-10.2-3.5-14.4-1.4-1.8-3.1-3.5-4.9-4.9-2.7-2.1-4.2-4.3-4.6-6.7-.7-4.6 2.7-9.2 9.9-15.2 1.1-.9 4.7-3.8 5-4.1 1.3-1 2.5-2.1 3.7-3.3 2.9-3.2 4.1-6.7 5.4-14.1.2-1 .4-2 .6-3.1.2-1.3.4-2.3.6-3.3.5-2.7 1-5 1.7-7.5.7-2.7 1-3.9 1.6-7.3.4-2.1.6-3 1.1-3.8.7-1.5.7-1.5 8.4-7.7zm.8.7c-7.5 6.1-7.6 6.2-8.4 7.7-.4.8-.6 1.6-1 3.6-.7 3.4-1 4.6-1.7 7.3-.6 2.4-1.2 4.7-1.7 7.4-.3 1.6-.6 3.2-.9 4.9l-.3 1.5c-1.4 7.5-2.6 11-5.6 14.3-1.2 1.2-2.4 2.4-3.7 3.4-.3.2-3.9 3.1-5 4-7 5.9-10.3 10.2-9.7 14.5.3 2.2 1.7 4.2 4.3 6.2 2.1 1.6 3.8 3.2 5.1 5 3.2 4.4 3.9 8 3.6 14.8-.2 4.3 0 5.7 1.2 6.8 4.3 4.3 21.7.9 29.6-6.3 1.9-1.8 4.7-3.8 9.2-6.9l6-4.1c2.5-1.7 4.5-3.1 6.4-4.5 10.3-7.4 17.1-13.4 21-19.3 3.4-5.3 10.7-18.6 11.2-19.4 2.3-3.7 4.4-5.9 7.1-7.2 4.8-2.4 11.7-6.7 17.5-11.4 8.1-6.4 13.7-12.9 15.9-19.1 2.2-6.1-1.4-14.2-8.8-22-6.2-6.6-14-11.8-17.5-11.8-7.5 0-17.8 3.8-25 9.7-2.6 2.1-5.5 3.4-9.5 4.3-1 .2-1.6.3-3.6.7-5.8 1.1-8.2 1.9-10.8 4.1-2.3 2-4.5 2.9-8.9 4.1-7.5 2.1-10.7 3.4-16 7.7zm91-2.2c0 5.3-.4 7.6-1.8 10-.8 1.3-5.4 7-6 7.9-4.2 5.6-6.5 7.2-12.1 9.6-.9.4-1.5.7-2.1 1.1-.4.2-.8.5-1.4.7-.5.2-3.1 1.3-3.9 1.7-4.2 1.9-6.3 4.1-6.3 7.5 0 7.7-13.2 25.3-24.1 31.4-5.7 3.2-14.9 6.6-22.9 8.3-9.3 2-15.7 1.7-17.2-1.6-.9-2.1-3.1-3-8.4-4.1l-.4-.1c-3.4-.7-4.8-1.1-6.3-1.8-2-1.1-3.1-2.6-3.1-4.8 0-1.9.8-4 2.3-6.8.6-1.1 1.3-2.2 2.3-3.7-.1.2 2-3.1 2.6-4 4.7-7.5 6.9-13 6.9-19.1 0-12.9 7.8-23.4 19.2-30 3.6-2.1 6.4-2.3 10.6-1.5 3.5.7 4.2.6 5.2-1.1 3.1-5.5 4.9-6.7 11.1-6.7 2.7 0 4.9-.7 7.3-2.2 1.1-.7 6.1-4.3 7.7-5.4 6.4-4.2 7.9-4.9 17.6-8.4 4.9-1.7 10.6.9 15.6 6.4 4.5 5.2 7.6 11.7 7.6 16.7zm-1-.4c0-4.5-3-10.8-7.3-15.6-4.7-5.1-9.9-7.5-14.1-6-9.6 3.4-11 4.1-17.3 8.2-1.6 1-6.5 4.7-7.7 5.4-2.7 1.7-5 2.4-8 2.4-5.6 0-7 .9-9.9 5.9-.8 1.3-1.8 2-3 2.2-.9.1-1.3 0-3.6-.4-3.9-.8-6.3-.6-9.6 1.3-11 6.4-18.5 16.5-18.5 28.8 0 6.4-2.3 12.1-7.1 19.8l-2.6 4c-1 1.5-1.6 2.6-2.2 3.7-1.4 2.5-2.1 4.5-2.1 6.1 0 2.9 2 4 8.3 5.3l.4.1c5.8 1.2 8.2 2.2 9.3 4.9 2.2 5 25.1 0 38.1-7.3 10.4-5.9 23.4-23.1 23.4-30.2 0-4.1 2.4-6.6 7.1-8.8.8-.3 3.4-1.5 3.9-1.7.5-.2.9-.4 1.3-.7.6-.4 1.3-.7 2.3-1.1 5.3-2.3 7.5-3.8 11.5-9.2.7-1 5.2-6.6 5.9-7.8 1.1-2.2 1.5-4.3 1.5-9.3zm-25.9-15.8c.1-.1 1.7-1.1 2.1-1.3.7-.4 1.2-.7 1.7-.8 1.8-.6 3.6-.1 7.8 2.2 10.5 5.6 13.7 15.9 6.5 27-2.8 4.3-6.6 6.3-13.2 7.7-.6.1-.8.2-2.2.5-4.2.9-6.2 1.4-8.2 2.5-2.6 1.4-4.3 3.5-5.3 6.6-5.5 17.4-13.9 30.2-25.5 35.1-11.6 4.8-14.9 5.9-19.7 6.2-3.5.2-6.9-.5-10.8-2-1.4-.5-2.7-1.1-4-1.8-2.8-1.6-3.6-3.3-3.2-6.5.2-1.5 2.7-10.8 3.4-14.4.4-2.1.8-4.3 1.2-6.8.3-2.1.7-4.1.9-6.2 1-6.6 1.8-9.9 3.2-13 1.7-3.8 4.3-6.3 8.2-7.8 4.6-1.7 7.4-2.2 12.7-2.5 3.3-.2 4.7-.4 6.3-1.4.4-.3.9-.6 1.3-.9.9-.7 1.6-1.5 2.4-2.4.4-.5 1.7-2 1.9-2.2 2.4-2.8 4.4-3.9 8.7-3.9 2.8 0 4.2-.6 5.8-2.3-.1.1 1.9-2.2 2.7-2.9 1.4-1.4 3-2.5 4.8-3.5 1.1-.6 2.2-1.1 3.5-1.7 2.4-.9 4.8-2.1 7-3.5zm-10.3 6.2c-1.7.9-3.2 2.1-4.6 3.4-.9 1-1.8 1.9-2.7 2.9-1.7 1.8-3.3 2.6-6.2 2.6-4 0-5.9 1-8.1 3.6-.2.2-1.4 1.8-1.8 2.2-.7.9-1.6 1.7-2.4 2.5-.5.4-.9.7-1.4 1-1.7 1.1-3.2 1.3-6.6 1.5-5.2.3-7.9.7-12.4 2.4-3.7 1.4-6.2 3.8-7.8 7.4-1.3 3-2.1 6.4-3.1 12.9l-.5 3-.5 3.2c-.4 2.5-.8 4.7-1.2 6.8-.8 3.6-3.2 13-3.4 14.4-.4 2.9.2 4.3 2.8 5.8.9.5 2.2 1.1 3.9 1.8 3.8 1.5 7.1 2.1 10.5 2 4.7-.2 7.9-1.4 19.3-6.2 11.3-4.8 19.5-17.5 25-34.8 1-3.3 2.9-5.5 5.6-7 2-1.1 4-1.7 8.3-2.6 1.3-.3 1.6-.3 2.2-.5 6.4-1.4 10-3.3 12.7-7.5 6.9-10.7 3.9-20.7-6.2-26.1-4-2.2-5.6-2.6-7.2-2.1-.5.1-.9.4-1.6.8-.4.2-1.9 1.2-2 1.3-2.3 1.4-4.6 2.6-7.1 3.6-1.4.6-2.5 1.1-3.5 1.7zm-29.3 22.4c11.4-2 18.6-.7 22.9 4.3 3.6 4.1.8 15-4.2 24.9-3.4 6.7-7.5 11.3-16.3 17.6-10 7.1-25 8.5-28.7 2.7-1.3-2.1-1.5-5.7-.7-11 .5-4 1.3-7.5 3.3-16.1l.1-.4c1.1-4.8 1.7-7.2 2.2-9.9 1-5.1 2.6-8 5.1-9.6 2-1.3 3.9-1.6 8.7-1.8 3.7-.2 5.3-.3 7.6-.7zm.1 1c-2.3.4-3.9.5-7.6.7-4.6.2-6.4.5-8.2 1.7-2.3 1.5-3.8 4.3-4.8 9.2-.5 2.7-1.1 5.2-2.2 10l-.1.4c-2 8.6-2.7 12.2-3.3 16.1-.7 5.2-.6 8.7.6 10.6 3.4 5.4 17.8 4 27.4-2.9 8.7-6.3 12.6-10.8 15.9-17.5 4.8-9.7 7.5-20.4 4.2-24.3-4-4.7-10.9-6-21.9-4zm11.4 3.3c5 0 7.5 2.1 7.9 6.1.3 2.8-.3 5.7-2 11.1-1.8 5.9-13 17.7-19.2 21.8-5 3.3-14.1 4-18.8.7-2.8-2-2.5-8.4 0-18.4.5-1.9 1-3.9 1.7-6.1.7-2.4 1.4-4.7 2.2-7.1l.3-.8c1-3.3 3.6-5.4 7.6-6.5 3.1-.8 6.7-1 12.3-.9l2.7.1H93zm-.2 1c-1.4 0-2.5 0-5.2-.1l-2.7-.1c-5.5-.1-9 .1-12 .9-3.7 1-6 2.9-7 6.1-.4 1.2-.7 2.4-1.1 3.7-.5 1.5-.9 2.9-1.3 4.3-.6 2.2-1.2 4.2-1.6 6.1-2.4 9.8-2.7 16.1-.3 17.9 4.3 3.1 13 2.4 17.7-.7 6-4.1 16.9-15.8 18.7-21.6 1.6-5.4 2.2-8.2 1.9-11-.3-3.6-2.5-5.5-7.1-5.5zM80 199c2 0 4 .4 6 1 3.8 1.3 6.1 3.6 6.1 7.1 0 6.8-6.6 12.2-15.5 15.2-6.8 2.3-9.5-1.3-8.1-11.7.6-4.4 2.7-7.5 5.7-9.5 1.7-1.1 3.7-1.9 5.8-2.1zm-.9 1.1c-1.8.3-3.6.9-5.2 1.9-3 1.8-4.9 4.7-5.5 8.8-1.3 9.7 1 12.7 7.3 10.7 8.8-2.9 15.3-7.9 15.3-14.1 0-3.1-2.1-5.2-5.7-6.3-1.9-.6-3.8-.9-5.8-.9-.1-.2-.2-.2-.4-.1zm56.6-16.6c-1.9 6.8-10.5 6.9-18.7 2.3-7.1-3.9-9.7-12.6-3.5-16 1.1-.6 2.1-1.2 3.1-1.9l1.4-.9c.9-.6 1.8-1.1 2.8-1.6 3.3-1.7 6.2-2 9.8-.5 6.5 2.6 7.7 9.4 5.1 18.6zm-14.1-18.1c-.9.5-1.8 1-2.7 1.6l-1.4.9c-.6.4-1.1.7-1.5 1-.6.4-1.1.7-1.7 1-5.7 3.1-3.3 11.2 3.6 15 8.1 4.5 16.3 4.4 18-1.9 2.5-9.1 1.3-15.6-4.8-18-3.6-1.5-6.3-1.2-9.5.4zM134 174c0 3.9-1.7 6.1-4.7 6.8-2.3.5-5.3 0-7.8-1.2l-1.3-.6c-.5-.2-.8-.4-1.1-.6-2.9-1.6-2.9-3.4.2-7.4 4.8-6.3 14.7-5 14.7 3zm0 .5c0-3.7-2.1-6-5.3-6.4-3-.4-6.5 1-8.5 3.6-3 3.9-2.9 5.2-.5 6.7.3.2.7.4 1.1.6l1.3.7c2.4 1.2 5.3 1.7 7.5 1.2 2.9-.7 4.4-2.7 4.4-6.4zm137 197.1c0-9 1.7-11.7 12.9-20.9 1.7-1.4 3.5-2.6 5.3-3.6 1.8-1.1 3.7-2 5.9-2.9.9-.4 1.7-.7 2.9-1.2l2.7-1.1c6.6-2.7 9.6-4.7 11.6-8.4.8-1.6 1.5-3.1 2.3-4.8.4-.9.7-1.8 1.1-2.7l.2-.5.4-1c2.2-5.6 4.2-8.5 8.9-11.6 1.2-.8 2.4-1.8 3.5-2.8 1-.9 1.9-1.9 2.7-3 .2-.2 1.8-2.2 2.2-2.8 2.4-2.9 4.6-4.1 8.1-4.1 2.2 0 3.9-.4 6.7-1.5 3.8-1.4 4.6-1.6 6.3-1.5 1.8.1 3.4.9 5 2.5.9.9 3.9 4.1 4.6 4.8 3.5 3.5 6.6 4.9 12.4 4.9 2.8 0 5.6.1 8.5.3 11.1.6 15.3.4 17.7-1.5 4.8-4 8.1-1.9 8.1 5.4 0 7.5-6 14-13.3 14-3.4 0-5.8 1-6.5 2.6-.8 1.7.5 4.3 4.2 7.4 9.5 7.9 7.9 14.6-5.3 14.6-3.7-.1-7.4 1.2-10.2 3.7-2.3 1.9-4.1 4.1-6.9 8.3l-1.1 1.6c-2.2 3.2-3.5 5-5.1 6.6-4.3 4.4-6.5 5.4-9.1 4.8l-.7-.2c-.6-.2-1.2-.3-1.9-.3-1.1 0-1.7.5-5.7 4.4-3.4 3.3-5.6 4.8-8.3 4.8-.9 0-2.4.8-4.5 2.4-.9.7-1.9 1.5-3.1 2.6l-3.4 3c-1 .9-2.1 1.8-3.2 2.7-6.5 5.3-10.9 7.2-14.1 4.6-1.9-1.5-2.9-3.2-3.2-5.1-.3-1.4-.2-2.5.2-5.1.6-4.1.5-5.9-1.3-8.1-1.6-2.1-2.1-2.3-2.6-1.7-.2.2-.9 1.1-1.1 1.4-1.5 1.8-3.4 2.5-6.3 2-3.2-.6-3.9-2.9-3.3-7.1l.2-1.1c.4-2.6.5-3.5.2-4.1-.3-.6-1.3-.7-3.7.3l-.5.2c-9.6 3.9-10.7 4.3-13.6 4.7-4.5.2-6.8-1.5-6.8-5.9zm1-.6c0 3.5 1.5 4.6 4.9 4.1 2.7-.4 3.8-.8 13.2-4.6l.5-.2c2.9-1.2 4.7-1.1 5.4.4.5 1 .4 1.9 0 4.9l-.2 1.1c-.5 3.5 0 5.1 2.2 5.5 2.4.4 3.8-.1 5-1.5.1-.2.9-1.2 1.2-1.4 1.3-1.4 2.7-.9 4.7 1.8 2 2.6 2.2 4.7 1.6 9.2-.7 4.7-.4 6.6 2.5 8.9 2.4 2 6.4.3 12.4-4.6.9-.8 1.9-1.6 3.1-2.6l3.4-3c1.3-1.1 2.3-1.9 3.2-2.6 2.3-1.8 4-2.7 5.4-2.7 2.1 0 4.2-1.3 7.3-4.4l1.7-1.7c.7-.6 1.2-1.1 1.7-1.5 1.3-1 2.3-1.6 3.3-1.6.7 0 1.3.1 2.2.3.5.1.5.1.7.1 2.1.4 3.8-.4 7.8-4.4 1.5-1.5 2.8-3.3 5-6.4l1.1-1.6c2.9-4.3 4.7-6.6 7.1-8.6 3.1-2.6 7-4.1 11.1-4 11.8 0 13-4.9 4.4-12.1-4.1-3.4-5.7-6.6-4.6-9.1 1-2.2 4-3.4 7.8-3.4 6.5 0 11.9-5.8 11.9-12.6 0-6.3-2-7.6-5.8-4.4-2.8 2.3-7 2.5-18.6 1.9h-.7c-3.6-.2-5.6-.3-7.6-.3-6.2 0-9.6-1.5-13.4-5.3-.7-.7-3.7-3.9-4.6-4.8-1.4-1.4-2.7-2-4.1-2.1-1.4-.1-2.1.1-5.7 1.4-2.9 1.1-4.8 1.6-7.2 1.6-3 0-4.8 1-7 3.6-.4.5-2 2.5-2.2 2.8-.9 1.1-1.8 2.1-2.8 3.1-1.1 1.1-2.4 2.1-3.7 3-4.4 2.9-6.2 5.5-8.3 10.9l-.4 1-.2.5c-.4.9-.7 1.8-1.1 2.7-.7 1.7-1.5 3.3-2.3 4.9-2.2 4.1-5.5 6.3-12.3 9.1l-2.7 1.1c-1.1.4-2 .8-2.8 1.2-2 .8-3.9 1.8-5.8 2.9-1.8 1-3.5 2.2-5.1 3.5-11.1 9.2-12.6 11.6-12.6 20zm93.2-55.4c2.1 1.1 4.6 1.4 7.4 1.2 1.8-.1 3.4-.4 6.1-1 3.7-.8 4.4-1 5.8-1.1 1.9-.2 3.4.1 4.4 1 1.1.9 1.4 1.9.9 3-.5 1-.7 1.2-3.5 3.6-2.5 2.1-3.5 3.4-3.5 5 0 5.1.9 7 5.5 11 2.7 2.3 4.1 4.8 3.7 6.8-.5 2.3-3.5 3.5-8.8 3.5-5 0-8.9 3.2-14 10.3-.3.5-2.8 3.9-3.4 4.8-1 1.4-2.1 2.7-3.3 3.9-.7.7-1.5 1.2-2.2 1.5-2 .9-3.5 1.1-6.9 1.2-5.3.2-7.6 1-10.4 5-1.1 1.5-2.2 2.8-3.3 3.9-1.8 1.8-3.8 3.4-6 4.7-.1.1-7.5 4.3-10.3 6.2-2.6 1.7-4.5 1.4-5.7-.5-.9-1.4-1.3-3.2-2-7.3-.6-3.6-.9-5-1.4-6.3-.7-1.6-1.5-2.3-2.8-2-4.3.9-6.2 1-7.7.1-1.7-1-2.2-3.2-1.8-7.5.1-1.4-.7-2-2.6-2.1-1.6-.1-3.4.1-6.9.8l-.5.1c-5.6 1-7.5 1.2-8.9.5-2-1-1.1-3.7 2.9-8.6 3.8-4.6 7.4-7.6 11-9.5 2.6-1.4 4.1-1.9 8.5-2.9 5.1-1.2 7.2-2.5 9.8-6.5 2.1-3.3 7.5-13.1 8.5-14.6 2.5-4 4.7-6.4 7.7-8 1.8-1 3.3-2 6.4-4.3l1-.7c5.5-4 8.6-5.6 12.3-5.6 2.9 0 4.5 1 6.4 3.3.2.3 1.2 1.6 1.4 1.9.6.8 1.1 1.4 1.7 2 1.2 1.2 2.7 2.3 4.5 3.2zm.3.8c-2-1-3.5-2.1-4.8-3.5-.6-.6-1.2-1.3-1.8-2-.2-.3-1.2-1.6-1.4-1.9-1.7-2.2-3.1-3.1-5.8-3.1-3.6 0-6.6 1.5-12 5.4l-1 .7c-3.1 2.3-4.6 3.3-6.5 4.3-2.8 1.5-5 3.8-7.5 7.7-1 1.5-6.4 11.2-8.5 14.5-2.7 4.2-5 5.6-10.3 6.8-4.3 1-5.8 1.5-8.3 2.8-3.5 1.9-7 4.8-10.8 9.3-3.8 4.5-4.6 6.8-3.2 7.4 1.2.6 3.1.4 8.5-.6l.5-.1c3.6-.6 5.5-.9 7.1-.8 2.2.1 3.4 1 3.3 2.9-.3 4 .1 6 1.5 6.8 1.2.7 3 .6 7.2-.2 1.6-.3 2.8.5 3.6 2.4.6 1.4.9 2.8 1.4 6.1v.3c.7 3.9 1.1 5.7 1.9 7 1 1.6 2.5 1.8 4.8.3 2.9-1.9 10.3-6.1 10.4-6.2 2.2-1.3 4.1-2.8 5.9-4.6 1.2-1.2 2.2-2.5 3.2-3.8 3-4.1 5.5-5 11-5.2 3.3-.1 4.7-.3 6.6-1.2.6-.3 1.3-.7 2-1.4 1.2-1.1 2.3-2.4 3.2-3.7.7-.9 3.1-4.3 3.4-4.8 5.2-7.2 9.2-10.5 14.6-10.5 5.1 0 7.7-1.1 8.1-3 .4-1.6-1-3.9-3.5-6-4.7-4-5.7-6.1-5.7-11.4 0-1.9 1.1-3.3 3.8-5.5 2.7-2.2 3-2.5 3.3-3.3.3-.7.2-1.4-.7-2.1-1.6-1.3-3.3-1.1-9.6.3-2.7.6-4.4.9-6.3 1-2.8.4-5.4 0-7.6-1.1zm-19.4-3.2c3.9-2 6.3-1.5 9 1 .4.4 1.8 1.7 2.1 2 2.9 2.7 5.6 4 10 4 7.9 0 9.8 1 11.2 5.7.2.6.9 3.2 1.2 4 .6 1.8 1.1 3.5 1.9 5.3 1.5 3.6 1.8 5.8 1.2 7.2-.5 1.1-1.5 1.5-3.7 2-1.6.3-2 .4-2.7.6-1.3.4-2.3 1-3.2 1.9-.7.7-1.4 1.5-2.3 2.6-.4.5-2 2.5-2.4 2.9-5 6-8.7 8.7-13.7 8.7-2.6 0-4.8.9-7.4 2.8-1.3 1-8.1 7.2-10.6 9.2-2 1.5-4.1 2.9-6.2 4.1-3.2 1.8-5.1 2.3-6.3 1.6-.9-.6-1.2-1.5-1.4-3.9 0-.4-.1-.8-.1-1.3-.4-3.3-1.6-4.8-5-4.8-5 0-6.2-.9-6.8-3.8-.7-3.2-1.5-4.7-4.6-6.8-2.8-1.9-3-3.8-1.1-5.8 1.4-1.4 3.2-2.5 7.9-4.8 4.6-2.3 6.4-3.4 7.7-4.7 1.4-1.4 2.6-2.9 3.7-4.6.7-1.1 1.3-2.1 2-3.6l1.5-3c.6-1.3 1.2-2.4 1.8-3.5 4.1-7.3 7.4-10.4 16.3-15zM330 328.7c-.6 1.1-1.2 2.2-1.8 3.4l-1.5 3c-.6 1.3-1.3 2.5-2.1 3.6-1.1 1.7-2.4 3.2-3.8 4.6-1.4 1.4-3.2 2.4-8 4.8-4.6 2.3-6.5 3.3-7.8 4.7-1.6 1.6-1.5 3 1 4.6 3.3 2.2 4.2 3.8 4.9 7.2.5 2.6 1.5 3.2 6.1 3.2 3.9 0 5.3 1.8 5.7 5.4 0 .3.1.6.1 1.3.2 2.1.4 2.9 1 3.3.8.5 2.6.1 5.6-1.6 2.2-1.2 4.2-2.5 6.2-4 2.5-1.9 9.4-8.1 10.7-9.1 2.7-2 5-2.9 7.8-2.9 4.7 0 8.3-2.6 13.2-8.4l2.4-2.9c.8-.9 1.5-1.8 2.4-2.6 1-1 2.2-1.7 3.5-2 .8-.2 1.1-.3 2.8-.6 2.1-.4 2.9-.7 3.3-1.6.5-1.1.2-3.1-1.2-6.6-.7-1.8-1.4-3.5-1.9-5.4-.2-.7-1-3.3-1.2-3.9-1.4-4.3-2.9-5.1-10.6-5.1-4.6 0-7.4-1.3-10.5-4.2-.3-.3-1.7-1.7-2.1-2-2.6-2.3-4.6-2.7-8.3-.8-8.8 4.5-12 7.5-15.9 14.6zm38.5 8.4c-2.1 4.6-11.6 10.9-18.6 10.9-3.7 0-5.2-2.1-4.9-5.6.2-2.5 1.5-5.6 2.7-7.5l1.1-1.6c.4-.7.8-1.3 1.3-1.9 2.5-3.4 5.4-5.3 9.5-5.3 6.3-.1 10.9 6.7 8.9 11zm.1-.2c1.8-3.8-2.6-9.9-8.5-9.9-3.8 0-6.6 1.7-9 4.9-.4.6-.8 1.1-1.3 1.8 0 0-.8 1.3-1.1 1.6-1.2 1.8-2.4 4.7-2.7 7-.3 3 1 4.7 4.3 4.7 6.8 0 16.3-5.9 18.3-10.1zM319.9 351c1.4.1 3 .6 4 1.3 1.4 1 1.5 2.5-.2 4.3-3.5 3.6-8.7 3.1-8.7-1 0-3.3 2.1-4.8 4.9-4.6zm-.6 0c-2.5-.2-4.3 1.1-4.3 4.1 0 3.4 4.6 4 7.9.5 1.4-1.5 1.4-2.6.3-3.4-.9-.6-2.5-1.1-3.9-1.2zm20.8-157.6c3.3 1.6 12.1 5.7 13.6 6.5 1.9 1 3.6 2.3 5 3.9 1 1.1 1.8 2.3 2.6 3.6 1.7 2.6 0 5.3-4.4 8.1-3.5 2.2-8.6 4.4-15.4 6.8-3.4 1.2-13.8 4.6-14.8 5-4.6 1.6-10.4.1-17.7-4.1-2.8-1.6-5.6-3.5-9.1-5.9-1.6-1.1-6.7-4.8-7.5-5.4-1.9-1.4-4-2.8-6.1-4-3.4-1.8-3.1-4.6.1-8.4 2.3-2.7 2.9-3.2 12.7-11.3 2.1-1.7 4.2-3.5 6.2-5.4 1.1-1 2.2-2.1 3.3-3.2 3.6-3.8 6.9-4.5 10.5-2.7 1.6.8 3.2 2 5.2 3.8 1 1 4.9 4.7 5.6 5.3 3.9 3.5 6.9 5.8 10.2 7.4zm-.4 1.1c-3.4-1.7-6.4-4-10.1-7.5-.7-.7-4.5-4.4-5.6-5.4-2-1.8-3.5-3-5-3.8-3.3-1.6-6.3-1-9.6 2.6l-3.3 3.3c-1.7 1.6-3.6 3.2-6.2 5.4-9.7 8.1-10.3 8.7-12.5 11.3-3 3.6-3.2 5.9-.3 7.4 1.6.8 3.4 2.1 6.1 4 .8.6 5.9 4.4 7.5 5.5 2.9 2.1 5.9 4.1 9 5.9 7 4.1 12.6 5.6 16.9 4 1-.4 11.3-3.8 14.7-5 6.8-2.4 11.8-4.6 15.2-6.8 4.1-2.6 5.5-5 4.1-7.2-.8-1.2-1.6-2.4-2.6-3.6-1.3-1.6-2.9-2.8-4.7-3.8-1.6-.5-10.3-4.7-13.6-6.3zm-26.6 5.6c2.2-.3 4-.1 5.9.5 1.5.5 1.9.7 6 2.7 3.3 1.6 5.9 2.7 9.2 3.9 5.9 2.1 7.9 4.4 6.2 6.9-1.5 2.1-5.6 4.2-12.5 6.5-5.9 2-10.8 1.7-15-.6-3.2-1.8-5.8-4.6-8.5-8.7-2-3.1-1.9-5.8.1-7.9 1.8-1.7 4.9-2.8 8.6-3.3zm-.5 1c-3.6.4-6.6 1.5-8.2 3-1.8 1.7-1.9 4 0 6.8 2.6 3.9 5.2 6.6 8.3 8.3 4 2.1 8.8 2.5 14.6.6 6.8-2.2 10.9-4.2 12.3-6.1 1.4-1.9-.4-3.8-5.9-5.7-3.4-1.2-6-2.3-9.4-3.9-4.1-1.9-4.5-2.1-6-2.6-1.9-.5-3.8-.6-5.7-.4zM142 350.1c0 3.3-1 5.2-3.1 6.1-1.6.7-3.2.8-7.6.8H130c-6.5 0-12-5.2-12-10.6 0-5.2 7.5-7.2 13.9-3.7 2 1.1 3 1.3 6 1.9 3.2.6 4.1 1.5 4.1 5.5zm-1 .5c0-3.7-.6-4.4-3.4-4.9-3.1-.6-4.1-.9-6.1-2-5.9-3.3-12.6-1.5-12.6 3.2 0 5.1 5.1 10.1 11 10.1h1.2c4.2 0 5.7-.1 7.1-.8 1.9-.8 2.8-2.5 2.8-5.6zm22.8-82.8c2.6-.9 6.1-1.9 11.3-3.2 1.8-.5 11.6-2.8 14.4-3.5 13.7-3.4 22.1-6.2 26.8-9.3 10.5-7 25.9-23.7 30.8-33.4 1.6-3.1 3.3-4.5 5.4-4.4.9 0 1.8.3 3 .8.8.4 1.7.8 2.5 1.2l.9.4c3.4 1.6 5.9 2.4 8.9 2.4 5.1 0 7 2.1 5.9 5.5-1 2.8-4.2 6.2-7.8 8.4-5.8 3.5-8.2 12.1-8.2 23.5 0 2.5-1 4.4-2.8 5.8-1.4 1.1-2.9 1.8-5.9 2.9l-.7.3c-3.4 1.2-4.9 1.9-6.1 3.1-3.6 3.6-8.8 5-14.3 5-1 0-1.7.6-2.8 2.2-.2.3-.9 1.4-1 1.5-1.9 2.7-3.5 4-6 4-5.5 0-7.5.7-15.3 4.9-3.6 2-6.2 2.5-10.3 2.6h-.6c-3.4 0-5 .2-7.4.9-2.1.7-4.2 1.5-6.2 2.5-1.5.7-7.4 3.5-7.2 3.4-5.5 2.6-9.3 4.2-13.3 5.3-8.7 2.5-13 1.6-19.2-2.8-1.8-1.3-1.9-3.1-.6-5.3 1-1.7 2.7-3.6 5.7-6.3l1.2-1.1c2.8-2.5 3.1-2.9 4.1-3.9 1.6-1.6 2.2-2.4 3.8-5.3 1.4-2.3 2.4-3.6 4.4-4.9 1.6-1.2 3.8-2.2 6.6-3.2zm.5.2c-2.8 1-4.9 2-6.4 3-1.9 1.3-2.9 2.5-4.2 4.7-1.7 2.9-2.3 3.8-3.9 5.5-1 1-1.4 1.4-4.2 3.9l-1.2 1.1c-2.9 2.7-4.6 4.5-5.5 6.1-1.2 2-1.1 3.4.4 4.4 6 4.3 10.1 5.2 18.6 2.8 3.8-1.1 7.7-2.7 13.1-5.3-.2.1 5.6-2.7 7.2-3.4 2-1 4.1-1.8 6.3-2.5 2.5-.8 4.1-.9 7.5-1h.6c4-.1 6.4-.6 9.9-2.5 7.8-4.3 9.9-5 15.5-5 2.2 0 3.6-1.1 5.4-3.7l1-1.5c1.2-1.7 2.1-2.5 3.4-2.5 5.3 0 10.3-1.4 13.7-4.8 1.3-1.3 2.8-2 6.3-3.3l.7-.3c6-2.2 8.2-4 8.2-8.1 0-11.7 2.5-20.5 8.6-24.2 3.5-2.1 6.5-5.4 7.4-8.1 1-2.9-.6-4.6-5.2-4.6-3.1 0-5.7-.8-9.1-2.5-5.3-2.6-4.7-2.3-6.1-2.4-1.8-.1-3.2 1.1-4.7 4-4.9 9.9-20.3 26.8-30.9 33.8-4.8 3.2-13.2 6-26.9 9.5-2.8.7-12.6 3.1-14.4 3.5-5.1 1.5-8.6 2.5-11.1 3.4zm12 3c1.5 0 2.8-.1 5.1-.5 3.7-.5 4.7-.6 5.9-.3 1.8.4 2.7 1.6 2.7 4 0 2.8-1.6 5.1-4.7 7-2.3 1.5-4.6 2.5-10 4.4l-.2.1-1.6.6c-2.1.8-3.7 1.8-6.6 3.8l-.6.4c-5.8 4.1-9.4 5.6-16.2 5.6-3.5 0-4.8-1.4-4-3.9.6-2 2.5-4.6 5.5-7.7.9-1 1.9-1.9 2.9-3 2.2-2.2 7.9-7.4 8.1-7.5.3-.3.7-.6 1-.9 2.4-1.9 4.1-2.1 10-2 1.2-.1 1.9-.1 2.7-.1zm-.1 1h-2.6c-5.7-.1-7.2.1-9.4 1.9-.3.2-.6.5-.9.8-.1.1-5.8 5.4-7.9 7.6-1 1-1.9 2-2.9 3-2.9 3.2-4.7 5.7-5.3 7.6-.6 2 .3 3.1 3.3 3.1 6.6 0 10-1.5 15.6-5.5l.6-.4c2.9-2.1 4.5-3.1 6.6-3.9l1.6-.6.2-.1c5.2-2 7.5-3 9.7-4.4 2.8-1.9 4.3-4 4.3-6.5 0-2-.7-3-2.1-3.3-1.1-.3-2.1-.2-5.6.4-2.4.1-3.7.3-5.2.3zm78.9-31.9c-1.3 3.8-1.4 4.8-.7 9 .8 5-1 11.7-3.8 11.7h-1.5c-2 .1-3.4.1-4.8-.1-4.6-.7-7.2-3.6-7.2-9.5 0-9.8 1.5-13.9 5.7-18.6.7-.8 1.3-1.7 1.8-2.7.4-.7 1.9-3.6 1.9-3.5 3.1-5.8 5.4-8.1 8.5-7.4.8.2 1.5.5 2.5 1.1l1 .6c.7.4 1.4.8 2.2 1.1.5.2 1.3.2 3.3.2h.5c2.2 0 3.3.1 4.1.5 1.1.6.8 1.8-.8 3.5l-2.7 2.7c-7.6 7.2-9.1 8.8-10 11.4zm-.1-.2c.9-2.7 2.4-4.3 10.1-11.5 1.1-1 1.9-1.8 2.7-2.6 1.4-1.4 1.5-2 1-2.3-.6-.3-1.7-.4-3.8-.4h-.5c-2.2 0-3 0-3.6-.2-.7-.3-1.4-.6-2.3-1.2l-1-.6c-.7-.5-1.5-.8-2.3-1-2.7-.7-4.9 1.5-7.9 6.9 0-.1-1.5 2.8-1.9 3.5-.5 1-1.2 1.9-1.9 2.7-4.1 4.5-5.6 8.4-5.6 17.9 0 5.4 2.5 8 6.8 8.7 1.4.2 2.8.2 4.7.1h1.6c2.3 0 4-6.2 3.2-10.7-.8-4.4-.7-5.4.7-9.3zm-6.7 8.8c.4.4 1.7 1.4 1.7 1.4 1.3 1.1 1.4 2.4 0 4.6-2.5 4.1-6 2.3-6-3.3 0-2.8.3-4.1 1.4-4.4.8-.1 1.4.3 2.9 1.7zm-1.5.6c-.9-1-1.4-1.3-1.5-1.3-.1 0-.3.9-.3 3 0 4.3 1.7 5.2 3.3 2.5.9-1.6.9-2.1.3-2.7-.1 0-1.3-1-1.8-1.5zm156.6-90.2c1.6-.8 2.6-1.2 4.2-1.6l.2-.1c2.1-.6 4.2-1.4 6.2-2.5 2.9-1.4 4.5-1.3 4.9.6.3 1.4.1 2.8-.9 8.8-1.6 9.5-6.5 18.2-14.9 25.2-3 2.5-5.2 3-6.9 1.7-1.3-1.1-2.2-3.2-3.3-7.3l-1.2-4.8c-.5-2.2-1.2-4.3-1.9-6.4-1.7-4.7-2.1-7.5-1.5-9 .5-1.3 1.5-1.6 4-1.7 1.1-.1 1.5-.1 2.1-.2l1.4-.2c.5-.1.9-.1 1.2-.2.8-.1 1.4-.3 1.9-.4 1.1-.3 2.3-.8 4.5-1.9zm.3 0c-2.2 1.1-3.4 1.6-4.6 2-.6.2-1.2.3-1.9.4-.9.2-1.8.3-2.6.4-.5.1-1 .1-2 .2-2.2.1-2.9.4-3.3 1.3-.5 1.3-.1 3.9 1.5 8.6.7 2.1 1.4 4.3 1.9 6.5l1.2 4.9c1 4 1.8 6 3 7 1.3 1.1 3.1.7 5.9-1.7 8.2-7 12.9-15.6 14.4-25 1-5.9 1.1-7.4.9-8.6-.3-1.3-1.3-1.4-3.8-.1-2 1-4 1.9-6.2 2.5l-.2.1c-1.6.3-2.9.9-4.2 1.5zm-3.4 4.8c1-.2 1.8-.5 2.8-1l2.4-1.2c1.1-.5 2.1-.9 3.3-1.3 1.9-.6 3.3-.5 4.2.3.7.7 1 1.6 1 2.9v1c0 3.9-3.3 11.8-8.1 15.9-3.1 2.7-5.2 3.3-7.1 1.8-1.5-1.2-2.5-3.2-4.7-9-1.3-3.4-1.5-5.7-.5-7.1.8-1.2 2.1-1.6 4.1-1.9l.9-.1c.9-.2 1.3-.2 1.7-.3zm-1.9 1.2l-.9.1c-1.7.2-2.6.5-3.1 1.3-.7 1-.6 2.8.6 5.8 2.1 5.4 3.1 7.4 4.3 8.4 1.2.9 2.6.5 5.2-1.7 4.4-3.8 7.5-11.2 7.5-14.7v-.9c0-1-.2-1.6-.6-1.9-.4-.4-1.3-.4-2.7 0-1.1.3-2.1.8-3.2 1.2-.5.2-2.1 1-2.3 1.1-1 .5-2 .8-3 1.1-.5 0-.9.1-1.8.2zm-159.3-61.9c-1.1 3-2.5 5.1-5 8l-1.8 2.1c-.6.7-1.2 1.5-1.8 2.3-1.3 1.6-2.4 3.4-3.3 5.2-2 4-5 7.1-9 9.7-3 1.9-5.8 3.2-11 5.3-7.7 3.1-11.5.9-19-11.5-2-3.3-6.2-6-12.6-8.8-2.1-.9-9-3.7-10.1-4.1-3.5-1.5-4.9-2.6-4.5-4.1.5-1.6 3.7-2.8 10.8-4.2 11.6-2.3 18.8-2.7 27.9-2.1 5.5.3 6.8.3 8.9-.2 1.4-.3 2.7-.9 4.2-1.8l2-1.2c6.9-4.3 9-5.6 12.1-6.9 4.2-1.9 7.4-2.3 9.7-1 5.1 2.8 5.5 5.3 2.5 13.3zm-.9-.9c2.8-7.4 2.5-9.2-1.8-11.7-1.9-1.1-4.6-.7-8.5 1-3 1.3-5.1 2.6-11.9 6.8l-1.9 1.2c-1.4.9-3 1.6-4.6 2-2.3.6-3.6.6-9.3.2-9-.5-16-.2-27.5 2.1-3.4.7-5.9 1.3-7.5 1.9-1.4.5-2.1 1-2.2 1.3-.1.4 1 1.2 3.7 2.4 1 .5 7.9 3.2 10.1 4.1 6.6 2.9 11 5.8 13.2 9.4 7.2 11.8 10.4 13.6 17.3 10.9 5.1-2 7.8-3.3 10.7-5.2 3.8-2.5 6.6-5.4 8.5-9.1 1-2 2.1-3.8 3.4-5.4.6-.8 1.2-1.6 1.9-2.3l1.8-2.1c2.3-2.8 3.6-4.7 4.6-7.5zm-4.9.4c-5.5 9.1-12.9 15.4-23.1 17.9-5.4 1.3-8.7-.6-9.1-4.2-.4-3.2 1.6-6.4 4.2-6.4 2.1 0 3.9-1.2 10.7-6.5 1-.8 1.8-1.4 2.5-1.9 3.1-2.3 5.4-3.7 7.5-4.3 3.9-1.2 6.5-1.5 7.9-.9 1.7.7 1.5 2.9-.6 6.3zm-.9-.2c1.9-3 2.1-4.7.9-5.2-1.2-.5-3.7-.2-7.5.9-2 .6-4.4 1.9-7.4 4.1-.8.5-1.5 1.1-2.6 1.9-7.1 5.3-8.9 6.5-11.2 6.5-2.1 0-3.9 2.8-3.5 5.5.4 3.1 3.2 4.7 8.4 3.5 10.1-2.4 17.4-8.5 22.9-17.2zm90.4-78.7c9.7 3.5 14.5 3.5 22.1 0 2.1-1 3.8-2 7.7-4.7 3.9-2.7 5.6-3.8 7.8-4.8 2.9-1.3 5.4-1.7 7.8-.9 2.7.9 4.3 8.6 4.7 19.8.3 9.9-.4 20.1-1.7 23.8-1.3 3.4-4.1 5.7-8 7-2.9.9-6 1.3-9 1.3-4 0-6.3 1.7-8.5 5.3-.3.4-1.1 1.8-1.2 2-1.2 2-2.1 3-3.4 3.4-.7.2-1.4.6-2.7 1.2l-1.7.9c-.7.4-1.3.7-1.9.9-4.5 2.2-8.2 3.3-12 3.3-4 0-7 1.5-9.8 4.1-.8.8-2.9 3.2-3.2 3.4-1.8 1.7-4.1 3-7.6 4.2-1 .4-4.2 1.5-4.4 1.5l-1.4.5c-.6.3-1.2.4-1.9.6-3.9.8-7.8-.4-12.6-3.1-.9-.5-3.6-2.1-4-2.4-1.4-.8-2.9-1.1-6.3-1.3l-1.2-.1c-3.3-.3-5.4-.8-7.1-2.1-3.5-2.5-4.7-5.4-3.9-8.6.9-3.8 4.5-7.7 10.4-12 1.5-1.1 3-2.2 4.5-3.2-.2.2 3-2 3.7-2.5 1.9-1.3 3.4-2.7 8.9-8.4l.8-.8c2.4-2.5 4.1-4.1 5.7-5.5 2-1.7 3.3-4.1 5.2-9.1l.4-1.1c1.9-4.8 3-7 4.8-8.6 1-.9 4.7-4.6 5.5-5.2 2.6-1.8 5.5-1.6 13.5 1.2zm-.7.1c-7.9-2.8-10.5-3-13-1.1-.8.6-4.5 4.3-5.5 5.2-1.7 1.5-2.8 3.6-4.6 8.4l-.4 1.1c-2 5.1-3.3 7.6-5.4 9.4-2.2 2-4.4 4-6.4 6.2-5.6 5.7-7.1 7.1-9 8.5-.7.5-4 2.7-3.7 2.5-1.8 1.2-3.2 2.2-4.5 3.2-5.7 4.3-9.3 8.1-10.1 11.7-.7 2.9.4 5.5 3.7 7.9 1.7 1.2 3.6 1.7 6.8 2l1.2.1c3.6.3 5.1.5 6.7 1.4.5.3 3.2 1.9 4 2.4 4.7 2.6 8.4 3.8 12.1 3 .6-.1 1.2-.3 1.8-.5l1.5-.6c.2-.1 3.4-1.2 4.4-1.6 3.4-1.3 5.7-2.5 7.4-4.1.3-.3 2.4-2.7 3.2-3.5 2.9-2.8 6.1-4.3 10.3-4.3 3.7 0 7.3-1.1 11.7-3.2.6-.3 1.2-.6 1.9-.9.1 0 1.4-.7 1.7-.9 1.3-.7 2.1-1 2.8-1.3 1.1-.4 1.9-1.3 3.1-3.2l1.2-2c2.4-3.8 4.8-5.7 9.2-5.7 3.1 0 6.1-.3 8.9-1.2 3.8-1.2 6.4-3.4 7.6-6.6 1.3-3.6 2-13.8 1.7-23.7-.4-10.9-2-18.5-4.3-19.2-2.2-.7-4.6-.4-7.4.9-2.1 1-3.8 2.1-7.7 4.8-3.9 2.7-5.6 3.8-7.8 4.8-8.2 3.6-13.2 3.6-23.1.1zm9.9 14.9c3.8 0 5.3-.1 6.8-.7.9-.3 6.9-3.3 10.4-4.9 1.3-.6 2.5-1.7 4.6-4.2 1.8-2.1 2.2-2.6 3.1-3.4 2.6-2.3 4.9-2.3 7.1.9 4.3 6.2 3.9 11.1 0 18.8-.6 1.2-1.2 2.5-1.7 3.8-.2.6-.7 1.9-.8 2-.1.3-.2.6-.4.8-.4.8-1.1 1.5-2.8 3.3-1.7 1.7-3.6 2.3-8.1 3-1.3.2-1.5.3-2.1.4-4.2.8-6.7 1.9-8.5 4.2-2.5 3.2-5.5 5.2-10.4 7.5-.4.2-.8.3-1.3.6l-1.2.6c-1.9.8-3.6 1.7-5.4 2.7-1.8 1.1-3.3 1.6-6.6 2.4-6 1.4-8.6 2.6-12.1 6.5-3.6 3.9-7.1 5.3-11.6 4.7-3.7-.6-7.4-2.1-16.4-6.6-4.4-2.2-4.5-5.4-1-9.5 2.4-2.7 2.5-2.8 13.5-11.5 5.7-4.4 9-7.4 11.6-10.4 1.8-2.1 2.9-4 3.5-5.8 3.8-12.8 8.7-15.3 15.9-10.9 1.4.9 4.6 3.2 5 3.4 2.1 1.7 4.3 2.3 8.9 2.3zm.1.9c-4.8 0-7.3-.6-9.9-2.3-.4-.3-3.7-2.6-5-3.4-6.4-3.9-10.3-1.9-13.9 10-.6 2-1.9 4.1-3.8 6.3-2.7 3.1-6.1 6.1-11.9 10.5-11 8.5-11.2 8.6-13.4 11.2-2.9 3.4-2.9 5.6.6 7.3 8.9 4.4 12.6 5.9 16.1 6.5 4.1.6 7.2-.6 10.5-4.2 3.8-4.1 6.6-5.4 12.9-6.9 3.1-.7 4.6-1.2 6.2-2.2 1.8-1.1 3.7-2 5.6-2.8l1.3-.6 1.3-.6c4.8-2.2 7.7-4.1 10-7 2.1-2.7 4.9-3.9 9.5-4.7.6-.1.9-.1 2.1-.4 4.3-.7 6-1.2 7.4-2.6 1.7-1.6 2.3-2.3 2.6-3 .1-.2.2-.4.3-.7 0-.1.5-1.4.8-2 .5-1.1 1-2.4 1.8-3.9 3.7-7.3 4.1-11.7 0-17.4-1.7-2.4-3.1-2.4-5.1-.6-.8.7-1.2 1.2-3 3.2-2.3 2.7-3.5 3.9-5.1 4.6-3.4 1.5-9.6 4.5-10.6 4.9-1.8.6-3.4.8-7.3.8zm-8.3 5.9c3.8 2.8 7.3 2.6 12.8.6 3.8-1.4 4.2-1.5 5.4-1.5 1.8 0 3 1 3.7 3.2 1.2 3.5-1.6 6-8.6 9-1.9.8-11.4 4.4-14.1 5.5-5.5 2.3-9.8 4.6-13.3 7.2-9.2 7-12.9 8.5-16.7 6.9-.9-.4-1.7-.9-2.5-1.4l-1.4-.9c-.5-.3-1-.7-1.6-1-2.3-1.4-2-3 .6-5.2.9-.8 7.5-5.4 9.5-7 5-4 8.4-8.1 10.1-13 2.2-6 3.4-8.6 4.8-9.5 1.2-.8 2.4-.4 4.3 1.3.4.4 2.4 2.2 2.9 2.6 1.5 1.2 2.7 2.2 4.1 3.2zm-.5.7c-1.4-1-2.6-2-4-3.2-.5-.4-2.4-2.2-2.9-2.6-1.7-1.5-2.6-1.8-3.5-1.3-1.2.8-2.4 3.3-4.5 9-1.8 4.9-5.2 9.1-10.3 13.1-2 1.6-8.5 6.1-9.4 6.9-2.2 1.9-2.5 2.9-.7 4l1.6 1 1.4.9c1 .6 1.7 1 2.4 1.3 3.4 1.4 6.9 0 15.8-6.7 3.5-2.6 7.8-4.9 13.3-7.2 2.6-1.1 12-4.6 13.9-5.4 6.6-2.8 9.2-5 8.2-8-.6-1.9-1.6-2.7-3-2.6-1.1 0-1.5.1-5.1 1.4-5.5 2.2-9.1 2.3-13.2-.6z" fill="#e2ccc7"/></svg>