<?xml version="1.0" encoding="utf-8"?>
<!-- Generator: Adobe Illustrator 22.0.0, SVG Export Plug-In . SVG Version: 6.00 Build 0)  -->
<svg version="1.1" id="Calque_1" xmlns="http://www.w3.org/2000/svg" xmlns:xlink="http://www.w3.org/1999/xlink" x="0px" y="0px"
	 viewBox="0 0 260 260" enable-background="new 0 0 260 260" xml:space="preserve">
<linearGradient id="SVGID_1_" gradientUnits="userSpaceOnUse" x1="48.2482" y1="173.8345" x2="123.2939" y2="237.3158">
	<stop  offset="0" style="stop-color:#FFC171"/>
	<stop  offset="1" style="stop-color:#FF616E"/>
</linearGradient>
<path fill="none" stroke="url(#SVGID_1_)" stroke-width="19" stroke-miterlimit="10" d="M113.8,231.7l-17.5,10.7
	c-12.5,7.7-29,3.7-36.7-8.8l-10.7-17.5c-7.7-12.5-3.7-29,8.8-36.7l17.5-10.7c12.5-7.7,29-3.7,36.7,8.8l10.7,17.5
	C130.3,207.6,126.3,224.1,113.8,231.7z"/>
<linearGradient id="SVGID_2_" gradientUnits="userSpaceOnUse" x1="21.3927" y1="56.4531" x2="98.8305" y2="121.9578">
	<stop  offset="0" style="stop-color:#FFC171"/>
	<stop  offset="1" style="stop-color:#FF616E"/>
</linearGradient>
<circle fill="none" stroke="url(#SVGID_2_)" stroke-width="19" stroke-miterlimit="10" cx="60.1" cy="89.2" r="41.2"/>
<linearGradient id="SVGID_3_" gradientUnits="userSpaceOnUse" x1="118.4855" y1="38.1521" x2="214.903" y2="119.7117">
	<stop  offset="0" style="stop-color:#FFC171"/>
	<stop  offset="1" style="stop-color:#FF616E"/>
</linearGradient>
<polygon fill="none" stroke="url(#SVGID_3_)" stroke-width="19" stroke-miterlimit="10" points="157.3,114.9 157.1,23 230.2,78.8 
	"/>
<linearGradient id="SVGID_4_" gradientUnits="userSpaceOnUse" x1="174.25" y1="168.1976" x2="238.2301" y2="222.3184">
	<stop  offset="0" style="stop-color:#FFC171"/>
	<stop  offset="1" style="stop-color:#FF616E"/>
</linearGradient>
<path fill="none" stroke="url(#SVGID_4_)" stroke-width="19" stroke-miterlimit="10" d="M234.2,164.3c9.2,14.4-6.1,61.8-20.5,71
	c-14.4,9.2-34-3.2-43.2-17.6c-9.2-14.4-0.5-35.4,15.5-45.6C200.4,162.8,225,149.9,234.2,164.3z"/>
</svg>
