<?xml version="1.0" encoding="utf-8"?>
<!-- Generator: Adobe Illustrator 22.0.0, SVG Export Plug-In . SVG Version: 6.00 Build 0)  -->
<svg version="1.1" id="Layer_1" xmlns="http://www.w3.org/2000/svg" xmlns:xlink="http://www.w3.org/1999/xlink" x="0px" y="0px"
	 viewBox="0 0 332 46.5" style="enable-background:new 0 0 332 46.5;" xml:space="preserve">
<style type="text/css">
	.st0{fill:#163F3D;}
	.st1{fill:#FFFFFF;}
</style>
<image style="overflow:visible;" width="112" height="113" xlink:href="E023CED70D36816E.png"  transform="matrix(1 0 0 1 -26 -29.5)">
</image>
<g>
	<path class="st0" d="M10.4,32.6c-0.3,0.5-0.7,1-1.1,1.4c-0.7,0.7-1.5,0.9-2.5,0.5C6.4,34.3,6,34,5.7,33.6c-0.4-0.5-0.7-1-1-1.5
		c-0.4-0.6-0.8-1.3-1.3-1.9C2.8,29.5,2,29,1.1,28.8c-0.3-0.1-0.6-0.1-0.9-0.1c0,0.6,0,1.1,0,1.6c0.3,0.1,0.5,0.1,0.7,0.2
		c0.5,0.2,0.9,0.5,1.3,1C2.6,31.9,3,32.4,3.4,33c0.5,0.7,0.9,1.4,1.5,2c1.2,1.2,2.6,1.5,4.2,0.9c0.8-0.3,1.5-0.9,2-1.6
		c0.2-0.3,0.4-0.5,0.5-0.8c-0.2-0.6-0.4-1.3-0.6-1.9C10.8,32,10.6,32.3,10.4,32.6z"/>
	<path class="st0" d="M59.3,28.8c-1,0.2-1.7,0.7-2.3,1.5c-0.5,0.6-0.9,1.3-1.3,1.9c-0.4,0.6-0.8,1.2-1.3,1.7
		c-0.8,0.7-1.8,0.9-2.7,0.5c-0.5-0.2-0.8-0.5-1.1-0.9c-0.4-0.6-0.8-1.2-1.2-1.8c-0.2,0.7-0.4,1.3-0.6,1.9c0.2,0.3,0.5,0.7,0.7,1
		c0.6,0.8,1.3,1.3,2.3,1.5c0.2,0.1,0.5,0.1,0.8,0.1c0.1,0,0.2,0,0.3,0H53c0.9,0,1.6-0.4,2.3-0.9c0.6-0.5,1.1-1.2,1.6-1.9
		c0.4-0.7,0.9-1.4,1.4-2s1.1-1.1,1.9-1.1c0.1,0,0.1,0,0.1-0.1c0-0.3,0-0.7,0-1c0-0.2,0-0.3,0-0.5C59.8,28.8,59.5,28.8,59.3,28.8z"/>
	<path class="st0" d="M2.1,2.8C2.5,3.4,2.9,4,3.3,4.6C3.8,5.3,4.2,6,4.8,6.5C6,7.6,7.7,7.9,9.2,7.2c0.8-0.4,1.4-1,1.9-1.7
		c0.4-0.6,0.8-1.3,1.2-1.9c0.3-0.5,0.7-1,1.2-1.5c0.6-0.5,1.3-0.7,2-0.6c0.6,0.1,1.1,0.5,1.5,1c0.4,0.5,0.8,1.1,1.1,1.6
		c0.5,0.8,1,1.6,1.7,2.2c1,1,2.3,1.3,3.7,1c0.9-0.2,1.7-0.8,2.3-1.5C26.2,5.4,26.6,4.7,27,4c0.4-0.6,0.8-1.2,1.3-1.7
		c0.9-0.9,2.2-0.9,3.2-0.1c0.2,0.2,0.4,0.4,0.6,0.6c0.5,0.7,0.9,1.3,1.3,2c0.4,0.7,0.9,1.3,1.5,1.8c0.9,0.8,2,1.1,3.2,0.9
		c1-0.2,1.7-0.7,2.4-1.4c0.6-0.6,1-1.3,1.4-2c0.4-0.6,0.8-1.2,1.2-1.7c0.6-0.7,1.4-1,2.4-0.8c0.6,0.1,1,0.5,1.3,0.9
		c0.5,0.6,0.9,1.2,1.3,1.9c0.4,0.7,0.9,1.4,1.5,2c1,1,2.2,1.4,3.6,1.1c0.9-0.2,1.6-0.7,2.2-1.3c0.6-0.6,1-1.2,1.4-1.9
		c0.3-0.5,0.7-1,1-1.5c0.5-0.6,1.1-1.1,2-1.1c0.1,0,0.1-0.1,0.1-0.1c0-0.3,0-0.6,0-0.9c0-0.2,0-0.4,0-0.6c-0.3,0.1-0.7,0.1-1,0.2
		C58,0.5,57.3,1,56.7,1.7c-0.5,0.6-0.9,1.3-1.4,2c-0.4,0.6-0.8,1.2-1.3,1.7C53.5,6,52.8,6.2,51.9,6c-0.6-0.1-1-0.5-1.4-0.9
		c-0.5-0.6-0.9-1.3-1.3-2c-0.5-0.7-0.9-1.4-1.5-2c-1.2-1.1-2.9-1.4-4.3-0.7c-0.9,0.4-1.4,1-1.9,1.6s-0.9,1.3-1.3,2
		c-0.3,0.5-0.7,1-1.1,1.4c-0.6,0.5-1.2,0.7-2,0.6c-0.6-0.1-1.1-0.4-1.5-0.9c-0.5-0.6-0.9-1.2-1.3-1.9c-0.5-0.7-0.9-1.4-1.5-2
		c-1.1-1.1-2.4-1.4-3.9-1C28,0.4,27.3,1,26.8,1.7s-1,1.4-1.4,2.1c-0.4,0.5-0.7,1.1-1.2,1.5c-0.7,0.7-1.5,0.9-2.5,0.6
		c-0.5-0.2-0.9-0.6-1.2-1c-0.5-0.7-0.9-1.4-1.4-2.1c-0.4-0.6-0.8-1.2-1.4-1.7c-0.7-0.6-1.5-1-2.4-1.1c-1.3-0.1-2.4,0.4-3.2,1.3
		c-0.6,0.6-1,1.3-1.5,2C10.2,4,9.8,4.6,9.3,5.2C8.6,5.9,7.9,6.2,7,5.9C6.4,5.8,6,5.5,5.6,5.1C5.2,4.6,4.8,4,4.4,3.4
		C4,2.7,3.6,2.1,3.1,1.5C2.5,0.8,1.7,0.3,0.8,0.1C0.6,0.1,0.5,0,0.3,0C0.2,0,0.1,0,0,0c0,0.5,0,1.1,0,1.6c0.3,0,0.5,0.1,0.8,0.1
		C1.4,1.9,1.8,2.3,2.1,2.8z"/>
	<path class="st0" d="M49.6,20.6c0.8,0.8,1.7,1.3,2.8,1.3s2-0.4,2.8-1.1c0.6-0.5,1-1.2,1.5-1.9c0.4-0.6,0.8-1.3,1.3-1.9
		s1.1-1.1,2-1.1l0.1-0.1c0-0.5,0-1,0-1.5c-0.2,0-0.5,0-0.7,0.1c-0.9,0.2-1.7,0.6-2.3,1.3c-0.6,0.6-1,1.4-1.5,2.1
		c-0.4,0.6-0.8,1.3-1.3,1.8c-0.6,0.6-1.4,0.9-2.2,0.7c-0.6-0.1-1-0.5-1.3-0.9c-0.5-0.5-0.8-1.1-1.2-1.7c-0.5-0.8-1-1.5-1.6-2.2
		c-0.6-0.6-1.3-0.9-2-1.1c1.1,1.5,2.1,3.1,2.8,4.8C48.9,19.8,49.2,20.2,49.6,20.6z"/>
	<path class="st0" d="M12.2,15.7c-0.5,0.6-1,1.2-1.4,1.9s-0.8,1.4-1.4,2c-1,1.1-2.4,1.1-3.5,0.1c-0.4-0.4-0.7-0.9-1-1.3
		C4.4,17.7,4,17,3.5,16.3C3,15.6,2.3,15,1.4,14.7c-0.4-0.1-0.8-0.2-1.3-0.2c0,0.5,0,1,0,1.6c0.2,0,0.3,0,0.5,0.1
		c0.6,0.1,1.1,0.5,1.5,1c0.5,0.6,0.9,1.3,1.3,1.9c0.4,0.7,0.9,1.4,1.5,1.9c1.2,1.1,2.6,1.4,4.2,0.9c0.8-0.3,1.4-0.8,1.8-1.5
		c0.5-0.6,0.9-1.3,1.3-1.9c0.1-0.2,0.3-0.4,0.4-0.6c0.6-1.2,1.3-2.3,2.1-3.3C13.7,14.5,12.9,14.9,12.2,15.7z"/>
</g>
<g>
	<path class="st0" d="M93.7,36h-11V10.8h9.8c1.7,0,3.2,0.2,4.4,0.6s2.2,1,2.8,1.7c1.1,1.3,1.7,2.8,1.7,4.4c0,2-0.6,3.4-1.9,4.4
		c-0.4,0.3-0.7,0.5-0.9,0.6c-0.2,0.1-0.5,0.2-0.9,0.4c1.6,0.3,2.8,1,3.7,2.1c0.9,1.1,1.4,2.4,1.4,4c0,1.8-0.6,3.3-1.8,4.6
		C99.6,35.2,97.2,36,93.7,36z M88.3,21H91c1.6,0,2.7-0.2,3.5-0.5s1.1-1.1,1.1-2.2s-0.3-1.9-1-2.2c-0.7-0.4-1.9-0.5-3.5-0.5h-2.7
		L88.3,21L88.3,21z M88.3,31.2h3.9c1.6,0,2.8-0.2,3.6-0.6c0.8-0.4,1.2-1.2,1.2-2.3c0-1.2-0.4-1.9-1.3-2.3s-2.2-0.6-4.1-0.6h-3.3
		L88.3,31.2z"/>
	<path class="st0" d="M107.5,10.8h5.6V36h-5.6V10.8z"/>
	<path class="st0" d="M125.2,15.9c-0.5,0.4-0.8,1-0.8,1.8s0.3,1.3,1,1.7c0.7,0.4,2.2,0.9,4.6,1.5c2.4,0.6,4.2,1.5,5.6,2.6
		c1.3,1.2,2,2.9,2,5.1c0,2.3-0.8,4.1-2.5,5.5c-1.7,1.4-3.9,2.1-6.7,2.1c-4,0-7.6-1.5-10.8-4.4l3.3-4.1c2.7,2.4,5.2,3.6,7.5,3.6
		c1,0,1.8-0.2,2.4-0.7c0.6-0.4,0.9-1,0.9-1.8s-0.3-1.4-0.9-1.8c-0.6-0.4-1.9-0.9-3.7-1.3c-2.9-0.7-5.1-1.6-6.4-2.7
		c-1.4-1.1-2-2.9-2-5.3s0.9-4.2,2.6-5.5s3.9-1.9,6.4-1.9c1.7,0,3.4,0.3,5,0.9c1.7,0.6,3.1,1.4,4.4,2.4l-2.8,4.1
		c-2.2-1.7-4.4-2.5-6.8-2.5C126.5,15.2,125.8,15.4,125.2,15.9z"/>
	<path class="st0" d="M153.9,31c2.8,0,5-1.1,6.8-3.3l3.6,3.7c-2.9,3.2-6.2,4.8-10.1,4.8s-7.1-1.2-9.6-3.7c-2.5-2.4-3.8-5.5-3.8-9.3
		c0-3.7,1.3-6.8,3.8-9.3s5.7-3.7,9.4-3.7c4.1,0,7.6,1.6,10.4,4.7l-3.5,4c-1.8-2.2-4-3.3-6.6-3.3c-2.1,0-3.9,0.7-5.4,2.1
		s-2.2,3.2-2.2,5.6s0.7,4.2,2.1,5.6S151.9,31,153.9,31z"/>
	<path class="st0" d="M186.4,36l-2.3-5.4h-10.5l-2.3,5.4h-6l10.9-25.2h5.4L192.4,36H186.4z M178.8,18.3l-3.2,7.3h6.3L178.8,18.3z"/>
	<path class="st0" d="M204.4,36h-5.6v-9.9L190,10.8h6.1l5.4,9.4l5.4-9.4h6.1L204.3,26L204.4,36L204.4,36z"/>
	<path class="st0" d="M242.6,13.1c1.8,1.5,2.6,3.8,2.6,6.9s-0.9,5.4-2.7,6.8s-4.6,2.2-8.3,2.2h-3.3v7h-5.6V10.8h8.9
		C238,10.8,240.9,11.6,242.6,13.1z M238.5,23c0.7-0.8,1-1.9,1-3.3s-0.4-2.5-1.3-3.1c-0.9-0.6-2.2-0.9-4.1-0.9h-3.2v8.5h3.8
		C236.6,24.1,237.8,23.7,238.5,23z"/>
	<path class="st0" d="M249.7,36V10.8h5.6V31H266v5H249.7z"/>
	<path class="st0" d="M288,36l-2.3-5.4h-10.5l-2.3,5.4h-6l10.9-25.2h5.4L294,36H288z M280.4,18.3l-3.2,7.3h6.3L280.4,18.3z"/>
	<path class="st0" d="M296.9,10.8h5.6V36h-5.6V10.8z"/>
	<path class="st0" d="M326.3,10.8h5.6V36h-5.6l-12-15.8V36h-5.6V10.8h5.3L326.3,27V10.8z"/>
</g>
<g>
	<path class="st1" d="M49.3,31.1c0,0.1,0,0.1,0,0.2c-0.4-0.6-0.8-1.3-1.4-1.8c-1.2-1-2.5-1.3-4-0.8c-0.8,0.3-1.5,0.9-2,1.6
		s-0.9,1.5-1.4,2.2c-0.4,0.5-0.7,1-1.2,1.4c-0.8,0.7-1.6,0.8-2.5,0.4c-0.5-0.2-0.8-0.5-1.1-0.9c-0.4-0.6-0.8-1.2-1.2-1.8
		C34,31,33.6,30.3,33,29.7c-1-1-2.3-1.3-3.7-1c-0.9,0.2-1.6,0.8-2.2,1.5c-0.5,0.7-1,1.5-1.5,2.2c-0.3,0.5-0.6,1.1-1.1,1.5
		c-0.6,0.6-1.3,0.9-2.1,0.7c-0.6-0.1-1-0.4-1.4-0.8c-0.5-0.6-0.9-1.2-1.3-1.9c-0.4-0.6-0.8-1.3-1.4-1.9c-1.2-1.1-2.5-1.5-4.1-1.1
		c-0.9,0.2-1.6,0.8-2.1,1.5c-0.4,0.4-0.7,0.9-1,1.4c0-0.2-0.1-0.3-0.1-0.5c0,0,0,0,0,0c0.2,0.7,0.4,1.5,0.6,2.2
		c0.1-0.1,0.3-0.1,0.4-0.1c0.2-0.3,0.4-0.5,0.6-0.9c0.3-0.5,0.7-1,1.1-1.4c0.7-0.6,1.4-0.8,2.3-0.6c0.6,0.2,1,0.5,1.4,1
		c0.4,0.5,0.8,1.1,1.2,1.7c0.4,0.7,0.9,1.4,1.5,2c1.1,1.1,2.4,1.4,3.9,1c0.9-0.3,1.6-0.8,2.1-1.5c0.5-0.7,0.9-1.4,1.4-2.1
		c0.4-0.6,0.7-1.1,1.2-1.6c0.6-0.6,1.4-0.8,2.3-0.6c0.5,0.2,1,0.6,1.3,1c0.5,0.6,0.9,1.2,1.3,1.8c0.5,0.7,1,1.4,1.6,2
		c0.9,0.9,2,1.2,3.3,1c1-0.2,1.8-0.7,2.4-1.4c0.5-0.6,1-1.3,1.4-2c0.4-0.6,0.7-1.2,1.2-1.7c1-1.1,2.4-1.1,3.5-0.1
		c0.4,0.5,0.8,1,1.1,1.6c0.2,0.3,0.4,0.6,0.7,1.1c0,0.1-0.1,0.2-0.1,0.3c0.1,0,0.1,0.1,0.2,0.1c0.3-0.8,0.6-1.6,0.8-2.4
		C49.5,31.5,49.4,31.3,49.3,31.1z"/>
	<path class="st1" d="M48.2,18.6c0.1,0.1,0.1,0.3,0.2,0.4c0.1-0.1,0.2-0.1,0.2-0.2c-0.7-1.6-1.6-3.2-2.7-4.5
		c-0.6-0.1-1.2-0.1-1.8,0.1c-0.8,0.2-1.5,0.7-2,1.4s-1,1.5-1.5,2.2c-0.3,0.5-0.7,1.1-1.1,1.5c-1,1-2.4,1-3.3,0.1
		c-0.2-0.2-0.4-0.4-0.6-0.7c-0.4-0.6-0.7-1.1-1.1-1.7c-0.5-0.7-0.9-1.4-1.5-1.9c-1.2-1-2.6-1.3-4.1-0.8c-0.8,0.2-1.4,0.8-1.9,1.4
		c-0.5,0.7-0.9,1.4-1.4,2.1c-0.4,0.5-0.7,1-1.2,1.5c-0.9,0.8-2.1,1-3,0.3c-0.3-0.2-0.6-0.5-0.8-0.8c-0.4-0.5-0.8-1.1-1.1-1.6
		c-0.5-0.7-0.9-1.4-1.5-2c-0.4-0.4-0.9-0.6-1.4-0.8c-0.5,0-1-0.1-1.4-0.3c-0.1,0-0.2,0-0.3-0.1c0,0,0,0,0,0c0,0,0,0,0,0
		c-0.6,0.7-1.1,1.4-1.6,2.2c0.1,0,0.3,0,0.4,0.1c0.3-0.3,0.7-0.5,1.2-0.5c0.8-0.1,1.5,0.2,2,0.8c0.5,0.6,0.9,1.2,1.3,1.8
		c0.5,0.7,0.9,1.4,1.5,2c0.7,0.7,1.6,1.2,2.6,1.3c1.3,0.1,2.4-0.3,3.3-1.3c0.6-0.7,1-1.5,1.5-2.2c0.4-0.6,0.8-1.3,1.4-1.8
		c0.9-0.9,2.1-0.9,3.1-0.1c0.2,0.2,0.4,0.5,0.6,0.7c0.4,0.6,0.7,1.1,1.1,1.7c0.5,0.7,0.9,1.4,1.5,2c0.9,0.9,2.1,1.3,3.4,1.1
		c1-0.2,1.8-0.7,2.4-1.4c0.5-0.6,1-1.3,1.4-2c0.3-0.6,0.7-1.2,1.2-1.7c0.7-0.7,1.5-1,2.4-0.8c0.5,0.1,0.9,0.5,1.3,0.9
		C47.5,17.4,47.8,18,48.2,18.6z"/>
</g>
</svg>
