<?xml version="1.0" encoding="utf-8"?>
<!-- Generator: Adobe Illustrator 22.0.0, SVG Export Plug-In . SVG Version: 6.00 Build 0)  -->
<svg version="1.1" id="Layer_1" xmlns="http://www.w3.org/2000/svg" xmlns:xlink="http://www.w3.org/1999/xlink" x="0px" y="0px"
	 viewBox="0 0 110.2 70.1" style="enable-background:new 0 0 110.2 70.1;" xml:space="preserve">
<style type="text/css">
	.st0{fill:#E99B86;}
	.st1{fill:#FFFFFF;stroke:#FFFFFF;stroke-miterlimit:10;}
	.st2{fill:#E99B86;stroke:#E99B86;stroke-miterlimit:10;}
</style>
<circle class="st0" cx="54.8" cy="41.6" r="28.5"/>
<g>
	<path class="st1" d="M89.9,48.7c0,0.2,0,0.2,0,0.3c-0.7-0.9-1.5-2-2.5-2.8c-2.2-1.5-4.5-2-7.3-1.2c-1.5,0.5-2.7,1.4-3.6,2.5
		s-1.6,2.3-2.5,3.4c-0.7,0.8-1.3,1.5-2.2,2.2c-1.5,1.1-2.9,1.2-4.5,0.6c-0.9-0.3-1.5-0.8-2-1.4c-0.7-0.9-1.5-1.9-2.2-2.8
		c-0.9-0.9-1.6-2-2.7-2.9c-1.8-1.5-4.2-2-6.7-1.5c-1.6,0.3-2.9,1.2-4,2.3c-0.9,1.1-1.8,2.3-2.7,3.4c-0.5,0.8-1.1,1.7-2,2.3
		c-1.1,0.9-2.4,1.4-3.8,1.1c-1.1-0.2-1.8-0.6-2.5-1.2c-1-1-1.8-2-2.5-3c-0.7-0.9-1.5-2-2.5-2.9c-2.2-1.7-4.5-2.3-7.4-1.7
		c-1.6,0.3-2.9,1.2-3.8,2.3c-0.7,0.6-1.3,1.4-1.8,2.2c0-0.3-0.2-0.5-0.2-0.8l0,0c0.4,1.1,0.7,2.3,1.1,3.4c0.2-0.2,0.5-0.2,0.7-0.2
		c0.4-0.5,0.7-0.8,1.1-1.4c0.5-0.8,1.3-1.5,2-2.2c1.3-0.9,2.5-1.2,4.2-0.9c1.1,0.3,1.8,0.8,2.5,1.5c0.7,0.8,1.5,1.7,2.2,2.6
		C35,53,35.9,54.1,37,55c2,1.7,4.4,2.2,7.1,1.5c1.6-0.5,2.9-1.2,3.8-2.3c0.9-1.1,1.6-2.2,2.5-3.3c0.7-0.9,1.3-1.7,2.2-2.5
		c1.1-0.9,2.5-1.2,4.2-0.9c0.9,0.3,1.8,0.9,2.4,1.5c0.9,0.9,1.6,1.9,2.4,2.8c0.9,1.1,1.8,2.2,2.9,3.1c1.6,1.4,3.6,1.9,6,1.5
		c1.8-0.3,3.3-1.1,4.4-2.2c0.9-0.9,1.8-2,2.5-3.1c0.7-0.9,1.3-1.9,2.2-2.6c1.8-1.7,4.4-1.7,6.3-0.2c0.7,0.8,1.5,1.5,2,2.5
		c0.4,0.5,0.7,0.9,1.3,1.7c0,0.2-0.2,0.3-0.2,0.5c0.2,0,0.2,0.2,0.4,0.2c0.5-1.2,1.1-2.5,1.5-3.7C90.2,49.3,90.1,49,89.9,48.7z"/>
	<path class="st1" d="M87.9,29.4c0.2,0.2,0.2,0.5,0.4,0.6c0.2-0.2,0.4-0.2,0.4-0.3c-1.3-2.5-2.9-5-4.9-7c-1.1-0.2-2.2-0.2-3.3,0.2
		c-1.5,0.3-2.7,1.1-3.6,2.2s-1.8,2.3-2.7,3.4c-0.5,0.8-1.3,1.7-2,2.3c-1.8,1.5-4.4,1.5-6,0.2c-0.4-0.3-0.7-0.6-1.1-1.1
		c-0.7-0.9-1.3-1.7-2-2.6c-0.9-1.1-1.6-2.2-2.7-2.9c-2.2-1.5-4.7-2-7.4-1.2c-1.5,0.3-2.5,1.2-3.4,2.2c-0.9,1.1-1.6,2.2-2.5,3.3
		c-0.7,0.8-1.3,1.5-2.2,2.3c-1.6,1.2-3.8,1.5-5.4,0.5c-0.5-0.3-1.1-0.8-1.5-1.2c-0.7-0.8-1.5-1.7-2-2.5c-0.9-1.1-1.6-2.2-2.7-3.1
		c-0.7-0.6-1.6-0.9-2.5-1.2c-0.9,0-1.8-0.2-2.5-0.5c-0.2,0-0.4,0-0.5-0.2l0,0l0,0c-1.1,1.1-2,2.2-2.9,3.4c0.2,0,0.5,0,0.7,0.2
		c0.5-0.5,1.3-0.8,2.2-0.8c1.5-0.2,2.7,0.3,3.6,1.2c0.9,0.9,1.6,1.9,2.4,2.8c0.9,1.1,1.6,2.2,2.7,3.1c1.3,1.1,2.9,1.9,4.7,2
		c2.4,0.2,4.4-0.5,6-2c1.1-1.1,1.8-2.3,2.7-3.4c0.7-0.9,1.5-2,2.5-2.8c1.6-1.4,3.8-1.4,5.6-0.2c0.4,0.3,0.7,0.8,1.1,1.1
		c0.7,0.9,1.3,1.7,2,2.6c0.9,1.1,1.6,2.2,2.7,3.1c1.6,1.4,3.8,2,6.2,1.7c1.8-0.3,3.3-1.1,4.4-2.2c0.9-0.9,1.8-2,2.5-3.1
		c0.5-0.9,1.3-1.9,2.2-2.6c1.3-1.1,2.7-1.5,4.4-1.2c0.9,0.2,1.6,0.8,2.4,1.4C86.6,27.5,87.2,28.4,87.9,29.4z"/>
</g>
<g>
	<path class="st2" d="M19.4,51c-0.5,0.8-1.3,1.5-2,2.2c-1.3,1.1-2.7,1.4-4.5,0.8c-0.7-0.3-1.5-0.8-2-1.4C10.1,51.8,9.6,51,9,50.3
		c-0.7-0.9-1.5-2-2.4-2.9c-1.1-1.1-2.5-1.9-4.2-2.2C2,45,1.4,45,0.9,45c0,0.9,0,1.7,0,2.5c0.5,0.2,0.9,0.2,1.3,0.3
		c0.9,0.3,1.6,0.8,2.4,1.5c0.7,0.6,1.5,1.4,2.2,2.3c0.9,1.1,1.6,2.2,2.7,3.1c2.2,1.9,4.7,2.3,7.6,1.4c1.5-0.5,2.7-1.4,3.6-2.5
		c0.4-0.5,0.7-0.8,0.9-1.2c-0.4-0.9-0.7-2-1.1-2.9C20.1,50.1,19.7,50.6,19.4,51z"/>
	<path class="st2" d="M108,45.2c-1.8,0.3-3.1,1.1-4.2,2.3c-0.9,0.9-1.6,2-2.4,2.9c-0.7,0.9-1.5,1.9-2.4,2.6
		c-1.5,1.1-3.3,1.4-4.9,0.8c-0.9-0.3-1.5-0.8-2-1.4c-0.7-0.9-1.5-1.9-2.2-2.8c-0.4,1.1-0.7,2-1.1,2.9c0.4,0.5,0.9,1.1,1.3,1.5
		c1.1,1.2,2.4,2,4.2,2.3c0.4,0.2,0.9,0.2,1.5,0.2c0.2,0,0.4,0,0.5,0h0.2c1.6,0,2.9-0.6,4.2-1.4c1.1-0.8,2-1.9,2.9-2.9
		c0.7-1.1,1.6-2.2,2.5-3.1c0.9-0.9,2-1.7,3.4-1.7c0.2,0,0.2,0,0.2-0.2c0-0.5,0-1.1,0-1.5c0-0.3,0-0.5,0-0.8
		C108.9,45.2,108.4,45.2,108,45.2z"/>
	<path class="st2" d="M4.3,4.9C5,5.8,5.8,6.7,6.5,7.7c0.9,1.1,1.6,2.2,2.7,2.9c2.2,1.7,5.3,2.2,8,1.1c1.5-0.6,2.5-1.5,3.4-2.6
		c0.7-0.9,1.5-2,2.2-2.9c0.5-0.8,1.3-1.5,2.2-2.3c1.1-0.8,2.4-1.1,3.6-0.9c1.1,0.2,2,0.8,2.7,1.5c0.7,0.8,1.5,1.7,2,2.5
		c0.9,1.2,1.8,2.5,3.1,3.4c1.8,1.5,4.2,2,6.7,1.5c1.6-0.3,3.1-1.2,4.2-2.3C48,9,48.8,7.9,49.5,6.8c0.7-0.9,1.5-1.9,2.4-2.6
		c1.6-1.4,4-1.4,5.8-0.2c0.4,0.3,0.7,0.6,1.1,0.9c0.9,1.1,1.6,2,2.4,3.1c0.7,1.1,1.6,2,2.7,2.8c1.6,1.2,3.6,1.7,5.8,1.4
		c1.8-0.3,3.1-1.1,4.4-2.2c1.1-0.9,1.8-2,2.5-3.1c0.6-0.9,1.3-1.9,2-2.6C79.7,3.2,81.2,2.7,83,3c1.1,0.2,1.8,0.8,2.4,1.4
		c0.9,0.9,1.6,1.9,2.4,2.9c0.7,1.1,1.6,2.2,2.7,3.1c1.8,1.5,4,2.2,6.5,1.7c1.6-0.3,2.9-1.1,4-2s1.8-1.9,2.5-2.9
		c0.5-0.8,1.3-1.5,1.8-2.3c0.9-0.9,2-1.7,3.6-1.7c0.2,0,0.2-0.2,0.2-0.2c0-0.5,0-0.9,0-1.4c0-0.3,0-0.6,0-0.9
		c-0.5,0.2-1.3,0.2-1.8,0.3c-1.6,0.3-2.9,1.1-4,2.2c-0.9,0.9-1.6,2-2.5,3.1c-0.7,0.9-1.5,1.9-2.4,2.6c-0.9,0.9-2.2,1.2-3.8,0.9
		c-1.1-0.2-1.8-0.8-2.5-1.4c-0.9-0.9-1.6-2-2.4-3.1c-0.9-1.1-1.6-2.2-2.7-3.1c-2.2-1.7-5.3-2.2-7.8-1.1c-1.6,0.6-2.5,1.5-3.4,2.5
		c-0.9,0.9-1.6,2-2.4,3.1c-0.5,0.8-1.3,1.5-2,2.2c-1.1,0.8-2.2,1.1-3.6,0.9c-1.1-0.2-2-0.6-2.7-1.4c-0.9-0.9-1.6-1.9-2.4-2.9
		c-0.9-1.1-1.6-2.2-2.7-3.1c-2-1.7-4.4-2.2-7.1-1.5c-1.6,0.3-2.9,1.2-3.8,2.3c-0.9,1.1-1.8,2.2-2.5,3.3c-0.7,0.8-1.3,1.7-2.2,2.3
		c-1.3,1.1-2.7,1.4-4.5,0.9c-0.9-0.3-1.6-0.9-2.2-1.5C36.8,7,36,6,35.1,4.9C34.4,4,33.6,3,32.6,2.3c-1.3-0.9-2.7-1.5-4.4-1.7
		c-2.4-0.2-4.4,0.6-5.8,2c-1.1,0.9-1.8,2-2.7,3.1c-0.7,1.1-1.5,2-2.4,2.9c-1.3,1.1-2.5,1.5-4.2,1.1c-1.1-0.2-1.8-0.6-2.5-1.2
		C9.9,7.7,9.2,6.7,8.5,5.8C7.8,4.7,7,3.8,6.1,2.9C5,1.8,3.6,1,2,0.7c-0.4,0-0.6-0.2-1-0.2c-0.2,0-0.4,0-0.5,0c0,0.8,0,1.7,0,2.5
		C1,3,1.4,3.2,2,3.2C3,3.5,3.8,4.1,4.3,4.9z"/>
	<path class="st2" d="M90.4,32.5c1.5,1.2,3.1,2,5.1,2s3.6-0.6,5.1-1.7c1.1-0.8,1.8-1.9,2.7-2.9c0.7-0.9,1.5-2,2.4-2.9s2-1.7,3.6-1.7
		l0.2-0.2c0-0.8,0-1.5,0-2.3c-0.4,0-0.9,0-1.3,0.2c-1.6,0.3-3.1,0.9-4.2,2c-1.1,0.9-1.8,2.2-2.7,3.3c-0.7,0.9-1.5,2-2.4,2.8
		c-1.1,0.9-2.5,1.4-4,1.1c-1.1-0.2-1.8-0.8-2.4-1.4c-0.9-0.8-1.5-1.7-2.2-2.6c-0.9-1.2-1.8-2.3-2.9-3.4c-1.1-0.9-2.4-1.4-3.6-1.7
		c2,2.3,3.8,4.8,5.1,7.4C89.2,31.2,89.7,31.8,90.4,32.5z"/>
	<path class="st2" d="M22.6,24.9c-0.9,0.9-1.8,1.9-2.5,2.9c-0.7,1.1-1.5,2.2-2.5,3.1c-1.8,1.7-4.4,1.7-6.3,0.2
		c-0.7-0.6-1.3-1.4-1.8-2C8.6,28,7.9,26.9,7,25.8c-0.9-1.1-2.2-2-3.8-2.5C2.3,23.2,1.6,23,0.7,23c0,0.8,0,1.5,0,2.5
		c0.4,0,0.5,0,0.9,0.2c1.1,0.2,2,0.8,2.7,1.5c0.9,0.9,1.6,2,2.4,2.9c0.7,1.1,1.6,2.2,2.7,2.9c2.2,1.7,4.7,2.2,7.6,1.4
		c1.5-0.5,2.5-1.2,3.3-2.3c0.9-0.9,1.6-2,2.4-2.9c0.2-0.3,0.5-0.6,0.7-0.9c1.1-1.9,2.4-3.6,3.8-5.1C25.3,23,23.9,23.6,22.6,24.9z"/>
</g>
</svg>
