<?xml version="1.0" encoding="UTF-8"?>
<svg width="242px" height="36px" viewBox="0 0 242 36" version="1.1" xmlns="http://www.w3.org/2000/svg" xmlns:xlink="http://www.w3.org/1999/xlink">
    <!-- Generator: Sketch 64 (93537) - https://sketch.com -->
    <title>biscay logo top</title>
    <desc>Created with Sketch.</desc>
    <g id="Page-1" stroke="none" stroke-width="1" fill="none" fill-rule="evenodd">
        <g id="iPhone-11" transform="translate(-25.000000, -33.000000)" fill-rule="nonzero">
            <g id="biscay-logo-top" transform="translate(25.000000, 33.000000)">
                <g id="biscay_plain_logo" transform="translate(66.000000, 11.000000)" fill="#FDA085">
                    <path d="M7.75,18.1 L0,18.1 L0,0.4 L6.9,0.4 C8.1,0.4 9.15,0.55 10,0.8 C10.85,1.05 11.55,1.5 11.95,2 C12.7,2.9 13.15,3.95 13.15,5.1 C13.15,6.5 12.75,7.5 11.8,8.2 C11.5,8.4 11.3,8.55 11.15,8.6 C11,8.65 10.8,8.75 10.5,8.9 C11.65,9.1 12.45,9.6 13.1,10.4 C13.75,11.15 14.1,12.1 14.1,13.2 C14.1,14.45 13.7,15.5 12.85,16.45 C11.9,17.55 10.2,18.1 7.75,18.1 Z M3.95,7.55 L5.85,7.55 C7,7.55 7.75,7.4 8.3,7.2 C8.85,7 9.05,6.45 9.05,5.65 C9.05,4.85 8.85,4.3 8.35,4.1 C7.85,3.8 7,3.75 5.9,3.75 L4,3.75 L3.95,7.55 L3.95,7.55 Z M3.95,14.7 L6.7,14.7 C7.85,14.7 8.65,14.55 9.25,14.3 C9.8,14 10.1,13.45 10.1,12.7 C10.1,11.85 9.8,11.35 9.2,11.1 C8.55,10.8 7.65,10.7 6.3,10.7 L4,10.7 L3.95,14.7 Z" id="Shape"></path>
                    <polygon id="Path" points="17.45 0.4 21.4 0.4 21.4 18.1 17.45 18.1"></polygon>
                    <path d="M29.9,3.95 C29.55,4.25 29.35,4.65 29.35,5.2 C29.35,5.75 29.55,6.1 30.05,6.4 C30.55,6.7 31.6,7.05 33.3,7.45 C35,7.85 36.25,8.5 37.25,9.3 C38.15,10.15 38.65,11.35 38.65,12.9 C38.65,14.5 38.1,15.8 36.9,16.75 C35.7,17.75 34.15,18.25 32.2,18.25 C29.4,18.25 26.85,17.2 24.6,15.15 L26.9,12.25 C28.8,13.95 30.55,14.8 32.15,14.8 C32.85,14.8 33.4,14.65 33.85,14.3 C34.25,14 34.5,13.6 34.5,13.05 C34.5,12.5 34.3,12.05 33.85,11.8 C33.45,11.5 32.5,11.15 31.25,10.9 C29.2,10.4 27.65,9.75 26.75,9 C25.75,8.25 25.35,6.95 25.35,5.25 C25.35,3.55 26,2.3 27.2,1.4 C28.4,0.5 29.95,0.05 31.7,0.05 C32.9,0.05 34.1,0.25 35.2,0.7 C36.4,1.1 37.4,1.7 38.3,2.4 L36.35,5.3 C34.8,4.1 33.25,3.55 31.55,3.55 C30.8,3.45 30.3,3.6 29.9,3.95 Z" id="Path"></path>
                    <path d="M50.05,14.6 C52,14.6 53.55,13.85 54.85,12.3 L57.4,14.9 C55.35,17.15 53.05,18.3 50.3,18.3 C47.55,18.3 45.3,17.45 43.55,15.7 C41.8,14 40.9,11.85 40.9,9.15 C40.9,6.55 41.8,4.35 43.55,2.6 C45.3,0.85 47.55,1.77635684e-15 50.15,1.77635684e-15 C53.05,1.77635684e-15 55.5,1.15 57.45,3.3 L55,6.1 C53.75,4.55 52.2,3.8 50.35,3.8 C48.85,3.8 47.6,4.3 46.55,5.3 C45.5,6.3 45,7.55 45,9.25 C45,10.95 45.5,12.2 46.5,13.2 C47.45,14.1 48.65,14.6 50.05,14.6 Z" id="Path"></path>
                    <path d="M72.9,18.1 L71.3,14.3 L63.9,14.3 L62.3,18.1 L58.1,18.1 L65.75,0.4 L69.55,0.4 L77.15,18.1 L72.9,18.1 Z M67.55,5.65 L65.3,10.8 L69.75,10.8 L67.55,5.65 Z" id="Shape"></path>
                    <polygon id="Path" points="85.55 18.1 81.6 18.1 81.6 11.15 75.4 0.4 79.7 0.4 83.5 7 87.3 0.4 91.6 0.4 85.5 11.1"></polygon>
                    <path d="M112.45,2 C113.7,3.05 114.3,4.65 114.3,6.85 C114.3,9.05 113.65,10.65 112.4,11.65 C111.15,12.65 109.15,13.2 106.55,13.2 L104.25,13.2 L104.25,18.1 L100.3,18.1 L100.3,0.4 L106.55,0.4 C109.2,0.4 111.25,0.95 112.45,2 Z M109.55,8.95 C110.05,8.4 110.25,7.6 110.25,6.65 C110.25,5.65 109.95,4.9 109.35,4.45 C108.75,4 107.8,3.8 106.45,3.8 L104.2,3.8 L104.2,9.8 L106.85,9.8 C108.2,9.75 109.05,9.45 109.55,8.95 Z" id="Shape"></path>
                    <polygon id="Path" points="117.4 18.1 117.4 0.4 121.35 0.4 121.35 14.6 128.85 14.6 128.85 18.1"></polygon>
                    <path d="M144.35,18.1 L142.75,14.3 L135.35,14.3 L133.75,18.1 L129.55,18.1 L137.2,0.4 L141,0.4 L148.6,18.1 L144.35,18.1 Z M139,5.65 L136.75,10.8 L141.2,10.8 L139,5.65 Z" id="Shape"></path>
                    <polygon id="Path" points="150.6 0.4 154.55 0.4 154.55 18.1 150.6 18.1"></polygon>
                    <polygon id="Path" points="171.3 0.4 175.25 0.4 175.25 18.1 171.3 18.1 162.85 7 162.85 18.1 158.9 18.1 158.9 0.4 162.65 0.4 171.3 11.8"></polygon>
                </g>
                <g id="biscay_plain_logo_waves">
                    <circle id="Oval" fill="#FDA085" cx="27.4" cy="20.8" r="14.25"></circle>
                    <g id="Group" transform="translate(10.000000, 11.000000)" fill="#FFFFFF" stroke="#FFFFFF" stroke-width="0.5">
                        <path d="M34.95,13.35 C34.95,13.45 34.95,13.45 34.95,13.5 C34.6,13.05 34.2,12.5 33.7,12.1 C32.6,11.35 31.45,11.1 30.05,11.5 C29.3,11.75 28.7,12.2 28.25,12.75 C27.8,13.3 27.45,13.9 27,14.45 C26.65,14.85 26.35,15.2 25.9,15.55 C25.15,16.1 24.45,16.15 23.65,15.85 C23.2,15.7 22.9,15.45 22.65,15.15 C22.3,14.7 21.9,14.2 21.55,13.75 C21.1,13.3 20.75,12.75 20.2,12.3 C19.3,11.55 18.1,11.3 16.85,11.55 C16.05,11.7 15.4,12.15 14.85,12.7 C14.4,13.25 13.95,13.85 13.5,14.4 C13.25,14.8 12.95,15.25 12.5,15.55 C11.95,16 11.3,16.25 10.6,16.1 C10.05,16 9.7,15.8 9.35,15.5 C8.85,15 8.45,14.5 8.1,14 C7.75,13.55 7.35,13 6.85,12.55 C5.75,11.7 4.6,11.4 3.15,11.7 C2.35,11.85 1.7,12.3 1.25,12.85 C0.9,13.15 0.6,13.55 0.35,13.95 C0.35,13.8 0.25,13.7 0.25,13.55 L0.25,13.55 C0.45,14.1 0.6,14.7 0.8,15.25 C0.9,15.15 1.05,15.15 1.15,15.15 C1.35,14.9 1.5,14.75 1.7,14.45 C1.95,14.05 2.35,13.7 2.7,13.35 C3.35,12.9 3.95,12.75 4.8,12.9 C5.35,13.05 5.7,13.3 6.05,13.65 C6.4,14.05 6.8,14.5 7.15,14.95 C7.5,15.5 7.95,16.05 8.5,16.5 C9.5,17.35 10.7,17.6 12.05,17.25 C12.85,17 13.5,16.65 13.95,16.1 C14.4,15.55 14.75,15 15.2,14.45 C15.55,14 15.85,13.6 16.3,13.2 C16.85,12.75 17.55,12.6 18.4,12.75 C18.85,12.9 19.3,13.2 19.6,13.5 C20.05,13.95 20.4,14.45 20.8,14.9 C21.25,15.45 21.7,16 22.25,16.45 C23.05,17.15 24.05,17.4 25.25,17.2 C26.15,17.05 26.9,16.65 27.45,16.1 C27.9,15.65 28.35,15.1 28.7,14.55 C29.05,14.1 29.35,13.6 29.8,13.25 C30.7,12.4 32,12.4 32.95,13.15 C33.3,13.55 33.7,13.9 33.95,14.4 C34.15,14.65 34.3,14.85 34.6,15.25 C34.6,15.35 34.5,15.4 34.5,15.5 C34.6,15.5 34.6,15.6 34.7,15.6 C34.95,15 35.25,14.35 35.45,13.75 C35.1,13.65 35.05,13.5 34.95,13.35 Z" id="Path"></path>
                        <path d="M33.95,3.7 C34.05,3.8 34.05,3.95 34.15,4 C34.25,3.9 34.35,3.9 34.35,3.85 C33.7,2.6 32.9,1.35 31.9,0.35 C31.35,0.25 30.8,0.25 30.25,0.45 C29.5,0.6 28.9,1 28.45,1.55 C28,2.1 27.55,2.7 27.1,3.25 C26.85,3.65 26.45,4.1 26.1,4.4 C25.2,5.15 23.9,5.15 23.1,4.5 C22.9,4.35 22.75,4.2 22.55,3.95 C22.2,3.5 21.9,3.1 21.55,2.65 C21.1,2.1 20.75,1.55 20.2,1.2 C19.1,0.45 17.85,0.2 16.5,0.6 C15.75,0.75 15.25,1.2 14.8,1.7 C14.35,2.25 14,2.8 13.55,3.35 C13.2,3.75 12.9,4.1 12.45,4.5 C11.65,5.1 10.55,5.25 9.75,4.75 C9.5,4.6 9.2,4.35 9,4.15 C8.65,3.75 8.25,3.3 8,2.9 C7.55,2.35 7.2,1.8 6.65,1.35 C6.3,1.05 5.85,0.9 5.4,0.75 C4.95,0.75 4.5,0.65 4.15,0.5 C4.05,0.5 3.95,0.5 3.9,0.4 L3.9,0.4 L3.9,0.4 C3.35,0.95 2.9,1.5 2.45,2.1 C2.55,2.1 2.7,2.1 2.8,2.2 C3.05,1.95 3.45,1.8 3.9,1.8 C4.65,1.7 5.25,1.95 5.7,2.4 C6.15,2.85 6.5,3.35 6.9,3.8 C7.35,4.35 7.7,4.9 8.25,5.35 C8.9,5.9 9.7,6.3 10.6,6.35 C11.8,6.45 12.8,6.1 13.6,5.35 C14.15,4.8 14.5,4.2 14.95,3.65 C15.3,3.2 15.7,2.65 16.2,2.25 C17,1.55 18.1,1.55 19,2.15 C19.2,2.3 19.35,2.55 19.55,2.7 C19.9,3.15 20.2,3.55 20.55,4 C21,4.55 21.35,5.1 21.9,5.55 C22.7,6.25 23.8,6.55 25,6.4 C25.9,6.25 26.65,5.85 27.2,5.3 C27.65,4.85 28.1,4.3 28.45,3.75 C28.7,3.3 29.1,2.8 29.55,2.45 C30.2,1.9 30.9,1.7 31.75,1.85 C32.2,1.95 32.55,2.25 32.95,2.55 C33.3,2.75 33.6,3.2 33.95,3.7 Z" id="Path"></path>
                    </g>
                    <g id="Group" fill="#FDA085" stroke="#E99B86" stroke-width="0.5">
                        <path d="M9.7,25.5 C9.45,25.9 9.05,26.25 8.7,26.6 C8.05,27.15 7.35,27.3 6.45,27 C6.1,26.85 5.7,26.6 5.45,26.3 C5.05,25.9 4.8,25.5 4.5,25.15 C4.15,24.7 3.75,24.15 3.3,23.7 C2.75,23.15 2.05,22.75 1.2,22.6 C1,22.5 0.7,22.5 0.45,22.5 C0.45,22.95 0.45,23.35 0.45,23.75 C0.7,23.85 0.9,23.85 1.1,23.9 C1.55,24.05 1.9,24.3 2.3,24.65 C2.65,24.95 3.05,25.35 3.4,25.8 C3.85,26.35 4.2,26.9 4.75,27.35 C5.85,28.3 7.1,28.5 8.55,28.05 C9.3,27.8 9.9,27.35 10.35,26.8 C10.55,26.55 10.7,26.4 10.8,26.2 C10.6,25.75 10.45,25.2 10.25,24.75 C10.05,25.05 9.85,25.3 9.7,25.5 Z" id="Path"></path>
                        <path d="M54,22.6 C53.1,22.75 52.45,23.15 51.9,23.75 C51.45,24.2 51.1,24.75 50.7,25.2 C50.35,25.65 49.95,26.15 49.5,26.5 C48.75,27.05 47.85,27.2 47.05,26.9 C46.6,26.75 46.3,26.5 46.05,26.2 C45.7,25.75 45.3,25.25 44.95,24.8 C44.75,25.35 44.6,25.8 44.4,26.25 C44.6,26.5 44.85,26.8 45.05,27 C45.6,27.6 46.25,28 47.15,28.15 C47.35,28.25 47.6,28.25 47.9,28.25 C48,28.25 48.1,28.25 48.15,28.25 L48.25,28.25 C49.05,28.25 49.7,27.95 50.35,27.55 C50.9,27.15 51.35,26.6 51.8,26.1 C52.15,25.55 52.6,25 53.05,24.55 C53.5,24.1 54.05,23.7 54.75,23.7 C54.85,23.7 54.85,23.7 54.85,23.6 C54.85,23.35 54.85,23.05 54.85,22.85 C54.85,22.7 54.85,22.6 54.85,22.45 C54.45,22.6 54.2,22.6 54,22.6 Z" id="Path"></path>
                        <path d="M2.15,2.45 C2.5,2.9 2.9,3.35 3.25,3.85 C3.7,4.4 4.05,4.95 4.6,5.3 C5.7,6.15 7.25,6.4 8.6,5.85 C9.35,5.55 9.85,5.1 10.3,4.55 C10.65,4.1 11.05,3.55 11.4,3.1 C11.65,2.7 12.05,2.35 12.5,1.95 C13.05,1.55 13.7,1.4 14.3,1.5 C14.85,1.6 15.3,1.9 15.65,2.25 C16,2.65 16.4,3.1 16.65,3.5 C17.1,4.1 17.55,4.75 18.2,5.2 C19.1,5.95 20.3,6.2 21.55,5.95 C22.35,5.8 23.1,5.35 23.65,4.8 C24,4.5 24.4,3.95 24.75,3.4 C25.1,2.95 25.5,2.45 25.95,2.1 C26.75,1.4 27.95,1.4 28.85,2 C29.05,2.15 29.2,2.3 29.4,2.45 C29.85,3 30.2,3.45 30.6,4 C30.95,4.55 31.4,5 31.95,5.4 C32.75,6 33.75,6.25 34.85,6.1 C35.75,5.95 36.4,5.55 37.05,5 C37.6,4.55 37.95,4 38.3,3.45 C38.6,3 38.95,2.5 39.3,2.15 C39.85,1.6 40.6,1.35 41.5,1.5 C42.05,1.6 42.4,1.9 42.7,2.2 C43.15,2.65 43.5,3.15 43.9,3.65 C44.25,4.2 44.7,4.75 45.25,5.2 C46.15,5.95 47.25,6.3 48.5,6.05 C49.3,5.9 49.95,5.5 50.5,5.05 C51.05,4.6 51.4,4.1 51.75,3.6 C52,3.2 52.4,2.85 52.65,2.45 C53.1,2 53.65,1.6 54.45,1.6 C54.55,1.6 54.55,1.5 54.55,1.5 C54.55,1.25 54.55,1.05 54.55,0.8 C54.55,0.65 54.55,0.5 54.55,0.35 C54.3,0.45 53.9,0.45 53.65,0.5 C52.85,0.65 52.2,1.05 51.65,1.6 C51.2,2.05 50.85,2.6 50.4,3.15 C50.05,3.6 49.65,4.1 49.2,4.45 C48.75,4.9 48.1,5.05 47.3,4.9 C46.75,4.8 46.4,4.5 46.05,4.2 C45.6,3.75 45.25,3.2 44.85,2.65 C44.4,2.1 44.05,1.55 43.5,1.1 C42.4,0.25 40.85,-6.9388939e-16 39.6,0.55 C38.8,0.85 38.35,1.3 37.9,1.8 C37.45,2.25 37.1,2.8 36.7,3.35 C36.45,3.75 36.05,4.1 35.7,4.45 C35.15,4.85 34.6,5 33.9,4.9 C33.35,4.8 32.9,4.6 32.55,4.2 C32.1,3.75 31.75,3.25 31.35,2.75 C30.9,2.2 30.55,1.65 30,1.2 C29,0.35 27.8,0.1 26.45,0.45 C25.65,0.6 25,1.05 24.55,1.6 C24.1,2.15 23.65,2.7 23.3,3.25 C22.95,3.65 22.65,4.1 22.2,4.4 C21.55,4.95 20.85,5.1 19.95,4.85 C19.5,4.7 19.15,4.4 18.85,4.1 C18.4,3.5 18,3 17.55,2.45 C17.2,2 16.8,1.5 16.3,1.15 C15.65,0.7 14.95,0.4 14.1,0.3 C12.9,0.2 11.9,0.6 11.2,1.3 C10.65,1.75 10.3,2.3 9.85,2.85 C9.5,3.4 9.1,3.85 8.65,4.3 C8,4.85 7.4,5.05 6.55,4.85 C6,4.75 5.65,4.55 5.3,4.25 C4.95,3.85 4.6,3.35 4.25,2.9 C3.9,2.35 3.5,1.9 3.05,1.45 C2.5,0.9 1.8,0.5 1,0.35 C0.8,0.35 0.7,0.25 0.5,0.25 C0.4,0.25 0.3,0.25 0.25,0.25 C0.25,0.65 0.25,1.1 0.25,1.5 C0.5,1.5 0.7,1.6 1,1.6 C1.5,1.75 1.9,2.05 2.15,2.45 Z" id="Path"></path>
                        <path d="M45.2,16.25 C45.95,16.85 46.75,17.25 47.75,17.25 C48.75,17.25 49.55,16.95 50.3,16.4 C50.85,16 51.2,15.45 51.65,14.95 C52,14.5 52.4,13.95 52.85,13.5 C53.3,13.05 53.85,12.65 54.65,12.65 L54.75,12.55 C54.75,12.15 54.75,11.8 54.75,11.4 C54.55,11.4 54.3,11.4 54.1,11.5 C53.3,11.65 52.55,11.95 52,12.5 C51.45,12.95 51.1,13.6 50.65,14.15 C50.3,14.6 49.9,15.15 49.45,15.55 C48.9,16 48.2,16.25 47.45,16.1 C46.9,16 46.55,15.7 46.25,15.4 C45.8,15 45.5,14.55 45.15,14.1 C44.7,13.5 44.25,12.95 43.7,12.4 C43.15,11.95 42.5,11.7 41.9,11.55 C42.9,12.7 43.8,13.95 44.45,15.25 C44.6,15.6 44.85,15.9 45.2,16.25 Z" id="Path"></path>
                        <path d="M11.3,12.45 C10.85,12.9 10.4,13.4 10.05,13.9 C9.7,14.45 9.3,15 8.8,15.45 C7.9,16.3 6.6,16.3 5.65,15.55 C5.3,15.25 5,14.85 4.75,14.55 C4.3,14 3.95,13.45 3.5,12.9 C3.05,12.35 2.4,11.9 1.6,11.65 C1.15,11.6 0.8,11.5 0.35,11.5 C0.35,11.9 0.35,12.25 0.35,12.75 C0.55,12.75 0.6,12.75 0.8,12.85 C1.35,12.95 1.8,13.25 2.15,13.6 C2.6,14.05 2.95,14.6 3.35,15.05 C3.7,15.6 4.15,16.15 4.7,16.5 C5.8,17.35 7.05,17.6 8.5,17.2 C9.25,16.95 9.75,16.6 10.15,16.05 C10.6,15.6 10.95,15.05 11.35,14.6 C11.45,14.45 11.6,14.3 11.7,14.15 C12.25,13.2 12.9,12.35 13.6,11.6 C12.65,11.5 11.95,11.8 11.3,12.45 Z" id="Path"></path>
                    </g>
                </g>
            </g>
        </g>
    </g>
</svg>