<?xml version="1.0" encoding="utf-8"?>
<!-- Generator: Adobe Illustrator 22.0.0, SVG Export Plug-In . SVG Version: 6.00 Build 0)  -->
<svg version="1.1" id="Layer_1" xmlns="http://www.w3.org/2000/svg" xmlns:xlink="http://www.w3.org/1999/xlink" x="0px" y="0px"
	 viewBox="0 0 350.5 36.6" style="enable-background:new 0 0 350.5 36.6;" xml:space="preserve">
<style type="text/css">
	.st0{fill:#FDA085;}
</style>
<g>
	<path class="st0" d="M15.5,36.2H0V0.8h13.8c2.4,0,4.5,0.3,6.2,0.8S23.1,3,23.9,4c1.5,1.8,2.4,3.9,2.4,6.2c0,2.8-0.8,4.8-2.7,6.2
		c-0.6,0.4-1,0.7-1.3,0.8s-0.7,0.3-1.3,0.6c2.3,0.4,3.9,1.4,5.2,3c1.3,1.5,2,3.4,2,5.6c0,2.5-0.8,4.6-2.5,6.5
		C23.8,35.1,20.4,36.2,15.5,36.2z M7.9,15.1h3.8c2.3,0,3.8-0.3,4.9-0.7c1.1-0.4,1.5-1.5,1.5-3.1s-0.4-2.7-1.4-3.1
		c-1-0.6-2.7-0.7-4.9-0.7H8L7.9,15.1L7.9,15.1z M7.9,29.4h5.5c2.3,0,3.9-0.3,5.1-0.8c1.1-0.6,1.7-1.7,1.7-3.2c0-1.7-0.6-2.7-1.8-3.2
		c-1.3-0.6-3.1-0.8-5.8-0.8H8L7.9,29.4z"/>
	<path class="st0" d="M34.9,0.8h7.9v35.4h-7.9V0.8z"/>
	<path class="st0" d="M59.8,7.9c-0.7,0.6-1.1,1.4-1.1,2.5s0.4,1.8,1.4,2.4s3.1,1.3,6.5,2.1c3.4,0.8,5.9,2.1,7.9,3.7
		c1.8,1.7,2.8,4.1,2.8,7.2c0,3.2-1.1,5.8-3.5,7.7c-2.4,2-5.5,3-9.4,3c-5.6,0-10.7-2.1-15.2-6.2l4.6-5.8c3.8,3.4,7.3,5.1,10.5,5.1
		c1.4,0,2.5-0.3,3.4-1c0.8-0.6,1.3-1.4,1.3-2.5s-0.4-2-1.3-2.5c-0.8-0.6-2.7-1.3-5.2-1.8c-4.1-1-7.2-2.3-9-3.8
		c-2-1.5-2.8-4.1-2.8-7.5s1.3-5.9,3.7-7.7c2.4-1.8,5.5-2.7,9-2.7c2.4,0,4.8,0.4,7,1.3c2.4,0.8,4.4,2,6.2,3.4l-3.9,5.8
		c-3.1-2.4-6.2-3.5-9.6-3.5C61.6,6.9,60.6,7.2,59.8,7.9z"/>
	<path class="st0" d="M100.1,29.2c3.9,0,7-1.5,9.6-4.6l5.1,5.2c-4.1,4.5-8.7,6.8-14.2,6.8s-10-1.7-13.5-5.2
		c-3.5-3.4-5.3-7.7-5.3-13.1c0-5.2,1.8-9.6,5.3-13.1s8-5.2,13.2-5.2c5.8,0,10.7,2.3,14.6,6.6l-4.9,5.6c-2.5-3.1-5.6-4.6-9.3-4.6
		c-3,0-5.5,1-7.6,3S90,15.1,90,18.5c0,3.4,1,5.9,3,7.9C94.9,28.2,97.3,29.2,100.1,29.2z"/>
	<path class="st0" d="M145.8,36.2l-3.2-7.6h-14.8l-3.2,7.6h-8.4l15.3-35.4h7.6l15.2,35.4H145.8z M135.1,11.3l-4.5,10.3h8.9
		L135.1,11.3z"/>
	<path class="st0" d="M171.1,36.2h-7.9V22.3L150.8,0.8h8.6L167,14l7.6-13.2h8.6L171,22.2L171.1,36.2L171.1,36.2z"/>
	<path class="st0" d="M224.9,4c2.5,2.1,3.7,5.3,3.7,9.7s-1.3,7.6-3.8,9.6s-6.5,3.1-11.7,3.1h-4.6v9.8h-7.9V0.8h12.5
		C218.4,0.8,222.5,1.9,224.9,4z M219.1,17.9c1-1.1,1.4-2.7,1.4-4.6c0-2-0.6-3.5-1.8-4.4s-3.1-1.3-5.8-1.3h-4.5v12h5.3
		C216.4,19.5,218.1,18.9,219.1,17.9z"/>
	<path class="st0" d="M234.8,36.2V0.8h7.9v28.4h15v7H234.8z"/>
	<path class="st0" d="M288.7,36.2l-3.2-7.6h-14.8l-3.2,7.6h-8.4l15.3-35.4h7.6l15.2,35.4H288.7z M278,11.3l-4.5,10.3h8.9L278,11.3z"
		/>
	<path class="st0" d="M301.2,0.8h7.9v35.4h-7.9V0.8z"/>
	<path class="st0" d="M342.6,0.8h7.9v35.4h-7.9L325.7,14v22.2h-7.9V0.8h7.5l17.3,22.8V0.8z"/>
</g>
</svg>
