<?xml version="1.0" encoding="utf-8"?>
<!-- Generator: Adobe Illustrator 22.0.0, SVG Export Plug-In . SVG Version: 6.00 Build 0)  -->
<svg version="1.1" id="Layer_1" xmlns="http://www.w3.org/2000/svg" xmlns:xlink="http://www.w3.org/1999/xlink" x="0px" y="0px"
	 viewBox="0 0 171.1 260" style="enable-background:new 0 0 171.1 260;" xml:space="preserve">
<style type="text/css">
	.st0{fill:#FFC5C8;}
	.st1{opacity:0.3;}
	.st2{fill:none;}
	.st3{fill:#141414;}
	.st4{fill:#676767;}
	.st5{fill:#A2A2A2;}
	.st6{fill:#8B8B8B;}
	.st7{fill:#9E9E9E;}
	.st8{fill:#3C3C3C;}
	.st9{fill:#727272;}
	.st10{fill:#848484;}
	.st11{fill:#A1A1A1;}
	.st12{fill:#333333;}
	.st13{fill:#4A4A4A;}
	.st14{fill:#7A7A7A;}
	.st15{fill:#373737;}
	.st16{fill:#3E3E3E;}
	.st17{fill:#3A3A3A;}
	.st18{fill:#474747;}
	.st19{fill:#696969;}
	.st20{fill:#888888;}
	.st21{fill:#4F4F4F;}
	.st22{fill:#747474;}
	.st23{fill:#575757;}
	.st24{fill:#7B7B7B;}
</style>
<rect y="-2.2" class="st0" width="171" height="262.2"/>
<g class="st1">
	<path class="st2" d="M20.5,21.5c-0.1-0.1-0.3-0.2-0.4-0.3c0,0,0,0,0,0C20.2,21.3,20.3,21.4,20.5,21.5z"/>
	<path class="st2" d="M165.9,122.6c-1.2,2.1-2.9,3.6-5,4.5c2.3,0.9,3,3,3.1,5.6c0.2,6.7-10.7,20.5-17.5,20.9
		c-6.9,0.4-5.7,4.8-5.9,8.8c0,1.1,0,2.2,0,3.3c0,1.8-0.1,3.6-1,5.2c8.8,2.1,15.7,8.9,17.2,17.1c0.7,3.8,2.2,7.3,3.8,10.9
		c1.7,3.9,2.9,8.2-2.2,11c-6.3-8.5-12.6-16.9-18.9-25.4c-2.6-3.6-5.1-7.2-7.7-10.8c-3.2-3.9-6.4-7.8-5.2-13.4
		c-2.6-1-4.3-2.6-4.4-5.5c-9.4-16.5-25.2-18.9-42.1-19.4c-8.1-0.2-16.3,0.1-24.1-2.9c-3.2-1.2-7.1-1.5-7.7-6.1
		c1.1-3.6,3.1-6.1,7.2-6c1.1,0,2.2-0.1,3.3-0.1c10.7-11.8,20.1-25.3,35.2-32c8.9-4,18.6-6.4,28-9.3c2.8-0.9,5.4-1.6,6.8-4.5
		c7.8-1.7,15.6-3.4,22-8.7c2.9-2.3,6.2-3.1,9.8-2.2c0,0,0,0,0,0c3.5-4.2,4.9-9.1,4.6-14.5c0.7-0.7,1.4-1.5,2.1-2.2
		c1.5-1,2.5-2.4,3.4-4V-1H0v260h171V109.3C168.8,113.4,167.1,117.8,165.9,122.6z M28.8,27.6l0.1,0.1c0,0,0,0,0,0
		c-0.2,8.5-0.8,16.9-4.3,27.1c-1.9-8.7,3.5-15.3,0.1-21.7C19.4,29.5,9.9,33,8.2,23.3c-3.5,0.7-3.7-2.8-5.3-4.3
		C2.7,15.1,4.2,12,7.4,9.9c-3.5,12.7,8.9,7,12.8,11.1c0,0.1-0.1,0.1-0.1,0.2c2.1-0.2,4.2-0.4,6.4-0.6c3.5,0.8,6.5,0.1,9.4-2.2
		c4.1-3.3,3,1,3.7,2.7C36.9,24.8,34.3,28.7,28.8,27.6z"/>
	<path class="st3" d="M123,145.3C123,145.3,123,145.3,123,145.3c1.2-4.4,2.5-8.8,3.7-13.2c-11.2-4.3-18.9-18.7-34.3-11.5
		c-3.5,1.7-8.3,0.7-12.5,0.9c0,0,0,0,0,0c0,0,0,0,0,0c-1.4,0-2.9-0.1-4.3-0.1c0,0,0,0,0,0c-4.3,0.6-8.4,2.7-12.9,1.8c0,0,0,0,0,0
		c0,0,0,0,0,0c-2.1,0-4.2,0-6.3,0c0.9-1,1.8-1.9,2.7-2.9c-1.1,0-2.2,0.1-3.3,0.1c-4.1-0.1-6.2,2.3-7.2,6c0.6,4.5,4.5,4.8,7.7,6.1
		c7.8,3,16,2.7,24.1,2.9c16.9,0.5,32.6,2.9,42.1,19.4C122.6,151.6,122.8,148.4,123,145.3C123,145.3,123,145.3,123,145.3z"/>
	<path class="st4" d="M141.8,145L141.8,145C141.8,145,141.8,145,141.8,145c1-4.3,0.6-9.4,6.1-11.4c0.6-0.2,1.6-1.1,1.5-1.4
		c-3.5-10.8,6.6-17.9,7.6-27.5c0,0,0,0,0,0c0,0,0,0,0,0c-2.2,0.6-4.3,1.3-6.5,1.9c0,0,0,0,0,0c-7.1,5.9-16.6,9.9-17,21.2
		c6.2,4.9,5.4,8.9-1.5,12.3c-3.1,1.5-5.9,3.4-8.9,5.2c0,0,0,0,0,0c-0.2,3.2-0.5,6.3-0.7,9.5c0.1,3,1.9,4.5,4.4,5.5
		C126.3,147.4,127.6,146.1,141.8,145z"/>
	<path class="st5" d="M156.6,134.2C156.6,134.2,156.6,134.2,156.6,134.2c-3.4,0.8-5.3,3.2-6.8,6.2c-1.6,3.2-3.4,6.5-8.1,4.5h0
		c-14.2,1.1-15.5,2.5-15,15.3c-1.2,5.6,2,9.5,5.2,13.4c1.9-1.1,3.8-2.1,5.7-3.2c0.7,0.1,1.4,0.2,2,0.4c0.9-1.6,0.9-3.3,1-5.2
		c0-1.1,0-2.2,0-3.3c0.2-4.1-1-8.5,5.9-8.8c6.8-0.4,17.6-14.2,17.5-20.9c-0.1-2.6-0.8-4.7-3.1-5.6c-0.6,0.3-1.3,0.5-2,0.7
		C158.2,129.9,157.4,132.1,156.6,134.2z"/>
	<path class="st6" d="M132,173.6c2.6,3.6,5.1,7.2,7.7,10.8c6.3,8.5,12.6,16.9,18.9,25.4c5.1-2.8,3.9-7.1,2.2-11
		c-1.6-3.6-3-7.1-3.8-10.9c-1.6-8.3-8.4-15-17.2-17.1c-0.7-0.2-1.3-0.3-2-0.4C135.8,171.5,133.9,172.6,132,173.6z"/>
	<polygon class="st7" points="20.1,21.2 20.1,21.2 20,21.2 20,21.2 	"/>
	<path class="st7" d="M20.1,21.2c0-0.1,0.1-0.1,0.1-0.2C20.2,20.9,20,21.2,20.1,21.2C20,21.2,20.1,21.2,20.1,21.2z"/>
	<path class="st7" d="M7.4,9.9c-3.2,2.2-4.6,5.2-4.5,9.1c1.7,1.6,1.8,5,5.3,4.3c4-0.8,8-1.6,12-2.3C16.3,16.8,3.9,22.6,7.4,9.9z"/>
	<path class="st8" d="M20.5,21.5c-0.1-0.1-0.3-0.2-0.4-0.3c0,0,0,0,0,0v0l0,0h0c0,0,0.1-0.2,0.1-0.2c-4,0.8-8,1.6-12,2.3
		c1.7,9.7,11.2,6.2,16.5,9.9c0.3-2.7,1.8-4.4,4.2-5.4c0,0,0,0,0,0c0,0,0,0,0,0l-0.1-0.1C26.9,24.4,23.3,23.5,20.5,21.5z"/>
	<path class="st9" d="M35.8,18.4c-2.9,2.3-5.9,3-9.4,2.2c-2.1,0.2-4.2,0.4-6.4,0.6c0,0,0,0,0,0h0l0,0c0,0,0,0,0,0
		c0.1,0.1,0.3,0.2,0.4,0.3c2.8,2,6.5,2.9,8.3,6.2c5.5,1,8.1-2.8,10.7-6.5C38.8,19.4,39.9,15.1,35.8,18.4z"/>
	<path class="st10" d="M24.7,33.1c3.4,6.4-2,13.1-0.1,21.7c3.5-10.3,4-18.7,4.3-27.1c0,0,0,0,0,0C26.5,28.7,25,30.5,24.7,33.1z"/>
	<path class="st11" d="M167.3,95.6c0.4,7.3-5.4,12.1-7.8,18.3c-2.6,6.7-5.6,13-2.9,20.4c0.8-2.2,1.5-4.3,2.3-6.5
		c0.7-0.2,1.4-0.4,2-0.7c2.1-0.9,3.7-2.4,5-4.5c1.1-4.7,2.9-9.1,5.1-13.3V92.9C169.8,93.8,168.5,94.7,167.3,95.6
		C167.3,95.6,167.3,95.6,167.3,95.6z"/>
	<path class="st7" d="M62.7,123.2C62.7,123.2,62.7,123.2,62.7,123.2c8.6-9,17.8-17.1,29.9-21.1c0,0,0,0,0,0
		c2.4-5.8,7.6-6.2,12.8-6.6c0,0,0,0,0,0c2.3-5.4,7.3-7.4,12.3-9.2c15.1-5.4,30.2-10.8,45.3-16.3c0,0,0,0,0,0
		c-0.6-2.1-1.2-4.1-1.9-6.2c0,0-0.3-0.3-0.3-0.3c0,0,0,0,0,0c0,0,0,0,0,0c-3.6-0.9-7-0.2-9.8,2.2c-6.4,5.3-14.2,7-22,8.7
		c-1.4,2.9-4,3.6-6.8,4.5c-9.4,2.9-19.1,5.3-28,9.3c-15.1,6.8-24.5,20.2-35.2,32c-0.9,1-1.8,1.9-2.7,2.9
		C58.4,123.2,60.6,123.2,62.7,123.2z"/>
	<path class="st12" d="M131.1,127.9C131.1,127.9,131.1,127.9,131.1,127.9C131.1,127.9,131.1,127.9,131.1,127.9c-3-2.3-6.6-4.5-5-9.2
		c3.5-10.6,2.4-12.1-9.9-12.2c0,0,0,0,0,0c0,0,0,0,0,0c-11.3,6.8-26,5.5-36.2,15.1c0,0,0,0,0,0c4.2-0.2,9,0.7,12.5-0.9
		c15.4-7.2,23.1,7.2,34.3,11.5C129.9,132.5,133.4,133.3,131.1,127.9z"/>
	<path class="st13" d="M116.1,106.5C116.1,106.5,116.1,106.5,116.1,106.5c0.7-2.1,1.5-4.2,2.2-6.3c0,0,0,0,0,0c0,0,0,0,0,0
		c0-0.7,0-1.5,0-2.2c-8.3,3.4-16.2,8.2-25.5,8.8c-5.1,5.7-13.5,7.4-17.2,14.6c1.4,0,2.9,0.1,4.3,0.1c0,0,0,0,0,0
		C90.1,112,104.8,113.3,116.1,106.5z"/>
	<path class="st14" d="M92.8,106.8c-0.1-1.5-0.1-3.1-0.2-4.6l0,0c0,0,0,0,0,0c-12.1,4-21.4,12-29.9,21.1c0,0,0,0,0,0
		c4.5,0.9,8.6-1.2,12.9-1.8c0,0,0,0,0,0C79.3,114.1,87.8,112.5,92.8,106.8z"/>
	<path class="st15" d="M131.1,127.9C131.1,127.9,131.1,127.9,131.1,127.9c2.3,5.4-1.2,4.6-4.4,4.2c-1.2,4.4-2.5,8.8-3.7,13.2
		c0,0,0,0,0,0c3-1.7,5.8-3.7,8.9-5.2c6.9-3.4,7.7-7.4,1.5-12.3C132.6,127.8,131.9,127.9,131.1,127.9z"/>
	<path class="st16" d="M140.2,106.4c-1.5,1.3-3.1,3.3-4.8,0.2c0,0,0,0,0,0l0,0c-3.9-7-11.7-3.2-17.1-6.3c0,0,0,0,0,0
		c-0.7,2.1-1.5,4.2-2.2,6.3c0,0,0,0,0,0c12.3,0.1,13.4,1.6,9.9,12.2c-1.6,4.7,2,6.9,5,9.2c0,0,0,0,0,0c0.8,0,1.5-0.1,2.3-0.1
		c0.4-11.3,9.9-15.3,17-21.2c0,0,0,0,0,0c0,0,0,0,0,0C147.1,103.4,143.7,103.4,140.2,106.4z"/>
	<path class="st6" d="M156.9,104.6C156.9,104.6,156.9,104.6,156.9,104.6c-1,9.6-11,16.7-7.6,27.5c0.1,0.3-0.9,1.2-1.5,1.4
		c-5.5,2-5.1,7.1-6.1,11.4c0,0,0,0,0,0c4.6,2,6.5-1.3,8.1-4.5c1.5-3,3.3-5.4,6.8-6.2c0,0,0,0,0,0c-2.7-7.3,0.3-13.7,2.9-20.4
		c2.4-6.2,8.1-10.9,7.8-18.3c-1.3,0.8-2.5,1.6-3.8,2.4C161.3,100.2,159.1,102.4,156.9,104.6z"/>
	<path class="st17" d="M135.4,106.5C135.4,106.5,135.4,106.5,135.4,106.5c1.7,3.1,3.3,1.1,4.8-0.2c3.5-2.9,6.8-2.9,10.2,0.2
		c0,0,0,0,0,0c2.2-0.6,4.3-1.3,6.5-1.9c0,0,0,0,0,0c2.2-2.2,4.4-4.4,6.6-6.6c-4.1-2.3-8.8-1.6-13.2-2.2c0,0,0,0,0,0
		C146.4,100.8,138.1,99.8,135.4,106.5z"/>
	<path class="st7" d="M167.6,46.9c-0.7,0.7-1.4,1.5-2.1,2.2c0.2,5.4-1.1,10.3-4.6,14.5c0,0,0,0,0,0c0,0,0.3,0.3,0.3,0.3
		c3.8-1.4,7.1-3.4,9.8-5.8V42.9C170.1,44.4,169.1,45.9,167.6,46.9z"/>
	<path class="st18" d="M161,85.2C161,85.2,161,85.2,161,85.2c-2.6,4.5-9,5.2-10.7,10.6c4.4,0.7,9.1-0.1,13.2,2.2
		c1.3-0.8,2.5-1.6,3.8-2.4c0,0,0,0,0,0c1.2-0.9,2.5-1.8,3.7-2.8V80.1C167.2,81,163.3,81.7,161,85.2z"/>
	<path class="st19" d="M92.8,106.8c9.3-0.6,17.2-5.4,25.5-8.8c10.3-3.5,23-1.5,30-12.7c0,0,0,0,0,0c0,0,0,0,0,0
		c-7,2.3-13.6,6.4-21.5,4.1c0,0,0,0,0,0c0,0,0,0,0,0c-7.1,2.1-13.6,6.5-21.4,6.3c0,0,0,0,0,0c0,0,0,0,0,0
		c-5.2,0.4-10.4,0.7-12.8,6.6l0,0C92.7,103.7,92.8,105.2,92.8,106.8z"/>
	<path class="st20" d="M117.7,86.4c-5,1.8-10,3.8-12.3,9.2c0,0,0,0,0,0c7.8,0.3,14.3-4.2,21.4-6.3c0,0,0,0,0,0
		c10.5-6.6,21-13.4,34.2-12.8c0.7,0,1.4,0,2.1,0c0-2.1,0.1-4.1,0.1-6.2c0,0-0.2-0.2-0.2-0.2c0,0,0,0,0,0c0,0,0,0,0,0
		C147.9,75.5,132.8,80.9,117.7,86.4z"/>
	<path class="st20" d="M161.2,63.9c0.6,2.1,1.2,4.1,1.9,6.2c0,0,0,0,0,0c0,0,0.2,0.2,0.2,0.2l0,0c2.7-1.9,5.4-3.9,7.8-6v-6.2
		C168.2,60.5,165,62.5,161.2,63.9z"/>
	<path class="st21" d="M148.3,85.3C148.3,85.3,148.3,85.3,148.3,85.3c-7.1,11.2-19.7,9.3-30,12.7c0,0.7,0,1.5,0,2.2c0,0,0,0,0,0
		c5.3,3.1,13.2-0.7,17.1,6.3l0,0c2.7-6.7,11-5.7,14.9-10.7c0,0,0,0,0,0c1.7-5.4,8.1-6.1,10.7-10.6c0,0,0,0,0,0l0,0
		c-2.2-0.7-4.4-1.5-6.6-2.2c0,0,0,0,0,0C152.4,83.7,150.4,84.5,148.3,85.3z"/>
	<path class="st22" d="M163.2,70.3L163.2,70.3c0,2.1-0.1,4.1-0.1,6.2c3.5,0.1,5.7-2.1,7.9-4.3v-7.9
		C168.6,66.4,165.9,68.3,163.2,70.3z"/>
	<path class="st23" d="M163.1,76.5c-0.7,0-1.4,0-2.1,0c-2.2,2.1-4.4,4.2-6.6,6.4c2.2,0.7,4.4,1.5,6.6,2.2l0,0c2.3-3.5,6.2-4.2,10-5
		v-7.9C168.8,74.4,166.6,76.6,163.1,76.5z"/>
	<path class="st24" d="M126.8,89.3C126.8,89.3,126.8,89.3,126.8,89.3c7.9,2.3,14.5-1.8,21.5-4.1c0,0,0,0,0,0c2-0.8,4.1-1.6,6.1-2.3
		c0,0,0,0,0,0c2.2-2.1,4.4-4.2,6.6-6.4C147.8,75.9,137.3,82.7,126.8,89.3z"/>
</g>
</svg>
