<svg id="Layer_1" data-name="Layer 1" xmlns="http://www.w3.org/2000/svg" viewBox="0 0 171.1 260"><defs><style>.cls-1{fill:#ffc5c8;}.cls-2{opacity:0.2;}.cls-3{fill:none;}</style></defs><title>bottomleftblockillustr</title><rect class="cls-1" y="-2.17" width="171" height="262.17"/><g class="cls-2"><polygon class="cls-3" points="120.6 148.4 120.6 154.6 126.8 151.5 120.6 148.4"/><polygon class="cls-3" points="120.6 163.8 126.8 160.8 120.6 157.7 120.6 163.8"/><path class="cls-3" d="M133,31c-2.1,6.2,0,8.2,6.2,6.2C141.2,31,139.2,29,133,31Z"/><polygon class="cls-3" points="105.1 139.1 105.1 133 102 139.1 105.1 139.1"/><path class="cls-3" d="M120.6,136c-2.1,6.2,0,8.2,6.2,6.2C128.9,136,126.8,134,120.6,136Z"/><path class="cls-3" d="M139.2,18.7c-2.1,6.2,0,8.2,6.2,6.2C147.4,18.7,145.4,16.6,139.2,18.7Z"/><path class="cls-3" d="M102,86.6c-2.1,6.2,0,8.2,6.2,6.2C110.3,86.6,108.2,84.6,102,86.6Z"/><polygon class="cls-3" points="148.5 117.5 148.5 111.3 142.3 117.5 148.5 117.5"/><path class="cls-3" d="M145.4,31v6.2q6.15,9.3,9.3,0C156.7,31,153.6,29,145.4,31Z"/><polygon class="cls-3" points="148.5 102.1 145.4 108.2 148.5 108.2 148.5 102.1"/><path class="cls-3" d="M139.2,43.4l6.2,6.2C147.4,43.4,145.4,41.3,139.2,43.4Z"/><path class="cls-3" d="M129.9,46.5c2.1-6.2,0-8.2-6.2-6.2C121.6,46.5,123.7,48.5,129.9,46.5Z"/><path class="cls-3" d="M151.6,49.5l3.1,6.2C156.7,49.5,155.7,47.5,151.6,49.5Z"/><path class="cls-3" d="M142.3,89.7c-2.1,6.2,0,8.2,6.2,6.2C150.5,89.7,148.5,87.6,142.3,89.7Z"/><polygon class="cls-3" points="148.5 129.9 148.5 123.7 142.3 129.9 148.5 129.9"/><path class="cls-3" d="M148.5,77.3c6.2-2.1,6.2-5.1,0-9.3Q139.2,74.3,148.5,77.3Z"/><path class="cls-3" d="M117.5,123.7c2.1-6.2,0-8.2-6.2-6.2C109.3,123.7,111.3,125.7,117.5,123.7Z"/><path class="cls-3" d="M117.5,65c-2.1,6.2,0,8.2,6.2,6.2C125.8,65,123.7,62.9,117.5,65Z"/><polygon class="cls-3" points="105.1 111.3 105.1 117.5 111.3 114.4 105.1 111.3"/><polygon class="cls-3" points="105.1 123.7 105.1 126.8 108.2 126.8 105.1 123.7"/><path class="cls-3" d="M114.4,95.9c-2.1,6.2,0,8.2,6.2,6.2C122.7,95.9,120.6,93.8,114.4,95.9Z"/><polygon class="cls-3" points="105.1 105.2 111.3 102.1 105.1 99 105.1 105.2"/><path class="cls-3" d="M145.4,61.9c2.1-6.2,0-8.2-6.2-6.2C137.1,61.9,139.2,64,145.4,61.9Z"/><path class="cls-3" d="M126.8,99c-4.1,6.2-3.1,8.2,3.1,6.2Z"/><polygon class="cls-3" points="117.5 105.2 114.4 111.3 117.5 111.3 117.5 105.2"/><path class="cls-3" d="M123.7,80.4l6.2,3.1c2.1-8.2,0-11.3-6.2-9.3Z"/><polygon class="cls-3" points="126.8 129.9 126.8 123.7 123.7 129.9 126.8 129.9"/><polygon class="cls-3" points="126.8 111.3 123.7 117.5 126.8 117.5 126.8 111.3"/><path class="cls-3" d="M117.5,52.6c2.1-6.2,0-8.2-6.2-6.2C109.3,52.6,111.3,54.7,117.5,52.6Z"/><path class="cls-3" d="M108.2,68.1l6.2-3.1c2.1-6.2,0-8.2-6.2-6.2Z"/><path class="cls-3" d="M117.5,40.3c2.1-6.2,0-8.2-6.2-6.2C109.3,40.3,111.3,42.3,117.5,40.3Z"/><path class="cls-3" d="M111.3,80.4V71.1l-6.2,6.2C103.1,81.5,105.1,82.5,111.3,80.4Z"/><path class="cls-3" d="M166,179.5a7.63,7.63,0,0,1,.8-1.1l-2.9-11.5Q155.05,181.75,166,179.5Z"/><polygon class="cls-3" points="148.5 151.5 148.5 145.3 142.3 151.5 148.5 151.5"/><path class="cls-3" d="M171,77.5V75.3A2.73,2.73,0,0,0,171,77.5Z"/><path class="cls-3" d="M171,43.9v-7l-.9.3C168.9,41,169.2,43.2,171,43.9Z"/><path class="cls-3" d="M170.1,102.1l.9-.3V93.5l-.9-.6C163.9,96.9,163.9,100,170.1,102.1Z"/><path class="cls-3" d="M167,136l3.1,6.2q.6-1.95.9-3.3v-2.6C170.6,135,169.3,134.9,167,136Z"/><path class="cls-3" d="M167,3.2c-1.8,5.4-.5,7.6,4,6.8V2.5A11.18,11.18,0,0,0,167,3.2Z"/><polygon class="cls-3" points="58.7 176.2 58.7 176.2 61.8 176.2 61.8 170 58.7 176.2"/><path class="cls-3" d="M171,152v-7l-.9.3C168.9,149.1,169.2,151.3,171,152Z"/><polygon class="cls-3" points="15.4 154.6 18.5 148.4 18.5 142.2 9.2 151.5 10.7 156.1 13.3 161.3 24.7 166.9 15.4 154.6"/><polygon class="cls-3" points="102 188.6 105.1 188.6 102 185.5 102 188.6"/><polygon class="cls-3" points="171 173.1 171 171.4 170.1 173.1 171 173.1"/><path class="cls-3" d="M126.8,89.7l3.1,6.2C132,89.7,130.9,87.6,126.8,89.7Z"/><polygon class="cls-3" points="120.6 191.6 114.4 197.8 120.6 197.8 120.6 191.6"/><polygon class="cls-3" points="163.9 68.1 171 65.7 171 64.3 163.9 61.9 163.9 68.1"/><path class="cls-3" d="M148.5,80.4c-2.1,6.2,0,8.2,6.2,6.2C156.7,80.4,154.6,78.4,148.5,80.4Z"/><polygon class="cls-3" points="157.7 170 154.6 176.2 157.7 176.2 157.7 170"/><path class="cls-3" d="M160.8,99l-6.2-3.1C154.6,104.1,156.7,105.2,160.8,99Z"/><polygon class="cls-3" points="154.6 111.3 163.9 108.2 154.6 105.2 154.6 111.3"/><path class="cls-3" d="M154.6,160.8c-4.1,6.2-3.1,8.2,3.1,6.2Z"/><polygon class="cls-3" points="151.6 151.5 151.6 157.7 157.7 154.6 151.6 151.5"/><polygon class="cls-3" points="157.7 139.1 151.6 145.3 157.7 145.3 157.7 139.1"/><path class="cls-3" d="M142.3,136c-2.1,6.2,0,8.2,6.2,6.2C150.5,136,148.5,134,142.3,136Z"/><polygon class="cls-3" points="163.9 40.3 160.8 37.2 157.7 43.4 163.9 40.3"/><path class="cls-3" d="M70.5-9.7c-9.8-.1-19.8-2.5-29.2-3.7-4-.4-5.5-4.8-4.3-7.6H0V134.5L4.5,136l4.6-1.5L6,126.8c5.6-2.3,7.6-.7,6.2,4.6l6.2-3.1-3.1-6.2,9.3-1.5c-2.5-6.2.1-8.2,7.7-6.2l17-29.3-4.6-7.7c7.8,2.1,10.4,0,7.7-6.2-5.6,2.3-7.6.7-6.2-4.6l3.1-10.8c5.6,2.3,7.6.7,6.2-4.6L46.2,45l6.2-1.5L49.3,32.7,63.2,12.6,70.9,8,68,1.7Z"/><path class="cls-3" d="M167,34.1c2.1-6.2,0-8.2-6.2-6.2C158.8,34.1,160.8,36.2,167,34.1Z"/><polygon class="cls-3" points="151.6 65 160.8 65 151.6 58.8 151.6 65"/><polygon class="cls-3" points="89.7 65 95.8 61.9 89.7 58.8 89.7 65"/><path class="cls-3" d="M157.7,71.2c-2.1,6.2,0,8.2,6.2,6.2C166,71.2,163.9,69.1,157.7,71.2Z"/><polygon class="cls-3" points="160.8 55.7 170.1 52.6 160.8 49.5 160.8 55.7"/><path class="cls-3" d="M160.8,83.5c-2.1,6.2,0,8.2,6.2,6.2C169.1,83.5,167,81.5,160.8,83.5Z"/><path class="cls-3" d="M170.1,21.7,167,12.4C160.8,20.7,161.9,23.8,170.1,21.7Z"/><path class="cls-3" d="M160.8,123.7c-2.1,6.2,0,8.2,6.2,6.2C169.1,123.7,167,121.6,160.8,123.7Z"/><path class="cls-3" d="M154.6,117.5c-2.1,6.2,0,8.2,6.2,6.2C162.9,117.5,160.8,115.4,154.6,117.5Z"/><path class="cls-3" d="M148.5,12.5c2.1-8.2,0-11.3-6.2-9.3C140.2,11.5,142.3,14.5,148.5,12.5Z"/><path class="cls-3" d="M133,6.3c-2.1,6.2,0,8.2,6.2,6.2C141.2,6.3,139.2,4.2,133,6.3Z"/><polygon class="cls-3" points="170.1 111.3 167 117.5 170.1 117.5 170.1 111.3"/><path class="cls-3" d="M157.7,24.8c2.1-8.2,1-11.3-3.1-9.3l-6.2,6.2Z"/><polygon class="cls-3" points="129.9 49.5 123.7 55.7 133 58.8 129.9 49.5"/><polygon class="cls-3" points="139.2 166.9 133 163.8 133 170 139.2 166.9"/><path class="cls-3" d="M133,173.1c-2.1,6.2,0,8.2,6.2,6.2C141.2,173.1,139.2,171,133,173.1Z"/><path class="cls-3" d="M133,92.8V99l6.2,3.1C141.2,93.8,139.2,90.7,133,92.8Z"/><path class="cls-3" d="M136.1,148.4c2.1-6.2,1-8.2-3.1-6.2Z"/><polygon class="cls-3" points="133 136 139.2 133 133 129.9 133 136"/><path class="cls-3" d="M133,80.4c-2.1,6.2,0,8.2,6.2,6.2C141.2,80.4,139.2,78.4,133,80.4Z"/><path class="cls-3" d="M163.9,154.6l3.1,6.2C169.1,154.6,168.1,152.5,163.9,154.6Z"/><polygon class="cls-3" points="163.9 145.3 160.8 151.5 163.9 151.5 163.9 145.3"/><path class="cls-3" d="M151.6,179.3c-2.1,6.2,0,8.2,6.2,6.2C159.8,179.3,157.7,177.2,151.6,179.3Z"/><polygon class="cls-3" points="136.1 108.2 136.1 111.3 139.2 111.3 136.1 108.2"/><path class="cls-3" d="M145.4,157.7l3.1,6.2C150.5,157.7,149.5,155.6,145.4,157.7Z"/><path class="cls-3" d="M133,65v9.3l6.2-3.1C141.2,65,139.2,62.9,133,65Z"/><path class="cls-3" d="M142.3,166.9c-2.1,6.2,0,8.2,6.2,6.2C150.5,166.9,148.5,164.9,142.3,166.9Z"/><path class="cls-3" d="M74.2,3.2V9.4l6.2,3.1C82.4,4.2,80.4,1.2,74.2,3.2Z"/><path class="cls-3" d="M46.3,154.6l3.1,6.2C51.5,154.6,50.4,152.5,46.3,154.6Z"/><polygon class="cls-3" points="49.4 173.1 52.5 173.1 49.4 170 49.4 173.1"/><path class="cls-3" d="M139.2.1,133-3C133,5.3,135,6.3,139.2.1Z"/><polygon class="cls-3" points="71.1 40.3 71.1 46.5 80.4 46.5 71.1 40.3"/><path class="cls-3" d="M74.2,160.8l-3.1-6.2C67,160.8,68,162.8,74.2,160.8Z"/><path class="cls-3" d="M64.9,163.8V170l6.2,3.1C73.1,164.9,71.1,161.8,64.9,163.8Z"/><path class="cls-3" d="M171,183v-8.1a14.81,14.81,0,0,0-4.2,3.6l.2.9c-.4.1-.7.1-1,.2q-4.35,6.45-2.1,18.3l-6.2-1.5,3.1-7.7c-7.8-3.1-10.9-1.5-9.3,4.6h-3.1l-1.5-17c-5.8,2.7-6.3,5.3-1.5,7.7l-3.1,6.2,1.5,4.6-6.2-12.4-3.1,9.3-7.7-3.1c-2.3,5.6-.7,7.6,4.6,6.2v3.1L116,204l-1.5-6.2-6.2-1.5,6.2-1.5c2.3-6.8-.8-8.9-9.3-6.2l-1.5,6.2L96,191.7l-1.5,6.2-9.3-6.2-4.6,1.5,1.5-4.6-9.3-6.2-7.7,3.1,3.1-7.7L62,176.3l-1.5,12.4c-5.8-2.5-6.3-5-1.5-7.7.6-2.2.6-3.7,0-4.6h0c-.8-1.3-2.9-1.3-6.2,0,2.1,6.2,0,8.2-6.2,6.2l-1.5-6.2-1.5,6.2-7.7-3.1H29.7L25.1,178l6.2-1.5-4.6-9.3L19,171.8l-5.2-10.3-1-.5-1.5-4.6L0,134.7V239H171V188.6A4,4,0,0,1,171,183Z"/><path class="cls-3" d="M33.9,166.9c2.1-6.2,0-8.2-6.2-6.2C25.7,166.9,27.7,169,33.9,166.9Z"/><path class="cls-3" d="M46.3,166.9l-3.1-6.2C39.1,166.9,40.1,169,46.3,166.9Z"/><path class="cls-3" d="M43.2,176.2,40.1,170C36,176.2,37,178.3,43.2,176.2Z"/><polygon class="cls-3" points="37 151.5 33.9 157.7 37 157.7 37 151.5"/><path class="cls-3" d="M61.8,160.8l-3.1-6.2C54.6,160.8,55.6,162.8,61.8,160.8Z"/><path class="cls-3" d="M105.1,6.3,102-3C95.8,5.3,96.9,8.4,105.1,6.3Z"/><polygon class="cls-3" points="117.5 3.2 117.5 -3 111.3 3.2 117.5 3.2"/><path class="cls-3" d="M92.7,37.2c-2.1,6.2,0,8.2,6.2,6.2C101,37.2,98.9,35.1,92.7,37.2Z"/><polygon class="cls-3" points="86.6 6.3 86.6 15.6 95.8 12.5 86.6 6.3"/><path class="cls-3" d="M77.3,21.7c-2.1,4.1,0,5.1,6.2,3.1s6.2-5.1,0-9.3Z"/><path class="cls-3" d="M89.7,21.7c-2.1,6.2,0,8.2,6.2,6.2C97.9,21.7,95.8,19.7,89.7,21.7Z"/><polygon class="cls-3" points="86.6 -6.1 86.6 0.1 95.8 -3 86.6 -6.1"/><path class="cls-3" d="M154.6,3.2c-2.1,8.2,0,11.3,6.2,9.3C162.9,4.2,160.8,1.2,154.6,3.2Z"/><polygon class="cls-3" points="86.6 176.2 86.6 170 83.5 176.2 86.6 176.2"/><path class="cls-3" d="M74.2,52.6c-2.1,6.2,0,8.2,6.2,6.2C82.4,52.6,80.4,50.6,74.2,52.6Z"/><path class="cls-3" d="M80.4,80.4c2.1-6.2,0-8.2-6.2-6.2C72.1,80.4,74.2,82.5,80.4,80.4Z"/><path class="cls-3" d="M80.4,129.9c2.1-6.2,0-8.2-6.2-6.2C72.1,129.9,74.2,131.9,80.4,129.9Z"/><polygon class="cls-3" points="83.5 52.6 92.7 55.7 89.7 46.5 83.5 52.6"/><polygon class="cls-3" points="83.5 151.5 80.4 160.8 83.5 160.8 83.5 151.5"/><path class="cls-3" d="M80.4,31v6.2l6.2,3.1C88.6,32,86.6,29,80.4,31Z"/><polygon class="cls-3" points="136.1 123.7 139.2 123.7 136.1 120.6 136.1 123.7"/><polygon class="cls-3" points="83.5 185.5 83.5 179.3 80.4 185.5 83.5 185.5"/><polygon class="cls-3" points="80.4 68.1 86.6 65 83.5 61.9 80.4 68.1"/><path class="cls-3" d="M77.3,151.5l-3.1-6.2C70,151.5,71.1,153.5,77.3,151.5Z"/><path class="cls-3" d="M80.4,142.2,77.3,136C73.1,142.2,74.2,144.3,80.4,142.2Z"/><polygon class="cls-3" points="80.4 163.8 77.3 170 80.4 170 80.4 163.8"/><path class="cls-3" d="M86.6,102.1c-4.1,6.2-3.1,8.2,3.1,6.2Z"/><polygon class="cls-3" points="89.7 163.8 92.7 163.8 89.7 160.8 89.7 163.8"/><path class="cls-3" d="M92.7,148.4c-4.1,6.2-3.1,8.2,3.1,6.2Z"/><path class="cls-3" d="M92.7,77.3c-2.1,8.2,0,11.3,6.2,9.3C101,78.4,98.9,75.3,92.7,77.3Z"/><path class="cls-3" d="M92.7,114.4c-2.1,6.2,0,8.2,6.2,6.2C101,114.4,98.9,112.4,92.7,114.4Z"/><polygon class="cls-3" points="98.9 108.2 98.9 102.1 92.7 108.2 98.9 108.2"/><polygon class="cls-3" points="102 74.3 102 65 95.8 71.2 102 74.3"/><path class="cls-3" d="M89.7,139.1c-2.1,6.2,0,8.2,6.2,6.2C97.9,139.1,95.8,137.1,89.7,139.1Z"/><path class="cls-3" d="M92.7,126.8c-2.1,6.2,0,8.2,6.2,6.2C101,126.8,98.9,124.7,92.7,126.8Z"/><path class="cls-3" d="M105.1,58.8c2.1-6.2,0-8.2-6.2-6.2C96.9,58.8,98.9,60.9,105.1,58.8Z"/><path class="cls-3" d="M102,24.8c-2.1,8.2,0,11.3,6.2,9.3C110.3,25.9,108.2,22.8,102,24.8Z"/><polygon class="cls-3" points="102 18.7 102 12.5 98.9 18.7 102 18.7"/><path class="cls-3" d="M108.2,46.5c2.1-6.2,0-8.2-6.2-6.2C100,46.5,102,48.5,108.2,46.5Z"/><path class="cls-3" d="M95.8,99c2.1-6.2,0-8.2-6.2-6.2C87.6,99,89.7,101,95.8,99Z"/><polygon class="cls-3" points="129.9 185.5 129.9 179.3 126.8 185.5 129.9 185.5"/><polygon class="cls-3" points="111.3 185.5 111.3 179.3 105.1 185.5 111.3 185.5"/><polygon class="cls-3" points="136.1 151.5 129.9 157.7 139.2 157.7 136.1 151.5"/><polygon class="cls-3" points="123.7 166.9 117.5 173.1 126.8 173.1 123.7 166.9"/><polygon class="cls-3" points="92.7 173.1 98.9 170 92.7 166.9 92.7 173.1"/><path class="cls-3" d="M102,145.3l3.1,6.2C107.2,145.3,106.2,143.2,102,145.3Z"/><polygon class="cls-3" points="98.9 160.8 102 160.8 98.9 157.7 98.9 160.8"/><polygon class="cls-3" points="129.9 21.7 136.1 24.8 133 15.6 129.9 21.7"/><path class="cls-3" d="M111.3,129.9c-2.1,6.2,0,8.2,6.2,6.2C119.6,129.9,117.5,127.8,111.3,129.9Z"/><polygon class="cls-3" points="114.4 148.4 114.4 142.2 111.3 148.4 114.4 148.4"/><polygon class="cls-3" points="117.5 179.3 120.6 179.3 117.5 176.2 117.5 179.3"/><polygon class="cls-3" points="111.3 166.9 114.4 166.9 111.3 163.8 111.3 166.9"/><polygon class="cls-3" points="114.4 157.7 114.4 151.5 108.2 157.7 114.4 157.7"/><polygon class="cls-3" points="111.3 176.2 114.4 176.2 111.3 173.1 111.3 176.2"/><path class="cls-3" d="M86.6,89.7c2.1-6.2,0-8.2-6.2-6.2C78.3,89.7,80.4,91.8,86.6,89.7Z"/><path class="cls-3" d="M89.7,176.2c-2.1,6.2,0,8.2,6.2,6.2C97.9,176.2,95.8,174.1,89.7,176.2Z"/><path class="cls-3" d="M123.7,27.9V18.6l-6.2,6.2C115.4,29,117.5,30,123.7,27.9Z"/><path class="cls-3" d="M86.6,129.9v9.3Q95.75,136.05,86.6,129.9Z"/><polygon class="cls-3" points="89.7 71.2 86.6 77.3 89.7 77.3 89.7 71.2"/><path class="cls-3" d="M126.8,3.2q-9.3,6.15,0,9.3Q136.1,9.35,126.8,3.2Z"/><path class="cls-3" d="M83.5,117.5c2.1-6.2,0-8.2-6.2-6.2C75.2,117.5,77.3,119.6,83.5,117.5Z"/><polygon class="cls-3" points="108.2 18.7 117.5 15.6 108.2 9.4 108.2 18.7"/><polygon class="cls-3" points="89.7 188.6 92.7 188.6 89.7 185.5 89.7 188.6"/><path d="M171,2.4v-3h-1c-3.1-.4-6.2-.1-9.3-.3h-.4c-.4,0-.9-.1-1.3-.1a4.07,4.07,0,0,1-2.3-1,3.37,3.37,0,0,1-1.7.5,25.3,25.3,0,0,1-6.8-.3c-5.4.1-11.6.3-15.1-3.7a8.75,8.75,0,0,0-1.6-.2c-1.1.5-2.3,1.2-3.6,1.9a3.55,3.55,0,0,1-.9.4c0,.2-.1.4-.1.6-3.8,1.3-6.1.6-6.7-2.1a14.33,14.33,0,0,1-6.7,1.3c-1.9,3.5-4.5,2.9-7.7-1.6-6-2-11.9-5.2-17.8-6a3.61,3.61,0,0,1-2.4-1.1,16.42,16.42,0,0,1-3.9,1.4A38.5,38.5,0,0,1,70.5-9.7L68,1.7l3.1,6.2-7.7,4.6-14,20.1,3.1,10.8-6.2,1.5,9.3,6.2c1.4,5.4-.6,6.9-6.2,4.6L46.3,66.5c-1.4,5.4.6,6.9,6.2,4.6,2.7,6.2.1,8.2-7.7,6.2L49.4,85l-17,29.3c-7.6-2.1-10.2,0-7.7,6.2L15.4,122l3.1,6.2-6.2,3.1c1.4-5.4-.6-6.9-6.2-4.6l3.1,7.7L4.5,136,0,134.5v.2l10.7,21.4-1.5-4.6,9.3-9.3v6.2l-3.1,6.2L24.7,167l-11.3-5.7,5.2,10.3,7.7-4.6,4.6,9.3-6.2,1.5,4.6,1.5h6.2l7.7,3.1,1.5-6.2,1.5,6.2c6.2,2.1,8.3,0,6.2-6.2,3.3-1.3,5.4-1.3,6.2,0l3.1-6.2v6.2l6.2,1.5-3.1,7.7,7.7-3.1,9.3,6.2-1.5,4.6,4.6-1.5,9.3,6.2,1.5-6.2,7.7,3.1,1.5-6.2H102v-3.1l3.1,3.1c8.5-2.7,11.6-.6,9.3,6.2l-6.2,1.5,6.2,1.5,6.2-6.2v6.2h-6.2l1.5,6.2,15.5-6.2v-3.1c-5.4,1.4-6.9-.6-4.6-6.2l7.7,3.1,3.1-9.3,6.2,12.4-1.5-4.6,3.1-6.2c-4.7-2.5-4.2-5,1.5-7.7l1.5,17h3.1c-1.6-6.2,1.4-7.7,9.3-4.6l-3.1,7.7,6.2,1.5q-2.25-11.85,2.1-18.3-11,2.25-2.1-12.6l2.9,11.5a14.81,14.81,0,0,1,4.2-3.6V173h-.9l.9-1.8V152c-1.8-.7-2.1-2.9-.9-6.7l.9-.3v-6.1a21,21,0,0,1-.9,3.3L167,136c2.2-1.1,3.6-1,4,.3V101.7l-.9.3c-6.2-2.1-6.2-5.1,0-9.3l.9.6V77.5a2.73,2.73,0,0,1,0-2.2V65.7l-7.1,2.4V61.9l7.1,2.4V43.9c-1.8-.7-2.1-2.9-.9-6.7l.9-.3V10c-4.4.9-5.8-1.4-4-6.8A14.72,14.72,0,0,1,171,2.4ZM33.9,166.9c-6.2,2.1-8.3,0-6.2-6.2C33.9,158.7,36,160.8,33.9,166.9Zm3.1-9.2H33.9l3.1-6.2ZM40.1,170l3.1,6.2C37,178.3,36,176.2,40.1,170Zm3.1-9.2,3.1,6.2C40.1,169,39.1,166.9,43.2,160.8Zm6.2,0-3.1-6.2C50.4,152.5,51.5,154.6,49.4,160.8Zm0,12.3V170l3.1,3.1Zm9.3-18.5,3.1,6.2C55.6,162.8,54.6,160.8,58.7,154.6ZM154.6,3.2c6.2-2.1,8.3,1,6.2,9.3C154.6,14.5,152.6,11.5,154.6,3.2Zm0,92.7,6.2,3.1C156.7,105.2,154.6,104.1,154.6,95.9Zm9.3,12.3-9.3,3.1v-6.2Zm-9.3-21.6c-6.2,2.1-8.3,0-6.2-6.2C154.6,78.4,156.7,80.4,154.6,86.6Zm0,74.2,3.1,6.2C151.6,169,150.5,166.9,154.6,160.8Zm3.1,9.2v6.2h-3.1Zm-6.1-12.3v-6.2l6.2,3.1Zm0-12.4,6.2-6.2v6.2Zm-9.3-9.3c6.2-2.1,8.3,0,6.2,6.2C142.3,144.3,140.2,142.2,142.3,136Zm6.2,9.3v6.2h-6.2Zm-27.9,9.3v-6.2l6.2,3.1Zm6.2,6.2-6.2,3.1v-6.2ZM120.6,136c6.2-2.1,8.3,0,6.2,6.2C120.6,144.3,118.5,142.2,120.6,136ZM102,86.6c6.2-2.1,8.3,0,6.2,6.2C102,94.9,100,92.8,102,86.6Zm3.1,46.4v6.2H102ZM92.7,148.4l3.1,6.2C89.7,156.6,88.6,154.6,92.7,148.4Zm0,15.4H89.6v-3.1Zm-3-24.7c6.2-2.1,8.3,0,6.2,6.2C89.7,147.4,87.6,145.3,89.7,139.1Zm3-12.3c6.2-2.1,8.3,0,6.2,6.2C92.7,135,90.7,133,92.7,126.8Zm31-55.6c-6.2,2.1-8.3,0-6.2-6.2C123.7,62.9,125.8,65,123.7,71.2Zm0-30.9c6.2-2.1,8.3,0,6.2,6.2C123.7,48.5,121.6,46.5,123.7,40.3Zm0,77.2,3.1-6.2v6.2Zm3.1,6.2v6.2h-3.1Zm3.1-40.2-6.2-3.1V74.2C129.9,72.2,132,75.3,129.9,83.5Zm-18.6-37c6.2-2.1,8.3,0,6.2,6.2C111.3,54.7,109.3,52.6,111.3,46.5Zm0-12.4c6.2-2.1,8.3,0,6.2,6.2C111.3,42.3,109.3,40.3,111.3,34.1ZM114.4,65l-6.2,3.1V58.8C114.4,56.8,116.5,58.8,114.4,65Zm-9.3,12.3,6.2-6.2v9.3C105.1,82.5,103.1,81.5,105.1,77.3ZM98.9,52.6c6.2-2.1,8.3,0,6.2,6.2C98.9,60.9,96.9,58.8,98.9,52.6Zm9.3-6.1c-6.2,2.1-8.3,0-6.2-6.2C108.2,38.2,110.3,40.3,108.2,46.5Zm-9.3-3.1c-6.2,2.1-8.3,0-6.2-6.2C98.9,35.1,101,37.2,98.9,43.4Zm0-24.7,3.1-6.2v6.2ZM95.8,61.9,89.7,65V58.8Zm-3.1-6.2-9.3-3.1,6.2-6.2ZM86.6,77.3l3.1-6.2v6.2Zm0,12.4c-6.2,2.1-8.3,0-6.2-6.2C86.6,81.5,88.6,83.5,86.6,89.7ZM80.4,68.1l3.1-6.2L86.6,65Zm6.2-27.8-6.2-3.1V31C86.6,29,88.6,32,86.6,40.3ZM80.4,58.8c-6.2,2.1-8.3,0-6.2-6.2C80.4,50.6,82.4,52.6,80.4,58.8ZM74.2,74.3c6.2-2.1,8.3,0,6.2,6.2C74.2,82.5,72.1,80.4,74.2,74.3Zm0,49.4c6.2-2.1,8.3,0,6.2,6.2C74.2,131.9,72.1,129.9,74.2,123.7Zm0,21.6,3.1,6.2C71.1,153.5,70,151.5,74.2,145.3Zm3.1-9.3,3.1,6.2C74.2,144.3,73.1,142.2,77.3,136Zm6.2,15.5v9.3H80.4Zm-6.2-40.2c6.2-2.1,8.3,0,6.2,6.2C77.3,119.6,75.2,117.5,77.3,111.3Zm9.3-9.2,3.1,6.2C83.5,110.3,82.4,108.2,86.6,102.1Zm3.1-9.3c6.2-2.1,8.3,0,6.2,6.2C89.7,101,87.6,99,89.7,92.8Zm9.2,9.3v6.2H92.7Zm0,18.5c-6.2,2.1-8.3,0-6.2-6.2C98.9,112.4,101,114.4,98.9,120.6Zm0-34c-6.2,2.1-8.3-1-6.2-9.3C98.9,75.3,101,78.4,98.9,86.6ZM95.8,71.2,102,65v9.3Zm15.5,30.9-6.2,3.1V99Zm-6.2,21.6,3.1,3.1h-3.1Zm0-6.2v-6.2l6.2,3.1Zm6.2,0c6.2-2.1,8.3,0,6.2,6.2C111.3,125.7,109.3,123.7,111.3,117.5Zm3.1-6.2,3.1-6.2v6.2Zm0-15.4c6.2-2.1,8.3,0,6.2,6.2C114.4,104.1,112.3,102.1,114.4,95.9ZM126.8,99l3.1,6.2C123.7,107.2,122.7,105.2,126.8,99Zm0-9.3c4.1-2.1,5.2,0,3.1,6.2Zm-3.1-34,6.2-6.2,3.1,9.3ZM133,31c6.2-2.1,8.3,0,6.2,6.2C133,39.3,130.9,37.2,133,31Zm21.6,6.2q-3.15,9.3-9.3,0V31C153.6,29,156.7,31,154.6,37.2Zm0,18.5-3.1-6.2C155.7,47.5,156.7,49.5,154.6,55.7Zm-6.1,21.6c-6.2-2.1-6.2-5.1,0-9.3Q157.65,74.3,148.5,77.3Zm-3.1-27.8-6.2-6.2C145.4,41.3,147.4,43.4,145.4,49.5Zm0-24.7c-6.2,2.1-8.3,0-6.2-6.2C145.4,16.6,147.4,18.7,145.4,24.8Zm-6.2,30.9c6.2-2.1,8.3,0,6.2,6.2C139.2,64,137.1,61.9,139.2,55.7Zm9.3,55.6v6.2h-6.2Zm-3.1-3.1,3.1-6.2v6.2Zm3.1,15.5v6.2h-6.2Zm0-27.8c-6.2,2.1-8.3,0-6.2-6.2C148.5,87.6,150.5,89.7,148.5,95.9ZM151.6,65V58.8l9.3,6.2Zm6.1-21.6,3.1-6.2,3.1,3.1Zm3.1-15.5c6.2-2.1,8.3,0,6.2,6.2C160.8,36.2,158.8,34.1,160.8,27.9Zm-6.2-12.3c4.1-2.1,5.2,1,3.1,9.3l-9.3-3.1ZM142.3,3.2c6.2-2.1,8.3,1,6.2,9.3C142.3,14.5,140.2,11.5,142.3,3.2ZM139.2.1C135,6.3,133,5.3,133-3ZM133,6.3c6.2-2.1,8.3,0,6.2,6.2C133,14.5,130.9,12.5,133,6.3Zm0,9.3,3.1,9.3-6.2-3.1ZM126.8,3.2q9.3,6.15,0,9.3Q117.5,9.35,126.8,3.2Zm-3.1,15.5V28c-6.2,2.1-8.3,1-6.2-3.1ZM117.5-3V3.2h-6.2ZM108.2,9.4l9.3,6.2-9.3,3.1Zm0,24.7c-6.2,2.1-8.3-1-6.2-9.3C108.2,22.8,110.3,25.9,108.2,34.1ZM102-3l3.1,9.3C96.9,8.4,95.8,5.3,102-3ZM95.8,27.9c-6.2,2.1-8.3,0-6.2-6.2C95.8,19.7,97.9,21.7,95.8,27.9Zm-9.2-34L95.8-3,86.5.1V-6.1Zm0,12.4,9.3,6.2-9.3,3.1ZM83.5,24.8c-6.2,2.1-8.3,1-6.2-3.1l6.2-6.2Q92.8,21.8,83.5,24.8ZM77.3-9.1c6.2-2.1,8.3,0,6.2,6.2C77.3-.9,75.2-3,77.3-9.1ZM74.2,3.2c6.2-2.1,8.3,1,6.2,9.3L74.2,9.4ZM71.1,40.3l9.3,6.2H71.1Zm0,132.8L64.9,170v-6.2C71.1,161.8,73.1,164.9,71.1,173.1Zm0-18.5,3.1,6.2C68,162.8,67,160.8,71.1,154.6Zm9.3,9.2V170H77.3Zm3.1,21.7H80.4l3.1-6.2Zm3.1-9.3H83.5l3.1-6.2Zm0-46.3q9.3,6.15,0,9.3Zm3.1,58.7v-3.1l3.1,3.1Zm6.1-6.2c-6.2,2.1-8.3,0-6.2-6.2C95.8,174.1,97.9,176.2,95.8,182.4Zm-3.1-9.3v-6.2l6.2,3.1Zm6.2-12.3v-3.1l3.1,3.1Zm3.1-15.5c4.1-2.1,5.2,0,3.1,6.2Zm9.3,40.2h-6.2l6.2-6.2Zm0-9.3v-3.1l3.1,3.1Zm0-9.3v-3.1l3.1,3.1Zm3.1-9.2h-6.2l6.2-6.2Zm0-9.3h-3.1l3.1-6.2Zm-3.1-18.5c6.2-2.1,8.3,0,6.2,6.2C111.3,138.1,109.3,136,111.3,129.9Zm6.2,49.4v-3.1l3.1,3.1Zm0-6.2,6.2-6.2,3.1,6.2Zm12.4,12.4h-3.1l3.1-6.2Zm6.2-34,3.1,6.2h-9.3Zm3.1-27.8h-3.1v-3.1Zm-3.1-12.4v-3.1l3.1,3.1Zm3.1,21.7-6.2,3v-6.2Zm-3.1,15.4-3.1-6.2C137.1,140.2,138.1,142.2,136.1,148.4Zm3.1,18.5L133,170v-6.2Zm0,12.4c-6.2,2.1-8.3,0-6.2-6.2C139.2,171,141.2,173.1,139.2,179.3Zm0-77.2L133,99V92.8C139.2,90.7,141.2,93.8,139.2,102.1Zm0-15.5c-6.2,2.1-8.3,0-6.2-6.2C139.2,78.4,141.2,80.4,139.2,86.6Zm0-15.4L133,74.3V65C139.2,62.9,141.2,65,139.2,71.2Zm9.3,101.9c-6.2,2.1-8.3,0-6.2-6.2C148.5,164.9,150.5,166.9,148.5,173.1Zm0-9.3-3.1-6.2C149.5,155.6,150.5,157.7,148.5,163.8Zm9.2,21.7c-6.2,2.1-8.3,0-6.2-6.2C157.7,177.2,159.8,179.3,157.7,185.5Zm3.1-34,3.1-6.2v6.2Zm6.2,9.3-3.1-6.2C168.1,152.5,169.1,154.6,167,160.8Zm3.1-49.5v6.2H167ZM167,129.9c-6.2,2.1-8.3,0-6.2-6.2-6.2,2.1-8.3,0-6.2-6.2,6.2-2.1,8.3,0,6.2,6.2C167,121.6,169.1,123.7,167,129.9Zm0-40.2c-6.2,2.1-8.3,0-6.2-6.2C167,81.5,169.1,83.5,167,89.7Zm-3.1-12.4c-6.2,2.1-8.3,0-6.2-6.2C163.9,69.1,166,71.2,163.9,77.3Zm6.2-24.7-9.3,3.1V49.5ZM167,12.5l3.1,9.3C161.9,23.8,160.8,20.7,167,12.5Z"/><polygon points="12.3 160.8 13.3 161.3 10.7 156.1 12.3 160.8"/><path d="M167,179.3l-.2-.9a10.47,10.47,0,0,0-.8,1.1C166.4,179.4,166.7,179.4,167,179.3Z"/><path d="M171,188.6V183A4,4,0,0,0,171,188.6Z"/><path d="M58.7,180.8c-4.7,2.7-4.2,5.3,1.5,7.7l1.5-12.4H58.6C59.3,177.1,59.3,178.7,58.7,180.8Z"/></g></svg>