<?xml version="1.0" encoding="utf-8"?>
<!-- Generator: Adobe Illustrator 22.0.0, SVG Export Plug-In . SVG Version: 6.00 Build 0)  -->
<svg version="1.1" id="Layer_1" xmlns="http://www.w3.org/2000/svg" xmlns:xlink="http://www.w3.org/1999/xlink" x="0px" y="0px"
	 viewBox="0 0 171.1 267.3" style="enable-background:new 0 0 171.1 267.3;" xml:space="preserve">
<style type="text/css">
	.st0{fill:#889E82;}
	.st1{opacity:0.3;}
	.st2{fill:none;}
	.st3{fill:#060606;}
	.st4{fill:#8D8D8D;}
	.st5{fill:#515151;}
	.st6{fill:#626262;}
	.st7{fill:#454545;}
	.st8{fill:#101010;}
	.st9{fill:#606060;}
	.st10{fill:#A1A1A1;}
	.st11{fill:#303030;}
	.st12{fill:#292929;}
	.st13{fill:#373737;}
	.st14{fill:#151515;}
	.st15{fill:#1E1E1E;}
	.st16{fill:#3E3E3E;}
	.st17{fill:#8B8B8B;}
	.st18{fill:#9B9B9B;}
	.st19{fill:#5F5F5F;}
	.st20{fill:#7E7E7E;}
	.st21{fill:#343434;}
	.st22{fill:#1B1B1B;}
	.st23{fill:#9E9E9E;}
	.st24{fill:#474747;}
	.st25{fill:#383838;}
	.st26{fill:#353535;}
	.st27{fill:#888888;}
	.st28{fill:#464646;}
	.st29{fill:#4A4A4A;}
	.st30{fill:#161616;}
	.st31{fill:#030303;}
	.st32{fill:#575757;}
	.st33{fill:#747474;}
</style>
<rect y="-1.3" class="st0" width="171.1" height="272.1"/>
<g class="st1">
	<path class="st2" d="M10.2,32l0,0.9c1.2-0.1,2.4-0.2,3.6-0.3c0-0.3-0.1-0.7-0.1-1c0.3-1,0.8-1.9,1.5-2.8c0.8-0.6,1.8-1.1,2.8-1.3
		c1.2-0.1,2.3-0.2,3.5-0.3c7.2-3.8,11.2-10.7,16.4-16.6c1.1-2.5,2.6-4.4,4.8-5.4c-0.7-1.8-1.3-3.6-0.5-5.6c0.1-0.3,0.3-0.6,0.4-0.9
		H0v44.5C3,39,3.6,32.7,10.2,32z"/>
	<path class="st2" d="M151.5-1.3c-2.4,6.1-5,12.2-7.9,18.2c-10,21.3-16.1,43.5-13.6,67.3c0.2,2.3,1.2,4.6,2,7.7
		c-4.5,0.2-8.5-2.6-12.5-0.9c-1.6,6-7.7,2.8-11,5.4c-2.2,0-4.3,0.1-6.5,0.1c-3.6,1.4-7.2,2.8-10.7,4.2c-0.7,0.1-1.4,0.1-2.1,0.2
		c-5.6,1.5-11.2,3-16.8,4.5c-4.4,3.6-2.8,11.1-8.8,13.7c0-1-0.1-2-0.1-3.1c0,0,0,0,0,0c-11.6,1.5-13.4-1.1-10.7-15.2
		c-2.8-11.2-5.7-22.5-8.4-33.7c-1.1-4.7,0.4-9.1,2.2-13.3l0,0c-7.1-2.7-14.3-5.4-21.4-8.2l0,0c-0.8,7-1.5,14-2.3,21
		c-1.4,4.3-2.8,8.6-4.2,12.9c0,0,0,0,0,0c-0.1,1.4-0.1,2.7-0.2,4.1c-0.8,1.3-1.5,2.6-2.3,3.9C9.8,94.3,4,101.6,0,110v148.7h171v-260
		H151.5z"/>
	<path class="st3" d="M126,18c0.9,6.2-3.1,12.1-11.1,12.4c0,2.1,0,4.3,0,6.4c-2,8.1-6.7,14.8-12.5,20.6c-3.3,3.3-4.8,6.9-4.5,11.4
		c0,0,0,0,0,0c6.1,1.4,6.8-4.7,9.4-6.9c15.6,4.2,5.9,15.7,7.6,24c1.6,1.7,3.2,3.4,4.7,5.1c4-1.6,7.9,1.2,12.5,0.9
		c-0.9-3.2-1.8-5.4-2-7.7c-2.5-23.8,3.6-46,13.6-67.3c2.8-6,5.5-12.1,7.9-18.2h-25.9C126.1,5.1,125,11.4,126,18z"/>
	<path class="st4" d="M66.1,98.7C66.1,98.8,66.1,98.8,66.1,98.7c-2.8,0.6-5.9-0.4-5.3-3.1c1.3-6.4-3.2-12-1.5-18.2
		c-0.1-0.7-0.1-1.4-0.2-2.1c0,0,0,0,0,0c-5.8-2.1-9.7-4.9-4.2-11.2c2.2-2.5,1.3-5.2,0.2-7.8c0,0,0,0,0,0c-2.8-0.8-5.6-1.7-8.5-2.5
		c-1.8,4.3-3.3,8.6-2.2,13.3c2.7,11.3,5.6,22.5,8.4,33.7c5.2,3.9,10.4,7.8,10.7,15.2c0,0,0,0,0,0c0,0,0,0,0,0c0,1,0.1,2.1,0.1,3.1
		c6-2.6,4.4-10,8.8-13.7C70.3,103.2,68.2,101,66.1,98.7C66.1,98.8,66.1,98.8,66.1,98.7z"/>
	<path class="st5" d="M80.7,73.1C80.7,73.1,80.7,73.1,80.7,73.1c-1.5-2.1-3-4.1-4.5-6.2c-1.3-0.8-2.7-1.6-4-2.3
		c4.9,9.6-5.4,16.6-4.2,25.6c0,0,0,0,0,0c8.5,0.9,17.5,0.7,21.3,10.8c0.7-0.1,1.4-0.1,2.1-0.2c0-5.7,0-11.3,0-17
		C88.8,79.2,80.8,80.1,80.7,73.1z"/>
	<path class="st6" d="M68,90.1C68,90.1,68,90.1,68,90.1C68,90.1,68,90.1,68,90.1c0,0-0.1,0.2-0.1,0.2l0,0c-0.4,2.9,2,6.3-1.7,8.5
		c0,0,0,0,0,0c2.1,2.2,4.2,4.5,6.3,6.7c5.6-1.5,11.2-3,16.8-4.5C85.4,90.8,76.4,91,68,90.1z"/>
	<path class="st7" d="M105,86.2c-4-1.3-8-4.1-9.7-8.8c0,0,0,0,0,0c-1.3-1.4-2.7-2.8-4-4.3c-2.1-0.8-4.2-1.5-6.3-2.3c0,0,0,0,0,0
		c-1.4,0.7-2.8,1.4-4.2,2.1c0.1,7,8.1,6.2,10.6,10.7c6.3,1.9,10.1,6,10.7,12.8c2.2,0,4.3-0.1,6.5-0.1C110.4,92,111.7,88.3,105,86.2z
		"/>
	<path class="st8" d="M114.8,85.9c-3-0.6-5.2-2.3-6.3-5.1c-2.9-7.6-7.6-7-13.2-3.3c0,0,0,0,0,0c0,0,0,0,0,0c1.6,4.7,5.7,7.5,9.7,8.8
		c6.7,2.1,5.4,5.7,3.5,10.1c3.3-2.6,9.4,0.7,11-5.4C118,89.3,116.4,87.6,114.8,85.9C114.8,85.9,114.8,85.9,114.8,85.9z"/>
	<path class="st9" d="M91.4,83.7c0,5.7,0,11.3,0,17c3.6-1.4,7.2-2.8,10.7-4.2C101.5,89.8,97.7,85.7,91.4,83.7z"/>
	<path class="st10" d="M18.5,83.6c0.1-1.3,0.1-2.7,0.2-4.1c-3.5,2.2-6.1,5.7-10.4,6.5c0,0,0,0,0,0c0,0,0,0,0,0
		c-2.8,2.1-5.6,4.2-8.3,6.2V110c4-8.3,9.8-15.6,16.2-22.5C17,86.2,17.7,84.9,18.5,83.6z"/>
	<path class="st11" d="M110.7,0.6c4.2-0.6,8.4-1.3,12.7-1.9h-14.8C109.4-0.8,110.1-0.1,110.7,0.6z"/>
	<path class="st12" d="M101.3,40.5c0.9,3.3-0.5,7.4-4.4,6.4c-4.3-1-0.5-4.6-0.4-7.1c0-1-0.4-2-0.7-3c-3.7,0.7-5.8,4-9.8,5.2
		c-7.3,2-5.2,8.6-3.2,14c0,0,0,0,0,0c0,0,0,0,0,0c1.4-0.7,2.8-1.4,4.3-2.1c0,0,0,0,0,0c0,0,0,0,0,0c-1.3-1.9-3.9-4.1-1-6.1
		c2.8-1.9,4.1,1.4,5.5,3.1c3.3,3.7,2.2,6.1-2.4,7.3c3.9,6-2.4,8.6-4.3,12.7c2.1,0.8,4.2,1.5,6.3,2.3c2.2-1.5,4.4-2.9,6.6-4.4
		c0,0,0,0,0,0c0,0,0,0,0,0c-0.2-4.5,1.2-8.1,4.5-11.4c5.8-5.8,10.5-12.4,12.5-20.6c-2.8-1.4-7.1,0.2-8.5-4.2c0,0,0,0,0,0
		C103.3,34.4,99.9,35.6,101.3,40.5z"/>
	<path class="st13" d="M106.3,30.5c0,0.7,0.1,1.5,0.1,2.2c0,0,0,0,0,0c0,0,0,0,0,0c1.4,4.4,5.7,2.8,8.5,4.2c0-2.1,0-4.3,0-6.4
		c0.2-4.6-3.5-9.4,1.1-13.8c2.1-2,0.6-3.5-1.5-4.9c-4.1-2.7-3.7-7.1-3.8-11.2c0,0,0,0,0,0c-0.6-0.7-1.4-1.3-2.1-1.9h-9.6
		c2.1,6.9,0.5,14.3,3,21.1C105.3,22.6,112.6,23.9,106.3,30.5z"/>
	<path class="st14" d="M110.7,0.6C110.7,0.6,110.7,0.6,110.7,0.6c0.1,4.2-0.3,8.6,3.8,11.2c2.1,1.3,3.5,2.9,1.5,4.9
		c-4.6,4.4-0.9,9.2-1.1,13.8c8-0.3,12-6.2,11.1-12.4c-1-6.6,0.2-13-0.4-19.4h-2.2C119.2-0.7,114.9-0.1,110.7,0.6z"/>
	<path class="st15" d="M91.3,73.2c1.3,1.4,2.7,2.8,4,4.3c0,0,0,0,0,0c5.6-3.7,10.3-4.3,13.2,3.3c1.1,2.8,3.3,4.5,6.3,5.1
		c0,0,0,0,0,0c-1.7-8.3,8-19.8-7.6-24c-2.6,2.2-3.3,8.4-9.4,6.9c0,0,0,0,0,0C95.7,70.3,93.5,71.7,91.3,73.2z"/>
	<path class="st16" d="M42.7,5.2c0.9-0.4,2-0.7,3.2-0.8c2.2,3.2,4.7,6.2,6.6,9.5c2.3,4.1,4.3,8.4-3.9,7.8c-3.7-0.3-5.2,1.9-3.8,5.5
		c0.7,1.9,2.8,4.1-0.8,4.9c-2.5,0.6-4-0.9-4.1-3.6c-0.2-6.5-4.3-2.3-6.8-2.5c0,0,0,0,0,0c-4.3,3.9-9.4,4.8-15,4.2
		c0.9-0.9,1.9-1.9,2.8-2.8c0.2-0.1,0.4-0.2,0.6-0.3c-1.2,0.1-2.3,0.2-3.5,0.3c-1,0.3-1.9,0.7-2.8,1.3c-0.7,0.8-1.2,1.7-1.5,2.8
		c0.1,0.3,0.1,0.7,0.1,1c0.2,0,0.3,0,0.5,0c0.1-0.1,0.3-0.3,0.4-0.4c0.6-0.5,1.2-1.1,1.8-1.6c0,0.8,0.1,1.7,0.1,2.5
		c2.2,3.2-3.2,9.6,4.4,10.5c0,0,0,0,0,0c0,0,0,0,0,0c1.4,0.7,2.7,1.4,4.1,2.1c0,0,0,0,0,0l0,0c7.1,2.7,14.3,5.4,21.4,8.2l0,0
		c2.8,0.8,5.6,1.7,8.5,2.5c0,0,0,0,0,0c0,0,0,0,0,0c1.4,0.6,2.8,1.3,4.2,1.9c1.4,0,2.8,0.1,4.3,0.1c0,0,0,0,0,0c0,0,0,0,0,0
		c-4.4-3.6-3-9.9-6.9-14.2c-2.8-3,6-2.9,4.8-7.4l0,0c-3.2-5.9,1.1-8.3,5-10.9c10.3-7.1,10.3-7.1-0.7-12.5c-1.2-0.6-2-1.7-3.8-3.2
		c5.2-2.8,9.2,0,12.1,1.7c5.2,3,8.2,1.3,12.3-1.7c4.3-3.2,5.8-7.3,4.2-11.5h-48c-0.2,0.3-0.3,0.6-0.4,0.9C41.4,1.6,42,3.4,42.7,5.2z
		"/>
	<path class="st17" d="M21.1,43.5C21.1,43.5,21.1,43.6,21.1,43.5c-0.7,6.3,0.4,12.9-2.2,19c0,0,0,0,0,0c-1.9,6.9-1.9,14.6-8.6,19.3
		c0,0,0,0,0,0c-0.7,1.4-1.3,2.8-2,4.2c0,0,0,0,0,0c4.3-0.8,6.9-4.3,10.4-6.5c0,0,0,0,0,0c1.4-4.3,2.8-8.6,4.2-12.9
		c0.8-7,1.5-14,2.3-21c0,0,0,0,0,0C23.9,44.9,22.5,44.2,21.1,43.5z"/>
	<path class="st18" d="M52.8,100.8c-2.7,14.1-0.9,16.7,10.7,15.2c0,0,0,0,0,0C63.3,108.7,58,104.8,52.8,100.8z"/>
	<path class="st19" d="M59.2,75.3C59.2,75.3,59.2,75.3,59.2,75.3C59.2,75.3,59.2,75.3,59.2,75.3c0.1,0.7,0.1,1.4,0.2,2.1
		c5,2.9,3.7,9.9,8.5,12.9c0,0,0.1-0.2,0.1-0.2c0,0,0,0,0,0c-1.2-9,9.1-16,4.2-25.6c-2.9-2.1-5.7-4.1-8.6-6.2c0,0,0,0,0,0
		c-1.4,0-2.8-0.1-4.3-0.1C61.7,63.9,61.4,69.6,59.2,75.3z"/>
	<path class="st20" d="M59.4,77.4c-1.7,6.2,2.8,11.9,1.5,18.2c-0.6,2.7,2.5,3.7,5.3,3.1c0,0,0,0,0,0c3.8-2.2,1.3-5.6,1.7-8.5l0,0
		C63.1,87.3,64.4,80.3,59.4,77.4z"/>
	<path class="st20" d="M54.9,64.1c-5.4,6.4-1.5,9.1,4.2,11.2c0,0,0,0,0,0c2.2-5.7,2.5-11.4,0.1-17.1c-1.4-0.6-2.8-1.3-4.2-1.9
		c0,0,0,0,0,0C56.2,58.9,57.1,61.6,54.9,64.1z"/>
	<path class="st21" d="M72.2,64.5c1.3,0.8,2.7,1.6,4,2.3c0.4-4.7,0.7-9.5,6.6-10.8c0,0,0,0,0,0c-2-5.5-4.2-12,3.2-14
		c4-1.1,6.1-4.5,9.8-5.2c-0.1-0.7-0.1-1.5-0.2-2.2c0,0,0,0,0,0c-1.1-2.6-0.9-7.4-6-4.4c-5.1,2.9-7-0.5-8.9-4.1l0,0
		c-5.9,4.4-11,10.3-19.2,10.7c1.2,4.5-7.6,4.3-4.8,7.4c3.9,4.3,2.5,10.6,6.9,14.2c0,0,0,0,0,0C66.5,60.4,69.3,62.5,72.2,64.5z"/>
	<path class="st22" d="M89.2,58.2c-0.7-1.4-1.4-2.9-2.1-4.3c0,0,0,0,0,0c-1.4,0.7-2.8,1.4-4.3,2.1c0,0,0,0,0,0
		c-5.9,1.4-6.2,6.2-6.6,10.8c1.5,2.1,3,4.1,4.5,6.2c0,0,0,0,0,0c1.4-0.7,2.8-1.4,4.2-2.1c0,0,0,0,0,0C86.9,66.9,93.2,64.3,89.2,58.2
		z"/>
	<path class="st23" d="M10.1,43.1C10.1,43.1,10.1,43.1,10.1,43.1C10.1,43.1,10.1,43.1,10.1,43.1c0.7-2.1,1.3-4.1,2-6.2
		c-0.6-1.3-1.2-2.7-1.9-4l0-0.9C3.6,32.7,3,39,0,43.1v14.4C4.5,53.9,7.8,49,10.1,43.1z"/>
	<path class="st24" d="M8.3,86c0.7-1.4,1.3-2.8,2-4.2c0,0,0,0,0,0c0,0,0,0,0,0c0-2.9-0.1-5.8-0.1-8.7C8.1,77.3,4,78.1,0,79v13.2
		C2.8,90.2,5.6,88.1,8.3,86C8.3,86,8.3,86,8.3,86z"/>
	<path class="st25" d="M86.3,10.2c-4,3-7.1,4.8-12.3,1.7c-2.9-1.7-6.9-4.5-12.1-1.7c1.8,1.5,2.7,2.6,3.8,3.2
		c11,5.4,11.1,5.4,0.7,12.5c-3.9,2.7-8.2,5.1-5,10.9l0,0c8.2-0.3,13.3-6.2,19.2-10.7l0,0l0,0c2.1-0.5,4.2-1.8,6.1-1.5
		c6.1,1.1,11.4,0.7,15.2-4.9c-2.5-6.8-0.9-14.2-3-21.1h-8.5C92.1,2.9,90.6,7,86.3,10.2z"/>
	<path class="st3" d="M95.6,34.7C95.6,34.7,95.6,34.7,95.6,34.7C95.6,34.7,95.6,34.7,95.6,34.7c0.1,0.7,0.1,1.5,0.2,2.2
		c0.2,1,0.7,2,0.7,3c-0.1,2.5-3.8,6,0.4,7.1c3.9,0.9,5.3-3.2,4.4-6.4c-1.4-5,2-6.2,5.1-7.9c0,0,0,0,0,0c0-0.7-0.1-1.5-0.1-2.2
		C102.1,30.3,98.9,32.6,95.6,34.7z"/>
	<path class="st26" d="M91.6,50.9c-1.5-1.6-2.7-5-5.5-3.1c-2.9,2-0.2,4.2,1,6.1c0,0,0,0,0,0c0.7,1.4,1.4,2.8,2.1,4.3
		C93.8,57,94.9,54.6,91.6,50.9z"/>
	<path class="st12" d="M89.6,30.2c5.1-2.9,4.8,1.8,6,4.4c0,0,0,0,0,0c3.3-2,6.5-4.3,10.7-4.2c6.4-6.6-1-7.9-4.2-10.7
		c-3.8,5.6-9.1,6-15.2,4.9c-1.9-0.3-4.1,1-6.1,1.5l0,0C82.6,29.8,84.6,33.2,89.6,30.2z"/>
	<path class="st27" d="M10.1,43.1C10.1,43.1,10.1,43.1,10.1,43.1C7.8,49,4.5,53.9,0,57.6v6.2C6.1,58.7,10.9,52.7,10.1,43.1z"/>
	<path class="st28" d="M33.1,26.1c2.5,0.2,6.6-4,6.8,2.5c0.1,2.6,1.6,4.1,4.1,3.6c3.6-0.8,1.6-3,0.8-4.9c-1.5-3.6,0-5.8,3.8-5.5
		c8.2,0.7,6.2-3.6,3.9-7.8c-1.9-3.4-4.4-6.4-6.6-9.5c-1.2,0.1-2.2,0.3-3.2,0.8c-2.2,1-3.8,2.9-4.8,5.4C39.5,16.7,33,20.4,33.1,26.1z
		"/>
	<path class="st29" d="M14.4,32.5c0.1-0.1,0.3-0.2,0.4-0.4C14.6,32.3,14.5,32.4,14.4,32.5z"/>
	<path class="st29" d="M19,62.5C19,62.5,19,62.5,19,62.5C19,62.5,19,62.5,19,62.5c2.6-6.1,1.5-12.6,2.2-19c0,0,0,0,0,0
		c-7.7-0.9-2.2-7.3-4.4-10.5c-0.8-0.2-1.6-0.4-2.4-0.5c-0.2,0-0.3,0-0.5,0c-1.2,0.1-2.4,0.2-3.6,0.3c0.6,1.3,1.2,2.7,1.9,4
		c4.6,10.7-0.1,20.2-4,29.8c0,0,0,0,0,0c0.7,2.1,1.4,4.3,2.1,6.4C14.2,70.5,13.7,64.1,19,62.5z"/>
	<path class="st30" d="M18.2,30.3c5.5,0.5,10.7-0.3,15-4.2c0,0,0,0,0,0c-0.2-5.7,6.3-9.3,4.7-15.5c-5.1,5.9-9.2,12.8-16.4,16.6
		c-0.2,0.1-0.4,0.2-0.6,0.3C20,28.4,19.1,29.3,18.2,30.3z"/>
	<path class="st31" d="M16.6,30.6c-0.6,0.5-1.2,1.1-1.8,1.6c-0.1,0.1-0.3,0.2-0.4,0.4c0.8,0.2,1.6,0.4,2.4,0.5
		C16.7,32.2,16.6,31.4,16.6,30.6z"/>
	<path class="st32" d="M19,62.5C19,62.5,19,62.5,19,62.5c-5.3,1.6-4.8,8-8.7,10.6c0,0,0,0,0,0c0,0,0,0,0,0c0,2.9,0.1,5.8,0.1,8.7
		c0,0,0,0,0,0C17.1,77.1,17.1,69.4,19,62.5z"/>
	<path class="st33" d="M8.1,66.7C8.1,66.7,8.1,66.7,8.1,66.7C8.1,66.7,8.1,66.7,8.1,66.7c3.9-9.6,8.6-19.1,4-29.8
		c-0.7,2.1-1.3,4.1-2,6.2c0,0,0,0,0,0c0.7,9.6-4,15.6-10.1,20.7v8.1C2.4,69.6,4.6,67,8.1,66.7z"/>
	<path class="st32" d="M10.2,73.1C10.2,73.1,10.2,73.1,10.2,73.1C10.2,73.1,10.2,73.1,10.2,73.1c-0.7-2.1-1.4-4.3-2.1-6.4
		c0,0,0,0,0,0C4.6,67,2.4,69.6,0,71.9V79C4,78.1,8.1,77.3,10.2,73.1z"/>
</g>
</svg>
