<?xml version="1.0" encoding="utf-8"?>
<!-- Generator: Adobe Illustrator 18.0.0, SVG Export Plug-In . SVG Version: 6.00 Build 0)  -->
<!DOCTYPE svg PUBLIC "-//W3C//DTD SVG 1.1//EN" "http://www.w3.org/Graphics/SVG/1.1/DTD/svg11.dtd">
<svg version="1.1" id="Calque_1" xmlns="http://www.w3.org/2000/svg" xmlns:xlink="http://www.w3.org/1999/xlink" x="0px" y="0px"
	 viewBox="0 0 45 45" enable-background="new 0 0 45 45" xml:space="preserve">
<g>
	<g>
		<path fill="#00A8F8" d="M22.5,45C10.1,45,0,34.9,0,22.5C0,10.1,10.1,0,22.5,0S45,10.1,45,22.5C45,34.9,34.9,45,22.5,45L22.5,45z
			 M22.5,1C10.6,1,1,10.6,1,22.5C1,34.4,10.6,44,22.5,44S44,34.4,44,22.5C44,10.6,34.4,1,22.5,1L22.5,1z"/>
	</g>
</g>
<g>
	<path fill="#00A8F8" stroke="#00A8F8" stroke-miterlimit="10" d="M18.5,31.9c-0.1,0-0.3-0.1-0.4-0.2l-6.6-7c-0.2-0.2-0.2-0.5,0-0.7
		c0.2-0.2,0.5-0.2,0.7,0l6.2,6.5l14.3-17.4c0.2-0.2,0.5-0.2,0.7-0.1c0.2,0.2,0.2,0.5,0.1,0.7L18.9,31.7
		C18.8,31.8,18.7,31.9,18.5,31.9C18.5,31.9,18.5,31.9,18.5,31.9L18.5,31.9z"/>
</g>
</svg>
