<?xml version="1.0" encoding="utf-8"?>
<!-- Generator: Adobe Illustrator 18.0.0, SVG Export Plug-In . SVG Version: 6.00 Build 0)  -->
<!DOCTYPE svg PUBLIC "-//W3C//DTD SVG 1.1//EN" "http://www.w3.org/Graphics/SVG/1.1/DTD/svg11.dtd">
<svg version="1.1" id="Calque_1" xmlns="http://www.w3.org/2000/svg" xmlns:xlink="http://www.w3.org/1999/xlink" x="0px" y="0px"
	 viewBox="401.8 0 465 605.8" enable-background="new 401.8 0 465 605.8" xml:space="preserve">
<g>
	<g>
		<path fill="#CACACA" stroke="#CACACA" stroke-width="5" stroke-miterlimit="10" d="M633.9,456c-109.2,0-199.1-89.9-199.1-199.1
			S524.7,57.8,633.9,57.8S833,147.7,833,256.9S743.1,456,633.9,456L633.9,456z M633.9,66.1c-105.1,0-190.8,85.7-190.8,190.8
			s85.7,190.8,190.8,190.8S824.7,362,824.7,256.9S739,66.1,633.9,66.1L633.9,66.1z"/>
	</g>
</g>
<g>
	<path fill="#CACACA" stroke="#CACACA" stroke-width="13" stroke-miterlimit="10" d="M597.9,339.8c-1.4,0-2.8,0-2.8-1.4l-58.1-62.2
		c-1.4-1.4-1.4-4.1,0-6.9c1.4-1.4,4.1-1.4,6.9,0l55.3,58.1l125.8-152.1c1.4-1.4,4.1-2.8,6.9,0c1.4,1.4,2.8,4.1,0,6.9l-130,157.6
		C600.7,339.8,599.3,339.8,597.9,339.8L597.9,339.8L597.9,339.8z"/>
</g>
</svg>
