<?xml version="1.0" encoding="utf-8"?>
<!-- Generator: Adobe Illustrator 22.0.0, SVG Export Plug-In . SVG Version: 6.00 Build 0)  -->
<svg version="1.1" id="Layer_1" xmlns="http://www.w3.org/2000/svg" xmlns:xlink="http://www.w3.org/1999/xlink" x="0px" y="0px"
	 viewBox="0 0 46 46" style="enable-background:new 0 0 46 46;" xml:space="preserve">
<style type="text/css">
	.st0{fill:none;stroke:#9C489C;stroke-miterlimit:10;}
	.st1{fill:none;stroke:#F9DC86;stroke-miterlimit:10;}
	.st2{fill:#D74998;}
</style>
<title>skill_icon</title>
<path class="st0" d="M25.4,38.5l6.2,3.9c2.4,1.5,5.5,0.7,7-1.7l3.8-6.3c1.5-2.4,0.7-5.6-1.7-7.1l-6.2-3.9c-2.4-1.5-5.5-0.7-7,1.7
	l-3.8,6.3C22.3,33.8,23,37,25.4,38.5z"/>
<polygon class="st1" points="19,24.7 19,2.5 1.7,15.9 "/>
<g>
	<g>
		<path class="st2" d="M43.2,22.1H32.4c-0.4,0-0.8-0.2-1.1-0.5l-8.4-8.9H12.2c-0.8,0-1.5-0.7-1.5-1.5c0-0.8,0.7-1.5,1.5-1.5h11.3
			c0.4,0,0.8,0.2,1.1,0.5L33,19h10.2c0.8,0,1.5,0.7,1.5,1.5C44.7,21.4,44.1,22.1,43.2,22.1L43.2,22.1z"/>
	</g>
	<g>
		<path class="st2" d="M23.5,31.4H12.2c-0.8,0-1.5-0.7-1.5-1.5c0-0.8,0.7-1.5,1.5-1.5h10.7l8.4-8.9c0.3-0.3,0.7-0.5,1.1-0.5h10.9
			c0.8,0,1.5,0.7,1.5,1.5c0,0.8-0.7,1.5-1.5,1.5H33L24.6,31C24.3,31.3,23.9,31.4,23.5,31.4L23.5,31.4z"/>
	</g>
	<g>
		<path class="st2" d="M37.8,27.9c-0.4,0-0.8-0.1-1.1-0.4c-0.6-0.6-0.6-1.6,0-2.2l4.8-4.8l-4.8-4.8c-0.6-0.6-0.6-1.6,0-2.2
			c0.6-0.6,1.6-0.6,2.2,0l5.9,5.9c0.6,0.6,0.6,1.6,0,2.2l-5.9,5.9C38.6,27.8,38.2,27.9,37.8,27.9L37.8,27.9z"/>
	</g>
</g>
</svg>
