<?xml version="1.0" encoding="utf-8"?>
<!-- Generator: Adobe Illustrator 22.0.0, SVG Export Plug-In . SVG Version: 6.00 Build 0)  -->
<svg version="1.1" id="Layer_1" xmlns="http://www.w3.org/2000/svg" xmlns:xlink="http://www.w3.org/1999/xlink" x="0px" y="0px"
	 viewBox="0 0 46 46" style="enable-background:new 0 0 46 46;" xml:space="preserve">
<style type="text/css">
	.st0{fill:none;stroke:#9C489C;stroke-miterlimit:10;}
	.st1{fill:none;stroke:#F9DC86;stroke-miterlimit:10;}
	.st2{fill:#D74998;}
</style>
<title>skill_icon</title>
<circle class="st0" cx="14" cy="12.3" r="11.3"/>
<path class="st1" d="M42.4,28.8c2,3.1-1.3,13.2-4.4,15.1c-3.1,2-7.3-0.7-9.2-3.8c-2-3.1-0.1-7.6,3.3-9.7
	C35.2,28.5,40.4,25.7,42.4,28.8z"/>
<g>
	<g>
		<path class="st2" d="M35.6,41.4H11.8c-0.4,0-0.7-0.3-0.7-0.7V12c0-0.4,0.3-0.7,0.7-0.7h5.2c0.4,0,0.7,0.3,0.7,0.7
			c0,0.4-0.3,0.7-0.7,0.7h-4.5v27.4h22.4V12.7h-4.7c-0.4,0-0.7-0.3-0.7-0.7c0-0.4,0.3-0.7,0.7-0.7h5.4c0.4,0,0.7,0.3,0.7,0.7v28.8
			C36.4,41.1,36,41.4,35.6,41.4L35.6,41.4z"/>
	</g>
	<g>
		<path class="st2" d="M28.6,14.4h-9.7c-1.3,0-2.3-1-2.3-2.2c0-1.2,1.1-2.2,2.3-2.2h9.7c1.3,0,2.3,1,2.3,2.2
			C30.9,13.4,29.9,14.4,28.6,14.4L28.6,14.4z M18.8,11.3c-0.5,0-0.9,0.4-0.9,0.8c0,0.5,0.4,0.8,0.9,0.8h9.7c0.5,0,0.9-0.4,0.9-0.8
			c0-0.5-0.4-0.8-0.9-0.8H18.8L18.8,11.3z"/>
	</g>
	<g>
		<path class="st2" d="M18.8,19.6h-1.7c-0.4,0-0.7,0.3-0.7,0.6v1.6c0,0.3,0.3,0.6,0.7,0.6h1.7c0.4,0,0.7-0.3,0.7-0.6v-1.6
			C19.5,19.9,19.2,19.6,18.8,19.6L18.8,19.6z"/>
		<g>
			<path class="st2" d="M31,21.7h-9.3c-0.4,0-0.7-0.3-0.7-0.7s0.3-0.7,0.7-0.7H31c0.4,0,0.7,0.3,0.7,0.7S31.4,21.7,31,21.7L31,21.7z
				"/>
		</g>
		<path class="st2" d="M18.8,28.9h-1.7c-0.4,0-0.7,0.3-0.7,0.6v1.6c0,0.3,0.3,0.6,0.7,0.6h1.7c0.4,0,0.7-0.3,0.7-0.6v-1.6
			C19.5,29.2,19.2,28.9,18.8,28.9L18.8,28.9z"/>
		<g>
			<path class="st2" d="M31,31h-9.3c-0.4,0-0.7-0.3-0.7-0.7c0-0.4,0.3-0.7,0.7-0.7H31c0.4,0,0.7,0.3,0.7,0.7
				C31.7,30.7,31.4,31,31,31L31,31z"/>
		</g>
		<path class="st2" d="M18.8,24.3h-1.7c-0.4,0-0.7,0.3-0.7,0.6v1.6c0,0.3,0.3,0.6,0.7,0.6h1.7c0.4,0,0.7-0.3,0.7-0.6v-1.6
			C19.5,24.6,19.2,24.3,18.8,24.3L18.8,24.3z"/>
		<g>
			<path class="st2" d="M31,26.4h-9.3c-0.4,0-0.7-0.3-0.7-0.7c0-0.4,0.3-0.7,0.7-0.7H31c0.4,0,0.7,0.3,0.7,0.7
				C31.7,26.1,31.4,26.4,31,26.4L31,26.4z"/>
		</g>
	</g>
</g>
</svg>
