<?xml version="1.0" encoding="utf-8"?>
<!-- Generator: Adobe Illustrator 22.0.0, SVG Export Plug-In . SVG Version: 6.00 Build 0)  -->
<svg version="1.1" id="Layer_1" xmlns="http://www.w3.org/2000/svg" xmlns:xlink="http://www.w3.org/1999/xlink" x="0px" y="0px"
	 viewBox="0 0 46 46" style="enable-background:new 0 0 46 46;" xml:space="preserve">
<style type="text/css">
	.st0{fill:none;stroke:#F9DC86;stroke-miterlimit:10;}
	.st1{fill:#9C489C;}
	.st2{fill:none;stroke:#D74998;stroke-miterlimit:10;}
</style>
<title>skill_icon</title>
<path class="st0" d="M23,40.4l-7,4.3c-2,1.2-4.7,0.6-5.9-1.4l-4.3-7c-1.2-2-0.6-4.7,1.4-5.9l7-4.3c2-1.2,4.7-0.6,5.9,1.4l4.3,7
	C25.7,36.4,25,39.1,23,40.4z"/>
<polygon class="st1" points="23,21.9 23,1 39.6,13.7 "/>
<g>
	<polyline class="st2" points="27.1,23.2 29.4,23.2 29.4,27.8 33.9,23.2 37.9,23.2 37.9,13.1 20.9,13.1 20.9,17.6 	"/>
	<path class="st2" d="M18,30.8v2.5l-4.5,1.6c-1.1,0.4-1.8,1.4-1.8,2.5v1.7h17v-1.7c0-1.1-0.7-2.1-1.8-2.5l-4.5-1.6v-2.6"/>
	<path class="st2" d="M24.7,26.1c0,3-2,5.4-4.5,5.4c-2.5,0-4.5-2.4-4.5-5.4c0-3,2-5.4,4.5-5.4C22.7,20.8,24.7,23.2,24.7,26.1z"/>
	<path class="st2" d="M24.6,25.7c-0.2,0-0.3,0-0.4,0c-1.5,0.3-2.5-0.3-3.3-1.7c-0.5,1-2.1,1.7-3.4,1.7c-0.6,0-1.2-0.1-1.7-0.4"/>
	<g>
		<g>
			<polygon class="st2" points="33.9,18.1 32.8,18.1 32.8,19.3 33.9,19.3 33.9,18.1 			"/>
		</g>
	</g>
	<g>
		<g>
			<polygon class="st2" points="30.5,18.1 29.4,18.1 29.4,19.3 30.5,19.3 30.5,18.1 			"/>
		</g>
	</g>
	<g>
		<g>
			<polygon class="st2" points="27.1,18.1 26,18.1 26,19.3 27.1,19.3 27.1,18.1 			"/>
		</g>
	</g>
</g>
</svg>
