<?xml version="1.0" encoding="utf-8"?>
<!-- Generator: Adobe Illustrator 22.0.0, SVG Export Plug-In . SVG Version: 6.00 Build 0)  -->
<svg version="1.1" id="Layer_1" xmlns="http://www.w3.org/2000/svg" xmlns:xlink="http://www.w3.org/1999/xlink" x="0px" y="0px"
	 viewBox="0 0 24 24" style="enable-background:new 0 0 24 24;" xml:space="preserve">
<style type="text/css">
	.st0{fill:#FFFFFF;}
</style>
<path class="st0" d="M23.3,5.1c-0.8,0.4-1.7,0.6-2.6,0.7c0.9-0.5,1.6-1.4,2-2.5c-0.9,0.5-1.8,0.9-2.9,1.1C19,3.5,17.8,3,16.5,3
	c-2.9,0-5.1,2.7-4.4,5.6C8.3,8.4,5,6.6,2.7,3.8c-1.2,2-0.6,4.7,1.4,6.1c-0.7,0-1.4-0.2-2.1-0.6c0,2.1,1.5,4.1,3.7,4.5
	c-0.6,0.2-1.3,0.2-2,0.1C4.3,15.7,6,17,7.9,17.1C6,18.6,3.6,19.2,1.2,19c2,1.3,4.4,2,7,2c8.4,0,13.2-7.1,12.9-13.5
	C21.9,6.8,22.7,6.1,23.3,5.1L23.3,5.1z"/>
</svg>
