<?xml version="1.0" encoding="utf-8"?>
<!-- Generator: Adobe Illustrator 22.0.0, SVG Export Plug-In . SVG Version: 6.00 Build 0)  -->
<svg version="1.1" id="Calque_1" xmlns="http://www.w3.org/2000/svg" xmlns:xlink="http://www.w3.org/1999/xlink" x="0px" y="0px"
	 viewBox="0 0 935.9 797.3" enable-background="new 0 0 935.9 797.3" xml:space="preserve">
<circle fill="#2D275E" cx="469.2" cy="397.1" r="392.9"/>
<g>
	<g>
		<g>
			<path fill="#FFFFFF" d="M470.8,797.3c-53.8,0-106.1-10.6-155.2-31.3c-47.4-20.1-90.1-48.8-126.7-85.4s-65.4-79.3-85.4-126.8
				c-20.8-49.1-31.3-101.4-31.3-155.2s10.5-106.1,31.1-155.2c20-47.5,48.6-90.1,85-126.7c36.5-36.6,79-65.4,126.4-85.4
				C363.7,10.5,416,0,469.8,0C523.6,0,575.9,10.6,625,31.3c47.4,20.1,90.1,48.8,126.7,85.4c36.6,36.6,65.4,79.2,85.4,126.7
				c20.8,49.1,31.3,101.4,31.3,155.2s-10.5,106.1-31.1,155.2c-19.9,47.5-48.6,90.2-85,126.7c-36.5,36.6-79,65.4-126.4,85.4
				C576.8,786.8,524.6,797.3,470.8,797.3z M469.8,5.6c-53.1,0-104.6,10.4-152.9,30.9c-46.7,19.8-88.6,48.1-124.6,84.2
				c-35.9,36.1-64.2,78.1-83.8,125c-20.4,48.4-30.7,99.9-30.7,153s10.4,104.6,30.9,153c19.8,46.8,48.1,88.8,84.2,125
				c36.1,36.1,78.1,64.4,125,84.2c48.5,20.5,99.9,30.9,153,30.9s104.6-10.4,152.9-30.9c46.7-19.8,88.6-48.1,124.6-84.2
				c35.9-36.1,64.2-78.1,83.8-125c20.4-48.5,30.7-99.9,30.7-153s-10.4-104.6-30.9-153c-19.8-46.8-48.1-88.8-84.2-125
				c-36.1-36.1-78.2-64.4-125-84.2C574.5,16,522.9,5.6,469.8,5.6z"/>
		</g>
		<g>
			
				<linearGradient id="SVGID_1_" gradientUnits="userSpaceOnUse" x1="397.3013" y1="-47.2339" x2="750.3938" y2="251.4473" gradientTransform="matrix(1 0 0 1 0 200)">
				<stop  offset="0" style="stop-color:#FFC171"/>
				<stop  offset="1" style="stop-color:#FF616E"/>
			</linearGradient>
			<path fill="url(#SVGID_1_)" d="M465.5,712.4c60.1-157.8,233.9-165.8,385.7-385.7c256.1-371-126.5-248.4-385.7-254.6"/>
		</g>
		
			<linearGradient id="SVGID_2_" gradientUnits="userSpaceOnUse" x1="103.1276" y1="103.7937" x2="560.02" y2="490.279" gradientTransform="matrix(1 0 0 1 0 200)">
			<stop  offset="0" style="stop-color:#FFC171"/>
			<stop  offset="1" style="stop-color:#FF616E"/>
		</linearGradient>
		<path fill="url(#SVGID_2_)" d="M467.7,334.2c-450.8-6.8-776.8,76.1,2.6,462.1"/>
	</g>
</g>
<g id="QpTMHw.tif">
</g>
</svg>
