<?xml version="1.0" encoding="utf-8"?>
<!-- Generator: Adobe Illustrator 22.0.0, SVG Export Plug-In . SVG Version: 6.00 Build 0)  -->
<svg version="1.1" id="Calque_1" xmlns="http://www.w3.org/2000/svg" xmlns:xlink="http://www.w3.org/1999/xlink" x="0px" y="0px"
	 viewBox="0 0 1000 1000" enable-background="new 0 0 1000 1000" xml:space="preserve">
<g>
	<g>
		<path fill="#2D275E" d="M753,930.9c-54.5,0-108.9,0-163.4,0c-11,0-24.5-1.9-24.5-16.5c0-2.8,0-5.6,0-8.4c0-18.6,0-37.3,0-55.9
			c0-132.2,0-264.5,0-396.7c0-15.8,0-31.5,0-47.3c0-22,19.9-20.1,36-20.1c34.2,0,68.4,0,102.6,0c13.4,0,26.7,0,40.1,0
			c11,0,24.6,1.9,24.6,16.5c0,106.9,0,213.8,0,320.7c0,46.7,0,93.4,0,140c0,13.7,0,27.5,0,41.2C768.3,915.4,768.9,930.9,753,930.9z"
			/>
	</g>
	<g>
		<path fill="#2D275E" d="M472.8,930.9c-54.5,0-108.9,0-163.4,0c-11,0-24.5-1.9-24.5-16.5c0-4.7,0-9.4,0-14c0-27.9,0-55.7,0-83.6
			c0-61.9,0-123.9,0-185.8c0-7.6-0.7-15.1,5.8-20.9c6.6-5.9,17.6-4.1,25.8-4.1c33.4,0,66.8,0,100.3,0c14.5,0,29.1,0,43.6,0
			c9.6,0,20.6-1.6,26.6,8c3.3,5.4,2.4,12.5,2.4,18.6c0,10.6,0,21.3,0,31.9c0,68,0,136,0,204c0,12.6,0,25.2,0,37.8
			C489.3,917.1,487.7,930.9,472.8,930.9z"/>
	</g>
	<g>
		<path fill="#2D275E" d="M192.7,930.9c-54.4,0-108.8,0-163.1,0c-10.9,0-23.6-2.6-23.6-16.7c0-9.6,0-19.1,0-28.7
			c0-32.4,0-64.8,0-97.3c0-11.2,2.4-24.1,16.8-24.1c8.5,0,16.9,0,25.4,0c34.7,0,69.5,0,104.2,0c15.8,0,56.7-7.4,56.7,17.7
			c0,29,0,58,0,87c0,12.7,0,25.3,0,38C209.2,917.6,206.8,930.9,192.7,930.9z"/>
	</g>
	<g>
		<path fill="#2D275E" d="M535.5,349.3c-14,0-21.8-17.2-11.7-27.3c2.5-2.5,5-5,7.5-7.5c12.8-12.8,25.6-25.6,38.4-38.4
			c22.1-22.1,44.2-44.2,66.3-66.3c-37-37-74-73.9-111-110.9C510,84,530.5,59.7,546.1,75c5.2,4.2,9.7,9.7,14.4,14.4
			c24.1,24.1,48.2,48.2,72.3,72.3c12.3,12.3,26.4,24,37.4,37.4c15.8,15.8-15.5,38-25.1,47.6c-21.5,21.5-43,43.1-64.5,64.6
			c-8.5,8.5-17,17-25.4,25.5C549.6,342.3,544.1,349.3,535.5,349.3z"/>
	</g>
	<g>
		<path fill="#2D275E" d="M118.7,641.3c-30.1,0-9.6-49.9-5.1-65.2c7.3-25,16.5-49.4,27.3-73.1c21.3-46.3,49.2-89.6,82.7-128
			C290,298.7,378,241.9,475.3,213.8c24.7-7.2,50-12.5,75.5-15.9c12.4-1.7,24.9-2.9,37.4-3.6c11.2-0.7,29.6-4.5,39.6,1.2
			c10.7,6.1,11.5,22.4,0.5,28.6c-10.1,5.7-28.6,2.4-40,3.2c-25.8,1.7-51.5,5.4-76.8,11.1c-98.6,22.5-189,76.1-256.8,151.1
			c-32.6,36.2-59.9,77.1-80.7,121.2c-10.6,22.5-19.5,45.7-26.7,69.5c-3.6,12.1-6.8,24.3-9.5,36.7
			C135.4,628.3,133.3,641.3,118.7,641.3z"/>
	</g>
	<g>
		<linearGradient id="SVGID_1_" gradientUnits="userSpaceOnUse" x1="628.0372" y1="382.4308" x2="714.8827" y2="455.8934">
			<stop  offset="0" style="stop-color:#FFC171"/>
			<stop  offset="1" style="stop-color:#FF616E"/>
		</linearGradient>
		<path fill="url(#SVGID_1_)" d="M730.5,424.9c-25.1,0-50.1,0-75.2,0c-13,0-26,0-39.1,0c-4.2,0-8.4,0-12.6,0c-5.3,0-5.3-11.8,0-11.8
			c26.1,0,52.2,0,78.3,0c13.8,0,27.5,0,41.3,0c2.4,0,4.8,0,7.3,0c3,0,10.6-2,10.6,1.8c0,3.3,0,6.6,0,10
			C741.1,423.9,731.2,424.9,730.5,424.9L730.5,424.9z"/>
	</g>
	<g>
		<linearGradient id="SVGID_2_" gradientUnits="userSpaceOnUse" x1="344.9116" y1="603.3977" x2="431.6884" y2="676.8023">
			<stop  offset="0" style="stop-color:#FFC171"/>
			<stop  offset="1" style="stop-color:#FF616E"/>
		</linearGradient>
		<path fill="url(#SVGID_2_)" d="M448,646c-25.8,0-51.6,0-77.4,0c-12.9,0-25.8,0-38.7,0c-3.5,0-12.4,1.7-13.9,0c-1.1-1.2,0-8.3,0-10
			c0-3.8,7.6-1.8,10.6-1.8c25.8,0,51.6,0,77.4,0c12.9,0,25.8,0,38.7,0c3.5,0,12.4-1.7,13.9,0c1.1,1.2,0,8.3,0,10
			C458.6,648,451,646,448,646L448,646z"/>
	</g>
	<g>
		<linearGradient id="SVGID_3_" gradientUnits="userSpaceOnUse" x1="60.6372" y1="758.3307" x2="147.4827" y2="831.7934">
			<stop  offset="0" style="stop-color:#FFC171"/>
			<stop  offset="1" style="stop-color:#FF616E"/>
		</linearGradient>
		<path fill="url(#SVGID_3_)" d="M163.1,800.8c-25.1,0-50.1,0-75.2,0c-13,0-26,0-39.1,0c-4.2,0-8.4,0-12.6,0c-5.3,0-5.3-11.8,0-11.8
			c26.1,0,52.2,0,78.3,0c13.8,0,27.5,0,41.3,0c2.4,0,4.8,0,7.3,0c3,0,10.6-2,10.6,1.8c0,3.3,0,6.6,0,10
			C173.8,799.8,163.8,800.8,163.1,800.8L163.1,800.8z"/>
	</g>
</g>
<g>
	<g id="XMLID_1_">
		<g>
			<linearGradient id="SVGID_4_" gradientUnits="userSpaceOnUse" x1="804.7928" y1="214.7029" x2="957.6751" y2="344.0261">
				<stop  offset="0" style="stop-color:#FFC171"/>
				<stop  offset="1" style="stop-color:#FF616E"/>
			</linearGradient>
			<path fill="url(#SVGID_4_)" d="M816.8,227.5c6.1,9,12.2,17.9,18.4,26.9c4.1,6,8.2,12,12.3,18c1.5,2.2,5.8,6.5,5.8,9.5
				s-4.7,7.2-6.2,9.3c-4.5,5.9-9,11.7-13.5,17.5c-6.7,8.8-13.4,17.5-20.2,26.3c10.6-3,21.2-6.1,31.8-9.2c8.5-2.4,23.4-10.3,32.5-8.4
				c3,0.6,5.3,6,6.8,8.2c4.1,6,8.2,12,12.3,18c6.1,9,12.2,17.9,18.4,26.9c0.2-11,0.4-22,0.6-33c0.1-7.3,0.3-14.7,0.4-22
				c0.1-2.9-0.8-8,0.6-10.7c1-1.9,8.2-3,10.1-3.5c6.9-2,13.7-4,20.6-5.9c11.3-3.2,22.6-6.5,34-9.8c-9.9-3.4-19.7-6.7-29.6-10
				c-7-2.4-14.1-4.8-21.1-7.2c-3.2-1.1-8.2-1.6-10.1-4.8c-1.8-2.9-0.6-8.4-0.6-11.5c0.1-7.3,0.3-14.7,0.4-22c0.2-11,0.4-22,0.6-33
				c-6.7,8.8-13.5,17.5-20.2,26.3c-4.5,5.8-9,11.7-13.5,17.6c-2,2.5-4.4,7.3-7.7,8.5c-2.5,0.9-8.5-2.5-10.6-3.2
				c-6.9-2.5-13.9-4.9-20.8-7.4C837.6,234.9,827.2,231.2,816.8,227.5z M842.1,285.5c4-5.3-8.4-17.5-11.6-22.2
				c-8.8-13.1-17.6-26.1-26.4-39.2c-9.2-13.7,13.1-4.8,18.1-3c15.8,5.6,31.6,11.2,47.4,16.9c0.9,0.3,6.8,3.1,7.5,2.3
				c3.2-4.2,6.3-8.3,9.5-12.5c10.2-13.4,20.4-26.8,30.5-40.2c1.1-1.5,6.4-10.3,9.4-7.4c3.9,1.8,2.2,10.7,2.1,13.8
				c-0.5,16.7-1.1,33.5-1.6,50.2c-0.2,4.6-0.3,9.1-0.5,13.7c0,1.1,7.6,3.1,8.6,3.4c15.9,5.7,31.8,11.3,47.7,17
				c4.1,1.5,12.5,2.6,15,6.7c3.9,6.4-7.6,7.7-11.5,8.9c-19.1,5.7-38.2,11.5-57.3,17.2c-4.6,1.4-4.8,0.7-5,5.4
				c-0.3,8.7-0.6,17.4-0.9,26.2c-0.2,5.3,2,46.9-4.8,46.9c-3,0-5.5-5.7-6.7-7.6c-4.6-6.9-9.3-13.8-13.9-20.7
				c-7.7-11.4-15.3-22.8-23-34.1c-1.2-1.8-28.7,8.3-31.4,9.1c-13.1,3.9-26.2,7.9-39.4,11.8c-7.1,2.1-5.8-4.8-3.2-8.1
				c4.2-5.6,8.5-11.2,12.7-16.8C823,310.5,832.6,298,842.1,285.5z"/>
			<linearGradient id="SVGID_5_" gradientUnits="userSpaceOnUse" x1="818.8571" y1="225.0682" x2="946.4023" y2="332.9588">
				<stop  offset="0" style="stop-color:#FFC171"/>
				<stop  offset="1" style="stop-color:#FF616E"/>
			</linearGradient>
			<path fill="url(#SVGID_5_)" d="M835.2,254.4c-6.1-9-12.2-17.9-18.4-26.9c10.4,3.7,20.8,7.4,31.2,11.1c7,2.5,13.9,4.9,20.8,7.4
				c2.1,0.8,8.1,4.1,10.6,3.2c3.3-1.1,5.7-5.9,7.7-8.5c4.5-5.9,9-11.7,13.5-17.6c6.7-8.8,13.5-17.5,20.2-26.3c-0.2,11-0.4,22-0.6,33
				c-0.1,7.3-0.3,14.7-0.4,22c0,3.1-1.2,8.6,0.6,11.5c1.9,3.2,6.9,3.7,10.1,4.8c7,2.4,14.1,4.8,21.1,7.2c9.9,3.3,19.7,6.7,29.6,10
				c-11.3,3.3-22.6,6.5-34,9.8c-6.9,2-13.7,4-20.6,5.9c-1.9,0.5-9.1,1.6-10.1,3.5c-1.4,2.7-0.5,7.9-0.6,10.7
				c-0.1,7.3-0.3,14.7-0.4,22c-0.2,11-0.4,22-0.6,33c-6.1-9-12.2-17.9-18.4-26.9c-4.1-6-8.2-12-12.3-18c-1.5-2.2-3.8-7.6-6.8-8.2
				c-9.1-1.9-23.9,5.9-32.5,8.4c-10.6,3.1-21.2,6.1-31.8,9.2c6.7-8.8,13.5-17.5,20.2-26.3c4.5-5.9,9-11.7,13.5-17.5
				c1.6-2.1,6.2-6.3,6.2-9.3s-4.3-7.3-5.8-9.5C843.3,266.4,839.3,260.4,835.2,254.4z"/>
		</g>
	</g>
</g>
</svg>
