<?xml version="1.0" encoding="utf-8"?>
<!-- Generator: Adobe Illustrator 18.0.0, SVG Export Plug-In . SVG Version: 6.00 Build 0)  -->
<!DOCTYPE svg PUBLIC "-//W3C//DTD SVG 1.1//EN" "http://www.w3.org/Graphics/SVG/1.1/DTD/svg11.dtd">
<svg version="1.1" id="Calque_1" xmlns="http://www.w3.org/2000/svg" xmlns:xlink="http://www.w3.org/1999/xlink" x="0px" y="0px"
	 viewBox="0 0 942.8 738.1" enable-background="new 0 0 942.8 738.1" xml:space="preserve">
<rect x="-165.4" y="-44.3" display="none" fill="#D7DBDD" width="1281" height="815"/>
<g>
	<linearGradient id="SVGID_1_" gradientUnits="userSpaceOnUse" x1="484.0974" y1="292.9786" x2="718.8296" y2="292.9786">
		<stop  offset="0" style="stop-color:#FFC171"/>
		<stop  offset="1" style="stop-color:#FF616E"/>
	</linearGradient>
	<circle fill="#FFFFFF" stroke="url(#SVGID_1_)" stroke-miterlimit="10" cx="601.5" cy="293" r="116.9"/>
	<g>
		<path fill="#5983FC" d="M535.3,290.3C525,270,515,255.2,512.8,242.2c-2.5-12.8,2.9-23.9,15.6-31.6c12.5-7.3,28.7-7,39.1,4.7
			c10.7,11.3,15.6,34,13.2,61.2c-2.2,27.4-9.9,52-15,69.1c-5.4,17.2-8.1,26.9-7.9,27.2c0,0.3,1.5-9.9-1.7-25.7
			C553.4,331.5,545.9,310.2,535.3,290.3z"/>
	</g>
	<path fill="#ED9E6E" d="M544,363.1c0,0,0.1,0,0.1,0.1c-0.1-0.2-0.1-0.4-0.2-0.6C543.9,362.7,544,362.9,544,363.1"/>
	<path fill="#ED9E6E" d="M697.9,324.7c0-0.1,0.1-0.1,0.1-0.1c-0.1-0.2-0.1-0.4-0.2-0.5C697.8,324.3,697.8,324.5,697.9,324.7"/>
	<path fill="#0D599E" d="M650.4,255.4c-8.3,2.1-13.3,10.4-11.2,18.7c2.1,8.3,10.4,13.3,18.7,11.2s13.3-10.4,11.3-18.7
		C667,258.3,658.6,253.3,650.4,255.4"/>
	<path fill="#0D599E" d="M631.4,342.4c-18.1,9.1-30,3.1-32.4-1.7c-0.7-1.3-0.1-2.9,1.2-3.6l45.5-22.9c1.3-0.7,2.9-0.1,3.6,1.2
		C651.8,320.1,649.6,333.2,631.4,342.4z"/>
	<path opacity="0.66" fill="none" stroke="#FFC171" stroke-width="8" stroke-miterlimit="10" enable-background="new    " d="
		M601.3,186.2c37-0.2,73.5,22.3,93.4,54.8"/>
	
		<linearGradient id="SVGID_2_" gradientUnits="userSpaceOnUse" x1="562.9055" y1="254.9842" x2="610.1243" y2="254.9842" gradientTransform="matrix(0.7762 -0.194 -0.194 -0.7762 268.022 617.0569)">
		<stop  offset="0" style="stop-color:#FF7BAC"/>
		<stop  offset="1" style="stop-color:#FF7BAC;stop-opacity:0"/>
	</linearGradient>
	<path opacity="0.56" fill="url(#SVGID_2_)" enable-background="new    " d="M692.1,300.8c2.5,10.1-3.6,20.3-13.7,22.9
		c-10.1,2.5-20.4-3.6-22.9-13.7c-2.5-10.1,3.6-20.4,13.7-22.9C679.3,284.5,689.6,290.7,692.1,300.8"/>
	<path fill="#0D599E" d="M572.1,290.9c-2.1-8.3-10.5-13.3-18.7-11.3c-8.3,2.1-13.3,10.4-11.2,18.7c2.1,8.3,10.5,13.3,18.7,11.2
		C569.2,307.5,574.2,299.2,572.1,290.9"/>
	
		<linearGradient id="SVGID_3_" gradientUnits="userSpaceOnUse" x1="420.529" y1="251.7276" x2="467.7147" y2="251.7276" gradientTransform="matrix(0.7762 -0.194 -0.194 -0.7762 268.022 617.0569)">
		<stop  offset="0" style="stop-color:#FF7BAC"/>
		<stop  offset="1" style="stop-color:#FF7BAC;stop-opacity:0"/>
	</linearGradient>
	<path opacity="0.56" fill="url(#SVGID_3_)" enable-background="new    " d="M582.2,330.9c2.5,10.1-3.6,20.3-13.7,22.9
		c-10.1,2.5-20.4-3.6-22.9-13.7c-2.5-10.1,3.6-20.4,13.7-22.9C569.4,314.7,579.7,320.8,582.2,330.9"/>
</g>
<linearGradient id="SVGID_4_" gradientUnits="userSpaceOnUse" x1="207.9693" y1="349.4561" x2="470.6315" y2="349.4561" gradientTransform="matrix(0.7635 0.6458 -0.6458 0.7635 351.4036 -180.1151)">
	<stop  offset="0" style="stop-color:#FFC171"/>
	<stop  offset="1" style="stop-color:#FF616E"/>
</linearGradient>
<path fill="none" stroke="url(#SVGID_4_)" stroke-width="40" stroke-miterlimit="10" d="M413.1,475.6
	C310.8,389.1,298,236,384.6,133.6"/>
<linearGradient id="SVGID_5_" gradientUnits="userSpaceOnUse" x1="51.4085" y1="418.677" x2="500.4175" y2="418.677" gradientTransform="matrix(0.7635 0.6458 -0.6458 0.7635 351.4036 -180.1151)">
	<stop  offset="0" style="stop-color:#FFC171"/>
	<stop  offset="1" style="stop-color:#FF616E"/>
</linearGradient>
<path fill="none" stroke="url(#SVGID_5_)" stroke-width="40" stroke-miterlimit="10" d="M325.7,621.5c-156.3-166.7-175-422.1-43-610
	"/>
<circle fill="none" stroke="#D7DBDD" stroke-width="2" stroke-miterlimit="10" cx="720.5" cy="318.4" r="10"/>
<g>
	<line fill="none" stroke="#D7DBDD" stroke-width="2" stroke-miterlimit="10" x1="62.2" y1="712.9" x2="63.6" y2="320.7"/>
</g>
<g>
	<line fill="none" stroke="#D7DBDD" stroke-width="2" stroke-miterlimit="10" x1="364.6" y1="319.7" x2="466.6" y2="319.7"/>
	<line fill="none" stroke="#D7DBDD" stroke-width="2" stroke-miterlimit="10" x1="467.6" y1="714.9" x2="466.2" y2="319.2"/>
</g>
<line fill="none" stroke="#D7DBDD" stroke-width="2" stroke-miterlimit="10" x1="729.3" y1="318.3" x2="817.1" y2="316.4"/>
<line fill="none" stroke="#D7DBDD" stroke-width="2" stroke-miterlimit="10" x1="817.4" y1="715.6" x2="816.3" y2="316.2"/>
<circle fill="none" stroke="#D7DBDD" stroke-width="2" stroke-miterlimit="10" cx="355.5" cy="320.4" r="10"/>
<circle fill="none" stroke="#D7DBDD" stroke-width="2" stroke-miterlimit="10" cx="168.5" cy="320.4" r="10"/>
<circle fill="#D7DBDD" cx="61.5" cy="721.1" r="10"/>
<circle fill="#D7DBDD" cx="467.5" cy="721.1" r="10"/>
<circle fill="#D7DBDD" cx="817.5" cy="721.1" r="10"/>
<line fill="none" stroke="#D7DBDD" stroke-width="2" stroke-miterlimit="10" x1="63.3" y1="321.3" x2="157.3" y2="319.4"/>
</svg>
