<?xml version="1.0" encoding="utf-8"?>
<!-- Generator: Adobe Illustrator 22.0.0, SVG Export Plug-In . SVG Version: 6.00 Build 0)  -->
<svg version="1.1" id="Layer_1" xmlns="http://www.w3.org/2000/svg" xmlns:xlink="http://www.w3.org/1999/xlink" x="0px" y="0px"
	 viewBox="0 0 46 46" style="enable-background:new 0 0 46 46;" xml:space="preserve">
<style type="text/css">
	.st0{fill:#D75998;}
</style>
<g>
	<g>
		<path class="st0" d="M5,42.5c-0.6,0-1.2-0.2-1.6-0.7c-0.9-0.9-0.9-2.3,0-3.2L38.8,3.2c0.9-0.9,2.3-0.9,3.2,0
			c0.9,0.9,0.9,2.3,0,3.2L6.6,41.8C6.1,42.3,5.6,42.5,5,42.5L5,42.5z"/>
	</g>
	<g>
		<path class="st0" d="M40.4,42.5c-0.6,0-1.2-0.2-1.6-0.7L3.4,6.4c-0.9-0.9-0.9-2.3,0-3.2c0.9-0.9,2.3-0.9,3.2,0L42,38.6
			c0.9,0.9,0.9,2.3,0,3.2C41.6,42.3,41,42.5,40.4,42.5L40.4,42.5z"/>
	</g>
</g>
</svg>
