<?xml version="1.0" encoding="utf-8"?>
<!-- Generator: Adobe Illustrator 22.0.0, SVG Export Plug-In . SVG Version: 6.00 Build 0)  -->
<svg version="1.1" id="Layer_1" xmlns="http://www.w3.org/2000/svg" xmlns:xlink="http://www.w3.org/1999/xlink" x="0px" y="0px"
	 viewBox="0 0 500 500" style="enable-background:new 0 0 500 500;" xml:space="preserve">
<style type="text/css">
	.st0{fill:#FFFFFF;}
</style>
<g>
	<g>
		<circle class="st0" cx="5" cy="5" r="5"/>
	</g>
	<g>
		<circle class="st0" cx="75" cy="5" r="5"/>
	</g>
	<g>
		<circle class="st0" cx="145" cy="5" r="5"/>
	</g>
	<g>
		<circle class="st0" cx="215" cy="5" r="5"/>
	</g>
	<g>
		<circle class="st0" cx="285" cy="5" r="5"/>
	</g>
	<g>
		<circle class="st0" cx="355" cy="5" r="5"/>
	</g>
	<g>
		<circle class="st0" cx="425" cy="5" r="5"/>
	</g>
	<g>
		<circle class="st0" cx="495" cy="5" r="5"/>
	</g>
</g>
<g>
	<g>
		<circle class="st0" cx="5" cy="75" r="5"/>
	</g>
	<g>
		<circle class="st0" cx="75" cy="75" r="5"/>
	</g>
	<g>
		<circle class="st0" cx="145" cy="75" r="5"/>
	</g>
	<g>
		<circle class="st0" cx="215" cy="75" r="5"/>
	</g>
	<g>
		<circle class="st0" cx="285" cy="75" r="5"/>
	</g>
	<g>
		<circle class="st0" cx="355" cy="75" r="5"/>
	</g>
	<g>
		<circle class="st0" cx="425" cy="75" r="5"/>
	</g>
	<g>
		<circle class="st0" cx="495" cy="75" r="5"/>
	</g>
</g>
<g>
	<g>
		<circle class="st0" cx="5" cy="145" r="5"/>
	</g>
	<g>
		<circle class="st0" cx="75" cy="145" r="5"/>
	</g>
	<g>
		<circle class="st0" cx="145" cy="145" r="5"/>
	</g>
	<g>
		<circle class="st0" cx="215" cy="145" r="5"/>
	</g>
	<g>
		<circle class="st0" cx="285" cy="145" r="5"/>
	</g>
	<g>
		<circle class="st0" cx="355" cy="145" r="5"/>
	</g>
	<g>
		<circle class="st0" cx="425" cy="145" r="5"/>
	</g>
	<g>
		<circle class="st0" cx="495" cy="145" r="5"/>
	</g>
</g>
<g>
	<g>
		<circle class="st0" cx="5" cy="215" r="5"/>
	</g>
	<g>
		<circle class="st0" cx="75" cy="215" r="5"/>
	</g>
	<g>
		<circle class="st0" cx="145" cy="215" r="5"/>
	</g>
	<g>
		<circle class="st0" cx="215" cy="215" r="5"/>
	</g>
	<g>
		<circle class="st0" cx="285" cy="215" r="5"/>
	</g>
	<g>
		<circle class="st0" cx="355" cy="215" r="5"/>
	</g>
	<g>
		<circle class="st0" cx="425" cy="215" r="5"/>
	</g>
	<g>
		<circle class="st0" cx="495" cy="215" r="5"/>
	</g>
</g>
<g>
	<g>
		<circle class="st0" cx="5" cy="285" r="5"/>
	</g>
	<g>
		<circle class="st0" cx="75" cy="285" r="5"/>
	</g>
	<g>
		<circle class="st0" cx="145" cy="285" r="5"/>
	</g>
	<g>
		<circle class="st0" cx="215" cy="285" r="5"/>
	</g>
	<g>
		<circle class="st0" cx="285" cy="285" r="5"/>
	</g>
	<g>
		<circle class="st0" cx="355" cy="285" r="5"/>
	</g>
	<g>
		<circle class="st0" cx="425" cy="285" r="5"/>
	</g>
	<g>
		<circle class="st0" cx="495" cy="285" r="5"/>
	</g>
</g>
<g>
	<g>
		<circle class="st0" cx="5" cy="355" r="5"/>
	</g>
	<g>
		<circle class="st0" cx="75" cy="355" r="5"/>
	</g>
	<g>
		<circle class="st0" cx="145" cy="355" r="5"/>
	</g>
	<g>
		<circle class="st0" cx="215" cy="355" r="5"/>
	</g>
	<g>
		<circle class="st0" cx="285" cy="355" r="5"/>
	</g>
	<g>
		<circle class="st0" cx="355" cy="355" r="5"/>
	</g>
	<g>
		<circle class="st0" cx="425" cy="355" r="5"/>
	</g>
	<g>
		<circle class="st0" cx="495" cy="355" r="5"/>
	</g>
</g>
<g>
	<g>
		<circle class="st0" cx="5" cy="355" r="5"/>
	</g>
	<g>
		<circle class="st0" cx="75" cy="355" r="5"/>
	</g>
	<g>
		<circle class="st0" cx="145" cy="355" r="5"/>
	</g>
	<g>
		<circle class="st0" cx="215" cy="355" r="5"/>
	</g>
	<g>
		<circle class="st0" cx="285" cy="355" r="5"/>
	</g>
	<g>
		<circle class="st0" cx="355" cy="355" r="5"/>
	</g>
	<g>
		<circle class="st0" cx="425" cy="355" r="5"/>
	</g>
	<g>
		<circle class="st0" cx="495" cy="355" r="5"/>
	</g>
</g>
<g>
	<g>
		<circle class="st0" cx="5" cy="425" r="5"/>
	</g>
	<g>
		<circle class="st0" cx="75" cy="425" r="5"/>
	</g>
	<g>
		<circle class="st0" cx="145" cy="425" r="5"/>
	</g>
	<g>
		<circle class="st0" cx="215" cy="425" r="5"/>
	</g>
	<g>
		<circle class="st0" cx="285" cy="425" r="5"/>
	</g>
	<g>
		<circle class="st0" cx="355" cy="425" r="5"/>
	</g>
	<g>
		<circle class="st0" cx="425" cy="425" r="5"/>
	</g>
	<g>
		<circle class="st0" cx="495" cy="425" r="5"/>
	</g>
</g>
<g>
	<g>
		<circle class="st0" cx="5" cy="495" r="5"/>
	</g>
	<g>
		<circle class="st0" cx="75" cy="495" r="5"/>
	</g>
	<g>
		<circle class="st0" cx="145" cy="495" r="5"/>
	</g>
	<g>
		<circle class="st0" cx="215" cy="495" r="5"/>
	</g>
	<g>
		<circle class="st0" cx="285" cy="495" r="5"/>
	</g>
	<g>
		<circle class="st0" cx="355" cy="495" r="5"/>
	</g>
	<g>
		<circle class="st0" cx="425" cy="495" r="5"/>
	</g>
	<g>
		<circle class="st0" cx="495" cy="495" r="5"/>
	</g>
</g>
</svg>
