<?xml version="1.0" encoding="utf-8"?>
<!-- Generator: Adobe Illustrator 22.0.0, SVG Export Plug-In . SVG Version: 6.00 Build 0)  -->
<svg version="1.1" id="Layer_1" xmlns="http://www.w3.org/2000/svg" xmlns:xlink="http://www.w3.org/1999/xlink" x="0px" y="0px"
	 viewBox="0 0 378 45" style="enable-background:new 0 0 378 45;" xml:space="preserve">
<style type="text/css">
	.st0{fill:#FFFFFF;fill-opacity:0.36;}
	.st1{fill:#FFFFFF;}
	.st2{fill:#FFFFFF;stroke:#FFFFFF;stroke-width:0.25;stroke-miterlimit:10;}
</style>
<path d="M34.4,29.1c1-0.2,1.9-0.7,2.7-1.3c0.8-0.7,1.3-1.4,1.6-2.3c-0.2,0.2-0.4,0.4-0.8,0.5c-0.3,0.1-0.7,0.2-1.1,0.2
	c-0.7,0-1.3-0.2-1.8-0.5c-0.5-0.3-0.9-0.7-1.1-1.2c-0.3-0.5-0.4-1.1-0.4-1.8c0-0.7,0.1-1.2,0.4-1.8c0.3-0.5,0.7-0.9,1.2-1.2
	c0.5-0.3,1.1-0.4,1.8-0.4c0.7,0,1.3,0.2,1.9,0.5s0.9,0.8,1.2,1.4c0.3,0.6,0.4,1.3,0.4,2.1c0,1.2-0.3,2.2-0.8,3.2
	c-0.5,1-1.2,1.8-2.1,2.4c-0.9,0.6-1.9,1-3.1,1.2L34.4,29.1z M37,25.2c0.6,0,1.1-0.2,1.5-0.6s0.6-1,0.6-1.7c0-0.7-0.2-1.3-0.6-1.7
	c-0.4-0.4-0.9-0.6-1.5-0.6c-0.6,0-1.1,0.2-1.5,0.6c-0.4,0.4-0.6,1-0.6,1.7c0,0.7,0.2,1.3,0.5,1.7C35.9,24.9,36.4,25.2,37,25.2z
	 M42.9,24.8c-0.3,0-0.5-0.1-0.7-0.3c-0.2-0.2-0.3-0.4-0.3-0.7c0-0.3,0.1-0.5,0.3-0.7c0.2-0.2,0.4-0.3,0.7-0.3s0.5,0.1,0.7,0.3
	c0.2,0.2,0.3,0.4,0.3,0.7c0,0.3-0.1,0.5-0.3,0.7C43.4,24.7,43.2,24.8,42.9,24.8z M42.9,30.2c-0.3,0-0.5-0.1-0.7-0.3
	c-0.2-0.2-0.3-0.4-0.3-0.7c0-0.3,0.1-0.5,0.3-0.7c0.2-0.2,0.4-0.3,0.7-0.3s0.5,0.1,0.7,0.3c0.2,0.2,0.3,0.4,0.3,0.7
	c0,0.3-0.1,0.5-0.3,0.7C43.4,30.1,43.2,30.2,42.9,30.2z M49.9,28.2h-4.8V27l4.5-7.5h1.7v7.6h1.2v1.1h-1.2V30h-1.4V28.2z M49.9,27.1
	v-6l-3.6,6H49.9z M54.7,28.9h1.8v-7.8l-2.1,1.2v-1.3l2.6-1.6h0.9v9.4h1.8V30h-5V28.9z"/>
<path class="st0" d="M342.6,17.2h14.8c1.2,0,1.7,0.1,2.2,0.4c0.5,0.2,0.8,0.6,1.1,1.1c0.2,0.5,0.4,0.9,0.4,2.2v4.3
	c0,1.2-0.1,1.7-0.4,2.2c-0.2,0.5-0.6,0.8-1.1,1.1c-0.5,0.2-0.9,0.4-2.2,0.4h-14.8c-1.2,0-1.7-0.1-2.2-0.4c-0.5-0.2-0.8-0.6-1.1-1.1
	c-0.2-0.5-0.4-0.9-0.4-2.2v-4.3c0-1.2,0.1-1.7,0.4-2.2c0.2-0.5,0.6-0.8,1.1-1.1C340.9,17.3,341.3,17.2,342.6,17.2z M342.6,18.2
	c-1,0-1.3,0.1-1.7,0.3c-0.3,0.2-0.5,0.4-0.6,0.6c-0.2,0.4-0.3,0.7-0.3,1.7v4.3c0,1,0.1,1.3,0.3,1.7c0.2,0.3,0.4,0.5,0.6,0.6
	c0.4,0.2,0.7,0.3,1.7,0.3h14.8c1,0,1.3-0.1,1.7-0.3c0.3-0.2,0.5-0.4,0.6-0.6c0.2-0.4,0.3-0.7,0.3-1.7v-4.3c0-1-0.1-1.3-0.3-1.7
	c-0.2-0.3-0.4-0.5-0.6-0.6c-0.4-0.2-0.7-0.3-1.7-0.3H342.6z M363.5,22.9c0,1.2-1.5,2-1.5,2v-4C362,20.9,363.5,21.6,363.5,22.9z"/>
<path class="st1" d="M342.6,19.1h14.8c0.9,0,1.6,0.7,1.6,1.6v4.5c0,0.9-0.7,1.6-1.6,1.6h-14.8c-0.9,0-1.6-0.7-1.6-1.6v-4.5
	C341,19.8,341.7,19.1,342.6,19.1z"/>
<path class="st1" d="M310.6,18.6c0,0.1,0,0.3,0,0.5v7.7c0,0.3,0,0.4,0,0.5c0.1,0.5,0.5,0.8,0.9,0.9c0.1,0,0.3,0,0.5,0s0.4,0,0.5,0
	c0.5-0.1,0.8-0.5,0.9-0.9c0-0.1,0-0.3,0-0.5v-7.7c0-0.3,0-0.4,0-0.5c-0.1-0.5-0.5-0.8-0.9-0.9c-0.1,0-0.3,0-0.5,0s-0.4,0-0.5,0
	C311.1,17.7,310.7,18.1,310.6,18.6z M305.9,21.5c0-0.3,0-0.4,0-0.5c0.1-0.5,0.5-0.8,0.9-0.9c0.1,0,0.3,0,0.5,0s0.4,0,0.5,0
	c0.5,0.1,0.8,0.5,0.9,0.9c0,0.1,0,0.3,0,0.5v5.3c0,0.3,0,0.4,0,0.5c-0.1,0.5-0.5,0.8-0.9,0.9c-0.1,0-0.3,0-0.5,0s-0.4,0-0.5,0
	c-0.5-0.1-0.8-0.5-0.9-0.9c0-0.1,0-0.3,0-0.5V21.5z M301.3,23.3c0,0.1,0,0.3,0,0.5v3c0,0.3,0,0.4,0,0.5c0.1,0.5,0.5,0.8,0.9,0.9
	c0.1,0,0.3,0,0.5,0c0.3,0,0.4,0,0.5,0c0.5-0.1,0.8-0.5,0.9-0.9c0-0.1,0-0.3,0-0.5v-3c0-0.3,0-0.4,0-0.5c-0.1-0.5-0.5-0.8-0.9-0.9
	c-0.1,0-0.3,0-0.5,0c-0.3,0-0.4,0-0.5,0C301.8,22.4,301.4,22.8,301.3,23.3z M296.5,25.3c0,0.1,0,0.3,0,0.5v1c0,0.3,0,0.4,0,0.5
	c0.1,0.5,0.5,0.8,0.9,0.9c0.1,0,0.3,0,0.5,0s0.4,0,0.5,0c0.5-0.1,0.8-0.5,0.9-0.9c0-0.1,0-0.3,0-0.5v-1c0-0.3,0-0.4,0-0.5
	c-0.1-0.5-0.5-0.8-0.9-0.9c-0.1,0-0.3,0-0.5,0s-0.4,0-0.5,0C297,24.4,296.6,24.8,296.5,25.3z"/>
<path class="st1" d="M326.3,19.7c2.2,0,4.4,0.9,6,2.4c0.1,0.1,0.3,0.1,0.4,0l1.2-1.2c0.1-0.1,0.1-0.1,0.1-0.2c0-0.1,0-0.2-0.1-0.2
	c-4.2-4.1-11-4.1-15.2,0c-0.1,0.1-0.1,0.1-0.1,0.2c0,0.1,0,0.2,0.1,0.2l1.2,1.2c0.1,0.1,0.3,0.1,0.4,0
	C321.9,20.6,324.1,19.7,326.3,19.7z M326.3,23.5c1.2,0,2.4,0.5,3.3,1.3c0.1,0.1,0.3,0.1,0.4,0l1.2-1.2c0.1-0.1,0.1-0.1,0.1-0.2
	s0-0.2-0.1-0.2c-2.8-2.6-7.1-2.6-9.8,0c-0.1,0.1-0.1,0.1-0.1,0.2c0,0.1,0,0.2,0.1,0.2l1.2,1.2c0.1,0.1,0.3,0.1,0.4,0
	C323.9,24,325.1,23.5,326.3,23.5z M328.5,26.3c0.1-0.1,0.1-0.1,0.1-0.2c0-0.1,0-0.2-0.1-0.2c-1.3-1.1-3.2-1.1-4.5,0
	c-0.1,0.1-0.1,0.1-0.1,0.2c0,0.1,0,0.2,0.1,0.2l2,2c0.1,0.1,0.1,0.1,0.2,0.1c0.1,0,0.2,0,0.2-0.1L328.5,26.3z"/>
<path class="st2" d="M34.4,29.1c1-0.2,1.9-0.7,2.7-1.3c0.8-0.7,1.3-1.4,1.6-2.3c-0.2,0.2-0.4,0.4-0.8,0.5c-0.3,0.1-0.7,0.2-1.1,0.2
	c-0.7,0-1.3-0.2-1.8-0.5c-0.5-0.3-0.9-0.7-1.1-1.2c-0.3-0.5-0.4-1.1-0.4-1.8c0-0.7,0.1-1.2,0.4-1.8c0.3-0.5,0.7-0.9,1.2-1.2
	c0.5-0.3,1.1-0.4,1.8-0.4c0.7,0,1.3,0.2,1.9,0.5s0.9,0.8,1.2,1.4c0.3,0.6,0.4,1.3,0.4,2.1c0,1.2-0.3,2.2-0.8,3.2
	c-0.5,1-1.2,1.8-2.1,2.4c-0.9,0.6-1.9,1-3.1,1.2L34.4,29.1z M37,25.2c0.6,0,1.1-0.2,1.5-0.6s0.6-1,0.6-1.7c0-0.7-0.2-1.3-0.6-1.7
	c-0.4-0.4-0.9-0.6-1.5-0.6c-0.6,0-1.1,0.2-1.5,0.6c-0.4,0.4-0.6,1-0.6,1.7c0,0.7,0.2,1.3,0.5,1.7C35.9,24.9,36.4,25.2,37,25.2z
	 M42.9,24.8c-0.3,0-0.5-0.1-0.7-0.3c-0.2-0.2-0.3-0.4-0.3-0.7c0-0.3,0.1-0.5,0.3-0.7c0.2-0.2,0.4-0.3,0.7-0.3s0.5,0.1,0.7,0.3
	c0.2,0.2,0.3,0.4,0.3,0.7c0,0.3-0.1,0.5-0.3,0.7C43.4,24.7,43.2,24.8,42.9,24.8z M42.9,30.2c-0.3,0-0.5-0.1-0.7-0.3
	c-0.2-0.2-0.3-0.4-0.3-0.7c0-0.3,0.1-0.5,0.3-0.7c0.2-0.2,0.4-0.3,0.7-0.3s0.5,0.1,0.7,0.3c0.2,0.2,0.3,0.4,0.3,0.7
	c0,0.3-0.1,0.5-0.3,0.7C43.4,30.1,43.2,30.2,42.9,30.2z M49.9,28.2h-4.8V27l4.5-7.5h1.7v7.6h1.2v1.1h-1.2V30h-1.4V28.2z M49.9,27.1
	v-6l-3.6,6H49.9z M54.7,28.9h1.8v-7.8l-2.1,1.2v-1.3l2.6-1.6h0.9v9.4h1.8V30h-5V28.9z"/>
<path class="st1" d="M342.6,17.2h14.8c1.2,0,1.7,0.1,2.2,0.4c0.5,0.2,0.8,0.6,1.1,1.1c0.2,0.5,0.4,0.9,0.4,2.2v4.3
	c0,1.2-0.1,1.7-0.4,2.2c-0.2,0.5-0.6,0.8-1.1,1.1c-0.5,0.2-0.9,0.4-2.2,0.4h-14.8c-1.2,0-1.7-0.1-2.2-0.4c-0.5-0.2-0.8-0.6-1.1-1.1
	c-0.2-0.5-0.4-0.9-0.4-2.2v-4.3c0-1.2,0.1-1.7,0.4-2.2c0.2-0.5,0.6-0.8,1.1-1.1C340.9,17.3,341.3,17.2,342.6,17.2z M342.6,18.2
	c-1,0-1.3,0.1-1.7,0.3c-0.3,0.2-0.5,0.4-0.6,0.6c-0.2,0.4-0.3,0.7-0.3,1.7v4.3c0,1,0.1,1.3,0.3,1.7c0.2,0.3,0.4,0.5,0.6,0.6
	c0.4,0.2,0.7,0.3,1.7,0.3h14.8c1,0,1.3-0.1,1.7-0.3c0.3-0.2,0.5-0.4,0.6-0.6c0.2-0.4,0.3-0.7,0.3-1.7v-4.3c0-1-0.1-1.3-0.3-1.7
	c-0.2-0.3-0.4-0.5-0.6-0.6c-0.4-0.2-0.7-0.3-1.7-0.3H342.6z M363.5,22.9c0,1.2-1.5,2-1.5,2v-4C362,20.9,363.5,21.6,363.5,22.9z"/>
<path class="st1" d="M342.6,19.1h14.8c0.9,0,1.6,0.7,1.6,1.6v4.5c0,0.9-0.7,1.6-1.6,1.6h-14.8c-0.9,0-1.6-0.7-1.6-1.6v-4.5
	C341,19.8,341.7,19.1,342.6,19.1z"/>
<path class="st1" d="M310.6,18.6c0,0.1,0,0.3,0,0.5v7.7c0,0.3,0,0.4,0,0.5c0.1,0.5,0.5,0.8,0.9,0.9c0.1,0,0.3,0,0.5,0s0.4,0,0.5,0
	c0.5-0.1,0.8-0.5,0.9-0.9c0-0.1,0-0.3,0-0.5v-7.7c0-0.3,0-0.4,0-0.5c-0.1-0.5-0.5-0.8-0.9-0.9c-0.1,0-0.3,0-0.5,0s-0.4,0-0.5,0
	C311.1,17.7,310.7,18.1,310.6,18.6z M305.9,21.5c0-0.3,0-0.4,0-0.5c0.1-0.5,0.5-0.8,0.9-0.9c0.1,0,0.3,0,0.5,0s0.4,0,0.5,0
	c0.5,0.1,0.8,0.5,0.9,0.9c0,0.1,0,0.3,0,0.5v5.3c0,0.3,0,0.4,0,0.5c-0.1,0.5-0.5,0.8-0.9,0.9c-0.1,0-0.3,0-0.5,0s-0.4,0-0.5,0
	c-0.5-0.1-0.8-0.5-0.9-0.9c0-0.1,0-0.3,0-0.5V21.5z M301.3,23.3c0,0.1,0,0.3,0,0.5v3c0,0.3,0,0.4,0,0.5c0.1,0.5,0.5,0.8,0.9,0.9
	c0.1,0,0.3,0,0.5,0c0.3,0,0.4,0,0.5,0c0.5-0.1,0.8-0.5,0.9-0.9c0-0.1,0-0.3,0-0.5v-3c0-0.3,0-0.4,0-0.5c-0.1-0.5-0.5-0.8-0.9-0.9
	c-0.1,0-0.3,0-0.5,0c-0.3,0-0.4,0-0.5,0C301.8,22.4,301.4,22.8,301.3,23.3z M296.5,25.3c0,0.1,0,0.3,0,0.5v1c0,0.3,0,0.4,0,0.5
	c0.1,0.5,0.5,0.8,0.9,0.9c0.1,0,0.3,0,0.5,0s0.4,0,0.5,0c0.5-0.1,0.8-0.5,0.9-0.9c0-0.1,0-0.3,0-0.5v-1c0-0.3,0-0.4,0-0.5
	c-0.1-0.5-0.5-0.8-0.9-0.9c-0.1,0-0.3,0-0.5,0s-0.4,0-0.5,0C297,24.4,296.6,24.8,296.5,25.3z"/>
<path class="st1" d="M326.3,19.7c2.2,0,4.4,0.9,6,2.4c0.1,0.1,0.3,0.1,0.4,0l1.2-1.2c0.1-0.1,0.1-0.1,0.1-0.2c0-0.1,0-0.2-0.1-0.2
	c-4.2-4.1-11-4.1-15.2,0c-0.1,0.1-0.1,0.1-0.1,0.2c0,0.1,0,0.2,0.1,0.2l1.2,1.2c0.1,0.1,0.3,0.1,0.4,0
	C321.9,20.6,324.1,19.7,326.3,19.7z M326.3,23.5c1.2,0,2.4,0.5,3.3,1.3c0.1,0.1,0.3,0.1,0.4,0l1.2-1.2c0.1-0.1,0.1-0.1,0.1-0.2
	s0-0.2-0.1-0.2c-2.8-2.6-7.1-2.6-9.8,0c-0.1,0.1-0.1,0.1-0.1,0.2c0,0.1,0,0.2,0.1,0.2l1.2,1.2c0.1,0.1,0.3,0.1,0.4,0
	C323.9,24,325.1,23.5,326.3,23.5z M328.5,26.3c0.1-0.1,0.1-0.1,0.1-0.2c0-0.1,0-0.2-0.1-0.2c-1.3-1.1-3.2-1.1-4.5,0
	c-0.1,0.1-0.1,0.1-0.1,0.2c0,0.1,0,0.2,0.1,0.2l2,2c0.1,0.1,0.1,0.1,0.2,0.1c0.1,0,0.2,0,0.2-0.1L328.5,26.3z"/>
</svg>
