<svg style="position: absolute; width: 0; height: 0; overflow: hidden;" version="1.1" xmlns="http://www.w3.org/2000/svg" xmlns:xlink="http://www.w3.org/1999/xlink">
<defs>
<symbol id="svgicon-chef-hat" viewBox="0 0 32 32">
<title>chef-hat</title>
<path fill="none" stroke-width="1" stroke-miterlimit="10" stroke-linecap="round" stroke-linejoin="round" d="M23.336 4c-0.8 0-1.549 0.2-2.205 0.555-0.633-2.243-3.357-3.888-5.8-3.888s-5.2 1.645-5.833 3.888c-0.656-0.355-1.409-0.555-2.203-0.555-2.579 0-4.669 2.089-4.669 4.667s2 4.667 4.667 4.667v17.917h16.039v-17.917c2.667 0 4.669-2.089 4.669-4.667s-2.088-4.667-4.664-4.667zM7.292 25.917h16.039M11.305 20.584v5.333M15.292 19.251v6.667M19.317 20.584v5.333"></path>
</symbol>
<symbol id="svgicon-drink-coffee" viewBox="0 0 32 32">
<title>drink-coffee</title>
<path fill="none" stroke-width="1" stroke-miterlimit="10" stroke-linecap="round" stroke-linejoin="round" d="M24 31.333h-16l-1.333-21.333h18.667zM5.333 4.667h21.333v5.333h-21.333zM25.333 4.667h-18.667l1.333-4h16z"></path>
<path fill="none" stroke-width="1" stroke-miterlimit="10" stroke-linecap="butt" stroke-linejoin="round" d="M7 15.333h18M7.5 23.333h17.028"></path>
<path fill="none" stroke-width="1" stroke-miterlimit="10" stroke-linecap="round" stroke-linejoin="round" d="M12.667 19.333h6.667"></path>
</symbol>
<symbol id="svgicon-music-note" viewBox="0 0 32 32">
<title>music-note</title>
<path fill="none" stroke-width="1" stroke-miterlimit="10" stroke-linecap="butt" stroke-linejoin="round" d="M12.667 27.333c0 2-1.791 4-4 4-2.208 0-4-1.791-4-4 0-2.208 1.792-4 4-4h4v4zM27.333 22c0 2-1.791 4-4 4-2.208 0-4-1.791-4-4 0-2.208 1.792-4 4-4h4v4zM12.667 24.667v-17.333l14.667-6v19.333M12.667 12l14.667-6"></path>
</symbol>
<symbol id="svgicon-notebook-2" viewBox="0 0 32 32">
<title>notebook-2</title>
<path fill="none" stroke-width="1" stroke-miterlimit="10" stroke-linecap="round" stroke-linejoin="round" d="M27.333 24.667h-22.667v-13.333h22.667zM2 27.333v-16.667c0-1.104 0.896-2 2-2h24c1.104 0 2 0.896 2 2v16.667"></path>
<path fill="none" stroke-width="1" stroke-miterlimit="10" stroke-linecap="round" stroke-linejoin="round" d="M19.333 27.333v1h-6.667v-1h-12v2.667c0 0.737 0.597 1 1 1h28c0.737 0 1-0.596 1-1v-2.667h-12z"></path>
</symbol>
<symbol id="svgicon-paint-palette" viewBox="0 0 32 32">
<title>paint-palette</title>
<path fill="none" stroke-width="1" stroke-miterlimit="10" stroke-linecap="round" stroke-linejoin="round" d="M5.157 27.852c-5.988-5.987-5.988-15.697 0-21.685s15.696-5.987 21.685 0 5.988 15.697 0 21.685c-2.863 2.864-7.507 2.864-10.371 0l-5.656-5.656c-0.521-0.521-1.365-0.521-1.885 0-0.521 0.521-0.521 1.364 0 1.885 1.040 1.041 1.040 2.729 0 3.771-1.043 1.041-2.732 1.041-3.773 0z"></path>
<path fill="none" stroke-width="1" stroke-miterlimit="10" stroke-linecap="round" stroke-linejoin="round" d="M23.655 10.411c0 1.104-0.895 1.999-1.999 1.999s-1.999-0.895-1.999-1.999c0-1.104 0.895-1.999 1.999-1.999s1.999 0.895 1.999 1.999z"></path>
<path fill="none" stroke-width="1" stroke-miterlimit="10" stroke-linecap="round" stroke-linejoin="round" d="M26.667 17.008c0 0.736-0.597 1-1 1s-1-0.597-1-1c0-0.736 0.597-1 1-1s1 0.597 1 1z"></path>
<path fill="none" stroke-width="1" stroke-miterlimit="10" stroke-linecap="round" stroke-linejoin="round" d="M24.323 23.609c0 1.473-1.194 2.667-2.667 2.667s-2.667-1.194-2.667-2.667c0-1.473 1.194-2.667 2.667-2.667s2.667 1.194 2.667 2.667z"></path>
<path fill="none" stroke-width="1" stroke-miterlimit="10" stroke-linecap="round" stroke-linejoin="round" d="M15.641 8.995c0 1.104-0.895 1.999-1.999 1.999s-1.999-0.895-1.999-1.999c0-1.104 0.895-1.999 1.999-1.999s1.999 0.895 1.999 1.999z"></path>
</symbol>

<symbol id="svgicon-figma" viewBox="0 0 43 63.5">
<title>figma</title>
<g>
	<path fill="none" stroke-width="3" stroke-miterlimit="10" d="M21.6,32.8c-0.1,0.2-0.1,0.5-0.1,0.7
		c0,2.8,0,5.6,0,8.4c-0.2,0.3-0.6,0.2-0.9,0.2c-2.6,0-5.3,0-7.9,0c-0.5,0-1,0-1.5,0c-0.4,0-0.7,0-1-0.3c-2.2-0.2-4-1-5.7-2.4
		C2.2,37.4,1,34.8,1,31.6c0-2.7,1-5,2.9-7c0.1-0.1,0.2-0.3,0.3-0.4c1.5-1.3,3.3-2.3,5.3-2.6c0.2,0,0.3,0,0.5-0.1
		c1.2-0.6,2.5-0.3,3.7-0.3c2.3,0,4.5,0,6.8,0c0.3,0,0.6,0,0.9,0.1c0.1,0,0.1,0.1,0.1,0.1c0.1,0.2,0.1,0.3,0.1,0.5
		c0,2.3,0.1,4.6,0,6.9c0,0.6,0.1,1.2,0.1,1.8c0,0.6-0.1,1.2,0,1.7C21.8,32.6,21.8,32.8,21.6,32.8z"/>
	<path fill="none" stroke-width="3" stroke-miterlimit="10" d="M21.5,1c3.6,0,7.2-0.1,10.8,0
		c4.8,0.1,9.1,4.2,9.7,8.9c0.7,5.4-3.1,10.7-8.8,11.4c-0.1,0-0.3,0-0.3,0.2c-0.1,0.2-0.3,0.2-0.4,0.2c-0.6-0.1-1.3,0-1.9,0
		c-2.7-0.2-5.4,0-8.1-0.1c-0.3,0-0.7,0.1-0.9-0.2l0,0c-0.2-0.2-0.2-0.4-0.2-0.6c0-0.6,0-1.1,0-1.7c0-5.7,0-11.5,0-17.2
		C21.3,1.7,21.2,1.3,21.5,1z"/>
	<path fill="none" stroke-width="3" stroke-miterlimit="10" d="M21.5,1c0,6.8,0,13.7,0,20.5
		c-3.8,0-7.7-0.1-11.5,0.1c0.1,0,0.1-0.1,0.2-0.2c-2-0.2-3.8-0.9-5.3-2.1c-2.2-1.7-3.5-4-3.9-6.8C0.4,7.2,4,2.1,9.5,1.2
		C9.9,1.1,10.4,1,10.8,1C14.3,1,17.9,1,21.5,1z"/>
	<path fill="none" stroke-width="3" stroke-miterlimit="10" d="M30.6,21.6c0.8-0.1,1.5-0.1,2.3,0
		c1.5,0.1,5.2,1.8,5.2,2.1c0.3,0.2,0.5,0.4,0.8,0.7c1.1,1.1,1.9,2.3,2.5,3.7c2.4,6.2-1.7,13-8.4,13.8c-5.5,0.7-10.5-3.1-11.4-8.6
		c0-0.2,0-0.3,0-0.5c-0.1-0.7-0.1-1.4,0-2.1c0-1,0-1.9,0.4-2.8c1.2-2.9,3.3-4.9,6.2-6C29,21.6,29.8,21.6,30.6,21.6z"/>
	<path fill="none" stroke-width="3" stroke-miterlimit="10" d="M10.2,41.9c3.8,0.2,7.5,0,11.3,0.1
		c0,3.6,0.1,7.3,0,10.9c-0.2,4.9-4.1,9-9,9.5C6.9,63.1,2,59.4,1.1,53.9c-0.9-5.6,3-10.9,8.6-11.8C9.9,42.1,10.1,42.2,10.2,41.9z"/>
	<path fill="none" stroke-width="3" stroke-miterlimit="10" d="M30.6,21.6c-4.8,0.5-8.6,4.5-9,9.1
		c-0.1-0.2-0.1-0.5-0.1-0.7c0-2.8,0-5.7,0-8.5c2.8,0,5.6,0,8.4,0C30.2,21.5,30.4,21.5,30.6,21.6z"/>
</g>
</symbol>


<symbol id="svgicon-virtual_reality" viewBox="0 0 71.8 112.1">
<title>virtual_reality</title>
<g>
		<path fill="#cacaca" d="M46,83.6c9.5,2.7,16.2,8.3,19.8,17.4c1.1,2.7,1.6,5.6,1.6,8.5c0,1.7-0.6,2.6-2.4,2.6
			c-19.5,0-38.9,0-58.4,0c-2,0-2.4-1-2.4-2.7c0-11.1,8.2-21.6,19.3-24.8c0.7-0.2,1.4-0.4,2.1-0.6c-0.4-0.6-1-0.3-1.5-0.3
			c-6.6,0-13.1-0.1-19.7,0c-2,0-2.9-0.7-2.8-2.8c0.1-8.8,0-17.5,0-26.3c0-1.2-0.2-2.2-0.7-3.4c-1.3-3.1-1.4-6.2,0.2-9.3
			c0.9-1.8,0.4-3.9,0.4-5.8c-0.2-5.7,0.8-11.1,3.2-16.3c7.7-16.6,27.7-24.2,44.5-17c0.4,0.2,0.8,0.4,1.2,0.6C51.7,3.8,52.6,4.6,52,6
			c-0.6,1.4-1.8,1.2-3,0.6c-4.1-1.9-8.4-3-12.9-3C24.4,3.8,15.4,9,9.2,19c-0.3,0.5-0.6,1-0.7,1.6c2-1.4,4.7-1.3,6.4-3.5
			c2.7-3.6,6.4-6.1,10.5-7.9c1.3-0.6,2.3-0.5,3.4,0.5c2.6,2.3,5.7,4.1,8.8,5.7c5,2.6,10.3,3.7,16,3.2c3.3-0.3,6.6-0.1,9.2,2.4
			c0.5-1-0.2-1.6-0.5-2.2c-1.7-2.9-3.9-5.5-6.4-7.7c-1-0.8-1.7-1.8-0.7-3c1-1.2,2.1-0.6,3,0.2c7.4,6.6,11.5,14.9,11.9,24.9
			c0.1,1.5,0,2.9,0,4.4c0,2,0.1,3.8,1,5.7c1.2,2.6,0.7,5.3-0.3,7.8c-0.5,1.1-0.6,2.2-0.6,3.4c0,8.7,0,17.4,0,26c0,2.7-0.3,3-3,3
			C60,83.6,53,83.6,46,83.6z M35.9,22.3c-6.5,0-13,0.2-19.5-0.1c-4.8-0.2-7.1,2.6-7,7c0.1,6.3,0.2,12.7-0.1,19
			c-0.2,4.2,2.2,6.9,5.9,7c13.7,0.1,27.4,0.1,41.1,0c3.8,0,5.9-2,6-5.8c0.1-7.1,0.1-14.3,0-21.4c-0.1-3.7-2.3-5.7-6-5.7
			C49.4,22.3,42.6,22.3,35.9,22.3z M5.2,56.9c0,7.4,0,14.6,0,21.9c0,1.4,0.9,1.1,1.6,1.1c6.1,0,12.2,0,18.4,0c0.6,0,1.5,0.4,1.6-0.5
			c0.1-0.7-0.7-0.8-1.3-1c-2.2-0.9-4.2-2.1-6-3.5c-1-0.7-1.2-1.7-0.5-2.7c0.7-0.9,1.6-0.9,2.5-0.3c0.4,0.2,0.7,0.5,1.1,0.7
			c7.9,5.1,16.1,5.6,24.4,1.3c6.2-3.2,10-8.3,11.8-15.1c-15.3,0-30.5,0-45.7,0c0.6,3,2,5.6,3.6,8c0.7,1,0.9,2.1-0.3,2.8
			c-1.2,0.8-2,0.1-2.7-0.9c-1.5-2.2-3-4.4-3.4-7C9.6,58.8,7.8,57.7,5.2,56.9z M50.5,89.2c-0.2,0.5-0.3,0.8-0.4,1.2
			c-2.3,6.4-7.6,10.3-14.1,10.4c-6.4,0.1-11.9-3.9-14.1-10.4c-0.6-1.7-1.2-1-2-0.5c-6.5,3.8-10.5,9.3-11.8,16.7c-0.3,1.6,0,2,1.6,2
			c6.3-0.1,12.7,0,19,0c11.2,0,22.3,0,33.5,0c0.8,0,1.9,0.4,1.6-1.2C62.4,99.1,58,93,50.5,89.2z M34.7,80.4c-4.2-0.4-4.2-0.4-4.2,3
			c0,3.3-0.1,3.4-3.2,4c-0.4,0.1-0.9,0.2-1.3,0.2c-1,0.1-1.1,0.5-0.8,1.5c1.3,4.6,5.6,8,10.4,8.1c5,0.1,9.3-2.9,10.9-7.5
			c0.5-1.4,0.3-2-1.2-2.2c-4.4-0.6-4.2-0.6-4.2-5.1c0-0.4,0-0.7,0-1.1c0.1-1-0.2-1.4-1.3-1.2C37.9,80.3,35.9,80.4,34.7,80.4z
			 M66.5,56.4c-1.5,1.8-3.8,1.1-4.4,3.3c-2.3,8.9-7.8,15.1-16.2,18.7c-0.5,0.2-1.1,0.3-1,0.9c0.1,0.7,0.8,0.5,1.2,0.5
			c6.3,0,12.7,0,19,0c1.1,0,1.3-0.4,1.3-1.4C66.5,71.4,66.5,64.2,66.5,56.4z M34.9,18.5c-2.6-1.8-5.3-3.4-7.6-5.4
			c-0.4-0.4-0.8-0.5-1.4-0.2c-2.7,1.3-5.2,3-7.4,5.5C24.2,18.5,29.6,18.5,34.9,18.5z M5.7,42.7c-2.9,2.1-2.8,6.5,0.5,9.7
			C5.4,49,5.8,45.9,5.7,42.7z M65.8,42.4c0,3.4,0,6.5,0,9.6C68.7,49,68.9,45,65.8,42.4z M5.7,38.4c0-2.3,0-4.5,0-6.8
			C5.1,33.9,5.1,36.1,5.7,38.4z M66,38.4c0.5-2.2,0.7-4.5,0-6.7C66,33.9,66,36.2,66,38.4z"/>
		<path fill="#cacaca" d="M35.8,51.7c-5.5,0-11.1,0-16.6,0c-4,0-6.1-2.1-6.2-6c0-4.7,0-9.3,0-14c0-3.7,2.1-5.9,5.8-5.9
			c6.8-0.1,13.6,0,20.3,0c1.3,0,2.5,0.1,2.5,1.7c0,1.7-1.3,1.9-2.6,1.9c-6.5,0-13,0-19.5,0c-2.5,0-2.9,0.4-2.9,2.9
			c0,4.4,0.1,8.8,0,13.1c0,2,0.8,2.8,2.7,2.8c11,0,22,0,33,0c2,0,2.8-0.9,2.8-2.9c-0.1-4.3,0-8.6,0-12.9c0-2.6-0.4-3-3.1-3
			c-1.5,0-3.1,0-4.6,0c-1.2,0-2.3-0.4-2.3-1.8c0-1.4,0.9-1.8,2.2-1.8c2.1,0,4.2-0.1,6.3,0.1c2.9,0.2,4.9,2.2,5,5.1
			c0.1,5.2,0.1,10.4,0,15.5c-0.1,3.1-2.4,5.2-5.6,5.2C47.3,51.7,41.6,51.7,35.8,51.7z"/>
		<path fill="#cacaca" d="M29,67.5c-0.1-3.9,3.1-7.3,6.8-7.4c3.7,0,6.9,3.3,6.9,7.3c0,3.8-3,7.1-6.7,7.3C32.3,74.8,29,71.5,29,67.5z
			 M38.8,66.1c-0.5-1.5-1.4-2.3-2.9-2.3c-1.5,0-2.6,0.7-3.1,2.3C34.9,66.1,36.8,66.1,38.8,66.1z M33.5,70c1.7,1.2,3,1.3,4.5,0
			C36.5,69.6,35.2,69.6,33.5,70z"/>
	</g>
</symbol>


<symbol id="svgicon-vision" viewBox="0 0 305 305">
<title>vision</title>
<g>
	<g>
		<path fill="none" stroke="#cacaca" stroke-width="10" stroke-miterlimit="10" d="M150.5,300C69.9,300,3,234.3,3,152.5
			C3,71.9,68.7,5,150.5,5C231.1,5,298,70.7,298,152.5C298,234.3,231.1,300,150.5,300L150.5,300z"/>
	</g>
	<g>
		<path fill="none" stroke="#cacaca" stroke-width="10" stroke-miterlimit="10" d="M134.4,136.4l-24.8,57l57-24.8l24.8-57
			L134.4,136.4L134.4,136.4z"/>
	</g>
</g>
</symbol>

<symbol id="svgicon-business_obj" viewBox="0 0 300 300">
<title>business_obj</title>
<g>
	<g>
		<path fill="none" stroke="#cacaca" stroke-width="10" stroke-miterlimit="10" d="M139,273.3c-34,0-65.6-13.4-89.9-37.7
			s-37.7-55.9-37.7-89.9c0-34,13.4-65.6,37.7-89.9S105,18.2,139,18.2c34,0,65.6,13.4,89.9,37.7s37.7,55.9,37.7,89.9
			c0,34-13.4,65.6-37.7,89.9C204.6,259.9,171.8,273.3,139,273.3L139,273.3z"/>
	</g>
</g>
<line fill="none" stroke="#cacaca" stroke-width="10" stroke-miterlimit="10" x1="139" y1="0" x2="139" y2="293.9"/>
<line fill="none" stroke="#cacaca" stroke-width="10" stroke-miterlimit="10" x1="-9.2" y1="147" x2="284.8" y2="147"/>
</symbol>


<symbol id="svgicon-assessment" viewBox="0 0 300 300">
<title>assessment</title>
<g>
	<g>
		<path fill="none" stroke="#cacaca" stroke-width="10" stroke-miterlimit="10" d="M236.8,181.9C236,218,239,253,236,289
			c0,2-2,4-3,5c-2,2-5,3-8,3c-68,0-136,2-204-1c-1,0-3-1-4-2c-2-2-4-5-4-8c0-87-1-173,0-260c0-3,1-6,4-7c14-6,29-2,44.4-2.7"/>
		<path fill="none" stroke="#cacaca" stroke-width="10" stroke-miterlimit="10" d="M187.2,15.1C204,16,223,9,237,21
			c2,20,0,39,1,58.6"/>
	</g>
	<g>
		<path fill="none" stroke="#cacaca" stroke-width="10" stroke-miterlimit="10" d="M166.6,53.8H84.3c-14.5,0-25.4-12.1-25.4-25.4
			C58.9,13.9,71,3,84.3,3h82.3C181.1,3,192,15.1,192,28.4C192,42.9,181.1,53.8,166.6,53.8L166.6,53.8z"/>
	</g>
	<g>
		<g>
			<path fill="none" stroke="#cacaca" stroke-width="10" stroke-miterlimit="10" d="M176.2,196.6h-0.8l-26.7-3.3
				c-2.5,0-4.2-1.7-5.8-3.3c-1.7-1.7-1.7-4.2-0.8-6.7l6.7-26.7c0.8-1.7,1.7-3.3,3.3-5l72.6-49.3l16.7-10.9l5.8-3.3
				c1.7-0.8,4.2-1.7,6.7-1.7s4.2,1.7,5,3.3l20,30.1c1.7,1.7,1.7,4.2,1.7,6.7c0,2.5-1.7,4.2-3.3,5l-94.3,64.3
				C179.6,195.8,177.9,196.6,176.2,196.6L176.2,196.6z M159.5,177.4l14.2,1.7l85.2-58.4L248,104.8l-85.2,58.4L159.5,177.4
				L159.5,177.4z"/>
		</g>
	</g>
</g>
<line fill="none" stroke="#cacaca" stroke-width="10" stroke-miterlimit="10" x1="83.1" y1="28.4" x2="167.8" y2="28.4"/>
</symbol>


<symbol id="svgicon-execution" viewBox="0 0 300 300">
<title>execution</title>
<g>
	<g>
		<g>
			<path fill="none" stroke="#cacaca" stroke-width="10" stroke-miterlimit="10" d="M256,150.6"/>
			<path fill="none" stroke="#cacaca" stroke-width="10" stroke-miterlimit="10" d="M208,102.7c-4.9-4.9-4.9-12.3,0-17.2
				c4.9-4.9,12.3-4.9,17.2,0l56.6,56.6c4.9,4.9,4.9,12.3,0,17.2l-56.6,56.6c-2.5,2.5-4.9,3.7-8.6,3.7l0,0c-3.7,0-6.1-1.2-8.6-3.7
				c-4.9-4.9-4.9-12.3,0-17.2"/>
		</g>
		<g>
			<path fill="none" stroke="#cacaca" stroke-width="10" stroke-miterlimit="10" d="M91.1,198.6c4.9,4.9,4.9,12.3,0,17.2
				c-2.5,2.5-6.1,3.7-8.6,3.7l0,0c-3.7,0-6.1-1.2-8.6-3.7l-56.6-56.6c-4.9-4.9-4.9-12.3,0-17.2l56.6-56.6c4.9-4.9,12.3-4.9,17.2,0
				c4.9,4.9,4.9,12.3,0,17.2"/>
			<path fill="none" stroke="#cacaca" stroke-width="10" stroke-miterlimit="10" d="M43.1,150.6"/>
		</g>
	</g>
	<g>
		<path fill="none" stroke="#cacaca" stroke-width="10" stroke-miterlimit="10" d="M197,28.9l-92.2,248.4"/>
	</g>
</g>
</symbol>

<symbol id="svgicon-instagram" viewBox="0 0 24 24">
<path fill="none" stroke="#fff" stroke-width="1.5" stroke-linecap="round" stroke-linejoin="round" d="M7,2h10c2.8,0,5,2.2,5,5v10c0,2.8-2.2,5-5,5
	H7c-2.8,0-5-2.2-5-5V7C2,4.2,4.2,2,7,2z"/>
<path fill="none" stroke="#fff" stroke-width="1.5" stroke-linecap="round" stroke-linejoin="round" d="M16,11.4c0.3,2.2-1.2,4.2-3.4,4.5
	c-2.2,0.3-4.2-1.2-4.5-3.4C7.8,10.4,9.3,8.3,11.5,8c0.4-0.1,0.8-0.1,1.2,0C14.4,8.3,15.7,9.6,16,11.4z"/>
<line fill="none" stroke="#fff" stroke-width="1.5" stroke-linecap="round" stroke-linejoin="round" x1="17.5" y1="6.5" x2="17.5" y2="6.5"/>
</symbol>


<symbol id="svgicon-github" viewBox="0 0 24 24">
<path fill="none" stroke="#fff" stroke-width="1.5" stroke-linecap="round" stroke-linejoin="round" d="M8.2,19.8c-5,1.5-5-2.5-7-3 M15.2,22.8v-3.9
	c0.1-1-0.3-1.9-0.9-2.6c3.1-0.3,6.4-1.5,6.4-7c0-1.4-0.5-2.7-1.5-3.8c0.5-1.2,0.4-2.6-0.1-3.8c0,0-1.2-0.4-3.9,1.5
	c-2.3-0.6-4.7-0.6-7,0C5.5,1.4,4.3,1.8,4.3,1.8C3.8,2.9,3.8,4.3,4.2,5.5c-1,1-1.5,2.4-1.5,3.8c0,5.4,3.3,6.6,6.4,7
	c-0.7,0.7-1,1.6-0.9,2.6v3.9"/>
</symbol>

<symbol id="checked_icon" viewBox="401.8 0 465 605.8">
<g>
	<g>
		<path fill="#CACACA" stroke="#CACACA" stroke-width="5" stroke-miterlimit="10" d="M633.9,456c-109.2,0-199.1-89.9-199.1-199.1
			S524.7,57.8,633.9,57.8S833,147.7,833,256.9S743.1,456,633.9,456L633.9,456z M633.9,66.1c-105.1,0-190.8,85.7-190.8,190.8
			s85.7,190.8,190.8,190.8S824.7,362,824.7,256.9S739,66.1,633.9,66.1L633.9,66.1z"/>
	</g>
</g>
<g>
	<path fill="#CACACA" stroke="#CACACA" stroke-width="13" stroke-miterlimit="10" d="M597.9,339.8c-1.4,0-2.8,0-2.8-1.4l-58.1-62.2
		c-1.4-1.4-1.4-4.1,0-6.9c1.4-1.4,4.1-1.4,6.9,0l55.3,58.1l125.8-152.1c1.4-1.4,4.1-2.8,6.9,0c1.4,1.4,2.8,4.1,0,6.9l-130,157.6
		C600.7,339.8,599.3,339.8,597.9,339.8L597.9,339.8L597.9,339.8z"/>
</g>
</symbol>


<symbol id="target_blank" viewBox="435.3 180.9 392.4 392.5">
<g>
	<g>
		<g>
			<path fill="#303136" d="M635.2,464.1c-0.8,0.8-1.8,1.3-2.9,1.5c-2.9,0.5-5.6-1.5-6.1-4.4l-13-81.4l-81.5-12.6
				c-2.9-0.4-4.9-3.2-4.4-6c0.4-2.9,3.1-4.9,6-4.4l85.3,13.2c2.3,0.4,4,2.1,4.4,4.4l13.6,85.2C636.9,461.3,636.3,463,635.2,464.1
				L635.2,464.1z"/>
		</g>
		<g>
			<path fill="#303136" d="M621.5,378.9l-92.6,93c-2.1,2.1-5.4,2.1-7.5,0c-2.1-2.1-2.1-5.4,0-7.5l92.6-93c2.1-2.1,5.4-2.1,7.5,0
				C623.6,373.5,623.6,376.9,621.5,378.9L621.5,378.9z"/>
		</g>
	</g>
</g>
</symbol>








</defs>
</svg>
