<?xml version="1.0" encoding="utf-8"?>
<!-- Generator: Adobe Illustrator 22.0.0, SVG Export Plug-In . SVG Version: 6.00 Build 0)  -->
<svg version="1.1" id="Layer_1" xmlns="http://www.w3.org/2000/svg" xmlns:xlink="http://www.w3.org/1999/xlink" x="0px" y="0px"
	 viewBox="0 0 334.9 350.5" style="enable-background:new 0 0 334.9 350.5;" xml:space="preserve">
<style type="text/css">
	.st0{fill:#D3F3FF;}
</style>
<g>
	<path class="st0" d="M183.8,28.8l-3.6-0.3l1.6-19.2l3.6,0.3L183.8,28.8z M181.9,4.1c0.1-0.7,0.3-1.1,0.7-1.4c0.4-0.3,1-0.4,1.6-0.3
		c0.6,0,1.1,0.2,1.5,0.6c0.4,0.4,0.6,0.9,0.5,1.5c-0.1,0.7-0.3,1.1-0.8,1.4c-0.5,0.3-1,0.4-1.6,0.4c-0.6-0.1-1.1-0.3-1.5-0.6
		C182,5.2,181.8,4.7,181.9,4.1z"/>
	<path class="st0" d="M207,32.5l2.4-12.2c0.3-1.5,0.1-2.8-0.6-3.7c-0.7-0.9-2-1.6-3.9-1.9c-2.5-0.5-4.4-0.3-5.7,0.5
		c-1.4,0.8-2.3,2.5-2.8,5l-1.9,9.9l-3.6-0.7l3.7-18.9l2.9,0.6l0.1,2.7l0.2,0c0.9-0.8,2.1-1.3,3.5-1.6c1.4-0.3,2.9-0.2,4.6,0.1
		c2.8,0.6,4.9,1.5,6.1,2.9c1.2,1.4,1.6,3.3,1.1,5.7l-2.4,12.3L207,32.5z"/>
	<path class="st0" d="M233.3,35.2c-0.6,1.7-1.8,2.7-3.7,3.1c-1.9,0.4-4.3,0.1-7.1-0.9c-3-1-5.2-2.2-6.7-3.6l0.9-2.6
		c0.9,0.8,2,1.6,3.2,2.3c1.2,0.7,2.3,1.2,3.5,1.6c1.8,0.6,3.3,0.9,4.4,0.7c1.1-0.1,1.9-0.7,2.2-1.6c0.2-0.7,0.1-1.4-0.5-2.2
		c-0.6-0.8-1.9-1.9-3.9-3.3c-1.9-1.4-3.2-2.4-4-3.2c-0.7-0.8-1.2-1.5-1.4-2.3c-0.2-0.7-0.2-1.5,0.1-2.4c0.5-1.5,1.7-2.4,3.5-2.7
		c1.8-0.3,4-0.1,6.7,0.8c2.5,0.8,4.7,2.1,6.8,3.7l-2,1.8c-2-1.5-4-2.6-5.8-3.3c-1.6-0.6-2.9-0.8-3.9-0.7c-1,0.1-1.6,0.5-1.8,1.3
		c-0.2,0.5-0.2,1,0,1.4c0.2,0.5,0.6,1,1.2,1.5c0.6,0.5,1.8,1.5,3.5,2.7c2.4,1.7,4,3.1,4.7,4.3S233.7,34,233.3,35.2z"/>
	<path class="st0" d="M239.8,44l-3.3-1.5l7.9-17.6l3.3,1.5L239.8,44z M246.3,20c0.3-0.6,0.7-1,1.2-1.1c0.5-0.1,1,0,1.6,0.2
		c0.5,0.2,0.9,0.6,1.2,1.1c0.3,0.5,0.2,1,0,1.6c-0.3,0.6-0.7,1-1.2,1.1c-0.5,0.1-1,0.1-1.6-0.2c-0.6-0.3-1-0.6-1.2-1.1
		C246,21.2,246,20.6,246.3,20z"/>
	<path class="st0" d="M273,40.2l-0.9,1.6l-4.1-1.9c0.1,0.6,0.2,1.2,0.1,1.9c-0.1,0.7-0.3,1.5-0.7,2.2c-0.9,1.6-2.4,2.5-4.4,2.7
		c-2,0.2-4.2-0.5-6.6-1.9c-0.6-0.4-1.2-0.7-1.7-1.1c-1.7-0.2-2.8,0.1-3.3,1c-0.3,0.5-0.2,0.9,0.1,1.4c0.3,0.5,1.1,1.1,2.2,1.7
		l3.7,2.1c2.3,1.3,3.8,2.7,4.5,4.2c0.8,1.5,0.7,2.9-0.1,4.4c-1.1,1.8-2.8,2.7-5.2,2.6c-2.4-0.1-5.4-1.2-8.9-3.3
		c-2.7-1.6-4.6-3.2-5.6-4.9c-1-1.7-1.1-3.2-0.2-4.7c0.6-1,1.5-1.7,2.7-1.9c1.2-0.3,2.7-0.1,4.3,0.5c-0.4-0.5-0.7-1.1-0.8-1.7
		s0-1.2,0.3-1.7c0.4-0.6,0.9-1,1.5-1.2c0.7-0.2,1.6-0.3,2.7-0.2c-0.9-1-1.4-2.1-1.6-3.3c-0.2-1.2,0-2.4,0.7-3.5
		c1.1-1.8,2.6-2.8,4.5-3c1.9-0.2,4.2,0.4,6.7,1.9c1.1,0.6,2,1.3,2.8,2L273,40.2z M245.1,50c-0.5,0.9-0.4,1.9,0.2,2.9
		c0.7,1,1.9,2,3.7,3.1c2.6,1.5,4.8,2.4,6.4,2.5c1.6,0.1,2.8-0.4,3.4-1.5c0.5-0.9,0.5-1.7,0-2.5c-0.5-0.8-1.7-1.7-3.6-2.8l-3.8-2.2
		c-1.4-0.8-2.7-1.2-3.8-1.1C246.5,48.4,245.7,48.9,245.1,50z M255,36.8c-0.7,1.2-0.8,2.3-0.3,3.4c0.5,1.1,1.4,2,2.9,2.9
		c3.1,1.8,5.3,1.5,6.7-0.9c1.5-2.5,0.6-4.7-2.5-6.5c-1.5-0.9-2.8-1.2-4-1C256.7,34.9,255.7,35.6,255,36.8z"/>
	<path class="st0" d="M279.4,69.5l7.8-9.7c1-1.2,1.4-2.4,1.2-3.6c-0.2-1.2-1.1-2.3-2.5-3.5c-2-1.6-3.8-2.3-5.4-2.2
		c-1.6,0.1-3.2,1.2-4.8,3.1l-6.3,7.8l-2.8-2.3l17.1-21.3l2.8,2.3l-5.2,6.5c-0.6,0.8-1.2,1.4-1.7,1.8l0.2,0.1
		c1.1-0.3,2.4-0.2,3.8,0.2c1.4,0.4,2.7,1.2,4,2.2c2.3,1.8,3.7,3.7,4.1,5.5c0.4,1.8-0.1,3.6-1.6,5.5l-7.9,9.8L279.4,69.5z"/>
	<path class="st0" d="M293.9,80.8c0.4,0.5,0.9,0.9,1.4,1.3c0.5,0.4,0.9,0.7,1.2,0.9l-1.6,1.5c-0.4-0.2-0.9-0.5-1.5-1
		c-0.6-0.5-1.1-0.9-1.5-1.4c-3.2-3.4-3.4-6.4-0.6-9.1l8.3-7.9l-2.4-2.5l1-1l3.3,1.6l4-1.7l1.5,1.5l-3.2,3.1l4.8,5l-1.6,1.6l-4.8-5
		l-8.2,7.9c-0.8,0.8-1.2,1.7-1.2,2.6C292.6,79.1,293,80,293.9,80.8z"/>
</g>
</svg>
