<?xml version="1.0" encoding="utf-8"?>
<!-- Generator: Adobe Illustrator 22.0.0, SVG Export Plug-In . SVG Version: 6.00 Build 0)  -->
<svg version="1.1" id="Layer_1" xmlns="http://www.w3.org/2000/svg" xmlns:xlink="http://www.w3.org/1999/xlink" x="0px" y="0px"
	 viewBox="0 0 334.9 350.5" style="enable-background:new 0 0 334.9 350.5;" xml:space="preserve">
<style type="text/css">
	.st0{fill:#889E82;}
</style>
<g>
	<path class="st0" d="M192.4,32.7c-1.6-0.2-2.9-0.6-4.2-1.3c-1.2-0.6-2.2-1.5-2.9-2.6l-0.3,0c0,1.1,0,2.2-0.2,3.2l-1.1,7.9l-3.6-0.5
		l3.8-27.7l2.9,0.4l0.1,2.7l0.2,0c1.1-0.9,2.3-1.5,3.6-1.8c1.3-0.3,2.7-0.3,4.3-0.1c3.2,0.4,5.5,1.6,7,3.6c1.5,2,2,4.5,1.6,7.6
		c-0.4,3.1-1.6,5.5-3.6,6.9S195.5,33.1,192.4,32.7z M194.3,15.3c-2.4-0.3-4.3,0-5.5,0.9c-1.2,0.9-2,2.6-2.4,4.9l-0.1,0.6
		c-0.4,2.7-0.1,4.7,0.9,6c1,1.3,2.7,2.1,5.1,2.5c2.1,0.3,3.8-0.2,5.1-1.3c1.4-1.2,2.2-2.9,2.5-5.3c0.3-2.4,0-4.3-1-5.7
		C197.9,16.4,196.4,15.5,194.3,15.3z"/>
	<path class="st0" d="M223.5,19.1c1,0.3,1.9,0.6,2.7,1l-1.2,2.5c-0.9-0.4-1.7-0.7-2.5-0.9c-1.9-0.5-3.7-0.3-5.3,0.5
		c-1.7,0.9-2.7,2.2-3.2,4l-2.7,10l-3.5-1l5-18.6l2.9,0.8l-0.5,3.6l0.2,0c1.2-1,2.5-1.6,3.9-2C220.6,18.6,222,18.7,223.5,19.1z"/>
	<path class="st0" d="M247.6,38.9c-1.2,2.9-3.1,4.8-5.6,5.7c-2.5,0.9-5.4,0.6-8.6-0.7c-2-0.8-3.6-1.9-4.8-3.3c-1.2-1.4-2-3-2.2-4.7
		c-0.3-1.7,0-3.6,0.8-5.4c1.2-2.9,3-4.8,5.5-5.7c2.5-0.9,5.3-0.6,8.6,0.7c3.1,1.3,5.2,3.1,6.4,5.6C248.8,33.5,248.8,36.1,247.6,38.9
		z M230.7,31.9c-0.9,2.3-1.1,4.2-0.5,5.9c0.6,1.7,2.1,3,4.3,3.9c2.2,0.9,4.1,1,5.8,0.3c1.6-0.7,2.9-2.2,3.9-4.5
		c0.9-2.3,1.1-4.2,0.4-5.9c-0.7-1.6-2.1-2.9-4.3-3.9c-2.2-0.9-4.1-1-5.7-0.3C232.9,28.1,231.6,29.6,230.7,31.9z"/>
	<path class="st0" d="M256.9,55.8c-3-1.8-4.9-3.9-5.7-6.3c-0.8-2.4-0.4-5,1.2-7.7c1.6-2.8,3.7-4.4,6.3-5c2.6-0.5,5.4,0.1,8.5,1.9
		c1,0.6,1.9,1.3,2.8,2c0.9,0.8,1.6,1.4,2,2l-2.2,1.6c-0.6-0.6-1.2-1.3-1.9-1.9c-0.7-0.6-1.4-1.1-2-1.5c-4.2-2.5-7.6-1.6-10.1,2.7
		c-1.2,2-1.6,3.9-1.2,5.6c0.4,1.7,1.6,3.1,3.6,4.3c1.7,1,3.7,1.8,5.8,2.2l-1.3,2.2C260.9,57.8,259,57,256.9,55.8z"/>
	<path class="st0" d="M274.1,67.9c-2.8-2.2-4.5-4.6-5-7.2c-0.5-2.6,0.1-5.2,2-7.6c1.9-2.4,4.2-3.8,6.8-4c2.6-0.3,5.2,0.6,7.7,2.6
		c2.4,1.9,3.8,4,4.2,6.3c0.4,2.3-0.2,4.5-1.8,6.6l-1.1,1.5l-13-10.2c-1.3,1.8-1.8,3.6-1.5,5.4s1.5,3.4,3.4,4.9
		c2,1.6,4.3,2.8,6.8,3.7l-1.6,2c-1.3-0.4-2.4-0.9-3.5-1.5C276.5,69.7,275.4,68.9,274.1,67.9z M284.1,53.5c-1.5-1.2-3-1.7-4.6-1.7
		c-1.5,0.1-2.9,0.8-4.2,2l9.9,7.8c1.1-1.4,1.6-2.9,1.4-4.3C286.5,55.9,285.6,54.7,284.1,53.5z"/>
	<path class="st0" d="M299.7,84.4c-1.3,1.2-2.9,1.6-4.7,1.1c-1.9-0.5-3.8-1.9-5.9-4c-2.2-2.3-3.7-4.4-4.3-6.2l1.9-1.9
		c0.5,1.2,1.1,2.3,1.8,3.4c0.7,1.1,1.5,2.2,2.4,3c1.3,1.4,2.5,2.3,3.6,2.6c1.1,0.4,2,0.3,2.7-0.4c0.5-0.5,0.7-1.3,0.5-2.2
		c-0.2-1-0.8-2.5-1.9-4.7c-1.1-2.1-1.8-3.6-2.1-4.6c-0.3-1-0.4-1.9-0.2-2.7c0.1-0.8,0.5-1.5,1.2-2.1c1.1-1.1,2.6-1.4,4.3-0.9
		s3.6,1.8,5.5,3.8c1.8,1.9,3.3,4,4.4,6.3l-2.6,0.7c-1.1-2.3-2.3-4.1-3.7-5.6c-1.2-1.2-2.3-2-3.2-2.4c-0.9-0.3-1.7-0.2-2.2,0.3
		c-0.4,0.4-0.6,0.8-0.6,1.3c0,0.5,0.1,1.1,0.4,1.9c0.3,0.8,0.9,2.1,1.9,4c1.4,2.6,2.1,4.6,2.2,5.9C301,82.4,300.6,83.5,299.7,84.4z"
		/>
	<path class="st0" d="M312.7,101.3c-1.4,1.1-3,1.2-4.8,0.5c-1.8-0.8-3.6-2.3-5.4-4.8c-1.9-2.6-3.1-4.8-3.5-6.7l2.2-1.6
		c0.3,1.2,0.8,2.4,1.3,3.6c0.6,1.2,1.2,2.3,2,3.3c1.1,1.5,2.2,2.6,3.2,3.1c1,0.5,1.9,0.5,2.7-0.1c0.6-0.4,0.9-1.2,0.8-2.1
		c-0.1-1-0.5-2.6-1.3-4.9c-0.8-2.2-1.3-3.8-1.5-4.9s-0.1-2,0.1-2.7c0.2-0.7,0.7-1.4,1.4-1.9c1.3-0.9,2.7-1,4.4-0.3
		c1.7,0.7,3.4,2.2,5,4.4c1.6,2.1,2.7,4.4,3.5,6.8l-2.7,0.4c-0.8-2.4-1.8-4.4-3-6c-1-1.4-2-2.3-2.9-2.7c-0.9-0.4-1.6-0.4-2.2,0
		c-0.4,0.3-0.7,0.7-0.8,1.2c-0.1,0.5-0.1,1.1,0.1,1.9c0.2,0.8,0.6,2.2,1.4,4.2c1,2.8,1.5,4.8,1.5,6.1
		C314.3,99.5,313.7,100.5,312.7,101.3z"/>
</g>
</svg>
