<?xml version="1.0" encoding="utf-8"?>
<!-- Generator: Adobe Illustrator 22.0.0, SVG Export Plug-In . SVG Version: 6.00 Build 0)  -->
<svg version="1.1" id="Layer_1" xmlns="http://www.w3.org/2000/svg" xmlns:xlink="http://www.w3.org/1999/xlink" x="0px" y="0px"
	 viewBox="0 0 334.9 350.5" style="enable-background:new 0 0 334.9 350.5;" xml:space="preserve">
<style type="text/css">
	.st0{fill:#FFC5C8;}
</style>
<g>
	<path class="st0" d="M194.6,12.8c3.1,0.4,5.5,1.6,7,3.5c1.5,1.9,2,4.5,1.6,7.6c-0.4,3.1-1.6,5.5-3.6,7c-2,1.5-4.5,2-7.6,1.6
		c-1.6-0.2-2.9-0.6-4.2-1.3c-1.2-0.6-2.2-1.5-3-2.5l-0.3,0l-1.1,2.4l-2.6-0.3l3.6-27.1l3.6,0.5l-0.9,6.6c-0.2,1.5-0.4,2.8-0.7,3.9
		l0.2,0C188.7,13,191.3,12.4,194.6,12.8z M193.8,15.2c-2.5-0.3-4.3,0-5.6,1s-2,2.8-2.4,5.5c-0.4,2.7-0.1,4.7,0.9,6
		c1,1.3,2.7,2.1,5.1,2.5c2.2,0.3,4-0.1,5.2-1.3c1.3-1.1,2.1-2.9,2.4-5.4c0.3-2.5,0-4.4-0.9-5.8S196.1,15.5,193.8,15.2z"/>
	<path class="st0" d="M229.9,31.4c-0.9,3-2.5,5.1-4.9,6.2c-2.4,1.1-5.3,1.2-8.6,0.2c-2.1-0.6-3.8-1.5-5.2-2.8
		c-1.4-1.2-2.3-2.7-2.7-4.4c-0.4-1.7-0.4-3.5,0.2-5.5c0.9-3,2.5-5.1,4.9-6.2c2.4-1.1,5.2-1.2,8.6-0.2c3.2,1,5.5,2.6,6.9,4.8
		C230.5,25.9,230.8,28.5,229.9,31.4z M212.3,26.2c-0.7,2.4-0.6,4.3,0.2,5.9c0.8,1.6,2.4,2.7,4.7,3.4c2.3,0.7,4.2,0.6,5.8-0.3
		s2.7-2.5,3.4-4.9c0.7-2.3,0.6-4.3-0.2-5.9c-0.8-1.6-2.4-2.7-4.7-3.4c-2.3-0.7-4.2-0.6-5.7,0.3C214.1,22.2,213,23.9,212.3,26.2z"/>
	<path class="st0" d="M255.2,42.8c-1.3,2.8-3.3,4.6-5.8,5.4c-2.5,0.8-5.4,0.4-8.5-1.1c-1.9-0.9-3.5-2.1-4.7-3.5
		c-1.2-1.4-1.8-3-2-4.8c-0.2-1.8,0.2-3.5,1-5.4c1.3-2.8,3.3-4.6,5.8-5.4c2.5-0.7,5.4-0.4,8.5,1.1c3,1.4,5.1,3.4,6.1,5.9
		C256.6,37.5,256.5,40.1,255.2,42.8z M238.6,35c-1,2.2-1.3,4.2-0.7,5.9c0.6,1.7,1.9,3,4.1,4.1c2.2,1,4.1,1.2,5.7,0.6
		c1.7-0.6,3-2.1,4.1-4.3c1-2.2,1.3-4.2,0.7-5.8c-0.6-1.7-2-3-4.1-4.1c-2.2-1-4.1-1.2-5.7-0.6C241,31.3,239.7,32.8,238.6,35z"/>
	<path class="st0" d="M264.2,48.3c0.9-0.2,2.2-0.5,4-0.8l10.1-1.2l3.6,2.4l-12.7,1.4l2.6,15l-3.7-2.4l-2.1-12.3l-3.3,0.1l-4,6l-3-2
		l15.1-22.8l3,2l-8,12.1c-0.4,0.5-1,1.3-1.8,2.4L264.2,48.3z"/>
	<path class="st0" d="M289.7,73.7c-1.2,1.4-2.7,1.8-4.6,1.5c-1.9-0.4-4-1.5-6.3-3.5c-2.4-2.1-4-4-4.8-5.8l1.8-2
		c0.6,1.1,1.3,2.2,2.1,3.3c0.8,1.1,1.7,2,2.6,2.8c1.4,1.2,2.7,2,3.8,2.3c1.1,0.3,2,0.1,2.6-0.7c0.5-0.6,0.6-1.3,0.3-2.3
		s-1-2.5-2.3-4.5c-1.3-2-2.1-3.5-2.5-4.5s-0.5-1.9-0.5-2.7c0.1-0.8,0.4-1.5,1-2.2c1-1.2,2.4-1.6,4.2-1.2c1.8,0.4,3.8,1.5,5.9,3.3
		c2,1.7,3.6,3.7,4.9,5.9l-2.5,0.9c-1.3-2.2-2.7-3.9-4.2-5.2c-1.3-1.1-2.4-1.8-3.4-2.1c-0.9-0.2-1.7-0.1-2.2,0.5
		c-0.3,0.4-0.5,0.8-0.5,1.3c0,0.5,0.2,1.1,0.5,1.8c0.3,0.7,1.1,2,2.2,3.8c1.6,2.5,2.5,4.4,2.7,5.7C290.8,71.6,290.5,72.8,289.7,73.7
		z"/>
</g>
</svg>
