<?xml version="1.0" encoding="utf-8"?>
<!-- Generator: Adobe Illustrator 22.0.0, SVG Export Plug-In . SVG Version: 6.00 Build 0)  -->
<svg version="1.1" id="Layer_1" xmlns="http://www.w3.org/2000/svg" xmlns:xlink="http://www.w3.org/1999/xlink" x="0px" y="0px"
	 viewBox="0 0 334.9 350.5" style="enable-background:new 0 0 334.9 350.5;" xml:space="preserve">
<style type="text/css">
	.st0{fill:#3B3435;}
</style>
<g>
	<path class="st0" d="M180.8,30.9l-3.6-0.2l1.2-19.2l3.6,0.2L180.8,30.9z M178.4,6.2c0-0.7,0.3-1.1,0.7-1.4c0.4-0.3,1-0.4,1.6-0.4
		c0.6,0,1.1,0.2,1.5,0.6c0.4,0.3,0.6,0.8,0.5,1.5c0,0.7-0.3,1.1-0.7,1.4c-0.4,0.3-1,0.4-1.5,0.4c-0.6,0-1.1-0.2-1.5-0.6
		C178.6,7.4,178.4,6.9,178.4,6.2z"/>
	<path class="st0" d="M204.1,34.1l2.1-12.3c0.3-1.5,0-2.8-0.7-3.7c-0.7-0.9-2.1-1.5-3.9-1.9c-2.5-0.4-4.4-0.2-5.7,0.7
		c-1.3,0.9-2.2,2.5-2.7,5l-1.7,10l-3.6-0.6l3.3-19l2.9,0.5l0.1,2.7l0.2,0c0.9-0.8,2.1-1.4,3.5-1.6c1.4-0.3,2.9-0.3,4.6,0
		c2.9,0.5,4.9,1.4,6.2,2.8c1.3,1.4,1.7,3.2,1.2,5.7l-2.1,12.4L204.1,34.1z"/>
	<path class="st0" d="M230.5,36.3c-0.5,1.7-1.8,2.8-3.7,3.2c-1.9,0.4-4.3,0.2-7.1-0.8c-3-1-5.3-2.1-6.7-3.4l0.8-2.6
		c1,0.8,2,1.5,3.2,2.2c1.2,0.7,2.4,1.2,3.5,1.6c1.8,0.6,3.3,0.8,4.4,0.6c1.1-0.1,1.8-0.7,2.1-1.6c0.2-0.7,0-1.4-0.6-2.2
		c-0.6-0.8-1.9-1.8-4-3.2c-1.9-1.3-3.3-2.4-4-3.1c-0.7-0.8-1.2-1.5-1.5-2.3c-0.2-0.7-0.2-1.5,0-2.4c0.5-1.5,1.6-2.4,3.4-2.8
		c1.8-0.4,4-0.1,6.7,0.7c2.5,0.8,4.8,2,6.9,3.5l-2,1.9c-2.1-1.5-4-2.5-5.9-3.1c-1.6-0.5-3-0.7-3.9-0.6c-1,0.1-1.6,0.6-1.8,1.3
		c-0.2,0.5-0.1,1,0.1,1.4c0.2,0.4,0.6,0.9,1.2,1.5c0.6,0.5,1.8,1.4,3.6,2.6c2.5,1.7,4,3,4.7,4.2C230.8,33.9,230.9,35.1,230.5,36.3z"
		/>
	<path class="st0" d="M237.2,44.9l-3.4-1.4l7.6-17.7l3.4,1.4L237.2,44.9z M243.2,20.8c0.3-0.6,0.6-1,1.1-1.1c0.5-0.1,1-0.1,1.6,0.2
		c0.5,0.2,0.9,0.6,1.2,1c0.3,0.5,0.3,1,0,1.6c-0.3,0.6-0.6,1-1.2,1.1c-0.5,0.1-1,0.1-1.6-0.2c-0.6-0.2-1-0.6-1.2-1
		S242.9,21.4,243.2,20.8z"/>
	<path class="st0" d="M270.3,40.4l-0.9,1.6l-4.1-1.8c0.2,0.6,0.2,1.2,0.2,1.9s-0.3,1.5-0.7,2.2c-0.9,1.7-2.3,2.6-4.3,2.8
		c-2,0.2-4.2-0.4-6.6-1.7c-0.6-0.3-1.2-0.7-1.7-1.1c-1.7-0.2-2.8,0.2-3.2,1c-0.3,0.5-0.2,0.9,0.1,1.4c0.4,0.5,1.1,1,2.3,1.7l3.7,2.1
		c2.3,1.3,3.8,2.6,4.6,4.1c0.8,1.4,0.8,2.9,0,4.4c-1,1.9-2.8,2.8-5.2,2.7c-2.4-0.1-5.4-1.1-9-3.1c-2.8-1.5-4.7-3.1-5.7-4.8
		c-1-1.6-1.1-3.2-0.3-4.7c0.6-1,1.5-1.7,2.7-2c1.2-0.3,2.7-0.2,4.3,0.4c-0.4-0.5-0.7-1-0.9-1.7c-0.1-0.6-0.1-1.2,0.2-1.7
		c0.3-0.6,0.8-1,1.5-1.3c0.7-0.2,1.6-0.3,2.7-0.3c-0.9-1-1.4-2.1-1.6-3.3c-0.2-1.2,0-2.4,0.6-3.5c1-1.8,2.5-2.9,4.4-3.1
		c1.9-0.2,4.2,0.4,6.7,1.8c1.1,0.6,2,1.3,2.8,2L270.3,40.4z M242.6,50.8c-0.5,0.9-0.4,1.9,0.3,2.9c0.7,1,1.9,2,3.7,3
		c2.7,1.5,4.8,2.3,6.5,2.3c1.6,0.1,2.8-0.4,3.4-1.5c0.5-0.9,0.5-1.7,0-2.5c-0.5-0.7-1.7-1.7-3.7-2.7l-3.8-2.1
		c-1.4-0.8-2.7-1.1-3.8-1C244,49.2,243.2,49.7,242.6,50.8z M252.2,37.4c-0.7,1.2-0.7,2.3-0.2,3.4s1.5,2,3,2.8c3.1,1.7,5.3,1.4,6.7-1
		c1.4-2.5,0.5-4.7-2.6-6.4c-1.5-0.8-2.8-1.1-4-0.9C253.9,35.4,252.9,36.2,252.2,37.4z"/>
	<path class="st0" d="M277.4,69.6l7.6-9.9c1-1.2,1.3-2.4,1.1-3.6c-0.2-1.2-1.1-2.3-2.6-3.5c-2-1.5-3.8-2.2-5.4-2.1
		c-1.6,0.2-3.2,1.2-4.7,3.2l-6.1,8l-2.9-2.2L281,37.9l2.9,2.2l-5.1,6.6c-0.6,0.8-1.2,1.4-1.7,1.9l0.2,0.1c1.1-0.3,2.4-0.2,3.8,0.1
		c1.4,0.4,2.7,1.1,4.1,2.1c2.3,1.8,3.7,3.6,4.2,5.4c0.5,1.8,0,3.6-1.5,5.6l-7.7,10L277.4,69.6z"/>
	<path class="st0" d="M292,80.6c0.5,0.5,0.9,0.9,1.4,1.2s0.9,0.6,1.2,0.8l-1.6,1.6c-0.4-0.2-0.9-0.5-1.5-1c-0.6-0.5-1.1-0.9-1.6-1.4
		c-3.3-3.3-3.6-6.3-0.8-9.1l8.1-8.1l-2.4-2.4l1-1l3.3,1.6l4-1.8l1.5,1.5l-3.1,3.2l5,4.9l-1.6,1.6l-5-4.9l-8,8
		c-0.8,0.8-1.2,1.7-1.2,2.6C290.7,78.8,291.2,79.7,292,80.6z"/>
</g>
</svg>
