<?xml version="1.0" encoding="utf-8"?>
<!-- Generator: Adobe Illustrator 18.0.0, SVG Export Plug-In . SVG Version: 6.00 Build 0)  -->
<!DOCTYPE svg PUBLIC "-//W3C//DTD SVG 1.1//EN" "http://www.w3.org/Graphics/SVG/1.1/DTD/svg11.dtd">
<svg version="1.1" id="target_blank" xmlns="http://www.w3.org/2000/svg" xmlns:xlink="http://www.w3.org/1999/xlink" x="0px"
	 y="0px" viewBox="0 0 595.3 841.9" enable-background="new 0 0 595.3 841.9" xml:space="preserve">
<g>
	<g>
		<g>
			<path fill="#CACACA" d="M478.8,487.3c-2.2,2.2-4.9,3.5-7.9,4.1c-7.9,1.4-15.2-4.1-16.6-11.9l-35.3-221l-221.2-34.2
				c-7.9-1.1-13.3-8.7-11.9-16.3c1.1-7.9,8.4-13.3,16.3-11.9l231.6,35.8c6.2,1.1,10.9,5.7,11.9,11.9l36.9,231.3
				C483.4,479.7,481.8,484.4,478.8,487.3L478.8,487.3z"/>
		</g>
		<g>
			<path fill="#CACACA" d="M441.6,256.1L190.2,508.5c-5.7,5.7-14.7,5.7-20.4,0c-5.7-5.7-5.7-14.7,0-20.4l251.4-252.5
				c5.7-5.7,14.7-5.7,20.4,0S447.3,250.6,441.6,256.1L441.6,256.1z"/>
		</g>
	</g>
</g>
</svg>
