<?xml version="1.0" encoding="UTF-8"?>
<svg width="19px" height="22px" viewBox="0 0 19 22" version="1.1" xmlns="http://www.w3.org/2000/svg" xmlns:xlink="http://www.w3.org/1999/xlink">
    <!-- Generator: Sketch 64 (93537) - https://sketch.com -->
    <title>reseau</title>
    <desc>Created with Sketch.</desc>
    <g id="Page-1" stroke="none" stroke-width="1" fill="none" fill-rule="evenodd">
        <g id="Artboard" transform="translate(-440.000000, -527.000000)" fill="#0A0A0A">
            <g id="reseau" transform="translate(440.000000, 527.000000)">
                <path d="M1.5,22 C0.6705,22 0,21.553 0,21 L0,11.958 C0,11.405 0.6705,10.958 1.5,10.958 C2.3295,10.958 3,11.405 3,11.958 L3,21 C3,21.553 2.3295,22 1.5,22" id="Fill-1"></path>
                <path d="M5.291,21.306459 L5.291,8.96697845 C5.291,8.58345031 5.9615,8.2734375 6.791,8.2734375 C7.6205,8.2734375 8.291,8.58345031 8.291,8.96697845 L8.291,21.306459 C8.291,21.6899872 7.6205,22 6.791,22" id="Fill-3"></path>
                <path d="M9.5821,21.2240397 L9.5821,4.15291341 C9.5821,3.72380737 10.2526,3.37695312 11.0821,3.37695312 C11.9116,3.37695312 12.5821,3.72380737 12.5821,4.15291341 L12.5821,21.2240397 C12.5821,21.6531458 11.9116,22 11.0821,22" id="Fill-5" fill-opacity="0.311789773"></path>
                <path d="M16.666,22 C15.8365,22 15.166,21.59025 15.166,21.0833333 L15.166,0.916666667 C15.166,0.40975 15.8365,0 16.666,0 C17.4955,0 18.166,0.40975 18.166,0.916666667 L18.166,21.0833333 C18.166,21.59025 17.4955,22 16.666,22" id="Fill-12" fill-opacity="0.311789773"></path>
            </g>
        </g>
    </g>
</svg>