<?xml version="1.0" encoding="UTF-8"?>
<svg width="24px" height="14px" viewBox="0 0 24 14" version="1.1" xmlns="http://www.w3.org/2000/svg" xmlns:xlink="http://www.w3.org/1999/xlink">
    <!-- Generator: Sketch 64 (93537) - https://sketch.com -->
    <title>batterie</title>
    <desc>Created with Sketch.</desc>
    <defs>
        <polygon id="path-1" points="0 -1.77635684e-15 23.498 -1.77635684e-15 23.498 13.668 0 13.668"></polygon>
    </defs>
    <g id="Page-1" stroke="none" stroke-width="1" fill="none" fill-rule="evenodd">
        <g id="Artboard" transform="translate(-566.000000, -364.000000)">
            <g id="batterie" transform="translate(566.000000, 364.000000)">
                <mask id="mask-2" fill="white">
                    <use xlink:href="#path-1"></use>
                </mask>
                <g id="Clip-2"></g>
                <path d="M2,11.668 L19.648,11.668 L19.648,2 L2,2 L2,11.668 Z M20.648,13.668 L1,13.668 C0.447,13.668 0,13.221 0,12.668 L0,1 C0,0.447 0.447,-1.77635684e-15 1,-1.77635684e-15 L20.648,-1.77635684e-15 C21.201,-1.77635684e-15 21.648,0.447 21.648,1 L21.648,12.668 C21.648,13.221 21.201,13.668 20.648,13.668 L20.648,13.668 Z" id="Fill-1" fill="#0A0A0A" mask="url(#mask-2)"></path>
                <path d="M22.4981,10.459 C21.9451,10.459 21.4981,10.012 21.4981,9.459 L21.4981,4.209 C21.4981,3.656 21.9451,3.209 22.4981,3.209 C23.0511,3.209 23.4981,3.656 23.4981,4.209 L23.4981,9.459 C23.4981,10.012 23.0511,10.459 22.4981,10.459" id="Fill-3" fill="#0A0A0A" mask="url(#mask-2)"></path>
                <path d="M4.8242,10.459 C4.2712,10.459 3.8242,10.012 3.8242,9.459 L3.8242,4.209 C3.8242,3.656 4.2712,3.209 4.8242,3.209 C5.3772,3.209 5.8242,3.656 5.8242,4.209 L5.8242,9.459 C5.8242,10.012 5.3772,10.459 4.8242,10.459" id="Fill-4" fill="#0A0A0A" mask="url(#mask-2)"></path>
                <path d="M8.8242,10.459 C8.2712,10.459 7.8242,10.012 7.8242,9.459 L7.8242,4.209 C7.8242,3.656 8.2712,3.209 8.8242,3.209 C9.3772,3.209 9.8242,3.656 9.8242,4.209 L9.8242,9.459 C9.8242,10.012 9.3772,10.459 8.8242,10.459" id="Fill-5" fill="#0A0A0A" mask="url(#mask-2)"></path>
                <path d="M12.8242,10.459 C12.2712,10.459 11.8242,10.012 11.8242,9.459 L11.8242,4.209 C11.8242,3.656 12.2712,3.209 12.8242,3.209 C13.3772,3.209 13.8242,3.656 13.8242,4.209 L13.8242,9.459 C13.8242,10.012 13.3772,10.459 12.8242,10.459" id="Fill-6" fill="#0A0A0A" mask="url(#mask-2)"></path>
            </g>
        </g>
    </g>
</svg>