<?xml version="1.0" encoding="UTF-8"?>
<svg width="25px" height="20px" viewBox="0 0 25 20" version="1.1" xmlns="http://www.w3.org/2000/svg" xmlns:xlink="http://www.w3.org/1999/xlink">
    <!-- Generator: Sketch 64 (93537) - https://sketch.com -->
    <title>wifi</title>
    <desc>Created with Sketch.</desc>
    <defs>
        <polygon id="path-1" points="0 0.575 24.8395 0.575 24.8395 7.2979 0 7.2979"></polygon>
    </defs>
    <g id="Page-1" stroke="none" stroke-width="1" fill="none" fill-rule="evenodd">
        <g id="Artboard" transform="translate(-371.000000, -251.000000)">
            <g id="wifi" transform="translate(371.000000, 250.000000)">
                <g id="Group-3" transform="translate(0.000000, 0.425000)">
                    <mask id="mask-2" fill="white">
                        <use xlink:href="#path-1"></use>
                    </mask>
                    <g id="Clip-2"></g>
                    <path d="M0.293,7.0049 C-0.098,6.6139 -0.098,5.9819 0.293,5.5909 C6.979,-1.0971 17.859,-1.0971 24.547,5.5889 C24.937,5.9799 24.937,6.6119 24.547,7.0029 C24.156,7.3939 23.523,7.3939 23.133,7.0029 C17.225,1.0969 7.611,1.0979 1.707,7.0049 C1.512,7.1999 1.256,7.2979 1,7.2979 C0.744,7.2979 0.488,7.1999 0.293,7.0049 Z" id="Fill-1" fill="#0A0A0A" mask="url(#mask-2)"></path>
                </g>
                <path d="M4.3535,11.0783 C4.0975,11.0783 3.8415,10.9803 3.6465,10.7853 C3.2555,10.3943 3.2555,9.7623 3.6465,9.3713 C5.9885,7.0273 9.1055,5.7363 12.4175,5.7353 L12.4215,5.7353 C15.7345,5.7353 18.8495,7.0253 21.1915,9.3683 C21.5825,9.7593 21.5825,10.3913 21.1915,10.7823 C20.8005,11.1733 20.1675,11.1733 19.7775,10.7823 C17.8125,8.8173 15.2015,7.7353 12.4215,7.7353 L12.4195,7.7353 C9.6385,7.7363 7.0255,8.8193 5.0605,10.7853 C4.8655,10.9803 4.6095,11.0783 4.3535,11.0783" id="Fill-4" fill="#0A0A0A"></path>
                <path d="M7.8867,14.6115 C7.6307,14.6115 7.3747,14.5135 7.1797,14.3185 C6.7887,13.9275 6.7887,13.2955 7.1797,12.9045 C10.0707,10.0155 14.7697,10.0155 17.6577,12.9025 C18.0487,13.2935 18.0487,13.9255 17.6577,14.3165 C17.2677,14.7075 16.6347,14.7075 16.2437,14.3165 C14.1347,12.2085 10.7027,12.2105 8.5937,14.3185 C8.3987,14.5135 8.1427,14.6115 7.8867,14.6115" id="Fill-6" fill="#0A0A0A"></path>
                <path d="M12.42,15.7736 C11.824,15.7736 11.229,16.0006 10.775,16.4536 C9.867,17.3626 9.867,18.8366 10.775,19.7436 C11.231,20.1976 11.824,20.4246 12.42,20.4246 C13.016,20.4246 13.609,20.1976 14.065,19.7436 C14.973,18.8366 14.973,17.3606 14.065,16.4536 C13.609,16.0006 13.016,15.7736 12.42,15.7736" id="Fill-8" fill="#0A0A0A"></path>
            </g>
        </g>
    </g>
</svg>