<?xml version="1.0" encoding="utf-8"?>
<!-- Generator: Adobe Illustrator 22.0.0, SVG Export Plug-In . SVG Version: 6.00 Build 0)  -->
<svg version="1.1" id="Layer_1" xmlns="http://www.w3.org/2000/svg" xmlns:xlink="http://www.w3.org/1999/xlink" x="0px" y="0px"
	 viewBox="0 0 171.1 260" style="enable-background:new 0 0 171.1 260;" xml:space="preserve">
<style type="text/css">
	.st0{fill:#3B3435;}
	.st1{opacity:0.3;}
	.st2{fill:none;}
	.st3{fill:#939393;}
	.st4{fill:#6C6C6C;}
	.st5{fill:#868686;}
	.st6{fill:#060606;}
	.st7{opacity:0.3;fill:#060606;}
</style>
<rect y="-2.8" class="st0" width="171" height="263.6"/>
<g class="st1">
	<path class="st2" d="M171,46.5c-0.7,0-1.4,0-2.1,0c0.7-0.1,1.4-0.2,2.1-0.3V2H0v260h171V46.5z M39.7,197.9
		c-0.4,1.6-0.1,3.6-2.6,3.8c0.1,2.7,1.7,4.7,3.3,6.7c-14.1,2.9-3-7.6-5.7-10.8c-4.8-4.1-4.1-9.2-3.3-15c7,1.3,8.7,8.6,14.2,10.8
		C44.5,195.9,42.7,197.6,39.7,197.9z"/>
	<path class="st3" d="M31.5,182.6c-0.8,5.8-1.6,10.9,3.3,15c0.7,0,1.3,0,2,0c0,0,0,0,0,0c0,0,0,0,0,0c1.2-1.7,2.1-1.1,3,0.3
		c2.9-0.3,4.7-2,6-4.5C40.2,191.2,38.5,183.9,31.5,182.6z"/>
	<path class="st4" d="M171,46.5v-0.3c-0.7,0.1-1.4,0.2-2.1,0.3C169.6,46.5,170.3,46.5,171,46.5z"/>
	<path class="st5" d="M36.7,197.6C36.7,197.6,36.7,197.6,36.7,197.6c-0.7,0-1.3,0-2,0c2.7,3.2-8.4,13.7,5.7,10.8
		c-1.6-2-3.2-4-3.3-6.7C37,200.3,36.9,199,36.7,197.6z"/>
	<path class="st6" d="M36.7,197.6C36.7,197.6,36.7,197.6,36.7,197.6c0.1,1.4,0.3,2.7,0.4,4.1c2.5-0.2,2.2-2.3,2.6-3.8
		C38.9,196.5,37.9,195.9,36.7,197.6z"/>
</g>
<g>
	<path class="st7" d="M120.6,66.6c-1.9,0.8-3.8,1.7-5.2,3.6c7.5-3,14.9-6,22.4-9c-0.2-0.4-0.5-0.9-0.7-1.3
		C131.7,62.2,126.1,64.4,120.6,66.6z"/>
	<path class="st7" d="M140.1,56.4c24.4-7.1,49.3-11.2,74.3-3.8c0.9-0.3,1.9-0.5,2.8-0.8c-0.4-0.7-0.6-1.5-0.7-2.5
		c-26.7-9.7-53.3-5.5-79.4,2.1c-31.4,9.2-78,55.7-78,55.7c9.7-8.3,20.1-14.8,31.1-20.1C105.6,74.4,124.7,60.9,140.1,56.4z
		 M117.6,61.6c5.5-2.2,11-4.4,16.5-6.6c0.2,0.4,0.5,0.9,0.7,1.3c-7.5,3-14.9,6-22.4,9C113.9,63.3,115.7,62.4,117.6,61.6z"/>
</g>
</svg>
