<svg id="Layer_1" data-name="Layer 1" xmlns="http://www.w3.org/2000/svg" viewBox="0 0 171.1 260"><defs><style>.cls-1{fill:#3b3435;}.cls-2{opacity:0.2;}.cls-3{fill:none;}</style></defs><title>topleftblockillustr</title><rect class="cls-1" y="1" width="171" height="259.8"/><g class="cls-2"><path class="cls-3" d="M124.7,199.3c-2.1,6.2,0,8.2,6.2,6.2C133,199.3,130.9,197.2,124.7,199.3Z"/><path class="cls-3" d="M112.3,205.4c2.1-6.2,0-8.2-6.2-6.2C104.1,205.4,106.1,207.5,112.3,205.4Z"/><path class="cls-3" d="M115.4,205.4c-2.1,6.2,0,8.2,6.2,6.2C123.7,205.4,121.6,203.4,115.4,205.4Z"/><path class="cls-3" d="M127.8,165.3l-6.2,6.2h9.3C133,165.3,131.9,163.2,127.8,165.3Z"/><path class="cls-3" d="M127.8,183.8l-9.3-6.2v6.2Q124.65,193.1,127.8,183.8Z"/><polygon class="cls-3" points="118.5 190 112.3 196.2 121.6 199.3 118.5 190"/><path class="cls-3" d="M78.3,254.9c-2.1,6.2,0,8.2,6.2,6.2C86.5,254.9,84.5,252.8,78.3,254.9Z"/><polygon class="cls-3" points="81.4 248.7 90.7 251.8 87.6 242.5 81.4 248.7"/><polygon class="cls-3" points="106.1 211.6 99.9 217.8 109.2 217.8 106.1 211.6"/><path class="cls-3" d="M118.5,224l-9.3-6.2V224Q115.35,233.15,118.5,224Z"/><path class="cls-3" d="M127.8,233.2c2.1-6.2-1-8.2-9.3-6.2v6.2Q124.65,242.5,127.8,233.2Z"/><path class="cls-3" d="M164.9,177.6c-1.8,5.3.3,7.6,6.1,6.8v-7.5A21,21,0,0,0,164.9,177.6Z"/><path class="cls-3" d="M164.9,233.2c-1.8,5.3.3,7.6,6.1,6.8v-7.5A21,21,0,0,0,164.9,233.2Z"/><path class="cls-3" d="M171,261.8v-7.6a14.06,14.06,0,0,0-3,.7Q165.6,262.25,171,261.8Z"/><polygon class="cls-3" points="161.8 211.6 171 214.7 171 214.3 168 205.4 161.8 211.6"/><path class="cls-3" d="M164.9,220.9v9.3l6.1-3v-6.3C169.9,219.9,167.9,219.9,164.9,220.9Z"/><path class="cls-3" d="M115.4,257.9c2.1-6.2,1-8.2-3.1-6.2l-6.2,6.2a13.9,13.9,0,0,0,3.7,4.1H113C114,261.3,114.7,260,115.4,257.9Z"/><path class="cls-3" d="M134,159.1c2.1-6.2,0-8.2-6.2-6.2C125.7,159.1,127.8,161.2,134,159.1Z"/><polygon class="cls-3" points="87.6 257.9 87.6 262 93.9 262 96.8 261 87.6 257.9"/><polygon class="cls-3" points="90.7 233.2 90.7 239.4 99.9 239.4 90.7 233.2"/><path class="cls-3" d="M127.8,186.9c-2.1,6.2,0,8.2,6.2,6.2C136,186.9,134,184.8,127.8,186.9Z"/><path class="cls-3" d="M127.8,47.9v6.2h9.3C139.1,45.8,136,43.8,127.8,47.9Z"/><path class="cls-3" d="M168,199.3c2.1-8.2,0-11.3-6.2-9.3C159.8,198.2,161.8,201.3,168,199.3Z"/><polygon class="cls-3" points="164.9 159.1 164.9 152.9 161.8 159.1 164.9 159.1"/><path class="cls-3" d="M143.3,211.6c-2.1,6.2,0,8.2,6.2,6.2C151.5,211.6,149.5,209.5,143.3,211.6Z"/><path class="cls-3" d="M152.6,254.9c-2.1,6.2,1,8.2,9.3,6.2C163.9,254.9,160.8,252.8,152.6,254.9Z"/><polygon class="cls-3" points="155.6 248.7 164.9 248.7 155.6 242.5 155.6 248.7"/><path class="cls-3" d="M158.7,174.5H168c2.1-6.2,1-8.2-3.1-6.2Z"/><path class="cls-3" d="M168,134.4l-6.2-3.1C161.8,139.5,163.9,140.6,168,134.4Z"/><path class="cls-3" d="M72.1,251.8h6.2V239.4h6.2c-3.1-7.6-1.5-10.7,4.6-9.3l6.2-3.1,6.2,3.1q9.3-4.65,0-9.3l-6.2,3.1-3.1-6.2c4.7,1.6,6.3.1,4.6-4.6L93.7,210c8.7-4.5,11.2-9.2,7.7-13.9,4.7,1.6,6.3.1,4.6-4.6l-1.5-4.6,6.2,3.1,4.6-9.3c-7.8,3.1-10.9,1.5-9.3-4.6,2.7-5.6,5.3-6.1,7.7-1.5,4.7,1.6,6.3.1,4.6-4.6l-3.1-7.7c6.2,2.7,8.3.1,6.2-7.7l-3.1-7.7c5.6,2.3,7.6.7,6.2-4.6l-1.5-4.6c4.7,1.6,6.3.1,4.6-4.6l-4.6-7.7c5.4,1.4,6.9-.6,4.6-6.2l-6.2-1.5,6.2-1.5-6.2-10.8,3.1-7.7c-5.6,2.3-7.6.7-6.2-4.6l1.5-4.6c-4.5,1.6-6.1.1-4.6-4.6V77.7l-3.1-6.2,3.1-6.2V59.1l-3.1-6.2V46.7l3.1-12.4-3.1-6.2,6.2-3.1,3.1,6.2-1.5,4.6c4.7,1.6,6.3.1,4.6-4.6l1.5-4.6c-5.4,1.4-6.9-.6-4.6-6.2l13.9,9.3,3.1-12.4,10.8,4.6-9.3,1.5,1.5,18.5,4.6-1.5c-2.1,7.8,0,10.4,6.2,7.7L151,32.4l-7.7,3.1,1.5-9.3,10.8,3.1,1.5,15.4c4.9-2.6,7-8,6.4-16.2l-.2-2.4a19.42,19.42,0,0,1,.2,2.4l1.3,13.1a39.15,39.15,0,0,0,6.1.9V2H0V262H69.8Z"/><polygon class="cls-3" points="164.9 66.4 168 66.4 164.9 63.3 164.9 66.4"/><path class="cls-3" d="M168,103.5l-3.1-6.2C160.8,103.5,161.8,105.6,168,103.5Z"/><path class="cls-3" d="M158.7,69.5c-2.1,6.2,0,8.2,6.2,6.2C167,69.5,164.9,67.5,158.7,69.5Z"/><path class="cls-3" d="M121.6,251.8c-2.1,8.2,0,11.3,6.2,9.3C129.9,252.8,127.8,249.7,121.6,251.8Z"/><path class="cls-3" d="M121.6,214.7c-2.1,6.2,0,8.2,6.2,6.2C129.9,214.7,127.8,212.6,121.6,214.7Z"/><path class="cls-3" d="M103,242.5l-6.2,6.2c-2.1,4.1,0,5.1,6.2,3.1S109.2,246.6,103,242.5Z"/><path class="cls-3" d="M130.9,248.7c-2.1,6.2,0,8.2,6.2,6.2C139.1,248.7,137.1,246.6,130.9,248.7Z"/><path class="cls-3" d="M118.5,239.4l-6.2,6.2,9.3,3.1C123.7,240.4,122.6,237.4,118.5,239.4Z"/><path class="cls-3" d="M112.3,230.1l-6.2,6.2c-2.1,4.1,0,5.1,6.2,3.1Z"/><path class="cls-3" d="M143.3,239.4v6.2l6.2,3.1C151.5,240.4,149.5,237.4,143.3,239.4Z"/><path class="cls-3" d="M143.3,224c-2.1,8.2,0,11.3,6.2,9.3C151.5,225,149.5,221.9,143.3,224Z"/><path class="cls-3" d="M143.3,251.8c-2.1,8.2,0,11.3,6.2,9.3C151.5,252.8,149.5,249.7,143.3,251.8Z"/><polygon class="cls-3" points="130.9 214.7 140.2 211.6 130.9 208.5 130.9 214.7"/><path class="cls-3" d="M130.9,220.9c-2.1,8.2,0,11.3,6.2,9.3C139.1,221.9,137.1,218.8,130.9,220.9Z"/><path class="cls-3" d="M130.9,236.3c-2.1,6.2,0,8.2,6.2,6.2C139.1,236.3,137.1,234.3,130.9,236.3Z"/><polygon class="cls-3" points="146.4 146.7 140.2 152.9 149.5 156 146.4 146.7"/><path class="cls-3" d="M143.3,168.4c2.1-6.2,0-8.2-6.2-6.2C135,168.4,137.1,170.4,143.3,168.4Z"/><polygon class="cls-3" points="130.9 140.6 130.9 146.7 137.1 143.7 130.9 140.6"/><path class="cls-3" d="M146.4,202.3l-9.3-6.2,6.2,9.3C147.4,207.5,148.4,206.5,146.4,202.3Z"/><path class="cls-3" d="M137.1,171.5v9.3Q146.4,177.65,137.1,171.5Z"/><path class="cls-3" d="M137.1,134.4c2.1-6.2,0-8.2-6.2-6.2C128.8,134.4,130.9,136.4,137.1,134.4Z"/><path class="cls-3" d="M146.4,190c2.1-6.2,0-8.2-6.2-6.2C138.1,190,140.2,192,146.4,190Z"/><path class="cls-3" d="M143.3,88c2.1-6.2,0-8.2-6.2-6.2C135,88,137.1,90.1,143.3,88Z"/><polygon class="cls-3" points="146.4 78.8 140.2 72.6 143.3 78.8 146.4 78.8"/><polygon class="cls-3" points="130.9 88 134 88 130.9 85 130.9 88"/><path class="cls-3" d="M140.2,109.7c2.1-6.2,0-8.2-6.2-6.2C131.9,109.7,134,111.7,140.2,109.7Z"/><path class="cls-3" d="M137.1,122c2.1-6.2,0-8.2-6.2-6.2C128.8,122,130.9,124.1,137.1,122Z"/><polygon class="cls-3" points="152.6 159.1 152.6 165.3 158.7 162.2 152.6 159.1"/><polygon class="cls-3" points="140.2 69.5 146.4 66.4 140.2 63.3 140.2 69.5"/><path class="cls-3" d="M155.6,174.5l-6.2-3.1C149.5,179.7,151.5,180.7,155.6,174.5Z"/><polygon class="cls-3" points="143.3 44.8 140.2 51 143.3 51 143.3 44.8"/><polygon class="cls-3" points="130.9 29.4 130.9 32.4 134 32.4 130.9 29.4"/><polygon class="cls-3" points="140.2 60.2 140.2 54.1 137.1 60.2 140.2 60.2"/><polygon class="cls-3" points="146.4 54.1 146.4 57.2 149.5 57.2 146.4 54.1"/><path class="cls-3" d="M158.7,177.6v9.3Q168,183.75,158.7,177.6Z"/><path class="cls-3" d="M152.6,118.9c-2.1,6.2,0,8.2,6.2,6.2C160.8,118.9,158.7,116.9,152.6,118.9Z"/><path class="cls-3" d="M155.6,196.2c2.1-6.2,0-8.2-6.2-6.2C147.4,196.2,149.5,198.2,155.6,196.2Z"/><path class="cls-3" d="M137.1,91.1v9.3l6.2-3.1C145.3,91.1,143.3,89.1,137.1,91.1Z"/><path class="cls-3" d="M152.6,143.7c-2.1,6.2,0,8.2,6.2,6.2C160.8,143.7,158.7,141.6,152.6,143.7Z"/><path class="cls-3" d="M134,81.9c2.1-6.2,1-8.2-3.1-6.2Z"/><path class="cls-3" d="M121.6,78.8l3.1,6.2C126.8,78.8,125.7,76.7,121.6,78.8Z"/><polygon class="cls-3" points="152.6 72.6 152.6 75.7 155.6 75.7 152.6 72.6"/><polygon class="cls-3" points="168 57.2 171 57.2 171 57 168 54.1 168 57.2"/><path class="cls-3" d="M143.3,112.8c-2.1,6.2,0,8.2,6.2,6.2C151.5,112.8,149.5,110.7,143.3,112.8Z"/><polygon class="cls-3" points="164.9 51 155.6 47.9 158.7 54.1 164.9 51"/><polygon class="cls-3" points="171 51 171 45 168 51 171 51"/><path class="cls-3" d="M171,149.9v-.4l-3-8.9Q158.85,152.9,171,149.9Z"/><path class="cls-3" d="M171,136.5v-4.8C170.4,133.8,170.3,135.5,171,136.5Z"/><path class="cls-3" d="M164.9,118.9c-2.1,6.1,0,8.2,6.1,6.2v-6.3C169.9,117.9,167.9,117.9,164.9,118.9Z"/><polygon class="cls-3" points="171 112.8 171 109.8 168 112.8 171 112.8"/><path class="cls-3" d="M164.9,88c-2.1,6.1,0,8.2,6.1,6.2V88C169.9,87,167.9,87.1,164.9,88Z"/><path class="cls-3" d="M121.6,60.2l3.1,6.2C126.8,60.2,125.7,58.2,121.6,60.2Z"/><path class="cls-3" d="M140.2,140.6q6.15,9.3,9.3,0l-9.3-6.2Z"/><polygon class="cls-3" points="140.2 128.2 146.4 128.2 146.4 122 140.2 128.2"/><path class="cls-3" d="M171,165.7v-6.5l-3,3A19,19,0,0,0,171,165.7Z"/><polygon class="cls-3" points="134 66.4 130.9 72.6 134 72.6 134 66.4"/><path class="cls-3" d="M155.6,103.5l-6.2-3.1C149.5,108.6,151.5,109.7,155.6,103.5Z"/><path class="cls-3" d="M155.6,137.5c2.1-6.2,0-8.2-6.2-6.2C147.4,137.5,149.5,139.5,155.6,137.5Z"/><path class="cls-3" d="M155.6,199.3l-6.2,6.2c-2.1,4.1,1,5.1,9.3,3.1C160.8,200.3,159.8,197.2,155.6,199.3Z"/><path class="cls-3" d="M161.8,220.9l-9.3-6.2v6.2Q158.8,230.2,161.8,220.9Z"/><polygon class="cls-3" points="158.7 239.4 158.7 230.1 152.6 236.3 158.7 239.4"/><path class="cls-3" d="M158.7,109.7l3.1,6.2C163.9,109.7,162.9,107.6,158.7,109.7Z"/><path class="cls-3" d="M158.7,94.2c2.1-6.2,0-8.2-6.2-6.2C150.5,94.2,152.6,96.3,158.7,94.2Z"/><path d="M163.6,28.6c.6,8.1-1.5,13.5-6.4,16.2l-1.5-15.4-10.8-3.1-1.5,9.3,7.7-3.1,1.5,15.4c-6.2,2.7-8.3.1-6.2-7.7l-4.6,1.5-1.5-18.5,9.3-1.5-11-4.7-3.1,12.4-13.9-9.3c-2.3,5.6-.7,7.6,4.6,6.2l-1.5,4.6c1.6,4.7.1,6.3-4.6,4.6l1.5-4.6-3.1-6.2-6.2,3.1,3.1,6.2-3.1,12.4v6.2l3.1,6.2V65l-3.1,6.2,3.1,6.2v6.2c-1.4,4.7.1,6.3,4.6,4.6l-1.5,4.6c-1.4,5.4.6,6.9,6.2,4.6l-3.1,7.7,6.2,10.8-6.2,1.5,6.2,1.5c2.3,5.6.7,7.6-4.6,6.2l4.6,7.7c1.6,4.7.1,6.3-4.6,4.6l1.5,4.6c1.4,5.4-.6,6.9-6.2,4.6l3.1,7.7c2.1,7.8,0,10.4-6.2,7.7l3.1,7.7c1.6,4.7.1,6.3-4.6,4.6-2.5-4.5-5.1-4-7.7,1.5-1.6,6.2,1.4,7.7,9.3,4.6l-4.6,9.3-6.2-3.1,1.5,4.6c1.6,4.7.1,6.3-4.6,4.6,3.5,4.7.9,9.4-7.7,13.9l3.1,3.1c1.6,4.7.1,6.3-4.6,4.6l3.1,6.2,6.2-3.1q9.3,4.65,0,9.3l-6.2-3.1-6.2,3.1c-6.2-1.4-7.7,1.6-4.6,9.3H78.5v12.4H72.3L69.8,262H87.6v-4.1l9.3,3.1L94,262h8.4c.2-.3.4-.6.7-1l.3,1h6.5a12.71,12.71,0,0,1-3.7-4.1l6.2-6.2c4.1-2.1,5.2,0,3.1,6.2a10,10,0,0,1-2.3,4.1h4.5l1-1v1H134v-1l1.9,1H171v-.2q-5.4.45-3-6.9a12.82,12.82,0,0,1,3-.7V240c-5.8.8-7.8-1.5-6.1-6.8a18,18,0,0,1,6.1-.7v-5.4l-6.1,3v-9.3c3-1,5-1,6.1-.1v-6.1l-9.2-3,6.2-6.2,3,8.9V184.4c-5.8.8-7.8-1.5-6.1-6.8a18,18,0,0,1,6.1-.7V165.7a19,19,0,0,1-3-3.5l3-3v-9.4q-12.15,3-3-9.3l3,8.9V136.5c-.7-1.1-.6-2.7,0-4.8v-6.6c-6.1,2-8.1-.1-6.1-6.2,3-1,5-1,6.1-.1v-6.1h-3l3-3V94.3c-6.1,2-8.1-.1-6.1-6.2,3-1,5-1,6.1-.1V57.2h-3V54.1l3,3V51h-3l3-5.9V42.7a40.93,40.93,0,0,1-6.1-.9ZM124.7,85l-3.1-6.2C125.7,76.7,126.8,78.8,124.7,85Zm0-18.6-3.1-6.2C125.7,58.2,126.8,60.2,124.7,66.4ZM164.9,51l-6.2,3.1-3.1-6.2ZM152.6,72.6l3.1,3.1h-3.1Zm0,15.4c6.2-2.1,8.3,0,6.2,6.2C152.6,96.3,150.5,94.2,152.6,88Zm9.2,27.8-3.1-6.2C162.9,107.6,163.9,109.7,161.8,115.8Zm-9.2,105.1v-6.2l9.3,6.2Q158.75,230.2,152.6,220.9Zm6.1,9.2v9.3l-6.2-3.1Zm0-21.6c-8.3,2.1-11.3,1-9.3-3.1l6.2-6.2C159.8,197.2,160.8,200.3,158.7,208.5ZM134,81.9l-3.1-6.2C135,73.6,136,75.7,134,81.9Zm-3.1-9.3,3.1-6.2v6.2Zm18.6,68q-3.15,9.3-9.3,0v-6.2Zm-9.3-12.4,6.2-6.2v6.2Zm9.3,3.1c6.2-2.1,8.3,0,6.2,6.2C149.5,139.5,147.4,137.5,149.5,131.3Zm0-30.9,6.2,3.1C151.5,109.7,149.5,108.6,149.5,100.4Zm0,18.5c-6.2,2.1-8.3,0-6.2-6.2C149.5,110.7,151.5,112.8,149.5,118.9Zm-12.4-18.5V91.1c6.2-2.1,8.3,0,6.2,6.2ZM143.3,88c-6.2,2.1-8.3,0-6.2-6.2C143.3,79.8,145.3,81.9,143.3,88Zm-3.1-15.4,6.2,6.2h-3.1Zm0,37.1c-6.2,2.1-8.3,0-6.2-6.2C140.2,101.4,142.2,103.5,140.2,109.7ZM134,88h-3.1V85Zm3.1,34c-6.2,2.1-8.3,0-6.2-6.2C137.1,113.8,139.1,115.8,137.1,122Zm-6.2,6.2c6.2-2.1,8.3,0,6.2,6.2C130.9,136.4,128.8,134.4,130.9,128.2Zm0,12.4,6.2,3.1-6.2,3.1Zm6.2,21.6c6.2-2.1,8.3,0,6.2,6.2C137.1,170.4,135,168.4,137.1,162.2Zm3.1,21.6c6.2-2.1,8.3,0,6.2,6.2C140.2,192,138.1,190,140.2,183.8Zm-3.1-3.1v-9.3Q146.4,177.7,137.1,180.7Zm9.3,21.6c2.1,4.1,1,5.1-3.1,3.1l-6.2-9.3Zm-6.2-49.4,6.2-6.2,3.1,9.3Zm15.4,21.6c-4.1,6.2-6.2,5.1-6.2-3.1ZM149.5,190c6.2-2.1,8.3,0,6.2,6.2C149.5,198.2,147.4,196.2,149.5,190Zm9.2-3.1v-9.3Q168,183.75,158.7,186.9Zm-6.1-21.6v-6.2l6.2,3.1Zm0-21.6c6.2-2.1,8.3,0,6.2,6.2C152.6,151.9,150.5,149.8,152.6,143.7Zm6.1-18.6c-6.2,2.1-8.3,0-6.2-6.2C158.7,116.9,160.8,118.9,158.7,125.1Zm-12.3-71,3.1,3.1h-3.1Zm0,12.3-6.2,3.1V63.3Zm-3.1-21.6V51h-3.1Zm-3.1,9.3v6.2h-3.1Zm-9.3-24.7,3.1,3.1h-3.1Zm-3.1,24.7V47.9c8.3-4.1,11.3-2.1,9.3,6.2Zm0,98.8c6.2-2.1,8.3,0,6.2,6.2C127.8,161.2,125.7,159.1,127.8,152.9Zm0,34c6.2-2.1,8.3,0,6.2,6.2C127.8,195.1,125.7,193.1,127.8,186.9Zm3.1,18.5c-6.2,2.1-8.3,0-6.2-6.2C130.9,197.2,133,199.3,130.9,205.4Zm-3.1-40.1c4.1-2.1,5.2,0,3.1,6.2h-9.3Zm-9.3,12.3,9.3,6.2q-3.15,9.3-9.3,0Zm3.1,34c-6.2,2.1-8.3,0-6.2-6.2C121.6,203.4,123.7,205.4,121.6,211.6ZM118.5,190l3.1,9.3-9.3-3.1Zm-12.4,9.3c6.2-2.1,8.3,0,6.2,6.2C106.1,207.5,104.1,205.4,106.1,199.3Zm-6.2,18.5,6.2-6.2,3.1,6.2,9.3,6.2q-3.15,9.3-9.3,0v-6.2Zm27.9,15.4q-3.15,9.3-9.3,0V227C126.8,225,129.9,227.1,127.8,233.2ZM84.5,261c-6.2,2.1-8.3,0-6.2-6.2C84.5,252.8,86.5,254.9,84.5,261Zm-3.1-12.3,6.2-6.2,3.1,9.3Zm9.3-15.5,9.3,6.2H90.7ZM103,251.8c-6.2,2.1-8.3,1-6.2-3.1l6.2-6.2Q112.3,248.65,103,251.8Zm3.1-15.5,6.2-6.2v9.3C106.1,241.5,104.1,240.4,106.1,236.3Zm6.2,9.3,6.2-6.2c4.1-2.1,5.2,1,3.1,9.3ZM127.8,261c-6.2,2.1-8.3-1-6.2-9.3C127.8,249.7,129.9,252.8,127.8,261Zm0-40.1c-6.2,2.1-8.3,0-6.2-6.2C127.8,212.6,129.9,214.7,127.8,220.9Zm9.3,34c-6.2,2.1-8.3,0-6.2-6.2C137.1,246.6,139.1,248.7,137.1,254.9Zm0-12.4c-6.2,2.1-8.3,0-6.2-6.2C137.1,234.3,139.1,236.3,137.1,242.5Zm0-12.4c-6.2,2.1-8.3-1-6.2-9.3C137.1,218.8,139.1,221.9,137.1,230.1Zm-6.2-15.4v-6.2l9.3,3.1ZM149.5,261c-6.2,2.1-8.3-1-6.2-9.3C149.5,249.7,151.5,252.8,149.5,261Zm0-12.3-6.2-3.1v-6.2C149.5,237.4,151.5,240.4,149.5,248.7Zm0-15.5c-6.2,2.1-8.3-1-6.2-9.3C149.5,221.9,151.5,225,149.5,233.2Zm0-15.4c-6.2,2.1-8.3,0-6.2-6.2C149.5,209.5,151.5,211.6,149.5,217.8ZM161.8,261c-8.3,2.1-11.3,0-9.3-6.2C160.8,252.8,163.9,254.9,161.8,261Zm3.1-12.3h-9.3v-6.2Zm3.1-49.4c-6.2,2.1-8.3-1-6.2-9.3C168,187.9,170.1,191,168,199.3Zm0-24.8h-9.3l6.2-6.2C169.1,166.3,170.1,168.4,168,174.5Zm-3.1-21.6v6.2h-3.1Zm3.1-18.5c-4.1,6.2-6.2,5.1-6.2-3.1Zm-3.1-37.1,3.1,6.2C161.8,105.6,160.8,103.5,164.9,97.3Zm0-21.6c-6.2,2.1-8.3,0-6.2-6.2C164.9,67.5,167,69.5,164.9,75.7Zm0-9.3V63.3l3.1,3.1Z"/><path d="M163.6,28.6c-.1-.8-.1-1.6-.2-2.4Z"/></g></svg>