<svg id="Layer_1" data-name="Layer 1" xmlns="http://www.w3.org/2000/svg" viewBox="0 0 171.1 260"><defs><style>.cls-1{fill:#d3f3ff;}.cls-2{opacity:0.2;}.cls-3{fill:none;}</style></defs><title>toprightblockillustr</title><rect class="cls-1" y="2" width="170.6" height="259.9"/><g class="cls-2"><polygon class="cls-3" points="43.5 86 40.9 91.1 43.5 91.1 43.5 86"/><polygon class="cls-3" points="3.2 107.6 0 110.8 0 112.8 3.2 112.8 3.2 107.6"/><polygon class="cls-3" points="43.5 118.9 43.5 113.8 40.9 118.9 43.5 118.9"/><path class="cls-3" d="M31.1,181.7l-6.2,6.2a6.86,6.86,0,0,0-.7,2c.4,1.5,2.7,1.5,6.9.1,2.8-.9,4.3-2,4.6-3.4C35.4,185.2,33.8,183.6,31.1,181.7Z"/><path class="cls-3" d="M39.9,106.7l-2.7-5.3a14.2,14.2,0,0,0-2.4,4.9C35.2,107.5,36.9,107.7,39.9,106.7Z"/><path class="cls-3" d="M71.3,146.7a12.23,12.23,0,0,0,.7-3.3q-.3-4.05-6.9-1.8a12.23,12.23,0,0,0-.7,3.3Q64.7,149,71.3,146.7Z"/><polygon class="cls-3" points="15.6 72.6 17.7 72.6 15.6 70.5 15.6 72.6"/><polygon class="cls-3" points="40.4 128.2 42.5 128.2 40.4 126.1 40.4 128.2"/><polygon class="cls-3" points="12.5 81.9 14.6 81.9 12.5 79.8 12.5 81.9"/><path class="cls-3" d="M24.4,138.2l-5.7-2.8C18.9,142.4,20.8,143.3,24.4,138.2Z"/><polygon class="cls-3" points="12.5 194.1 12.5 199.3 20.3 196.7 12.5 194.1"/><path class="cls-3" d="M.9,90.9A2.64,2.64,0,0,0,0,89v5.3H.1A14.62,14.62,0,0,0,.9,90.9Z"/><polygon class="cls-3" points="66.1 156 71.3 156 71.3 150.8 66.1 156"/><polygon class="cls-3" points="62.8 168.6 70.9 171.3 68.2 163.2 62.8 168.6"/><path class="cls-3" d="M21.8,211.6a12.23,12.23,0,0,0,.7-3.3q-.3-4.05-6.9-1.8a12.23,12.23,0,0,0-.7,3.3C15.1,212.4,17.4,213.1,21.8,211.6Z"/><path class="cls-3" d="M25.9,170.3c-.2-1.9-1.6-2.2-4.1-.9l-5.2,5.2h8.3A20.82,20.82,0,0,0,25.9,170.3Z"/><polygon class="cls-3" points="68.2 115.8 70.3 115.8 68.2 113.8 68.2 115.8"/><polygon class="cls-3" points="9.4 91.1 11.5 91.1 9.4 89 9.4 91.1"/><polygon class="cls-3" points="0.1 45.8 0 46 0 51 0.1 51 0.1 45.8"/><polygon class="cls-3" points="15.6 63.3 17.7 63.3 15.6 61.2 15.6 63.3"/><polygon class="cls-3" points="136.8 236.3 139.4 236.3 139.4 231.1 136.8 236.3"/><polygon class="cls-3" points="31.1 199.3 33.2 199.3 31.1 197.2 31.1 199.3"/><polygon class="cls-3" points="71.3 128.2 73.4 128.2 71.3 126.1 71.3 128.2"/><path class="cls-3" d="M99.2,91.1c.1.3.2.5.3.8l.6-.4Z"/><path class="cls-3" d="M21.8,104.5a12.23,12.23,0,0,0-.7,3.3q.3,4,6.9,1.8a12.23,12.23,0,0,0,.7-3.3C28.5,103.7,26.2,103,21.8,104.5Z"/><path class="cls-3" d="M40.4,175.5a12.23,12.23,0,0,0-.7,3.3q.3,4,6.9,1.8a12.23,12.23,0,0,0,.7-3.3Q47,173.4,40.4,175.5Z"/><path class="cls-3" d="M24.9,126.1a12.23,12.23,0,0,0-.7,3.3q.3,4,6.9,1.8a12.23,12.23,0,0,0,.7-3.3Q31.5,124,24.9,126.1Z"/><path class="cls-3" d="M50.6,105.4c-.2-1.8-1.4-2.1-3.7-1.1l2.7,5.4A15,15,0,0,0,50.6,105.4Z"/><path class="cls-3" d="M31.1,157l-6.2,6.2a6.86,6.86,0,0,0-.7,2c.4,1.5,2.7,1.5,6.9.1,2.8-.9,4.3-2,4.6-3.4C35.4,160.5,33.8,158.8,31.1,157Z"/><path class="cls-3" d="M40.4,187.9a12.23,12.23,0,0,0-.7,3.3q.3,4.05,6.9,1.8a12.23,12.23,0,0,0,.7-3.3C47.1,187.1,44.8,186.4,40.4,187.9Z"/><path class="cls-3" d="M28.4,209.3l2.7,5.4a19.48,19.48,0,0,0,1-4.3C31.9,208.7,30.7,208.3,28.4,209.3Z"/><path class="cls-3" d="M40.4,163.2a12.23,12.23,0,0,0-.7,3.3q.3,4,6.9,1.8a12.23,12.23,0,0,0,.7-3.3Q47,161,40.4,163.2Z"/><polygon class="cls-3" points="15.6 128.2 17.7 128.2 15.6 126.1 15.6 128.2"/><path class="cls-3" d="M16,95l2.7,5.4a19.48,19.48,0,0,0,1-4.3C19.5,94.4,18.3,94,16,95Z"/><path class="cls-3" d="M52.7,152.9a12.23,12.23,0,0,0,.7-3.3q-.3-4-6.9-1.8a12.23,12.23,0,0,0-.7,3.3Q46.1,155.15,52.7,152.9Z"/><polygon class="cls-3" points="34.2 81.9 36.3 81.9 34.2 79.8 34.2 81.9"/><polygon class="cls-3" points="19.4 118.6 24.2 116.2 21.8 113.8 19.4 118.6"/><path class="cls-3" d="M25.9,57.9c-.3-.2-.7-.5-1-.7v1Z"/><path class="cls-3" d="M34.2,147.7a12.23,12.23,0,0,0-.7,3.3q.3,4,6.9,1.8a12.23,12.23,0,0,0,.7-3.3Q40.8,145.6,34.2,147.7Z"/><path class="cls-3" d="M71.3,197.2a16.75,16.75,0,0,0-.6,2.7c.3,3.2,3.6,4,9.9,2.5a16.75,16.75,0,0,0,.6-2.7C80.9,196.4,77.6,195.6,71.3,197.2Z"/><path class="cls-3" d="M36.7,175.3,31,172.5C31.3,179.4,33.1,180.4,36.7,175.3Z"/><path class="cls-3" d="M83.7,191a12.23,12.23,0,0,0-.7,3.3q.3,4,6.9,1.8a12.23,12.23,0,0,0,.7-3.3Q90.3,188.75,83.7,191Z"/><path class="cls-3" d="M24.9,58.2v8.3c2.8-.9,4.3-2,4.6-3.4C29.2,61.6,27.6,60,24.9,58.2Z"/><path class="cls-3" d="M21.8,144.7v5.2L28,153a24.28,24.28,0,0,0,.8-4.7C28.6,144.4,26.2,143.2,21.8,144.7Z"/><path class="cls-3" d="M31.1,135.4a12.23,12.23,0,0,0-.7,3.3q.3,4.05,6.9,1.8a12.23,12.23,0,0,0,.7-3.3Q37.7,133.15,31.1,135.4Z"/><polygon class="cls-3" points="58.9 86 56.3 91.1 58.9 91.1 58.9 86"/><path class="cls-3" d="M105.4,111.2h0a9.23,9.23,0,0,0,1.7-2.4Z"/><polygon class="cls-3" points="148.7 169.4 148.7 186.9 154.9 186.9 159.6 186.9 151.8 181.7 148.7 169.4"/><polygon class="cls-3" points="120.8 186.9 126 184.3 120.8 181.7 120.8 186.9"/><polygon class="cls-3" points="127.5 236.3 130.1 236.3 130.1 231.1 127.5 236.3"/><polygon class="cls-3" points="121.3 227.1 123.9 227.1 123.9 221.9 121.3 227.1"/><path class="cls-3" d="M139.4,175.5h-6.2v8.3l6.2-3.1,3.1,3.1a28.42,28.42,0,0,0,1-6C143.4,175,142,174.2,139.4,175.5Z"/><polygon class="cls-3" points="114.6 128.2 114.6 123 112 128.2 114.6 128.2"/><polygon class="cls-3" points="117.8 262 120.8 262 120.8 258.9 117.8 262"/><path class="cls-3" d="M105.4,258.9a14.8,14.8,0,0,0-.7,3.1h7.5c.1-.4.1-.8.2-1.2C112.1,258.1,109.7,257.5,105.4,258.9Z"/><polygon class="cls-3" points="133.2 193.1 135.3 193.1 133.2 191 133.2 193.1"/><path class="cls-3" d="M142.5,209.5l-15,3,2.6,5.3,15.5-3.1a19.48,19.48,0,0,0,1-4.3C146.4,208.6,145,208.3,142.5,209.5Z"/><polygon class="cls-3" points="117.7 156 122.9 153.4 117.7 150.8 117.7 156"/><polygon class="cls-3" points="123.9 143.7 123.9 138.5 118.7 143.7 123.9 143.7"/><polygon class="cls-3" points="138.3 186.8 142.5 193.1 142.5 191 138.3 186.8"/><polygon class="cls-3" points="105.9 146.7 108.5 146.7 108.5 141.6 105.9 146.7"/><path class="cls-3" d="M127,200.3a12.23,12.23,0,0,0-.7,3.3q.3,4.05,6.9,1.8a12.23,12.23,0,0,0,.7-3.3Q133.6,198.05,127,200.3Z"/><polygon class="cls-3" points="154.9 211.6 154.9 206.4 149.7 211.6 154.9 211.6"/><path class="cls-3" d="M77.5,257.9a19.48,19.48,0,0,0,1-4.3c-.2-1.9-1.6-2.2-4.1-.9l-5.8,5.8a14.12,14.12,0,0,0,3.3,3.5h3.2A8.46,8.46,0,0,0,77.5,257.9Z"/><path class="cls-3" d="M145.6,197.2l-7.8,5.2h10.9a19.48,19.48,0,0,0,1-4.3C149.5,196.2,148.1,195.9,145.6,197.2Z"/><polygon class="cls-3" points="114.6 132.3 112 137.5 114.6 137.5 114.6 132.3"/><path class="cls-3" d="M111.5,169.4v5.2l6.2,3.1a24.28,24.28,0,0,0,.8-4.7C118.3,169.1,116,167.9,111.5,169.4Z"/><polygon class="cls-3" points="118.2 165.3 120.8 165.3 120.8 160.1 118.2 165.3"/><path class="cls-3" d="M126.6,196.3l-2.7-5.3a14.2,14.2,0,0,0-2.4,4.9C121.8,197.1,123.5,197.3,126.6,196.3Z"/><polygon class="cls-3" points="114.6 220.9 119.8 218.3 114.6 215.7 114.6 220.9"/><polygon class="cls-3" points="112 242.5 114.6 242.5 114.6 237.3 112 242.5"/><path class="cls-3" d="M130.8,242.2c.3,1.2,2,1.4,5.1.4l-2.7-5.3A15.09,15.09,0,0,0,130.8,242.2Z"/><path class="cls-3" d="M120.8,166.3v-1c-.1.3-.2.7-.3,1Z"/><path class="cls-3" d="M120.8,166.3a12.23,12.23,0,0,0-.7,3.3q.3,4.05,6.9,1.8a12.23,12.23,0,0,0,.7-3.3Q127.4,164.05,120.8,166.3Z"/><polygon class="cls-3" points="133.2 224 135.3 224 133.2 221.9 133.2 224"/><polygon class="cls-3" points="114.6 153.9 112 159.1 114.6 159.1 114.6 153.9"/><polygon class="cls-3" points="114.6 144.7 112 149.8 114.6 149.8 114.6 144.7"/><path class="cls-3" d="M152.2,258.8l1.6,3.2h1.7a20.69,20.69,0,0,0,.4-2.2C155.7,258.1,154.5,257.7,152.2,258.8Z"/><path class="cls-3" d="M93,246.6a12.23,12.23,0,0,0-.7,3.3q.3,4,6.9,1.8a12.23,12.23,0,0,0,.7-3.3C99.7,245.8,97.4,245.1,93,246.6Z"/><polygon class="cls-3" points="117.7 181.7 115.1 186.9 117.7 186.9 117.7 181.7"/><polygon class="cls-3" points="164.2 254.9 163.5 255.5 164.2 255.9 164.2 254.9"/><polygon class="cls-3" points="117.7 194.1 115.1 199.3 117.7 199.3 117.7 194.1"/><polygon class="cls-3" points="158 262 164.2 262 164.2 255.9 158 262"/><path class="cls-3" d="M21.8,218.8l-5.4,5.4,8.5,2.8a28.42,28.42,0,0,0,1-6C25.8,218.2,24.4,217.5,21.8,218.8Z"/><path class="cls-3" d="M3.8,181.1c-.2-1.9-1.5-3-3.8-3.2v6.5a22.09,22.09,0,0,0,3.2-.6A10.22,10.22,0,0,0,3.8,181.1Z"/><path class="cls-3" d="M96.1,225a12.23,12.23,0,0,0-.7,3.3q.3,4,6.9,1.8a12.23,12.23,0,0,0,.7-3.3Q102.7,222.75,96.1,225Z"/><polygon class="cls-3" points="99.2 175.5 96.6 180.7 99.2 180.7 99.2 175.5"/><polygon class="cls-3" points="86.8 230.1 92 227.6 86.8 225 86.8 230.1"/><polygon class="cls-3" points="93 234.2 87.8 239.4 93 239.4 93 234.2"/><polygon class="cls-3" points="99.2 187.9 96.6 193.1 99.2 193.1 99.2 187.9"/><path class="cls-3" d="M93.4,113.6l2.7,5.4a19.48,19.48,0,0,0,1-4.3C96.9,112.9,95.7,112.5,93.4,113.6Z"/><path class="cls-3" d="M101.7,203.1,96,200.3C96.3,207.2,98.1,208.2,101.7,203.1Z"/><path class="cls-3" d="M.9,223.7a2.64,2.64,0,0,0-.9-1.9v5.3l.1-.1A11.27,11.27,0,0,0,.9,223.7Z"/><path class="cls-3" d="M6.3,162.2a19.48,19.48,0,0,0,1-4.3c-.2-1.9-1.6-2.2-4.1-.9L0,160.2v5.5C2.7,167.9,4.8,166.8,6.3,162.2Z"/><path class="cls-3" d="M.9,121.8a2.64,2.64,0,0,0-.9-1.9v5.3H.1A14.62,14.62,0,0,0,.9,121.8Z"/><path class="cls-3" d="M58.9,174.5a12.23,12.23,0,0,0,.7-3.3q-.3-4-6.9-1.8a12.23,12.23,0,0,0-.7,3.3Q52.3,176.75,58.9,174.5Z"/><polygon class="cls-3" points="50.1 211.6 52.7 211.6 52.7 206.4 50.1 211.6"/><path class="cls-3" d="M58.9,186.9a12.23,12.23,0,0,0,.7-3.3q-.3-4-6.9-1.8a12.23,12.23,0,0,0-.7,3.3C52.2,187.7,54.5,188.4,58.9,186.9Z"/><path class="cls-3" d="M89.1,216.7c.3,1.8,2.5,2.2,6.7,1.2L93,209.6C90.6,212.7,89.3,215.1,89.1,216.7Z"/><path class="cls-3" d="M9.4,137.5a16.75,16.75,0,0,0,.6-2.7c-.3-3.2-3.6-4-9.9-2.5,0,.1-.1.3-.1.4v3.8C1.1,138.4,4.3,138.8,9.4,137.5Z"/><polygon class="cls-3" points="52.7 231.1 50.3 236 55.2 233.6 52.7 231.1"/><path class="cls-3" d="M28,240.4v8.3l6.2-3.1a12.23,12.23,0,0,0,.7-3.3C34.7,239.6,32.4,238.9,28,240.4Z"/><path class="cls-3" d="M53.7,71.4c-.2-1.8-1.4-2.1-3.7-1.1l2.7,5.4A15,15,0,0,0,53.7,71.4Z"/><path class="cls-3" d="M41,245.3c.3,1.2,2,1.4,5.1.4l-2.7-5.3A14.2,14.2,0,0,0,41,245.3Z"/><path class="cls-3" d="M52.7,240.4v8.3l6.2-3.1a12.23,12.23,0,0,0,.7-3.3C59.4,239.6,57.1,238.9,52.7,240.4Z"/><path class="cls-3" d="M62,228.1a12.23,12.23,0,0,0-.7,3.3q.3,4,6.9,1.8a12.23,12.23,0,0,0,.7-3.3Q68.6,225.85,62,228.1Z"/><polygon class="cls-3" points="80.6 248.7 85.8 246.1 80.6 243.5 80.6 248.7"/><polygon class="cls-3" points="37.3 262 40.4 262 40.4 258.9 37.3 262"/><path class="cls-3" d="M24.9,255.9l-5.4,5.4,2.2.7h6.9a20.79,20.79,0,0,0,.5-3.9C28.9,255.3,27.5,254.6,24.9,255.9Z"/><path class="cls-3" d="M31.1,113.8a12.23,12.23,0,0,0-.7,3.3q.3,4.05,6.9,1.8a12.23,12.23,0,0,0,.7-3.3Q37.7,111.55,31.1,113.8Z"/><path class="cls-3" d="M12.5,217.8a16.75,16.75,0,0,0,.6-2.7c-.3-3.2-3.6-4-9.9-2.5a16.75,16.75,0,0,0-.6,2.7C2.9,218.5,6.2,219.4,12.5,217.8Z"/><polygon class="cls-3" points="37.3 61.2 32.1 66.4 37.3 66.4 37.3 61.2"/><path class="cls-3" d="M3.8,236.7c-.2-1.9-1.5-3-3.8-3.2V240a22.09,22.09,0,0,0,3.2-.6A10.22,10.22,0,0,0,3.8,236.7Z"/><polygon class="cls-3" points="6.3 98.3 3.7 103.5 6.3 103.5 6.3 98.3"/><path class="cls-3" d="M12,119.7l-5.7-2.8C6.5,123.8,8.4,124.8,12,119.7Z"/><path class="cls-3" d="M4,257.7c-.2-2-1.5-2.9-4-2.6v6.6a15.56,15.56,0,0,0,3.2-.7A13,13,0,0,0,4,257.7Z"/><path class="cls-3" d="M9.4,205.4a12.23,12.23,0,0,0,.7-3.3q-.3-4-6.9-1.8a12.23,12.23,0,0,0-.7,3.3Q2.8,207.65,9.4,205.4Z"/><polygon class="cls-3" points="15.6 104.5 10.4 109.7 15.6 109.7 15.6 104.5"/><path class="cls-3" d="M28.7,233q-.3-4-6.9-1.8v8.3l6.2-3.1A13.65,13.65,0,0,0,28.7,233Z"/><path class="cls-3" d="M80.6,236.3V228l-6.2,6.2a6.86,6.86,0,0,0-.7,2C74.1,237.7,76.4,237.7,80.6,236.3Z"/><path class="cls-3" d="M102.9,214.4c.3,1.2,2,1.4,5.1.4l-2.7-5.3A15.09,15.09,0,0,0,102.9,214.4Z"/><path class="cls-3" d="M52.7,218.8a24.28,24.28,0,0,0-.8,4.7q.3,5.85,6.9,3.6a24.28,24.28,0,0,0,.8-4.7Q59.45,216.55,52.7,218.8Z"/><polygon class="cls-3" points="105.9 202.3 108.5 202.3 108.5 197.2 105.9 202.3"/><path class="cls-3" d="M43.5,200.3l-5.2,5.2h8.3a19.48,19.48,0,0,0,1-4.3C47.4,199.3,46,199,43.5,200.3Z"/><path class="cls-3" d="M31.8,226.8c.3,1.2,2,1.4,5.1.4l-2.7-5.3A14.2,14.2,0,0,0,31.8,226.8Z"/><polygon class="cls-3" points="37.3 217.8 45 217.8 37.3 212.6 37.3 217.8"/><polygon class="cls-3" points="99.8 239.7 105.4 242.5 105.4 234.2 99.8 239.7"/><path class="cls-3" d="M99.2,116.8a12.23,12.23,0,0,0-.7,3.3,3,3,0,0,0,.7,1.8h0c1,1,3.1,1,6.2,0a12.23,12.23,0,0,0,.7-3.3Q105.8,114.7,99.2,116.8Z"/><path class="cls-3" d="M90.3,104.3l2.7,5.4a19.48,19.48,0,0,0,1-4.3C93.8,103.6,92.6,103.3,90.3,104.3Z"/><path class="cls-3" d="M99.2,122l-.4.4a2.09,2.09,0,0,0,.4.6h0v-1Z"/><path class="cls-3" d="M96.8,168.1c.3,1.2,2,1.4,5.1.4l-2.7-5.3A14.2,14.2,0,0,0,96.8,168.1Z"/><polygon class="cls-3" points="105.9 190 108.5 190 108.5 184.8 105.9 190"/><polygon class="cls-3" points="99.2 123 93.6 128.5 99.2 131.3 99.2 123"/><path class="cls-3" d="M96.1,135.4a12.23,12.23,0,0,0-.7,3.3q.3,4.05,6.9,1.8a12.23,12.23,0,0,0,.7-3.3Q102.7,133.15,96.1,135.4Z"/><path class="cls-3" d="M71.7,95l2.7,5.4a19.48,19.48,0,0,0,1-4.3C75.2,94.4,74,94,71.7,95Z"/><path class="cls-3" d="M144.4,239.7l-.8-.8c-.2.1-.4.1-.6.2a4.17,4.17,0,0,0,.6.8C143.9,239.8,144.2,239.8,144.4,239.7Z"/><path class="cls-3" d="M58.9,119.9a12.23,12.23,0,0,0-.7,3.3q.3,4,6.9,1.8a12.23,12.23,0,0,0,.7-3.3Q65.5,117.8,58.9,119.9Z"/><path class="cls-3" d="M65.1,92.1h0v-1h0l-.3.6A1.38,1.38,0,0,0,65.1,92.1Z"/><polygon class="cls-3" points="52.7 91.1 52.7 86 50.1 91.1 52.7 91.1"/><path class="cls-3" d="M6.3,225a12.23,12.23,0,0,0-.7,3.3q.3,4,6.9,1.8a12.23,12.23,0,0,0,.7-3.3Q12.9,222.75,6.3,225Z"/><path class="cls-3" d="M53.4,81.6c.3,1.2,2,1.4,5.1.4l-2.7-5.3A14.2,14.2,0,0,0,53.4,81.6Z"/><polygon class="cls-3" points="62.5 97.3 65.1 97.3 65.1 92.1 65.1 92.1 62.5 97.3"/><path class="cls-3" d="M65.1,91.1c1,1,3.1,1,6.2,0a12.23,12.23,0,0,0,.7-3.3q-.3-4-6.9-1.8a12.23,12.23,0,0,0-.7,3.3,2.48,2.48,0,0,0,.7,1.8Z"/><path class="cls-3" d="M143.6,239.9c-.2.1-.5.2-.7.3l2.7,5.4q.6-1.95.9-3.3A12.32,12.32,0,0,1,143.6,239.9Z"/><path class="cls-3" d="M12.5,157a24.28,24.28,0,0,0-.8,4.7q.3,5.85,6.9,3.6a24.28,24.28,0,0,0,.8-4.7Q19.25,154.75,12.5,157Z"/><path class="cls-3" d="M9.4,181.7a12.23,12.23,0,0,0-.7,3.3q.3,4,6.9,1.8a12.23,12.23,0,0,0,.7-3.3Q16,179.6,9.4,181.7Z"/><polygon class="cls-3" points="46.5 81.9 48.6 81.9 46.5 79.8 46.5 81.9"/><polygon class="cls-3" points="6.3 66.4 6.3 61.2 3.7 66.4 6.3 66.4"/><path class="cls-3" d="M3.6,70.3l2.7,5.4a19.48,19.48,0,0,0,1-4.3C7.1,69.6,5.9,69.3,3.6,70.3Z"/><path class="cls-3" d="M22.5,81.6c.3,1.2,2,1.4,5.1.4l-2.7-5.3A14.2,14.2,0,0,0,22.5,81.6Z"/><path class="cls-3" d="M18.7,86a12.23,12.23,0,0,0-.7,3.3q.3,4,6.9,1.8a12.23,12.23,0,0,0,.7-3.3Q25.3,83.75,18.7,86Z"/><path class="cls-3" d="M77.5,101.4a12.23,12.23,0,0,0-.7,3.3q.3,4,6.9,1.8a12.23,12.23,0,0,0,.7-3.3C84.2,100.6,81.9,99.9,77.5,101.4Z"/><path class="cls-3" d="M102.3,156v1c.1-.4.2-.7.3-1.1C102.5,155.9,102.4,156,102.3,156Z"/><path class="cls-3" d="M102.3,172.5a12.23,12.23,0,0,0-.7,3.3q.3,4,6.9,1.8a12.23,12.23,0,0,0,.7-3.3Q108.9,170.25,102.3,172.5Z"/><path class="cls-3" d="M105.8,129l2.7,5.4a19.48,19.48,0,0,0,1-4.3C109.3,128.3,108,128,105.8,129Z"/><path class="cls-3" d="M102.3,157v5.2l6.2,3.1a24.28,24.28,0,0,0,.8-4.7C109,156.7,106.7,155.5,102.3,157Z"/><path class="cls-3" d="M68.9,245.3c.3,1.2,2,1.4,5.1.4l-2.7-5.3A14.2,14.2,0,0,0,68.9,245.3Z"/><path class="cls-3" d="M83.7,255.9a12.23,12.23,0,0,0-.7,3.3q.3,4.05,6.9,1.8a12.23,12.23,0,0,0,.7-3.3Q90.3,253.65,83.7,255.9Z"/><polygon class="cls-3" points="99.2 261 101.3 261 99.2 258.9 99.2 261"/><path class="cls-3" d="M102.3,246.6a12.23,12.23,0,0,0-.7,3.3q.3,4,6.9,1.8a12.23,12.23,0,0,0,.7-3.3C109,245.8,106.7,245.1,102.3,246.6Z"/><path class="cls-3" d="M96.1,150.8a12.23,12.23,0,0,0-.7,3.3q.3,4.05,6.9,1.8a12.23,12.23,0,0,0,.7-3.3Q102.7,148.7,96.1,150.8Z"/><polygon class="cls-3" points="148.7 254.9 148.7 249.7 146.1 254.9 148.7 254.9"/><polygon class="cls-3" points="142.5 261 144.6 261 142.5 258.9 142.5 261"/><path class="cls-3" d="M0,2V42.7c5.2.4,7.9-1.1,8.1-4.3a5.66,5.66,0,0,0-.3-1.8H8c-.1-.3-.1-.7-.2-1H20.2v4.1c-7.2-2.5-11-2-11.3,1.5.1.6.2,1.4.4,2.2l-.2.4c.1.2.1.4.2.6L6.7,51l10.4-3c2.6,4.6,5.1,4.2,7.6-1.2a6.3,6.3,0,0,1-.3-2.6Q24,40,29.5,41.8l4.6-1.5a8.73,8.73,0,0,1,.6,3.5c.3,2.7-1.5,3.4-5.2,2.1V52c-3.5-1-5.4-.4-5.6,1.7a12.72,12.72,0,0,0,1,3.5l10.8-3.1,12.4,6.2,4.6-1.5L52.1,60l.6-.2L50.1,65l5.4,1.4a8.4,8.4,0,0,1-.4-3.3c-.3-3.5,2-4.5,6.9-2.8l3.1,13.9-.1.3.1.6-2.7,6.7,12.7-1.3-7-2.3,1.1-.6-1.1-.4,7.7-4.6,4,1.3-2.5-5,.4-.1-.2-.8,4.6-1.5,7.7,4.6-1.2.3,1.2.7-6.2,1.5-9,16.5L79,97.3l1.5-6.2h8.9a8.26,8.26,0,0,1-.6-3.5c-.3-2.9,1.6-3.8,5.6-2.7V78.7c3.5,1.9,5,3.8,4.7,5.6.4,2.1-1.6,4.1-5.9,6.1l1.3,3.8,9.3-6.2,7.7,4.6-1.1.4,1.1.6-4.6,1.5-7.3-2.9a7,7,0,0,1,.5,3.3c.3,2.8-1.4,3.7-5.1,2.9l2.5,5,4.6,1.5-1.2.6,1.2.4-5.7,2.9c3.9,6.2,7.8,5.1,11.7-3.5a6.3,6.3,0,0,1-.3-2.6q-.45-4.2,5.1-2.4l-.6.8c.2.1.4.1.6.2l-7.3,10.2,4.2,4.2,1.5-6.2,10.8,3.1,9.3-3.1v4.1l-13.8,3.1L119,125l7.7-3.1a5.64,5.64,0,0,0-.4,1.2l.4-.2a11.84,11.84,0,0,0-1,3.5c.2,2.1,2.1,2.7,5.6,1.7l9.3-6.2-.8,1.5.8-.5-3.1,6.2-10,7.1,5.1,2.5a7.88,7.88,0,0,1-.2-2q-.45-4.2,5.1-2.4l6.2-3.1v4.1l-7.5,4.5a6.49,6.49,0,0,1,.2,2.3c.3,3.5-2.4,4.3-8.2,2.4-2.7,1.3-4.2,2.6-4.5,3.8.3,1,1.2,1.9,3,2.9l-.2.9a.35.35,0,0,1,.2.1l-2.8,9.9c4.5,1.7,6.9.5,7.1-3.5a30.6,30.6,0,0,0-1.1-6.4h.3c-.1-.3-.2-.7-.3-1H133l1.5,7.7,4.6-1.5-.9,1.3.9-.3-6.6,9.3,5.1-2.5,3.1,6.2,4.6-7.7v-6.2a12.36,12.36,0,0,0,.4-2.3c-.3-2.6-2.5-3-6.6-1.3v-7.2h9.3v6.2c4.6-1.9,6.8-1.1,6.6,2.3a10.52,10.52,0,0,1-.4,3.3l-8.1,2.7,5,2.5-.3.9.3.1-1.2,3.7,7.4,1.5a10.47,10.47,0,0,0-1.1.8l1.1.2c-1.9,1.1-2.9,2.2-3.2,3.3.3,1.6,2.4,3.3,6.2,4.9a2.92,2.92,0,0,0-.2.9.35.35,0,0,1,.2.1,12,12,0,0,0-.5,2.3c.2,2,1.9,2.5,5.1,1.3v4.1l-2.9,1,4.5,1.1a9.33,9.33,0,0,1,1,4.4c.3,3.5-2.6,4.4-8.7,2.8l-4.6,1.5.5-1.2-.5.2,2.7-6.7-8.6,1.4,2.8,9.9,15.5,1.5-3.8.6,3.8.4-9,1.5,1.3,5.2,4.6-1.5-.6,1.2.6-.2-2.9,5.8,1.3,4c-.1,0-.2-.1-.4-.1l.4,1.1c-2.2-.6-3.7-.6-4.6,0h0a2.16,2.16,0,0,0-1,1.7,12.72,12.72,0,0,0,1,3.5c5-2,7.5-.5,7.3,4.4a21.32,21.32,0,0,1-1,6.8l2.9,5.8h-.5l.5,1h-3.1l-6.2-9.3.2-.7-.2-.3,1.2-3.7c-3.4-1-5.2-.1-5.3,2.4a19,19,0,0,0,1,4.4l6.2,9.3-.5.2.5.8-5.2,2.6,11.4,5.7,1.1,5.6h2.6V2Z"/><path class="cls-3" d="M118.1,231l2.7,5.4a19.48,19.48,0,0,0,1-4.3C121.7,230.3,120.4,229.9,118.1,231Z"/><path class="cls-3" d="M115,249.5l2.7,5.4a19.48,19.48,0,0,0,1-4.3C118.6,248.8,117.3,248.5,115,249.5Z"/><path class="cls-3" d="M123.9,249.7a12.23,12.23,0,0,0-.7,3.3q.3,4,6.9,1.8a12.23,12.23,0,0,0,.7-3.3Q130.5,247.45,123.9,249.7Z"/><path class="cls-3" d="M133.2,249.7a12.23,12.23,0,0,0-.7,3.3q.3,4,6.9,1.8a12.23,12.23,0,0,0,.7-3.3Q139.8,247.45,133.2,249.7Z"/><polygon class="cls-3" points="28 97.3 30.1 97.3 28 95.2 28 97.3"/><polygon class="cls-3" points="0.1 81.9 2.2 81.9 0.1 79.8 0.1 81.9"/><path class="cls-3" d="M55.8,252.8a12.23,12.23,0,0,0-.7,3.3q.3,4,6.9,1.8a12.23,12.23,0,0,0,.7-3.3Q62.4,250.55,55.8,252.8Z"/><path class="cls-3" d="M3.2,169.4a16.75,16.75,0,0,0-.6,2.7c.3,3.2,3.6,4,9.9,2.5a16.75,16.75,0,0,0,.6-2.7C12.8,168.6,9.5,167.8,3.2,169.4Z"/><polygon class="cls-3" points="18.7 57.2 18.7 52 16.1 57.2 18.7 57.2"/><polygon class="cls-3" points="1.1 193.1 8.9 193.1 6.3 187.9 1.1 193.1"/><polygon class="cls-3" points="46.5 66.4 46.5 61.2 44 66.4 46.5 66.4"/><path class="cls-3" d="M6.3,144.7a16.75,16.75,0,0,0-.6,2.7c.3,3.2,3.6,4,9.9,2.5a16.75,16.75,0,0,0,.6-2.7C15.9,143.9,12.6,143.1,6.3,144.7Z"/><path class="cls-3" d="M6.3,243.5c-2.8,1.8-4.3,3.5-4.6,4.9.3,1.3,1.8,2.5,4.6,3.4,2.8-.9,4.3-2,4.6-3.4C10.6,247,9.1,245.3,6.3,243.5Z"/><polygon class="cls-3" points="40.4 236.3 40.4 231.1 35.2 236.3 40.4 236.3"/><path class="cls-3" d="M43.5,252.8a12.23,12.23,0,0,0-.7,3.3q.3,4,6.9,1.8a12.23,12.23,0,0,0,.7-3.3Q50,250.55,43.5,252.8Z"/><polygon class="cls-3" points="37.3 254.9 37.3 249.7 32.1 254.9 37.3 254.9"/><path class="cls-3" d="M9.4,252.8a12.23,12.23,0,0,0-.7,3.3q.3,4,6.9,1.8a12.23,12.23,0,0,0,.7-3.3Q16,250.55,9.4,252.8Z"/><path class="cls-3" d="M9.4,234.2v8.3l6.2-3.1a12.23,12.23,0,0,0,.7-3.3C16.1,233.4,13.8,232.8,9.4,234.2Z"/><polygon class="cls-3" points="21.8 248.7 21.8 243.5 19.2 248.7 21.8 248.7"/><polygon class="cls-3" points="78 165.3 80.6 165.3 80.6 160.1 78 165.3"/><polygon class="cls-3" points="46.5 140.6 48.6 140.6 46.5 138.5 46.5 140.6"/><polygon class="cls-3" points="52.7 162.2 54.8 162.2 52.7 160.1 52.7 162.2"/><path class="cls-3" d="M49.6,129.2a12.23,12.23,0,0,0-.7,3.3q.3,4,6.9,1.8a12.23,12.23,0,0,0,.7-3.3C56.3,128.4,54,127.7,49.6,129.2Z"/><polygon class="cls-3" points="49.6 199.3 57.4 199.3 49.6 194.1 49.6 199.3"/><path class="cls-3" d="M89.4,208.7l-2.7-5.3a14.2,14.2,0,0,0-2.4,4.9C84.7,209.5,86.4,209.6,89.4,208.7Z"/><path class="cls-3" d="M50.1,116.7l2.7,5.4a19.48,19.48,0,0,0,1-4.3C53.6,116,52.3,115.6,50.1,116.7Z"/><path class="cls-3" d="M72,211.3c.3,1.2,2,1.4,5.1.4l-2.7-5.3A15.09,15.09,0,0,0,72,211.3Z"/><path class="cls-3" d="M158,220.9a2,2,0,0,0-.8,1h.8v-1Z"/><path class="cls-3" d="M65.1,211.6a24.28,24.28,0,0,0,.8-4.7q-.3-5.85-6.9-3.6a24.28,24.28,0,0,0-.8,4.7Q58.5,213.85,65.1,211.6Z"/><polygon class="cls-3" points="81.1 220.9 83.7 220.9 83.7 215.7 81.1 220.9"/><path class="cls-3" d="M65.5,132.1l2.7,5.4a19.48,19.48,0,0,0,1-4.3C69,131.4,67.8,131.1,65.5,132.1Z"/><path class="cls-3" d="M74.1,224l-2.8-8.3-6.2,6.2a6.39,6.39,0,0,0-.6,1.6C65,225.3,68.2,225.5,74.1,224Z"/><path class="cls-3" d="M49.6,95.2a12.23,12.23,0,0,0-.7,3.3q.3,4.05,6.9,1.8a12.23,12.23,0,0,0,.7-3.3Q56.2,93.1,49.6,95.2Z"/><path class="cls-3" d="M74.4,184.8a12.23,12.23,0,0,0-.7,3.3q.3,4.05,6.9,1.8a12.23,12.23,0,0,0,.7-3.3C81.1,184,78.8,183.3,74.4,184.8Z"/><path class="cls-3" d="M62,191a12.23,12.23,0,0,0-.7,3.3q.3,4,6.9,1.8a12.23,12.23,0,0,0,.7-3.3Q68.6,188.75,62,191Z"/><path class="cls-3" d="M74.4,172.5a12.23,12.23,0,0,0-.7,3.3q.3,4,6.9,1.8a12.23,12.23,0,0,0,.7-3.3Q81,170.25,74.4,172.5Z"/><polygon class="cls-3" points="68.2 106.6 68.2 101.4 65.6 106.6 68.2 106.6"/><polygon class="cls-3" points="74.4 122 79.6 119.4 74.4 116.8 74.4 122"/><path class="cls-3" d="M71,181.5l-9-6v5.2C66,186.6,69,186.9,71,181.5Z"/><polygon class="cls-3" points="58.9 143.7 61 143.7 58.9 141.6 58.9 143.7"/><polygon class="cls-3" points="74.4 109.7 76.5 109.7 74.4 107.6 74.4 109.7"/><polygon class="cls-3" points="87.3 100.4 89.9 100.4 89.9 95.2 87.3 100.4"/><path class="cls-3" d="M87.5,174.3c.3,1.2,2,1.4,5.1.4l-2.7-5.3A14.2,14.2,0,0,0,87.5,174.3Z"/><path class="cls-3" d="M78.2,131c.3,1.2,2,1.4,5.1.4l-2.7-5.3A15.09,15.09,0,0,0,78.2,131Z"/><polygon class="cls-3" points="89.9 178.6 87.3 183.8 89.9 183.8 89.9 178.6"/><path class="cls-3" d="M80.6,135.4v8.3c2.8-.9,4.3-2,4.6-3.4C84.9,138.9,83.4,137.2,80.6,135.4Z"/><path class="cls-3" d="M139.4,227.1l6.2-3.1c2.9-1.5,4.3-.8,4.1,1.9a14.27,14.27,0,0,1-1,5.3c-3.8,1.9-5.8,3.8-6.1,5.7a4.29,4.29,0,0,0,1.1,2.1c2.2-.8,3.1,0,3,2.4h0a19.61,19.61,0,0,0,2.1,1.2,5.94,5.94,0,0,1-.4.8c.1.1.2.1.4.2a6.86,6.86,0,0,0-.7,2c.3,1.4,2.5,1.5,6.4.3l-5.6-8.4.3-.5-.3-.5,6.2-9.3V222H139.6v5.1Z"/><path class="cls-3" d="M89.9,153.9c-2.8,1.8-4.3,3.5-4.6,4.9.3,1.3,1.8,2.5,4.6,3.4,2.8-.9,4.3-2,4.6-3.4C94.2,157.4,92.6,155.8,89.9,153.9Z"/><path class="cls-3" d="M158,215.7l-2.6,5.2H158Z"/><path class="cls-3" d="M87.2,119.8l2.7,5.4a19.48,19.48,0,0,0,1-4.3C90.7,119.1,89.5,118.7,87.2,119.8Z"/><path class="cls-3" d="M92.7,149.9l-2.8-8.3q-3.6,4.65-3.9,7.2C86.3,150.5,88.5,150.9,92.7,149.9Z"/><path class="cls-3" d="M86.8,132.3a12.23,12.23,0,0,0-.7,3.3q.3,4.05,6.9,1.8a12.23,12.23,0,0,0,.7-3.3C93.5,131.5,91.2,130.8,86.8,132.3Z"/><polygon points="40.4 125.1 40.4 126.1 42.5 128.2 43.5 128.2 40.4 125.1"/><path d="M39.9,106.7c.1,0,.3-.1.4-.1l-3.1-6.2c-1.9,2.8-2.7,4.8-2.4,5.9a15.09,15.09,0,0,1,2.4-4.9Z"/><path d="M34.2,146.7a10.84,10.84,0,0,0-.7,4.3,17.88,17.88,0,0,1,.7-3.3c4.4-1.5,6.7-.8,6.9,1.8C41.4,146.1,39.1,145.1,34.2,146.7Z"/><polygon points="28 95.2 30.1 97.3 31.1 97.3 28 94.2 28 95.2"/><polygon points="43.5 85 40.4 91.1 40.9 91.1 43.5 86 43.5 85"/><path d="M90.3,104.3c2.3-1,3.5-.7,3.7,1.1.2-2.7-1.2-3.4-4.1-1.9Z"/><polygon points="36.3 81.9 37.3 81.9 34.2 78.8 34.2 79.8 36.3 81.9"/><path d="M93,245.6a10.84,10.84,0,0,0-.7,4.3,17.88,17.88,0,0,1,.7-3.3c4.4-1.5,6.7-.8,6.9,1.8C100.2,244.9,97.9,244,93,245.6Z"/><polygon points="43.5 66.4 44 66.4 46.5 61.2 46.5 60.5 46.5 60.4 43.5 66.4"/><polygon points="15.6 103.5 9.4 109.7 10.4 109.7 15.6 104.5 15.6 103.5"/><path d="M53.4,81.6a15.09,15.09,0,0,1,2.4-4.9L58.5,82c.1,0,.3-.1.4-.1l-3.1-6.2C53.9,78.5,53.1,80.5,53.4,81.6Z"/><polygon points="19.4 118.6 21.8 113.8 24.2 116.2 24.9 115.8 21.8 112.8 18.7 118.9 19.4 118.6"/><polygon points="15.6 60.2 15.6 61.2 17.7 63.3 18.7 63.3 15.6 60.2"/><path d="M80.6,228.1v-1l-6.2,6.2a4.88,4.88,0,0,0-.7,3,6.86,6.86,0,0,1,.7-2Z"/><polygon points="15.6 70.5 17.7 72.6 18.7 72.6 15.6 69.5 15.6 70.5"/><path d="M24.9,137.5l-6.2-3.1v1l5.7,2.8A3,3,0,0,1,24.9,137.5Z"/><path d="M31.1,134.4a10.84,10.84,0,0,0-.7,4.3,17.88,17.88,0,0,1,.7-3.3c4.4-1.5,6.7-.8,6.9,1.8C38.3,133.7,36,132.8,31.1,134.4Z"/><path d="M25.9,170.3c.2-2.7-1.2-3.4-4.1-1.9l-6.2,6.2h1l5.2-5.2C24.3,168.1,25.7,168.4,25.9,170.3Z"/><path d="M40.4,162.2a10.84,10.84,0,0,0-.7,4.3,17.88,17.88,0,0,1,.7-3.3c4.4-1.5,6.7-.8,6.9,1.8C47.6,161.5,45.3,160.6,40.4,162.2Z"/><path d="M28,208.5l.4.8c2.3-1,3.5-.7,3.7,1.1C32.3,207.7,30.9,207.1,28,208.5Z"/><polygon points="31.1 196.2 31.1 197.2 33.2 199.3 34.2 199.3 31.1 196.2"/><path d="M40.4,174.5a10.84,10.84,0,0,0-.7,4.3,17.88,17.88,0,0,1,.7-3.3c4.4-1.5,6.7-.8,6.9,1.8C47.6,173.9,45.3,172.9,40.4,174.5Z"/><path d="M40.4,186.9a10.84,10.84,0,0,0-.7,4.3,17.88,17.88,0,0,1,.7-3.3c4.4-1.5,6.7-.8,6.9,1.8C47.6,186.2,45.3,185.3,40.4,186.9Z"/><path d="M37.3,174.5l-6.2-3.1v1l5.7,2.8C36.9,175,37.1,174.8,37.3,174.5Z"/><path d="M31.1,180.7l-6.2,6.2a4.88,4.88,0,0,0-.7,3,6.86,6.86,0,0,1,.7-2l6.2-6.2c2.8,1.8,4.3,3.5,4.6,4.9C36,185,34.5,183,31.1,180.7Z"/><path d="M31.1,156l-6.2,6.2a4.88,4.88,0,0,0-.7,3,6.86,6.86,0,0,1,.7-2l6.2-6.2c2.8,1.8,4.3,3.5,4.6,4.9C36,160.3,34.5,158.3,31.1,156Z"/><path d="M99.2,115.8a10.84,10.84,0,0,0-.7,4.3,17.88,17.88,0,0,1,.7-3.3c4.4-1.5,6.7-.8,6.9,1.8C106.4,115.2,104.1,114.2,99.2,115.8Z"/><path d="M21.8,143.7v1q6.75-2.25,6.9,3.6C28.9,143.6,26.6,142,21.8,143.7Z"/><polygon points="15.6 126.1 17.7 128.2 18.7 128.2 15.6 125.1 15.6 126.1"/><path d="M24.9,125.1a10.84,10.84,0,0,0-.7,4.3,17.88,17.88,0,0,1,.7-3.3c4.4-1.5,6.7-.8,6.9,1.8C32.1,124.4,29.8,123.5,24.9,125.1Z"/><polygon points="12.5 79.8 14.6 81.9 15.6 81.9 12.5 78.8 12.5 79.8"/><path d="M16,95c2.3-1,3.5-.7,3.7,1.1.2-2.7-1.2-3.4-4.1-1.9Z"/><path d="M21.8,103.5a10.84,10.84,0,0,0-.7,4.3,17.88,17.88,0,0,1,.7-3.3c4.4-1.5,6.7-.8,6.9,1.8C29,102.8,26.7,101.9,21.8,103.5Z"/><polygon points="86.8 224 86.8 225 92 227.6 93 227.1 86.8 224"/><polygon points="6.3 97.3 3.2 103.5 3.7 103.5 6.3 98.3 6.3 97.3"/><path d="M30.3,117.1a17.88,17.88,0,0,1,.7-3.3c4.4-1.5,6.7-.8,6.9,1.8.3-3.5-2-4.5-6.9-2.8A13,13,0,0,0,30.3,117.1Z"/><polygon points="37.3 60.2 31.1 66.4 32.1 66.4 37.3 61.2 37.3 60.2"/><path d="M6.3,115.8v1l5.7,2.8c.2-.2.3-.5.5-.7Z"/><path d="M10.2,202.1c.3-3.5-2-4.5-6.9-2.8a10.84,10.84,0,0,0-.7,4.3,17.88,17.88,0,0,1,.7-3.3Q9.75,198.05,10.2,202.1Z"/><path d="M93,112.8l.4.8c2.3-1,3.5-.7,3.7,1.1C97.3,111.9,95.9,111.3,93,112.8Z"/><polygon points="1.1 193.1 6.3 187.9 8.9 193.1 9.4 193.1 6.3 186.9 0.1 193.1 1.1 193.1"/><path d="M53.7,71.4c.2-2.7-1.2-3.4-4.1-1.9l.4.8C52.3,69.3,53.6,69.6,53.7,71.4Z"/><path d="M62,227.1a10.84,10.84,0,0,0-.7,4.3,17.88,17.88,0,0,1,.7-3.3c4.4-1.5,6.7-.8,6.9,1.8C69.2,226.4,66.9,225.4,62,227.1Z"/><path d="M13.1,215.1c.3-4-3-5.2-9.9-3.5a9.11,9.11,0,0,0-.6,3.7,10.22,10.22,0,0,1,.6-2.7C9.5,211,12.8,211.9,13.1,215.1Z"/><path d="M52.7,239.4v1c4.4-1.5,6.7-.8,6.9,1.8C59.9,238.7,57.6,237.8,52.7,239.4Z"/><polygon points="21.8 196.2 12.5 193.1 12.5 194.1 20.3 196.7 21.8 196.2"/><path d="M2.6,172.1a10.22,10.22,0,0,1,.6-2.7c6.3-1.6,9.6-.7,9.9,2.5.3-4-3-5.2-9.9-3.5A8.88,8.88,0,0,0,2.6,172.1Z"/><path d="M1.7,248.4c.3-1.4,1.8-3.1,4.6-4.9,2.8,1.8,4.3,3.5,4.6,4.9.4-1.6-1.2-3.6-4.6-5.9C2.9,244.8,1.4,246.7,1.7,248.4Z"/><path d="M28,239.4v1c4.4-1.5,6.7-.8,6.9,1.8C35.2,238.7,32.9,237.8,28,239.4Z"/><path d="M43.5,239.4c-1.9,2.8-2.7,4.8-2.4,5.9a15.09,15.09,0,0,1,2.4-4.9l2.7,5.3c.1,0,.3-.1.4-.1Z"/><polygon points="80.6 242.5 80.6 243.5 85.8 246.1 86.8 245.6 80.6 242.5"/><path d="M15.6,57.2h.5L18.7,52V51h0Z"/><path d="M59.7,183.6c.3-3.5-2-4.5-6.9-2.8a10.84,10.84,0,0,0-.7,4.3,17.88,17.88,0,0,1,.7-3.3Q59.25,179.55,59.7,183.6Z"/><polygon points="52.7 205.4 49.6 211.6 50.1 211.6 52.7 206.4 52.7 205.4"/><polygon points="55.2 233.6 55.8 233.2 52.7 230.1 49.6 236.3 50.3 236 52.7 231.1 55.2 233.6"/><polygon points="0.1 79.8 2.2 81.9 3.2 81.9 0.1 78.8 0.1 79.8"/><path d="M5.7,147.4a10.22,10.22,0,0,1,.6-2.7c6.3-1.6,9.6-.7,9.9,2.5.3-4-3-5.2-9.9-3.5A8.88,8.88,0,0,0,5.7,147.4Z"/><path d="M21.8,217.8,15.6,224l.8.2,5.4-5.4c2.6-1.3,4-.5,4.1,2.2C26,217.4,24.7,216.3,21.8,217.8Z"/><path d="M59.7,171.2c.3-3.5-2-4.5-6.9-2.8a10.84,10.84,0,0,0-.7,4.3,17.88,17.88,0,0,1,.7-3.3Q59.25,167.15,59.7,171.2Z"/><path d="M22.5,208.3c.3-3.5-2-4.5-6.9-2.8a10.84,10.84,0,0,0-.7,4.3,17.88,17.88,0,0,1,.7-3.3Q22.2,204.25,22.5,208.3Z"/><polygon points="99.2 186.9 96.1 193.1 96.6 193.1 99.2 187.9 99.2 186.9"/><polygon points="99.2 174.5 96.1 180.7 96.6 180.7 99.2 175.5 99.2 174.5"/><path d="M89.1,216.7q.45-2.4,3.9-7.2l2.8,8.3a.37.37,0,0,0,.3-.1L93,208.4C90.1,212.4,88.8,215.1,89.1,216.7Z"/><path d="M102.3,202.3l-6.2-3.1v1l5.7,2.8C101.9,202.8,102.1,202.6,102.3,202.3Z"/><path d="M95.3,228.3A17.88,17.88,0,0,1,96,225c4.4-1.5,6.7-.8,6.9,1.8.3-3.5-2-4.5-6.9-2.8A13,13,0,0,0,95.3,228.3Z"/><path d="M53.5,149.6c.3-3.5-2-4.5-6.9-2.8a10.84,10.84,0,0,0-.7,4.3,17.88,17.88,0,0,1,.7-3.3Q53.05,145.55,53.5,149.6Z"/><polygon points="93 233.2 86.8 239.4 87.8 239.4 93 234.2 93 233.2"/><polygon points="9.4 89 11.5 91.1 12.5 91.1 9.4 88 9.4 89"/><path d="M76.8,104.7a17.88,17.88,0,0,1,.7-3.3c4.4-1.5,6.7-.8,6.9,1.8.3-3.5-2-4.5-6.9-2.8A10.84,10.84,0,0,0,76.8,104.7Z"/><polygon points="108.5 196.2 105.4 202.3 105.9 202.3 108.5 197.2 108.5 196.2"/><polygon points="89.9 94.2 86.8 100.4 87.3 100.4 89.9 95.2 89.9 94.2"/><path d="M71.3,94.2l.4.8c2.3-1,3.5-.7,3.7,1.1C75.6,93.4,74.3,92.8,71.3,94.2Z"/><path d="M62.5,97.3l2.6-5.2a1.38,1.38,0,0,1-.3-.4L62,97.3Z"/><path d="M72.1,87.8c.3-3.5-2-4.5-6.9-2.8a10.84,10.84,0,0,0-.7,4.3,17.88,17.88,0,0,1,.7-3.3Q71.65,83.75,72.1,87.8Z"/><path d="M86.8,118.9l.4.8c2.3-1,3.5-.7,3.7,1.1C91.1,118.1,89.7,117.5,86.8,118.9Z"/><path d="M74.4,205.4c-1.9,2.8-2.7,4.8-2.4,5.9a15.09,15.09,0,0,1,2.4-4.9l2.7,5.3c.1,0,.3-.1.4-.1Z"/><polygon points="83.7 214.7 80.6 220.9 81.1 220.9 83.7 215.7 83.7 214.7"/><path d="M58.2,123.3a17.88,17.88,0,0,1,.7-3.3c4.4-1.5,6.7-.8,6.9,1.8.3-3.5-2-4.5-6.9-2.8A10.6,10.6,0,0,0,58.2,123.3Z"/><path d="M89.4,208.7c.1,0,.3-.1.4-.1l-3.1-6.2c-1.9,2.8-2.7,4.8-2.4,5.9a15.09,15.09,0,0,1,2.4-4.9Z"/><path d="M89.9,152.9c-3.4,2.3-5,4.2-4.6,5.9.3-1.4,1.8-3.1,4.6-4.9,2.8,1.8,4.3,3.5,4.6,4.9C94.8,157.2,93.3,155.2,89.9,152.9Z"/><path d="M92.7,149.9a.37.37,0,0,0,.3-.1l-3.1-9.3c-2.9,3.9-4.2,6.6-3.9,8.2q.45-2.4,3.9-7.2Z"/><polygon points="108.5 183.8 105.4 190 105.9 190 108.5 184.8 108.5 183.8"/><path d="M86.8,131.3a10.84,10.84,0,0,0-.7,4.3,17.88,17.88,0,0,1,.7-3.3c4.4-1.5,6.7-.8,6.9,1.8C94,130.6,91.7,129.7,86.8,131.3Z"/><path d="M8.7,185a17.88,17.88,0,0,1,.7-3.3c4.4-1.5,6.7-.8,6.9,1.8.3-3.5-2-4.5-6.9-2.8A11.09,11.09,0,0,0,8.7,185Z"/><path d="M28.7,233c.3-3.5-2-4.5-6.9-2.8v1Q28.4,229,28.7,233Z"/><path d="M34.2,220.9c-1.9,2.8-2.7,4.8-2.4,5.9a15.09,15.09,0,0,1,2.4-4.9l2.7,5.3c.1,0,.3-.1.4-.1Z"/><polygon points="105.4 233.2 99.2 239.4 99.8 239.7 105.4 234.2 105.4 233.2"/><path d="M6.3,224a10.84,10.84,0,0,0-.7,4.3,17.88,17.88,0,0,1,.7-3.3c4.4-1.5,6.7-.8,6.9,1.8C13.5,223.3,11.2,222.3,6.3,224Z"/><polygon points="37.3 211.6 37.3 212.6 45 217.8 46.5 217.8 37.3 211.6"/><path d="M71.3,215.7l2.8,8.3a.37.37,0,0,0,.3-.1l-3.1-9.3-6.2,6.2a4.79,4.79,0,0,0-.6,2.6,6.39,6.39,0,0,1,.6-1.6Z"/><path d="M52.7,217.8a22.66,22.66,0,0,0-.8,5.7,24.28,24.28,0,0,1,.8-4.7q6.75-2.25,6.9,3.6C59.9,217.7,57.6,216.2,52.7,217.8Z"/><path d="M43.5,199.3l-6.2,6.2h1l5.2-5.2c2.5-1.3,3.9-1,4.1.9C47.8,198.4,46.4,197.8,43.5,199.3Z"/><polygon points="50.1 91.1 52.7 86 52.7 85 49.6 91.1 50.1 91.1"/><path d="M24.9,75.7c-1.9,2.8-2.7,4.8-2.4,5.9a15.09,15.09,0,0,1,2.4-4.9L27.6,82c.1,0,.3-.1.4-.1Z"/><path d="M18,89.3a17.88,17.88,0,0,1,.7-3.3c4.4-1.5,6.7-.8,6.9,1.8.3-3.5-2-4.5-6.9-2.8A10.84,10.84,0,0,0,18,89.3Z"/><polygon points="46.5 79.8 48.6 81.9 49.6 81.9 46.5 78.8 46.5 79.8"/><path d="M105.4,208.5c-1.9,2.8-2.7,4.8-2.4,5.9a15.09,15.09,0,0,1,2.4-4.9l2.7,5.3c.1,0,.3-.1.4-.1Z"/><path d="M3.2,69.5l.4.8c2.3-1,3.5-.7,3.7,1.1C7.5,68.7,6.2,68,3.2,69.5Z"/><path d="M12.5,156a22.66,22.66,0,0,0-.8,5.7,24.28,24.28,0,0,1,.8-4.7q6.75-2.25,6.9,3.6C19.6,155.9,17.3,154.4,12.5,156Z"/><polygon points="3.7 66.4 6.3 61.2 6.3 60.2 3.2 66.4 3.7 66.4"/><polygon points="68.2 112.8 68.2 113.8 70.3 115.8 71.3 115.8 68.2 112.8"/><path d="M98.8,122.4,93,128.2l.7.3,5.5-5.5A.92.92,0,0,1,98.8,122.4Z"/><polygon points="58.9 140.6 58.9 141.6 61 143.7 62 143.7 58.9 140.6"/><path d="M71.3,180.7,62,174.5v1l9,6A6.89,6.89,0,0,0,71.3,180.7Z"/><polygon points="62.8 168.6 68.2 163.2 70.9 171.3 71.3 171.5 68.2 162.2 62 168.4 62.8 168.6"/><path d="M96.1,134.4a10.84,10.84,0,0,0-.7,4.3,17.88,17.88,0,0,1,.7-3.3c4.4-1.5,6.7-.8,6.9,1.8C103.3,133.7,101,132.8,96.1,134.4Z"/><polygon points="71.3 149.8 65.1 156 66.1 156 71.3 150.8 71.3 149.8"/><path d="M62,190a10.84,10.84,0,0,0-.7,4.3A17.88,17.88,0,0,1,62,191c4.4-1.5,6.7-.8,6.9,1.8C69.2,189.3,66.9,188.4,62,190Z"/><path d="M74.4,183.8a10.84,10.84,0,0,0-.7,4.3,17.88,17.88,0,0,1,.7-3.3c4.4-1.5,6.7-.8,6.9,1.8C81.6,183.1,79.3,182.2,74.4,183.8Z"/><path d="M74.4,171.5a10.84,10.84,0,0,0-.7,4.3,17.88,17.88,0,0,1,.7-3.3c4.4-1.5,6.7-.8,6.9,1.8C81.6,170.8,79.3,169.8,74.4,171.5Z"/><path d="M83.7,190a10.84,10.84,0,0,0-.7,4.3,17.88,17.88,0,0,1,.7-3.3c4.4-1.5,6.7-.8,6.9,1.8C90.9,189.3,88.6,188.4,83.7,190Z"/><polygon points="58.9 85 55.8 91.1 56.3 91.1 58.9 86 58.9 85"/><path d="M71.3,196.2a9.11,9.11,0,0,0-.6,3.7,10.22,10.22,0,0,1,.6-2.7c6.3-1.6,9.6-.7,9.9,2.5C81.5,195.6,78.2,194.4,71.3,196.2Z"/><polygon points="71.3 125.1 71.3 126.1 73.4 128.2 74.4 128.2 71.3 125.1"/><path d="M50.6,105.4c.2-2.7-1.2-3.4-4.1-1.9l.4.8C49.2,103.3,50.5,103.6,50.6,105.4Z"/><path d="M72.1,143.4c.3-3.5-2-4.5-6.9-2.8a10.84,10.84,0,0,0-.7,4.3,17.88,17.88,0,0,1,.7-3.3Q71.65,139.35,72.1,143.4Z"/><path d="M80.6,134.4v1c2.8,1.8,4.3,3.5,4.6,4.9C85.5,138.6,84,136.7,80.6,134.4Z"/><path d="M50.1,116.7c2.3-1,3.5-.7,3.7,1.1.2-2.7-1.2-3.4-4.1-1.9Z"/><path d="M99.2,162.2c-1.9,2.8-2.7,4.8-2.4,5.9a15.09,15.09,0,0,1,2.4-4.9l2.7,5.3c.1,0,.3-.1.4-.1Z"/><path d="M49.6,128.2a10.84,10.84,0,0,0-.7,4.3,17.88,17.88,0,0,1,.7-3.3c4.4-1.5,6.7-.8,6.9,1.8C56.8,127.5,54.5,126.6,49.6,128.2Z"/><path d="M49.6,94.2a10.84,10.84,0,0,0-.7,4.3,17.88,17.88,0,0,1,.7-3.3c4.4-1.5,6.7-.8,6.9,1.8C56.8,93.6,54.5,92.6,49.6,94.2Z"/><polygon points="74.4 116.8 79.6 119.4 80.6 118.9 74.4 115.8 74.4 116.8"/><polygon points="49.6 194.1 57.4 199.3 58.9 199.3 49.6 193.1 49.6 194.1"/><polygon points="46.5 138.5 48.6 140.6 49.6 140.6 46.5 137.5 46.5 138.5"/><path d="M65.5,132.1c2.3-1,3.5-.7,3.7,1.1.2-2.7-1.2-3.4-4.1-1.9Z"/><polygon points="52.7 160.1 54.8 162.2 55.8 162.2 52.7 159.1 52.7 160.1"/><path d="M80.6,125.1c-1.9,2.8-2.7,4.8-2.4,5.9a15.09,15.09,0,0,1,2.4-4.9l2.7,5.3c.1,0,.3-.1.4-.1Z"/><polygon points="89.9 177.6 86.8 183.8 87.3 183.8 89.9 178.6 89.9 177.6"/><polygon points="80.6 159.1 77.5 165.3 78 165.3 80.6 160.1 80.6 159.1"/><path d="M89.9,168.4c-1.9,2.8-2.7,4.8-2.4,5.9a15.09,15.09,0,0,1,2.4-4.9l2.7,5.3c.1,0,.3-.1.4-.1Z"/><polygon points="74.4 107.6 76.5 109.7 77.5 109.7 74.4 106.6 74.4 107.6"/><path d="M65.9,206.9c.2-4.7-2.1-6.2-6.9-4.6a22.66,22.66,0,0,0-.8,5.7,24.28,24.28,0,0,1,.8-4.7Q65.6,201.2,65.9,206.9Z"/><polygon points="65.6 106.6 68.2 101.4 68.2 100.4 65.1 106.6 65.6 106.6"/><polygon points="40.9 118.9 43.5 113.8 43.5 112.8 40.4 118.9 40.9 118.9"/><path d="M105.4,128.2l.4.8c2.3-1,3.5-.7,3.7,1.1C109.7,127.4,108.3,126.7,105.4,128.2Z"/><path d="M100.1,91.5l-.6.4c0,.1.1.3.1.4l7.3,2.9,4.6-1.5-1.1-.6-3.6,1.2Z"/><path d="M94.5,97.3l.6,1.1c3.6.8,5.3-.1,5.1-2.9C99.9,97.7,98.1,98.3,94.5,97.3Z"/><path d="M108,102.8a6.46,6.46,0,0,0,.3,2.6c.1-.1.1-.2.2-.4A6.31,6.31,0,0,1,108,102.8Z"/><polygon points="77.9 68.8 77.5 69 80 73.9 80.6 74.1 77.9 68.8"/><polygon points="74.4 89.6 74.7 90.1 83.7 73.6 89.9 72.1 88.7 71.4 83.7 72.6 74.4 89.6"/><path d="M88.9,87.7a8.49,8.49,0,0,0,.6,3.5h.4A12.72,12.72,0,0,1,88.9,87.7Z"/><path d="M93,89.6l.3.9c4.3-2,6.3-4,5.9-6.1C98.9,86.1,96.8,87.9,93,89.6Z"/><path d="M96.5,108.9l5.7-2.9-1.2-.4-5,2.5A3.51,3.51,0,0,1,96.5,108.9Z"/><path d="M136.5,139.9l7.5-4.5v-1l-7.7,4.6A2.92,2.92,0,0,1,136.5,139.9Z"/><path d="M105.5,111.3l.3.3,7.3-10.2c-.2-.1-.4-.1-.6-.2l-5.4,7.6C106.5,109.8,106,110.6,105.5,111.3Z"/><path d="M132.7,136.8a4.85,4.85,0,0,0,.2,2l.3.2A11.22,11.22,0,0,1,132.7,136.8Z"/><path d="M114.6,248.7l.4.8c2.3-1,3.5-.7,3.7,1.1C118.9,247.8,117.6,247.2,114.6,248.7Z"/><polygon points="127 135.9 127.8 136.3 137.9 129.2 140.9 123 140.2 123.5 137.9 128.2 127 135.9"/><polygon points="117.9 116.8 131.7 113.8 131.7 112.8 117.7 115.8 117.9 116.8"/><path d="M126,126.5a12.72,12.72,0,0,1,1-3.5l-.4.2A8.9,8.9,0,0,0,126,126.5Z"/><path d="M103,152.7c.3-3.5-2-4.5-6.9-2.8a10.84,10.84,0,0,0-.7,4.3,17.88,17.88,0,0,1,.7-3.3Q102.7,148.65,103,152.7Z"/><polygon points="69.3 77.6 68.2 78.2 75.2 80.6 77.5 80.3 69.3 77.6"/><path d="M8.1,36.5H7.9a16.76,16.76,0,0,1,.3,1.8A12.13,12.13,0,0,0,8.1,36.5Z"/><path d="M9,41.1c.3-3.4,4-3.9,11.3-1.5v-1C12.3,35.9,8.6,36.8,9,41.1Z"/><path d="M6.8,50.9l2.6-6.6c-.1-.2-.1-.4-.2-.6L6.3,51Z"/><path d="M128.6,143.7q-5.1,2.55-4.5,4.8c.3-1.3,1.8-2.5,4.5-3.8,5.8,1.9,8.5,1.1,8.2-2.4C136.5,144.9,133.7,145.4,128.6,143.7Z"/><polygon points="0.1 44.8 0 45 0 46 0.1 45.8 0.1 44.8"/><path d="M.9,90.9C1,89.5.7,88.5,0,88v1A2.64,2.64,0,0,1,.9,90.9Z"/><polygon points="0 57 0 57.2 0.1 57.2 0 57"/><path d="M24.4,44.1a6.46,6.46,0,0,0,.3,2.6c.1-.1.1-.3.2-.4A9.83,9.83,0,0,1,24.4,44.1Z"/><polygon points="50.1 65 52.7 59.7 52.1 59.9 49.6 64.9 50.1 65"/><path d="M55.1,63.1a7.76,7.76,0,0,0,.4,3.2l.3.1A17.88,17.88,0,0,1,55.1,63.1Z"/><polygon points="62.4 81.8 65.1 75.1 65 74.5 62 81.9 62.4 81.8"/><path d="M29.5,44.8v1c3.8,1.3,5.5.6,5.2-2.1C34.5,45.6,32.8,45.9,29.5,44.8Z"/><path d="M23.9,53.7c.2-2.1,2.1-2.7,5.6-1.7V51C25.5,49.9,23.6,50.8,23.9,53.7Z"/><path d="M102.6,155.9c-.1.4-.2.7-.3,1.1q6.75-2.25,6.9,3.6C109.4,156.1,107.2,154.5,102.6,155.9Z"/><path d="M29.5,63.1c.3-1.5-.9-3.2-3.6-5.2l-1,.3C27.6,60,29.2,61.6,29.5,63.1Z"/><path d="M130.4,152.4h-.3a25.91,25.91,0,0,1,1.1,6.4A24,24,0,0,0,130.4,152.4Z"/><path d="M148.7,231.1a14.27,14.27,0,0,0,1-5.3,19.48,19.48,0,0,1-1,4.3c-4.5,2.2-6.5,4.5-6.1,6.7C142.9,234.9,144.9,233,148.7,231.1Z"/><path d="M157,223.6a2,2,0,0,1,1-1.7h-.8A3,3,0,0,0,157,223.6Z"/><path d="M164.3,238.2a29.18,29.18,0,0,0,1-6.8,30.6,30.6,0,0,1-1.1,6.4Z"/><path d="M143.1,239.2l-.6.3.4.8a4.88,4.88,0,0,0,.7-.3A9.22,9.22,0,0,1,143.1,239.2Z"/><path d="M143.6,239.9a11.12,11.12,0,0,0,2.8,2.3,2.77,2.77,0,0,0,.1-.9,14,14,0,0,1-2.2-1.6C144.2,239.8,143.9,239.8,143.6,239.9Z"/><path d="M148.3,243.3a3.82,3.82,0,0,0-.4,2.2,6.86,6.86,0,0,1,.7-2C148.6,243.4,148.4,243.4,148.3,243.3Z"/><polygon points="158.2 235.1 158 235.8 164.2 245 167.3 245 166.8 244 164.2 244 158.2 235.1"/><polygon points="146.1 254.9 148.7 249.7 148.7 248.7 145.6 254.9 146.1 254.9"/><path d="M124.2,162.3l2.8-9.9a.35.35,0,0,1-.2-.1l-2.8,10C124,162.2,124.1,162.2,124.2,162.3Z"/><path d="M154.3,245.8c.2-.1.4-.1.6-.2l-5.9-8.8-.3.5Z"/><path d="M139.4,152.9v1c4.2-1.7,6.4-1.3,6.6,1.3C146.2,151.8,144.1,151,139.4,152.9Z"/><path d="M153.9,233.5c.2-2.6,1.9-3.4,5.3-2.4l.3-.9C155.5,228.9,153.6,230,153.9,233.5Z"/><polygon points="155.9 250.7 161.1 248.1 160.6 247.4 154.9 250.2 155.9 250.7"/><path d="M154.9,158.6a8.58,8.58,0,0,0,.4-3.3,10.11,10.11,0,0,1-.4,2.3l-9.3,3.1,1.2.6Z"/><polygon points="142.5 258.9 144.6 261 145.6 261 142.5 257.9 142.5 258.9"/><polygon points="162.8 188.9 165.7 187.9 165.7 186.9 161.1 188.4 162.8 188.9"/><path d="M160.6,182.5a12,12,0,0,1,.5-2.3.35.35,0,0,1-.2-.1A5.28,5.28,0,0,0,160.6,182.5Z"/><path d="M154.8,174.3c.2-1.1,1.3-2.2,3.2-3.3l-1.1-.2C155.2,171.9,154.6,173.1,154.8,174.3Z"/><path d="M159.5,196.2l-4.2,1.4-.5,1.2,4.6-1.5c6.2,1.6,9,.7,8.7-2.8C167.9,197,165,197.6,159.5,196.2Z"/><polygon points="3.2 106.6 0 109.8 0 110.8 3.2 107.6 3.2 106.6"/><polygon points="148.7 191.5 149 192.5 157.5 191.1 158 190 148.7 191.5"/><polygon points="150.5 168.4 151.8 164.7 151.5 164.6 150.2 168.4 150.5 168.4"/><polygon points="132.8 167.8 139.4 158.6 138.5 158.9 131.7 168.4 132.8 167.8"/><polygon points="158 214.7 154.9 220.9 155.4 220.9 158 215.7 158 214.7"/><polygon points="158.2 206.4 167.3 204.9 163.5 204.5 158 205.4 158.2 206.4"/><rect x="139.4" y="220.9" width="15.5" height="1"/><path d="M9.4,251.8a10.84,10.84,0,0,0-.7,4.3,17.88,17.88,0,0,1,.7-3.3c4.4-1.5,6.7-.8,6.9,1.8C16.6,251.1,14.3,250.1,9.4,251.8Z"/><path d="M133.2,248.7a10.84,10.84,0,0,0-.7,4.3,17.88,17.88,0,0,1,.7-3.3c4.4-1.5,6.7-.8,6.9,1.8C140.4,248,138.1,247,133.2,248.7Z"/><path d="M158,220.9h0v1c.9-.6,2.5-.6,4.6,0l-.4-1.1C160.3,220.3,158.8,220.3,158,220.9Z"/><path d="M117.7,230.1l.4.8c2.3-1,3.5-.7,3.7,1.1C122,229.3,120.7,228.7,117.7,230.1Z"/><polygon points="161.3 216.8 164.2 211.1 163.6 211.3 161.1 216.2 161.3 216.8"/><path d="M123.9,248.7a10.84,10.84,0,0,0-.7,4.3,17.88,17.88,0,0,1,.7-3.3c4.4-1.5,6.7-.8,6.9,1.8C131.1,248,128.8,247,123.9,248.7Z"/><polygon points="114.6 143.7 111.5 149.8 112 149.8 114.6 144.7 114.6 143.7"/><polygon points="114.6 152.9 111.5 159.1 112 159.1 114.6 153.9 114.6 152.9"/><polygon points="112 128.2 114.6 123 114.6 122 111.5 128.2 112 128.2"/><polygon points="114.6 131.3 111.5 137.5 112 137.5 114.6 132.3 114.6 131.3"/><path d="M111.5,169.4q6.75-2.25,6.9,3.6c.2-4.7-2.1-6.2-6.9-4.6Z"/><polygon points="133.2 220.9 133.2 221.9 135.3 224 136.3 224 133.2 220.9"/><polygon points="120.8 180.7 120.8 181.7 126 184.3 127 183.8 120.8 180.7"/><polygon points="117.7 193.1 114.6 199.3 115.1 199.3 117.7 194.1 117.7 193.1"/><polygon points="117.7 180.7 114.6 186.9 115.1 186.9 117.7 181.7 117.7 180.7"/><polygon points="114.6 236.3 111.5 242.5 112 242.5 114.6 237.3 114.6 236.3"/><path d="M120.5,166.3a8.22,8.22,0,0,0-.4,3.3,17.88,17.88,0,0,1,.7-3.3Z"/><polygon points="139.4 230.1 136.3 236.3 136.8 236.3 139.4 231.1 139.4 230.1"/><polygon points="120.8 159.1 117.7 165.3 118.2 165.3 120.8 160.1 120.8 159.1"/><path d="M126.6,196.3c.1,0,.3-.1.4-.1l-3.1-6.2c-1.9,2.8-2.7,4.8-2.4,5.9a15.09,15.09,0,0,1,2.4-4.9Z"/><polygon points="114.6 215.7 119.8 218.3 120.8 217.8 114.6 214.7 114.6 215.7"/><path d="M127.8,168.1c.3-3.5-2-4.5-6.9-2.8v1Q127.35,164.05,127.8,168.1Z"/><polygon points="32.1 254.9 37.3 249.7 37.3 248.7 31.1 254.9 32.1 254.9"/><path d="M136.3,202.3h1.5l7.8-5.2c2.5-1.3,3.9-1,4.1.9.2-2.7-1.2-3.4-4.1-1.9Z"/><polygon points="148.7 168.4 148.7 169.4 151.8 181.7 159.6 186.9 161.1 186.9 151.8 180.7 148.7 168.4"/><path d="M127,199.3a10.84,10.84,0,0,0-.7,4.3,17.88,17.88,0,0,1,.7-3.3c4.4-1.5,6.7-.8,6.9,1.8C134.2,198.6,131.9,197.6,127,199.3Z"/><polygon points="149.7 211.6 154.9 206.4 154.9 205.4 148.7 211.6 149.7 211.6"/><polygon points="117.7 150.8 122.9 153.4 123.9 152.9 117.7 149.8 117.7 150.8"/><polygon points="123.9 220.9 120.8 227.1 121.3 227.1 123.9 221.9 123.9 220.9"/><polygon points="118.7 143.7 123.9 138.5 123.9 137.5 117.7 143.7 118.7 143.7"/><polygon points="108.5 140.6 105.4 146.7 105.9 146.7 108.5 141.6 108.5 140.6"/><polygon points="142.5 190 136.3 183.8 138.3 186.8 142.5 191 142.5 190"/><path d="M142.5,208.5,127,211.6l.5.9,15-3c2.5-1.3,3.9-1,4.1.9C146.8,207.7,145.4,207.1,142.5,208.5Z"/><polygon points="19.2 248.7 21.8 243.5 21.8 242.5 18.7 248.7 19.2 248.7"/><path d="M.9,121.8c.1-1.4-.2-2.4-.9-2.9v1A2.64,2.64,0,0,1,.9,121.8Z"/><polygon points="133.2 191 135.3 193.1 136.3 193.1 133.2 190 133.2 191"/><path d="M9.4,233.2v1c4.4-1.5,6.7-.8,6.9,1.8C16.6,232.6,14.3,231.6,9.4,233.2Z"/><path d="M133.2,174.5v1h6.2c2.6-1.3,4-.5,4.1,2.2.1-3.6-1.2-4.7-4.1-3.2Z"/><polygon points="130.1 230.1 127 236.3 127.5 236.3 130.1 231.1 130.1 230.1"/><path d="M3.8,236.7c.2-2.6-1.1-4-3.8-4.2v1C2.4,233.7,3.6,234.8,3.8,236.7Z"/><path d="M68.9,245.3a15.09,15.09,0,0,1,2.4-4.9l2.7,5.3c.1,0,.3-.1.4-.1l-3.1-6.2C69.4,242.2,68.6,244.2,68.9,245.3Z"/><path d="M4,257.7c.2-2.7-1.1-3.9-4-3.6v1C2.5,254.8,3.8,255.7,4,257.7Z"/><path d="M83.7,254.9a10.84,10.84,0,0,0-.7,4.3,17.88,17.88,0,0,1,.7-3.3c4.4-1.5,6.7-.8,6.9,1.8C90.9,254.2,88.6,253.2,83.7,254.9Z"/><path d="M55.8,251.8a10.84,10.84,0,0,0-.7,4.3,17.88,17.88,0,0,1,.7-3.3c4.4-1.5,6.7-.8,6.9,1.8C63,251.1,60.7,250.1,55.8,251.8Z"/><polygon points="99.2 258.9 101.3 261 102.3 261 99.2 257.9 99.2 258.9"/><path d="M29,258.1c.1-3.6-1.2-4.7-4.1-3.2l-6.2,6.2.8.2,5.4-5.4C27.5,254.6,28.9,255.3,29,258.1Z"/><polygon points="40.4 257.9 36.3 262 37.3 262 40.4 258.9 40.4 257.9"/><path d="M102.3,171.5a10.84,10.84,0,0,0-.7,4.3,17.88,17.88,0,0,1,.7-3.3c4.4-1.5,6.7-.8,6.9,1.8C109.5,170.8,107.2,169.8,102.3,171.5Z"/><path d="M133.2,236.3c-1.9,2.8-2.7,4.8-2.4,5.9a15.09,15.09,0,0,1,2.4-4.9l2.7,5.3c.1,0,.3-.1.4-.1Z"/><path d="M7.3,157.9c.2-2.7-1.2-3.4-4.1-1.9L0,159.2v1L3.2,157C5.8,155.7,7.1,156,7.3,157.9Z"/><path d="M102.3,245.6a10.84,10.84,0,0,0-.7,4.3,17.88,17.88,0,0,1,.7-3.3c4.4-1.5,6.7-.8,6.9,1.8C109.5,244.9,107.2,244,102.3,245.6Z"/><path d="M10,134.8c.3-4-3-5.2-9.9-3.5,0,.1-.1.3-.1.4v1c0-.1.1-.3.1-.4C6.4,130.7,9.7,131.6,10,134.8Z"/><path d="M.9,223.7c.1-1.4-.2-2.4-.9-2.9v1A2.85,2.85,0,0,1,.9,223.7Z"/><polygon points="0 214.3 0 214.7 0.1 214.7 0 214.3"/><path d="M3.8,181.1c.2-2.6-1.1-4-3.8-4.2v1C2.4,178.1,3.6,179.2,3.8,181.1Z"/><path d="M0,149.5v.4H.1Z"/><path d="M43.5,251.8a10.84,10.84,0,0,0-.7,4.3,17.88,17.88,0,0,1,.7-3.3c4.4-1.5,6.7-.8,6.9,1.8C50.7,251.1,48.3,250.1,43.5,251.8Z"/><path d="M112.3,260.8c.3-3.5-2-4.5-6.9-2.8a11.75,11.75,0,0,0-.8,4.1h0a14.8,14.8,0,0,1,.7-3.1C109.7,257.5,112.1,258.1,112.3,260.8Z"/><path d="M155.9,259.8c.2-2.7-1.2-3.4-4.1-1.9l.4.8C154.5,257.7,155.7,258.1,155.9,259.8Z"/><polygon points="120.8 257.9 116.8 262 117.8 262 120.8 258.9 120.8 257.9"/><path d="M164.2,255.9l-.7-.3L158,261a4.18,4.18,0,0,0-.4,1h.5l6.1-6.1Z"/><polygon points="35.2 236.3 40.4 231.1 40.4 230.1 34.2 236.3 35.2 236.3"/><path d="M78.5,253.7c.2-2.7-1.2-3.4-4.1-1.9L68.2,258c.1.2.3.4.4.6l5.8-5.8C76.9,251.5,78.3,251.8,78.5,253.7Z"/><path d="M155.9,250.7l-1-.5,5.7-2.8.5-.2-6.2-9.3a17.91,17.91,0,0,1-1-4.4c-.2-3.5,1.6-4.6,5.6-3.4l-.3.9-1.2,3.7.2.3,6,8.9h3.1l-2.9-5.8-.2-.3a25.91,25.91,0,0,0,1.1-6.4c.2-4.9-2.3-6.3-7.3-4.4a11.84,11.84,0,0,1-1-3.5,3,3,0,0,1,.2-1.7,2,2,0,0,1,.8-1h-3.1V227l-6.2,9.3.3.5,5.9,8.8c-.2.1-.4.1-.6.2-3.9,1.2-6,1.1-6.4-.3a3.94,3.94,0,0,1,.4-2.2,3,3,0,0,1,.4-.8,19.61,19.61,0,0,1-2.1-1.2h0c0,.3-.1.6-.1.9a21,21,0,0,1-.9,3.3l-2.7-5.4-.4-.8.6-.3a1.42,1.42,0,0,1,.6-.2,4.29,4.29,0,0,1-1.1-2.1c-.4-2.2,1.7-4.5,6.1-6.7a19.48,19.48,0,0,0,1-4.3c.2-2.7-1.2-3.4-4.1-1.9l-6.2,3.1v-6.2h15.5l3.1-6.2v6.2c.9-.5,2.3-.6,4.3-.1.1,0,.2.1.4.1l-1.3-4-.2-.6,2.5-5,.6-1.2-4.6,1.5-1.3-5.2-.2-1,5.5-.9,3.8-.6L152,202.2l-2.8-9.9-.3-1,9.3-1.5-.4,1.1-2.7,6.7.5-.2,4.2-1.4c5.5,1.4,8.4.9,8.7-1.8a9.33,9.33,0,0,0-1-4.4l-4.5-1.1-1.7-.4,4.6-1.5v-3.1c-3.2,1.2-4.9.7-5.1-1.3a5.57,5.57,0,0,1,.3-2.4c.1-.3.1-.6.2-.9-3.8-1.6-5.9-3.3-6.2-4.9-.3-1.2.4-2.4,2-3.6a10.47,10.47,0,0,1,1.1-.8l-7.4-1.5-.3-.1,1.3-3.8.3-.9-5-2.5-1.2-.6v3.1l-4.6,7.7-3.1-6.2-5.1,2.5-1.1.6,6.8-9.5.9-1.3-4.6,1.5-1.5-7.7h-3.1c.1.3.2.7.3,1a21.1,21.1,0,0,1,.9,6.4c-.2,4-2.6,5.1-7.1,3.5-.1,0-.2-.1-.3-.1l2.8-10,.2-.9c-1.7-.9-2.7-1.9-3-2.9q-.6-2.4,4.5-4.8c5.2,1.7,7.9,1.2,8.2-1.4a6.33,6.33,0,0,0-.2-2.3c-.1-.3-.1-.6-.2-.9l7.7-4.6V131l-6.2,3.1q-5.55-1.8-5.1,2.4a11.22,11.22,0,0,0,.5,2.2l-.3-.2-5.1-2.5-.8-.4,10.8-7.7,2.3-4.7.8-1.5-9.3,6.2c-3.5,1-5.4.4-5.6-1.7a9.05,9.05,0,0,1,.5-3.3c.1-.4.3-.8.4-1.2l-7.7,3.1-1.4-8.3-.2-1,13.9-3.1v-3.1l-9.3,3.1-10.8-3.1-1.5,6.2-4.2-4.2-.3-.3-.1-.1,1.7-2.4,5.4-7.6.6-.8q-5.55-1.8-5.1,2.4a11.22,11.22,0,0,0,.5,2.2c-.1.1-.1.2-.2.4-3.9,8.6-7.8,9.7-11.7,3.5-.2-.3-.3-.5-.5-.8l5-2.5,1.2-.6-4.6-1.5-2.5-5-.6-1.1c3.5,1,5.4.4,5.6-1.7a9.05,9.05,0,0,0-.5-3.3c0-.1-.1-.2-.1-.4s-.2-.5-.3-.8l.9.4,6.8,2.7,3.6-1.2,1.1-.4-7.7-4.6L94.9,94l-1.3-3.8-.6-.6c3.8-1.7,5.9-3.4,6.2-5.2s-1.2-3.7-4.7-5.6V85c-4-1.1-5.9-.2-5.6,2.7a12.72,12.72,0,0,0,1,3.5H80.6L79,97.3l-4.4-7.2-.3-.5,9.3-17,5-1.3,1.2-.3-7.7-4.6L77.5,68l.4.9,2.7,5.3-.6-.3-4-1.3-7.7,4.6,1.1.4,8.2,2.7-2.3.2L62.6,81.8h-.4l3-7.4.1-.4L62,60.2c-4.9-1.6-7.2-.7-6.9,2.8a17.88,17.88,0,0,0,.7,3.3l-.3-.1L50.1,65l-.4-.1,2.5-5,.6-1.2-4.6,1.5L35.8,54,25,57.1a8.65,8.65,0,0,1,1,.7c2.7,2,3.9,3.7,3.6,5.2-.3,1.3-1.8,2.5-4.6,3.4V57.1a11.84,11.84,0,0,1-1-3.5c-.3-2.9,1.6-3.8,5.6-2.7V44.7c3.2,1.1,5,.8,5.2-1.1a8.49,8.49,0,0,0-.6-3.5l-4.6,1.5Q24,39.8,24.5,44a11.22,11.22,0,0,0,.5,2.2c-.1.1-.1.3-.2.4-2.4,5.4-4.9,5.8-7.6,1.2l-10.4,3-.5.2,2.9-7.3.2-.4A11.53,11.53,0,0,1,9,41.1c-.4-4.3,3.4-5.1,11.3-2.5V35.5H7.9c.1.3.1.7.2,1a12.13,12.13,0,0,1,.1,1.8c-.2,3.2-3,4.6-8.1,4.3V45l.1-.2V51H0v6l.1.1H0V88a3.31,3.31,0,0,1,.9,2.9,17.88,17.88,0,0,1-.7,3.3H.1v15.5l3.2-3.2v6.2H0v6.1a3.31,3.31,0,0,1,.9,2.9A17.88,17.88,0,0,1,.2,125H.1v6.6c0-.1.1-.3.1-.4,6.9-1.7,10.2-.6,9.9,3.5a10.22,10.22,0,0,1-.6,2.7c-5.1,1.3-8.3,1-9.4-.9v12.9l.1.4H.1v9.4L3.3,156c2.9-1.5,4.3-.8,4.1,1.9a19.48,19.48,0,0,1-1,4.3c-1.5,4.6-3.6,5.8-6.3,3.5v11.2c2.7.2,4,1.6,3.8,4.2a10.22,10.22,0,0,1-.6,2.7,26.09,26.09,0,0,1-3.3.6v29.9l.1.4H0v6.1a3.31,3.31,0,0,1,.9,2.9A17.88,17.88,0,0,1,.2,227l-.2.1v5.4c2.7.2,4,1.6,3.8,4.2a10.22,10.22,0,0,1-.6,2.7A22.09,22.09,0,0,1,0,240v14.1c2.8-.3,4.2.9,4,3.6a17.88,17.88,0,0,1-.7,3.3,10.93,10.93,0,0,1-3.2.7v.2H6.4v-1c3.2-1.1,5.3-.7,6.3,1h9l-2.2-.7-.8-.2,6.2-6.2c2.9-1.4,4.3-.4,4.1,3.2a20.79,20.79,0,0,1-.5,3.9h7.8l4.1-4.1v4.1h5.9c.1-.3.2-.6.3-1,3.9-1.3,6.1-1,6.8,1H72a12.51,12.51,0,0,1-3.3-3.5c-.1-.2-.3-.4-.4-.6l6.2-6.2c2.9-1.5,4.3-.8,4.1,1.9a19.48,19.48,0,0,1-1,4.3,10,10,0,0,1-2.3,4.1H80a8.79,8.79,0,0,0,.6-1l.5,1h23.5a12.17,12.17,0,0,1,.8-4.1c4.9-1.6,7.2-.7,6.9,2.8a5,5,0,0,1-.2,1.2h4.6l4.1-4.1v4.1h8.6c.2-.3.4-.6.7-1l.3,1h23.4l-1.6-3.2-.4-.8c2.9-1.5,4.3-.8,4.1,1.9a11.53,11.53,0,0,1-.4,2.2h2a6.89,6.89,0,0,1,.4-1l5.5-5.5.7-.7v1h0v6.1h4.2l-1.1-5.6Zm-20-8.1c-3.1,1-4.8.8-5.1-.4s.5-3.1,2.4-5.9l3.1,6.2A.6.6,0,0,1,135.9,242.6ZM133.2,224v-3.1l3.1,3.1h-3.1Zm3.6,12.3h-.5l3.1-6.2v6.2ZM112,242.5h-.5l3.1-6.2v6.2Zm15.8-74.4a17.88,17.88,0,0,1-.7,3.3c-4.4,1.5-6.7.8-6.9-1.8a10.52,10.52,0,0,1,.4-3.3c.1-.3.2-.7.3-1h-3.1l3.1-6.2v6.2C125.7,163.6,128,164.6,127.8,168.1Zm-6.3,27.8c-.3-1.1.5-3.1,2.4-5.9l3.1,6.2a.76.76,0,0,1-.4.1C123.5,197.3,121.8,197.1,121.5,195.9Zm-.7,21.9-1,.5-5.2,2.6v-6.2Zm-6.2-18.5,3.1-6.2v6.2h-3.1Zm0-12.4,3.1-6.2v6.2h-3.1Zm-3.1-27.8,3.1-6.2v6.2h-3.1Zm0-9.3,3.1-6.2v6.2h-3.1Zm0-12.3,3.1-6.2v6.2h-3.1Zm7,35.4a24.28,24.28,0,0,1-.8,4.7l-6.2-3.1v-6.2C116.4,166.8,118.7,168.3,118.5,172.9Zm7.5,11.4-5.2,2.6v-6.2l6.2,3.1ZM114.6,123v5.2h-3.1l3.1-6.2Zm6.7,104.1h-.5l3.1-6.2v6.2Zm6.2,9.2H127l3.1-6.2v6.2Zm19.1-25.9a19.48,19.48,0,0,1-1,4.3l-15.5,3.1-2.6-5.3-.5-.9,15.5-3.1C145.4,207.1,146.8,207.7,146.6,210.4Zm-3.1-32.6a36.92,36.92,0,0,1-1,6l-3.1-3.1-6.2,3.1v-9.3h6.2C142.3,173.1,143.7,174.2,143.5,177.8Zm-7.2,15.3h-3.1V190Zm2-6.3-2-3,6.2,6.2v3.1Zm16.6,19.6v5.2h-6.2l6.2-6.2Zm4.7-19.5H148.7V168.4l3.1,12.4,9.3,6.2h-1.5Zm-9.9,11.2a19.48,19.48,0,0,1-1,4.3H136.3l9.3-6.2C148.5,194.7,149.9,195.3,149.7,198.1Zm-15.7,4a17.88,17.88,0,0,1-.7,3.3c-4.4,1.5-6.7.8-6.9-1.8a10.84,10.84,0,0,1,.7-4.3C131.9,197.6,134.2,198.6,134,202.1Zm-11.1-48.7-5.2,2.6v-6.2l6.2,3.1Zm1-14.9v5.2h-6.2l6.2-6.2Zm-18,8.2h-.5l3.1-6.2v6.2Zm-6,101.7a17.88,17.88,0,0,1-.7,3.3c-4.4,1.5-6.7.8-6.9-1.8a10.84,10.84,0,0,1,.7-4.3C97.9,244,100.2,244.9,99.9,248.4Zm-14.1-2.3-5.2,2.6v-6.2l6.2,3.1ZM69,229.9a17.88,17.88,0,0,1-.7,3.3c-4.4,1.5-6.7.8-6.9-1.8a10.84,10.84,0,0,1,.7-4.3C66.9,225.4,69.2,226.4,69,229.9Zm-9.3,12.4a17.88,17.88,0,0,1-.7,3.3l-6.2,3.1v-9.3C57.6,237.8,59.9,238.7,59.7,242.3Zm-13.6,3.4c-3.1,1-4.8.8-5.1-.4s.5-3.1,2.4-5.9l3.1,6.2C46.4,245.6,46.3,245.7,46.1,245.7Zm-11.2-3.4a17.88,17.88,0,0,1-.7,3.3L28,248.7v-9.3C32.9,237.8,35.2,238.7,34.9,242.3ZM3.2,211.6c6.9-1.7,10.2-.6,9.9,3.5a10.22,10.22,0,0,1-.6,2.7c-6.3,1.6-9.6.7-9.9-2.5A9.11,9.11,0,0,1,3.2,211.6Zm0-12.3c4.9-1.6,7.2-.7,6.9,2.8a17.88,17.88,0,0,1-.7,3.3c-4.4,1.5-6.7.8-6.9-1.8A10.6,10.6,0,0,1,3.2,199.3ZM12,119.7c-3.6,5.1-5.5,4.1-5.7-2.8v-1l6.2,3.1A4.23,4.23,0,0,0,12,119.7ZM3.2,103.5l3.1-6.2v6.2H3.2ZM38,115.6a17.88,17.88,0,0,1-.7,3.3c-4.4,1.5-6.7.8-6.9-1.8a10.84,10.84,0,0,1,.7-4.3C36,111.1,38.3,112.1,38,115.6ZM31.1,66.4l6.2-6.2v6.2H31.1Zm18.5,3.1c2.9-1.5,4.3-.8,4.1,1.9a19.48,19.48,0,0,1-1,4.3L50,70.3Zm47.5,45.1a19.48,19.48,0,0,1-1,4.3l-2.7-5.4-.4-.8C95.9,111.3,97.3,111.9,97.1,114.6Zm-1,84.7,6.2,3.1a4.23,4.23,0,0,1-.5.7c-3.6,5.1-5.5,4.1-5.7-2.8Zm0-6.2,3.1-6.2v6.2H96.1Zm0-12.4,3.1-6.2v6.2H96.1Zm6.9,46.1a17.88,17.88,0,0,1-.7,3.3c-4.4,1.5-6.7.8-6.9-1.8a10.84,10.84,0,0,1,.7-4.3C101,222.3,103.3,223.3,103,226.8ZM86.8,239.4l6.2-6.2v6.2H86.8ZM92,227.6l-5.2,2.6V224l6.2,3.1Zm3.8-9.7c-4.2,1-6.4.6-6.7-1.2-.3-1.6,1-4.3,3.9-8.2l3.1,9.3A.37.37,0,0,0,95.8,217.9ZM49.6,236.3l3.1-6.2,3.1,3.1-.7.3-4.9,2.4Zm.5-24.7h-.5l3.1-6.2v6.2Zm2.6-30.9c4.9-1.6,7.2-.7,6.9,2.8a17.88,17.88,0,0,1-.7,3.3c-4.4,1.5-6.7.8-6.9-1.8A11.09,11.09,0,0,1,52.7,180.7Zm0-12.3c4.9-1.6,7.2-.7,6.9,2.8a17.88,17.88,0,0,1-.7,3.3c-4.4,1.5-6.7.8-6.9-1.8A10.84,10.84,0,0,1,52.7,168.4ZM25.9,221a36.92,36.92,0,0,1-1,6l-8.5-2.8-.8-.2,6.2-6.2C24.7,216.3,26,217.4,25.9,221ZM15.6,205.4c4.9-1.6,7.2-.7,6.9,2.8a17.88,17.88,0,0,1-.7,3.3c-4.4,1.5-6.7.8-6.9-1.8A11.09,11.09,0,0,1,15.6,205.4Zm-3.1-11.3v-1l9.3,3.1-1.5.5-7.8,2.6Zm3.1-19.6,6.2-6.2c2.9-1.5,4.3-.8,4.1,1.9a19.48,19.48,0,0,1-1,4.3H15.6Zm3.1-40.1,6.2,3.1a4.23,4.23,0,0,1-.5.7c-3.6,5.1-5.5,4.1-5.7-2.8ZM9.4,109.7l6.2-6.2v6.2H9.4Zm3.1-18.6H9.4V88Zm5.2-27.8H15.6V60.2l3.1,3.1Zm1,9.3H15.6V69.5Zm24.8,40.2V119H40.4ZM40.4,91.1l3.1-6.2v6.2H40.4Zm2.1,37.1H40.4v-3.1l3.1,3.1Zm-5.2-27.8,3.1,6.2a.76.76,0,0,1-.4.1c-3.1,1-4.8.8-5.1-.4S35.4,103.2,37.3,100.4Zm0-18.5H34.2V78.8Zm3.8,67.7a17.88,17.88,0,0,1-.7,3.3c-4.4,1.5-6.7.8-6.9-1.8a10.84,10.84,0,0,1,.7-4.3C39.1,145.1,41.4,146.1,41.1,149.6ZM21.8,112.8l3.1,3.1-.7.3-4.9,2.4-.7.3ZM38,137.2a17.88,17.88,0,0,1-.7,3.3c-4.4,1.5-6.7.8-6.9-1.8a10.84,10.84,0,0,1,.7-4.3C36,132.8,38.3,133.7,38,137.2Zm-9.3,11a24.28,24.28,0,0,1-.8,4.7l-6.2-3.1v-6.2C26.6,142,28.9,143.6,28.7,148.2Zm7,13.7c-.3,1.3-1.8,2.5-4.6,3.4-4.2,1.4-6.5,1.4-6.9-.1a4.88,4.88,0,0,1,.7-3l6.2-6.2C34.5,158.3,36,160.3,35.7,161.9ZM31.8,128a17.88,17.88,0,0,1-.7,3.3c-4.4,1.5-6.7.8-6.9-1.8a10.84,10.84,0,0,1,.7-4.3C29.8,123.5,32.1,124.4,31.8,128Zm-3.1-21.7a17.88,17.88,0,0,1-.7,3.3c-4.4,1.5-6.7.8-6.9-1.8a10.84,10.84,0,0,1,.7-4.3C26.7,101.9,29,102.8,28.7,106.3Zm-9-10.2a19.48,19.48,0,0,1-1,4.3L16,95l-.4-.8C18.5,92.8,19.9,93.4,19.7,96.1ZM14.6,81.9H12.5V78.8l3.1,3.1Zm4.1,46.3H15.6v-3.1Zm13.4,82.2a19.48,19.48,0,0,1-1,4.3l-2.7-5.4-.4-.8C30.9,207.1,32.3,207.7,32.1,210.4Zm1.1-11.1H31.1v-3.1l3.1,3.1Zm2.5-12.7c-.3,1.3-1.8,2.5-4.6,3.4-4.2,1.4-6.5,1.4-6.9-.1a4.88,4.88,0,0,1,.7-3l6.2-6.2C34.5,183,36,185,35.7,186.6Zm-4.6-14.1v-1l6.2,3.1a4.23,4.23,0,0,1-.5.7C33.1,180.4,31.3,179.4,31.1,172.5Zm16.2,17.2a17.88,17.88,0,0,1-.7,3.3c-4.4,1.5-6.7.8-6.9-1.8a10.84,10.84,0,0,1,.7-4.3C45.3,185.3,47.6,186.2,47.3,189.7Zm0-12.3a17.88,17.88,0,0,1-.7,3.3c-4.4,1.5-6.7.8-6.9-1.8a10.84,10.84,0,0,1,.7-4.3C45.3,172.9,47.6,173.9,47.3,177.4Zm0-12.4a17.88,17.88,0,0,1-.7,3.3c-4.4,1.5-6.7.8-6.9-1.8a10.84,10.84,0,0,1,.7-4.3C45.3,160.6,47.6,161.5,47.3,165Zm-.8-18.3c4.9-1.6,7.2-.7,6.9,2.8a17.88,17.88,0,0,1-.7,3.3c-4.4,1.5-6.7.8-6.9-1.8A11.09,11.09,0,0,1,46.5,146.7Zm0-43.2c2.9-1.5,4.3-.8,4.1,1.9a19.48,19.48,0,0,1-1,4.3l-2.7-5.4Zm9.3-12.4,3.1-6.2v6.2H55.8ZM90.6,192.8a17.88,17.88,0,0,1-.7,3.3c-4.4,1.5-6.7.8-6.9-1.8a10.84,10.84,0,0,1,.7-4.3C88.6,188.4,90.9,189.3,90.6,192.8Zm-9.4,6.8a10.22,10.22,0,0,1-.6,2.7c-6.3,1.6-9.6.7-9.9-2.5a9.11,9.11,0,0,1,.6-3.7C78.2,194.4,81.5,195.6,81.2,199.6Zm-16.1-59c4.9-1.6,7.2-.7,6.9,2.8a17.88,17.88,0,0,1-.7,3.3c-4.4,1.5-6.7.8-6.9-1.8A10.84,10.84,0,0,1,65.1,140.6Zm8.3-12.4H71.3v-3.1l3.1,3.1Zm-5.2-12.4v-3.1l3.1,3.1H68.2ZM66.1,156h-1l6.2-6.2V156Zm2.1,6.2,3.1,9.3-.4-.1-8.2-2.7-.8-.2ZM62,180.7v-6.2l9.3,6.2c-.1.3-.2.5-.3.8C69,186.9,66,186.6,62,180.7Zm-3.1-37v-3.1l3.1,3.1H58.9ZM69,192.8a17.88,17.88,0,0,1-.7,3.3c-4.4,1.5-6.7.8-6.9-1.8a10.84,10.84,0,0,1,.7-4.3C66.9,188.4,69.2,189.3,69,192.8Zm12.3-6.1a17.88,17.88,0,0,1-.7,3.3c-4.4,1.5-6.7.8-6.9-1.8a10.84,10.84,0,0,1,.7-4.3C79.3,182.2,81.6,183.1,81.3,186.7Zm0-12.4a17.88,17.88,0,0,1-.7,3.3c-4.4,1.5-6.7.8-6.9-1.8a10.84,10.84,0,0,1,.7-4.3C79.3,169.8,81.6,170.8,81.3,174.3Zm-.7-55.4-1,.5L74.4,122v-6.2ZM78,165.3h-.5l3.1-6.2v6.2Zm5.3-33.9c-3.1,1-4.8.8-5.1-.4s.5-3.1,2.4-5.9l3.1,6.2C83.5,131.3,83.4,131.4,83.3,131.4Zm3.5,52.4,3.1-6.2v6.2H86.8Zm5.7-9.1c-3.1,1-4.8.8-5.1-.4s.5-3.1,2.4-5.9l3.1,6.2A.76.76,0,0,0,92.5,174.7Zm-7.3-34.4c-.3,1.3-1.8,2.5-4.6,3.4v-9.3C84,136.7,85.5,138.6,85.2,140.3Zm-7.7-30.6H74.4v-3.1Zm-9.3-9.3v6.2H65.1Zm1,32.8a19.48,19.48,0,0,1-1,4.3l-2.7-5.4-.4-.8C68.1,129.8,69.4,130.5,69.2,133.2ZM56.6,97.1a17.88,17.88,0,0,1-.7,3.3c-4.4,1.5-6.7.8-6.9-1.8a10.84,10.84,0,0,1,.7-4.3C54.5,92.6,56.8,93.6,56.6,97.1Zm-2.9,20.6a19.48,19.48,0,0,1-1,4.3L50,116.6l-.4-.8C52.6,114.4,53.9,115,53.7,117.7Zm2.9,13.4a17.88,17.88,0,0,1-.7,3.3c-4.4,1.5-6.7.8-6.9-1.8a10.84,10.84,0,0,1,.7-4.3C54.5,126.6,56.8,127.5,56.6,131.1Zm-7,9.5H46.5v-3.1Zm6.2,21.6H52.7v-3.1Zm3.1,37.1H49.6v-6.2Zm0,3c4.8-1.6,7.1-.1,6.9,4.6a24.28,24.28,0,0,1-.8,4.7q-6.75,2.25-6.9-3.6A28.47,28.47,0,0,1,58.9,202.3Zm5.7,21.2a3.49,3.49,0,0,1,.6-2.6l6.2-6.2,3.1,9.3a.37.37,0,0,0-.3.1Q65.2,226.2,64.6,223.5Zm12.5-11.8c-3.1,1-4.8.8-5.1-.4s.5-3.1,2.4-5.9l3.1,6.2A.76.76,0,0,1,77.1,211.7Zm4,9.2h-.5l3.1-6.2v6.2Zm3.3-12.7c-.3-1.1.5-3.1,2.4-5.9l3.1,6.2a.76.76,0,0,1-.4.1C86.4,209.6,84.7,209.5,84.4,208.2Zm10.1-49.4c-.3,1.3-1.8,2.5-4.6,3.4-2.8-.9-4.3-2-4.6-3.4-.4-1.6,1.2-3.6,4.6-5.9C93.3,155.2,94.8,157.2,94.5,158.8Zm-4.6-18.2,3.1,9.3a.37.37,0,0,0-.3.1c-4.2,1-6.4.6-6.7-1.2S87,144.4,89.9,140.6Zm3.8-6.5a17.88,17.88,0,0,1-.7,3.3c-4.4,1.5-6.7.8-6.9-1.8a10.84,10.84,0,0,1,.7-4.3C91.7,129.7,94,130.6,93.7,134.1Zm-2.8-13.3a19.48,19.48,0,0,1-1,4.3l-2.7-5.4-.4-.8C89.7,117.5,91.1,118.1,90.9,120.8Zm-3.6-20.4h-.5l3.1-6.2v6.2Zm-2.9,2.9a17.88,17.88,0,0,1-.7,3.3c-4.4,1.5-6.7.8-6.9-1.8a10.84,10.84,0,0,1,.7-4.3C82.4,98.8,84.7,99.7,84.4,103.3Zm-9-7.2a19.48,19.48,0,0,1-1,4.3L71.7,95l-.4-.8C74.3,92.8,75.6,93.4,75.4,96.1ZM64.8,91.7l.3-.6a2.67,2.67,0,0,1-.7-1.8,10.84,10.84,0,0,1,.7-4.3c4.9-1.6,7.2-.7,6.9,2.8a17.88,17.88,0,0,1-.7,3.3c-3.1,1-5.2,1-6.2,0v1h0v5.2H62Zm1.1,30.1a17.88,17.88,0,0,1-.7,3.3c-4.4,1.5-6.7.8-6.9-1.8A10.84,10.84,0,0,1,59,119C63.8,117.3,66.1,118.3,65.9,121.8ZM52.7,85v6.2H49.6Zm-4.1-3.1H46.5V78.8l3.1,3.1ZM27.5,82c-3.1,1-4.8.8-5.1-.4s.5-3.1,2.4-5.9l3.1,6.2C27.8,81.9,27.7,82,27.5,82Zm-1.9,5.8a17.88,17.88,0,0,1-.7,3.3c-4.4,1.5-6.7.8-6.9-1.8a10.84,10.84,0,0,1,.7-4.3C23.6,83.3,25.9,84.3,25.6,87.8ZM7.3,71.4a19.48,19.48,0,0,1-1,4.3L3.6,70.3l-.4-.8C6.2,68,7.5,68.7,7.3,71.4Zm-1-10.2v5.2H3.2l3.1-6.2Zm13.1,99.4a24.28,24.28,0,0,1-.8,4.7q-6.75,2.25-6.9-3.6a18.83,18.83,0,0,1,.8-5.7C17.3,154.4,19.6,155.9,19.4,160.6Zm-3.1,23a17.88,17.88,0,0,1-.7,3.3c-4.4,1.5-6.7.8-6.9-1.8a10.84,10.84,0,0,1,.7-4.3C14.3,179.1,16.6,180,16.3,183.6Zm-3.1,43.2a17.88,17.88,0,0,1-.7,3.3c-4.4,1.5-6.7.8-6.9-1.8a10.84,10.84,0,0,1,.7-4.3C11.2,222.3,13.5,223.3,13.2,226.8Zm8.6,4.3v-1c4.9-1.6,7.2-.7,6.9,2.8a17.88,17.88,0,0,1-.7,3.3l-6.2,3.1Zm15-3.9c-3.1,1-4.8.8-5.1-.4s.5-3.1,2.4-5.9l3.1,6.2A.76.76,0,0,0,36.8,227.2Zm8.2-9.4H37.2v-6.2l9.3,6.2Zm2.6-16.7a19.48,19.48,0,0,1-1,4.3H37.3l6.2-6.2C46.4,197.8,47.8,198.4,47.6,201.1Zm12.1,21.3a24.28,24.28,0,0,1-.8,4.7q-6.75,2.25-6.9-3.6a18.83,18.83,0,0,1,.8-5.7C57.6,216.2,59.9,217.7,59.7,222.4Zm14,13.8a4.88,4.88,0,0,1,.7-3l6.2-6.2v9.3C76.4,237.7,74.1,237.7,73.7,236.2Zm26.1,3.5-.7-.3,6.2-6.2v9.3Zm8.2-24.9c-3.1,1-4.8.8-5.1-.4s.5-3.1,2.4-5.9l3.1,6.2C108.3,214.7,108.2,214.8,108,214.8Zm-2.1-12.5h-.5l3.1-6.2v6.2Zm0-12.3h-.5l3.1-6.2V190Zm-4.1-21.5c-3.1,1-4.8.8-5.1-.4s.5-3.1,2.4-5.9l3.1,6.2C102.1,168.4,102,168.5,101.8,168.5Zm1.2-31.3a17.88,17.88,0,0,1-.7,3.3c-4.4,1.5-6.7.8-6.9-1.8a10.84,10.84,0,0,1,.7-4.3C101,132.8,103.3,133.7,103,137.2Zm3.1-18.5a17.88,17.88,0,0,1-.7,3.3c-3.1,1-5.2,1-6.2,0v1h0v8.3l-5.5-2.8-.7-.3,5.8-5.8.4-.4a2.67,2.67,0,0,1-.7-1.8,10.84,10.84,0,0,1,.7-4.3C104.1,114.2,106.4,115.2,106.1,118.7ZM94,105.4a19.48,19.48,0,0,1-1,4.3l-2.7-5.4-.4-.8C92.8,102,94.2,102.7,94,105.4ZM58.9,81.9a.76.76,0,0,1-.4.1c-3.1,1-4.8.8-5.1-.4s.5-3.1,2.4-5.9ZM46.5,60.5v6h-3l3-6v0ZM31.1,97.3H28V94.2ZM18.7,51v6.2H15.6L18.7,51ZM3.2,81.9H.1V78.8Zm13,65.2a10.22,10.22,0,0,1-.6,2.7c-6.3,1.6-9.6.7-9.9-2.5a9.11,9.11,0,0,1,.6-3.7C13.2,141.9,16.5,143.1,16.2,147.1Zm-3.1,24.7a10.22,10.22,0,0,1-.6,2.7c-6.3,1.6-9.6.7-9.9-2.5a9.11,9.11,0,0,1,.6-3.7C10.1,166.6,13.4,167.8,13.1,171.8ZM6.3,186.9l3.1,6.2H.1Zm0,55.6c3.4,2.3,5,4.2,4.6,5.9-.3,1.3-1.8,2.5-4.6,3.4-2.8-.9-4.3-2-4.6-3.4C1.4,246.7,2.9,244.8,6.3,242.5Zm10,12.1a17.88,17.88,0,0,1-.7,3.3c-4.4,1.5-6.7.8-6.9-1.8a10.84,10.84,0,0,1,.7-4.3C14.3,250.1,16.6,251.1,16.3,254.6Zm0-18.5a17.88,17.88,0,0,1-.7,3.3l-6.2,3.1v-9.3C14.3,231.6,16.6,232.6,16.3,236.1Zm5.5,7.4v5.2H18.7l3.1-6.2Zm15.5,6.2v5.2H31.1l6.2-6.2Zm3.1-18.6v5.2H34.2l6.2-6.2Zm10,23.5a17.88,17.88,0,0,1-.7,3.3c-4.4,1.5-6.7.8-6.9-1.8a10.84,10.84,0,0,1,.7-4.3C48.3,250.1,50.7,251.1,50.4,254.6Zm12.4,0a17.88,17.88,0,0,1-.7,3.3c-4.4,1.5-6.7.8-6.9-1.8a10.84,10.84,0,0,1,.7-4.3C60.7,250.1,63,251.1,62.8,254.6ZM74,245.7c-3.1,1-4.8.8-5.1-.4s.5-3.1,2.4-5.9l3.1,6.2C74.3,245.6,74.1,245.7,74,245.7Zm16.6,12a17.88,17.88,0,0,1-.7,3.3c-4.4,1.5-6.7.8-6.9-1.8a10.84,10.84,0,0,1,.7-4.3C88.6,253.2,90.9,254.2,90.6,257.7Zm10.7,3.3H99.2v-3.1l3.1,3.1Zm7.9-12.6a17.88,17.88,0,0,1-.7,3.3c-4.4,1.5-6.7.8-6.9-1.8a10.84,10.84,0,0,1,.7-4.3C107.2,244,109.5,244.9,109.2,248.4Zm0-74.1a17.88,17.88,0,0,1-.7,3.3c-4.4,1.5-6.7.8-6.9-1.8a10.84,10.84,0,0,1,.7-4.3C107.2,169.8,109.5,170.8,109.2,174.3Zm0-13.7a24.28,24.28,0,0,1-.8,4.7l-6.2-3.1V156c-4.4,1.5-6.7.8-6.9-1.8a10.84,10.84,0,0,1,.7-4.3c4.9-1.6,7.2-.7,6.9,2.8a17.88,17.88,0,0,1-.7,3.3c.1,0,.2-.1.3-.1C107.2,154.5,109.4,156.1,109.2,160.6Zm.3-30.5a19.48,19.48,0,0,1-1,4.3l-2.7-5.4-.4-.8C108.3,126.7,109.7,127.4,109.5,130.1Zm9.2,120.5a19.48,19.48,0,0,1-1,4.3l-2.7-5.4-.4-.8C117.6,247.2,118.9,247.8,118.7,250.6Zm3.1-18.6a19.48,19.48,0,0,1-1,4.3l-2.7-5.4-.4-.8C120.7,228.7,122,229.3,121.8,232Zm9.1,19.5a17.88,17.88,0,0,1-.7,3.3c-4.4,1.5-6.7.8-6.9-1.8a10.84,10.84,0,0,1,.7-4.3C128.8,247,131.1,248,130.9,251.5Zm9.2,0a17.88,17.88,0,0,1-.7,3.3c-4.4,1.5-6.7.8-6.9-1.8a10.84,10.84,0,0,1,.7-4.3C138.1,247,140.4,248,140.1,251.5Zm4.5,9.5h-2.1v-3.1l3.1,3.1Zm4.1-11.3v5.2h-3.1l3.1-6.2Z"/><path d="M143.6,238.9a6,6,0,0,0,.8.8,14,14,0,0,0,2.2,1.6h0Q146.9,237.85,143.6,238.9Z"/><path d="M155.3,155.2c.2-3.4-2-4.2-6.6-2.3v-6.2h-9.3v6.2c4.6-1.9,6.8-1.1,6.6,2.3a10.11,10.11,0,0,1-.4,2.3v3.1l9.3-3.1A10.11,10.11,0,0,0,155.3,155.2Z"/></g></svg>