<?xml version="1.0" encoding="utf-8"?>
<!-- Generator: Adobe Illustrator 22.0.0, SVG Export Plug-In . SVG Version: 6.00 Build 0)  -->
<svg version="1.1" id="Layer_1" xmlns="http://www.w3.org/2000/svg" xmlns:xlink="http://www.w3.org/1999/xlink" x="0px" y="0px"
	 viewBox="0 0 171.1 267.4" style="enable-background:new 0 0 171.1 267.4;" xml:space="preserve">
<style type="text/css">
	.st0{fill:#D3F3FF;}
	.st1{opacity:0.3;}
	.st2{fill:none;}
	.st3{fill:#060606;}
	.st4{fill:#2D2D2D;}
	.st5{fill:#1A1A1A;}
	.st6{fill:#9B9B9B;}
	.st7{fill:#A5A5A5;}
	.st8{fill:#646464;}
	.st9{fill:#6C6C6C;}
	.st10{fill:#303030;}
	.st11{fill:#2E2E2E;}
	.st12{fill:#525252;}
	.st13{fill:#373737;}
	.st14{fill:#151515;}
	.st15{fill:#1E1E1E;}
	.st16{fill:#242424;}
	.st17{fill:#212121;}
	.st18{fill:#3E3E3E;}
	.st19{fill:#515151;}
	.st20{fill:#575757;}
	.st21{fill:#8C8C8C;}
	.st22{fill:#7D7D7D;}
	.st23{fill:#8D8D8D;}
	.st24{fill:#848484;}
	.st25{fill:#383838;}
	.st26{fill:#727272;}
	.st27{fill:#555555;}
	.st28{fill:#7B7B7B;}
	.st29{fill:#0F0F0F;}
	.st30{fill:#444444;}
	.st31{fill:#747474;}
	.st32{fill:#6E6E6E;}
	.st33{fill:#777777;}
	.st34{fill:#979797;}
	.st35{fill:#858585;}
	.st36{fill:#606060;}
	.st37{fill:#4E4E4E;}
	.st38{fill:#6D6D6D;}
	.st39{fill:#121212;}
	.st40{fill:#999999;}
	.st41{fill:#A1A1A1;}
	.st42{fill:#898989;}
	.st43{fill:#8E8E8E;}
	.st44{fill:#737373;}
</style>
<rect y="-0.4" class="st0" width="170.6" height="268.3"/>
<g class="st1">
	<path class="st2" d="M0.7,7.2v44.1c9.6-1.7,19.3-6.1,28.7-0.1c-2.2,0.1-4.5,0.2-6.7,0.2c-2.8,0.1-5.7,0.1-8.5,0.2
		c-4.5,0-9,0-13.5,0v215.5h41.6c2.2-4.3,5-8,10.1-9.2c1.1,0.2,2.1,0,2.9-0.4c1.5-10.3,2-20.7,1.9-31.1c-0.2-0.7-0.4-1.5-0.6-2.2
		c-0.1-4.2-3.1-8.3-0.5-12.7c0,0,0,0,0,0c-2.7-2.1-5.4-4.1-8.1-6.2c-0.6-0.1-1.2-0.2-1.8-0.3c-2.3-2.8-4.5-5.5-6.8-8.3
		c-0.6-0.1-1.1-0.2-1.7-0.4c-0.6-3.6-0.1-5.5,4.5-6.1c5.5-0.7,7.6-6.1,5.8-11.3c-1.1-3.1,0.4-5.9,2.5-8.2c0.3-0.5,0.5-1.1,0.8-1.6
		c-0.5-0.5-0.9-1-1.4-1.4c-2.2-1.8-3.8-3.8-4.1-6.3c-0.2,0.1-0.4,0.2-0.6,0.3c-7.9,2.7-13.4-1.5-18.5-6.5c-5-2.6-10.2-5.2-9.8-12.1
		c0.5-8.6,8.1-8.4,13.6-10.8c10.6-7,22.1-12.7,31.2-21.9c2.6-2.7,4.1-3,5.1-2.3c1.8-7.1,6.3-13.3,8.3-20.4c-0.6,0-1.2-0.1-1.9-0.3
		c-2.9-1.8-7.3-2.6-7.8-6.4c-1.2-7.9-6.8-11.6-13-14.9c-4.4-6.7,2-10.3,4.2-15.2c4.1,0.4,7.5,2.5,11,4.5l0,0
		C73,54,77.5,56,81.5,59.6c0,0,0,0,0,0c0,0,0,0,0,0c6-0.6,9.8,3.4,13.9,6.7c5.2,0,9.2,2.5,12.9,5.8c0.7,0.8,1.3,1.6,2,2.4
		c12.4,5,20.8,14.5,28.2,25c18.9,21.3,24.9,47.5,27.5,74.6c3.1,32.5-3.1,63.4-14.7,93.1h20.5V7.2H0.7z M23.4,251.3
		c-1.6,3.2-4.5,7.5-0.3,11.3c-3.6,1.9-6.6,5.1-11.2,4.3c-3.9-7.6-1.4-15.6-1.8-23.5c3.1-0.1,6.3-0.6,9.4-0.4
		C27,243.8,26.9,244.3,23.4,251.3z M22.2,211c7.5-10.4,14.7-4.5,22,0.3c0.1,0.8,0.2,1.6,0.3,2.4c-6.5-2-12.8-0.1-19.3,0.4
		c-1.3,6.4-8.1,11.1-5.7,18.6c-6.9,2.6-9,0.8-9.9-8.5c0.5-2.8,3.7-4.7,2.6-8.1C15.5,214.2,17.2,209.5,22.2,211z"/>
	<path class="st3" d="M165.9,174.1c-2.6-27.1-8.6-53.3-27.5-74.6c-7.6,2.3-8.3-9-15.4-7.8c-0.6,1.4-1.2,2.8-1.8,4.2c0,0,0,0,0,0
		c10.7,5.8,11.7,20.1,1.9,27.9c0,0,0,0,0,0c5.8,4.2,8.2,10.4,5.8,16.6c-2.8,7.4,4.8,15.3-1.9,22c0.1,0.7,0.2,1.3,0.2,2c0,0,0,0,0,0
		c0,0,0,0,0,0c6.1,5,6.1,12,3.9,18.2c-1.5,4.3-0.1,5.6,2.5,7.5c0,0,0,0,0,0c0,0,0,0,0,0c4.7,4.2,5.6,10.5,9,15.5
		c3.7,5.5-1.9,7.2-4.5,10.1c0,0,0,0,0,0c1.1,6.6-0.6,11.9-5.6,15.4c0.1,1.2-0.7,2.7-2.9,1.7c-5.7,7.4-6,14,1,21.5
		c6.1,6.4-2.9,8.6-5.3,12.6c0,0,0,0,0,0c0,0,0,0,0,0c0,0.1,0,0.2,0,0.3h25.9C162.8,237.5,169,206.6,165.9,174.1z M163.6,196
		c0,2.1-0.2,4.1-1.4,6.1c0-8,0-16.1,0-24.1c0.5,0.1,1,0.1,1.5,0.2C163.6,184.1,163.7,190,163.6,196z"/>
	<path class="st4" d="M97.5,72.6C97.5,72.6,97.5,72.6,97.5,72.6c4.9,0.8,7.1,4.2,8.6,8.4c8,1.9,6.6,11.7,12.8,15c0,0,0,0,0,0
		c0.8,0,1.6-0.1,2.4-0.1c0,0,0,0,0,0c0,0,0,0,0,0c0.6-1.4,1.2-2.8,1.8-4.2c-4.4-5.6-10-10.4-12.8-17.3c-0.7-0.8-1.3-1.6-2-2.4
		c-3.7-3.4-7.7-5.8-12.9-5.8C96.1,68.4,96.8,70.5,97.5,72.6C97.5,72.6,97.5,72.6,97.5,72.6z"/>
	<path class="st5" d="M123,91.8c7-1.2,7.8,10.1,15.4,7.8c-7.4-10.6-15.8-20.1-28.2-25C113,81.4,118.6,86.1,123,91.8z"/>
	<path class="st6" d="M69.8,115.2c8.4,4.2,2.3,5.5-1.5,7.3c-5.8,2.7-10,5.9-3,11.9c0,0,0,0,0,0c3.2-0.7,6.2-1.9,6.9-5.4
		c1.2-5.5,4.8-3.5,8.1-3.1c0,0,0,0,0,0c0,0,0,0,0,0c10.1-0.2,8.6-6.4,6.4-12.8c1-4.4,1.8-8.3-0.8-12.9c-3-5.4-1.8-10.5,5-12.7
		c-4.4-7.3-8.6-14.6-8.6-23.5c0,0,0,0,0,0l0,0c-0.4-1.5-0.7-3-1.1-4.5c0,0,0,0,0,0c-4-3.5-8.4-5.6-13.9-4.1l0,0h0
		c-0.7,2.3-0.4,4.7,1.7,5.5c11.8,4.6,11.6,14.4,11.1,24.4c-1.5,1.5-3.3,2.5-5.3,2.4c-1.9,7-6.5,13.3-8.3,20.4
		C68.4,109.4,68.4,113.7,69.8,115.2z"/>
	<path class="st7" d="M80.4,85.4c0.5-10,0.7-19.8-11.1-24.4c-2.1-0.8-2.5-3.2-1.7-5.5h0c-3.5-2-6.9-4.1-11-4.5
		c-2.1,4.9-8.6,8.5-4.2,15.2c6.2,3.3,11.8,7,13,14.9c0.6,3.8,4.9,4.6,7.8,6.4c0.7,0.2,1.3,0.3,1.9,0.3
		C77.1,87.9,78.8,86.9,80.4,85.4z"/>
	<path class="st8" d="M82.5,64C88,67.7,90.4,75,97.4,76.8c0-1.4,0-2.8,0-4.2c0,0,0,0,0,0c-0.7-2.1-1.4-4.2-2.1-6.4
		c-4.1-3.3-7.9-7.3-13.9-6.7c0,0,0,0,0,0C81.8,61,82.2,62.5,82.5,64L82.5,64z"/>
	<path class="st9" d="M22.7,51.5c2.2-0.1,4.5-0.2,6.7-0.2c-9.4-6-19.1-1.6-28.7,0.1v0.3c4.5,0,9,0,13.5,0
		C17,51.6,19.8,51.5,22.7,51.5z"/>
	<path class="st10" d="M125.2,266.9c2.4-4,11.4-6.2,5.3-12.6c-7-7.4-6.7-14-1-21.5c2.3,1,3-0.5,2.9-1.7c-0.9,0.6-1.9,1.2-2.9,1.7
		c-3.3-8.1-4.3-15.7,4.3-21.4c3.8-5.3-0.2-8.4-3.4-11.5c-3.3-3.1-7.1-5.7-9.3-9.8c-0.6,0-1.2,0-1.8-0.1c0,0,0,0,0,0c0,0,0,0,0,0
		c-0.2,0.7-0.3,1.4-0.5,2.1c0,0,0,0,0,0c0,0,0,0,0,0c-0.9,10.2,3.4,21.5-6.2,30c0,0,0,0,0,0c2.9,4.1,3.7,7,0.4,12.5
		c-4.2,7-10.5,14.1-9.2,23.6c-0.7,0.8-1.3,1.5-2,2.3c0,0,0,0,0,0c1.2,3.2,4,4.8,6.5,6.7h14.8C123.8,267.1,124.5,267,125.2,266.9
		C125.2,266.9,125.2,266.9,125.2,266.9z"/>
	<path class="st11" d="M118.8,96.1c-2.5,15.2,1,30.8-2.3,46c-0.8,3.8-2.7,9,4.5,9.4c5.2-8.9,1.7-18.4,2.1-27.6c0,0,0,0,0,0
		c0,0,0,0,0,0c9.8-7.8,8.8-22.1-1.9-27.9c0,0,0,0,0,0C120.4,96,119.6,96,118.8,96.1z"/>
	<path class="st12" d="M118.8,158C118.8,158,118.8,158,118.8,158c-4.9-2.1-11.5-0.5-14.9-6.3c0,0,0,0,0,0c-8.2,8-7.6,10.2,4.2,17
		c5.8,4.3,6.9,11.5,10.7,17.1c3.6-4.7,8.3-8.8,4.3-15.8c-1.1-1.9-0.3-5.9,4.1-5.6c0,0,0,0,0,0c0-0.7-0.1-1.3-0.2-2
		C123.5,162.4,121.1,160.2,118.8,158z"/>
	<path class="st13" d="M101.8,260.5C101.8,260.5,101.8,260.5,101.8,260.5C101.8,260.5,101.8,260.5,101.8,260.5
		c-2.6,0.4-5.4,1.1-3.8,4.5c0.3,0.7,0.6,1.5,0.8,2.2h9.6C105.8,265.3,103,263.7,101.8,260.5z"/>
	<path class="st14" d="M125.2,266.9c-0.7,0.1-1.4,0.2-2.2,0.3h2.2C125.2,267.1,125.2,267,125.2,266.9
		C125.2,266.9,125.2,266.9,125.2,266.9z"/>
	<path class="st4" d="M121,151.5c-0.7,2.2-1.5,4.4-2.2,6.6c0,0,0,0,0,0c0,0,0,0,0,0c2.4,2.2,4.8,4.4,8.3,4.3c6.7-6.7-1-14.6,1.9-22
		c2.4-6.2,0-12.4-5.8-16.6c0,0,0,0,0,0C122.7,133.1,126.2,142.6,121,151.5z"/>
	<path class="st4" d="M123.1,169.9c4,7.1-0.7,11.2-4.3,15.8v0c0.1,1.4,0.3,2.8,0.4,4.2c0,0,0,0,0,0c0.6,0,1.2,0,1.8,0.1
		c4.2,0,8.3,0,12.5-0.1c0,0,0,0,0,0c-2.6-1.9-4-3.2-2.5-7.5c2.2-6.1,2.2-13.2-3.9-18.2c0,0,0,0,0,0C122.9,164,122,168,123.1,169.9z"
		/>
	<path class="st15" d="M121.1,190.1c2.2,4.2,6,6.7,9.3,9.8c3.2,3.1,7.2,6.2,3.4,11.5c1.4,1.4,2.8,2.8,4.3,4.2
		c2.6-2.9,8.2-4.6,4.5-10.1c-3.3-5-4.3-11.3-9-15.5c0,0,0,0,0,0C129.4,190,125.3,190,121.1,190.1z"/>
	<path class="st16" d="M133.8,211.4c-8.6,5.7-7.6,13.3-4.3,21.4c1.1-0.5,2.1-1.1,2.9-1.7c5-3.6,6.7-8.8,5.6-15.4c0,0,0,0,0,0
		C136.6,214.2,135.2,212.8,133.8,211.4z"/>
	<path class="st17" d="M162.2,177.9c0,8,0,16.1,0,24.1c1.3-2,1.4-4.1,1.4-6.1c0-5.9,0-11.9,0-17.8
		C163.2,178.1,162.7,178,162.2,177.9z"/>
	<path class="st18" d="M93.2,252C93.2,252,93.2,252,93.2,252C93.2,252,93.2,252,93.2,252c-0.7-0.8-1.4-1.6-2.1-2.4c0,0,0,0,0,0
		c-2.8-2.8-5.6-5.6-8.4-8.5c-1.7,4.3-3.4,8.5-5,12.8c-1.7,4.6-6,5.2-9.6,5.1c-4.3-0.1-2-4.4-2.6-6.8c-4.5,2.5-3.2,11.3-11.1,10.2
		c0.3-1.7,0.6-3.4,0.8-5c-0.8,0.4-1.8,0.6-2.9,0.4c-5.1,1.2-7.9,4.9-10.1,9.2h48c-0.1-0.2-0.1-0.4-0.2-0.6
		C87.4,260.5,89.9,256.4,93.2,252z"/>
	<path class="st19" d="M110.3,102.5C110.3,102.5,110.3,102.5,110.3,102.5L110.3,102.5c5.7,10.4,0.1,20-2.2,29.9c0,0,0,0,0,0
		c-3.6,0.1-6.6,1.4-8.8,4.3c0,0,0,0,0,0c0,0,0,0,0,0c1.2,5.1,8.9,8.3,4.5,15.1c0,0,0,0,0,0c0,0,0,0,0,0c3.4,5.8,9.9,4.2,14.9,6.3
		c0,0,0,0,0,0c0.7-2.2,1.5-4.4,2.2-6.6c-7.2-0.4-5.3-5.5-4.5-9.4c3.2-15.2-0.2-30.8,2.3-46c0,0,0,0,0,0c-6.2-3.4-4.8-13.2-12.8-15
		C106.2,88.4,113.4,94.4,110.3,102.5z"/>
	<path class="st20" d="M99.8,91.8C99.8,91.8,99.8,91.8,99.8,91.8c1,4.9,4.5,7.9,8.3,10.6c0.7,0,1.4,0,2.2,0c0,0,0,0,0,0
		c3.1-8-4.1-14-4.3-21.4c-1.5-4.2-3.7-7.7-8.6-8.4c0,0,0,0,0,0c0,1.4,0,2.8,0,4.2C97.2,82,107.2,85.5,99.8,91.8z"/>
	<path class="st7" d="M46.3,158c3.7-3.9-3-9.5,3.6-14.4c4.5-3.3,7.2-3.6,11.4-2.6c0,0,0,0,0,0c0,0,0,0,0,0c4.4-0.3,2.1-4.8,4.1-6.6
		c0,0,0,0,0,0c0,0,0,0,0,0c-7-6-2.8-9.2,3-11.9c3.8-1.8,9.8-3,1.5-7.3c-1.4-1.5-1.4-5.8-3-7.1c-0.9-0.7-2.4-0.4-5.1,2.3
		c-9.2,9.2-20.6,14.9-31.2,21.9c-5.5,2.4-13.1,2.1-13.6,10.8c-0.4,6.9,4.7,9.5,9.8,12.1c5.1,5.1,10.6,9.3,18.5,6.5
		c0.2-0.1,0.4-0.2,0.6-0.3C45.7,160.4,45.8,159.2,46.3,158z"/>
	<path class="st21" d="M81.8,146.5c3.6-1.4,6.4-2.4,9.2-3.5c0,0,0,0,0,0c-3.7-0.5-7.6,1.1-11.8-1.7c4.2-3.1,8-6,11.9-8.9
		c0.7,0,1.5,0,2.2,0c0,0,0,0,0,0c0-0.7,0-1.5-0.1-2.2c0,0,0,0,0,0c-4.8,0.1-9.3-0.8-12.9-4.3c0,0,0,0,0,0c-3.2-0.5-6.9-2.5-8.1,3.1
		c-0.7,3.5-3.7,4.7-6.9,5.4c0,0,0,0,0,0c-2,1.8,0.3,6.3-4.1,6.6c0,0,0,0,0,0c1.8,4.8,3.9,9.1,10.4,7.6c4-0.9,7.2,2.4,10.9,2.9
		c2.6-0.9,5.3-1.8,9.4-3.2C88.1,147.6,85.4,147.1,81.8,146.5z"/>
	<path class="st22" d="M97.4,96.1C97.4,96.1,97.4,96.1,97.4,96.1C97.4,96.1,97.4,96.1,97.4,96.1c0.8-1.4,1.6-2.9,2.4-4.3
		c0,0,0,0,0,0c0,0,0,0,0,0c7.3-6.3-2.7-9.8-2.4-15C90.4,75,88,67.7,82.5,64c0,0,0,0,0,0c0,8.9,4.2,16.3,8.6,23.5
		C91.8,91.4,93.4,94.7,97.4,96.1z"/>
	<path class="st23" d="M97.4,108.9C97.4,108.9,97.4,108.9,97.4,108.9c-0.5-4.2,2.1-8.5,0-12.7c0,0,0,0,0,0c-4-1.5-5.6-4.7-6.3-8.6
		c-6.8,2.2-8.1,7.3-5,12.7c2.6,4.6,1.7,8.5,0.8,12.9C90.9,113.1,94.2,111,97.4,108.9z"/>
	<path class="st24" d="M93.2,130.2c2.1-5,4.2-10,6.4-14.9c0.9-0.4,1.9-0.7,2.8-1.1c-0.9-0.4-1.9-0.7-2.8-1.1c0,0,0,0,0,0
		c0,0,0,0,0,0c-0.7-1.4-1.5-2.9-2.2-4.3c0,0,0,0,0,0c0,0,0,0,0,0c-3.2,2.2-6.5,4.3-10.6,4.3c2.2,6.4,3.7,12.6-6.4,12.8c0,0,0,0,0,0
		C84,129.4,88.5,130.3,93.2,130.2z"/>
	<path class="st25" d="M101.8,260.5C101.8,260.5,101.8,260.5,101.8,260.5c0.7-0.8,1.3-1.5,2-2.3c-4.9,0.3-7.1-4-10.6-6.2
		c0,0,0,0,0,0c-3.3,4.4-5.8,8.5-3.2,14.6c0.1,0.2,0.1,0.4,0.2,0.6h8.5c-0.2-0.7-0.5-1.5-0.8-2.2C96.4,261.6,99.2,260.9,101.8,260.5z
		"/>
	<path class="st26" d="M118.8,185.8L118.8,185.8c-3.8-5.5-5-12.8-10.7-17.1c-4.1,3.4-6.2,8.1-8.5,12.8c0,0,0,0,0,0
		c12.2,3.1,10.9,5.6,6.4,16.7c-3.2,7.9-9.6,14.7-10,23.6c-0.1,3.3-1,6.2-2.8,8.8l0,0c1.4,0,2.9,0,4.3,0c5.4-8.1,9-17.1,12.4-26.2
		c1.5-4.1,3-7.8,6.8-10.2c0,0,0,0,0,0c0.7-0.7,1.4-1.4,2.2-2.1c0,0,0,0,0,0c0.2-0.7,0.3-1.4,0.5-2.1c0,0,0,0,0,0
		C119.1,188.6,119,187.2,118.8,185.8z"/>
	<path class="st27" d="M112.3,222.1c-4.7,5.3-4.7,15.2-15,14.9c-4.7,3-3.4,8.8-6.2,12.7c0.7,0.8,1.4,1.6,2.1,2.4c0,0,0,0,0,0
		c3.5,2.2,5.7,6.4,10.6,6.2c-1.3-9.5,5-16.6,9.2-23.6c3.3-5.5,2.5-8.4-0.4-12.5c0,0,0,0,0,0c0,0,0,0,0,0
		C112.6,222.1,112.3,222.1,112.3,222.1z"/>
	<path class="st12" d="M116.6,194.2C116.6,194.2,116.6,194.2,116.6,194.2c0.1,9.5-7.1,17.9-4.3,27.8c0,0,0,0,0,0c0,0,0.2,0,0.2,0
		c0,0,0,0,0,0c9.6-8.4,5.3-19.7,6.2-30c0,0,0,0,0,0C118.1,192.8,117.3,193.5,116.6,194.2C116.6,194.2,116.6,194.2,116.6,194.2z"/>
	<path class="st28" d="M99.6,181.5C99.6,181.5,99.6,181.5,99.6,181.5C99.6,181.5,99.6,181.5,99.6,181.5c2.3-4.6,4.4-9.3,8.5-12.8
		c-11.9-6.8-12.4-8.9-4.2-17c0,0,0,0,0,0c4.3-6.8-3.3-10-4.5-15.1c0,0,0,0,0,0c-2-1.4-4-2.8-6-4.2c-0.7,0-1.5,0-2.2,0
		c0,3.6-0.1,7.1-0.1,10.7c0,0,0,0,0,0c0,0,0,0,0,0c-2.8,1.1-5.6,2.1-9.2,3.5c3.6,0.6,6.3,1.1,10.2,1.7c-4.1,1.4-6.7,2.3-9.4,3.2
		c2.8,0.1,5.6,0.3,8.3,0.4c-6.8,1.6-12.5,0.8-4.3,10.4c3.7,4.4,6,13.2,9,19.9c1.2,2.7,3.8,2.9,6.1,3.6c0,0,0,0,0,0
		C101,184.4,100.3,182.9,99.6,181.5z"/>
	<path class="st29" d="M65.5,252.4c0.7-2.3,1.5-4.5,2.2-6.8c0,0,0,0,0,0c0,0,0,0,0,0c-6.9-7.3-5.3-14.4,0.3-21.5v0
		c-0.2-0.7-0.3-1.4-0.3-2.1c-5-2.1-8.6-0.9-10.4,4.4c0.1,10.4-0.4,20.8-1.9,31.1c-0.2,1.7-0.5,3.4-0.8,5
		C62.3,263.7,61,254.9,65.5,252.4z"/>
	<path class="st30" d="M82.4,239.2c-4.4-1.3-5.9-5.5-8.6-8.5c0,0,0,0,0,0c0,0-1-0.1-1-0.1l-1,0c0.1,5.4,0.1,10.7-4.1,14.9
		c0,0,0,0,0,0c-0.7,2.3-1.5,4.5-2.2,6.8c0.6,2.4-1.7,6.7,2.6,6.8c3.6,0.1,7.9-0.6,9.6-5.1c1.6-4.3,3.3-8.6,5-12.8
		C82.6,240.5,82.5,239.9,82.4,239.2C82.4,239.2,82.4,239.2,82.4,239.2z"/>
	<path class="st31" d="M97.3,236.9c0-2.1,0.1-4.2,0.1-6.3l0,0c-1.4,0-2.9,0-4.3,0c-4.6,1.6-5.4,8-10.8,8.6c0,0,0,0,0,0c0,0,0,0,0,0
		c0.1,0.7,0.2,1.3,0.3,2c2.8,2.8,5.6,5.6,8.4,8.5c0,0,0,0,0,0C93.9,245.8,92.7,239.9,97.3,236.9z"/>
	<path class="st8" d="M103.4,124c-1.2,4.1,1.7,6.4,4.7,8.3c2.2-9.9,7.9-19.5,2.2-29.9h0c-0.7,0-1.4,0-2.2,0c-2.4,3.9-4,8.4-8.5,10.7
		c0,0,0,0,0,0c0.9,0.4,1.9,0.7,2.8,1.1c-0.9,0.4-1.9,0.7-2.8,1.1C102.3,117.5,104.7,119.8,103.4,124z"/>
	<path class="st32" d="M108.1,132.3C108.1,132.3,108.1,132.3,108.1,132.3c-3-2-5.9-4.3-4.7-8.3c1.3-4.2-1.1-6.5-3.8-8.7
		c-2.1,5-4.2,10-6.4,14.9c0,0,0,0,0,0c0,0.7,0,1.5,0.1,2.2c0,0,0,0,0,0c2,1.4,4,2.8,6,4.2c0,0,0,0,0,0
		C101.6,133.8,104.6,132.5,108.1,132.3z"/>
	<path class="st33" d="M108.1,102.5c-3.8-2.8-7.3-5.7-8.3-10.6c0,0,0,0,0,0c-0.8,1.4-1.6,2.9-2.4,4.3c0,0,0,0,0,0
		c2.2,4.2-0.5,8.5,0,12.7c0,0,0,0,0,0c0.7,1.4,1.5,2.9,2.2,4.3c0,0,0,0,0,0C104.1,110.9,105.7,106.4,108.1,102.5z"/>
	<path class="st34" d="M74.4,173.5c3.1-0.9,2.8,1.9,3.3,4c1.7,8.2,1.8,16.2-3.7,23.2l0,0c-0.7,2.1-1.4,4.3-2.1,6.4c0,0,0,0,0,0
		c0,0,0,0,0,0c3.8-0.3,6.9-2.2,8.6-5.4c4.5-8.3,9.5-7.1,14.9-1.1c1-5.4,6.2-9,6.4-14.8c-2.3-0.7-4.9-0.9-6.1-3.6
		c-3-6.8-5.2-15.6-9-19.9c-8.3-9.7-2.5-8.9,4.3-10.4c-2.8-0.1-5.6-0.3-8.3-0.4c-3.8-0.5-6.9-3.8-10.9-2.9c-6.5,1.4-8.6-2.8-10.4-7.6
		c0,0,0,0,0,0c-4.3-1-7-0.7-11.4,2.6c-6.6,4.9,0.1,10.5-3.6,14.4c-0.4,1.3-0.6,2.4-0.4,3.5c0.3,2.5,1.9,4.5,4.1,6.3
		c0.4,0.5,0.9,1,1.4,1.4c1.1-2.3,2.2-4.5,3.3-6.8C58.8,170.4,63.9,176.5,74.4,173.5z M63.7,157.8c3.5-2.3,6.9-2.1,10.3,0.2
		C70.6,157.9,67.1,157.9,63.7,157.8z"/>
	<path class="st24" d="M91,143.1C91,143.1,91,143.1,91,143.1c0-3.6,0.1-7.1,0.1-10.7c-3.9,2.9-7.7,5.8-11.9,8.9
		C83.4,144.2,87.3,142.6,91,143.1z"/>
	<path class="st16" d="M12.3,216.2c1.1,3.3-2.1,5.3-2.6,8.1c0.9,9.3,3,11.1,9.9,8.5c-2.4-7.5,4.4-12.2,5.7-18.6c-1-1-2-2.1-3-3.1
		C17.2,209.5,15.5,214.2,12.3,216.2z"/>
	<path class="st35" d="M95.3,203.5c-7.9,2.9-13.3,7.9-15,16.5c0,0,0,0,0,0c0,0,0,0,0,0c1.7,5.9-3.9,7.4-6.5,10.8h0c0,0,0,0,0,0
		c2.7,3,4.2,7.2,8.6,8.5c0,0,0,0,0,0c5.4-0.6,6.2-7,10.8-8.6l0,0c1.8-2.7,2.7-5.5,2.8-8.8c0.4-9,6.8-15.8,10-23.6
		c4.5-11.1,5.8-13.6-6.4-16.7c0,0,0,0,0,0c0.7,1.5,1.4,3,2.1,4.4c0,0,0,0,0,0c-0.3,5.7-5.4,9.4-6.4,14.8c0,0,0,0,0,0
		C97.2,201.6,97.2,202.8,95.3,203.5z"/>
	<path class="st36" d="M97.3,236.9c10.3,0.4,10.4-9.6,15-14.9c0,0,0,0,0,0c-2.9-9.9,4.4-18.3,4.3-27.8c0,0,0,0,0,0
		c-3.8,2.4-5.2,6.1-6.8,10.2c-3.4,9.1-7,18.1-12.4,26.2l0,0C97.4,232.7,97.4,234.8,97.3,236.9z"/>
	<path class="st15" d="M19.5,243.1c-3.1-0.3-6.3,0.2-9.4,0.4c0.4,7.8-2.1,15.9,1.8,23.5c4.6,0.8,7.6-2.5,11.2-4.3
		c-4.3-3.8-1.3-8.1,0.3-11.3C26.9,244.3,27,243.8,19.5,243.1z"/>
	<path class="st37" d="M44.5,213.7c-0.1-0.8-0.2-1.6-0.3-2.4c-7.3-4.8-14.5-10.7-22-0.3c1,1,2,2.1,3,3.1
		C31.7,213.6,38.1,211.8,44.5,213.7z"/>
	<path class="st38" d="M67.6,222c2.1-2.5,1.9-5.5,1.9-8.4c0,0,0,0,0,0c-2.1-1.5-4.1-2.9-6.2-4.4c0,0,0,0,0,0c0,0,0,0,0,0
		c-2.4,0.8-4.8,1.6-7.3,2.4c0,0,0,0,0,0c0,0,0,0,0,0c-2.6,4.3,0.4,8.5,0.5,12.7c0.2,0.7,0.4,1.5,0.6,2.2C59,221.1,62.6,220,67.6,222
		z"/>
	<path class="st39" d="M71.8,230.7c-1.3-2.2-2.5-4.4-3.8-6.6c-5.6,7.1-7.2,14.2-0.3,21.5c0,0,0,0,0,0
		C71.9,241.4,71.9,236.1,71.8,230.7z"/>
	<path class="st40" d="M71.8,230.7l1,0c0,0,1,0.1,1,0.1h0c2.5-3.4,8.2-4.9,6.5-10.8c0,0,0,0,0,0c-4.9-0.7-7.1-4.2-8.5-8.5
		c-0.8,0.7-1.6,1.5-2.3,2.2c0,0,0,0,0,0c0,0,0,0,0,0c0,3,0.2,6-1.9,8.4c0,0.7,0.1,1.4,0.3,2.1v0C69.2,226.3,70.5,228.5,71.8,230.7z"
		/>
	<path class="st41" d="M74,200.7c5.6-7,5.4-15,3.7-23.2c-0.4-2.1-0.2-4.8-3.3-4c-10.5,2.9-15.7-3.2-19.9-11.2
		c-1.1,2.3-2.2,4.5-3.3,6.8c-0.3,0.5-0.5,1.1-0.8,1.6c-2.1,2.4-3.6,5.1-2.5,8.2c1.8,5.2-0.3,10.5-5.8,11.3c-4.6,0.6-5.1,2.5-4.5,6.1
		c0.6,0.2,1.1,0.3,1.7,0.4C51.7,191.3,63.1,193.9,74,200.7z"/>
	<path class="st42" d="M59.9,200.9c5,0.3,2.8,5.2,3.5,8.3c0,0,0,0,0,0c2.1,1.5,4.1,2.9,6.2,4.4c0,0,0,0,0,0c0.8-0.7,1.6-1.5,2.3-2.2
		c0-1.4,0-2.9,0-4.3c0,0,0,0,0,0c0.7-2.1,1.4-4.3,2.1-6.4l0,0c-10.9-6.8-22.3-9.4-34.6-3.9c2.3,2.8,4.5,5.5,6.8,8.3
		c0.6,0.1,1.2,0.2,1.8,0.3C49.8,198.5,55.7,200.7,59.9,200.9z"/>
	<path class="st43" d="M80.3,219.9C80.3,219.9,80.3,219.9,80.3,219.9c1.7-8.5,7.1-13.6,15-16.5c1.9-0.7,1.9-1.9,0-2.8c0,0,0,0,0,0
		c-5.4-6-10.3-7.3-14.9,1.1c-1.7,3.2-4.8,5.1-8.6,5.4c0,0,0,0,0,0c0,1.4,0,2.9,0,4.3C73.2,215.7,75.4,219.2,80.3,219.9z"/>
	<path class="st44" d="M63.7,157.8c3.4,0.1,6.9,0.2,10.3,0.2C70.6,155.7,67.2,155.5,63.7,157.8z"/>
	<path class="st26" d="M63.3,209.2C63.3,209.2,63.3,209.2,63.3,209.2c-0.6-3,1.6-7.9-3.5-8.3c-4.2-0.3-10.1-2.5-11.9,4.5
		c2.7,2.1,5.4,4.1,8.1,6.2c0,0,0,0,0,0C58.5,210.8,60.9,210,63.3,209.2z"/>
</g>
</svg>
