<?xml version="1.0" encoding="utf-8"?>
<!-- Generator: Adobe Illustrator 22.0.0, SVG Export Plug-In . SVG Version: 6.00 Build 0)  -->
<svg version="1.1" id="Calque_1" xmlns="http://www.w3.org/2000/svg" xmlns:xlink="http://www.w3.org/1999/xlink" x="0px" y="0px"
	 viewBox="0 0 260 260" enable-background="new 0 0 260 260" xml:space="preserve">
<path fill="none" stroke="#FF616E" stroke-width="19" stroke-miterlimit="10" d="M113.8,231.7l-17.5,10.7c-12.5,7.7-29,3.7-36.7-8.8
	l-10.7-17.5c-7.7-12.5-3.7-29,8.8-36.7l17.5-10.7c12.5-7.7,29-3.7,36.7,8.8l10.7,17.5C130.3,207.6,126.3,224.1,113.8,231.7z"/>
<circle fill="none" stroke="#FF616E" stroke-width="19" stroke-miterlimit="10" cx="60.1" cy="89.2" r="41.2"/>
<polygon fill="none" stroke="#FF616E" stroke-width="19" stroke-miterlimit="10" points="157.3,114.9 157.1,23 230.2,78.8 "/>
<path fill="none" stroke="#FF616E" stroke-width="19" stroke-miterlimit="10" d="M234.2,164.3c9.2,14.4-6.1,61.8-20.5,71
	c-14.4,9.2-34-3.2-43.2-17.6c-9.2-14.4-0.5-35.4,15.5-45.6C200.4,162.8,225,149.9,234.2,164.3z"/>
</svg>
