<svg version="1.1" id="Layer_1" xmlns="http://www.w3.org/2000/svg" x="0" y="0" viewBox="0 0 171.1 267.3" xml:space="preserve"><style>.st3{fill:#060606}.st12{fill:#292929}.st32{fill:#575757}</style><path fill="#889e82" d="M0-1.3h171.1v272.1H0z"/><g opacity=".3"><path d="M10.2 31v.9l3.6-.3c0-.3-.1-.7-.1-1 .3-1 .8-1.9 1.5-2.8.8-.6 1.8-1.1 2.8-1.3 1.2-.1 2.3-.2 3.5-.3 7.2-3.8 11.2-10.7 16.4-16.6 1.1-2.5 2.6-4.4 4.8-5.4-.7-1.8-1.3-3.6-.5-5.6.1-.3.3-.6.4-.9H0v44.5C3 38 3.6 31.7 10.2 31zM151.5-2.3c-2.4 6.1-5 12.2-7.9 18.2-10 21.3-16.1 43.5-13.6 67.3.2 2.3 1.2 4.6 2 7.7-4.5.2-8.5-2.6-12.5-.9-1.6 6-7.7 2.8-11 5.4-2.2 0-4.3.1-6.5.1-3.6 1.4-7.2 2.8-10.7 4.2-.7.1-1.4.1-2.1.2l-16.8 4.5c-4.4 3.6-2.8 11.1-8.8 13.7 0-1-.1-2-.1-3.1-11.6 1.5-13.4-1.1-10.7-15.2-2.8-11.2-5.7-22.5-8.4-33.7-1.1-4.7.4-9.1 2.2-13.3-7.1-2.7-14.3-5.4-21.4-8.2-.8 7-1.5 14-2.3 21l-4.2 12.9c-.1 1.4-.1 2.7-.2 4.1-.8 1.3-1.5 2.6-2.3 3.9C9.8 93.3 4 100.6 0 109v148.7h171v-260h-19.5z" fill="none"/><path class="st3" d="M126 17c.9 6.2-3.1 12.1-11.1 12.4v6.4c-2 8.1-6.7 14.8-12.5 20.6-3.3 3.3-4.8 6.9-4.5 11.4 6.1 1.4 6.8-4.7 9.4-6.9 15.6 4.2 5.9 15.7 7.6 24 1.6 1.7 3.2 3.4 4.7 5.1 4-1.6 7.9 1.2 12.5.9-.9-3.2-1.8-5.4-2-7.7-2.5-23.8 3.6-46 13.6-67.3 2.8-6 5.5-12.1 7.9-18.2h-25.9c.4 6.4-.7 12.7.3 19.3z"/><path d="M66.1 97.7c0 .1 0 .1 0 0-2.8.6-5.9-.4-5.3-3.1 1.3-6.4-3.2-12-1.5-18.2-.1-.7-.1-1.4-.2-2.1-5.8-2.1-9.7-4.9-4.2-11.2 2.2-2.5 1.3-5.2.2-7.8-2.8-.8-5.6-1.7-8.5-2.5-1.8 4.3-3.3 8.6-2.2 13.3 2.7 11.3 5.6 22.5 8.4 33.7 5.2 3.9 10.4 7.8 10.7 15.2 0 1 .1 2.1.1 3.1 6-2.6 4.4-10 8.8-13.7-2.1-2.2-4.2-4.4-6.3-6.7 0 .1 0 .1 0 0z" fill="#8d8d8d"/><path d="M80.7 72.1c-1.5-2.1-3-4.1-4.5-6.2-1.3-.8-2.7-1.6-4-2.3 4.9 9.6-5.4 16.6-4.2 25.6 8.5.9 17.5.7 21.3 10.8.7-.1 1.4-.1 2.1-.2v-17c-2.6-4.6-10.6-3.7-10.7-10.7z" fill="#515151"/><path d="M68 89.1l-.1.2c-.4 2.9 2 6.3-1.7 8.5 2.1 2.2 4.2 4.5 6.3 6.7l16.8-4.5C85.4 89.8 76.4 90 68 89.1z" fill="#626262"/><path d="M105 85.2c-4-1.3-8-4.1-9.7-8.8-1.3-1.4-2.7-2.8-4-4.3-2.1-.8-4.2-1.5-6.3-2.3l-4.2 2.1c.1 7 8.1 6.2 10.6 10.7 6.3 1.9 10.1 6 10.7 12.8 2.2 0 4.3-.1 6.5-.1 1.8-4.3 3.1-8-3.6-10.1z" fill="#454545"/><path d="M114.8 84.9c-3-.6-5.2-2.3-6.3-5.1-2.9-7.6-7.6-7-13.2-3.3 1.6 4.7 5.7 7.5 9.7 8.8 6.7 2.1 5.4 5.7 3.5 10.1 3.3-2.6 9.4.7 11-5.4-1.5-1.7-3.1-3.4-4.7-5.1z" fill="#101010"/><path d="M91.4 82.7v17c3.6-1.4 7.2-2.8 10.7-4.2-.6-6.7-4.4-10.8-10.7-12.8z" fill="#606060"/><path d="M18.5 82.6c.1-1.3.1-2.7.2-4.1-3.5 2.2-6.1 5.7-10.4 6.5-2.8 2.1-5.6 4.2-8.3 6.2V109c4-8.3 9.8-15.6 16.2-22.5.8-1.3 1.5-2.6 2.3-3.9z" fill="#a1a1a1"/><path d="M110.7-.4c4.2-.6 8.4-1.3 12.7-1.9h-14.8c.8.5 1.5 1.2 2.1 1.9z" fill="#303030"/><path class="st12" d="M101.3 39.5c.9 3.3-.5 7.4-4.4 6.4-4.3-1-.5-4.6-.4-7.1 0-1-.4-2-.7-3-3.7.7-5.8 4-9.8 5.2-7.3 2-5.2 8.6-3.2 14 1.4-.7 2.8-1.4 4.3-2.1-1.3-1.9-3.9-4.1-1-6.1 2.8-1.9 4.1 1.4 5.5 3.1 3.3 3.7 2.2 6.1-2.4 7.3 3.9 6-2.4 8.6-4.3 12.7 2.1.8 4.2 1.5 6.3 2.3 2.2-1.5 4.4-2.9 6.6-4.4-.2-4.5 1.2-8.1 4.5-11.4 5.8-5.8 10.5-12.4 12.5-20.6-2.8-1.4-7.1.2-8.5-4.2-3 1.8-6.4 3-5 7.9z"/><path d="M106.3 29.5c0 .7.1 1.5.1 2.2 1.4 4.4 5.7 2.8 8.5 4.2v-6.4c.2-4.6-3.5-9.4 1.1-13.8 2.1-2 .6-3.5-1.5-4.9-4.1-2.7-3.7-7.1-3.8-11.2-.6-.7-1.4-1.3-2.1-1.9H99c2.1 6.9.5 14.3 3 21.1 3.3 2.8 10.6 4.1 4.3 10.7z" fill="#373737"/><path d="M110.7-.4c.1 4.2-.3 8.6 3.8 11.2 2.1 1.3 3.5 2.9 1.5 4.9-4.6 4.4-.9 9.2-1.1 13.8 8-.3 12-6.2 11.1-12.4-1-6.6.2-13-.4-19.4h-2.2c-4.2.6-8.5 1.2-12.7 1.9z" fill="#151515"/><path d="M91.3 72.2c1.3 1.4 2.7 2.8 4 4.3 5.6-3.7 10.3-4.3 13.2 3.3 1.1 2.8 3.3 4.5 6.3 5.1-1.7-8.3 8-19.8-7.6-24-2.6 2.2-3.3 8.4-9.4 6.9-2.1 1.5-4.3 2.9-6.5 4.4z" fill="#1e1e1e"/><path d="M42.7 4.2c.9-.4 2-.7 3.2-.8 2.2 3.2 4.7 6.2 6.6 9.5 2.3 4.1 4.3 8.4-3.9 7.8-3.7-.3-5.2 1.9-3.8 5.5.7 1.9 2.8 4.1-.8 4.9-2.5.6-4-.9-4.1-3.6-.2-6.5-4.3-2.3-6.8-2.5-4.3 3.9-9.4 4.8-15 4.2l2.8-2.8.6-.3c-1.2.1-2.3.2-3.5.3-1 .3-1.9.7-2.8 1.3-.7.8-1.2 1.7-1.5 2.8.1.3.1.7.1 1h.5l.4-.4c.6-.5 1.2-1.1 1.8-1.6 0 .8.1 1.7.1 2.5 2.2 3.2-3.2 9.6 4.4 10.5 1.4.7 2.7 1.4 4.1 2.1 7.1 2.7 14.3 5.4 21.4 8.2 2.8.8 5.6 1.7 8.5 2.5 1.4.6 2.8 1.3 4.2 1.9 1.4 0 2.8.1 4.3.1-4.4-3.6-3-9.9-6.9-14.2-2.8-3 6-2.9 4.8-7.4-3.2-5.9 1.1-8.3 5-10.9 10.3-7.1 10.3-7.1-.7-12.5-1.2-.6-2-1.7-3.8-3.2 5.2-2.8 9.2 0 12.1 1.7 5.2 3 8.2 1.3 12.3-1.7 4.3-3.2 5.8-7.3 4.2-11.5h-48c-.2.3-.3.6-.4.9-.7 2.1-.1 3.9.6 5.7z" fill="#3e3e3e"/><path d="M21.1 42.5s0 .1 0 0c-.7 6.3.4 12.9-2.2 19-1.9 6.9-1.9 14.6-8.6 19.3-.7 1.4-1.3 2.8-2 4.2 4.3-.8 6.9-4.3 10.4-6.5l4.2-12.9c.8-7 1.5-14 2.3-21-1.3-.7-2.7-1.4-4.1-2.1z" fill="#8b8b8b"/><path d="M52.8 99.8c-2.7 14.1-.9 16.7 10.7 15.2-.2-7.3-5.5-11.2-10.7-15.2z" fill="#9b9b9b"/><path d="M59.2 74.3c.1.7.1 1.4.2 2.1 5 2.9 3.7 9.9 8.5 12.9l.1-.2c-1.2-9 9.1-16 4.2-25.6-2.9-2.1-5.7-4.1-8.6-6.2-1.4 0-2.8-.1-4.3-.1 2.4 5.7 2.1 11.4-.1 17.1z" fill="#5f5f5f"/><path d="M59.4 76.4c-1.7 6.2 2.8 11.9 1.5 18.2-.6 2.7 2.5 3.7 5.3 3.1 3.8-2.2 1.3-5.6 1.7-8.5-4.8-2.9-3.5-9.9-8.5-12.8zm-4.5-13.3c-5.4 6.4-1.5 9.1 4.2 11.2 2.2-5.7 2.5-11.4.1-17.1-1.4-.6-2.8-1.3-4.2-1.9 1.2 2.6 2.1 5.3-.1 7.8z" fill="#7e7e7e"/><path d="M72.2 63.5c1.3.8 2.7 1.6 4 2.3.4-4.7.7-9.5 6.6-10.8-2-5.5-4.2-12 3.2-14 4-1.1 6.1-4.5 9.8-5.2-.1-.7-.1-1.5-.2-2.2-1.1-2.6-.9-7.4-6-4.4-5.1 2.9-7-.5-8.9-4.1-5.9 4.4-11 10.3-19.2 10.7 1.2 4.5-7.6 4.3-4.8 7.4 3.9 4.3 2.5 10.6 6.9 14.2 2.9 2 5.7 4.1 8.6 6.1z" fill="#343434"/><path d="M89.2 57.2c-.7-1.4-1.4-2.9-2.1-4.3-1.4.7-2.8 1.4-4.3 2.1-5.9 1.4-6.2 6.2-6.6 10.8 1.5 2.1 3 4.1 4.5 6.2l4.2-2.1c2-4 8.3-6.6 4.3-12.7z" fill="#1b1b1b"/><path d="M10.1 42.1c.7-2.1 1.3-4.1 2-6.2-.6-1.3-1.2-2.7-1.9-4V31C3.6 31.7 3 38 0 42.1v14.4c4.5-3.6 7.8-8.5 10.1-14.4z" fill="#9e9e9e"/><path d="M8.3 85c.7-1.4 1.3-2.8 2-4.2 0-2.9-.1-5.8-.1-8.7C8.1 76.3 4 77.1 0 78v13.2c2.8-2 5.6-4.1 8.3-6.2z" fill="#474747"/><path d="M86.3 9.2c-4 3-7.1 4.8-12.3 1.7-2.9-1.7-6.9-4.5-12.1-1.7 1.8 1.5 2.7 2.6 3.8 3.2 11 5.4 11.1 5.4.7 12.5-3.9 2.7-8.2 5.1-5 10.9 8.2-.3 13.3-6.2 19.2-10.7 2.1-.5 4.2-1.8 6.1-1.5 6.1 1.1 11.4.7 15.2-4.9-2.5-6.8-.9-14.2-3-21.1h-8.5c1.7 4.3.2 8.4-4.1 11.6z" fill="#383838"/><path class="st3" d="M95.6 33.7c.1.7.1 1.5.2 2.2.2 1 .7 2 .7 3-.1 2.5-3.8 6 .4 7.1 3.9.9 5.3-3.2 4.4-6.4-1.4-5 2-6.2 5.1-7.9 0-.7-.1-1.5-.1-2.2-4.2-.2-7.4 2.1-10.7 4.2z"/><path d="M91.6 49.9c-1.5-1.6-2.7-5-5.5-3.1-2.9 2-.2 4.2 1 6.1.7 1.4 1.4 2.8 2.1 4.3 4.6-1.2 5.7-3.6 2.4-7.3z" fill="#353535"/><path class="st12" d="M89.6 29.2c5.1-2.9 4.8 1.8 6 4.4 3.3-2 6.5-4.3 10.7-4.2 6.4-6.6-1-7.9-4.2-10.7-3.8 5.6-9.1 6-15.2 4.9-1.9-.3-4.1 1-6.1 1.5 1.8 3.7 3.8 7.1 8.8 4.1z"/><path d="M10.1 42.1C7.8 48 4.5 52.9 0 56.6v6.2c6.1-5.1 10.9-11.1 10.1-20.7z" fill="#888"/><path d="M33.1 25.1c2.5.2 6.6-4 6.8 2.5.1 2.6 1.6 4.1 4.1 3.6 3.6-.8 1.6-3 .8-4.9-1.5-3.6 0-5.8 3.8-5.5 8.2.7 6.2-3.6 3.9-7.8-1.9-3.4-4.4-6.4-6.6-9.5-1.2.1-2.2.3-3.2.8-2.2 1-3.8 2.9-4.8 5.4 1.6 6-4.9 9.7-4.8 15.4z" fill="#464646"/><path d="M14.4 31.5c.1-.1.3-.2.4-.4l-.4.4zm4.6 30c2.6-6.1 1.5-12.6 2.2-19-7.7-.9-2.2-7.3-4.4-10.5-.8-.2-1.6-.4-2.4-.5h-.5l-3.6.3c.6 1.3 1.2 2.7 1.9 4 4.6 10.7-.1 20.2-4 29.8.7 2.1 1.4 4.3 2.1 6.4 3.9-2.5 3.4-8.9 8.7-10.5z" fill="#4a4a4a"/><path d="M18.2 29.3c5.5.5 10.7-.3 15-4.2-.2-5.7 6.3-9.3 4.7-15.5-5.1 5.9-9.2 12.8-16.4 16.6l-.6.3c-.9.9-1.8 1.8-2.7 2.8z" fill="#161616"/><path d="M16.6 29.6c-.6.5-1.2 1.1-1.8 1.6-.1.1-.3.2-.4.4.8.2 1.6.4 2.4.5-.1-.9-.2-1.7-.2-2.5z" fill="#030303"/><path class="st32" d="M19 61.5c-5.3 1.6-4.8 8-8.7 10.6 0 2.9.1 5.8.1 8.7 6.7-4.7 6.7-12.4 8.6-19.3z"/><path d="M8.1 65.7c3.9-9.6 8.6-19.1 4-29.8-.7 2.1-1.3 4.1-2 6.2.7 9.6-4 15.6-10.1 20.7v8.1c2.4-2.3 4.6-4.9 8.1-5.2z" fill="#747474"/><path class="st32" d="M10.2 72.1c-.7-2.1-1.4-4.3-2.1-6.4-3.5.3-5.7 2.9-8.1 5.2V78c4-.9 8.1-1.7 10.2-5.9z"/></g></svg>