<svg xmlns="http://www.w3.org/2000/svg"><defs><symbol id="activity" viewBox="0 0 24 24"><path d="M22 12h-4l-3 9L9 3l-3 9H2"/></symbol><symbol id="airplay" viewBox="0 0 24 24"><path d="M5 17H4a2 2 0 01-2-2V5a2 2 0 012-2h16a2 2 0 012 2v10a2 2 0 01-2 2h-1"/><path d="M12 15l5 6H7l5-6z"/></symbol><symbol id="alert-circle" viewBox="0 0 24 24"><circle cx="12" cy="12" r="10"/><path d="M12 8v4M12 16h.01"/></symbol><symbol id="alert-octagon" viewBox="0 0 24 24"><path d="M7.86 2h8.28L22 7.86v8.28L16.14 22H7.86L2 16.14V7.86L7.86 2zM12 8v4M12 16h.01"/></symbol><symbol id="alert-triangle" viewBox="0 0 24 24"><path d="M10.29 3.86L1.82 18a2 2 0 001.71 3h16.94a2 2 0 001.71-3L13.71 3.86a2 2 0 00-3.42 0zM12 9v4M12 17h.01"/></symbol><symbol id="align-center" viewBox="0 0 24 24"><path d="M18 10H6M21 6H3M21 14H3M18 18H6"/></symbol><symbol id="align-justify" viewBox="0 0 24 24"><path d="M21 10H3M21 6H3M21 14H3M21 18H3"/></symbol><symbol id="align-left" viewBox="0 0 24 24"><path d="M17 10H3M21 6H3M21 14H3M17 18H3"/></symbol><symbol id="align-right" viewBox="0 0 24 24"><path d="M21 10H7M21 6H3M21 14H3M21 18H7"/></symbol><symbol id="anchor" viewBox="0 0 24 24"><circle cx="12" cy="5" r="3"/><path d="M12 22V8M5 12H2a10 10 0 0020 0h-3"/></symbol><symbol id="aperture" viewBox="0 0 24 24"><circle cx="12" cy="12" r="10"/><path d="M14.31 8l5.74 9.94M9.69 8h11.48M7.38 12l5.74-9.94M9.69 16L3.95 6.06M14.31 16H2.83M16.62 12l-5.74 9.94"/></symbol><symbol id="archive" viewBox="0 0 24 24"><path d="M21 8v13H3V8M1 3h22v5H1zM10 12h4"/></symbol><symbol id="arrow-down-circle" viewBox="0 0 24 24"><circle cx="12" cy="12" r="10"/><path d="M8 12l4 4 4-4M12 8v8"/></symbol><symbol id="arrow-down-left" viewBox="0 0 24 24"><path d="M17 7L7 17M17 17H7V7"/></symbol><symbol id="arrow-down-right" viewBox="0 0 24 24"><path d="M7 7l10 10M17 7v10H7"/></symbol><symbol id="arrow-down" viewBox="0 0 24 24"><path d="M12 5v14M19 12l-7 7-7-7"/></symbol><symbol id="arrow-left-circle" viewBox="0 0 24 24"><circle cx="12" cy="12" r="10"/><path d="M12 8l-4 4 4 4M16 12H8"/></symbol><symbol id="arrow-left" viewBox="0 0 24 24"><path d="M19 12H5M12 19l-7-7 7-7"/></symbol><symbol id="arrow-right-circle" viewBox="0 0 24 24"><circle cx="12" cy="12" r="10"/><path d="M12 16l4-4-4-4M8 12h8"/></symbol><symbol id="arrow-right" viewBox="0 0 24 24"><path d="M5 12h14M12 5l7 7-7 7"/></symbol><symbol id="arrow-up-circle" viewBox="0 0 24 24"><circle cx="12" cy="12" r="10"/><path d="M16 12l-4-4-4 4M12 16V8"/></symbol><symbol id="arrow-up-left" viewBox="0 0 24 24"><path d="M17 17L7 7M7 17V7h10"/></symbol><symbol id="arrow-up-right" viewBox="0 0 24 24"><path d="M7 17L17 7M7 7h10v10"/></symbol><symbol id="arrow-up" viewBox="0 0 24 24"><path d="M12 19V5M5 12l7-7 7 7"/></symbol><symbol id="at-sign" viewBox="0 0 24 24"><circle cx="12" cy="12" r="4"/><path d="M16 8v5a3 3 0 006 0v-1a10 10 0 10-3.92 7.94"/></symbol><symbol id="award" viewBox="0 0 24 24"><circle cx="12" cy="8" r="7"/><path d="M8.21 13.89L7 23l5-3 5 3-1.21-9.12"/></symbol><symbol id="bar-chart-2" viewBox="0 0 24 24"><path d="M18 20V10M12 20V4M6 20v-6"/></symbol><symbol id="bar-chart" viewBox="0 0 24 24"><path d="M12 20V10M18 20V4M6 20v-4"/></symbol><symbol id="battery-charging" viewBox="0 0 24 24"><path d="M5 18H3a2 2 0 01-2-2V8a2 2 0 012-2h3.19M15 6h2a2 2 0 012 2v8a2 2 0 01-2 2h-3.19M23 13v-2M11 6l-4 6h6l-4 6"/></symbol><symbol id="battery" viewBox="0 0 24 24"><rect x="1" y="6" width="18" height="12" rx="2" ry="2"/><path d="M23 13v-2"/></symbol><symbol id="bell-off" viewBox="0 0 24 24"><path d="M13.73 21a2 2 0 01-3.46 0M18.63 13A17.89 17.89 0 0118 8M6.26 6.26A5.86 5.86 0 006 8c0 7-3 9-3 9h14M18 8a6 6 0 00-9.33-5M1 1l22 22"/></symbol><symbol id="bell" viewBox="0 0 24 24"><path d="M18 8A6 6 0 006 8c0 7-3 9-3 9h18s-3-2-3-9M13.73 21a2 2 0 01-3.46 0"/></symbol><symbol id="bluetooth" viewBox="0 0 24 24"><path d="M6.5 6.5l11 11L12 23V1l5.5 5.5-11 11"/></symbol><symbol id="bold" viewBox="0 0 24 24"><path d="M6 4h8a4 4 0 014 4 4 4 0 01-4 4H6zM6 12h9a4 4 0 014 4 4 4 0 01-4 4H6z"/></symbol><symbol id="book-open" viewBox="0 0 24 24"><path d="M2 3h6a4 4 0 014 4v14a3 3 0 00-3-3H2zM22 3h-6a4 4 0 00-4 4v14a3 3 0 013-3h7z"/></symbol><symbol id="book" viewBox="0 0 24 24"><path d="M4 19.5A2.5 2.5 0 016.5 17H20"/><path d="M6.5 2H20v20H6.5A2.5 2.5 0 014 19.5v-15A2.5 2.5 0 016.5 2z"/></symbol><symbol id="bookmark" viewBox="0 0 24 24"><path d="M19 21l-7-5-7 5V5a2 2 0 012-2h10a2 2 0 012 2z"/></symbol><symbol id="box" viewBox="0 0 24 24"><path d="M21 16V8a2 2 0 00-1-1.73l-7-4a2 2 0 00-2 0l-7 4A2 2 0 003 8v8a2 2 0 001 1.73l7 4a2 2 0 002 0l7-4A2 2 0 0021 16z"/><path d="M3.27 6.96L12 12.01l8.73-5.05M12 22.08V12"/></symbol><symbol id="briefcase" viewBox="0 0 24 24"><rect x="2" y="7" width="20" height="14" rx="2" ry="2"/><path d="M16 21V5a2 2 0 00-2-2h-4a2 2 0 00-2 2v16"/></symbol><symbol id="calendar" viewBox="0 0 24 24"><rect x="3" y="4" width="18" height="18" rx="2" ry="2"/><path d="M16 2v4M8 2v4M3 10h18"/></symbol><symbol id="camera-off" viewBox="0 0 24 24"><path d="M1 1l22 22M21 21H3a2 2 0 01-2-2V8a2 2 0 012-2h3m3-3h6l2 3h4a2 2 0 012 2v9.34m-7.72-2.06a4 4 0 11-5.56-5.56"/></symbol><symbol id="camera" viewBox="0 0 24 24"><path d="M23 19a2 2 0 01-2 2H3a2 2 0 01-2-2V8a2 2 0 012-2h4l2-3h6l2 3h4a2 2 0 012 2z"/><circle cx="12" cy="13" r="4"/></symbol><symbol id="cast" viewBox="0 0 24 24"><path d="M2 16.1A5 5 0 015.9 20M2 12.05A9 9 0 019.95 20M2 8V6a2 2 0 012-2h16a2 2 0 012 2v12a2 2 0 01-2 2h-6M2 20h.01"/></symbol><symbol id="check-circle" viewBox="0 0 24 24"><path d="M22 11.08V12a10 10 0 11-5.93-9.14"/><path d="M22 4L12 14.01l-3-3"/></symbol><symbol id="check-square" viewBox="0 0 24 24"><path d="M9 11l3 3L22 4"/><path d="M21 12v7a2 2 0 01-2 2H5a2 2 0 01-2-2V5a2 2 0 012-2h11"/></symbol><symbol id="check" viewBox="0 0 24 24"><path d="M20 6L9 17l-5-5"/></symbol><symbol id="chevron-down" viewBox="0 0 24 24"><path d="M6 9l6 6 6-6"/></symbol><symbol id="chevron-left" viewBox="0 0 24 24"><path d="M15 18l-6-6 6-6"/></symbol><symbol id="chevron-right" viewBox="0 0 24 24"><path d="M9 18l6-6-6-6"/></symbol><symbol id="chevron-up" viewBox="0 0 24 24"><path d="M18 15l-6-6-6 6"/></symbol><symbol id="chevrons-down" viewBox="0 0 24 24"><path d="M7 13l5 5 5-5M7 6l5 5 5-5"/></symbol><symbol id="chevrons-left" viewBox="0 0 24 24"><path d="M11 17l-5-5 5-5M18 17l-5-5 5-5"/></symbol><symbol id="chevrons-right" viewBox="0 0 24 24"><path d="M13 17l5-5-5-5M6 17l5-5-5-5"/></symbol><symbol id="chevrons-up" viewBox="0 0 24 24"><path d="M17 11l-5-5-5 5M17 18l-5-5-5 5"/></symbol><symbol id="chrome" viewBox="0 0 24 24"><circle cx="12" cy="12" r="10"/><circle cx="12" cy="12" r="4"/><path d="M21.17 8H12M3.95 6.06L8.54 14M10.88 21.94L15.46 14"/></symbol><symbol id="circle" viewBox="0 0 24 24"><circle cx="12" cy="12" r="10"/></symbol><symbol id="clipboard" viewBox="0 0 24 24"><path d="M16 4h2a2 2 0 012 2v14a2 2 0 01-2 2H6a2 2 0 01-2-2V6a2 2 0 012-2h2"/><rect x="8" y="2" width="8" height="4" rx="1" ry="1"/></symbol><symbol id="clock" viewBox="0 0 24 24"><circle cx="12" cy="12" r="10"/><path d="M12 6v6l4 2"/></symbol><symbol id="cloud-drizzle" viewBox="0 0 24 24"><path d="M8 19v2M8 13v2M16 19v2M16 13v2M12 21v2M12 15v2M20 16.58A5 5 0 0018 7h-1.26A8 8 0 104 15.25"/></symbol><symbol id="cloud-lightning" viewBox="0 0 24 24"><path d="M19 16.9A5 5 0 0018 7h-1.26a8 8 0 10-11.62 9"/><path d="M13 11l-4 6h6l-4 6"/></symbol><symbol id="cloud-off" viewBox="0 0 24 24"><path d="M22.61 16.95A5 5 0 0018 10h-1.26a8 8 0 00-7.05-6M5 5a8 8 0 004 15h9a5 5 0 001.7-.3M1 1l22 22"/></symbol><symbol id="cloud-rain" viewBox="0 0 24 24"><path d="M16 13v8M8 13v8M12 15v8M20 16.58A5 5 0 0018 7h-1.26A8 8 0 104 15.25"/></symbol><symbol id="cloud-snow" viewBox="0 0 24 24"><path d="M20 17.58A5 5 0 0018 8h-1.26A8 8 0 104 16.25M8 16h.01M8 20h.01M12 18h.01M12 22h.01M16 16h.01M16 20h.01"/></symbol><symbol id="cloud" viewBox="0 0 24 24"><path d="M18 10h-1.26A8 8 0 109 20h9a5 5 0 000-10z"/></symbol><symbol id="code" viewBox="0 0 24 24"><path d="M16 18l6-6-6-6M8 6l-6 6 6 6"/></symbol><symbol id="codepen" viewBox="0 0 24 24"><path d="M12 2l10 6.5v7L12 22 2 15.5v-7L12 2zM12 22v-6.5"/><path d="M22 8.5l-10 7-10-7"/><path d="M2 15.5l10-7 10 7M12 2v6.5"/></symbol><symbol id="codesandbox" viewBox="0 0 24 24"><path d="M21 16V8a2 2 0 00-1-1.73l-7-4a2 2 0 00-2 0l-7 4A2 2 0 003 8v8a2 2 0 001 1.73l7 4a2 2 0 002 0l7-4A2 2 0 0021 16z"/><path d="M7.5 4.21l4.5 2.6 4.5-2.6M7.5 19.79V14.6L3 12M21 12l-4.5 2.6v5.19M3.27 6.96L12 12.01l8.73-5.05M12 22.08V12"/></symbol><symbol id="coffee" viewBox="0 0 24 24"><path d="M18 8h1a4 4 0 010 8h-1M2 8h16v9a4 4 0 01-4 4H6a4 4 0 01-4-4V8zM6 1v3M10 1v3M14 1v3"/></symbol><symbol id="columns" viewBox="0 0 24 24"><path d="M12 3h7a2 2 0 012 2v14a2 2 0 01-2 2h-7m0-18H5a2 2 0 00-2 2v14a2 2 0 002 2h7m0-18v18"/></symbol><symbol id="command" viewBox="0 0 24 24"><path d="M18 3a3 3 0 00-3 3v12a3 3 0 003 3 3 3 0 003-3 3 3 0 00-3-3H6a3 3 0 00-3 3 3 3 0 003 3 3 3 0 003-3V6a3 3 0 00-3-3 3 3 0 00-3 3 3 3 0 003 3h12a3 3 0 003-3 3 3 0 00-3-3z"/></symbol><symbol id="compass" viewBox="0 0 24 24"><circle cx="12" cy="12" r="10"/><path d="M16.24 7.76l-2.12 6.36-6.36 2.12 2.12-6.36 6.36-2.12z"/></symbol><symbol id="copy" viewBox="0 0 24 24"><rect x="9" y="9" width="13" height="13" rx="2" ry="2"/><path d="M5 15H4a2 2 0 01-2-2V4a2 2 0 012-2h9a2 2 0 012 2v1"/></symbol><symbol id="corner-down-left" viewBox="0 0 24 24"><path d="M9 10l-5 5 5 5"/><path d="M20 4v7a4 4 0 01-4 4H4"/></symbol><symbol id="corner-down-right" viewBox="0 0 24 24"><path d="M15 10l5 5-5 5"/><path d="M4 4v7a4 4 0 004 4h12"/></symbol><symbol id="corner-left-down" viewBox="0 0 24 24"><path d="M14 15l-5 5-5-5"/><path d="M20 4h-7a4 4 0 00-4 4v12"/></symbol><symbol id="corner-left-up" viewBox="0 0 24 24"><path d="M14 9L9 4 4 9"/><path d="M20 20h-7a4 4 0 01-4-4V4"/></symbol><symbol id="corner-right-down" viewBox="0 0 24 24"><path d="M10 15l5 5 5-5"/><path d="M4 4h7a4 4 0 014 4v12"/></symbol><symbol id="corner-right-up" viewBox="0 0 24 24"><path d="M10 9l5-5 5 5"/><path d="M4 20h7a4 4 0 004-4V4"/></symbol><symbol id="corner-up-left" viewBox="0 0 24 24"><path d="M9 14L4 9l5-5"/><path d="M20 20v-7a4 4 0 00-4-4H4"/></symbol><symbol id="corner-up-right" viewBox="0 0 24 24"><path d="M15 14l5-5-5-5"/><path d="M4 20v-7a4 4 0 014-4h12"/></symbol><symbol id="cpu" viewBox="0 0 24 24"><rect x="4" y="4" width="16" height="16" rx="2" ry="2"/><path d="M9 9h6v6H9zM9 1v3M15 1v3M9 20v3M15 20v3M20 9h3M20 14h3M1 9h3M1 14h3"/></symbol><symbol id="credit-card" viewBox="0 0 24 24"><rect x="1" y="4" width="22" height="16" rx="2" ry="2"/><path d="M1 10h22"/></symbol><symbol id="crop" viewBox="0 0 24 24"><path d="M6.13 1L6 16a2 2 0 002 2h15"/><path d="M1 6.13L16 6a2 2 0 012 2v15"/></symbol><symbol id="crosshair" viewBox="0 0 24 24"><circle cx="12" cy="12" r="10"/><path d="M22 12h-4M6 12H2M12 6V2M12 22v-4"/></symbol><symbol id="database" viewBox="0 0 24 24"><ellipse cx="12" cy="5" rx="9" ry="3"/><path d="M21 12c0 1.66-4 3-9 3s-9-1.34-9-3"/><path d="M3 5v14c0 1.66 4 3 9 3s9-1.34 9-3V5"/></symbol><symbol id="delete" viewBox="0 0 24 24"><path d="M21 4H8l-7 8 7 8h13a2 2 0 002-2V6a2 2 0 00-2-2zM18 9l-6 6M12 9l6 6"/></symbol><symbol id="disc" viewBox="0 0 24 24"><circle cx="12" cy="12" r="10"/><circle cx="12" cy="12" r="3"/></symbol><symbol id="divide-circle" viewBox="0 0 24 24"><path d="M8 12h8M12 8"/><circle cx="12" cy="12" r="10"/></symbol><symbol id="divide-square" viewBox="0 0 24 24"><rect x="3" y="3" width="18" height="18" rx="2" ry="2"/><path d="M8 12h8M12 8"/></symbol><symbol id="divide" viewBox="0 0 24 24"><circle cx="12" cy="6" r="2"/><path d="M5 12h14"/><circle cx="12" cy="18" r="2"/></symbol><symbol id="dollar-sign" viewBox="0 0 24 24"><path d="M12 1v22M17 5H9.5a3.5 3.5 0 000 7h5a3.5 3.5 0 010 7H6"/></symbol><symbol id="download-cloud" viewBox="0 0 24 24"><path d="M8 17l4 4 4-4M12 12v9"/><path d="M20.88 18.09A5 5 0 0018 9h-1.26A8 8 0 103 16.29"/></symbol><symbol id="download" viewBox="0 0 24 24"><path d="M21 15v4a2 2 0 01-2 2H5a2 2 0 01-2-2v-4M7 10l5 5 5-5M12 15V3"/></symbol><symbol id="dribbble" viewBox="0 0 24 24"><circle cx="12" cy="12" r="10"/><path d="M8.56 2.75c4.37 6.03 6.02 9.42 8.03 17.72m2.54-15.38c-3.72 4.35-8.94 5.66-16.88 5.85m19.5 1.9c-3.5-.93-6.63-.82-8.94 0-2.58.92-5.01 2.86-7.44 6.32"/></symbol><symbol id="droplet" viewBox="0 0 24 24"><path d="M12 2.69l5.66 5.66a8 8 0 11-11.31 0z"/></symbol><symbol id="edit-2" viewBox="0 0 24 24"><path d="M17 3a2.828 2.828 0 114 4L7.5 20.5 2 22l1.5-5.5L17 3z"/></symbol><symbol id="edit-3" viewBox="0 0 24 24"><path d="M12 20h9M16.5 3.5a2.121 2.121 0 013 3L7 19l-4 1 1-4L16.5 3.5z"/></symbol><symbol id="edit" viewBox="0 0 24 24"><path d="M11 4H4a2 2 0 00-2 2v14a2 2 0 002 2h14a2 2 0 002-2v-7"/><path d="M18.5 2.5a2.121 2.121 0 013 3L12 15l-4 1 1-4 9.5-9.5z"/></symbol><symbol id="external-link" viewBox="0 0 24 24"><path d="M18 13v6a2 2 0 01-2 2H5a2 2 0 01-2-2V8a2 2 0 012-2h6M15 3h6v6M10 14L21 3"/></symbol><symbol id="eye-off" viewBox="0 0 24 24"><path d="M17.94 17.94A10.07 10.07 0 0112 20c-7 0-11-8-11-8a18.45 18.45 0 015.06-5.94M9.9 4.24A9.12 9.12 0 0112 4c7 0 11 8 11 8a18.5 18.5 0 01-2.16 3.19m-6.72-1.07a3 3 0 11-4.24-4.24M1 1l22 22"/></symbol><symbol id="eye" viewBox="0 0 24 24"><path d="M1 12s4-8 11-8 11 8 11 8-4 8-11 8-11-8-11-8z"/><circle cx="12" cy="12" r="3"/></symbol><symbol id="facebook" viewBox="0 0 24 24"><path d="M18 2h-3a5 5 0 00-5 5v3H7v4h3v8h4v-8h3l1-4h-4V7a1 1 0 011-1h3z"/></symbol><symbol id="fast-forward" viewBox="0 0 24 24"><path d="M13 19l9-7-9-7v14zM2 19l9-7-9-7v14z"/></symbol><symbol id="feather" viewBox="0 0 24 24"><path d="M20.24 12.24a6 6 0 00-8.49-8.49L5 10.5V19h8.5zM16 8L2 22M17.5 15H9"/></symbol><symbol id="figma" viewBox="0 0 24 24"><path d="M5 5.5A3.5 3.5 0 018.5 2H12v7H8.5A3.5 3.5 0 015 5.5zM12 2h3.5a3.5 3.5 0 110 7H12V2z"/><path d="M12 12.5a3.5 3.5 0 117 0 3.5 3.5 0 11-7 0zM5 19.5A3.5 3.5 0 018.5 16H12v3.5a3.5 3.5 0 11-7 0zM5 12.5A3.5 3.5 0 018.5 9H12v7H8.5A3.5 3.5 0 015 12.5z"/></symbol><symbol id="file-minus" viewBox="0 0 24 24"><path d="M14 2H6a2 2 0 00-2 2v16a2 2 0 002 2h12a2 2 0 002-2V8z"/><path d="M14 2v6h6M9 15h6"/></symbol><symbol id="file-plus" viewBox="0 0 24 24"><path d="M14 2H6a2 2 0 00-2 2v16a2 2 0 002 2h12a2 2 0 002-2V8z"/><path d="M14 2v6h6M12 18v-6M9 15h6"/></symbol><symbol id="file-text" viewBox="0 0 24 24"><path d="M14 2H6a2 2 0 00-2 2v16a2 2 0 002 2h12a2 2 0 002-2V8z"/><path d="M14 2v6h6M16 13H8M16 17H8M10 9H8"/></symbol><symbol id="file" viewBox="0 0 24 24"><path d="M13 2H6a2 2 0 00-2 2v16a2 2 0 002 2h12a2 2 0 002-2V9z"/><path d="M13 2v7h7"/></symbol><symbol id="film" viewBox="0 0 24 24"><rect x="2" y="2" width="20" height="20" rx="2.18" ry="2.18"/><path d="M7 2v20M17 2v20M2 12h20M2 7h5M2 17h5M17 17h5M17 7h5"/></symbol><symbol id="filter" viewBox="0 0 24 24"><path d="M22 3H2l8 9.46V19l4 2v-8.54L22 3z"/></symbol><symbol id="flag" viewBox="0 0 24 24"><path d="M4 15s1-1 4-1 5 2 8 2 4-1 4-1V3s-1 1-4 1-5-2-8-2-4 1-4 1zM4 22v-7"/></symbol><symbol id="folder-minus" viewBox="0 0 24 24"><path d="M22 19a2 2 0 01-2 2H4a2 2 0 01-2-2V5a2 2 0 012-2h5l2 3h9a2 2 0 012 2zM9 14h6"/></symbol><symbol id="folder-plus" viewBox="0 0 24 24"><path d="M22 19a2 2 0 01-2 2H4a2 2 0 01-2-2V5a2 2 0 012-2h5l2 3h9a2 2 0 012 2zM12 11v6M9 14h6"/></symbol><symbol id="folder" viewBox="0 0 24 24"><path d="M22 19a2 2 0 01-2 2H4a2 2 0 01-2-2V5a2 2 0 012-2h5l2 3h9a2 2 0 012 2z"/></symbol><symbol id="framer" viewBox="0 0 24 24"><path d="M5 16V9h14V2H5l14 14h-7m-7 0l7 7v-7m-7 0h7"/></symbol><symbol id="frown" viewBox="0 0 24 24"><circle cx="12" cy="12" r="10"/><path d="M16 16s-1.5-2-4-2-4 2-4 2M9 9h.01M15 9h.01"/></symbol><symbol id="gift" viewBox="0 0 24 24"><path d="M20 12v10H4V12M2 7h20v5H2zM12 22V7M12 7H7.5a2.5 2.5 0 010-5C11 2 12 7 12 7zM12 7h4.5a2.5 2.5 0 000-5C13 2 12 7 12 7z"/></symbol><symbol id="git-branch" viewBox="0 0 24 24"><path d="M6 3v12"/><circle cx="18" cy="6" r="3"/><circle cx="6" cy="18" r="3"/><path d="M18 9a9 9 0 01-9 9"/></symbol><symbol id="git-commit" viewBox="0 0 24 24"><circle cx="12" cy="12" r="4"/><path d="M1.05 12H7M17.01 12h5.95"/></symbol><symbol id="git-merge" viewBox="0 0 24 24"><circle cx="18" cy="18" r="3"/><circle cx="6" cy="6" r="3"/><path d="M6 21V9a9 9 0 009 9"/></symbol><symbol id="git-pull-request" viewBox="0 0 24 24"><circle cx="18" cy="18" r="3"/><circle cx="6" cy="6" r="3"/><path d="M13 6h3a2 2 0 012 2v7M6 9v12"/></symbol><symbol id="github" viewBox="0 0 24 24"><path d="M9 19c-5 1.5-5-2.5-7-3m14 6v-3.87a3.37 3.37 0 00-.94-2.61c3.14-.35 6.44-1.54 6.44-7A5.44 5.44 0 0020 4.77 5.07 5.07 0 0019.91 1S18.73.65 16 2.48a13.38 13.38 0 00-7 0C6.27.65 5.09 1 5.09 1A5.07 5.07 0 005 4.77a5.44 5.44 0 00-1.5 3.78c0 5.42 3.3 6.61 6.44 7A3.37 3.37 0 009 18.13V22"/></symbol><symbol id="gitlab" viewBox="0 0 24 24"><path d="M22.65 14.39L12 22.13 1.35 14.39a.84.84 0 01-.3-.94l1.22-3.78 2.44-7.51A.42.42 0 014.82 2a.43.43 0 01.58 0 .42.42 0 01.11.18l2.44 7.49h8.1l2.44-7.51A.42.42 0 0118.6 2a.43.43 0 01.58 0 .42.42 0 01.11.18l2.44 7.51L23 13.45a.84.84 0 01-.35.94z"/></symbol><symbol id="globe" viewBox="0 0 24 24"><circle cx="12" cy="12" r="10"/><path d="M2 12h20M12 2a15.3 15.3 0 014 10 15.3 15.3 0 01-4 10 15.3 15.3 0 01-4-10 15.3 15.3 0 014-10z"/></symbol><symbol id="grid" viewBox="0 0 24 24"><path d="M3 3h7v7H3zM14 3h7v7h-7zM14 14h7v7h-7zM3 14h7v7H3z"/></symbol><symbol id="hard-drive" viewBox="0 0 24 24"><path d="M22 12H2M5.45 5.11L2 12v6a2 2 0 002 2h16a2 2 0 002-2v-6l-3.45-6.89A2 2 0 0016.76 4H7.24a2 2 0 00-1.79 1.11zM6 16h.01M10 16h.01"/></symbol><symbol id="hash" viewBox="0 0 24 24"><path d="M4 9h16M4 15h16M10 3L8 21M16 3l-2 18"/></symbol><symbol id="headphones" viewBox="0 0 24 24"><path d="M3 18v-6a9 9 0 0118 0v6"/><path d="M21 19a2 2 0 01-2 2h-1a2 2 0 01-2-2v-3a2 2 0 012-2h3zM3 19a2 2 0 002 2h1a2 2 0 002-2v-3a2 2 0 00-2-2H3z"/></symbol><symbol id="heart" viewBox="0 0 24 24"><path d="M20.84 4.61a5.5 5.5 0 00-7.78 0L12 5.67l-1.06-1.06a5.5 5.5 0 00-7.78 7.78l1.06 1.06L12 21.23l7.78-7.78 1.06-1.06a5.5 5.5 0 000-7.78z"/></symbol><symbol id="help-circle" viewBox="0 0 24 24"><circle cx="12" cy="12" r="10"/><path d="M9.09 9a3 3 0 015.83 1c0 2-3 3-3 3M12 17h.01"/></symbol><symbol id="hexagon" viewBox="0 0 24 24"><path d="M21 16V8a2 2 0 00-1-1.73l-7-4a2 2 0 00-2 0l-7 4A2 2 0 003 8v8a2 2 0 001 1.73l7 4a2 2 0 002 0l7-4A2 2 0 0021 16z"/></symbol><symbol id="home" viewBox="0 0 24 24"><path d="M3 9l9-7 9 7v11a2 2 0 01-2 2H5a2 2 0 01-2-2z"/><path d="M9 22V12h6v10"/></symbol><symbol id="image" viewBox="0 0 24 24"><rect x="3" y="3" width="18" height="18" rx="2" ry="2"/><circle cx="8.5" cy="8.5" r="1.5"/><path d="M21 15l-5-5L5 21"/></symbol><symbol id="inbox" viewBox="0 0 24 24"><path d="M22 12h-6l-2 3h-4l-2-3H2"/><path d="M5.45 5.11L2 12v6a2 2 0 002 2h16a2 2 0 002-2v-6l-3.45-6.89A2 2 0 0016.76 4H7.24a2 2 0 00-1.79 1.11z"/></symbol><symbol id="info" viewBox="0 0 24 24"><circle cx="12" cy="12" r="10"/><path d="M12 16v-4M12 8h.01"/></symbol><symbol id="instagram" viewBox="0 0 24 24"><rect x="2" y="2" width="20" height="20" rx="5" ry="5"/><path d="M16 11.37A4 4 0 1112.63 8 4 4 0 0116 11.37zM17.5 6.5h.01"/></symbol><symbol id="italic" viewBox="0 0 24 24"><path d="M19 4h-9M14 20H5M15 4L9 20"/></symbol><symbol id="key" viewBox="0 0 24 24"><path d="M21 2l-2 2m-7.61 7.61a5.5 5.5 0 11-7.778 7.778 5.5 5.5 0 017.777-7.777zm0 0L15.5 7.5m0 0l3 3L22 7l-3-3m-3.5 3.5L19 4"/></symbol><symbol id="layers" viewBox="0 0 24 24"><path d="M12 2L2 7l10 5 10-5-10-5zM2 17l10 5 10-5M2 12l10 5 10-5"/></symbol><symbol id="layout" viewBox="0 0 24 24"><rect x="3" y="3" width="18" height="18" rx="2" ry="2"/><path d="M3 9h18M9 21V9"/></symbol><symbol id="life-buoy" viewBox="0 0 24 24"><circle cx="12" cy="12" r="10"/><circle cx="12" cy="12" r="4"/><path d="M4.93 4.93l4.24 4.24M14.83 14.83l4.24 4.24M14.83 9.17l4.24-4.24M14.83 9.17l3.53-3.53M4.93 19.07l4.24-4.24"/></symbol><symbol id="link-2" viewBox="0 0 24 24"><path d="M15 7h3a5 5 0 015 5 5 5 0 01-5 5h-3m-6 0H6a5 5 0 01-5-5 5 5 0 015-5h3M8 12h8"/></symbol><symbol id="link" viewBox="0 0 24 24"><path d="M10 13a5 5 0 007.54.54l3-3a5 5 0 00-7.07-7.07l-1.72 1.71"/><path d="M14 11a5 5 0 00-7.54-.54l-3 3a5 5 0 007.07 7.07l1.71-1.71"/></symbol><symbol id="linkedin" viewBox="0 0 24 24"><path d="M16 8a6 6 0 016 6v7h-4v-7a2 2 0 00-2-2 2 2 0 00-2 2v7h-4v-7a6 6 0 016-6zM2 9h4v12H2z"/><circle cx="4" cy="4" r="2"/></symbol><symbol id="list" viewBox="0 0 24 24"><path d="M8 6h13M8 12h13M8 18h13M3 6h.01M3 12h.01M3 18h.01"/></symbol><symbol id="loader" viewBox="0 0 24 24"><path d="M12 2v4M12 18v4M4.93 4.93l2.83 2.83M16.24 16.24l2.83 2.83M2 12h4M18 12h4M4.93 19.07l2.83-2.83M16.24 7.76l2.83-2.83"/></symbol><symbol id="lock" viewBox="0 0 24 24"><rect x="3" y="11" width="18" height="11" rx="2" ry="2"/><path d="M7 11V7a5 5 0 0110 0v4"/></symbol><symbol id="log-in" viewBox="0 0 24 24"><path d="M15 3h4a2 2 0 012 2v14a2 2 0 01-2 2h-4M10 17l5-5-5-5M15 12H3"/></symbol><symbol id="log-out" viewBox="0 0 24 24"><path d="M9 21H5a2 2 0 01-2-2V5a2 2 0 012-2h4M16 17l5-5-5-5M21 12H9"/></symbol><symbol id="mail" viewBox="0 0 24 24"><path d="M4 4h16c1.1 0 2 .9 2 2v12c0 1.1-.9 2-2 2H4c-1.1 0-2-.9-2-2V6c0-1.1.9-2 2-2z"/><path d="M22 6l-10 7L2 6"/></symbol><symbol id="map-pin" viewBox="0 0 24 24"><path d="M21 10c0 7-9 13-9 13s-9-6-9-13a9 9 0 0118 0z"/><circle cx="12" cy="10" r="3"/></symbol><symbol id="map" viewBox="0 0 24 24"><path d="M1 6v16l7-4 8 4 7-4V2l-7 4-8-4-7 4zM8 2v16M16 6v16"/></symbol><symbol id="maximize-2" viewBox="0 0 24 24"><path d="M15 3h6v6M9 21H3v-6M21 3l-7 7M3 21l7-7"/></symbol><symbol id="maximize" viewBox="0 0 24 24"><path d="M8 3H5a2 2 0 00-2 2v3m18 0V5a2 2 0 00-2-2h-3m0 18h3a2 2 0 002-2v-3M3 16v3a2 2 0 002 2h3"/></symbol><symbol id="meh" viewBox="0 0 24 24"><circle cx="12" cy="12" r="10"/><path d="M8 15h8M9 9h.01M15 9h.01"/></symbol><symbol id="menu" viewBox="0 0 24 24"><path d="M3 12h18M3 6h18M3 18h18"/></symbol><symbol id="message-circle" viewBox="0 0 24 24"><path d="M21 11.5a8.38 8.38 0 01-.9 3.8 8.5 8.5 0 01-7.6 4.7 8.38 8.38 0 01-3.8-.9L3 21l1.9-5.7a8.38 8.38 0 01-.9-3.8 8.5 8.5 0 014.7-7.6 8.38 8.38 0 013.8-.9h.5a8.48 8.48 0 018 8v.5z"/></symbol><symbol id="message-square" viewBox="0 0 24 24"><path d="M21 15a2 2 0 01-2 2H7l-4 4V5a2 2 0 012-2h14a2 2 0 012 2z"/></symbol><symbol id="mic-off" viewBox="0 0 24 24"><path d="M1 1l22 22M9 9v3a3 3 0 005.12 2.12M15 9.34V4a3 3 0 00-5.94-.6"/><path d="M17 16.95A7 7 0 015 12v-2m14 0v2a7 7 0 01-.11 1.23M12 19v4M8 23h8"/></symbol><symbol id="mic" viewBox="0 0 24 24"><path d="M12 1a3 3 0 00-3 3v8a3 3 0 006 0V4a3 3 0 00-3-3z"/><path d="M19 10v2a7 7 0 01-14 0v-2M12 19v4M8 23h8"/></symbol><symbol id="minimize-2" viewBox="0 0 24 24"><path d="M4 14h6v6M20 10h-6V4M14 10l7-7M3 21l7-7"/></symbol><symbol id="minimize" viewBox="0 0 24 24"><path d="M8 3v3a2 2 0 01-2 2H3m18 0h-3a2 2 0 01-2-2V3m0 18v-3a2 2 0 012-2h3M3 16h3a2 2 0 012 2v3"/></symbol><symbol id="minus-circle" viewBox="0 0 24 24"><circle cx="12" cy="12" r="10"/><path d="M8 12h8"/></symbol><symbol id="minus-square" viewBox="0 0 24 24"><rect x="3" y="3" width="18" height="18" rx="2" ry="2"/><path d="M8 12h8"/></symbol><symbol id="minus" viewBox="0 0 24 24"><path d="M5 12h14"/></symbol><symbol id="monitor" viewBox="0 0 24 24"><rect x="2" y="3" width="20" height="14" rx="2" ry="2"/><path d="M8 21h8M12 17v4"/></symbol><symbol id="moon" viewBox="0 0 24 24"><path d="M21 12.79A9 9 0 1111.21 3 7 7 0 0021 12.79z"/></symbol><symbol id="more-horizontal" viewBox="0 0 24 24"><circle cx="12" cy="12" r="1"/><circle cx="19" cy="12" r="1"/><circle cx="5" cy="12" r="1"/></symbol><symbol id="more-vertical" viewBox="0 0 24 24"><circle cx="12" cy="12" r="1"/><circle cx="12" cy="5" r="1"/><circle cx="12" cy="19" r="1"/></symbol><symbol id="mouse-pointer" viewBox="0 0 24 24"><path d="M3 3l7.07 16.97 2.51-7.39 7.39-2.51L3 3zM13 13l6 6"/></symbol><symbol id="move" viewBox="0 0 24 24"><path d="M5 9l-3 3 3 3M9 5l3-3 3 3M15 19l-3 3-3-3M19 9l3 3-3 3M2 12h20M12 2v20"/></symbol><symbol id="music" viewBox="0 0 24 24"><path d="M9 18V5l12-2v13"/><circle cx="6" cy="18" r="3"/><circle cx="18" cy="16" r="3"/></symbol><symbol id="navigation-2" viewBox="0 0 24 24"><path d="M12 2l7 19-7-4-7 4 7-19z"/></symbol><symbol id="navigation" viewBox="0 0 24 24"><path d="M3 11l19-9-9 19-2-8-8-2z"/></symbol><symbol id="octagon" viewBox="0 0 24 24"><path d="M7.86 2h8.28L22 7.86v8.28L16.14 22H7.86L2 16.14V7.86L7.86 2z"/></symbol><symbol id="package" viewBox="0 0 24 24"><path d="M16.5 9.4l-9-5.19M21 16V8a2 2 0 00-1-1.73l-7-4a2 2 0 00-2 0l-7 4A2 2 0 003 8v8a2 2 0 001 1.73l7 4a2 2 0 002 0l7-4A2 2 0 0021 16z"/><path d="M3.27 6.96L12 12.01l8.73-5.05M12 22.08V12"/></symbol><symbol id="paperclip" viewBox="0 0 24 24"><path d="M21.44 11.05l-9.19 9.19a6 6 0 01-8.49-8.49l9.19-9.19a4 4 0 015.66 5.66l-9.2 9.19a2 2 0 01-2.83-2.83l8.49-8.48"/></symbol><symbol id="pause-circle" viewBox="0 0 24 24"><circle cx="12" cy="12" r="10"/><path d="M10 15V9M14 15V9"/></symbol><symbol id="pause" viewBox="0 0 24 24"><path d="M6 4h4v16H6zM14 4h4v16h-4z"/></symbol><symbol id="pen-tool" viewBox="0 0 24 24"><path d="M12 19l7-7 3 3-7 7-3-3z"/><path d="M18 13l-1.5-7.5L2 2l3.5 14.5L13 18l5-5zM2 2l7.586 7.586"/><circle cx="11" cy="11" r="2"/></symbol><symbol id="percent" viewBox="0 0 24 24"><path d="M19 5L5 19"/><circle cx="6.5" cy="6.5" r="2.5"/><circle cx="17.5" cy="17.5" r="2.5"/></symbol><symbol id="phone-call" viewBox="0 0 24 24"><path d="M15.05 5A5 5 0 0119 8.95M15.05 1A9 9 0 0123 8.94m-1 7.98v3a2 2 0 01-2.18 2 19.79 19.79 0 01-8.63-3.07 19.5 19.5 0 01-6-6 19.79 19.79 0 01-3.07-8.67A2 2 0 014.11 2h3a2 2 0 012 1.72 12.84 12.84 0 00.7 2.81 2 2 0 01-.45 2.11L8.09 9.91a16 16 0 006 6l1.27-1.27a2 2 0 012.11-.45 12.84 12.84 0 002.81.7A2 2 0 0122 16.92z"/></symbol><symbol id="phone-forwarded" viewBox="0 0 24 24"><path d="M19 1l4 4-4 4M15 5h8M22 16.92v3a2 2 0 01-2.18 2 19.79 19.79 0 01-8.63-3.07 19.5 19.5 0 01-6-6 19.79 19.79 0 01-3.07-8.67A2 2 0 014.11 2h3a2 2 0 012 1.72 12.84 12.84 0 00.7 2.81 2 2 0 01-.45 2.11L8.09 9.91a16 16 0 006 6l1.27-1.27a2 2 0 012.11-.45 12.84 12.84 0 002.81.7A2 2 0 0122 16.92z"/></symbol><symbol id="phone-incoming" viewBox="0 0 24 24"><path d="M16 2v6h6M23 1l-7 7M22 16.92v3a2 2 0 01-2.18 2 19.79 19.79 0 01-8.63-3.07 19.5 19.5 0 01-6-6 19.79 19.79 0 01-3.07-8.67A2 2 0 014.11 2h3a2 2 0 012 1.72 12.84 12.84 0 00.7 2.81 2 2 0 01-.45 2.11L8.09 9.91a16 16 0 006 6l1.27-1.27a2 2 0 012.11-.45 12.84 12.84 0 002.81.7A2 2 0 0122 16.92z"/></symbol><symbol id="phone-missed" viewBox="0 0 24 24"><path d="M23 1l-6 6M17 1l6 6M22 16.92v3a2 2 0 01-2.18 2 19.79 19.79 0 01-8.63-3.07 19.5 19.5 0 01-6-6 19.79 19.79 0 01-3.07-8.67A2 2 0 014.11 2h3a2 2 0 012 1.72 12.84 12.84 0 00.7 2.81 2 2 0 01-.45 2.11L8.09 9.91a16 16 0 006 6l1.27-1.27a2 2 0 012.11-.45 12.84 12.84 0 002.81.7A2 2 0 0122 16.92z"/></symbol><symbol id="phone-off" viewBox="0 0 24 24"><path d="M10.68 13.31a16 16 0 003.41 2.6l1.27-1.27a2 2 0 012.11-.45 12.84 12.84 0 002.81.7 2 2 0 011.72 2v3a2 2 0 01-2.18 2 19.79 19.79 0 01-8.63-3.07 19.42 19.42 0 01-3.33-2.67m-2.67-3.34a19.79 19.79 0 01-3.07-8.63A2 2 0 014.11 2h3a2 2 0 012 1.72 12.84 12.84 0 00.7 2.81 2 2 0 01-.45 2.11L8.09 9.91M23 1L1 23"/></symbol><symbol id="phone-outgoing" viewBox="0 0 24 24"><path d="M23 7V1h-6M16 8l7-7M22 16.92v3a2 2 0 01-2.18 2 19.79 19.79 0 01-8.63-3.07 19.5 19.5 0 01-6-6 19.79 19.79 0 01-3.07-8.67A2 2 0 014.11 2h3a2 2 0 012 1.72 12.84 12.84 0 00.7 2.81 2 2 0 01-.45 2.11L8.09 9.91a16 16 0 006 6l1.27-1.27a2 2 0 012.11-.45 12.84 12.84 0 002.81.7A2 2 0 0122 16.92z"/></symbol><symbol id="phone" viewBox="0 0 24 24"><path d="M22 16.92v3a2 2 0 01-2.18 2 19.79 19.79 0 01-8.63-3.07 19.5 19.5 0 01-6-6 19.79 19.79 0 01-3.07-8.67A2 2 0 014.11 2h3a2 2 0 012 1.72 12.84 12.84 0 00.7 2.81 2 2 0 01-.45 2.11L8.09 9.91a16 16 0 006 6l1.27-1.27a2 2 0 012.11-.45 12.84 12.84 0 002.81.7A2 2 0 0122 16.92z"/></symbol><symbol id="pie-chart" viewBox="0 0 24 24"><path d="M21.21 15.89A10 10 0 118 2.83M22 12A10 10 0 0012 2v10z"/></symbol><symbol id="play-circle" viewBox="0 0 24 24"><circle cx="12" cy="12" r="10"/><path d="M10 8l6 4-6 4V8z"/></symbol><symbol id="play" viewBox="0 0 24 24"><path d="M5 3l14 9-14 9V3z"/></symbol><symbol id="plus-circle" viewBox="0 0 24 24"><circle cx="12" cy="12" r="10"/><path d="M12 8v8M8 12h8"/></symbol><symbol id="plus-square" viewBox="0 0 24 24"><rect x="3" y="3" width="18" height="18" rx="2" ry="2"/><path d="M12 8v8M8 12h8"/></symbol><symbol id="plus" viewBox="0 0 24 24"><path d="M12 5v14M5 12h14"/></symbol><symbol id="pocket" viewBox="0 0 24 24"><path d="M4 3h16a2 2 0 012 2v6a10 10 0 01-10 10A10 10 0 012 11V5a2 2 0 012-2z"/><path d="M8 10l4 4 4-4"/></symbol><symbol id="power" viewBox="0 0 24 24"><path d="M18.36 6.64a9 9 0 11-12.73 0M12 2v10"/></symbol><symbol id="printer" viewBox="0 0 24 24"><path d="M6 9V2h12v7M6 18H4a2 2 0 01-2-2v-5a2 2 0 012-2h16a2 2 0 012 2v5a2 2 0 01-2 2h-2"/><path d="M6 14h12v8H6z"/></symbol><symbol id="radio" viewBox="0 0 24 24"><circle cx="12" cy="12" r="2"/><path d="M16.24 7.76a6 6 0 010 8.49m-8.48-.01a6 6 0 010-8.49m11.31-2.82a10 10 0 010 14.14m-14.14 0a10 10 0 010-14.14"/></symbol><symbol id="refresh-ccw" viewBox="0 0 24 24"><path d="M1 4v6h6M23 20v-6h-6"/><path d="M20.49 9A9 9 0 005.64 5.64L1 10m22 4l-4.64 4.36A9 9 0 013.51 15"/></symbol><symbol id="refresh-cw" viewBox="0 0 24 24"><path d="M23 4v6h-6M1 20v-6h6"/><path d="M3.51 9a9 9 0 0114.85-3.36L23 10M1 14l4.64 4.36A9 9 0 0020.49 15"/></symbol><symbol id="repeat" viewBox="0 0 24 24"><path d="M17 1l4 4-4 4"/><path d="M3 11V9a4 4 0 014-4h14M7 23l-4-4 4-4"/><path d="M21 13v2a4 4 0 01-4 4H3"/></symbol><symbol id="rewind" viewBox="0 0 24 24"><path d="M11 19l-9-7 9-7v14zM22 19l-9-7 9-7v14z"/></symbol><symbol id="rotate-ccw" viewBox="0 0 24 24"><path d="M1 4v6h6"/><path d="M3.51 15a9 9 0 102.13-9.36L1 10"/></symbol><symbol id="rotate-cw" viewBox="0 0 24 24"><path d="M23 4v6h-6"/><path d="M20.49 15a9 9 0 11-2.12-9.36L23 10"/></symbol><symbol id="rss" viewBox="0 0 24 24"><path d="M4 11a9 9 0 019 9M4 4a16 16 0 0116 16"/><circle cx="5" cy="19" r="1"/></symbol><symbol id="save" viewBox="0 0 24 24"><path d="M19 21H5a2 2 0 01-2-2V5a2 2 0 012-2h11l5 5v11a2 2 0 01-2 2z"/><path d="M17 21v-8H7v8M7 3v5h8"/></symbol><symbol id="scissors" viewBox="0 0 24 24"><circle cx="6" cy="6" r="3"/><circle cx="6" cy="18" r="3"/><path d="M20 4L8.12 15.88M14.47 14.48L20 20M8.12 8.12L12 12"/></symbol><symbol id="search" viewBox="0 0 24 24"><circle cx="11" cy="11" r="8"/><path d="M21 21l-4.35-4.35"/></symbol><symbol id="send" viewBox="0 0 24 24"><path d="M22 2L11 13M22 2l-7 20-4-9-9-4 20-7z"/></symbol><symbol id="server" viewBox="0 0 24 24"><rect x="2" y="2" width="20" height="8" rx="2" ry="2"/><rect x="2" y="14" width="20" height="8" rx="2" ry="2"/><path d="M6 6h.01M6 18h.01"/></symbol><symbol id="settings" viewBox="0 0 24 24"><circle cx="12" cy="12" r="3"/><path d="M19.4 15a1.65 1.65 0 00.33 1.82l.06.06a2 2 0 010 2.83 2 2 0 01-2.83 0l-.06-.06a1.65 1.65 0 00-1.82-.33 1.65 1.65 0 00-1 1.51V21a2 2 0 01-2 2 2 2 0 01-2-2v-.09A1.65 1.65 0 009 19.4a1.65 1.65 0 00-1.82.33l-.06.06a2 2 0 01-2.83 0 2 2 0 010-2.83l.06-.06a1.65 1.65 0 00.33-1.82 1.65 1.65 0 00-1.51-1H3a2 2 0 01-2-2 2 2 0 012-2h.09A1.65 1.65 0 004.6 9a1.65 1.65 0 00-.33-1.82l-.06-.06a2 2 0 010-2.83 2 2 0 012.83 0l.06.06a1.65 1.65 0 001.82.33H9a1.65 1.65 0 001-1.51V3a2 2 0 012-2 2 2 0 012 2v.09a1.65 1.65 0 001 1.51 1.65 1.65 0 001.82-.33l.06-.06a2 2 0 012.83 0 2 2 0 010 2.83l-.06.06a1.65 1.65 0 00-.33 1.82V9a1.65 1.65 0 001.51 1H21a2 2 0 012 2 2 2 0 01-2 2h-.09a1.65 1.65 0 00-1.51 1z"/></symbol><symbol id="share-2" viewBox="0 0 24 24"><circle cx="18" cy="5" r="3"/><circle cx="6" cy="12" r="3"/><circle cx="18" cy="19" r="3"/><path d="M8.59 13.51l6.83 3.98M15.41 6.51l-6.82 3.98"/></symbol><symbol id="share" viewBox="0 0 24 24"><path d="M4 12v8a2 2 0 002 2h12a2 2 0 002-2v-8M16 6l-4-4-4 4M12 2v13"/></symbol><symbol id="shield-off" viewBox="0 0 24 24"><path d="M19.69 14a6.9 6.9 0 00.31-2V5l-8-3-3.16 1.18M4.73 4.73L4 5v7c0 6 8 10 8 10a20.29 20.29 0 005.62-4.38M1 1l22 22"/></symbol><symbol id="shield" viewBox="0 0 24 24"><path d="M12 22s8-4 8-10V5l-8-3-8 3v7c0 6 8 10 8 10z"/></symbol><symbol id="shopping-bag" viewBox="0 0 24 24"><path d="M6 2L3 6v14a2 2 0 002 2h14a2 2 0 002-2V6l-3-4zM3 6h18M16 10a4 4 0 01-8 0"/></symbol><symbol id="shopping-cart" viewBox="0 0 24 24"><circle cx="9" cy="21" r="1"/><circle cx="20" cy="21" r="1"/><path d="M1 1h4l2.68 13.39a2 2 0 002 1.61h9.72a2 2 0 002-1.61L23 6H6"/></symbol><symbol id="shuffle" viewBox="0 0 24 24"><path d="M16 3h5v5M4 20L21 3M21 16v5h-5M15 15l6 6M4 4l5 5"/></symbol><symbol id="sidebar" viewBox="0 0 24 24"><rect x="3" y="3" width="18" height="18" rx="2" ry="2"/><path d="M9 3v18"/></symbol><symbol id="skip-back" viewBox="0 0 24 24"><path d="M19 20L9 12l10-8v16zM5 19V5"/></symbol><symbol id="skip-forward" viewBox="0 0 24 24"><path d="M5 4l10 8-10 8V4zM19 5v14"/></symbol><symbol id="slack" viewBox="0 0 24 24"><path d="M14.5 10c-.83 0-1.5-.67-1.5-1.5v-5c0-.83.67-1.5 1.5-1.5s1.5.67 1.5 1.5v5c0 .83-.67 1.5-1.5 1.5zM20.5 10H19V8.5c0-.83.67-1.5 1.5-1.5s1.5.67 1.5 1.5-.67 1.5-1.5 1.5zM9.5 14c.83 0 1.5.67 1.5 1.5v5c0 .83-.67 1.5-1.5 1.5S8 21.33 8 20.5v-5c0-.83.67-1.5 1.5-1.5zM3.5 14H5v1.5c0 .83-.67 1.5-1.5 1.5S2 16.33 2 15.5 2.67 14 3.5 14zM14 14.5c0-.83.67-1.5 1.5-1.5h5c.83 0 1.5.67 1.5 1.5s-.67 1.5-1.5 1.5h-5c-.83 0-1.5-.67-1.5-1.5zM15.5 19H14v1.5c0 .83.67 1.5 1.5 1.5s1.5-.67 1.5-1.5-.67-1.5-1.5-1.5zM10 9.5C10 8.67 9.33 8 8.5 8h-5C2.67 8 2 8.67 2 9.5S2.67 11 3.5 11h5c.83 0 1.5-.67 1.5-1.5zM8.5 5H10V3.5C10 2.67 9.33 2 8.5 2S7 2.67 7 3.5 7.67 5 8.5 5z"/></symbol><symbol id="slash" viewBox="0 0 24 24"><circle cx="12" cy="12" r="10"/><path d="M4.93 4.93l14.14 14.14"/></symbol><symbol id="sliders" viewBox="0 0 24 24"><path d="M4 21v-7M4 10V3M12 21v-9M12 8V3M20 21v-5M20 12V3M1 14h6M9 8h6M17 16h6"/></symbol><symbol id="smartphone" viewBox="0 0 24 24"><rect x="5" y="2" width="14" height="20" rx="2" ry="2"/><path d="M12 18h.01"/></symbol><symbol id="smile" viewBox="0 0 24 24"><circle cx="12" cy="12" r="10"/><path d="M8 14s1.5 2 4 2 4-2 4-2M9 9h.01M15 9h.01"/></symbol><symbol id="speaker" viewBox="0 0 24 24"><rect x="4" y="2" width="16" height="20" rx="2" ry="2"/><circle cx="12" cy="14" r="4"/><path d="M12 6h.01"/></symbol><symbol id="square" viewBox="0 0 24 24"><rect x="3" y="3" width="18" height="18" rx="2" ry="2"/></symbol><symbol id="star" viewBox="0 0 24 24"><path d="M12 2l3.09 6.26L22 9.27l-5 4.87 1.18 6.88L12 17.77l-6.18 3.25L7 14.14 2 9.27l6.91-1.01L12 2z"/></symbol><symbol id="stop-circle" viewBox="0 0 24 24"><circle cx="12" cy="12" r="10"/><path d="M9 9h6v6H9z"/></symbol><symbol id="sun" viewBox="0 0 24 24"><circle cx="12" cy="12" r="5"/><path d="M12 1v2M12 21v2M4.22 4.22l1.42 1.42M18.36 18.36l1.42 1.42M1 12h2M21 12h2M4.22 19.78l1.42-1.42M18.36 5.64l1.42-1.42"/></symbol><symbol id="sunrise" viewBox="0 0 24 24"><path d="M17 18a5 5 0 00-10 0M12 2v7M4.22 10.22l1.42 1.42M1 18h2M21 18h2M18.36 11.64l1.42-1.42M23 22H1M8 6l4-4 4 4"/></symbol><symbol id="sunset" viewBox="0 0 24 24"><path d="M17 18a5 5 0 00-10 0M12 9V2M4.22 10.22l1.42 1.42M1 18h2M21 18h2M18.36 11.64l1.42-1.42M23 22H1M16 5l-4 4-4-4"/></symbol><symbol id="tablet" viewBox="0 0 24 24"><rect x="4" y="2" width="16" height="20" rx="2" ry="2"/><path d="M12 18h.01"/></symbol><symbol id="tag" viewBox="0 0 24 24"><path d="M20.59 13.41l-7.17 7.17a2 2 0 01-2.83 0L2 12V2h10l8.59 8.59a2 2 0 010 2.82zM7 7h.01"/></symbol><symbol id="target" viewBox="0 0 24 24"><circle cx="12" cy="12" r="10"/><circle cx="12" cy="12" r="6"/><circle cx="12" cy="12" r="2"/></symbol><symbol id="terminal" viewBox="0 0 24 24"><path d="M4 17l6-6-6-6M12 19h8"/></symbol><symbol id="thermometer" viewBox="0 0 24 24"><path d="M14 14.76V3.5a2.5 2.5 0 00-5 0v11.26a4.5 4.5 0 105 0z"/></symbol><symbol id="thumbs-down" viewBox="0 0 24 24"><path d="M10 15v4a3 3 0 003 3l4-9V2H5.72a2 2 0 00-2 1.7l-1.38 9a2 2 0 002 2.3zm7-13h2.67A2.31 2.31 0 0122 4v7a2.31 2.31 0 01-2.33 2H17"/></symbol><symbol id="thumbs-up" viewBox="0 0 24 24"><path d="M14 9V5a3 3 0 00-3-3l-4 9v11h11.28a2 2 0 002-1.7l1.38-9a2 2 0 00-2-2.3zM7 22H4a2 2 0 01-2-2v-7a2 2 0 012-2h3"/></symbol><symbol id="toggle-left" viewBox="0 0 24 24"><rect x="1" y="5" width="22" height="14" rx="7" ry="7"/><circle cx="8" cy="12" r="3"/></symbol><symbol id="toggle-right" viewBox="0 0 24 24"><rect x="1" y="5" width="22" height="14" rx="7" ry="7"/><circle cx="16" cy="12" r="3"/></symbol><symbol id="tool" viewBox="0 0 24 24"><path d="M14.7 6.3a1 1 0 000 1.4l1.6 1.6a1 1 0 001.4 0l3.77-3.77a6 6 0 01-7.94 7.94l-6.91 6.91a2.12 2.12 0 01-3-3l6.91-6.91a6 6 0 017.94-7.94l-3.76 3.76z"/></symbol><symbol id="trash-2" viewBox="0 0 24 24"><path d="M3 6h18M19 6v14a2 2 0 01-2 2H7a2 2 0 01-2-2V6m3 0V4a2 2 0 012-2h4a2 2 0 012 2v2M10 11v6M14 11v6"/></symbol><symbol id="trash" viewBox="0 0 24 24"><path d="M3 6h18M19 6v14a2 2 0 01-2 2H7a2 2 0 01-2-2V6m3 0V4a2 2 0 012-2h4a2 2 0 012 2v2"/></symbol><symbol id="trello" viewBox="0 0 24 24"><rect x="3" y="3" width="18" height="18" rx="2" ry="2"/><path d="M7 7h3v9H7zM14 7h3v5h-3z"/></symbol><symbol id="trending-down" viewBox="0 0 24 24"><path d="M23 18l-9.5-9.5-5 5L1 6"/><path d="M17 18h6v-6"/></symbol><symbol id="trending-up" viewBox="0 0 24 24"><path d="M23 6l-9.5 9.5-5-5L1 18"/><path d="M17 6h6v6"/></symbol><symbol id="triangle" viewBox="0 0 24 24"><path d="M10.29 3.86L1.82 18a2 2 0 001.71 3h16.94a2 2 0 001.71-3L13.71 3.86a2 2 0 00-3.42 0z"/></symbol><symbol id="truck" viewBox="0 0 24 24"><path d="M1 3h15v13H1zM16 8h4l3 3v5h-7V8z"/><circle cx="5.5" cy="18.5" r="2.5"/><circle cx="18.5" cy="18.5" r="2.5"/></symbol><symbol id="tv" viewBox="0 0 24 24"><rect x="2" y="7" width="20" height="15" rx="2" ry="2"/><path d="M17 2l-5 5-5-5"/></symbol><symbol id="twitch" viewBox="0 0 24 24"><path d="M21 2H3v16h5v4l4-4h5l4-4V2zm-10 9V7m5 4V7"/></symbol><symbol id="twitter" viewBox="0 0 24 24"><path d="M23 3a10.9 10.9 0 01-3.14 1.53 4.48 4.48 0 00-7.86 3v1A10.66 10.66 0 013 4s-4 9 5 13a11.64 11.64 0 01-7 2c9 5 20 0 20-11.5a4.5 4.5 0 00-.08-.83A7.72 7.72 0 0023 3z"/></symbol><symbol id="type" viewBox="0 0 24 24"><path d="M4 7V4h16v3M9 20h6M12 4v16"/></symbol><symbol id="umbrella" viewBox="0 0 24 24"><path d="M23 12a11.05 11.05 0 00-22 0zm-5 7a3 3 0 01-6 0v-7"/></symbol><symbol id="underline" viewBox="0 0 24 24"><path d="M6 3v7a6 6 0 006 6 6 6 0 006-6V3M4 21h16"/></symbol><symbol id="unlock" viewBox="0 0 24 24"><rect x="3" y="11" width="18" height="11" rx="2" ry="2"/><path d="M7 11V7a5 5 0 019.9-1"/></symbol><symbol id="upload-cloud" viewBox="0 0 24 24"><path d="M16 16l-4-4-4 4M12 12v9"/><path d="M20.39 18.39A5 5 0 0018 9h-1.26A8 8 0 103 16.3"/><path d="M16 16l-4-4-4 4"/></symbol><symbol id="upload" viewBox="0 0 24 24"><path d="M21 15v4a2 2 0 01-2 2H5a2 2 0 01-2-2v-4M17 8l-5-5-5 5M12 3v12"/></symbol><symbol id="user-check" viewBox="0 0 24 24"><path d="M16 21v-2a4 4 0 00-4-4H5a4 4 0 00-4 4v2"/><circle cx="8.5" cy="7" r="4"/><path d="M17 11l2 2 4-4"/></symbol><symbol id="user-minus" viewBox="0 0 24 24"><path d="M16 21v-2a4 4 0 00-4-4H5a4 4 0 00-4 4v2"/><circle cx="8.5" cy="7" r="4"/><path d="M23 11h-6"/></symbol><symbol id="user-plus" viewBox="0 0 24 24"><path d="M16 21v-2a4 4 0 00-4-4H5a4 4 0 00-4 4v2"/><circle cx="8.5" cy="7" r="4"/><path d="M20 8v6M23 11h-6"/></symbol><symbol id="user-x" viewBox="0 0 24 24"><path d="M16 21v-2a4 4 0 00-4-4H5a4 4 0 00-4 4v2"/><circle cx="8.5" cy="7" r="4"/><path d="M18 8l5 5M23 8l-5 5"/></symbol><symbol id="user" viewBox="0 0 24 24"><path d="M20 21v-2a4 4 0 00-4-4H8a4 4 0 00-4 4v2"/><circle cx="12" cy="7" r="4"/></symbol><symbol id="users" viewBox="0 0 24 24"><path d="M17 21v-2a4 4 0 00-4-4H5a4 4 0 00-4 4v2"/><circle cx="9" cy="7" r="4"/><path d="M23 21v-2a4 4 0 00-3-3.87M16 3.13a4 4 0 010 7.75"/></symbol><symbol id="video-off" viewBox="0 0 24 24"><path d="M16 16v1a2 2 0 01-2 2H3a2 2 0 01-2-2V7a2 2 0 012-2h2m5.66 0H14a2 2 0 012 2v3.34l1 1L23 7v10M1 1l22 22"/></symbol><symbol id="video" viewBox="0 0 24 24"><path d="M23 7l-7 5 7 5V7z"/><rect x="1" y="5" width="15" height="14" rx="2" ry="2"/></symbol><symbol id="voicemail" viewBox="0 0 24 24"><circle cx="5.5" cy="11.5" r="4.5"/><circle cx="18.5" cy="11.5" r="4.5"/><path d="M5.5 16h13"/></symbol><symbol id="volume-1" viewBox="0 0 24 24"><path d="M11 5L6 9H2v6h4l5 4V5zM15.54 8.46a5 5 0 010 7.07"/></symbol><symbol id="volume-2" viewBox="0 0 24 24"><path d="M11 5L6 9H2v6h4l5 4V5zM19.07 4.93a10 10 0 010 14.14M15.54 8.46a5 5 0 010 7.07"/></symbol><symbol id="volume-x" viewBox="0 0 24 24"><path d="M11 5L6 9H2v6h4l5 4V5zM23 9l-6 6M17 9l6 6"/></symbol><symbol id="volume" viewBox="0 0 24 24"><path d="M11 5L6 9H2v6h4l5 4V5z"/></symbol><symbol id="watch" viewBox="0 0 24 24"><circle cx="12" cy="12" r="7"/><path d="M12 9v3l1.5 1.5M16.51 17.35l-.35 3.83a2 2 0 01-2 1.82H9.83a2 2 0 01-2-1.82l-.35-3.83m.01-10.7l.35-3.83A2 2 0 019.83 1h4.35a2 2 0 012 1.82l.35 3.83"/></symbol><symbol id="wifi-off" viewBox="0 0 24 24"><path d="M1 1l22 22M16.72 11.06A10.94 10.94 0 0119 12.55M5 12.55a10.94 10.94 0 015.17-2.39M10.71 5.05A16 16 0 0122.58 9M1.42 9a15.91 15.91 0 014.7-2.88M8.53 16.11a6 6 0 016.95 0M12 20h.01"/></symbol><symbol id="wifi" viewBox="0 0 24 24"><path d="M5 12.55a11 11 0 0114.08 0M1.42 9a16 16 0 0121.16 0M8.53 16.11a6 6 0 016.95 0M12 20h.01"/></symbol><symbol id="wind" viewBox="0 0 24 24"><path d="M9.59 4.59A2 2 0 1111 8H2m10.59 11.41A2 2 0 1014 16H2m15.73-8.27A2.5 2.5 0 1119.5 12H2"/></symbol><symbol id="x-circle" viewBox="0 0 24 24"><circle cx="12" cy="12" r="10"/><path d="M15 9l-6 6M9 9l6 6"/></symbol><symbol id="x-octagon" viewBox="0 0 24 24"><path d="M7.86 2h8.28L22 7.86v8.28L16.14 22H7.86L2 16.14V7.86L7.86 2zM15 9l-6 6M9 9l6 6"/></symbol><symbol id="x-square" viewBox="0 0 24 24"><rect x="3" y="3" width="18" height="18" rx="2" ry="2"/><path d="M9 9l6 6M15 9l-6 6"/></symbol><symbol id="x" viewBox="0 0 24 24"><path d="M18 6L6 18M6 6l12 12"/></symbol><symbol id="youtube" viewBox="0 0 24 24"><path d="M22.54 6.42a2.78 2.78 0 00-1.94-2C18.88 4 12 4 12 4s-6.88 0-8.6.46a2.78 2.78 0 00-1.94 2A29 29 0 001 11.75a29 29 0 00.46 5.33A2.78 2.78 0 003.4 19c1.72.46 8.6.46 8.6.46s6.88 0 8.6-.46a2.78 2.78 0 001.94-2 29 29 0 00.46-5.25 29 29 0 00-.46-5.33z"/><path d="M9.75 15.02l5.75-3.27-5.75-3.27v6.54z"/></symbol><symbol id="zap-off" viewBox="0 0 24 24"><path d="M12.41 6.75L13 2l-2.43 2.92M18.57 12.91L21 10h-5.34M8 8l-5 6h9l-1 8 5-6M1 1l22 22"/></symbol><symbol id="zap" viewBox="0 0 24 24"><path d="M13 2L3 14h9l-1 8 10-12h-9l1-8z"/></symbol><symbol id="zoom-in" viewBox="0 0 24 24"><circle cx="11" cy="11" r="8"/><path d="M21 21l-4.35-4.35M11 8v6M8 11h6"/></symbol><symbol id="zoom-out" viewBox="0 0 24 24"><circle cx="11" cy="11" r="8"/><path d="M21 21l-4.35-4.35M8 11h6"/></symbol><symbol id="zoom-out" viewBox="0 0 24 24"><circle cx="11" cy="11" r="8"/><path d="M21 21l-4.35-4.35M8 11h6"/></symbol><symbol id="svgicon-chef-hat" viewBox="0 0 32 32"><path fill="none" stroke-miterlimit="10" stroke-linecap="round" stroke-linejoin="round" d="M23.336 4c-.8 0-1.549.2-2.205.555-.633-2.243-3.357-3.888-5.8-3.888s-5.2 1.645-5.833 3.888a4.667 4.667 0 00-6.872 4.112c0 2.578 2 4.667 4.667 4.667v17.917h16.039V13.334c2.667 0 4.669-2.089 4.669-4.667S25.913 4 23.337 4zM7.292 25.917h16.039m-12.026-5.333v5.333m3.987-6.666v6.667m4.025-5.334v5.333"/></symbol><symbol id="svgicon-drink-coffee" viewBox="0 0 32 32"><path fill="none" stroke-miterlimit="10" stroke-linecap="round" stroke-linejoin="round" d="M24 31.333H8L6.667 10h18.667zM5.333 4.667h21.333V10H5.333zm20 0H6.666l1.333-4h16z"/><path fill="none" stroke-miterlimit="10" stroke-linejoin="round" d="M7 15.333h18m-17.5 8h17.028"/><path fill="none" stroke-miterlimit="10" stroke-linecap="round" stroke-linejoin="round" d="M12.667 19.333h6.667"/></symbol><symbol id="svgicon-music-note" viewBox="0 0 32 32"><path fill="none" stroke-miterlimit="10" stroke-linejoin="round" d="M12.667 27.333c0 2-1.791 4-4 4a4 4 0 010-8h4v4zM27.333 22c0 2-1.791 4-4 4a4 4 0 010-8h4v4zm-14.666 2.667V7.334l14.667-6v19.333M12.667 12l14.667-6"/></symbol><symbol id="svgicon-notebook-2" viewBox="0 0 32 32"><path fill="none" stroke-miterlimit="10" stroke-linecap="round" stroke-linejoin="round" d="M27.333 24.667H4.666V11.334h22.667zM2 27.333V10.666a2 2 0 012-2h24a2 2 0 012 2v16.667"/><path fill="none" stroke-miterlimit="10" stroke-linecap="round" stroke-linejoin="round" d="M19.333 27.333v1h-6.667v-1h-12V30c0 .737.597 1 1 1h28c.737 0 1-.596 1-1v-2.667h-12z"/></symbol><symbol id="svgicon-paint-palette" viewBox="0 0 32 32"><path fill="none" stroke-miterlimit="10" stroke-linecap="round" stroke-linejoin="round" d="M5.157 27.852c-5.988-5.987-5.988-15.697 0-21.685s15.696-5.987 21.685 0 5.988 15.697 0 21.685a7.333 7.333 0 01-10.371 0l-5.656-5.656a1.332 1.332 0 10-1.885 1.885 2.669 2.669 0 010 3.771 2.67 2.67 0 01-3.773 0z"/><path fill="none" stroke-miterlimit="10" stroke-linecap="round" stroke-linejoin="round" d="M23.655 10.411a1.999 1.999 0 11-3.998 0 1.999 1.999 0 013.998 0zM26.667 17.008c0 .736-.597 1-1 1s-1-.597-1-1c0-.736.597-1 1-1s1 .597 1 1zM24.323 23.609a2.667 2.667 0 11-5.334 0 2.667 2.667 0 015.334 0zM15.641 8.995a1.999 1.999 0 11-3.998 0 1.999 1.999 0 013.998 0z"/></symbol><symbol id="svgicon-figma" viewBox="0 0 43 63.5"><g fill="none" stroke-width="3" stroke-miterlimit="10"><path d="M21.6 32.8c-.1.2-.1.5-.1.7v8.4c-.2.3-.6.2-.9.2h-9.4c-.4 0-.7 0-1-.3-2.2-.2-4-1-5.7-2.4-2.3-2-3.5-4.6-3.5-7.8 0-2.7 1-5 2.9-7 .1-.1.2-.3.3-.4 1.5-1.3 3.3-2.3 5.3-2.6.2 0 .3 0 .5-.1 1.2-.6 2.5-.3 3.7-.3h6.8c.3 0 .6 0 .9.1.1 0 .1.1.1.1.1.2.1.3.1.5 0 2.3.1 4.6 0 6.9 0 .6.1 1.2.1 1.8 0 .6-.1 1.2 0 1.7.1.3.1.5-.1.5zM21.5 1c3.6 0 7.2-.1 10.8 0 4.8.1 9.1 4.2 9.7 8.9.7 5.4-3.1 10.7-8.8 11.4-.1 0-.3 0-.3.2-.1.2-.3.2-.4.2-.6-.1-1.3 0-1.9 0-2.7-.2-5.4 0-8.1-.1-.3 0-.7.1-.9-.2-.2-.2-.2-.4-.2-.6v-1.7V1.9c-.1-.2-.2-.6.1-.9z"/><path d="M21.5 1v20.5c-3.8 0-7.7-.1-11.5.1.1 0 .1-.1.2-.2-2-.2-3.8-.9-5.3-2.1-2.2-1.7-3.5-4-3.9-6.8C.4 7.2 4 2.1 9.5 1.2c.4-.1.9-.2 1.3-.2h10.7zM30.6 21.6c.8-.1 1.5-.1 2.3 0 1.5.1 5.2 1.8 5.2 2.1.3.2.5.4.8.7 1.1 1.1 1.9 2.3 2.5 3.7 2.4 6.2-1.7 13-8.4 13.8-5.5.7-10.5-3.1-11.4-8.6v-.5c-.1-.7-.1-1.4 0-2.1 0-1 0-1.9.4-2.8 1.2-2.9 3.3-4.9 6.2-6 .8-.3 1.6-.3 2.4-.3zM10.2 41.9c3.8.2 7.5 0 11.3.1 0 3.6.1 7.3 0 10.9-.2 4.9-4.1 9-9 9.5-5.6.7-10.5-3-11.4-8.5-.9-5.6 3-10.9 8.6-11.8.2 0 .4.1.5-.2z"/><path d="M30.6 21.6c-4.8.5-8.6 4.5-9 9.1-.1-.2-.1-.5-.1-.7v-8.5h8.4c.3 0 .5 0 .7.1z"/></g></symbol><symbol id="svgicon-virtual_reality" viewBox="0 0 71.8 112.1"><g fill="#cacaca"><path d="M46 83.6c9.5 2.7 16.2 8.3 19.8 17.4 1.1 2.7 1.6 5.6 1.6 8.5 0 1.7-.6 2.6-2.4 2.6H6.6c-2 0-2.4-1-2.4-2.7 0-11.1 8.2-21.6 19.3-24.8l2.1-.6c-.4-.6-1-.3-1.5-.3-6.6 0-13.1-.1-19.7 0-2 0-2.9-.7-2.8-2.8.1-8.8 0-17.5 0-26.3 0-1.2-.2-2.2-.7-3.4-1.3-3.1-1.4-6.2.2-9.3.9-1.8.4-3.9.4-5.8-.2-5.7.8-11.1 3.2-16.3 7.7-16.6 27.7-24.2 44.5-17l1.2.6c1.3.4 2.2 1.2 1.6 2.6-.6 1.4-1.8 1.2-3 .6-4.1-1.9-8.4-3-12.9-3C24.4 3.8 15.4 9 9.2 19c-.3.5-.6 1-.7 1.6 2-1.4 4.7-1.3 6.4-3.5 2.7-3.6 6.4-6.1 10.5-7.9 1.3-.6 2.3-.5 3.4.5 2.6 2.3 5.7 4.1 8.8 5.7 5 2.6 10.3 3.7 16 3.2 3.3-.3 6.6-.1 9.2 2.4.5-1-.2-1.6-.5-2.2-1.7-2.9-3.9-5.5-6.4-7.7-1-.8-1.7-1.8-.7-3s2.1-.6 3 .2c7.4 6.6 11.5 14.9 11.9 24.9.1 1.5 0 2.9 0 4.4 0 2 .1 3.8 1 5.7 1.2 2.6.7 5.3-.3 7.8-.5 1.1-.6 2.2-.6 3.4v26c0 2.7-.3 3-3 3-7.2.1-14.2.1-21.2.1zM35.9 22.3c-6.5 0-13 .2-19.5-.1-4.8-.2-7.1 2.6-7 7 .1 6.3.2 12.7-.1 19-.2 4.2 2.2 6.9 5.9 7 13.7.1 27.4.1 41.1 0 3.8 0 5.9-2 6-5.8.1-7.1.1-14.3 0-21.4-.1-3.7-2.3-5.7-6-5.7H35.9zM5.2 56.9v21.9c0 1.4.9 1.1 1.6 1.1h18.4c.6 0 1.5.4 1.6-.5.1-.7-.7-.8-1.3-1-2.2-.9-4.2-2.1-6-3.5-1-.7-1.2-1.7-.5-2.7.7-.9 1.6-.9 2.5-.3.4.2.7.5 1.1.7 7.9 5.1 16.1 5.6 24.4 1.3 6.2-3.2 10-8.3 11.8-15.1H13.1c.6 3 2 5.6 3.6 8 .7 1 .9 2.1-.3 2.8-1.2.8-2 .1-2.7-.9-1.5-2.2-3-4.4-3.4-7-.7-2.9-2.5-4-5.1-4.8zm45.3 32.3c-.2.5-.3.8-.4 1.2-2.3 6.4-7.6 10.3-14.1 10.4-6.4.1-11.9-3.9-14.1-10.4-.6-1.7-1.2-1-2-.5-6.5 3.8-10.5 9.3-11.8 16.7-.3 1.6 0 2 1.6 2 6.3-.1 12.7 0 19 0h33.5c.8 0 1.9.4 1.6-1.2C62.4 99.1 58 93 50.5 89.2zm-15.8-8.8c-4.2-.4-4.2-.4-4.2 3 0 3.3-.1 3.4-3.2 4-.4.1-.9.2-1.3.2-1 .1-1.1.5-.8 1.5 1.3 4.6 5.6 8 10.4 8.1 5 .1 9.3-2.9 10.9-7.5.5-1.4.3-2-1.2-2.2-4.4-.6-4.2-.6-4.2-5.1v-1.1c.1-1-.2-1.4-1.3-1.2-1.9.2-3.9.3-5.1.3zm31.8-24c-1.5 1.8-3.8 1.1-4.4 3.3-2.3 8.9-7.8 15.1-16.2 18.7-.5.2-1.1.3-1 .9.1.7.8.5 1.2.5h19c1.1 0 1.3-.4 1.3-1.4.1-7 .1-14.2.1-22zM34.9 18.5c-2.6-1.8-5.3-3.4-7.6-5.4-.4-.4-.8-.5-1.4-.2-2.7 1.3-5.2 3-7.4 5.5 5.7.1 11.1.1 16.4.1zM5.7 42.7c-2.9 2.1-2.8 6.5.5 9.7-.8-3.4-.4-6.5-.5-9.7zm60.1-.3V52c2.9-3 3.1-7 0-9.6zm-60.1-4v-6.8c-.6 2.3-.6 4.5 0 6.8zm60.3 0c.5-2.2.7-4.5 0-6.7v6.7z"/><path d="M35.8 51.7H19.2c-4 0-6.1-2.1-6.2-6v-14c0-3.7 2.1-5.9 5.8-5.9 6.8-.1 13.6 0 20.3 0 1.3 0 2.5.1 2.5 1.7 0 1.7-1.3 1.9-2.6 1.9H19.5c-2.5 0-2.9.4-2.9 2.9 0 4.4.1 8.8 0 13.1 0 2 .8 2.8 2.7 2.8h33c2 0 2.8-.9 2.8-2.9-.1-4.3 0-8.6 0-12.9 0-2.6-.4-3-3.1-3h-4.6c-1.2 0-2.3-.4-2.3-1.8s.9-1.8 2.2-1.8c2.1 0 4.2-.1 6.3.1 2.9.2 4.9 2.2 5 5.1.1 5.2.1 10.4 0 15.5-.1 3.1-2.4 5.2-5.6 5.2H35.8zM29 67.5c-.1-3.9 3.1-7.3 6.8-7.4 3.7 0 6.9 3.3 6.9 7.3 0 3.8-3 7.1-6.7 7.3-3.7.1-7-3.2-7-7.2zm9.8-1.4c-.5-1.5-1.4-2.3-2.9-2.3s-2.6.7-3.1 2.3h6zM33.5 70c1.7 1.2 3 1.3 4.5 0-1.5-.4-2.8-.4-4.5 0z"/></g></symbol><symbol id="svgicon-vision" viewBox="0 0 305 305"><path fill="none" stroke="#cacaca" stroke-width="10" stroke-miterlimit="10" d="M150.5 300C69.9 300 3 234.3 3 152.5 3 71.9 68.7 5 150.5 5 231.1 5 298 70.7 298 152.5S231.1 300 150.5 300h0z"/><path fill="none" stroke="#cacaca" stroke-width="10" stroke-miterlimit="10" d="M134.4 136.4l-24.8 57 57-24.8 24.8-57-57 24.8h0z"/></symbol><symbol id="svgicon-business_obj" viewBox="0 0 300 300"><path fill="none" stroke="#cacaca" stroke-width="10" stroke-miterlimit="10" d="M139 273.3c-34 0-65.6-13.4-89.9-37.7s-37.7-55.9-37.7-89.9c0-34 13.4-65.6 37.7-89.9S105 18.2 139 18.2c34 0 65.6 13.4 89.9 37.7s37.7 55.9 37.7 89.9c0 34-13.4 65.6-37.7 89.9-24.3 24.2-57.1 37.6-89.9 37.6h0zM139 0v293.9M-9.2 147h294"/></symbol><symbol id="svgicon-assessment" viewBox="0 0 300 300"><g fill="none" stroke="#cacaca" stroke-width="10" stroke-miterlimit="10"><path d="M236.8 181.9C236 218 239 253 236 289c0 2-2 4-3 5-2 2-5 3-8 3-68 0-136 2-204-1-1 0-3-1-4-2-2-2-4-5-4-8 0-87-1-173 0-260 0-3 1-6 4-7 14-6 29-2 44.4-2.7M187.2 15.1C204 16 223 9 237 21c2 20 0 39 1 58.6"/></g><path fill="none" stroke="#cacaca" stroke-width="10" stroke-miterlimit="10" d="M166.6 53.8H84.3c-14.5 0-25.4-12.1-25.4-25.4C58.9 13.9 71 3 84.3 3h82.3C181.1 3 192 15.1 192 28.4c0 14.5-10.9 25.4-25.4 25.4h0zM176.2 196.6h-.8l-26.7-3.3c-2.5 0-4.2-1.7-5.8-3.3-1.7-1.7-1.7-4.2-.8-6.7l6.7-26.7c.8-1.7 1.7-3.3 3.3-5l72.6-49.3 16.7-10.9 5.8-3.3c1.7-.8 4.2-1.7 6.7-1.7s4.2 1.7 5 3.3l20 30.1c1.7 1.7 1.7 4.2 1.7 6.7s-1.7 4.2-3.3 5L183 195.8c-3.4 0-5.1.8-6.8.8h0zm-16.7-19.2l14.2 1.7 85.2-58.4-10.9-15.9-85.2 58.4-3.3 14.2h0zM83.1 28.4h84.7"/></symbol><symbol id="svgicon-execution" viewBox="0 0 300 300"><path fill="none" stroke="#cacaca" stroke-width="10" stroke-miterlimit="10" d="M208 102.7c-4.9-4.9-4.9-12.3 0-17.2 4.9-4.9 12.3-4.9 17.2 0l56.6 56.6c4.9 4.9 4.9 12.3 0 17.2l-56.6 56.6c-2.5 2.5-4.9 3.7-8.6 3.7h0c-3.7 0-6.1-1.2-8.6-3.7-4.9-4.9-4.9-12.3 0-17.2M91.1 198.6c4.9 4.9 4.9 12.3 0 17.2-2.5 2.5-6.1 3.7-8.6 3.7h0c-3.7 0-6.1-1.2-8.6-3.7l-56.6-56.6c-4.9-4.9-4.9-12.3 0-17.2l56.6-56.6c4.9-4.9 12.3-4.9 17.2 0 4.9 4.9 4.9 12.3 0 17.2"/><g><path fill="none" stroke="#cacaca" stroke-width="10" stroke-miterlimit="10" d="M197 28.9l-92.2 248.4"/></g></symbol><symbol id="svgicon-instagram" viewBox="0 0 24 24"><path fill="none" stroke="#fff" stroke-width="1.5" stroke-linecap="round" stroke-linejoin="round" d="M7 2h10c2.8 0 5 2.2 5 5v10c0 2.8-2.2 5-5 5H7c-2.8 0-5-2.2-5-5V7c0-2.8 2.2-5 5-5z"/><path fill="none" stroke="#fff" stroke-width="1.5" stroke-linecap="round" stroke-linejoin="round" d="M16 11.4c.3 2.2-1.2 4.2-3.4 4.5-2.2.3-4.2-1.2-4.5-3.4-.3-2.1 1.2-4.2 3.4-4.5.4-.1.8-.1 1.2 0 1.7.3 3 1.6 3.3 3.4zM17.5 6.5h0"/></symbol><symbol id="svgicon-github" viewBox="0 0 24 24"><path fill="none" stroke="#fff" stroke-width="1.5" stroke-linecap="round" stroke-linejoin="round" d="M8.2 19.8c-5 1.5-5-2.5-7-3m14 6v-3.9c.1-1-.3-1.9-.9-2.6 3.1-.3 6.4-1.5 6.4-7 0-1.4-.5-2.7-1.5-3.8.5-1.2.4-2.6-.1-3.8 0 0-1.2-.4-3.9 1.5-2.3-.6-4.7-.6-7 0-2.7-1.8-3.9-1.4-3.9-1.4-.5 1.1-.5 2.5-.1 3.7-1 1-1.5 2.4-1.5 3.8 0 5.4 3.3 6.6 6.4 7-.7.7-1 1.6-.9 2.6v3.9"/></symbol><symbol id="checked_icon" viewBox="401.8 0 465 605.8"><path fill="#CACACA" stroke="#CACACA" stroke-width="5" stroke-miterlimit="10" d="M633.9 456c-109.2 0-199.1-89.9-199.1-199.1S524.7 57.8 633.9 57.8 833 147.7 833 256.9 743.1 456 633.9 456h0zm0-389.9c-105.1 0-190.8 85.7-190.8 190.8s85.7 190.8 190.8 190.8S824.7 362 824.7 256.9 739 66.1 633.9 66.1h0z"/><path fill="#CACACA" stroke="#CACACA" stroke-width="13" stroke-miterlimit="10" d="M597.9 339.8c-1.4 0-2.8 0-2.8-1.4L537 276.2c-1.4-1.4-1.4-4.1 0-6.9 1.4-1.4 4.1-1.4 6.9 0l55.3 58.1L725 175.3c1.4-1.4 4.1-2.8 6.9 0 1.4 1.4 2.8 4.1 0 6.9l-130 157.6h-4 0z"/></symbol><symbol id="target_blank" viewBox="435.3 180.9 392.4 392.5"><path fill="#303136" d="M635.2 464.1c-.8.8-1.8 1.3-2.9 1.5-2.9.5-5.6-1.5-6.1-4.4l-13-81.4-81.5-12.6c-2.9-.4-4.9-3.2-4.4-6 .4-2.9 3.1-4.9 6-4.4l85.3 13.2c2.3.4 4 2.1 4.4 4.4l13.6 85.2c.3 1.7-.3 3.4-1.4 4.5z"/><path fill="#303136" d="M621.5 378.9l-92.6 93c-2.1 2.1-5.4 2.1-7.5 0-2.1-2.1-2.1-5.4 0-7.5l92.6-93c2.1-2.1 5.4-2.1 7.5 0 2.1 2.1 2.1 5.5 0 7.5z"/></symbol><symbol id="bg_triangle_round" viewBox="0 0 134.8 148.4"><linearGradient id="SVGID_1_" gradientUnits="userSpaceOnUse" x1="-23.5" y1="15.399" x2="125.885" y2="15.399" gradientTransform="rotate(152.092 55.054 48.601)"><stop offset="0" stop-color="#c2982e"/><stop offset="0" stop-color="#a2792c"/><stop offset=".461" stop-color="#cda430"/><stop offset=".562" stop-color="#cda430"/><stop offset=".82" stop-color="#f8d975"/><stop offset="1" stop-color="#c2982e"/><stop offset="1" stop-color="#a2792c"/></linearGradient><path opacity=".54" fill="none" stroke="url(#SVGID_1_)" stroke-width="43" stroke-miterlimit="10" d="M109.7 29.9c12 18.8-7.9 80.8-26.8 92.8-18.8 12-44.5-4.2-56.5-23S25.8 53.4 46.6 40c18.8-12 51-28.9 63.1-10.1z"/></symbol><symbol id="bg_round" viewBox="0 0 150.8 150.8"><linearGradient id="SVGID_1_" gradientUnits="userSpaceOnUse" x1="110.389" y1="83.771" x2="261.153" y2="83.771" gradientTransform="rotate(42.43 141.376 -62.616)"><stop offset="0" stop-color="#c2982e"/><stop offset="0" stop-color="#a2792c"/><stop offset=".461" stop-color="#cda430"/><stop offset=".562" stop-color="#cda430"/><stop offset=".82" stop-color="#f8d975"/><stop offset="1" stop-color="#c2982e"/><stop offset="1" stop-color="#a2792c"/></linearGradient><circle opacity=".54" fill="none" stroke="url(#SVGID_1_)" stroke-width="43" stroke-miterlimit="10" cx="75.4" cy="75.4" r="53.9"/></symbol><symbol id="meka_logo_app" viewBox="0 0 621 304"><path class="st0" d="M512.8 173.8c-12.5 7.7-29 3.7-36.7-8.8-7.7-12.5-3.7-29 8.8-36.7 12.5-7.7 29-3.7 36.7 8.8 7.7 12.5 3.7 29-8.8 36.7z"/><circle class="st0" cx="480.3" cy="67" r="29.8"/><path class="st0" d="M550.5 85.6l-.1-66.4 52.7 40.3zM606.1 121.2c6.6 10.4-4.4 44.6-14.8 51.3-10.4 6.6-24.6-2.3-31.2-12.7-6.6-10.4-.4-25.6 11.2-33 10.3-6.7 28.1-16 34.8-5.6z"/><path class="st1" d="M135.9 244.6v54.2h-8.3v-52.1c0-17.5-8.3-29.2-23.2-29.2-17.5 0-28.9 17-30.4 35.8v45.5h-8.4v-52.1c0-17.5-8.5-29.2-23.4-29.2-17.3 0-28.9 17-30.4 35.8v45.5H3.5v-87.5h7.8l.5 19.4c6.7-11.2 17.6-21.1 32.7-21.1 14.9 0 24.7 9.2 28 23.2 6.6-12.1 17.8-23.2 34.1-23.2 18.7-.1 29.3 14.3 29.3 35zM242.1 257.6h-79.2c.7 21.3 15.9 35.3 36.8 35.3 17.5 0 27.9-10 31.8-19.4l7.4 1.2c-4 12.1-17.6 25.8-39.4 25.8-25.6 0-45-18.7-45-46 0-24.6 18.2-45 43.8-45 26.8 0 43.8 21.8 43.8 46.2v1.9zm-79.2-6.4h70.7c-1-18-14.4-34.1-35.3-34.1-20 0-34.7 15.2-35.4 34.1zM295.9 249.3l40.7 49.5H326l-36.2-43.9-16 15v28.9h-8.3V169h8.3v89.8l51-47.6h11.8l-40.7 38.1zM390.9 209.5c17.8 0 32.9 10.6 39.1 25.3l.3-23.5h8.1v87.5h-8.1l-.3-23.7c-6.2 14.9-21.3 25.4-39.1 25.4-25.1 0-45.2-20.4-45.2-45.7 0-24.9 20.1-45.3 45.2-45.3zm1 83c20.8 0 37.5-17 37.5-37.7 0-20.4-16.8-37.4-37.5-37.4-20.9 0-37.9 17-37.9 37.4 0 20.8 17 37.7 37.9 37.7zM234.6 182.8h-71.1c.1 2.1.2 4.3.2 6.4H234.8c-.1-2.1-.1-4.2-.2-6.4zM432.7 182.8h-71.1c.1 2.1.2 4.3.2 6.4H432.9c0-2.1-.1-4.2-.2-6.4z"/></symbol><symbol id="landing_ai" viewBox="0 0 1000 1000"><g id="XMLID_4_"><g fill="#D7DBDD"><path d="M998.6 92.6v359.5c0 36.4-29.6 66.1-66.1 66.1h-56.6v131.5c0 8.6-5.7 17.3-14.2 21.5-2.8 1.4-7.1 2.9-10.2 2.9-5.2 0-11.1-3.4-14.2-5.5l-.2-.2-164.9-130.8v-9l169.2 134.1c4 2.6 7.9 4.2 10.2 4.2 1.6 0 4.7-.9 7-2.1 6.2-3.1 10.3-9.2 10.3-15.3V511.2h63.6c32.6 0 59.1-26.5 59.1-59.1V92.6c0-32.6-26.5-59.1-59.1-59.1H395.1C362.5 33.5 336 60 336 92.6v233.3h-7V92.6c0-36.4 29.6-66.1 66.1-66.1h537.4c36.4 0 66.1 29.6 66.1 66.1z"/><path d="M991.6 92.6v359.5c0 32.6-26.5 59.1-59.1 59.1h-63.6v138.3c0 6.1-4.1 12.2-10.3 15.3-2.3 1.2-5.4 2.1-7 2.1-2.3 0-6.2-1.6-10.2-4.2L672.2 528.6V392c0-36.5-29.7-66.1-66.1-66.1H336V92.6c0-32.6 26.5-59.1 59.1-59.1h537.4c32.6 0 59.1 26.5 59.1 59.1z"/><path d="M672.2 537.6v215.1c0 36.4-29.6 66.1-66.1 66.1h-254l-189 148.9c-5.4 5.2-12 5.7-14.6 5.7-3.1 0-7.3-1.4-10.2-2.8-8.5-4.2-14.2-12.9-14.2-21.5V817.6H68.7c-36.4 0-66.1-29.6-66.1-66.1V392c0-36.4 29.6-66.1 66.1-66.1H329v3.5h7v-3.5h270.1c36.4 0 66.1 29.6 66.1 66.1v136.6l-1-.8v-5.6c-2.9 0-5 1.4-6.1 3.3V392c0-32.6-26.5-59.1-59.1-59.1H68.7c-32.6 0-59.1 26.5-59.1 59.1v359.5c0 32.6 26.5 59.1 59.1 59.1h62.4v138.5c0 6 4.2 12.2 10.3 15.3 2.3 1.2 5.4 2.1 7 2.1 1.4 0 6.2-.3 9.8-3.9l.3-.3 191.1-150.4H606c32.6 0 59.1-26.5 59.1-59.1V532l7.1 5.6z"/><path d="M672.2 528.6v9l-7.1-5.6v-6.5c1.2-1.9 3.2-3.3 6.1-3.3v5.6l1 .8zM665.1 532v220.8c0 32.6-26.5 59.1-59.1 59.1H349.6L158.5 962.3l-.3.3c-3.6 3.6-8.4 3.9-9.8 3.9-1.6 0-4.7-.9-7-2.1-6.1-3.1-10.3-9.3-10.3-15.3V810.6H68.7c-32.6 0-59.1-26.5-59.1-59.1V392c0-32.6 26.5-59.1 59.1-59.1H606c32.6 0 59.1 26.5 59.1 59.1v133.5c-.7 1.2-1.1 2.6-1.1 3.9v1.7l1.1.9z"/><path d="M665.1 525.5v6.5l-1.1-.9v-1.7c0-1.4.4-2.7 1.1-3.9zM329 325.9h7v3.5h-7z"/></g></g><g id="XMLID_1_"><g fill="#FFF"><path d="M672 327c-.7-.1-1.3-.2-2-.3-7.8-1-15.6-1.8-23.4-2.4-17.3-1.3-34.7-1.7-52-1.7h-8.8c-3 0-6 .1-9.1.1h-3.2c-4.7.1-9.4.1-14.1.2-3.3.1-6.6.1-9.8.1-3 .1-6 .1-9 .1h-2.4c-4.1-13.5-6.3-27.8-6.3-42.4 0-38.4 14.6-74.4 41.6-101.2s62.8-41.6 101.2-41.6c37.4 0 72.7 14.8 99.5 41.6 26.9 26.9 42.2 63 43.3 101.2 0 38.4-14.6 74.2-41.6 101.2-26.9 26.8-62.8 41.6-101.2 41.6-1.2 0-2.5 0-3.7-.1.1-1 .1-1.9.1-2.9.1-.8.1-1.6.1-2.5.1-1 .1-2 .1-3 .1-1.1.1-2.2.1-3.3 0-.9.1-1.8.1-2.7 0-1.1.1-2.1.1-3.2 0-1.2.1-2.4.1-3.6.3-25.2-1.3-50.4-1.5-75.8.5.4 1.1.5 1.8.6z"/><path d="M671.1 418.2c.1-1 .1-2 .1-3 0 1 0 2-.1 3zM573.5 322.9c-4.7.1-9.4.1-14.1.2 4.7-.1 9.4-.2 14.1-.2z"/><path d="M671 420.7c0 1-.1 1.9-.1 2.9 1.2 0 2.5.1 3.7.1 38.4 0 74.2-14.8 101.2-41.6 26.9-26.9 41.6-62.8 41.6-101.2-1-38.2-16.3-74.2-43.3-101.2-26.8-26.8-62.1-41.6-99.5-41.6-38.4 0-74.2 14.8-101.2 41.6s-41.6 62.8-41.6 101.2c0 14.6 2.2 28.9 6.3 42.4-6.2.1-12.5.1-18.7.1-3.8-13.8-5.8-28.1-5.8-42.7 0-42.6 16.8-82.8 47.5-113.4s70.9-47.5 113.4-47.5c42.6 0 82.8 16.8 113.4 47.5 30.6 30.6 47.5 70.9 47.5 113.4s-16.8 82.8-47.5 113.4c-30.6 30.6-70.9 47.5-113.4 47.5-1.8 0-3.5 0-5.2-.1.8-6.9 1.3-13.9 1.7-20.8z"/><path d="M671.4 409.3c0 .9 0 1.8-.1 2.7.1-.9.1-1.8.1-2.7zM671.5 406.1c0-1.2.1-2.4.1-3.6-.1 1.2-.1 2.4-.1 3.6zM672 327c-.7-.1-1.3-.2-2-.2.7 0 1.3.1 2 .2zM670 326.8c-7.8-1-15.6-1.8-23.4-2.4 7.8.6 15.6 1.3 23.4 2.4zM594.5 322.7h-8.8 8.8zM585.8 322.7c-3 0-6 .1-9.1.1 3 0 6 0 9.1-.1zM549.6 323.2c-3 .1-6 .1-9 .1 3 0 6-.1 9-.1zM538.1 323.3h2.4-2.4z"/></g></g><g id="XMLID_2_"><g fill="#FFF"><path d="M429.6 482.8c0 22.8-8.7 44.1-24.7 60.1-16 15.9-37.3 24.7-60.1 24.7-22.8 0-44.1-8.7-60.1-24.7-15.9-16-24.7-37.3-24.7-60.1 0-22.8 8.7-44.2 24.7-60.1 16-15.9 37.3-24.7 60.1-24.7 22.2 0 43.2 8.8 59.1 24.7 16 16 25.1 37.4 25.7 60.1z"/><path d="M412.2 415.3c18.2 18.2 28.2 42.1 28.2 67.4 0 25.3-10 49.2-28.2 67.4-18.2 18.2-42.1 28.2-67.4 28.2-25.3 0-49.2-10-67.4-28.2-18.2-18.2-28.2-42.1-28.2-67.4 0-25.3 10-49.2 28.2-67.4 18.2-18.2 42.1-28.2 67.4-28.2 25.3 0 49.2 10 67.4 28.2zm-7.3 127.6c16-16 24.7-37.3 24.7-60.1-.6-22.7-9.7-44.1-25.7-60.1C388 406.8 367 398 344.8 398c-22.8 0-44.1 8.8-60.1 24.7-16 15.9-24.7 37.3-24.7 60.1 0 22.8 8.8 44.1 24.7 60.1 16 16 37.3 24.7 60.1 24.7 22.8 0 44.1-8.8 60.1-24.7z"/></g></g><path fill="#6DD9F7" d="M632.5 430.6c.2 1.2.2 1.2 0 0 .2 1.2.2 1.2 0 0zM614.1 188.7c-18.1-14.1-42.4-10.7-60.4 1.6-17.9 13.5-24.5 28.8-18.3 46.7 6 16.8 23.4 35.4 43 60.4 4.3 5.1 8.2 10.7 11.9 16.2 4.1 6.1 11.2 9.5 18.5 9 3.8-.2 7.8.2 12 .7 11.7 1.5 22.4-7.1 23.3-18.9.9-11.2 1.2-22.9 1.1-34.9-.5-38.6-12-67.9-31.1-80.8z"/><path fill="#ED9E6E" d="M857.7 342.9v-1.2 1.2"/><path fill="#D7DBDD" d="M742.3 230.1c-12.3 3.7-20.9 16-17.2 28.2 3.7 12.3 16 20.9 28.2 17.2 12.3-3.7 20.9-16 17.2-28.2-2.4-12.3-15.9-19.7-28.2-17.2M712.9 363.8c-28.2 13.5-46.6 4.9-50.3-2.5-1.2-2.5 0-4.9 2.5-6.1l69.9-35.6c2.5-1.2 4.9 0 6.1 2.5 3.7 7.3 0 28.2-28.2 41.7z"/><path fill="#6DD9F7" d="M797 214.7c-14.4-23.3-34.8-42.8-59.1-56.1-24.9-13.7-52.1-20-78.8-18.3l-.5-7c27.9-1.8 56.5 4.8 82.6 19.1 25.4 14 46.7 34.2 61.7 58.6l-5.9 3.7z"/><path fill="#D7DBDD" d="M637.4 284.8c-3.7-12.3-16-20.9-28.2-17.2-12.3 3.7-20.9 16-17.2 28.2 3.7 12.3 16 20.9 28.2 17.2 12.3-2.5 20.9-16 17.2-28.2"/><g id="XMLID_3_"><g fill="#FFF"><path d="M435.6 612.1c31.5 11.8 49 45.3 47.7 71l-6.1 81.8c.6 3-.1 5.9-1.9 8.2-2.1 2.5-5.4 4-9 4H213.5c-6.8 0-12-5.1-12.1-11.9l-6.1-82.2c-1.3-29.1 20.1-60.9 47.7-70.9 30.9-11.1 63.3-16.8 96.3-16.8s65.4 5.6 96.3 16.8zm44.2 70.7c1.2-24.6-16-56.5-45.4-67.5-61.4-22.1-128.9-22.1-190.2 0-27 9.8-46.6 40.5-45.4 67.5l6.1 82.2c0 4.9 3.7 8.6 8.6 8.6h252.8c4.9 0 8.5-3.7 7.4-8.6l6.1-82.2z"/><path d="M434.4 615.3c29.4 11 46.6 42.9 45.4 67.5l-6.1 82.2c1.1 4.9-2.5 8.6-7.4 8.6H213.5c-4.9 0-8.6-3.7-8.6-8.6l-6.1-82.2c-1.2-27 18.4-57.7 45.4-67.5 61.3-22.1 128.8-22.1 190.2 0zm42 67.2c1.1-22.5-15-53.4-43.1-63.9-30.1-10.8-61.7-16.3-93.9-16.3s-63.8 5.5-93.9 16.4c-25.1 9-44.4 37.7-43.2 63.9l6.1 82.4c0 3 2.1 5.1 5.1 5.1h252.8c1.5 0 2.8-.5 3.5-1.5.6-.7.7-1.7.5-2.8l-.1-.5 6.2-82.8z"/><path d="M433.3 618.6c28.1 10.5 44.2 41.4 43.1 63.9l-6.2 82.8.1.5c.2 1.1.1 2.1-.5 2.8-.7 1-2 1.5-3.5 1.5H213.5c-3 0-5.1-2.1-5.1-5.1l-6.1-82.4c-1.2-26.2 18.1-54.9 43.2-63.9 30.1-10.9 61.7-16.4 93.9-16.4s63.8 5.5 93.9 16.3z"/></g></g><g><path fill="#6DD9F7" d="M405.3 462c-9.6-24-32-40.9-57.2-43.2l.6-7c27.8 2.5 52.5 21.2 63.1 47.6l-6.5 2.6z"/></g></symbol></defs></svg>