<svg xmlns="http://www.w3.org/2000/svg" viewBox="277.9 -73.2 444.3 1000"><g fill="#1E81ED"><path d="M282.4 6.3c5.7 1 6.6 8.1 9.1 13-4.8-.1-5.1 5.4-11.7 3.3-3.4-5.9-2.3-13 2.6-16.3zM283.7-73.2h2.6c-.1 1.5-2.3 2-2.6 0zM285 105.3c1.4-7.4 2.6-5.3 6.6-9.7.3 6.8 6.4 9.7 1.3 14.7-5.2 1.3-4.8-4.1-7.9-5zM292.8 188.1c5.1-.4 3.3 7.8 7.8 8.1-1.7 3.3-4.3 5.6-7.8 6.6-6.4-3.1-5.8-11.4 0-14.7zM295.4 780.7c-.6.6.8-1.1 0 0zM297.9 305c-.1-9.3-1.6-20.2 6.6-19.5.1 8.5 5.8 10 6.6 17.8-3.8 4.6-8.5 5.8-13.2 1.7zM304.5 473.8c3.8 2.3 4.4-1.3 7.8 1.6-1.4 7.1 0 5.3 1.3 11.4 1.6-.7 2.7-2.1 2.6-4.8 11.2 23-28 22.3-11.7-8.2zM303.2 373.2c6.4-1.6 7.7 3.3 11.7 4.8-3.6 5.3 1.4 10.3 3.8 13-7.1 17.4-24.5-5.8-15.5-17.8zM305.8 620c.3-8.3 2.1-14.7 7.8-16.2 6.6.6 4.8 11.3 6.6 17.8-4.7 4.1-11.4 4.1-14.4-1.6zM310.9 899.1c-5-9.3-7.1-34.3 3.8-34.1 9.4.4 16 34.7-3.8 34.1zM313.6 766.1c1 .3 1.3 1.6 2.6 1.6 10.4 6.3 10.5 32.2-1.3 30.8-9.4-1-11.7-26.7-1.3-32.4zM309.6 678.4c16.8-6.1 18.1 30.6 6.6 30.8-9.7.3-12.1-18-6.6-30.8zM314.9 478.6c-.6.8.8-.9 0 0zM320 389.4c-1.6-.3-1.1-3-1.3-4.8 1.6.3 1.2 2.9 1.3 4.8zM359.1 228.7c4.4 4.1 2.1 16.8 9.1 17.8-2.8 8.8-1.7 22.7-14.2 19.5-5.5-8.9-6.9-36.1 5.1-37.3zM356.5-65.1c9.1.6 10 11.3 13 19.5-2.7-.7-2.4 2.3-2.6 4.8h-9.1c-4-5.5-7.9-19.2-1.3-24.3zM368.2 926.8h-10.4c-4.1-4.6-2.7-17.7 5.1-19.5 4.6 2.7 4.4 14.6 5.3 19.5zM360.3 12.8h5.1c5.3 7.4 5.6 21.1 10.4 29.2-2 5-5.7 8-13 6.6-4.6-7.3-10.2-27.6-2.5-35.8zM374.6 793.7c8.4 11 4.7 46.3-7.8 43.9-13.3-2.7-5.3-42.6 7.8-43.9zm-5.1 11.4c.8-1.1-.6.6 0 0zM369.5 129.7c2.1 4.8 2.8 11.5 6.6 14.7-8.6 23.2-26-11.9-6.6-14.7zM368.2 693h7.8c2.3 7.3-1.6 13.1 3.8 14.7-2.6 28.1-23.7.8-11.6-14.7zM366.9 584.2c2-.1 5 .7 5.1-1.6 5.6 5.8 2.6 12.7 6.6 21.1-9.7 13.7-19.7-7.5-11.7-19.5zM366.9 676.7c-.6.7.8-1 0 0zM366.9 381.3c3.7-1.9 6.7-1.9 10.4 0 .1 5.8-1 13.3 2.6 14.7-5 17.5-20.1 2-13-14.7zM378.6 483.6c-1 8.7 1.4 13.4 5.1 16.2-8.7 36.3-30.1-23.6-5.1-16.2zM374.6 30.7c2.3.4 3 2.8 2.6 6.6-2.2-.5-2.9-2.9-2.6-6.6zM379.9 275.7c-1.6-.4-1.3-3.3 0-3.3 1.8.9-.2 1.6 0 3.3z"/><path d="M382.4 494.9c-.4-.3-2.4-3.6-1.3-4.8.9-1.2 3.6 6.4 1.3 4.8zM424 204.4c11.3 4.6 4.7 27.5-6.6 21.1-3.9-9 1.4-18.6 6.6-21.1zm2.6 12.9c.8-1-.4.7 0 0zm0-3.3c.8-1-.4.8 0 0zM417.5 33.9c3.7-.3 5.4-3 9.1-3.3 7.1 5.7 6.3 21.7-1.3 25.9-11 .4-8.7-11.2-7.8-22.6zM430.6-65.1c11.7 7.6 1.4 36.9-10.4 24.4 1.8-10.1 1.1-23.5 10.4-24.4zM421.5 141.1c.1-7.6-.6-15.8 1.3-21.1 5.4.4 5.1-2.1 9.1 0 6.7 8.8.1 28.4-10.4 21.1zM429.3 308.2c12.4 2 7.6 29.8-5.1 21.1-3-12.1 2.4-12.5 5.1-21.1zM433.1 598.9c3-.4 3-4.4 0-4.8.3-1.3 1.1-1.9 2.6-1.6.9 2.4 1.6-.1 0 0-2.4-3.1.7-3 0-8.1h5.1c3.4 8.3 3.7 20.1-3.8 22.8-1.3-3.3-6.7-1.4-6.6-6.6 1.2-.5 2.7-.1 2.7-1.7zm5.2-3.3c.3 1.3 0 3.1 1.3 3.3-.2-1.3 0-3.3-1.3-3.3zM431.9 595.6c-1.6.2-.9-2.4 0 0zM439.7 399.1c-.1 2.1-1.7 2.3-1.3 4.8-6 .9-7.1-4.1-7.8-9.7 6.3 5.1 1.1-5.1 6.6-4.8-.2 4.3-.9 9.6 2.5 9.7zM431.9 681.7c-1-5.7 2-6.3 1.3-11.4 9 1.1.9-2.8 3.8-6.6 4.4 2 6.1 7.6 5.1 16.2-4.7-1.1-5.4 2.9-10.2 1.8zm6.4-9.8c.3 1.3 0 3.1 1.3 3.3-.2-1.3 0-3.2-1.3-3.3z"/><path d="M433.1 598.9c-1-.4-1.6-1.4-1.3-3.3 1.1.3 1.5 1.3 1.3 3.3zM437 905.7c.1-4.1 1.9-6.3 5.1-6.6-4.7-5.8 3-4.8 1.3-13 7.3-.4 7.6 7.8 7.8 16.2-6.1 5.5-7.9 6.5-14.2 3.4zM437 832.6c-.7-5.3.9-7.6 1.3-11.4 4 .3 2.1 2.6 7.8 3.3-1.9-2.6-4.6-4-3.8-9.7 6.4 2.4 6.1 9.8 6.6 16.2-3.4-1-4.7.7-3.8 4.8-3.3-.5-5.7-1.9-8.1-3.2zM443.6 524.1v4.8c1-.3 1.3-1.6 2.6-1.6.5-2.6-1.1-2.9-2.6-3.2.9-2.1 2.8-3 5.1-3.3-.4 9.1.1 13-6.6 16.2-2.4-.3-4.3-1-5.1-3.3 1.3-3.3 2.6-6.6 3.8-9.7 1 .1 1.9.1 2.8.1zM444.8 748.2c8.4 5.6 6.1 16.5 1.3 24.4-10.8-2-5.1-18.4-1.3-24.4zM439.7 399.1c.1-2 .4-3.8 2.6-3.3v3.3h-2.6zM442.3 521c-5.2-1.9 5.1-1.9 0 0zM442.3 392.7c-.6.6.8-1.1 0 0zM444.8 460.8h1.3c-.3-1.8-1.3-.8-1.3 0h-2.6c-.7-8 3.3-.9 3.8-8.1 2 0 2.8 12-1.3 9.7.1-.4.1-1 .1-1.6zM474.8 14.4c4-2.3 4.7.7 10.4 0 13.8 28.8-26.4 32.1-10.4 0zm3.8 9.7c.9-1-.6.7 0 0zm2.7-6.4c-1.3 0-1.6 2.8 0 3.3-.1-1.9 1.9-2.6 0-3.3zM474.8-63.5c7.4 1.3 4.8 6.1 11.7 1.6 2.7 8.5-.7 14-3.8 19.5-13.1 2-13.1-12.4-7.9-21.1zm7.8 8.1c.8-1-.6.7 0 0zM478.6 196.2c13.8-9.3 24.1 26.2 9.1 34.1-9.5-3-10.1-22.7-9.1-34.1zM489 116.7h-3.8c-.1 4.6 3.1 4.7 6.6 4.8-1.9 5.3-4.7 9.4-10.4 9.7-3-2.8-4.3-7.6-3.8-14.7 3.7 1.4 11.7-6.2 11.4.2zm-2.6 6.4c.9-1-.5.7 0 0zM500.7 392.7c3.3 6.3 6.1 12.8 5.1 24.4-14.7 25.1-30.3-35.2-5.1-24.4zM491.7 296.8c16.1-.1 16.5 31.6 5.1 30.8-8.1-.4-15.8-22.2-5.1-30.8z"/><path d="M489 116.7c1.6-.1.9 2.3 0 0zM511.1 545.3c-5.4 2.7-9.4 6.1-14.2 1.6-4.7-14.1-5.8-36.5 6.6-34.1 7.2 1.5 10.6 19.3 7.6 32.5zM504.7 785.6c14.4 2 13.1 37-1.3 37.3-.4-3.3-3.4-3.3-5.1-4.8 1-14.5-6-25.1 1.3-34.1 3.1-2.3 2.9 7.4 5.1 1.6zM513.8 720.6V719c-1.6.3-.7 1.6 0 1.6v6.6c-13.4 12.8-20.5-21.9-3.8-21.1 3.7 2.4 4.6 8.4 5.1 14.7-.4-.2-.9-.2-1.3-.2zm-5.3-9.7c.9-1.1-.5.6 0 0zm1.3 9.7c.3 1.3 0 3.1 1.3 3.3-.3-1.3 0-3.3-1.3-3.3zM512.5 639.4v-1.6c-1.6.3-.8 1.6 0 1.6-9 15-17.8-16.1-10.4-27.6 10.3-4.3 21.2 20.9 10.4 27.6zm-2.7-19.4c-1.3 0-1.6 2.8 0 3.3-.1-1.9 2-2.6 0-3.3z"/><path d="M504.7 785.6c-4-.5 1.1-6.9 0 0zM507.2 879.8c5.4 2.3 10.5-4.8 13 13-5.3 15.6-21.6 1.2-13-13zm7.9 6.4c.8-1-.6.7 0 0zM515.1 680c-.6.7.8-1 0 0zM563.1-42.4c.3 1.3 1.1 1.9 2.6 1.6-3.6 6.7-13.7 9-18.2 1.6 2.1-7.4-.4-10.4 0-19.5 4.4-2.8 5.8 2.1 10.4 3.3 1.4 4.8 1.1 11.8 5.2 13zM554 11.1c7.1.9 6.4 11.4 7.8 19.5 1.7 4 4-3 5.1 1.6-.6 5.6-3.6 2-1.3 8.1-15.3 16.6-18.5-14.9-11.6-29.2zM554 113.4c5.6-2 6.6-.1 10.4 3.3-.6 6-.6 9.1-2.6 16.2-9.8-1.5-7.7-13-7.8-19.5zM559.3 219c3.4-.6 3.6-5.3 9.1-3.3 3.7 6.6-.1 12.3 5.1 16.2-6.1 16.9-18.1 1.5-14.2-12.9z"/><path d="M564.4 25.8c-.4.7.8-1.1 0 0zM563.1-42.4c-1.4-7.6 6.1 1.8 0 0zM569.7 852.1c19.9-7.8 18.7 32.9 5.1 32.5-10.8-.4-9.3-20.8-5.1-32.5zM570.9 777.5c5.4.4 6.1-2.7 10.4 0 1.1 6.3 1.7 13 1.3 21.1-4.3-2.7-4.7 5.7-9.1 4.8-8.8-1.6-8.3-17-2.6-25.9zm0 14.5c.9-1-.5.7 0 0zM569.7 683.3c19.1-9.7 18.2 28.2 5.1 27.6-10.4-.6-7.3-15.4-5.1-27.6zM568.4 126.4c-.6.7.8-1 0 0zM587.9 628.1c-5.6-2.8-6.7 4.8-7.8 4.8-10.5-.3-10.7-26.4 0-27.6 7.4-.8 10.9 6.9 7.8 22.8zm-6.6-6.5c.9-1-.5.7 0 0zM586.6 344c.1 4.1.7 7.7 2.6 9.7-10.1 21.5-22.5-17-9.1-21.1 3.9 1.6 3.1 9 6.5 11.4zM581.3 439.7c6.7 1.4 8.1 9.4 13 13-.1 5.8-2 9.4-2.6 14.7-3.8.1-4.6 4-11.7 3.3-5.8-5.7-3.8-25.1 1.3-31zM581.3 519.3c8.7 4.3 14.7 12 13 29.2-4.4.9-5.7 5.8-11.7 4.8-.6-2-1.7-3.3-3.8-3.3-.3-11.9-1.4-21.3 2.5-30.7zm2.6 17.9c5.1-2-5.1-2 0 0z"/><path d="M586.6 344v-4.8c1.7 1 2.4 3.4 2.6 6.6-1.3-.2-1.6-1.5-2.6-1.8zM590.5 350.4c-.6.7.8-1 0 0zM622.9 207.6c-1.6-.4-1.3-3.3 0-3.3 1.9.8-.1 1.5 0 3.3zM634.6 409c9.7 1.4 8.8 11 11.7 17.8-9.2 26.2-28.2-4.4-11.7-17.8zM641.2 298.5c13.1 3 12.7 22.9 2.6 30.8-19.3 3.2-9.6-25.6-2.6-30.8zM642.5 850.5c2.6-.6 4.4 11.7 5.1 3.3 1.9 2.6 3.7 5.1 5.1 8.1-1.4 8-3.8 14.7-9.1 17.8-11.5-2.2-7.8-23.6-1.1-29.2zm6.4 16.2c-.7-2.4 1.6-8.4-1.3-8.1.7 5.1-3 6.6 1.3 8.1zM642.5 688.1c4.1-.9 4.6 3 9.1 1.6 1.6 4.6 1.4 11.3 1.3 17.8-13 16.5-22.5-7.7-10.4-19.4zM655.4 519.3c.1 2.8-.3 5-1.3 6.6-3.6-1.1-2.6 3.3-5.1 3.3-6.8-2.8-9.5-10.8-10.4-21.1 3.8-6.4 10.7-1.4 15.5 0-.7 3.3-3.1 10.3 1.3 11.2zM650.3 184.8c9.7 5.8 5.4 32.5-6.6 25.9-8.1-6-7.6-26.4 1.3-27.6 3.6-.3 3.2 8.4 5.3 1.7zm0 6.6c.1 1.9-.3 4.6 1.3 4.8-.3-1.8.1-4.5-1.3-4.8zM641.2 77.7c10.4-3.7 23.7 17.2 11.7 30.8-4.7.6-8.4-.3-11.7-1.6-2.3-10.8-4.3-19.4 0-29.2zM648.9 775.7c2.7 6.7-3 13.7 5.1 13-1 4.7-3.1 8-5.1 11.4-12.6 1.4-11.3-24.9 0-24.4zM641.2 926.8c-1-7.8 2.4-10 6.6-11.4 1.6 8 8.5-.7 7.8 9.7-2.4.7-5.6-5-5.3 1.6-3.1.1-6.1.1-9.1.1zM652.9 602c3.7 2.8 2.4 12.1 5.1 16.2-1.7 1.6-4.8 1.6-5.1 4.8-11.4.4-10.9-20.1 0-21zM654.2 525.8c1.5-.1.8 2.3 0 0zM656.7 926.8h-1.3v-1.6c.9 0 1.6.2 1.3 1.6zM655.4 519.3c-.1-1.9 1.9-1 0 0zM656.7 512.8c-.6.8.9-1.1 0 0zM658 605.3c-.4.7.9-1 0 0zM658 524.1c-.4.7.9-1 0 0zM659.3 613.4c-1.3 0-1-2-1.3-3.3 1.3.2 1 2.1 1.3 3.3zM715.3 205.9c0-2.7-1-4.3-2.6-4.8-.1 2.8.9 4.3 2.6 4.8v3.3c-9.8 6.3-12.8-7-14.2-16.2 5.4-12 20.4-8.7 19.5 9.7-2.8.1-1.8 4.5-5.3 3.2zm2.5-4.8c-.6-3.1-.4-7-3.8-6.6-.3 4.2 2 5.2 3.8 6.6zM716.6 4.7c-1.6.3-1.1 3-1.3 4.8 1.4-.2 1-2.9 1.3-4.8 9.7 8.5 6.6 35.5-7.8 29.2-4.7-13.4-8.4-27.2-3.8-40.6 5.9 1 7.4 7.9 11.6 11.4zm1.2 9.7c.9-1-.5.7 0 0z"/></g></svg>