<svg version="1.1" id="Layer_1" xmlns="http://www.w3.org/2000/svg" x="0" y="0" viewBox="0 0 171.1 269.4" xml:space="preserve"><style>.st4{fill:#2d2d2d}.st7{fill:#a5a5a5}.st8{fill:#646464}.st12{fill:#525252}.st15{fill:#1e1e1e}.st16{fill:#242424}.st24{fill:#848484}.st26{fill:#727272}</style><path fill="#d3f3ff" d="M0-.4h170.6v271.8H0z"/><g opacity=".3"><path d="M.7 7.2v44.1c9.6-1.7 19.3-6.1 28.7-.1-2.2.1-4.5.2-6.7.2-2.8.1-5.7.1-8.5.2H.7v215.5h41.6c2.2-4.3 5-8 10.1-9.2 1.1.2 2.1 0 2.9-.4 1.5-10.3 2-20.7 1.9-31.1-.2-.7-.4-1.5-.6-2.2-.1-4.2-3.1-8.3-.5-12.7-2.7-2.1-5.4-4.1-8.1-6.2l-1.8-.3c-2.3-2.8-4.5-5.5-6.8-8.3-.6-.1-1.1-.2-1.7-.4-.6-3.6-.1-5.5 4.5-6.1 5.5-.7 7.6-6.1 5.8-11.3-1.1-3.1.4-5.9 2.5-8.2.3-.5.5-1.1.8-1.6-.5-.5-.9-1-1.4-1.4-2.2-1.8-3.8-3.8-4.1-6.3l-.6.3c-7.9 2.7-13.4-1.5-18.5-6.5-5-2.6-10.2-5.2-9.8-12.1.5-8.6 8.1-8.4 13.6-10.8 10.6-7 22.1-12.7 31.2-21.9 2.6-2.7 4.1-3 5.1-2.3 1.8-7.1 6.3-13.3 8.3-20.4-.6 0-1.2-.1-1.9-.3-2.9-1.8-7.3-2.6-7.8-6.4-1.2-7.9-6.8-11.6-13-14.9-4.4-6.7 2-10.3 4.2-15.2 4.1.4 7.5 2.5 11 4.5 5.4-1.4 9.9.6 13.9 4.2 6-.6 9.8 3.4 13.9 6.7 5.2 0 9.2 2.5 12.9 5.8.7.8 1.3 1.6 2 2.4 12.4 5 20.8 14.5 28.2 25 18.9 21.3 24.9 47.5 27.5 74.6 3.1 32.5-3.1 63.4-14.7 93.1h20.5V7.2H.7zm22.7 244.1c-1.6 3.2-4.5 7.5-.3 11.3-3.6 1.9-6.6 5.1-11.2 4.3-3.9-7.6-1.4-15.6-1.8-23.5 3.1-.1 6.3-.6 9.4-.4 7.5.8 7.4 1.3 3.9 8.3zM22.2 211c7.5-10.4 14.7-4.5 22 .3l.3 2.4c-6.5-2-12.8-.1-19.3.4-1.3 6.4-8.1 11.1-5.7 18.6-6.9 2.6-9 .8-9.9-8.5.5-2.8 3.7-4.7 2.6-8.1 3.3-1.9 5-6.6 10-5.1z" fill="none"/><path d="M165.9 174.1c-2.6-27.1-8.6-53.3-27.5-74.6-7.6 2.3-8.3-9-15.4-7.8l-1.8 4.2c10.7 5.8 11.7 20.1 1.9 27.9 5.8 4.2 8.2 10.4 5.8 16.6-2.8 7.4 4.8 15.3-1.9 22 .1.7.2 1.3.2 2 6.1 5 6.1 12 3.9 18.2-1.5 4.3-.1 5.6 2.5 7.5 4.7 4.2 5.6 10.5 9 15.5 3.7 5.5-1.9 7.2-4.5 10.1 1.1 6.6-.6 11.9-5.6 15.4.1 1.2-.7 2.7-2.9 1.7-5.7 7.4-6 14 1 21.5 6.1 6.4-2.9 8.6-5.3 12.6v.3h25.9c11.6-29.7 17.8-60.6 14.7-93.1zm-2.3 21.9c0 2.1-.2 4.1-1.4 6.1V178c.5.1 1 .1 1.5.2-.1 5.9 0 11.8-.1 17.8z" fill="#060606"/><path class="st4" d="M97.5 72.6c4.9.8 7.1 4.2 8.6 8.4 8 1.9 6.6 11.7 12.8 15 .8 0 1.6-.1 2.4-.1l1.8-4.2c-4.4-5.6-10-10.4-12.8-17.3-.7-.8-1.3-1.6-2-2.4-3.7-3.4-7.7-5.8-12.9-5.8.7 2.2 1.4 4.3 2.1 6.4z"/><path d="M123 91.8c7-1.2 7.8 10.1 15.4 7.8-7.4-10.6-15.8-20.1-28.2-25 2.8 6.8 8.4 11.5 12.8 17.2z" fill="#1a1a1a"/><path d="M69.8 115.2c8.4 4.2 2.3 5.5-1.5 7.3-5.8 2.7-10 5.9-3 11.9 3.2-.7 6.2-1.9 6.9-5.4 1.2-5.5 4.8-3.5 8.1-3.1 10.1-.2 8.6-6.4 6.4-12.8 1-4.4 1.8-8.3-.8-12.9-3-5.4-1.8-10.5 5-12.7-4.4-7.3-8.6-14.6-8.6-23.5-.4-1.5-.7-3-1.1-4.5-4-3.5-8.4-5.6-13.9-4.1-.7 2.3-.4 4.7 1.7 5.5 11.8 4.6 11.6 14.4 11.1 24.4-1.5 1.5-3.3 2.5-5.3 2.4-1.9 7-6.5 13.3-8.3 20.4 1.9 1.3 1.9 5.6 3.3 7.1z" fill="#9b9b9b"/><path class="st7" d="M80.4 85.4c.5-10 .7-19.8-11.1-24.4-2.1-.8-2.5-3.2-1.7-5.5-3.5-2-6.9-4.1-11-4.5-2.1 4.9-8.6 8.5-4.2 15.2 6.2 3.3 11.8 7 13 14.9.6 3.8 4.9 4.6 7.8 6.4.7.2 1.3.3 1.9.3 2 .1 3.7-.9 5.3-2.4z"/><path class="st8" d="M82.5 64c5.5 3.7 7.9 11 14.9 12.8v-4.2c-.7-2.1-1.4-4.2-2.1-6.4-4.1-3.3-7.9-7.3-13.9-6.7.4 1.5.8 3 1.1 4.5z"/><path d="M22.7 51.5c2.2-.1 4.5-.2 6.7-.2-9.4-6-19.1-1.6-28.7.1v.3h13.5c2.8-.1 5.6-.2 8.5-.2z" fill="#6c6c6c"/><path d="M125.2 266.9c2.4-4 11.4-6.2 5.3-12.6-7-7.4-6.7-14-1-21.5 2.3 1 3-.5 2.9-1.7-.9.6-1.9 1.2-2.9 1.7-3.3-8.1-4.3-15.7 4.3-21.4 3.8-5.3-.2-8.4-3.4-11.5-3.3-3.1-7.1-5.7-9.3-9.8-.6 0-1.2 0-1.8-.1-.2.7-.3 1.4-.5 2.1-.9 10.2 3.4 21.5-6.2 30 2.9 4.1 3.7 7 .4 12.5-4.2 7-10.5 14.1-9.2 23.6-.7.8-1.3 1.5-2 2.3 1.2 3.2 4 4.8 6.5 6.7h14.8l2.1-.3z" fill="#303030"/><path d="M118.8 96.1c-2.5 15.2 1 30.8-2.3 46-.8 3.8-2.7 9 4.5 9.4 5.2-8.9 1.7-18.4 2.1-27.6 9.8-7.8 8.8-22.1-1.9-27.9-.8 0-1.6 0-2.4.1z" fill="#2e2e2e"/><path class="st12" d="M118.8 158c-4.9-2.1-11.5-.5-14.9-6.3-8.2 8-7.6 10.2 4.2 17 5.8 4.3 6.9 11.5 10.7 17.1 3.6-4.7 8.3-8.8 4.3-15.8-1.1-1.9-.3-5.9 4.1-5.6 0-.7-.1-1.3-.2-2-3.5 0-5.9-2.2-8.2-4.4z"/><path d="M101.8 260.5c-2.6.4-5.4 1.1-3.8 4.5.3.7.6 1.5.8 2.2h9.6c-2.6-1.9-5.4-3.5-6.6-6.7z" fill="#373737"/><path d="M125.2 266.9c-.7.1-1.4.2-2.2.3h2.2v-.3z" fill="#151515"/><path class="st4" d="M121 151.5c-.7 2.2-1.5 4.4-2.2 6.6 2.4 2.2 4.8 4.4 8.3 4.3 6.7-6.7-1-14.6 1.9-22 2.4-6.2 0-12.4-5.8-16.6-.5 9.3 3 18.8-2.2 27.7zm2.1 18.4c4 7.1-.7 11.2-4.3 15.8.1 1.4.3 2.8.4 4.2.6 0 1.2 0 1.8.1 4.2 0 8.3 0 12.5-.1-2.6-1.9-4-3.2-2.5-7.5 2.2-6.1 2.2-13.2-3.9-18.2-4.2-.2-5.1 3.8-4 5.7z"/><path class="st15" d="M121.1 190.1c2.2 4.2 6 6.7 9.3 9.8 3.2 3.1 7.2 6.2 3.4 11.5 1.4 1.4 2.8 2.8 4.3 4.2 2.6-2.9 8.2-4.6 4.5-10.1-3.3-5-4.3-11.3-9-15.5-4.2 0-8.3 0-12.5.1z"/><path class="st16" d="M133.8 211.4c-8.6 5.7-7.6 13.3-4.3 21.4 1.1-.5 2.1-1.1 2.9-1.7 5-3.6 6.7-8.8 5.6-15.4-1.4-1.5-2.8-2.9-4.2-4.3z"/><path d="M162.2 177.9V202c1.3-2 1.4-4.1 1.4-6.1v-17.8c-.4 0-.9-.1-1.4-.2z" fill="#212121"/><path d="M93.2 252l-2.1-2.4c-2.8-2.8-5.6-5.6-8.4-8.5-1.7 4.3-3.4 8.5-5 12.8-1.7 4.6-6 5.2-9.6 5.1-4.3-.1-2-4.4-2.6-6.8-4.5 2.5-3.2 11.3-11.1 10.2.3-1.7.6-3.4.8-5-.8.4-1.8.6-2.9.4-5.1 1.2-7.9 4.9-10.1 9.2h48c-.1-.2-.1-.4-.2-.6-2.6-5.9-.1-10 3.2-14.4z" fill="#3e3e3e"/><path d="M110.3 102.5c5.7 10.4.1 20-2.2 29.9-3.6.1-6.6 1.4-8.8 4.3 1.2 5.1 8.9 8.3 4.5 15.1 3.4 5.8 9.9 4.2 14.9 6.3.7-2.2 1.5-4.4 2.2-6.6-7.2-.4-5.3-5.5-4.5-9.4 3.2-15.2-.2-30.8 2.3-46-6.2-3.4-4.8-13.2-12.8-15 .3 7.3 7.5 13.3 4.4 21.4z" fill="#515151"/><path d="M99.8 91.8c1 4.9 4.5 7.9 8.3 10.6h2.2c3.1-8-4.1-14-4.3-21.4-1.5-4.2-3.7-7.7-8.6-8.4v4.2c-.2 5.2 9.8 8.7 2.4 15z" fill="#575757"/><path class="st7" d="M46.3 158c3.7-3.9-3-9.5 3.6-14.4 4.5-3.3 7.2-3.6 11.4-2.6 4.4-.3 2.1-4.8 4.1-6.6-7-6-2.8-9.2 3-11.9 3.8-1.8 9.8-3 1.5-7.3-1.4-1.5-1.4-5.8-3-7.1-.9-.7-2.4-.4-5.1 2.3-9.2 9.2-20.6 14.9-31.2 21.9-5.5 2.4-13.1 2.1-13.6 10.8-.4 6.9 4.7 9.5 9.8 12.1 5.1 5.1 10.6 9.3 18.5 6.5l.6-.3c-.2-1-.1-2.2.4-3.4z"/><path d="M81.8 146.5c3.6-1.4 6.4-2.4 9.2-3.5-3.7-.5-7.6 1.1-11.8-1.7 4.2-3.1 8-6 11.9-8.9h2.2c0-.7 0-1.5-.1-2.2-4.8.1-9.3-.8-12.9-4.3-3.2-.5-6.9-2.5-8.1 3.1-.7 3.5-3.7 4.7-6.9 5.4-2 1.8.3 6.3-4.1 6.6 1.8 4.8 3.9 9.1 10.4 7.6 4-.9 7.2 2.4 10.9 2.9 2.6-.9 5.3-1.8 9.4-3.2-3.8-.7-6.5-1.2-10.1-1.8z" fill="#8c8c8c"/><path d="M97.4 96.1c.8-1.4 1.6-2.9 2.4-4.3 7.3-6.3-2.7-9.8-2.4-15-7-1.8-9.4-9.1-14.9-12.8 0 8.9 4.2 16.3 8.6 23.5.7 3.9 2.3 7.2 6.3 8.6z" fill="#7d7d7d"/><path d="M97.4 108.9c-.5-4.2 2.1-8.5 0-12.7-4-1.5-5.6-4.7-6.3-8.6-6.8 2.2-8.1 7.3-5 12.7 2.6 4.6 1.7 8.5.8 12.9 4-.1 7.3-2.2 10.5-4.3z" fill="#8d8d8d"/><path class="st24" d="M93.2 130.2c2.1-5 4.2-10 6.4-14.9.9-.4 1.9-.7 2.8-1.1-.9-.4-1.9-.7-2.8-1.1-.7-1.4-1.5-2.9-2.2-4.3-3.2 2.2-6.5 4.3-10.6 4.3 2.2 6.4 3.7 12.6-6.4 12.8 3.6 3.5 8.1 4.4 12.8 4.3z"/><path d="M101.8 260.5c.7-.8 1.3-1.5 2-2.3-4.9.3-7.1-4-10.6-6.2-3.3 4.4-5.8 8.5-3.2 14.6.1.2.1.4.2.6h8.5c-.2-.7-.5-1.5-.8-2.2-1.5-3.4 1.3-4.1 3.9-4.5z" fill="#383838"/><path class="st26" d="M118.8 185.8c-3.8-5.5-5-12.8-10.7-17.1-4.1 3.4-6.2 8.1-8.5 12.8 12.2 3.1 10.9 5.6 6.4 16.7-3.2 7.9-9.6 14.7-10 23.6-.1 3.3-1 6.2-2.8 8.8h4.3c5.4-8.1 9-17.1 12.4-26.2 1.5-4.1 3-7.8 6.8-10.2.7-.7 1.4-1.4 2.2-2.1.2-.7.3-1.4.5-2.1-.3-1.4-.4-2.8-.6-4.2z"/><path d="M112.3 222.1c-4.7 5.3-4.7 15.2-15 14.9-4.7 3-3.4 8.8-6.2 12.7l2.1 2.4c3.5 2.2 5.7 6.4 10.6 6.2-1.3-9.5 5-16.6 9.2-23.6 3.3-5.5 2.5-8.4-.4-12.5 0-.1-.3-.1-.3-.1z" fill="#555"/><path class="st12" d="M116.6 194.2c.1 9.5-7.1 17.9-4.3 27.8h.2c9.6-8.4 5.3-19.7 6.2-30-.6.8-1.4 1.5-2.1 2.2z"/><path d="M99.6 181.5c2.3-4.6 4.4-9.3 8.5-12.8-11.9-6.8-12.4-8.9-4.2-17 4.3-6.8-3.3-10-4.5-15.1l-6-4.2h-2.2c0 3.6-.1 7.1-.1 10.7-2.8 1.1-5.6 2.1-9.2 3.5 3.6.6 6.3 1.1 10.2 1.7-4.1 1.4-6.7 2.3-9.4 3.2 2.8.1 5.6.3 8.3.4-6.8 1.6-12.5.8-4.3 10.4 3.7 4.4 6 13.2 9 19.9 1.2 2.7 3.8 2.9 6.1 3.6-.8-1.4-1.5-2.9-2.2-4.3z" fill="#7b7b7b"/><path d="M65.5 252.4c.7-2.3 1.5-4.5 2.2-6.8-6.9-7.3-5.3-14.4.3-21.5-.2-.7-.3-1.4-.3-2.1-5-2.1-8.6-.9-10.4 4.4.1 10.4-.4 20.8-1.9 31.1-.2 1.7-.5 3.4-.8 5 7.7 1.2 6.4-7.6 10.9-10.1z" fill="#0f0f0f"/><path d="M82.4 239.2c-4.4-1.3-5.9-5.5-8.6-8.5l-1-.1h-1c.1 5.4.1 10.7-4.1 14.9-.7 2.3-1.5 4.5-2.2 6.8.6 2.4-1.7 6.7 2.6 6.8 3.6.1 7.9-.6 9.6-5.1 1.6-4.3 3.3-8.6 5-12.8-.1-.7-.2-1.3-.3-2z" fill="#444"/><path d="M97.3 236.9c0-2.1.1-4.2.1-6.3h-4.3c-4.6 1.6-5.4 8-10.8 8.6.1.7.2 1.3.3 2 2.8 2.8 5.6 5.6 8.4 8.5 2.9-3.9 1.7-9.8 6.3-12.8z" fill="#747474"/><path class="st8" d="M103.4 124c-1.2 4.1 1.7 6.4 4.7 8.3 2.2-9.9 7.9-19.5 2.2-29.9h-2.2c-2.4 3.9-4 8.4-8.5 10.7.9.4 1.9.7 2.8 1.1-.9.4-1.9.7-2.8 1.1 2.7 2.2 5.1 4.5 3.8 8.7z"/><path d="M108.1 132.3c-3-2-5.9-4.3-4.7-8.3 1.3-4.2-1.1-6.5-3.8-8.7-2.1 5-4.2 10-6.4 14.9 0 .7 0 1.5.1 2.2l6 4.2c2.3-2.8 5.3-4.1 8.8-4.3z" fill="#6e6e6e"/><path d="M108.1 102.5c-3.8-2.8-7.3-5.7-8.3-10.6-.8 1.4-1.6 2.9-2.4 4.3 2.2 4.2-.5 8.5 0 12.7.7 1.4 1.5 2.9 2.2 4.3 4.5-2.3 6.1-6.8 8.5-10.7z" fill="#777"/><path d="M74.4 173.5c3.1-.9 2.8 1.9 3.3 4 1.7 8.2 1.8 16.2-3.7 23.2-.7 2.1-1.4 4.3-2.1 6.4 3.8-.3 6.9-2.2 8.6-5.4 4.5-8.3 9.5-7.1 14.9-1.1 1-5.4 6.2-9 6.4-14.8-2.3-.7-4.9-.9-6.1-3.6-3-6.8-5.2-15.6-9-19.9-8.3-9.7-2.5-8.9 4.3-10.4-2.8-.1-5.6-.3-8.3-.4-3.8-.5-6.9-3.8-10.9-2.9-6.5 1.4-8.6-2.8-10.4-7.6-4.3-1-7-.7-11.4 2.6-6.6 4.9.1 10.5-3.6 14.4-.4 1.3-.6 2.4-.4 3.5.3 2.5 1.9 4.5 4.1 6.3.4.5.9 1 1.4 1.4 1.1-2.3 2.2-4.5 3.3-6.8 4 8 9.1 14.1 19.6 11.1zm-10.7-15.7c3.5-2.3 6.9-2.1 10.3.2-3.4-.1-6.9-.1-10.3-.2z" fill="#979797"/><path class="st24" d="M91 143.1c0-3.6.1-7.1.1-10.7-3.9 2.9-7.7 5.8-11.9 8.9 4.2 2.9 8.1 1.3 11.8 1.8z"/><path class="st16" d="M12.3 216.2c1.1 3.3-2.1 5.3-2.6 8.1.9 9.3 3 11.1 9.9 8.5-2.4-7.5 4.4-12.2 5.7-18.6-1-1-2-2.1-3-3.1-5.1-1.6-6.8 3.1-10 5.1z"/><path d="M95.3 203.5c-7.9 2.9-13.3 7.9-15 16.5 1.7 5.9-3.9 7.4-6.5 10.8 2.7 3 4.2 7.2 8.6 8.5 5.4-.6 6.2-7 10.8-8.6 1.8-2.7 2.7-5.5 2.8-8.8.4-9 6.8-15.8 10-23.6 4.5-11.1 5.8-13.6-6.4-16.7.7 1.5 1.4 3 2.1 4.4-.3 5.7-5.4 9.4-6.4 14.8 1.9.8 1.9 2 0 2.7z" fill="#858585"/><path d="M97.3 236.9c10.3.4 10.4-9.6 15-14.9-2.9-9.9 4.4-18.3 4.3-27.8-3.8 2.4-5.2 6.1-6.8 10.2-3.4 9.1-7 18.1-12.4 26.2 0 2.1 0 4.2-.1 6.3z" fill="#606060"/><path class="st15" d="M19.5 243.1c-3.1-.3-6.3.2-9.4.4.4 7.8-2.1 15.9 1.8 23.5 4.6.8 7.6-2.5 11.2-4.3-4.3-3.8-1.3-8.1.3-11.3 3.5-7.1 3.6-7.6-3.9-8.3z"/><path d="M44.5 213.7l-.3-2.4c-7.3-4.8-14.5-10.7-22-.3 1 1 2 2.1 3 3.1 6.5-.5 12.9-2.3 19.3-.4z" fill="#4e4e4e"/><path d="M67.6 222c2.1-2.5 1.9-5.5 1.9-8.4-2.1-1.5-4.1-2.9-6.2-4.4-2.4.8-4.8 1.6-7.3 2.4-2.6 4.3.4 8.5.5 12.7.2.7.4 1.5.6 2.2 1.9-5.4 5.5-6.5 10.5-4.5z" fill="#6d6d6d"/><path d="M71.8 230.7c-1.3-2.2-2.5-4.4-3.8-6.6-5.6 7.1-7.2 14.2-.3 21.5 4.2-4.2 4.2-9.5 4.1-14.9z" fill="#121212"/><path d="M71.8 230.7h1l1 .1c2.5-3.4 8.2-4.9 6.5-10.8-4.9-.7-7.1-4.2-8.5-8.5-.8.7-1.6 1.5-2.3 2.2 0 3 .2 6-1.9 8.4 0 .7.1 1.4.3 2.1 1.3 2.1 2.6 4.3 3.9 6.5z" fill="#999"/><path d="M74 200.7c5.6-7 5.4-15 3.7-23.2-.4-2.1-.2-4.8-3.3-4-10.5 2.9-15.7-3.2-19.9-11.2-1.1 2.3-2.2 4.5-3.3 6.8-.3.5-.5 1.1-.8 1.6-2.1 2.4-3.6 5.1-2.5 8.2 1.8 5.2-.3 10.5-5.8 11.3-4.6.6-5.1 2.5-4.5 6.1.6.2 1.1.3 1.7.4 12.4-5.4 23.8-2.8 34.7 4z" fill="#a1a1a1"/><path d="M59.9 200.9c5 .3 2.8 5.2 3.5 8.3 2.1 1.5 4.1 2.9 6.2 4.4.8-.7 1.6-1.5 2.3-2.2v-4.3c.7-2.1 1.4-4.3 2.1-6.4-10.9-6.8-22.3-9.4-34.6-3.9 2.3 2.8 4.5 5.5 6.8 8.3l1.8.3c1.8-6.9 7.7-4.7 11.9-4.5z" fill="#898989"/><path d="M80.3 219.9c1.7-8.5 7.1-13.6 15-16.5 1.9-.7 1.9-1.9 0-2.8-5.4-6-10.3-7.3-14.9 1.1-1.7 3.2-4.8 5.1-8.6 5.4v4.3c1.4 4.3 3.6 7.8 8.5 8.5z" fill="#8e8e8e"/><path d="M63.7 157.8c3.4.1 6.9.2 10.3.2-3.4-2.3-6.8-2.5-10.3-.2z" fill="#737373"/><path class="st26" d="M63.3 209.2c-.6-3 1.6-7.9-3.5-8.3-4.2-.3-10.1-2.5-11.9 4.5 2.7 2.1 5.4 4.1 8.1 6.2 2.5-.8 4.9-1.6 7.3-2.4z"/></g></svg>