<?xml version="1.0" encoding="utf-8"?>
<!-- Generator: Adobe Illustrator 18.0.0, SVG Export Plug-In . SVG Version: 6.00 Build 0)  -->
<!DOCTYPE svg PUBLIC "-//W3C//DTD SVG 1.1//EN" "http://www.w3.org/Graphics/SVG/1.1/DTD/svg11.dtd">
<svg version="1.1" id="Calque_1" x="0px" y="0px"
	 viewBox="0 0 1280 546.8" enable-background="new 0 0 1280 546.8" xml:space="preserve">
<linearGradient id="SVGID_1_" gradientUnits="userSpaceOnUse" x1="16.9764" y1="164.4615" x2="277.8246" y2="164.4615">
	<stop  offset="0" style="stop-color:#FFC171"/>
	<stop  offset="1" style="stop-color:#FF616E"/>
</linearGradient>
<circle fill="none" stroke="url(#SVGID_1_)" stroke-width="40" stroke-miterlimit="10" cx="147.4" cy="164.5" r="110.4"/>
<linearGradient id="SVGID_2_" gradientUnits="userSpaceOnUse" x1="442.3443" y1="170.7821" x2="740.9456" y2="170.7821">
	<stop  offset="0" style="stop-color:#FFC171"/>
	<stop  offset="1" style="stop-color:#FF616E"/>
</linearGradient>
<circle fill="#FFFFFF" stroke="url(#SVGID_2_)" stroke-miterlimit="10" cx="591.6" cy="170.8" r="148.8"/>
<g>
	<path fill="#5983FC" d="M507.4,167.4c-13.1-25.9-25.8-44.7-28.6-61.3c-3.2-16.3,3.7-30.5,19.9-40.2c16-9.3,36.5-9,49.8,5.9
		c13.6,14.3,19.9,43.3,16.8,77.9c-2.8,34.8-12.6,66.2-19.1,88c-6.9,21.9-10.3,34.2-10,34.6c0,0.3,1.9-12.6-2.1-32.7
		C530.4,219.8,520.8,192.7,507.4,167.4z"/>
</g>
<path fill="#ED9E6E" d="M518.5,260.1c0,0,0.1,0,0.2,0.1c-0.1-0.2-0.2-0.5-0.3-0.8C518.4,259.6,518.4,259.8,518.5,260.1"/>
<path fill="#ED9E6E" d="M714.4,211.2c0-0.1,0.1-0.1,0.1-0.2c-0.1-0.2-0.1-0.5-0.2-0.7C714.3,210.7,714.4,210.9,714.4,211.2"/>
<path fill="#0D599E" d="M653.9,122.9c-10.5,2.6-16.9,13.3-14.3,23.9c2.6,10.5,13.3,16.9,23.8,14.3c10.5-2.6,17-13.3,14.3-23.8
	C675.1,126.7,664.4,120.3,653.9,122.9"/>
<path fill="#0D599E" d="M629.8,233.7c-23.1,11.6-38.2,4-41.3-2.2c-0.9-1.7-0.2-3.8,1.5-4.6l57.9-29.2c1.7-0.9,3.8-0.2,4.6,1.5
	C655.7,205.3,652.9,222,629.8,233.7z"/>
<path opacity="0.66" fill="none" stroke="#FFC171" stroke-width="25" stroke-miterlimit="10" enable-background="new    " d="
	M591,34.5c47.1-0.8,93.9,27.3,119.7,68.4"/>
<linearGradient id="SVGID_3_" gradientUnits="userSpaceOnUse" x1="582.7806" y1="544.1767" x2="642.9023" y2="544.1767" gradientTransform="matrix(0.7762 -0.194 -0.194 -0.7762 313.6354 727.8118)">
	<stop  offset="0" style="stop-color:#FF7BAC"/>
	<stop  offset="1" style="stop-color:#FF7BAC;stop-opacity:0"/>
</linearGradient>
<path opacity="0.56" fill="url(#SVGID_3_)" enable-background="new    " d="M707.1,180.7c3.2,12.9-4.6,25.9-17.5,29.1
	c-12.9,3.2-25.9-4.6-29.2-17.5c-3.2-12.9,4.6-25.9,17.5-29.1C690.8,160,703.8,167.9,707.1,180.7"/>
<path fill="#0D599E" d="M554.3,168.1c-2.6-10.5-13.3-16.9-23.9-14.3c-10.5,2.6-16.9,13.3-14.3,23.9c2.6,10.5,13.3,16.9,23.8,14.3
	C550.5,189.3,556.9,178.6,554.3,168.1"/>
<linearGradient id="SVGID_4_" gradientUnits="userSpaceOnUse" x1="401.4986" y1="540.0301" x2="461.5781" y2="540.0301" gradientTransform="matrix(0.7762 -0.194 -0.194 -0.7762 313.6354 727.8118)">
	<stop  offset="0" style="stop-color:#FF7BAC"/>
	<stop  offset="1" style="stop-color:#FF7BAC;stop-opacity:0"/>
</linearGradient>
<path opacity="0.56" fill="url(#SVGID_4_)" enable-background="new    " d="M567.1,219.1c3.2,12.9-4.6,25.9-17.5,29.1
	c-12.9,3.2-25.9-4.6-29.1-17.5c-3.2-12.9,4.6-25.9,17.5-29.1C550.9,198.4,563.9,206.3,567.1,219.1"/>
<linearGradient id="SVGID_5_" gradientUnits="userSpaceOnUse" x1="836.0538" y1="353.3957" x2="1054.6605" y2="353.3957">
	<stop  offset="0" style="stop-color:#FFC171"/>
	<stop  offset="1" style="stop-color:#FF616E"/>
</linearGradient>
<path fill="none" stroke="url(#SVGID_5_)" stroke-width="40" stroke-miterlimit="10" d="M1003.5,416.7l-57.9,22.7
	c-25,9.8-53.7-2.7-63.5-27.7l-22.7-58.1c-9.8-25,2.7-53.7,27.7-63.5l57.9-22.7c25-9.8,53.7,2.7,63.5,27.7l22.7,57.9
	C1041.2,378.2,1028.7,406.9,1003.5,416.7z"/>
<g>
	<path fill-rule="evenodd" clip-rule="evenodd" fill="#1E81ED" d="M1224.1,135.1c-0.4,2.7-3.8,3.1-6.1,4.3c0-2.3-2.6-2.4-1.5-5.5
		C1219.2,132.3,1222.5,132.8,1224.1,135.1z"/>
	<path fill-rule="evenodd" clip-rule="evenodd" fill="#1E81ED" d="M1261.7,135.7c0,0.4,0,0.8,0,1.2
		C1261,137,1260.8,135.9,1261.7,135.7z"/>
	<path fill-rule="evenodd" clip-rule="evenodd" fill="#1E81ED" d="M1177.2,136.4c3.5,0.7,2.5,1.2,4.6,3.1c-3.3,0.1-4.6,3-6.9,0.6
		C1174.3,137.7,1176.8,137.9,1177.2,136.4z"/>
	<path fill-rule="evenodd" clip-rule="evenodd" fill="#1E81ED" d="M1138,140c0.2,2.4-3.7,1.6-3.8,3.7c-1.5-0.8-2.6-2-3.1-3.7
		C1132.6,137,1136.5,137.3,1138,140z"/>
	<path fill-rule="evenodd" clip-rule="evenodd" fill="#1E81ED" d="M857.6,141.3C857.3,141,858.1,141.7,857.6,141.3L857.6,141.3z"/>
	<path fill-rule="evenodd" clip-rule="evenodd" fill="#1E81ED" d="M1082.7,142.5c4.4,0,9.6-0.7,9.2,3.1c-4.1,0-4.7,2.8-8.5,3.1
		C1081.3,147,1080.8,144.7,1082.7,142.5z"/>
	<path fill-rule="evenodd" clip-rule="evenodd" fill="#1E81ED" d="M1002.8,145.6c-1.1,1.8,0.6,2.1-0.8,3.7c-3.4-0.7-2.5,0-5.4,0.6
		c0.3,0.8,1,1.3,2.3,1.2C988.1,156.5,988.4,137.9,1002.8,145.6z"/>
	<path fill-rule="evenodd" clip-rule="evenodd" fill="#1E81ED" d="M1050.5,145c0.8,3.1-1.6,3.7-2.3,5.5c-2.5-1.7-4.8,0.7-6.1,1.8
		C1033.8,149,1044.8,140.8,1050.5,145z"/>
	<path fill-rule="evenodd" clip-rule="evenodd" fill="#1E81ED" d="M933.7,146.2c3.9,0.2,6.9,1,7.7,3.7c-0.3,3.1-5.3,2.3-8.5,3.1
		C930.9,150.8,931,147.6,933.7,146.2z"/>
	<path fill-rule="evenodd" clip-rule="evenodd" fill="#1E81ED" d="M801.5,148.7c4.4-2.4,16.3-3.4,16.1,1.8
		C817.5,154.9,801.3,158,801.5,148.7z"/>
	<path fill-rule="evenodd" clip-rule="evenodd" fill="#1E81ED" d="M864.5,149.9c-0.1,0.5-0.8,0.6-0.8,1.2c-2.9,4.9-15.2,5-14.6-0.6
		C849.6,146.1,861.8,145,864.5,149.9z"/>
	<path fill-rule="evenodd" clip-rule="evenodd" fill="#1E81ED" d="M906,148c2.9,8-14.5,8.6-14.6,3.1
		C891.3,146.5,899.9,145.4,906,148z"/>
	<path fill-rule="evenodd" clip-rule="evenodd" fill="#1E81ED" d="M1000.5,150.5C1000.2,150.2,1001,150.9,1000.5,150.5L1000.5,150.5
		z"/>
	<path fill-rule="evenodd" clip-rule="evenodd" fill="#1E81ED" d="M1042.8,153c0.1-0.7,1.4-0.5,2.3-0.6
		C1045,153.1,1043.7,152.9,1042.8,153z"/>
	<path fill-rule="evenodd" clip-rule="evenodd" fill="#1E81ED" d="M1118.8,171.4c-2,2.1-8,1-8.5,4.3c-4.2-1.4-10.7-0.8-9.2-6.8
		C1105.4,166.4,1118.3,165.8,1118.8,171.4z"/>
	<path fill-rule="evenodd" clip-rule="evenodd" fill="#1E81ED" d="M1257.9,170.2c-0.3,4.3-5.3,4.7-9.2,6.2c0.4-1.3-1.1-1.2-2.3-1.2
		c0-1.4,0-2.9,0-4.3C1249,168.9,1255.5,167.1,1257.9,170.2z"/>
	<path fill-rule="evenodd" clip-rule="evenodd" fill="#1E81ED" d="M788.5,175.7c0-1.6,0-3.3,0-4.9c2.1-2,8.3-1.3,9.2,2.5
		C796.4,175.4,790.7,175.4,788.5,175.7z"/>
	<path fill-rule="evenodd" clip-rule="evenodd" fill="#1E81ED" d="M1221,172c0,0.8,0,1.6,0,2.5c-3.5,2.5-10,2.6-13.8,4.9
		c-2.4-1-3.8-2.7-3.1-6.2C1207.5,171,1217.2,168.4,1221,172z"/>
	<path fill-rule="evenodd" clip-rule="evenodd" fill="#1E81ED" d="M851.5,178.8c-5.2,4-21.9,2.2-20.7-3.7
		C832,168.8,850.8,172.6,851.5,178.8z M846.1,176.3C846.6,176.7,845.8,176.1,846.1,176.3L846.1,176.3z"/>
	<path fill-rule="evenodd" clip-rule="evenodd" fill="#1E81ED" d="M1165.7,176.3c-2.3,1-5.5,1.4-6.9,3.1
		C1147.8,175.4,1164.4,167.2,1165.7,176.3z"/>
	<path fill-rule="evenodd" clip-rule="evenodd" fill="#1E81ED" d="M899.1,175.7c0,1.2,0,2.5,0,3.7c-3.4,1.1-6.2-0.7-6.9,1.8
		C878.9,180,891.8,170,899.1,175.7z"/>
	<path fill-rule="evenodd" clip-rule="evenodd" fill="#1E81ED" d="M950.6,175.1c0.1,1-0.4,2.3,0.8,2.5c-2.8,2.6-6,1.2-10,3.1
		C934.8,176.1,944.9,171.4,950.6,175.1z"/>
	<path fill-rule="evenodd" clip-rule="evenodd" fill="#1E81ED" d="M906.8,175.1C906.5,174.9,907.3,175.5,906.8,175.1L906.8,175.1z"
		/>
	<path fill-rule="evenodd" clip-rule="evenodd" fill="#1E81ED" d="M1046.6,175.1c0.9,1.7,0.9,3.2,0,4.9c-2.8,0-6.3-0.5-6.9,1.2
		C1031.4,178.9,1038.7,171.8,1046.6,175.1z"/>
	<path fill-rule="evenodd" clip-rule="evenodd" fill="#1E81ED" d="M998.2,180.7c-4.1-0.4-6.3,0.7-7.7,2.5
		C973.4,179,1001.7,168.8,998.2,180.7z"/>
	<path fill-rule="evenodd" clip-rule="evenodd" fill="#1E81ED" d="M1212.6,178.8c-0.2,1.1-1.3,1.4-3.1,1.2
		C1209.7,179,1210.8,178.6,1212.6,178.8z"/>
	<path fill-rule="evenodd" clip-rule="evenodd" fill="#1E81ED" d="M1096.6,181.3c0.2-0.8,1.5-0.6,1.5,0
		C1097.8,182.2,1097.4,181.2,1096.6,181.3z"/>
	<path fill-rule="evenodd" clip-rule="evenodd" fill="#1E81ED" d="M992.8,182.5c0.1-0.2,1.7-1.1,2.3-0.6
		C995.7,182.3,992.1,183.6,992.8,182.5z"/>
	<path fill-rule="evenodd" clip-rule="evenodd" fill="#1E81ED" d="M1130.4,202.2c-2.1,5.3-13,2.2-10-3.1
		C1124.6,197.2,1129.2,199.7,1130.4,202.2z M1124.2,203.4C1124.7,203.8,1123.9,203.2,1124.2,203.4L1124.2,203.4z M1125.8,203.4
		C1126.3,203.8,1125.4,203.2,1125.8,203.4L1125.8,203.4z"/>
	<path fill-rule="evenodd" clip-rule="evenodd" fill="#1E81ED" d="M1211,199.1c0.1,1.7,1.4,2.6,1.5,4.3c-2.7,3.4-10.3,3-12.3-0.6
		C1200.2,197.6,1205.6,198.7,1211,199.1z"/>
	<path fill-rule="evenodd" clip-rule="evenodd" fill="#1E81ED" d="M1257.9,205.3c-3.6,5.5-17.5,0.7-11.5-4.9
		C1251.2,201.2,1257.5,200.9,1257.9,205.3z"/>
	<path fill-rule="evenodd" clip-rule="evenodd" fill="#1E81ED" d="M1160.3,201c3.5,0,7.5-0.3,10,0.6c-0.2,2.6,1,2.4,0,4.3
		C1166.1,209,1156.9,205.9,1160.3,201z"/>
	<path fill-rule="evenodd" clip-rule="evenodd" fill="#1E81ED" d="M1081.2,204.6c-0.9,5.9-14.1,3.6-10-2.5
		C1077,200.8,1077.2,203.4,1081.2,204.6z"/>
	<path fill-rule="evenodd" clip-rule="evenodd" fill="#1E81ED" d="M943.7,206.5c0.2,1.4,2.1,1.4,2.3,0c0.6,0.1,0.9,0.5,0.8,1.2
		c-1.1,0.4,0.1,0.7,0,0c1.5-1.2,1.4,0.4,3.8,0c0,0.8,0,1.6,0,2.5c-3.9,1.6-9.5,1.8-10.8-1.8c1.6-0.6,0.7-3.2,3.1-3.1
		C943.1,205.7,942.9,206.5,943.7,206.5z M945.2,209c-0.6,0.1-1.5,0-1.5,0.6C944.3,209.4,945.2,209.6,945.2,209z"/>
	<path fill-rule="evenodd" clip-rule="evenodd" fill="#1E81ED" d="M945.2,205.9C945.1,205.1,946.3,205.5,945.2,205.9L945.2,205.9z"
		/>
	<path fill-rule="evenodd" clip-rule="evenodd" fill="#1E81ED" d="M1038.2,209.6c-1,0-1.1-0.8-2.3-0.6c-0.4-2.8,2-3.4,4.6-3.7
		c-2.4,3,2.4,0.6,2.3,3.1C1040.7,208.3,1038.2,208,1038.2,209.6z"/>
	<path fill-rule="evenodd" clip-rule="evenodd" fill="#1E81ED" d="M904.5,205.9c2.7-0.5,3,0.9,5.4,0.6c-0.5,4.3,1.4,0.4,3.1,1.8
		c-1,2.1-3.6,2.9-7.7,2.5C905.8,208.5,903.9,208.2,904.5,205.9z M909.1,209c-0.6,0.1-1.5,0-1.5,0.6
		C908.1,209.4,909.1,209.6,909.1,209z"/>
	<path fill-rule="evenodd" clip-rule="evenodd" fill="#1E81ED" d="M943.7,206.5c0.2-0.5,0.6-0.7,1.5-0.6
		C945,206.4,944.5,206.6,943.7,206.5z"/>
	<path fill-rule="evenodd" clip-rule="evenodd" fill="#1E81ED" d="M798.4,208.3c2,0.1,3,0.9,3.1,2.5c2.8-2.2,2.3,1.4,6.1,0.6
		c0.2,3.4-3.7,3.6-7.7,3.7C797.4,212.1,797,211.3,798.4,208.3z"/>
	<path fill-rule="evenodd" clip-rule="evenodd" fill="#1E81ED" d="M833,208.3c2.5-0.4,3.6,0.4,5.4,0.6c-0.1,1.9-1.2,1-1.5,3.7
		c1.2-0.9,1.9-2.2,4.6-1.8c-1.1,3-4.7,2.9-7.7,3.1c0.5-1.6-0.3-2.2-2.3-1.8C831.7,210.6,832.4,209.5,833,208.3z"/>
	<path fill-rule="evenodd" clip-rule="evenodd" fill="#1E81ED" d="M979,211.4c-0.8,0-1.5,0-2.3,0c0.1,0.5,0.8,0.6,0.8,1.2
		C978.8,212.9,978.9,212.2,979,211.4c1,0.4,1.4,1.3,1.5,2.5c-4.3-0.2-6.1,0.1-7.7-3.1c0.1-1.1,0.5-2.1,1.5-2.5
		c1.5,0.6,3.1,1.2,4.6,1.8C979,210.6,979,211,979,211.4z"/>
	<path fill-rule="evenodd" clip-rule="evenodd" fill="#1E81ED" d="M873,212c-2.6,4-7.9,2.9-11.5,0.6
		C862.4,207.5,870.1,210.2,873,212z"/>
	<path fill-rule="evenodd" clip-rule="evenodd" fill="#1E81ED" d="M1038.2,209.6c0.9,0.1,1.8,0.2,1.5,1.2c-0.5,0-1,0-1.5,0
		C1038.2,210.4,1038.2,210,1038.2,209.6z"/>
	<path fill-rule="evenodd" clip-rule="evenodd" fill="#1E81ED" d="M980.5,210.8C981.4,208.4,981.4,213.2,980.5,210.8L980.5,210.8z"
		/>
	<path fill-rule="evenodd" clip-rule="evenodd" fill="#1E81ED" d="M1041.2,210.8C1040.9,210.5,1041.7,211.2,1041.2,210.8
		L1041.2,210.8z"/>
	<path fill-rule="evenodd" clip-rule="evenodd" fill="#1E81ED" d="M1009,212c0,0.2,0,0.4,0,0.6C1009.8,212.5,1009.4,212,1009,212
		c0-0.4,0-0.8,0-1.2c3.8-0.3,0.4,1.6,3.8,1.8c0,0.9-5.7,1.3-4.6-0.6C1008.5,212,1008.7,212,1009,212z"/>
	<path fill-rule="evenodd" clip-rule="evenodd" fill="#1E81ED" d="M1220.3,226.2c1.1,1.9-0.4,2.2,0,4.9
		C1206.7,237.7,1205.1,218.6,1220.3,226.2z M1215.6,228C1216.1,228.4,1215.3,227.8,1215.6,228L1215.6,228z M1218.7,229.3
		c0-0.6-1.3-0.8-1.5,0C1218,229.2,1218.4,230.2,1218.7,229.3z"/>
	<path fill-rule="evenodd" clip-rule="evenodd" fill="#1E81ED" d="M1257.1,226.2c-0.6,3.5-2.9,2.3-0.8,5.5c-4.1,1.3-6.6-0.3-9.2-1.8
		C1246.2,223.7,1253,223.8,1257.1,226.2z M1253.3,229.9C1253.8,230.3,1253,229.6,1253.3,229.9L1253.3,229.9z"/>
	<path fill-rule="evenodd" clip-rule="evenodd" fill="#1E81ED" d="M1134.2,228c4.4,6.6-12.4,11.4-16.1,4.3
		C1119.5,227.8,1128.8,227.5,1134.2,228z"/>
	<path fill-rule="evenodd" clip-rule="evenodd" fill="#1E81ED" d="M1171.9,233c0-0.6,0-1.2,0-1.8c-2.2-0.1-2.2,1.5-2.3,3.1
		c-2.5-0.9-4.4-2.2-4.6-4.9c1.3-1.4,3.6-2.1,6.9-1.8C1171.3,229.3,1174.9,233,1171.9,233z M1168.8,231.7
		C1169.3,232.1,1168.5,231.5,1168.8,231.7L1168.8,231.7z"/>
	<path fill-rule="evenodd" clip-rule="evenodd" fill="#1E81ED" d="M1041.2,238.5c-2.9,1.5-6.1,2.9-11.5,2.5
		C1017.8,234,1046.3,226.5,1041.2,238.5z"/>
	<path fill-rule="evenodd" clip-rule="evenodd" fill="#1E81ED" d="M1086.6,234.2c0.1,7.6-14.9,7.8-14.6,2.5
		C1072.2,232.8,1082.5,229.2,1086.6,234.2z"/>
	<path fill-rule="evenodd" clip-rule="evenodd" fill="#1E81ED" d="M1171.9,233C1171.9,233.7,1170.7,233.3,1171.9,233L1171.9,233z"/>
	<path fill-rule="evenodd" clip-rule="evenodd" fill="#1E81ED" d="M969,243.4c-1.3-2.6-2.9-4.5-0.8-6.8c6.7-2.2,17.3-2.7,16.1,3.1
		C983.7,243.2,975.2,244.8,969,243.4z"/>
	<path fill-rule="evenodd" clip-rule="evenodd" fill="#1E81ED" d="M855.3,240.3c-1,6.8-17.5,6.2-17.7-0.6c1.6-0.2,1.5-1.6,2.3-2.5
		c6.9,0.5,11.8-2.8,16.1,0.6C857.1,239.4,852.5,239.4,855.3,240.3z"/>
	<path fill-rule="evenodd" clip-rule="evenodd" fill="#1E81ED" d="M886,244.6c0.3,0,0.5,0,0.8,0C886.7,243.9,886,244.3,886,244.6
		c-1,0-2,0-3.1,0c-6.1-6.4,10.4-9.7,10-1.8c-1.2,1.7-4,2.1-6.9,2.5C886,245.1,886,244.8,886,244.6z M890.6,242.2
		C891.1,242.6,890.3,241.9,890.6,242.2L890.6,242.2z M886,242.8c-0.6,0.1-1.5,0-1.5,0.6C885.1,243.3,886,243.4,886,242.8z"/>
	<path fill-rule="evenodd" clip-rule="evenodd" fill="#1E81ED" d="M924.4,244c0.3,0,0.5,0,0.8,0C925.1,243.3,924.4,243.7,924.4,244
		c-7.1-4.3,7.6-8.4,13.1-4.9C939.6,244,927.6,249.2,924.4,244z M933.7,242.8c0-0.6-1.3-0.8-1.5,0C933,242.7,933.3,243.7,933.7,242.8
		z"/>
	<path fill-rule="evenodd" clip-rule="evenodd" fill="#1E81ED" d="M855.3,240.3C855.5,238.5,858.5,240.9,855.3,240.3L855.3,240.3z"
		/>
	<path fill-rule="evenodd" clip-rule="evenodd" fill="#1E81ED" d="M810.7,241.6c-1.1,2.6,2.3,5-6.1,6.2
		C797.1,245.2,804,237.5,810.7,241.6z M807.7,245.3C808.2,245.7,807.3,245,807.7,245.3L807.7,245.3z"/>
	<path fill-rule="evenodd" clip-rule="evenodd" fill="#1E81ED" d="M905.2,245.3C904.9,245,905.7,245.7,905.2,245.3L905.2,245.3z"/>
	<path fill-rule="evenodd" clip-rule="evenodd" fill="#1E81ED" d="M1247.1,268c-0.6,0.1-0.9,0.5-0.8,1.2c-3.2-1.7-4.2-6.5-0.8-8.6
		c3.5,1,5-0.2,9.2,0c1.4,2.1-1,2.7-1.5,4.9C1251,266.2,1247.7,266,1247.1,268z"/>
	<path fill-rule="evenodd" clip-rule="evenodd" fill="#1E81ED" d="M1221.8,263.7c-0.4,3.4-5.4,3-9.2,3.7c-1.9,0.8,1.4,1.9-0.8,2.5
		c-2.6-0.3-1-1.7-3.8-0.6C1200.2,261.9,1215.1,260.4,1221.8,263.7z"/>
	<path fill-rule="evenodd" clip-rule="evenodd" fill="#1E81ED" d="M1173.4,263.7c0.9,2.6,0,3.1-1.5,4.9c-2.8-0.3-4.3-0.3-7.7-1.2
		C1164.9,262.8,1170.4,263.7,1173.4,263.7z"/>
	<path fill-rule="evenodd" clip-rule="evenodd" fill="#1E81ED" d="M1123.4,266.2c0.3,1.6,2.5,1.7,1.5,4.3c-3.1,1.7-5.8,0-7.7,2.5
		C1109.3,270,1116.6,264.4,1123.4,266.2z"/>
	<path fill-rule="evenodd" clip-rule="evenodd" fill="#1E81ED" d="M1214.9,268.6C1214.6,268.4,1215.4,269,1214.9,268.6L1214.9,268.6
		z"/>
	<path fill-rule="evenodd" clip-rule="evenodd" fill="#1E81ED" d="M1247.1,268C1250.7,267.4,1246.3,270.9,1247.1,268L1247.1,268z"/>
	<path fill-rule="evenodd" clip-rule="evenodd" fill="#1E81ED" d="M823.8,271.1c3.7,9.4-15.6,8.8-15.4,2.5
		C808.6,268.4,818.3,269.1,823.8,271.1z"/>
	<path fill-rule="evenodd" clip-rule="evenodd" fill="#1E81ED" d="M859.1,271.7c-0.2,2.6,1.2,2.9,0,4.9c-2.9,0.5-6.2,0.8-10,0.6
		c1.3-2-2.7-2.2-2.3-4.3C847.6,268.8,854.9,269,859.1,271.7z M852.2,271.7C852.7,272.1,851.9,271.5,852.2,271.7L852.2,271.7z"/>
	<path fill-rule="evenodd" clip-rule="evenodd" fill="#1E81ED" d="M903.7,271.1c4.6,9.1-13.3,8.6-13.1,2.5
		C890.9,268.6,897.9,270.1,903.7,271.1z"/>
	<path fill-rule="evenodd" clip-rule="evenodd" fill="#1E81ED" d="M1167.2,270.5C1166.9,270.2,1167.7,270.9,1167.2,270.5
		L1167.2,270.5z"/>
	<path fill-rule="evenodd" clip-rule="evenodd" fill="#1E81ED" d="M929.8,279.7c1.4-2.6-2.3-3.2-2.3-3.7c0.2-5,12.4-5,13.1,0
		C941,279.5,937.4,281.2,929.8,279.7z M932.9,276.6C933.4,277,932.6,276.4,932.9,276.6L932.9,276.6z"/>
	<path fill-rule="evenodd" clip-rule="evenodd" fill="#1E81ED" d="M1064.3,279.1c-2,0.1-3.7,0.3-4.6,1.2c-10.2-4.8,8-10.6,10-4.3
		C1068.9,277.9,1065.4,277.5,1064.3,279.1z"/>
	<path fill-rule="evenodd" clip-rule="evenodd" fill="#1E81ED" d="M1019,276.6c-0.7,3.2-4.4,3.8-6.1,6.2c-2.8-0.1-4.4-1-6.9-1.2
		c0-1.8-1.9-2.1-1.5-5.5C1007,273.2,1016.2,274.2,1019,276.6z"/>
	<path fill-rule="evenodd" clip-rule="evenodd" fill="#1E81ED" d="M981.3,276.6c-2.1,4.1-5.6,7-13.8,6.2c-0.4-2.1-2.7-2.7-2.3-5.5
		c0.9-0.3,1.6-0.8,1.5-1.8C972.4,275.3,976.8,274.7,981.3,276.6z M972.9,277.9C973.7,280.3,973.7,275.4,972.9,277.9L972.9,277.9z"/>
	<path fill-rule="evenodd" clip-rule="evenodd" fill="#1E81ED" d="M1064.3,279.1c0.8,0,1.5,0,2.3,0c-0.5,0.8-1.6,1.1-3.1,1.2
		C1063.5,279.7,1064.1,279.6,1064.3,279.1z"/>
	<path fill-rule="evenodd" clip-rule="evenodd" fill="#1E81ED" d="M1061.2,280.9C1060.9,280.7,1061.7,281.3,1061.2,280.9
		L1061.2,280.9z"/>
	<path fill-rule="evenodd" clip-rule="evenodd" fill="#1E81ED" d="M1128.8,296.3c0.2-0.8,1.5-0.6,1.5,0
		C1130,297.2,1129.7,296.3,1128.8,296.3z"/>
	<path fill-rule="evenodd" clip-rule="evenodd" fill="#1E81ED" d="M1261.7,296.3c0,2.3,0,4.5,0,6.8
		C1258.6,301.8,1257.5,297.2,1261.7,296.3z"/>
	<path fill-rule="evenodd" clip-rule="evenodd" fill="#1E81ED" d="M1229.5,298.2c0,1.1,0.6,1.6,1.5,1.8c1,6.6-8.6,9.8-13.1,4.9
		c0-1.4,0-2.9,0-4.3C1221,298.3,1225.7,298.5,1229.5,298.2z M1226.4,304.9c1.3,0,2-0.5,2.3-1.2
		C1227.4,303.7,1226.7,304.2,1226.4,304.9z"/>
	<path fill-rule="evenodd" clip-rule="evenodd" fill="#1E81ED" d="M1033.6,301.9c-0.7,4.6-5.2,4.2-8.5,5.5
		C1012.7,303,1027.2,294,1033.6,301.9z"/>
	<path fill-rule="evenodd" clip-rule="evenodd" fill="#1E81ED" d="M1085.8,304.9c-1.4,6.2-10.8,6-14.6,1.2
		C1069.7,297,1083.4,301.6,1085.8,304.9z"/>
	<path fill-rule="evenodd" clip-rule="evenodd" fill="#1E81ED" d="M824.6,305.6c0.3,1.2-5.5,2.1-1.5,2.5c-1.2,0.9-2.4,1.7-3.8,2.5
		c-3.8-0.7-6.9-1.8-8.5-4.3C811.8,300.7,821.9,302.4,824.6,305.6z M816.9,308.6c1.1-0.3,4,0.7,3.8-0.6
		C818.3,308.3,817.6,306.6,816.9,308.6z"/>
	<path fill-rule="evenodd" clip-rule="evenodd" fill="#1E81ED" d="M901.4,305.6c0.4,1.9-1.4,2.2-0.8,4.3c-2.2,0.7-5.3,0.7-8.5,0.6
		C884.4,304.4,895.9,299.8,901.4,305.6z"/>
	<path fill-rule="evenodd" clip-rule="evenodd" fill="#1E81ED" d="M981.3,311.7c-1.3,0-2.4-0.1-3.1-0.6c0.6-1.7-1.5-1.2-1.5-2.5
		c1.4-3.2,5.2-4.5,10-4.9c3.1,1.8,0.7,5,0,7.4C985,310.8,981.7,309.6,981.3,311.7z"/>
	<path fill-rule="evenodd" clip-rule="evenodd" fill="#1E81ED" d="M1139.6,309.2c-2.8,4.6-15.4,2.6-12.3-3.1
		c2.8-3.8,12.5-3.6,13.1,0.6C1140.6,308.5,1136.4,308.3,1139.6,309.2z M1136.5,309.2c-0.9,0.1-2.2-0.1-2.3,0.6
		C1135.1,309.8,1136.4,310,1136.5,309.2z"/>
	<path fill-rule="evenodd" clip-rule="evenodd" fill="#1E81ED" d="M1190.3,304.9c1.8,4.9-8.1,11.2-14.6,5.5c-0.2-2.2,0.1-4,0.8-5.5
		C1181.6,303.9,1185.7,303,1190.3,304.9z"/>
	<path fill-rule="evenodd" clip-rule="evenodd" fill="#1E81ED" d="M859.9,308.6c-3.1,1.3-6.5-1.4-6.1,2.5c-2.2-0.5-3.8-1.5-5.4-2.5
		C847.7,302.7,860.2,303.3,859.9,308.6z"/>
	<path fill-rule="evenodd" clip-rule="evenodd" fill="#1E81ED" d="M788.5,304.9c3.7-0.5,4.7,1.2,5.4,3.1c-3.8,0.8,0.3,4-4.6,3.7
		c-0.4-1.2,2.4-2.6-0.8-2.5C788.5,307.8,788.5,306.4,788.5,304.9z"/>
	<path fill-rule="evenodd" clip-rule="evenodd" fill="#1E81ED" d="M942.1,310.5c-1.4,1.8-5.8,1.1-7.7,2.5c-0.8-0.8-0.7-2.3-2.3-2.5
		C932,305.1,941.7,305.4,942.1,310.5z"/>
	<path fill-rule="evenodd" clip-rule="evenodd" fill="#1E81ED" d="M978.2,311.1C978.3,311.8,977.1,311.5,978.2,311.1L978.2,311.1z"
		/>
	<path fill-rule="evenodd" clip-rule="evenodd" fill="#1E81ED" d="M788.5,312.3c0-0.2,0-0.4,0-0.6c0.3,0,0.5,0,0.8,0
		C789.2,312.1,789.1,312.4,788.5,312.3z"/>
	<path fill-rule="evenodd" clip-rule="evenodd" fill="#1E81ED" d="M981.3,311.7C982.2,311.6,981.8,312.6,981.3,311.7L981.3,311.7z"
		/>
	<path fill-rule="evenodd" clip-rule="evenodd" fill="#1E81ED" d="M984.4,312.3C984.1,312.1,984.9,312.7,984.4,312.3L984.4,312.3z"
		/>
	<path fill-rule="evenodd" clip-rule="evenodd" fill="#1E81ED" d="M940.6,312.9C940.3,312.7,941.1,313.3,940.6,312.9L940.6,312.9z"
		/>
	<path fill-rule="evenodd" clip-rule="evenodd" fill="#1E81ED" d="M979,312.9C978.7,312.7,979.5,313.3,979,312.9L979,312.9z"/>
	<path fill-rule="evenodd" clip-rule="evenodd" fill="#1E81ED" d="M936.7,313.6c0-0.6,0.9-0.5,1.5-0.6
		C938.3,313.5,937.3,313.4,936.7,313.6z"/>
	<path fill-rule="evenodd" clip-rule="evenodd" fill="#1E81ED" d="M1129.6,340c1.3,0,2-0.5,2.3-1.2
		C1130.6,338.8,1129.9,339.2,1129.6,340c-0.5,0-1,0-1.5,0c-3-4.7,3.3-6,7.7-6.8c5.7,2.6,4.1,9.6-4.6,9.2
		C1131.1,341.2,1129,341.7,1129.6,340z M1131.9,341.2c1.5-0.3,3.3-0.2,3.1-1.8C1133,339.3,1132.6,340.3,1131.9,341.2z"/>
	<path fill-rule="evenodd" clip-rule="evenodd" fill="#1E81ED" d="M1224.9,340.6c-0.1-0.7-1.4-0.5-2.3-0.6
		C1222.7,340.7,1224,340.5,1224.9,340.6c-4,4.6-16.8,3.1-13.8-3.7c6.4-2.2,12.9-4,19.2-1.8C1229.7,338,1226.5,338.7,1224.9,340.6z
		 M1220.3,341.2C1220.8,341.6,1219.9,341,1220.3,341.2L1220.3,341.2z"/>
	<path fill-rule="evenodd" clip-rule="evenodd" fill="#1E81ED" d="M1261.7,334.5c0,1.8,0,3.7,0,5.5
		C1258.5,339.6,1259.1,335,1261.7,334.5z"/>
	<path fill-rule="evenodd" clip-rule="evenodd" fill="#1E81ED" d="M919.8,337.5c1.2,0.5-0.2,3,2.3,2.5c-0.2,7.8-17.7,5.3-14.6-1.2
		C910.2,336,914.9,337.4,919.8,337.5z"/>
	<path fill-rule="evenodd" clip-rule="evenodd" fill="#1E81ED" d="M960.6,337.5c5.4-2.7,12.9,2.7,10.8,5.5c-2.1,2.7-13,4.6-13.1-2.5
		C958.2,338.6,958.5,338.6,960.6,337.5z"/>
	<path fill-rule="evenodd" clip-rule="evenodd" fill="#1E81ED" d="M1043.5,338.2c3,6-7.7,8.8-13.1,4.3
		C1028.1,335.6,1039.4,336.1,1043.5,338.2z M1039.7,342.5c-0.6,0.1-1.5,0-1.5,0.6C1038.8,342.9,1039.7,343.1,1039.7,342.5z"/>
	<path fill-rule="evenodd" clip-rule="evenodd" fill="#1E81ED" d="M1096.6,340c0.5,3.7-2.5,4.6-4.6,6.2c-4.7-0.7-8.6-2.1-9.2-6.2
		C1084.8,335.8,1093.4,337.1,1096.6,340z"/>
	<path fill-rule="evenodd" clip-rule="evenodd" fill="#1E81ED" d="M1177.2,344.3c-5.1,2.9-14.1,0.9-12.3-5.5
		C1169,335,1181,338.2,1177.2,344.3z M1170.3,343.7C1170.8,344.1,1170,343.4,1170.3,343.7L1170.3,343.7z"/>
	<path fill-rule="evenodd" clip-rule="evenodd" fill="#1E81ED" d="M1003.6,339.4c3,2.9-4,4.3,0.8,4.3c-1.4,1.3-4.1,1.6-5.4,3.1
		c-2.4-1,1.3-2.1,2.3-2.5c0.5-1.7-3.6,0.4-3.1-1.2c-1,0.6-1,2.1-2.3,2.5c-1.4-0.9-1.9-2.6-3.8-3.1
		C993.3,338.6,998.8,337.2,1003.6,339.4z"/>
	<path fill-rule="evenodd" clip-rule="evenodd" fill="#1E81ED" d="M788.5,339.4c13.7-2.6,11.4,10,0,8
		C788.5,344.7,788.5,342.1,788.5,339.4z"/>
	<path fill-rule="evenodd" clip-rule="evenodd" fill="#1E81ED" d="M829.2,343.1c1.6-4.6,13.2-3.5,15.4,0
		C844.4,348.9,830.7,350.5,829.2,343.1z"/>
	<path fill-rule="evenodd" clip-rule="evenodd" fill="#1E81ED" d="M882.2,344.9c-8.4,8.6-17.9-8.7-1.5-4.3
		C881.3,343.1,881.6,343.5,882.2,344.9z M876.8,344.9C872.9,346.4,879.5,346.5,876.8,344.9L876.8,344.9z"/>
	<path fill-rule="evenodd" clip-rule="evenodd" fill="#1E81ED" d="M996.7,346.2C996.3,345.9,997.2,346.6,996.7,346.2L996.7,346.2z"
		/>
	<path fill-rule="evenodd" clip-rule="evenodd" fill="#1E81ED" d="M973.6,355.4C973.3,355.1,974.1,355.8,973.6,355.4L973.6,355.4z"
		/>
	<path fill-rule="evenodd" clip-rule="evenodd" fill="#1E81ED" d="M829.2,356.6C828.9,356.4,829.7,357,829.2,356.6L829.2,356.6z"/>
	<path fill-rule="evenodd" clip-rule="evenodd" fill="#1E81ED" d="M1154.2,364c1.5-0.2,1.1,2.8-0.8,1.8c0-0.4,0-0.8,0-1.2
		C1154.1,364.7,1154.1,364.4,1154.2,364z"/>
	<path fill-rule="evenodd" clip-rule="evenodd" fill="#1E81ED" d="M1249.5,370.8c0.2,3.6-5.3,2.8-6.1,5.5c-2.9,0.5-3.7-0.8-6.1-0.6
		C1230.6,368,1244.3,366.9,1249.5,370.8z"/>
	<path fill-rule="evenodd" clip-rule="evenodd" fill="#1E81ED" d="M808.4,370.2c1.3,2.3,1.2,2.6,1.5,4.9c-3.2,3.5-17.5,4.1-16.1-3.1
		C796,369.3,803.8,368.9,808.4,370.2z"/>
	<path fill-rule="evenodd" clip-rule="evenodd" fill="#1E81ED" d="M855.3,370.8c1.5,9.8-17.1,8.8-17.7,3.1
		C837,367,848.5,370.4,855.3,370.8z"/>
	<path fill-rule="evenodd" clip-rule="evenodd" fill="#1E81ED" d="M889.9,374.5c-1.3,8.6-14.1,3.5-13.8-1.2
		C876.4,366.5,887,370.6,889.9,374.5z"/>
	<path fill-rule="evenodd" clip-rule="evenodd" fill="#1E81ED" d="M1029.7,374.5c-0.6,7.5-12.8,4.5-13.8,0.6
		C1014,368,1026.5,370.5,1029.7,374.5z"/>
	<path fill-rule="evenodd" clip-rule="evenodd" fill="#1E81ED" d="M1079.7,370.2c0.1,1.7,1.4,2.6,1.5,4.3
		c-2.2,4.3-13.6,6.1-17.7,1.8C1062,370.5,1070.5,369.3,1079.7,370.2z"/>
	<path fill-rule="evenodd" clip-rule="evenodd" fill="#1E81ED" d="M1188.8,372c0.9,7.1-8.4,7.5-13.1,6.8
		C1167.9,371.8,1183.2,367.6,1188.8,372z"/>
	<path fill-rule="evenodd" clip-rule="evenodd" fill="#1E81ED" d="M1130.4,375.7c-2.6,4.3-11.3,5.1-17.7,3.1
		C1103.1,369.3,1127.7,369.9,1130.4,375.7z"/>
	<path fill-rule="evenodd" clip-rule="evenodd" fill="#1E81ED" d="M935.2,380c-5,3.6-14.7,1.3-14.6-3.1
		C920.8,370.6,937.2,373.5,935.2,380z"/>
	<path fill-rule="evenodd" clip-rule="evenodd" fill="#1E81ED" d="M981.3,376.9c-1.8,1.6-3.3,3.5-5.4,4.9
		c-6.2,0.2-10.3-1.1-10.8-5.5C969.2,373.3,978.6,372.9,981.3,376.9z"/>
	<path fill-rule="evenodd" clip-rule="evenodd" fill="#1E81ED" d="M1224.1,397.8c-1.7,0.9-5,0.5-4.6,3.1c-1.2-1.6-3.3-1.7-3.1-5.5
		C1219,393.4,1224.5,394,1224.1,397.8z"/>
	<path fill-rule="evenodd" clip-rule="evenodd" fill="#1E81ED" d="M1261.7,397.2c0,0.2,0,0.4,0,0.6
		C1261.3,397.8,1260.9,397.3,1261.7,397.2z"/>
	<path fill-rule="evenodd" clip-rule="evenodd" fill="#1E81ED" d="M1181.8,399.7c-1.4,1.3-2.8,2.7-6.1,2.5
		C1172.7,397.9,1179.5,396.9,1181.8,399.7z"/>
	<path fill-rule="evenodd" clip-rule="evenodd" fill="#1E81ED" d="M1136.5,399.1c-0.6,1.9,2.1,1.2,1.5,3.1c-3,0.8-1.7,1.4-3.8,3.1
		C1130.8,403.9,1129.5,398.1,1136.5,399.1z"/>
	<path fill-rule="evenodd" clip-rule="evenodd" fill="#1E81ED" d="M857.6,402.2C858.5,399.7,858.5,404.6,857.6,402.2L857.6,402.2z"
		/>
	<path fill-rule="evenodd" clip-rule="evenodd" fill="#1E81ED" d="M1091.9,407.1c-3.9-0.9-6.1,3.2-6.9,3.1
		C1074.6,409,1089.6,396.4,1091.9,407.1z"/>
	<path fill-rule="evenodd" clip-rule="evenodd" fill="#1E81ED" d="M1043.5,412.6c-1.3,0-2.6,0-3.8,0c-3.7-6.9,9.3-10.1,10.8-5.5
		C1052,412.1,1045.5,409.9,1043.5,412.6z"/>
	<path fill-rule="evenodd" clip-rule="evenodd" fill="#1E81ED" d="M999,412.6c-1.3,0-2.6,0-3.8,0c-0.1-0.7-0.8-0.3-0.8,0
		c-0.8,0-1.5,0-2.3,0c-1.6-2.4-2.2-5.8,0.8-7.4c6-0.6,10.5,0.8,10,3.7c-0.2,3.4-5-0.5-5.4,3.1C998,412.1,999,412,999,412.6z"/>
	<path fill-rule="evenodd" clip-rule="evenodd" fill="#1E81ED" d="M816.9,412.6c-5.1,0-10.2,0-15.4,0
		C800.7,405.6,820.4,406.8,816.9,412.6z"/>
	<path fill-rule="evenodd" clip-rule="evenodd" fill="#1E81ED" d="M863.7,412.6c-4.9,0-9.7,0-14.6,0
		C849.9,405.9,866,406.4,863.7,412.6z"/>
	<path fill-rule="evenodd" clip-rule="evenodd" fill="#1E81ED" d="M906,412.6c-4.9,0-9.7,0-14.6,0
		C891.3,405.4,908.9,406.4,906,412.6z"/>
	<path fill-rule="evenodd" clip-rule="evenodd" fill="#1E81ED" d="M941.4,412.6c-3.3,0-6.7,0-10,0
		C928.9,405.1,942.9,407,941.4,412.6z"/>
	<path fill-rule="evenodd" clip-rule="evenodd" fill="#1E81ED" d="M1000.5,412C1000.2,411.7,1001,412.4,1000.5,412L1000.5,412z"/>
</g>
<linearGradient id="SVGID_6_" gradientUnits="userSpaceOnUse" x1="341.1132" y1="405.5516" x2="550.1313" y2="405.5516">
	<stop  offset="0" style="stop-color:#FFC171"/>
	<stop  offset="1" style="stop-color:#FF616E"/>
</linearGradient>
<polygon fill="none" stroke="url(#SVGID_6_)" stroke-width="40" stroke-miterlimit="10" points="361.5,504.9 361.2,314.5 
	512.4,429.9 "/>
</svg>
