<?xml version="1.0" encoding="utf-8"?>
<!-- Generator: Adobe Illustrator 18.0.0, SVG Export Plug-In . SVG Version: 6.00 Build 0)  -->
<!DOCTYPE svg PUBLIC "-//W3C//DTD SVG 1.1//EN" "http://www.w3.org/Graphics/SVG/1.1/DTD/svg11.dtd">
<svg version="1.1" id="Calque_1" xmlns="http://www.w3.org/2000/svg" xmlns:xlink="http://www.w3.org/1999/xlink" x="0px" y="0px"
	 viewBox="0 0 850 350" enable-background="new 0 0 850 350" xml:space="preserve">
<rect x="-11.4" y="-13.4" fill="#D7DBDD" width="871.5" height="375"/>
<g>
	<path fill="#1E81ED" d="M1.6,27.6c2,0.4,2.3,2.8,3.2,4.6c-1.7,0-1.8,1.9-4.1,1.2C-0.5,31.3-0.1,28.8,1.6,27.6z"/>
	<path fill="#1E81ED" d="M2.1-0.2c0.3,0,0.6,0,0.9,0C2.9,0.3,2.2,0.5,2.1-0.2z"/>
	<path fill="#1E81ED" d="M2.5,62.3c0.5-2.6,0.9-1.9,2.3-3.4C4.9,61.3,7,62.3,5.3,64C3.5,64.5,3.6,62.6,2.5,62.3z"/>
	<path fill="#1E81ED" d="M5.2,91.3C7,91.1,6.4,94,8,94.1c-0.6,1.2-1.5,2-2.7,2.3C3,95.3,3.2,92.4,5.2,91.3z"/>
	<path fill="#1E81ED" d="M6.1,298.7C5.9,298.9,6.4,298.3,6.1,298.7L6.1,298.7z"/>
	<path fill="#1E81ED" d="M7,132.2c0-3.3-0.6-7.1,2.3-6.8c0,3,2,3.5,2.3,6.2C10.3,133.2,8.7,133.6,7,132.2z"/>
	<path fill="#1E81ED" d="M9.3,191.2c1.3,0.8,1.5-0.5,2.7,0.6c-0.5,2.5,0,1.9,0.5,4c0.6-0.2,0.9-0.7,0.9-1.7
		C17.3,202.2,3.6,201.9,9.3,191.2z"/>
	<path fill="#1E81ED" d="M8.9,156c2.2-0.6,2.7,1.2,4.1,1.7c-1.3,1.9,0.5,3.6,1.3,4.6C11.8,168.4,5.7,160.2,8.9,156z"/>
	<path fill="#1E81ED" d="M9.8,242.4c0.1-2.9,0.7-5.1,2.7-5.7c2.3,0.2,1.7,4,2.3,6.2C13.2,244.4,10.8,244.4,9.8,242.4z"/>
	<path fill="#1E81ED" d="M11.6,340.1c-1.8-3.3-2.5-12,1.3-11.9C16.2,328.3,18.5,340.3,11.6,340.1z"/>
	<path fill="#1E81ED" d="M12.5,293.6c0.3,0.1,0.5,0.6,0.9,0.6c3.6,2.2,3.7,11.3-0.5,10.8C9.7,304.5,8.9,295.5,12.5,293.6z"/>
	<path fill="#1E81ED" d="M11.1,262.9c5.9-2.1,6.3,10.7,2.3,10.8C10,273.7,9.2,267.3,11.1,262.9z"/>
	<path fill="#1E81ED" d="M13,192.9C12.8,193.2,13.3,192.6,13,192.9L13,192.9z"/>
	<path fill="#1E81ED" d="M14.8,161.7c-0.6-0.1-0.4-1-0.5-1.7C14.9,160.1,14.7,161,14.8,161.7z"/>
	<path fill="#1E81ED" d="M28.4,105.5c1.5,1.4,0.7,5.9,3.2,6.2c-1,3.1-0.6,7.9-5,6.8C24.7,115.4,24.2,105.9,28.4,105.5z"/>
	<path fill="#1E81ED" d="M27.5,2.6c3.2,0.2,3.5,4,4.6,6.8c-0.9-0.2-0.8,0.8-0.9,1.7c-1,0-2.1,0-3.2,0C26.6,9.2,25.2,4.4,27.5,2.6z"
		/>
	<path fill="#1E81ED" d="M31.6,349.8c-1.2,0-2.5,0-3.6,0c-1.4-1.6-0.9-6.2,1.8-6.8C31.4,343.9,31.3,348.1,31.6,349.8z"/>
	<path fill="#1E81ED" d="M28.9,29.9c0.6,0,1.2,0,1.8,0c1.9,2.6,2,7.4,3.6,10.2c-0.7,1.8-2,2.8-4.5,2.3
		C28.1,39.9,26.2,32.8,28.9,29.9z"/>
	<path fill="#1E81ED" d="M33.9,303.2c2.9,3.8,1.6,16.2-2.7,15.4C26.5,317.6,29.3,303.7,33.9,303.2z M32.1,307.2
		C32.4,306.8,31.9,307.4,32.1,307.2L32.1,307.2z"/>
	<path fill="#1E81ED" d="M32.1,70.8c0.7,1.7,1,4,2.3,5.1C31.4,84.1,25.3,71.8,32.1,70.8z"/>
	<path fill="#1E81ED" d="M31.6,268c0.9,0,1.8,0,2.7,0c0.8,2.6-0.6,4.6,1.3,5.1C34.8,282.9,27.4,273.4,31.6,268z"/>
	<path fill="#1E81ED" d="M31.2,229.9c0.7,0,1.8,0.2,1.8-0.6c2,2,0.9,4.4,2.3,7.4C31.9,241.5,28.4,234.1,31.2,229.9z"/>
	<path fill="#1E81ED" d="M31.2,262.3C31,262.5,31.5,261.9,31.2,262.3L31.2,262.3z"/>
	<path fill="#1E81ED" d="M31.2,158.9c1.3-0.7,2.3-0.7,3.6,0c0,2-0.4,4.7,0.9,5.1C34,170.1,28.7,164.7,31.2,158.9z"/>
	<path fill="#1E81ED" d="M35.3,194.7c-0.4,3,0.5,4.7,1.8,5.7C34,213.1,26.5,192.1,35.3,194.7z"/>
	<path fill="#1E81ED" d="M33.9,36.2c0.8,0.1,1,1,0.9,2.3C34,38.3,33.8,37.5,33.9,36.2z"/>
	<path fill="#1E81ED" d="M35.7,121.9c-0.6-0.1-0.5-1.2,0-1.2C36.4,121.1,35.7,121.3,35.7,121.9z"/>
	<path fill="#1E81ED" d="M36.6,198.6c-0.1-0.1-0.8-1.3-0.5-1.7C36.5,196.5,37.4,199.2,36.6,198.6z"/>
	<path fill="#1E81ED" d="M51.2,97c4,1.6,1.6,9.6-2.3,7.4C47.5,101.2,49.3,97.8,51.2,97z M52.1,101.5
		C52.3,101.1,51.9,101.7,52.1,101.5L52.1,101.5z M52.1,100.3C52.3,100,51.9,100.6,52.1,100.3L52.1,100.3z"/>
	<path fill="#1E81ED" d="M48.9,37.3c1.3-0.1,1.9-1.1,3.2-1.2c2.5,2,2.2,7.6-0.5,9.1C47.8,45.3,48.6,41.3,48.9,37.3z"/>
	<path fill="#1E81ED" d="M53.5,2.6c4.1,2.7,0.5,12.9-3.6,8.5C50.5,7.6,50.2,2.9,53.5,2.6z"/>
	<path fill="#1E81ED" d="M50.3,74.8c0-2.7-0.2-5.5,0.5-7.4c1.9,0.1,1.8-0.7,3.2,0C56.3,70.5,54,77.4,50.3,74.8z"/>
	<path fill="#1E81ED" d="M53,133.3c4.3,0.7,2.7,10.4-1.8,7.4C50.2,136.4,52.1,136.3,53,133.3z"/>
	<path fill="#1E81ED" d="M54.3,235c1-0.1,1-1.5,0-1.7c0.1-0.5,0.4-0.7,0.9-0.6c0.3,0.8,0.6,0,0,0c-0.8-1.1,0.2-1,0-2.8
		c0.6,0,1.2,0,1.8,0c1.2,2.9,1.3,7-1.3,8c-0.5-1.2-2.3-0.5-2.3-2.3C53.8,235.5,54.3,235.6,54.3,235z M56.2,233.9
		c0.1,0.5,0,1.1,0.5,1.2C56.5,234.6,56.6,233.9,56.2,233.9z"/>
	<path fill="#1E81ED" d="M53.9,233.9C53.4,233.9,53.6,233,53.9,233.9L53.9,233.9z"/>
	<path fill="#1E81ED" d="M56.7,165.1c0,0.7-0.6,0.8-0.5,1.7c-2.1,0.3-2.5-1.4-2.7-3.4c2.2,1.8,0.4-1.8,2.3-1.7
		C55.7,163.2,55.5,165.1,56.7,165.1z"/>
	<path fill="#1E81ED" d="M53.9,264c-0.3-2,0.7-2.2,0.5-4c3.2,0.4,0.3-1,1.3-2.3c1.5,0.7,2.1,2.7,1.8,5.7
		C55.8,263,55.6,264.4,53.9,264z M56.2,260.6c0.1,0.5,0,1.1,0.5,1.2C56.5,261.3,56.6,260.6,56.2,260.6z"/>
	<path fill="#1E81ED" d="M54.3,235c-0.4-0.1-0.6-0.5-0.5-1.2C54.3,234,54.4,234.3,54.3,235z"/>
	<path fill="#1E81ED" d="M55.7,342.4c0-1.4,0.7-2.2,1.8-2.3c-1.6-2,1-1.7,0.5-4.5c2.6-0.1,2.7,2.7,2.7,5.7
		C58.5,343.1,57.9,343.5,55.7,342.4z"/>
	<path fill="#1E81ED" d="M55.7,316.8c-0.2-1.9,0.3-2.7,0.5-4c1.4,0.1,0.7,0.9,2.7,1.2c-0.7-0.9-1.6-1.4-1.3-3.4
		c2.2,0.8,2.1,3.4,2.3,5.7c-1.2-0.4-1.6,0.2-1.3,1.7C57.4,317.8,56.5,317.3,55.7,316.8z"/>
	<path fill="#1E81ED" d="M58,208.9c0,0.6,0,1.2,0,1.7c0.3-0.1,0.5-0.6,0.9-0.6C59.1,209.1,58.5,209,58,208.9c0.3-0.7,1-1.1,1.8-1.2
		c-0.1,3.2,0,4.6-2.3,5.7c-0.8-0.1-1.5-0.3-1.8-1.2c0.5-1.2,0.9-2.3,1.3-3.4C57.4,208.9,57.7,208.9,58,208.9z"/>
	<path fill="#1E81ED" d="M58.4,287.3c2.9,2,2.1,5.8,0.5,8.5C55.1,295.1,57.1,289.4,58.4,287.3z"/>
	<path fill="#1E81ED" d="M56.7,165.1c0-0.7,0.1-1.3,0.9-1.2c0,0.4,0,0.7,0,1.2C57.2,165.1,57,165.1,56.7,165.1z"/>
	<path fill="#1E81ED" d="M57.6,207.8C55.7,207.1,59.3,207.1,57.6,207.8L57.6,207.8z"/>
	<path fill="#1E81ED" d="M57.6,162.9C57.4,163.1,57.8,162.5,57.6,162.9L57.6,162.9z"/>
	<path fill="#1E81ED" d="M58.4,186.7c0.1,0,0.3,0,0.5,0C58.8,186.1,58.4,186.4,58.4,186.7c-0.3,0-0.6,0-0.9,0
		c-0.2-2.8,1.2-0.3,1.3-2.8c0.7,0,1,4.2-0.5,3.4C58.4,187.1,58.4,186.9,58.4,186.7z"/>
	<path fill="#1E81ED" d="M68.9,30.5c1.4-0.8,1.6,0.2,3.6,0C77.4,40.5,63.3,41.7,68.9,30.5z M70.3,33.9
		C70.6,33.5,70.1,34.1,70.3,33.9L70.3,33.9z M71.2,31.6c-0.5,0-0.6,1,0,1.2C71.2,32.1,71.9,31.9,71.2,31.6z"/>
	<path fill="#1E81ED" d="M68.9,3.2c2.6,0.5,1.7,2.1,4.1,0.6c0.9,3-0.2,4.9-1.3,6.8C67.1,11.3,67.1,6.2,68.9,3.2z M71.7,6
		C71.9,5.7,71.5,6.3,71.7,6L71.7,6z"/>
	<path fill="#1E81ED" d="M70.3,94.1c4.8-3.3,8.4,9.2,3.2,11.9C70.1,105,69.9,98.1,70.3,94.1z"/>
	<path fill="#1E81ED" d="M73.9,66.3c-0.5,0-0.9,0-1.3,0c0,1.6,1.1,1.6,2.3,1.7c-0.7,1.9-1.6,3.3-3.6,3.4c-1-1-1.5-2.7-1.3-5.1
		C71.2,66.7,74,64,73.9,66.3z M73,68.5C73.3,68.2,72.8,68.7,73,68.5L73,68.5z"/>
	<path fill="#1E81ED" d="M78,162.9c1.2,2.2,2.1,4.5,1.8,8.5C74.6,180.2,69.2,159.1,78,162.9z"/>
	<path fill="#1E81ED" d="M74.9,129.3c5.6,0,5.8,11.1,1.8,10.8C73.8,139.9,71.1,132.3,74.9,129.3z"/>
	<path fill="#1E81ED" d="M73.9,66.3C74.5,66.2,74.2,67.1,73.9,66.3L73.9,66.3z"/>
	<path fill="#1E81ED" d="M81.6,216.3c-1.9,0.9-3.3,2.1-5,0.6c-1.6-4.9-2-12.8,2.3-11.9C81.5,205.4,82.7,211.7,81.6,216.3z"/>
	<path fill="#1E81ED" d="M79.4,300.4c5,0.7,4.6,13-0.5,13.1c-0.1-1.2-1.2-1.2-1.8-1.7c0.3-5.1-2.1-8.8,0.5-11.9
		C78.7,299,78.6,302.4,79.4,300.4z"/>
	<path fill="#1E81ED" d="M82.6,277.6c0-0.2,0-0.4,0-0.6C82,277.2,82.3,277.6,82.6,277.6c0,0.7,0,1.5,0,2.3c-4.7,4.5-7.2-7.7-1.3-7.4
		c1.3,0.8,1.6,2.9,1.8,5.1C82.9,277.6,82.7,277.6,82.6,277.6z M80.7,274.2C81,273.8,80.6,274.4,80.7,274.2L80.7,274.2z M81.2,277.6
		c0.1,0.5,0,1.1,0.5,1.2C81.5,278.3,81.6,277.6,81.2,277.6z"/>
	<path fill="#1E81ED" d="M82.1,249.2c0-0.2,0-0.4,0-0.6C81.6,248.8,81.9,249.2,82.1,249.2c-3.2,5.2-6.2-5.6-3.6-9.7
		C82.1,238,85.9,246.9,82.1,249.2z M81.2,242.4c-0.5,0-0.6,1,0,1.2C81.2,242.9,81.9,242.7,81.2,242.4z"/>
	<path fill="#1E81ED" d="M79.4,300.4C78,300.2,79.8,298,79.4,300.4L79.4,300.4z"/>
	<path fill="#1E81ED" d="M80.3,333.3c1.9,0.8,3.7-1.7,4.5,4.5C83,343.4,77.3,338.3,80.3,333.3z M83,335.6
		C83.3,335.2,82.8,335.8,83,335.6L83,335.6z"/>
	<path fill="#1E81ED" d="M83,263.4C82.8,263.7,83.3,263.1,83,263.4L83,263.4z"/>
	<path fill="#1E81ED" d="M99.8,10.6c0.1,0.5,0.4,0.7,0.9,0.6c-1.3,2.3-4.8,3.1-6.4,0.6c0.7-2.6-0.1-3.6,0-6.8c1.5-1,2,0.7,3.6,1.2
		C98.5,7.7,98.4,10.2,99.8,10.6z"/>
	<path fill="#1E81ED" d="M96.7,29.3c2.5,0.3,2.2,4,2.7,6.8c0.6,1.4,1.4-1,1.8,0.6c-0.2,2-1.3,0.7-0.5,2.8
		C95.4,45.3,94.2,34.3,96.7,29.3z"/>
	<path fill="#1E81ED" d="M96.7,65.1c2-0.7,2.3,0,3.6,1.2c-0.2,2.1-0.2,3.2-0.9,5.7C96,71.4,96.7,67.4,96.7,65.1z"/>
	<path fill="#1E81ED" d="M98.5,102.1c1.2-0.2,1.3-1.9,3.2-1.2c1.3,2.3,0,4.3,1.8,5.7C101.3,112.5,97.1,107.1,98.5,102.1z"/>
	<path fill="#1E81ED" d="M100.3,34.4C100.2,34.7,100.6,34.1,100.3,34.4L100.3,34.4z"/>
	<path fill="#1E81ED" d="M99.8,10.6C99.4,7.9,102,11.2,99.8,10.6L99.8,10.6z"/>
	<path fill="#1E81ED" d="M102.2,323.7c7-2.7,6.5,11.5,1.8,11.4C100.2,334.9,100.7,327.7,102.2,323.7z"/>
	<path fill="#1E81ED" d="M102.6,297.5c1.9,0.1,2.1-0.9,3.6,0c0.4,2.2,0.6,4.5,0.5,7.4c-1.5-0.9-1.6,2-3.2,1.7
		C100.4,306,100.6,300.7,102.6,297.5z M102.6,302.6C102.9,302.3,102.4,302.9,102.6,302.6L102.6,302.6z"/>
	<path fill="#1E81ED" d="M102.2,264.6c6.7-3.4,6.4,9.9,1.8,9.7C100.3,274,101.4,268.8,102.2,264.6z"/>
	<path fill="#1E81ED" d="M101.7,69.7C101.5,69.9,102,69.3,101.7,69.7L101.7,69.7z"/>
	<path fill="#1E81ED" d="M108.5,245.3c-2-1-2.3,1.7-2.7,1.7c-3.7-0.1-3.7-9.2,0-9.7C108.4,237,109.6,239.7,108.5,245.3z M106.2,243
		C106.5,242.6,106,243.2,106.2,243L106.2,243z"/>
	<path fill="#1E81ED" d="M108.1,145.8c0,1.4,0.2,2.7,0.9,3.4c-3.5,7.5-7.9-6-3.2-7.4C107.2,142.4,106.9,145,108.1,145.8z"/>
	<path fill="#1E81ED" d="M106.2,179.3c2.3,0.5,2.8,3.3,4.6,4.6c0,2-0.7,3.3-0.9,5.1c-1.3,0-1.6,1.4-4.1,1.2
		C103.7,188.2,104.4,181.4,106.2,179.3z"/>
	<path fill="#1E81ED" d="M106.2,207.2c3,1.5,5.1,4.2,4.6,10.2c-1.5,0.3-2,2-4.1,1.7c-0.2-0.7-0.6-1.2-1.3-1.2
		C105.2,213.8,104.8,210.5,106.2,207.2z M107.1,213.4C108.9,212.7,105.3,212.7,107.1,213.4L107.1,213.4z"/>
	<path fill="#1E81ED" d="M108.1,145.8c0-0.6,0-1.2,0-1.7c0.6,0.4,0.8,1.2,0.9,2.3C108.5,146.4,108.4,145.9,108.1,145.8z"/>
	<path fill="#1E81ED" d="M109.4,148.1C109.2,148.3,109.7,147.7,109.4,148.1L109.4,148.1z"/>
	<path fill="#1E81ED" d="M120.8,98.1c-0.6-0.1-0.5-1.2,0-1.2C121.4,97.2,120.7,97.4,120.8,98.1z"/>
	<path fill="#1E81ED" d="M124.9,168.6c3.4,0.5,3.1,3.9,4.1,6.2C125.7,184,119.1,173.3,124.9,168.6z"/>
	<path fill="#1E81ED" d="M127.2,129.9c4.6,1.1,4.4,8,0.9,10.8C121.3,141.8,124.7,131.7,127.2,129.9z"/>
	<path fill="#1E81ED" d="M127.6,323.1c0.9-0.2,1.5,4.1,1.8,1.2c0.7,0.9,1.3,1.8,1.8,2.8c-0.5,2.8-1.3,5.1-3.2,6.2
		C124,332.5,125.3,325.1,127.6,323.1z M129.9,328.8c-0.2-0.8,0.6-2.9-0.5-2.8C129.7,327.7,128.4,328.2,129.9,328.8z"/>
	<path fill="#1E81ED" d="M127.6,266.3c1.4-0.3,1.6,1,3.2,0.6c0.6,1.6,0.5,4,0.5,6.2C126.7,278.8,123.4,270.3,127.6,266.3z"/>
	<path fill="#1E81ED" d="M132.1,207.2c0,1-0.1,1.8-0.5,2.3c-1.3-0.4-0.9,1.2-1.8,1.2c-2.4-1-3.3-3.8-3.6-7.4c1.3-2.2,3.7-0.5,5.4,0
		C131.4,204.4,130.6,206.9,132.1,207.2z"/>
	<path fill="#1E81ED" d="M130.4,90.1c3.4,2,1.9,11.4-2.3,9.1c-2.8-2.1-2.7-9.2,0.5-9.7C129.8,89.4,129.6,92.4,130.4,90.1z
		 M130.4,92.4c0,0.7-0.1,1.6,0.5,1.7C130.7,93.5,130.9,92.5,130.4,92.4z"/>
	<path fill="#1E81ED" d="M127.2,52.6c3.6-1.3,8.3,6,4.1,10.8c-1.6,0.2-2.9-0.1-4.1-0.6C126.4,59.1,125.7,56,127.2,52.6z"/>
	<path fill="#1E81ED" d="M129.9,296.9c0.9,2.3-1.1,4.8,1.8,4.6c-0.3,1.6-1.1,2.8-1.8,4C125.5,305.9,125.9,296.7,129.9,296.9z"/>
	<path fill="#1E81ED" d="M127.2,349.8c-0.4-2.7,0.8-3.5,2.3-4c0.6,2.8,3-0.2,2.7,3.4c-0.8,0.2-2-1.8-1.9,0.6
		C129.3,349.8,128.2,349.8,127.2,349.8z"/>
	<path fill="#1E81ED" d="M131.3,236.1c1.3,1,0.8,4.2,1.8,5.7c-0.6,0.6-1.7,0.6-1.8,1.7C127.3,243.6,127.5,236.4,131.3,236.1z"/>
	<path fill="#1E81ED" d="M131.7,209.4C132.3,209.4,132,210.3,131.7,209.4L131.7,209.4z"/>
	<path fill="#1E81ED" d="M132.6,349.8c-0.1,0-0.3,0-0.5,0c0-0.2,0-0.4,0-0.6C132.5,349.2,132.7,349.3,132.6,349.8z"/>
	<path fill="#1E81ED" d="M132.1,207.2C132.1,206.5,132.8,206.8,132.1,207.2L132.1,207.2z"/>
	<path fill="#1E81ED" d="M132.6,204.9C132.4,205.2,132.9,204.5,132.6,204.9L132.6,204.9z"/>
	<path fill="#1E81ED" d="M133.1,237.3C132.9,237.5,133.4,236.9,133.1,237.3L133.1,237.3z"/>
	<path fill="#1E81ED" d="M133.1,208.9C132.9,209.1,133.4,208.5,133.1,208.9L133.1,208.9z"/>
	<path fill="#1E81ED" d="M133.5,240.1c-0.5,0-0.3-0.7-0.5-1.2C133.5,239,133.4,239.7,133.5,240.1z"/>
	<path fill="#1E81ED" d="M153.1,97.5c0-0.9-0.4-1.5-0.9-1.7C152.2,96.8,152.5,97.3,153.1,97.5c0,0.4,0,0.7,0,1.2
		c-3.4,2.2-4.5-2.4-5-5.7c1.9-4.2,7.1-3,6.8,3.4C154,96.4,154.3,97.9,153.1,97.5z M154,95.8c-0.2-1.1-0.1-2.4-1.3-2.3
		C152.6,95,153.4,95.3,154,95.8z"/>
	<path fill="#1E81ED" d="M153.6,27.1c-0.6,0.1-0.4,1-0.5,1.7C153.6,28.7,153.5,27.7,153.6,27.1c3.4,3,2.3,12.4-2.7,10.2
		c-1.6-4.7-2.9-9.5-1.3-14.2C151.6,23.4,152.1,25.8,153.6,27.1z M154,30.5C154.3,30.1,153.8,30.7,154,30.5L154,30.5z"/>
</g>
<rect x="309.7" y="99.2" transform="matrix(-0.9123 -0.4095 0.4095 -0.9123 707.3964 481.1133)" fill="none" stroke="#FFFFFF" stroke-width="17" stroke-miterlimit="10" width="191" height="131.2"/>
<circle fill="none" stroke="#FF616E" stroke-width="4" stroke-miterlimit="10" cx="432.5" cy="225.7" r="67.4"/>
<circle fill="none" stroke="#1E81ED" stroke-width="4" stroke-miterlimit="10" cx="500.2" cy="226.4" r="67.4"/>
<path fill="#FFC171" d="M467.6,170.1c-19.8,11-33.2,32-33.2,56.2c0,23.3,12.5,43.7,31,54.9c19.8-11,33.2-32,33.2-56.2
	C498.6,201.8,486.2,181.4,467.6,170.1z"/>
</svg>
