<?xml version="1.0" encoding="utf-8"?>
<!-- Generator: Adobe Illustrator 18.0.0, SVG Export Plug-In . SVG Version: 6.00 Build 0)  -->
<!DOCTYPE svg PUBLIC "-//W3C//DTD SVG 1.1//EN" "http://www.w3.org/Graphics/SVG/1.1/DTD/svg11.dtd">
<svg version="1.1" id="Calque_1" xmlns="http://www.w3.org/2000/svg" xmlns:xlink="http://www.w3.org/1999/xlink" x="0px" y="0px"
	 viewBox="0 0 269.7 202.9" enable-background="new 0 0 269.7 202.9" xml:space="preserve">
<g>
	<path fill="#00549F" d="M23.3,159.4l-21.5,37c0,0,50.8-70.7,261.6-101l-14.6-7.6C248.8,87.8,111.1,92.9,23.3,159.4z"/>
	<g>
		<path fill="#00549F" stroke="#FFFFFF" stroke-width="0.25" d="M254.8,90.4l-27.5-52c0,0-4.3-36.7-58.4-34.5c0,0-34.6-2.1-41.8,3.5
			L104,10.2c0,0-18.7-2.1-48.3,22.6L22.6,59.5c0,0-23.8,15.5-13,60.6l13.7,54.3C23.3,174.5,116.4,96.7,254.8,90.4z"/>
	</g>
	<path fill="#067DBF" stroke="#000000" stroke-width="0.15" d="M266,95.4c0,0,4.5,0.8-0.5,3.6c0,0-152,4.9-260.1,100.1
		c0,0-8.1,2.4-0.9-6.1C4.4,193.1,93.8,101.8,266,95.4z"/>
</g>
<path fill="#FFFFFF" d="M86.5,37.8l5.6-10.4c0,0,0.7-1.7,2,0.8c1.3,2.5,0.4,1.1,0.4,1.1l17.5,23c0,0,1.7,2.9,2.9,3.5
	c1.2,0.6,1.2,0.6,1.2,0.6l-0.2-33.6c0,0-1-3.8,2.6-1.8l8.7,5.4c0,0-6.3,30.2-3.4,36.8l1.8,8.2l23.1,7.7c0,0-15-5.5-17.7-22.4
	c0,0-3-19.3,1-25.5l9.2,3.5c0,0-7.5,14.2,6.4,33.8c0,0,4.5,6.1,13.6,10.6l-2.1,10.5l-31.1-9.9c0,0,9.5,19.6,12.5,22.2l-15.3,5.4
	c0,0-1.2-21.1-6-28.3L97.6,66.6c0,0,13.5,18.5,5.8,37.9l-9.8-5.3c0,0,12.9-22.9-15.3-46.5l5.4-8.9c0,0,12.5,16.3,30,24.2
	C113.7,68.1,97.2,44.3,86.5,37.8z"/>
</svg>
