<?xml version="1.0" encoding="utf-8"?>
<!-- Generator: Adobe Illustrator 22.0.0, SVG Export Plug-In . SVG Version: 6.00 Build 0)  -->
<svg version="1.1" id="Layer_1" xmlns="http://www.w3.org/2000/svg" xmlns:xlink="http://www.w3.org/1999/xlink" x="0px" y="0px"
	 viewBox="0 0 347.6 417" style="enable-background:new 0 0 347.6 417;" xml:space="preserve">
<style type="text/css">
	.st0{fill:none;stroke:#D74998;stroke-width:3;stroke-miterlimit:10;}
	.st1{fill:#D74998;}
	.st2{fill:#D74998;stroke:#D74998;stroke-miterlimit:10;}
	.st3{fill:none;stroke:#D74998;stroke-miterlimit:10;}
	.st4{fill:#C4C4C4;}
	.st5{fill:#2D275E;}
	.st6{fill:#DFE3EC;}
</style>
<circle class="st0" cx="57.9" cy="93.3" r="20.3"/>
<circle class="st0" cx="283.1" cy="93.3" r="20.3"/>
<circle class="st0" cx="56.5" cy="171.3" r="20.3"/>
<circle class="st0" cx="57.9" cy="247.3" r="20.3"/>
<circle class="st0" cx="283.1" cy="247.3" r="20.3"/>
<circle class="st0" cx="171.1" cy="384.5" r="20.3"/>
<path class="st1" d="M172.1,73c-11.2,0-20.3,9-20.3,20s9.1,20,20.3,20c11.2,0,20.3-9,20.3-20S183.3,73,172.1,73z M173.8,99.8v-5.1
	h5.1c-0.1,1.9-0.4,3.7-0.8,5.5C176.7,99.9,175.3,99.8,173.8,99.8z M177.1,103.4c-0.8,2.2-2,4.2-3.3,5.8v-6
	C174.9,103.1,176,103.2,177.1,103.4z M173.8,91.3v-5c1.5-0.1,2.9-0.2,4.3-0.4c0.4,1.7,0.7,3.5,0.8,5.4H173.8z M173.8,83v-6.1
	c1.4,1.6,2.5,3.6,3.3,5.8C176,82.8,174.9,82.9,173.8,83z M178.4,77.5c2.1,0.8,4,2,5.6,3.6c-1.1,0.4-2.2,0.7-3.4,1
	C179.9,80.5,179.2,78.9,178.4,77.5z M166.1,100.1c-0.4-1.7-0.7-3.6-0.8-5.5h5.1v5.1C168.9,99.8,167.5,99.9,166.1,100.1z
	 M170.4,103.1v6c-1.3-1.6-2.5-3.5-3.3-5.8C168.2,103.2,169.3,103.1,170.4,103.1z M165.3,91.3c0.1-1.9,0.4-3.7,0.8-5.4
	c1.4,0.2,2.8,0.3,4.3,0.4v5H165.3z M167.1,82.7c0.8-2.2,2-4.2,3.3-5.8V83C169.3,82.9,168.2,82.8,167.1,82.7z M163.7,82.1
	c-1.2-0.3-2.3-0.6-3.4-1c1.6-1.5,3.5-2.8,5.6-3.6C165,78.9,164.3,80.5,163.7,82.1z M162.8,85.3c-0.4,1.9-0.7,3.9-0.8,6h-6.7
	c0.3-2.8,1.3-5.3,2.7-7.5C159.5,84.4,161.1,84.9,162.8,85.3z M162.8,100.8c-1.7,0.4-3.2,0.9-4.7,1.5c-1.5-2.2-2.5-4.8-2.8-7.6h6.7
	C162,96.8,162.3,98.8,162.8,100.8z M163.7,103.9c0.6,1.6,1.3,3.1,2.1,4.5c-2.1-0.8-3.9-2-5.5-3.5
	C161.4,104.6,162.5,104.2,163.7,103.9z M180.5,103.9c1.2,0.3,2.3,0.6,3.4,1c-1.6,1.5-3.4,2.7-5.5,3.5
	C179.2,107.1,179.9,105.6,180.5,103.9z M181.4,100.8c0.5-1.9,0.7-4,0.8-6.1h6.7c-0.3,2.8-1.3,5.4-2.8,7.6
	C184.7,101.7,183.1,101.1,181.4,100.8z M182.3,91.3c-0.1-2.1-0.4-4.1-0.8-6c1.7-0.4,3.3-0.9,4.8-1.5c1.5,2.2,2.5,4.8,2.7,7.5
	C188.9,91.3,182.3,91.3,182.3,91.3z"/>
<path class="st2" d="M60.3,98.2c1.6-0.6,2.8-1.9,3.4-3.5L67.5,84l-10.6,3.8c-1.6,0.6-2.9,1.8-3.5,3.4l-4.9,11.9L60.3,98.2z"/>
<path class="st1" d="M172.6,229.7c-11.2,0-20.3,9.1-20.3,20.3s9.1,20.3,20.3,20.3c11.2,0,20.3-9.1,20.3-20.3
	S183.8,229.7,172.6,229.7z M157.6,251.8c-0.4,0.2-0.9,0.1-1.2-0.3l-1.7-3c-0.2-0.4-0.1-0.9,0.3-1.2c0.4-0.2,0.9-0.1,1.2,0.3l1.7,2.9
	C158.2,251.1,158,251.6,157.6,251.8z M184.9,239.3c0.2,0.4,0.1,0.9-0.3,1.2l-2.9,1.8c-0.4,0.2-0.9,0.1-1.2-0.3
	c-0.3-0.4-0.1-0.9,0.3-1.2l2.9-1.8C184.1,238.7,184.6,238.9,184.9,239.3z M176.4,234.4c0.1-0.3,0.4-0.5,0.8-0.5h0l0.3,0.1l3.2,1.2
	c0.4,0.2,0.6,0.7,0.5,1.1c-0.2,0.4-0.7,0.7-1.1,0.5l-1.2-0.4l-0.8-0.3l-1.2-0.4C176.5,235.3,176.3,234.8,176.4,234.4z M171.4,238.2
	l3.4,0c0.5,0,0.8,0.4,0.8,0.8c0,0.5-0.4,0.8-0.8,0.8l-3.4,0c-0.5,0-0.8-0.4-0.8-0.8C170.5,238.5,170.9,238.2,171.4,238.2z
	 M165.7,234.6l3.2-1.2c0.4-0.2,0.9,0.1,1.1,0.5c0.2,0.4-0.1,0.9-0.5,1.1l-3.2,1.2c-0.4,0.2-0.9,0-1.1-0.5
	C165,235.2,165.2,234.8,165.7,234.6z M162.7,239c0.3-0.4,0.8-0.5,1.2-0.2l2.7,2c0.4,0.3,0.5,0.8,0.2,1.2c-0.3,0.4-0.8,0.5-1.2,0.2
	l-2.7-2C162.5,239.9,162.5,239.3,162.7,239z M163.5,249.2c0.4,0.3,0.5,0.8,0.2,1.2l-2,2.7c-0.3,0.4-0.8,0.5-1.2,0.2
	c-0.4-0.3-0.5-0.8-0.2-1.2l2-2.7C162.6,249,163.1,248.9,163.5,249.2z M159.2,240.7l0.2,0h0c0.4,0,0.7,0.3,0.8,0.7l0.3,1.2l0.2,0.9
	l0.3,1.2c0.1,0.5-0.2,0.9-0.6,1c-0.5,0.1-0.9-0.2-1-0.6l-0.7-3.3C158.4,241.3,158.7,240.8,159.2,240.7z M159.5,257.9
	c-0.5,0-0.8-0.4-0.8-0.8c0-0.5,0.4-0.8,0.8-0.8l3.4,0c0.5,0,0.8,0.4,0.8,0.8c0,0.5-0.4,0.8-0.8,0.8L159.5,257.9z M166.9,261.3
	l-2.4,2.4c-0.3,0.3-0.9,0.3-1.2,0c-0.3-0.3-0.3-0.9,0-1.2l2.4-2.4c0.3-0.3,0.9-0.3,1.2,0C167.3,260.4,167.3,260.9,166.9,261.3z
	 M172.7,266.5l-3.4,0.4c-0.5,0.1-0.9-0.3-0.9-0.7c-0.1-0.5,0.3-0.9,0.7-0.9l1.2-0.1l0.9-0.1l1.2-0.1l0.1,0h0c0.4,0,0.8,0.3,0.8,0.7
	C173.5,266,173.1,266.4,172.7,266.5z M176.7,261.7c-0.2,0.4-0.7,0.6-1.1,0.5l-3.1-1.2c-0.4-0.2-0.6-0.7-0.5-1.1
	c0.2-0.4,0.7-0.6,1.1-0.5l3.1,1.2C176.6,260.8,176.8,261.3,176.7,261.7z M172.6,256.8c-3.7,0-6.8-3-6.8-6.8s3-6.8,6.8-6.8
	c3.7,0,6.8,3,6.8,6.8S176.3,256.8,172.6,256.8z M179.5,256.3c0.2-0.3,0.4-0.4,0.7-0.4h0c0.2,0,0.3,0,0.4,0.1l1,0.7l0.8,0.5l1.1,0.7
	c0.4,0.2,0.5,0.8,0.3,1.2s-0.8,0.5-1.2,0.3l-2.9-1.8C179.3,257.2,179.2,256.7,179.5,256.3z M183.9,263.1l-2.7,2
	c-0.4,0.3-0.9,0.2-1.2-0.2c-0.3-0.4-0.2-0.9,0.2-1.2l2.7-2c0.4-0.3,0.9-0.2,1.2,0.2C184.4,262.3,184.3,262.9,183.9,263.1z
	 M183.9,250.7l-1.1,0.6c-0.4,0.2-0.9,0.1-1.2-0.3c-0.2-0.4-0.1-0.9,0.3-1.2l2.9-1.8c0.1-0.1,0.3-0.1,0.4-0.1h0
	c0.3,0,0.6,0.1,0.7,0.4c0.2,0.4,0.1,0.9-0.3,1.2l-1.1,0.6L183.9,250.7z M188.8,257.1c-0.4,0.3-0.9,0.2-1.2-0.2l-2-2.7
	c-0.3-0.4-0.2-0.9,0.2-1.2c0.4-0.3,0.9-0.2,1.2,0.2l2,2.7C189.3,256.3,189.2,256.9,188.8,257.1z M188.7,246.4l-1.2-0.5l-0.8-0.3
	l-1.2-0.5c-0.4-0.2-0.6-0.7-0.5-1.1c0.1-0.3,0.4-0.5,0.8-0.5h0l0.3,0.1l3.1,1.2c0.4,0.2,0.6,0.7,0.5,1.1
	C189.6,246.3,189.1,246.6,188.7,246.4z"/>
<path class="st3" d="M59.4,167.2c2.2,0,4,2,4,4.4c0,2.4-1.8,4.4-4,4.4c-2.2,0-4-2-4-4.4C55.4,169.1,57.2,167.2,59.4,167.2z"/>
<path class="st3" d="M70.4,163.5c1.2,2,1.1,4.3-0.1,4.9c-1.2,0.7-3.2-0.4-4.3-2.4c-1.2-2-1.1-4.3,0.1-4.9
	C67.3,160.4,69.2,161.5,70.4,163.5z"/>
<path class="st3" d="M55.8,157c2.3,0,4.2,1.3,4.2,3c0,1.6-1.9,3-4.2,3s-4.2-1.3-4.2-3C51.6,158.3,53.5,157,55.8,157z"/>
<path class="st1" d="M170.4,206c-21.8,0-41.3-18.2-51.8-36.3C129,152,148.5,137,170.4,137c22.1,0,41.6,14.9,51.7,32.6
	C212.5,188.7,193.1,206,170.4,206z M123.6,169.7c3.6,5.7,21.6,32,46.8,32c27.2,0,43.6-26.3,46.8-31.9c-3.3-5.2-19.9-28.4-46.8-28.4
	C144,141.3,127.1,164.4,123.6,169.7z M170.3,149.9c11.9,0,21.6,9.7,21.6,21.6s-9.7,21.6-21.6,21.6c-11.9,0-21.6-9.7-21.6-21.6
	S158.4,149.9,170.3,149.9z M170.3,154.2c9.5,0,17.2,7.7,17.2,17.2s-7.7,17.2-17.2,17.2s-17.2-7.7-17.2-17.2S160.8,154.2,170.3,154.2
	z"/>
<path class="st1" d="M283.5,103.1L283.5,103.1c-4.5,0-8.8-2.3-12.1-6.6l1.5-1.2c2.9,3.7,6.6,5.8,10.5,5.8h0c3.9,0,7.7-2.1,10.6-5.9
	l1.5,1.2C292.3,100.7,288,103.1,283.5,103.1z"/>
<circle class="st1" cx="276.7" cy="85.5" r="2"/>
<circle class="st1" cx="290.4" cy="85.5" r="2"/>
<path class="st1" d="M33.2,235h-0.9l0.7,6l-1.3,0l0-6h-1l0,6h-1l0-6h-1l0,6h-1.3l0.6-6l-0.9,0c0,0-0.6,5-0.9,7.6
	c-0.1,0.9,0.4,1.8,1.1,2.3c0.9,0.8,1.4,1,1.4,1.7v10.9c0,0.8,0.7,1.5,1.5,1.5c0.8,0,1.5-0.7,1.5-1.5v-10.9c0-0.7,0.4-0.9,1.4-1.7
	c0.7-0.6,1.2-1.5,1.1-2.4C33.8,240,33.2,235,33.2,235"/>
<path class="st2" d="M33,242c0.1,0.7,0.3,1.4-0.7,2.1c-1,0.8-1.8,1.2-1.8,2.5v10.9c0,0.3-0.2,0.5-0.5,0.5c-0.3,0-0.5-0.2-0.5-0.5
	v-10.9c0-1.2-0.8-1.7-1.8-2.5c-0.9-0.7-0.7-1.5-0.7-2.1C27.2,242,33,242,33,242z"/>
<path class="st2" d="M86.8,234c-1.6,0-3.9,7-4.7,14h2.5v8.5c0,0.9,0.8,1.5,1.5,1.5h0c0.8,0,1.5-0.7,1.5-1.5c0-5,0-20.3,0-21.6
	C87.6,234.4,87.2,234,86.8,234 M86.6,235.3l0,21.2c0,0.3-0.2,0.5-0.5,0.5c-0.2,0-0.5-0.1-0.5-0.5V247h-2.3
	C84.1,241.1,85.7,236.7,86.6,235.3"/>
<path class="st1" d="M270.2,392.3l-5,1.6c-1.4,0.4-2.1-1.7-0.7-2.1l5-1.6C271,389.7,271.6,391.8,270.2,392.3z M269.6,388.5l-7.7-2.2
	c-1.4-0.4-0.8-2.5,0.6-2.1l7.7,2.2C271.6,386.8,271,388.9,269.6,388.5z M299,393.9l-5-1.6c-1.4-0.4-0.7-2.5,0.7-2.1l5,1.6
	C301.1,392.2,300.4,394.3,299,393.9z M302.3,386.3l-7.7,2.2c-1.4,0.4-2-1.7-0.6-2.1l7.7-2.2C303.1,383.8,303.7,385.9,302.3,386.3z
	 M292,378.5c-1.2,0-2.2-1-2.2-2.2c0-1.2,1-2.2,2.2-2.2c1.2,0,2.2,1,2.2,2.2C294.2,377.5,293.3,378.5,292,378.5z M296.5,376.3
	c0-2.4-2-4.4-4.4-4.4c-2.4,0-4.4,2-4.4,4.4c0,2.4,2,4.4,4.4,4.4C294.5,380.7,296.5,378.7,296.5,376.3z M272.2,378.5
	c-1.2,0-2.2-1-2.2-2.2c0-1.2,1-2.2,2.2-2.2c1.2,0,2.2,1,2.2,2.2C274.4,377.5,273.4,378.5,272.2,378.5z M276.6,376.3
	c0-2.4-2-4.4-4.4-4.4c-2.4,0-4.4,2-4.4,4.4c0,2.4,2,4.4,4.4,4.4C274.6,380.7,276.6,378.7,276.6,376.3z M289.7,392.5
	c-1.2,2.7-5.5,4-7.6,1.2c-2.2,2.8-6.4,1.5-7.6-1.2c-0.6-1.3,1.4-2.2,2-0.9c0.7,1.6,4.5,2.9,4.5-1.8v-1.1c-1.4-0.5-2.3-1.8-2.3-2.9
	c0-1.4,1.5-2.1,3.4-2.1c1.9,0,3.4,0.6,3.4,2.1c0,1.1-1,2.4-2.3,2.9v1.1c0,4.7,3.8,3.4,4.5,1.8C288.3,390.3,290.3,391.2,289.7,392.5z
	 M282.1,402.8c-15.7,0-24.3-7.4-24.3-20.8c0-8.3,3.5-17.7,9.8-26.7c3.9,3.7,5.5,6,8.7,10.8c5.3-1.3,8.4-0.8,11.6,0
	c3.2-4.8,4.9-7.3,8.7-10.9c6.2,8.9,9.8,18.5,9.8,26.7C306.4,395.4,297.8,402.8,282.1,402.8z M297,352c-4.6,4-6.8,6.7-10,11.6
	c-2.8-0.7-7.2-0.6-9.6,0c-3.1-4.7-5.3-7.4-10-11.6c-6.8,8.9-11.6,19.7-11.6,30c0,12.7,7.5,23,26.5,23c19,0,26.5-10.3,26.5-23
	C308.6,371.8,303.7,361,297,352z"/>
<path class="st1" d="M56.6,367.3c9.7,0,17.6,7.7,17.6,17.2s-7.9,17.2-17.6,17.2S39,394,39,384.5S46.9,367.3,56.6,367.3z M56.6,363
	c-12.2,0-22,9.6-22,21.5s9.8,21.5,22,21.5s22-9.6,22-21.5S68.7,363,56.6,363z M56.6,375.9c4.9,0,8.8,3.9,8.8,8.6s-3.9,8.6-8.8,8.6
	s-8.8-3.9-8.8-8.6S51.7,375.9,56.6,375.9z M56.6,371.6c-7.3,0-13.2,5.8-13.2,12.9s5.9,12.9,13.2,12.9s13.2-5.8,13.2-12.9
	S63.9,371.6,56.6,371.6z M56.6,380.2c-2.4,0-4.4,1.9-4.4,4.3s2,4.3,4.4,4.3s4.4-1.9,4.4-4.3S59,380.2,56.6,380.2z"/>
<path class="st1" d="M178,335.9c-2.3,0.8-4.7,1.3-7.3,1.3c-11.6,0-21.1-9.4-21.1-21.1c0-11.6,9.4-21.1,21.1-21.1
	c11.6,0,21.1,9.4,21.1,21.1c0,0.9-0.1,1.8-0.2,2.6c0.5,0.5,0.8,1.3,0.8,2.1v0l0.2,0c1.7,0,3,1.3,3,3l0,11.2c0,3.7-2.3,5.9-6.1,5.9
	h-5.1c-4,0-5.3-2.7-5.9-4C178.5,337,178,335.9,178,335.9z M189.5,339.1c2.7,0,4.2-1.5,4.2-4l0-11.2c0-0.7-0.5-1.1-1-1.1
	c-0.5,0-1.1,0.4-1.1,1v4.9c0,0.3-0.3,0.5-0.5,0.5c-0.3,0-0.6-0.2-0.6-0.5v-7.9c0-0.8-0.6-1.1-1.1-1.1c-0.6,0-1.1,0.4-1.1,1.1v7.4
	c0,0.3-0.3,0.5-0.5,0.5c-0.3,0-0.5-0.2-0.5-0.5v-8.7c0-0.7-0.5-1.1-1.2-1.1c-0.6,0-1.1,0.4-1.1,1.1l0,8.8c0,0.4-0.3,0.5-0.5,0.5
	c-0.3,0-0.6-0.2-0.6-0.5v-7.4c0-0.7-0.5-1.1-1.1-1.1c-0.5,0-1.1,0.3-1.1,1.1v9.2c0,0.3-0.2,0.4-0.4,0.4c-0.2,0-0.3-0.1-0.4-0.2
	l-1.5-2.8c-0.3-0.6-0.8-0.8-1.4-0.8c-0.8,0-1.6,0.5-1.6,1.4c0,0.2,0.1,0.4,0.2,0.7c0.2,0.5,3,6,3.7,7.4c0.7,1.5,1.6,2.9,4.2,2.9
	C184.5,339.1,189.5,339.1,189.5,339.1z M189.8,317.8c0.1-0.6,0.1-1.1,0.1-1.7c0-10.6-8.6-19.2-19.2-19.2c-10.6,0-19.2,8.6-19.2,19.2
	c0,10.6,8.6,19.2,19.2,19.2c2.3,0,4.4-0.4,6.4-1.1l-0.1-0.2c-1.4-2.7-2-4.1-2.2-4.3c-0.2-0.5-0.3-1-0.3-1.5c0-1.8,1.6-3.3,3.5-3.3
	c0.7,0,1.3,0.2,1.8,0.5v-4.4c0-1.7,1.3-3,3-3l0.6,0.1c0.5-0.9,1.5-1.5,2.7-1.5c1.1,0,2.1,0.5,2.6,1.4c0.2-0.1,0.5-0.1,0.7-0.1
	C189.4,317.8,189.8,317.8,189.8,317.8z M165.8,329.3c-3.8-1.4-6.8-4.5-8.3-8.3l-1.8,0.2c1.6,4.6,5.2,8.3,9.8,9.8L165.8,329.3z
	 M166.2,325.6c-2.2-1-4-2.9-5.1-5.1l-1.8,0.2c1.2,3,3.7,5.4,6.7,6.7L166.2,325.6z M170.7,309.1c3.9,0,7,3.1,7,7c0,3.9-3.1,7-7,7
	c-3.9,0-7-3.1-7-7C163.7,312.2,166.8,309.1,170.7,309.1z M170.7,311c-2.8,0-5.1,2.3-5.1,5.1c0,2.8,2.3,5.1,5.1,5.1
	c2.8,0,5.1-2.3,5.1-5.1C175.8,313.3,173.5,311,170.7,311z M168.9,316.1c0,1,0.8,1.8,1.8,1.8s1.8-0.8,1.8-1.8c0-1-0.8-1.8-1.8-1.8
	S168.9,315.1,168.9,316.1z M182.1,311.4c-1.2-3-3.7-5.4-6.7-6.7l-0.2,1.8c2.2,1,4,2.9,5.1,5.1L182.1,311.4z M183.8,311.2
	c-1.4-3.8-4.4-6.8-8.2-8.2l0.2-1.8c4.6,1.6,8.2,5.2,9.8,9.8L183.8,311.2z"/>
<path class="st1" d="M286.1,190c0.7-4.6,0.9-9.1,0.7-13.5c4.5,0.8,6.5,5.1,7.7,7.3C292.5,186.6,289.5,188.9,286.1,190 M272.3,188.1
	c4-4.4,6.7-10.1,11.3-11.5c0.2,4.6-0.1,9.3-0.9,14.1C278.9,191,275.3,190.1,272.3,188.1 M265,176.5c5.5-2.9,11.7-4.6,18.1-5.2
	c0.1,0.7,0.2,1.4,0.3,2.1c-6.5,1.6-9.1,7.9-13.6,12.7C267.2,183.6,265.4,180.2,265,176.5 M269.1,163.6c3.9,0.3,8.4,2.6,13.2,2.9
	c0.1,0.5,0.2,1,0.3,1.5c-6.6,0.6-12.9,2.6-17.6,4.9C265.3,169.3,266.8,166.1,269.1,163.6 M283.3,158.4c2.1,0.3,4.1,1,5.9,2
	c-1.5,1.3-2.3,2.2-4.5,2.7C284.3,161.5,283.9,160,283.3,158.4 M279.8,158.3c0.6,1.6,1.1,3.2,1.6,4.9c-2.9-0.4-5.8-1.6-9.1-2.3
	C274.5,159.4,277,158.5,279.8,158.3 M296.1,168.3c-4.2-0.6-7.4-0.7-10.3-0.6l-0.3-1.4c3.4-0.7,4.4-2.5,6.5-3.8
	C293.8,164.1,295.2,166.1,296.1,168.3 M286.3,171c3.6-0.1,7.2,0.1,10.8,0.7c0.5,2.8,0.3,5.5-0.8,8.5c-2.1-3.6-5.5-6.9-9.7-7.2
	C286.5,172.4,286.4,171.7,286.3,171 M281.1,155c-10.8,0-19.5,8.7-19.5,19.5s8.7,19.5,19.5,19.5c10.8,0,19.5-8.7,19.5-19.5
	S291.9,155,281.1,155"/>
<path class="st1" d="M285.8,314v-10.8h-4.3v15.2h13V314C294.4,314,285.8,314,285.8,314z M259.3,304.7c-2.7-4.2-2.2-9.9,1.5-13.6
	c3.7-3.7,9.3-4.1,13.5-1.4C267.4,292.4,262,297.8,259.3,304.7z M299.3,328.9c3.7-3.9,6-9.1,6-14.9c0-12-9.7-21.7-21.7-21.7
	c-12,0-21.7,9.7-21.7,21.7c0,5.8,2.3,11.1,6,14.9l-3.8,9.8c-0.3,0.9,0.6,1.6,1.4,1.1l7.8-6.8c3.1,1.6,6.6,2.6,10.3,2.6
	c3.7,0,7.2-0.9,10.3-2.6l7.8,6.8c0.8,0.5,1.7-0.3,1.4-1.1L299.3,328.9z M283.6,331.3c-9.6,0-17.3-7.8-17.3-17.3
	c0-9.6,7.8-17.3,17.3-17.3s17.3,7.8,17.3,17.3S293.2,331.3,283.6,331.3z M306.5,291.2c-3.7-3.7-9.4-4.2-13.6-1.5
	c6.9,2.6,12.3,8.1,15,15C310.6,300.5,310.1,294.9,306.5,291.2z"/>
<path class="st1" d="M56.6,336.3c-10.1,0-18.3-8.2-18.3-18.3c0-10.1,8.2-18.3,18.3-18.3c0.8,0,1.6,0.1,2.4,0.2
	c-7.5,1.3-12.8,6.1-15.1,11.5c-4.5,10.5,2.5,19,10.3,19c5,0,9.4-3.4,12.1-7.7c2.4-4,5.2-4.7,6.8-4.1c1.1,0.4,1.7,1.5,1.6,2.6
	C73.2,329.7,65.7,336.3,56.6,336.3 M74.7,315.2c-4.4-2-8.9,1-11.6,5.5c-1.8,3-4.5,5.1-7.2,5.7c-6.2,1.4-12.3-5.1-8.6-13.7
	c2.5-5.8,9.4-11.5,20.9-9C71.6,306.6,74,310.6,74.7,315.2 M78.6,318c0-12.1-9.9-22-22-22s-22,9.9-22,22c0,12.1,9.9,22,22,22
	C68.8,340,78.6,330,78.6,318"/>
<path class="st4" d="M273.1,14.5v18c0,6.6-5.4,12-12,12h-177c-6.6,0-12-5.4-12-12v-18c0-6.6,5.4-12,12-12h177
	C267.7,2.5,273.1,7.9,273.1,14.5z"/>
<path class="st5" d="M120.6,19.5h2v8h-2V19.5z M122.6,17.5v-4h4v-2h-6v6H122.6z M126.6,33.5h-4v-4h-2v6h6V33.5z M128.6,11.5v2h8v-2
	H128.6z M138.6,13.5h4v4h2v-6h-6V13.5z M144.6,35.5v-16h-16v16H144.6z"/>
<path class="st5" d="M243.2,34l-7.1,1.4l1.5-7.1L243.2,34z M238.9,26.9l5.7,5.7l15.5-15.4l-5.7-5.7
	C254.5,11.5,238.9,26.9,238.9,26.9z"/>
<g>
	<path class="st6" d="M97.1,17v13c0,3-2.5,5.5-5.5,5.5h0c-3,0-5.5-2.5-5.5-5.5V17c0-3,2.5-5.5,5.5-5.5h0C94.6,11.5,97.1,14,97.1,17z
		"/>
	<path class="st5" d="M91.6,23.5l8.5,2.2l-2.5,1.6l3.2,2.8l-1.2,1.4l-3.2-2.8L95,31.5L91.6,23.5z"/>
</g>
<circle class="st5" cx="171.1" cy="23.5" r="14.5"/>
<rect x="195.1" y="15" transform="matrix(4.490992e-11 -1 1 4.490992e-11 186.0985 233.0981)" class="st5" width="29" height="17"/>
</svg>
