<?xml version="1.0" encoding="utf-8"?>
<!-- Generator: Adobe Illustrator 22.0.0, SVG Export Plug-In . SVG Version: 6.00 Build 0)  -->
<svg version="1.1" id="Layer_1" xmlns="http://www.w3.org/2000/svg" xmlns:xlink="http://www.w3.org/1999/xlink" x="0px" y="0px"
	 viewBox="0 0 46 46" style="enable-background:new 0 0 46 46;" xml:space="preserve">
<style type="text/css">
	.st0{fill-rule:evenodd;clip-rule:evenodd;fill:#9C489C;}
	.st1{fill-rule:evenodd;clip-rule:evenodd;fill:#F9DC86;}
	.st2{fill:#D74998;}
</style>
<title>skill_icon</title>
<path class="st0" d="M16.6,6.8c-1.1,1.1-4.3,0.5-4.6,2.3c-2.3-0.7-5.8-0.5-5-3.7C9.4,4.1,16.3,3.7,16.6,6.8z"/>
<path class="st1" d="M42,9.4c-1.2,0.6-3,0.7-3.7,1.7C32.3,8.9,41.2,4.5,42,9.4z"/>
<path class="st0" d="M39,22.7c1.9,0,4.1-0.1,5.4,0.3c-0.1,1.4,0.5,1.3,0,2.3C42.2,27.1,37.2,25.4,39,22.7z"/>
<path class="st0" d="M24.9,37.4c2.4,3.5-6.7,6.2-8.7,2.3C17,37.2,22,37.1,24.9,37.4z"/>
<g>
	<g>
		<path class="st2" d="M14.6,37.7c-0.2,0-0.4-0.1-0.5-0.2c-0.2-0.2-0.3-0.5-0.2-0.8c1.2-2.8,0.8-6-1-8.5c-0.5,0-1-0.1-1.4-0.2
			c-0.3-0.1-0.5-0.3-0.6-0.5c-0.1-0.4-0.2-0.9-0.2-1.4c-2.5-1.7-5.8-2.1-8.5-1c-0.3,0.1-0.6,0-0.8-0.2c-0.2-0.2-0.3-0.5-0.2-0.8
			C1.9,23,2.6,21.9,3.5,21c2.2-2.2,5.4-3.3,8.6-2.8c0.9-2.1,2.2-4,3.8-5.7c3.3-3.3,7.7-5.2,12.1-5.2c1,0,1.9,0.1,2.9,0.3
			c0.3,0.1,0.5,0.3,0.6,0.6c1,5.2-0.9,10.9-5,15c-1.6,1.6-3.5,2.9-5.7,3.8c0.5,3.2-0.6,6.4-2.8,8.6c-0.9,0.9-2,1.6-3.2,2.1
			C14.8,37.7,14.7,37.7,14.6,37.7L14.6,37.7z M12.3,26.8c0.3,0.1,0.7,0.1,1.1,0.1c0.2,0,0.4,0.1,0.5,0.3c1.9,2.4,2.5,5.6,1.9,8.5
			c0.5-0.3,0.9-0.7,1.3-1.1c2.1-2.1,2.9-5,2.3-7.9c-0.1-0.3,0.1-0.7,0.4-0.8c2.2-0.8,4.1-2.1,5.7-3.7c3.6-3.6,5.4-8.7,4.7-13.3
			c-4.6-0.7-9.6,1-13.3,4.7c-1.6,1.6-2.9,3.6-3.7,5.7c-0.1,0.3-0.5,0.5-0.8,0.4c-2.9-0.6-5.9,0.3-7.9,2.3c-0.4,0.4-0.7,0.8-1,1.3
			c2.9-0.6,6.1,0.1,8.5,1.9c0.2,0.1,0.3,0.3,0.3,0.5C12.2,26,12.3,26.4,12.3,26.8L12.3,26.8z"/>
	</g>
	<g>
		<path class="st2" d="M23.5,19.1c-0.9,0-1.8-0.4-2.5-1c-1.4-1.4-1.4-3.6,0-5c1.3-1.3,3.6-1.3,5,0c0.7,0.7,1,1.5,1,2.5
			c0,0.9-0.4,1.8-1,2.5C25.3,18.7,24.4,19.1,23.5,19.1L23.5,19.1z M23.5,13.5c-0.6,0-1.1,0.2-1.5,0.6c-0.8,0.8-0.8,2.2,0,3
			c0.8,0.8,2.2,0.8,3,0c0.4-0.4,0.6-0.9,0.6-1.5c0-0.6-0.2-1.1-0.6-1.5C24.6,13.7,24.1,13.5,23.5,13.5L23.5,13.5z"/>
	</g>
	<g>
		<path class="st2" d="M7.5,33.6c-0.5,0-0.9,0-1.4-0.1c-0.3,0-0.5-0.3-0.6-0.6c-0.5-2.9,0.6-5.9,2.8-8.2c0.3-0.3,0.7-0.3,1,0
			c0.3,0.3,0.3,0.7,0,1c-1.8,1.8-2.7,4.2-2.5,6.4c2.3,0.2,4.7-0.7,6.4-2.5c0.3-0.3,0.7-0.3,1,0c0.3,0.3,0.3,0.7,0,1
			C12.4,32.6,10,33.6,7.5,33.6L7.5,33.6z"/>
	</g>
</g>
</svg>
