<?xml version="1.0" encoding="utf-8"?>
<!-- Generator: Adobe Illustrator 22.0.0, SVG Export Plug-In . SVG Version: 6.00 Build 0)  -->
<svg version="1.1" id="Layer_1" xmlns="http://www.w3.org/2000/svg" xmlns:xlink="http://www.w3.org/1999/xlink" x="0px" y="0px"
	 viewBox="0 0 46 46" style="enable-background:new 0 0 46 46;" xml:space="preserve">
<style type="text/css">
	.st0{fill:#FFFFFF;}
	.st1{fill:#D6E9FF;}
	.st2{fill:none;stroke:#D74998;stroke-width:1.28;}
	.st3{fill:none;stroke:#FFC171;stroke-width:1.28;}
	.st4{fill:none;stroke:#FFC171;stroke-width:0.64;}
	.st5{fill:none;stroke:#F5D328;stroke-width:1.28;}
	.st6{fill:#C3FFBF;}
	.st7{fill:#00DEFF;}
	.st8{fill:#CBFFC8;}
</style>
<title>skill_icon</title>
<g id="Page-1">
	<g id="Artboard-1" transform="translate(-661.000000, -415.000000)">
		<g id="Profile-setup" transform="translate(330.000000, 341.000000)">
			<g id="Skills-requirements" transform="translate(307.000000, 50.000000)">
				<g id="skill_icon" transform="translate(24.800000, 24.800000)">
					<rect id="Rectangle" x="0" y="0" class="st0" width="44.8" height="44.8"/>
					<g id="path" transform="translate(8.000000, 0.800000)">
						<path id="Combined-Shape" class="st1" d="M6.2,0.6c0.4,0,0.9,0,1.3,0.1C4.9,1.4,3,3.6,3,6.4l0,0v26H0.4v-26
							c0-3.1,2.4-5.6,5.5-5.7L6.2,0.6z"/>
						<path id="Combined-Shape_1_" class="st1" d="M17.6,41.9c-3.2,0-5.7-2.6-5.7-5.7v-26c0,0,0.1-2.6,0-5.6C11.3,1.9,9,1,9,1
							s5.1,0.9,5.5,5.9c0,9.8-0.1,29.3-0.1,29.3c0,2.7,1.9,5,4.4,5.6C18.4,41.9,18,41.9,17.6,41.9z"/>
						<path id="Path-3" class="st2" d="M0.4,32.6c0,0,0-16.6,0-26.5C0.5-1.1,12-1,12,6c0,7.4-0.1,22.9-0.1,31.1
							c0.1,7,11.4,6.8,11.4,0c0-5.2,0-18.2,0-18.2"/>
					</g>
					<g id="lamp" transform="translate(21.765517, 0.800000)">
						<path id="Combined-Shape_2_" class="st3" d="M9.5,3.8c-1.6,0-3,0.6-4,1.7c-1,1-1.7,2.4-1.7,4c0,1,0.3,2,0.8,2.8
							C5.1,13.3,6,14,7,14.5v1.2c0,0.3,0.1,0.5,0.3,0.7c0.2,0.2,0.4,0.3,0.7,0.3h3.2c0.3,0,0.5-0.1,0.7-0.3c0.2-0.2,0.3-0.4,0.3-0.7
							v-1.2c1-0.5,1.9-1.3,2.4-2.2c0.5-0.8,0.8-1.8,0.8-2.8c0-1.6-0.6-3-1.7-4C12.5,4.4,11.1,3.8,9.5,3.8z"/>
						<polygon id="Path-4" class="st4" points="9.5,13 7.7,10.3 11.4,10.3 9.5,13 9.5,15.3 						"/>
						<line id="Path-5" class="st4" x1="16.6" y1="9.2" x2="19" y2="9.2"/>
						<line id="Path-5_1_" class="st4" x1="0.1" y1="9.2" x2="2.5" y2="9.2"/>
						<line id="Path-6" class="st4" x1="9.2" y1="0" x2="9.2" y2="2.5"/>
						<line id="Path-6_1_" class="st4" x1="17" y1="2.5" x2="15.2" y2="4.3"/>
						<line id="Path-6-Copy" class="st4" x1="1.9" y1="2.5" x2="3.7" y2="4.3"/>
						<line id="Path" class="st5" x1="7.9" y1="18.9" x2="11.2" y2="18.9"/>
					</g>
					<g id="dot" transform="translate(4.000000, 14.141176)">
						<ellipse id="Oval-2" class="st6" cx="30.8" cy="14.3" rx="1" ry="1"/>
						<ellipse id="Oval-2-Copy" class="st7" cx="30.8" cy="10.5" rx="1" ry="1"/>
						<ellipse id="Oval-2-Copy-2" class="st7" cx="30.8" cy="18.1" rx="1" ry="1"/>
						<ellipse id="Oval-2-Copy-4" class="st7" cx="1" cy="1" rx="1" ry="1"/>
						<ellipse id="Oval-2-Copy-3" class="st8" cx="1" cy="4.8" rx="1" ry="1"/>
					</g>
				</g>
			</g>
		</g>
	</g>
</g>
</svg>
