<?xml version="1.0" encoding="utf-8"?>
<!-- Generator: Adobe Illustrator 22.0.0, SVG Export Plug-In . SVG Version: 6.00 Build 0)  -->
<svg version="1.1" id="Layer_1" xmlns="http://www.w3.org/2000/svg" xmlns:xlink="http://www.w3.org/1999/xlink" x="0px" y="0px"
	 viewBox="0 0 46 47" style="enable-background:new 0 0 46 47;" xml:space="preserve">
<style type="text/css">
	.st0{fill:#FFFFFF;}
	.st1{fill:none;stroke:#00D9FF;stroke-width:1.28;}
	.st2{fill:#D0E5FF;}
	.st3{fill:none;stroke:#D74998;stroke-width:1.28;}
	.st4{fill:#9C489C;}
	.st5{fill:#DBDBDB;}
	.st6{fill:#DBDBDB;stroke:#FFC171;stroke-width:1.28;}
	.st7{fill:#D0E5FF;stroke:#D74998;stroke-width:1.28;}
</style>
<title>process_builder_icon</title>
<g id="Page-1">
	<g id="Artboard-1" transform="translate(-357.000000, -415.000000)">
		<g id="Profile-setup" transform="translate(330.000000, 341.000000)">
			<g id="Process-builder" transform="translate(3.000000, 50.000000)">
				<g id="process_builder_icon" transform="translate(24.800000, 24.800000)">
					<rect id="Rectangle" x="0" y="0" class="st0" width="44.8" height="44.8"/>
					<g id="Group-3" transform="translate(0.640000, 1.280000)">
						<line id="Path-9" class="st1" x1="7.7" y1="0.6" x2="7.7" y2="10.5"/>
						<line id="Path-10" class="st1" x1="13.4" y1="4.5" x2="13.4" y2="9.6"/>
						<line id="Path-11" class="st1" x1="17.3" y1="0" x2="17.3" y2="10.6"/>
						<path id="Combined-Shape" class="st2" d="M8.9,8.8c-0.8,5.3,2.6,14.4,2.6,14.4l0,0l11.9,8.2l-2.8,2.4l-11.6-8
							c0,0-4.9-13.2-1.2-16.5C8.2,9.2,8.4,9,8.7,8.9L8.9,8.8z"/>
						<path id="Rectangle-6" class="st3" d="M8.3,9.9c-1.1,1-1.3,3-1.1,5.2c0.3,4.3,2.1,9.4,2.4,10.4l11,7.6l8.9-7.8l-6-12
							C22.1,12.5,11.7,7,8.3,9.9z"/>
						<circle id="Oval-Copy" class="st4" cx="31" cy="16.3" r="1"/>
						<circle id="Oval-Copy-4" class="st4" cx="6.1" cy="28.5" r="1"/>
						<circle id="Oval-Copy-2" class="st4" cx="34.9" cy="16.3" r="1"/>
						<circle id="Oval-Copy-3" class="st4" cx="31" cy="20.2" r="1"/>
						<circle id="Oval-Copy-8" class="st5" cx="31" cy="12.5" r="1"/>
						<circle id="Oval-Copy-5" class="st4" cx="34.9" cy="20.2" r="1"/>
						<circle id="Oval-Copy-9" class="st5" cx="34.9" cy="12.5" r="1"/>
						<polyline id="Path-7" class="st6" points="21.8,25.5 23.4,27.3 32.7,31.1 						"/>
						<path id="Rectangle-7" class="st7" d="M32.8,31.1c-0.4,0.4-0.6,0.8-0.6,1.3c0,0.5,0.1,1,0.5,1.4l5.9,6.8
							c0.4,0.4,0.9,0.6,1.4,0.7c0.5,0,1-0.1,1.5-0.6c0.4-0.4,0.6-0.8,0.6-1.3c0-0.5-0.1-1-0.5-1.4l-5.9-6.8
							c-0.4-0.4-0.9-0.6-1.4-0.7C33.8,30.6,33.3,30.7,32.8,31.1z"/>
					</g>
				</g>
			</g>
		</g>
	</g>
</g>
</svg>
