<?xml version="1.0" encoding="utf-8"?>
<!-- Generator: Adobe Illustrator 22.0.0, SVG Export Plug-In . SVG Version: 6.00 Build 0)  -->
<svg version="1.1" id="Calque_1" xmlns="http://www.w3.org/2000/svg" xmlns:xlink="http://www.w3.org/1999/xlink" x="0px" y="0px"
	 viewBox="0 0 1000 1000" enable-background="new 0 0 1000 1000" xml:space="preserve">
<g>
	<g>
		<g>
			<g id="XMLID_4_">
				<g>
					<path fill="#2D275E" d="M998.6,92.6v359.5c0,36.4-29.6,66.1-66.1,66.1h-56.6v131.5c0,8.6-5.7,17.3-14.2,21.5
						c-2.8,1.4-7.1,2.9-10.2,2.9c-5.2,0-11.1-3.4-14.2-5.5l-0.2-0.2L672.2,537.6v-9l169.2,134.1c4,2.6,7.9,4.2,10.2,4.2
						c1.6,0,4.7-0.9,7-2.1c6.2-3.1,10.3-9.2,10.3-15.3V511.2h63.6c32.6,0,59.1-26.5,59.1-59.1V92.6c0-32.6-26.5-59.1-59.1-59.1
						H395.1C362.5,33.5,336,60,336,92.6v233.3h-7V92.6c0-36.4,29.6-66.1,66.1-66.1h537.4C968.9,26.5,998.6,56.1,998.6,92.6z"/>
					<path fill="#2D275E" d="M991.6,92.6v359.5c0,32.6-26.5,59.1-59.1,59.1h-63.6v138.3c0,6.1-4.1,12.2-10.3,15.3
						c-2.3,1.2-5.4,2.1-7,2.1c-2.3,0-6.2-1.6-10.2-4.2L672.2,528.6V392c0-36.5-29.7-66.1-66.1-66.1H336V92.6
						c0-32.6,26.5-59.1,59.1-59.1h537.4C965.1,33.5,991.6,60,991.6,92.6z"/>
					<path fill="#2D275E" d="M672.2,537.6v215.1c0,36.4-29.6,66.1-66.1,66.1h-254l-189,148.9c-5.4,5.2-12,5.7-14.6,5.7
						c-3.1,0-7.3-1.4-10.2-2.8c-8.5-4.2-14.2-12.9-14.2-21.5V817.6H68.7c-36.4,0-66.1-29.6-66.1-66.1V392
						c0-36.4,29.6-66.1,66.1-66.1H329v3.5h7v-3.5h270.1c36.4,0,66.1,29.6,66.1,66.1v136.6l-1-0.8v-5.6c-2.9,0-5,1.4-6.1,3.3V392
						c0-32.6-26.5-59.1-59.1-59.1H68.7c-32.6,0-59.1,26.5-59.1,59.1v359.5c0,32.6,26.5,59.1,59.1,59.1h62.4v138.5
						c0,6,4.2,12.2,10.3,15.3c2.3,1.2,5.4,2.1,7,2.1c1.4,0,6.2-0.3,9.8-3.9l0.3-0.3l191.1-150.4H606c32.6,0,59.1-26.5,59.1-59.1V532
						L672.2,537.6z"/>
					<path fill="#2D275E" d="M672.2,528.6v9l-7.1-5.6v-6.5c1.2-1.9,3.2-3.3,6.1-3.3v5.6L672.2,528.6z"/>
					<path fill="#2D275E" d="M665.1,532v220.8c0,32.6-26.5,59.1-59.1,59.1H349.6L158.5,962.3l-0.3,0.3c-3.6,3.6-8.4,3.9-9.8,3.9
						c-1.6,0-4.7-0.9-7-2.1c-6.1-3.1-10.3-9.3-10.3-15.3V810.6H68.7c-32.6,0-59.1-26.5-59.1-59.1V392c0-32.6,26.5-59.1,59.1-59.1
						H606c32.6,0,59.1,26.5,59.1,59.1v133.5c-0.7,1.2-1.1,2.6-1.1,3.9v1.7L665.1,532z"/>
					<path fill="#2D275E" d="M665.1,525.5v6.5l-1.1-0.9v-1.7C664,528,664.4,526.7,665.1,525.5z"/>
					<rect x="329" y="325.9" fill="#2D275E" width="7" height="3.5"/>
				</g>
			</g>
		</g>
	</g>
</g>
<g>
	<g id="XMLID_1_">
		<g>
			<path fill="#FFFFFF" d="M672,327c-0.7-0.1-1.3-0.2-2-0.3c-7.8-1-15.6-1.8-23.4-2.4c-17.3-1.3-34.7-1.7-52-1.7c-2.9,0-5.9,0-8.8,0
				c-3,0-6,0.1-9.1,0.1c-1.1,0-2.2,0-3.2,0c-4.7,0.1-9.4,0.1-14.1,0.2c-3.3,0.1-6.6,0.1-9.8,0.1c-3,0.1-6,0.1-9,0.1
				c-0.8,0-1.6,0-2.4,0c-4.1-13.5-6.3-27.8-6.3-42.4c0-38.4,14.6-74.4,41.6-101.2s62.8-41.6,101.2-41.6c37.4,0,72.7,14.8,99.5,41.6
				c26.9,26.9,42.2,63,43.3,101.2c0,38.4-14.6,74.2-41.6,101.2c-26.9,26.8-62.8,41.6-101.2,41.6c-1.2,0-2.5,0-3.7-0.1
				c0.1-1,0.1-1.9,0.1-2.9c0.1-0.8,0.1-1.6,0.1-2.5c0.1-1,0.1-2,0.1-3c0.1-1.1,0.1-2.2,0.1-3.3c0-0.9,0.1-1.8,0.1-2.7
				c0-1.1,0.1-2.1,0.1-3.2c0-1.2,0.1-2.4,0.1-3.6c0.3-25.2-1.3-50.4-1.5-75.8C670.7,326.8,671.3,326.9,672,327z"/>
			<path fill="#FFFFFF" d="M671.1,418.2c0.1-1,0.1-2,0.1-3C671.2,416.2,671.2,417.2,671.1,418.2z"/>
			<path fill="#FFFFFF" d="M573.5,322.9c-4.7,0.1-9.4,0.1-14.1,0.2C564.1,323,568.8,322.9,573.5,322.9z"/>
			<path fill="#FFFFFF" d="M671,420.7c0,1-0.1,1.9-0.1,2.9c1.2,0,2.5,0.1,3.7,0.1c38.4,0,74.2-14.8,101.2-41.6
				c26.9-26.9,41.6-62.8,41.6-101.2c-1-38.2-16.3-74.2-43.3-101.2c-26.8-26.8-62.1-41.6-99.5-41.6c-38.4,0-74.2,14.8-101.2,41.6
				s-41.6,62.8-41.6,101.2c0,14.6,2.2,28.9,6.3,42.4c-6.2,0.1-12.5,0.1-18.7,0.1c-3.8-13.8-5.8-28.1-5.8-42.7
				c0-42.6,16.8-82.8,47.5-113.4s70.9-47.5,113.4-47.5c42.6,0,82.8,16.8,113.4,47.5c30.6,30.6,47.5,70.9,47.5,113.4
				s-16.8,82.8-47.5,113.4c-30.6,30.6-70.9,47.5-113.4,47.5c-1.8,0-3.5,0-5.2-0.1C670.1,434.6,670.6,427.6,671,420.7z"/>
			<path fill="#FFFFFF" d="M671.4,409.3c0,0.9,0,1.8-0.1,2.7C671.4,411.1,671.4,410.2,671.4,409.3z"/>
			<path fill="#FFFFFF" d="M671.5,406.1c0-1.2,0.1-2.4,0.1-3.6C671.5,403.7,671.5,404.9,671.5,406.1z"/>
			<path fill="#FFFFFF" d="M672,327c-0.7-0.1-1.3-0.2-2-0.2l0,0C670.7,326.8,671.3,326.9,672,327z"/>
			<path fill="#FFFFFF" d="M670,326.8c-7.8-1-15.6-1.8-23.4-2.4C654.4,325,662.2,325.7,670,326.8L670,326.8z"/>
			<path fill="#FFFFFF" d="M594.5,322.7c-2.9,0-5.9,0-8.8,0C588.7,322.7,591.6,322.7,594.5,322.7z"/>
			<path fill="#FFFFFF" d="M585.8,322.7c-3,0-6,0.1-9.1,0.1C579.7,322.8,582.7,322.8,585.8,322.7z"/>
			<path fill="#FFFFFF" d="M549.6,323.2c-3,0.1-6,0.1-9,0.1C543.6,323.3,546.6,323.2,549.6,323.2z"/>
			<path fill="#FFFFFF" d="M538.1,323.3L538.1,323.3c0.8,0,1.6,0,2.4,0C539.7,323.3,538.9,323.3,538.1,323.3z"/>
		</g>
	</g>
</g>
<g>
	<g id="XMLID_2_">
		<g>
			<path fill="#FFFFFF" d="M429.6,482.8c0,22.8-8.7,44.1-24.7,60.1c-16,15.9-37.3,24.7-60.1,24.7c-22.8,0-44.1-8.7-60.1-24.7
				c-15.9-16-24.7-37.3-24.7-60.1c0-22.8,8.7-44.2,24.7-60.1S322,398,344.8,398c22.2,0,43.2,8.8,59.1,24.7
				C419.9,438.7,429,460.1,429.6,482.8z"/>
			<path fill="#FFFFFF" d="M412.2,415.3c18.2,18.2,28.2,42.1,28.2,67.4s-10,49.2-28.2,67.4s-42.1,28.2-67.4,28.2s-49.2-10-67.4-28.2
				c-18.2-18.2-28.2-42.1-28.2-67.4s10-49.2,28.2-67.4c18.2-18.2,42.1-28.2,67.4-28.2C370.1,387.1,394,397.1,412.2,415.3z
				 M404.9,542.9c16-16,24.7-37.3,24.7-60.1c-0.6-22.7-9.7-44.1-25.7-60.1C388,406.8,367,398,344.8,398c-22.8,0-44.1,8.8-60.1,24.7
				c-16,15.9-24.7,37.3-24.7,60.1c0,22.8,8.8,44.1,24.7,60.1c16,16,37.3,24.7,60.1,24.7C367.6,567.6,388.9,558.8,404.9,542.9z"/>
		</g>
	</g>
</g>
<g>
	<g>
		<linearGradient id="SVGID_1_" gradientUnits="userSpaceOnUse" x1="632.3094" y1="430.8253" x2="632.8406" y2="431.2747">
			<stop  offset="0" style="stop-color:#FFC171"/>
			<stop  offset="1" style="stop-color:#FF616E"/>
		</linearGradient>
		<path fill="url(#SVGID_1_)" d="M632.5,430.6C632.7,431.8,632.7,431.8,632.5,430.6C632.7,431.8,632.7,431.8,632.5,430.6z"/>
	</g>
	<g>
		<linearGradient id="SVGID_2_" gradientUnits="userSpaceOnUse" x1="542.3503" y1="200.8537" x2="655.6886" y2="296.7267">
			<stop  offset="0" style="stop-color:#FFC171"/>
			<stop  offset="1" style="stop-color:#FF616E"/>
		</linearGradient>
		<path fill="url(#SVGID_2_)" d="M614.1,188.7c-18.1-14.1-42.4-10.7-60.4,1.6c-17.9,13.5-24.5,28.8-18.3,46.7
			c6,16.8,23.4,35.4,43,60.4c4.3,5.1,8.2,10.7,11.9,16.2c4.1,6.1,11.2,9.5,18.5,9c3.8-0.2,7.8,0.2,12,0.7
			c11.7,1.5,22.4-7.1,23.3-18.9c0.9-11.2,1.2-22.9,1.1-34.9C644.7,230.9,633.2,201.6,614.1,188.7z"/>
	</g>
</g>
<g>
	<path fill="#ED9E6E" d="M559.5,416.6L559.5,416.6L559.5,416.6L559.5,416.6"/>
</g>
<g>
	<path fill="#ED9E6E" d="M857.7,342.9L857.7,342.9v-1.2C857.7,341.7,857.7,341.7,857.7,342.9"/>
</g>
<g>
	<path fill="#2D275E" d="M742.3,230.1c-12.3,3.7-20.9,16-17.2,28.2c3.7,12.3,16,20.9,28.2,17.2c12.3-3.7,20.9-16,17.2-28.2
		C768.1,235,754.6,227.6,742.3,230.1"/>
</g>
<g>
	<path fill="#2D275E" d="M712.9,363.8c-28.2,13.5-46.6,4.9-50.3-2.5c-1.2-2.5,0-4.9,2.5-6.1l69.9-35.6c2.5-1.2,4.9,0,6.1,2.5
		C744.8,329.4,741.1,350.3,712.9,363.8z"/>
</g>
<g>
	<linearGradient id="SVGID_3_" gradientUnits="userSpaceOnUse" x1="670.5694" y1="119.1501" x2="792.9947" y2="222.7098">
		<stop  offset="0" style="stop-color:#FFC171"/>
		<stop  offset="1" style="stop-color:#FF616E"/>
	</linearGradient>
	<path fill="url(#SVGID_3_)" d="M797,214.7c-14.4-23.3-34.8-42.8-59.1-56.1c-24.9-13.7-52.1-20-78.8-18.3l-0.5-7
		c27.9-1.8,56.5,4.8,82.6,19.1c25.4,14,46.7,34.2,61.7,58.6L797,214.7z"/>
</g>
<g>
	<path fill="#2D275E" d="M637.4,284.8c-3.7-12.3-16-20.9-28.2-17.2c-12.3,3.7-20.9,16-17.2,28.2c3.7,12.3,16,20.9,28.2,17.2
		C632.5,310.5,641.1,297,637.4,284.8"/>
</g>
<g>
	<g id="XMLID_3_">
		<g>
			<path fill="#FFFFFF" d="M435.6,612.1c31.5,11.8,49,45.3,47.7,71l-6.1,81.8c0.6,3-0.1,5.9-1.9,8.2c-2.1,2.5-5.4,4-9,4H213.5
				c-6.8,0-12-5.1-12.1-11.9l-6.1-82.2c-1.3-29.1,20.1-60.9,47.7-70.9c30.9-11.1,63.3-16.8,96.3-16.8S404.7,600.9,435.6,612.1z
				 M479.8,682.8c1.2-24.6-16-56.5-45.4-67.5c-61.4-22.1-128.9-22.1-190.2,0c-27,9.8-46.6,40.5-45.4,67.5l6.1,82.2
				c0,4.9,3.7,8.6,8.6,8.6h252.8c4.9,0,8.5-3.7,7.4-8.6L479.8,682.8z"/>
			<path fill="#FFFFFF" d="M434.4,615.3c29.4,11,46.6,42.9,45.4,67.5l-6.1,82.2c1.1,4.9-2.5,8.6-7.4,8.6H213.5
				c-4.9,0-8.6-3.7-8.6-8.6l-6.1-82.2c-1.2-27,18.4-57.7,45.4-67.5C305.5,593.2,373,593.2,434.4,615.3z M476.4,682.5
				c1.1-22.5-15-53.4-43.1-63.9c-30.1-10.8-61.7-16.3-93.9-16.3s-63.8,5.5-93.9,16.4c-25.1,9-44.4,37.7-43.2,63.9l6.1,82.4
				c0,3,2.1,5.1,5.1,5.1h252.8c1.5,0,2.8-0.5,3.5-1.5c0.6-0.7,0.7-1.7,0.5-2.8l-0.1-0.5L476.4,682.5z"/>
			<path fill="#FFFFFF" d="M433.3,618.6c28.1,10.5,44.2,41.4,43.1,63.9l-6.2,82.8l0.1,0.5c0.2,1.1,0.1,2.1-0.5,2.8
				c-0.7,1-2,1.5-3.5,1.5H213.5c-3,0-5.1-2.1-5.1-5.1l-6.1-82.4c-1.2-26.2,18.1-54.9,43.2-63.9c30.1-10.9,61.7-16.4,93.9-16.4
				S403.2,607.8,433.3,618.6z"/>
		</g>
	</g>
</g>
<g>
	<linearGradient id="SVGID_4_" gradientUnits="userSpaceOnUse" x1="351.154" y1="408.8989" x2="411.4059" y2="459.8659">
		<stop  offset="0" style="stop-color:#FFC171"/>
		<stop  offset="1" style="stop-color:#FF616E"/>
	</linearGradient>
	<path fill="url(#SVGID_4_)" d="M405.3,462c-9.6-24-32-40.9-57.2-43.2l0.6-7c27.8,2.5,52.5,21.2,63.1,47.6L405.3,462z"/>
</g>
</svg>
