<?xml version="1.0" encoding="utf-8"?>
<!-- Generator: Adobe Illustrator 18.0.0, SVG Export Plug-In . SVG Version: 6.00 Build 0)  -->
<!DOCTYPE svg PUBLIC "-//W3C//DTD SVG 1.1//EN" "http://www.w3.org/Graphics/SVG/1.1/DTD/svg11.dtd">
<svg version="1.1" id="Calque_1" xmlns="http://www.w3.org/2000/svg" xmlns:xlink="http://www.w3.org/1999/xlink" x="0px" y="0px"
	 viewBox="0 0 260 260" enable-background="new 0 0 260 260" xml:space="preserve">
<polygon fill="#FFFFFF" stroke="#D7DBDD" stroke-width="29" stroke-miterlimit="10" points="28.8,93.2 217,47.2 139.1,224.5 "/>
<g>
	<path fill="#28E2FC" d="M188.6,140c0,0.5,0.1,1.1,0.1,1.6c0,29.6-24,54.3-53.1,54.3S82.5,171,82.5,141.6c0-1,0.1-1.9,0.1-2.8
		c-2.6,1.2-5.7,1-7.9-0.3c0,1.1-0.1,2.1-0.1,3.1c0,33.7,28.1,61.4,61,61.4s61-27.8,61-61.4c0-0.8-0.1-1.7-0.1-2.5
		C194.1,141.1,191.1,141.7,188.6,140z"/>
</g>
<path fill="#002DFC" d="M75.2,125.2c0.1,0,0.2-0.1,0.3-0.1c1.6,0.3,1.6,0.3,2.2-1.2c0.9-1.9,0.9-1.9-0.6-3.5
	c-0.1-0.2-0.4-0.3-0.2-0.6c0.6,0,0.9,0.6,1.3,1c0.5,0.6,0.9,0.8,1.2-0.2c0.2-0.6,0.6-1.2,0.9-1.9c0.1-0.2,0.2-0.6,0.5-0.5
	c0.4,0.2,0.1,0.5,0,0.7c-0.3,0.8-0.7,1.6-1.1,2.3c-0.4,0.7,0.1,1.1,0.6,1.5c0.6,0.4,0.8-0.1,1-0.4c1.5-1.5,2.9-3.1,4.4-4.6
	c0.1-0.1,0.2-0.2,0.3-0.3c0.3-0.1,0.5-0.6,0.8-0.3c0.3,0.4-0.2,0.5-0.4,0.7c-1.7,1.7-3.4,3.4-5,5.2c-0.6,0.6-0.9,0.6-1.4,0.1
	c-0.6-0.7-1-0.5-1.3,0.3c-0.2,0.6-0.6,1.2-0.9,1.8c-0.2,0.5-0.2,0.7,0.3,0.9c0.8,0.3,1.6,0.6,2.3,0.9c0.2,0.1,0.5,0.1,0.4,0.5
	c-0.1,0.3-0.4,0.1-0.6,0.1c-0.7-0.3-1.5-0.6-2.2-0.9c-0.6-0.2-0.9-0.2-1.1,0.5c0,0.1-0.1,0.3-0.2,0.5c-0.1,0.2-0.2,0.4-0.5,0.3
	c-0.3-0.1-0.1-0.3-0.1-0.5c0-0.1,0-0.2,0.1-0.3c0.5-0.7,0.2-1.1-0.6-1.2C75.6,125.7,75.4,125.6,75.2,125.2z"/>
<g>
	<g>
		<path fill="#002DFC" d="M130,205c-33.5,0-62-27.8-62-61.4C68,109.7,96.3,82,130,82s62,27.8,62,61.6C192,177.2,163.5,205,130,205z
			 M130,89.3c-29.8,0-53.9,24.7-53.9,54.3c0,29.4,24.4,54.3,53.9,54.3s53.9-24.7,53.9-54.3S159.8,89.3,130,89.3z"/>
	</g>
</g>
<g>
	<path fill="#28E2FC" d="M135.7,203c-33,0-61-27.8-61-61.4c0-33.8,27.9-61.6,61-61.6s61,27.8,61,61.6
		C196.7,175.3,168.6,203,135.7,203z M135.7,87.3c-29.3,0-53.1,24.7-53.1,54.3c0,29.4,24,54.3,53.1,54.3s53.1-24.7,53.1-54.3
		C188.7,112,164.9,87.3,135.7,87.3z"/>
</g>
<g>
	<g>
		<path fill="#CDFFCC" d="M143.2,203c-33,0-61-27.8-61-61.4c0-33.8,27.9-61.6,61-61.6s61,27.8,61,61.6
			C204.2,175.3,176.2,203,143.2,203z M143.2,87.3c-29.3,0-53.1,24.7-53.1,54.3c0,29.4,24,54.3,53.1,54.3s53.1-24.7,53.1-54.3
			C196.3,112,172.4,87.3,143.2,87.3z"/>
	</g>
</g>
</svg>
