<?xml version="1.0" encoding="utf-8"?>
<!-- Generator: Adobe Illustrator 18.0.0, SVG Export Plug-In . SVG Version: 6.00 Build 0)  -->
<!DOCTYPE svg PUBLIC "-//W3C//DTD SVG 1.1//EN" "http://www.w3.org/Graphics/SVG/1.1/DTD/svg11.dtd">
<svg version="1.1" id="Calque_1" xmlns="http://www.w3.org/2000/svg" xmlns:xlink="http://www.w3.org/1999/xlink" x="0px" y="0px"
	 viewBox="188.4 347.1 621 304" enable-background="new 188.4 347.1 621 304" xml:space="preserve">
<path fill="none" stroke="#FFFFFF" stroke-width="19" stroke-miterlimit="10" d="M701.2,520.9L701.2,520.9
	c-12.5,7.7-29,3.7-36.7-8.8l0,0c-7.7-12.5-3.7-29,8.8-36.7l0,0c12.5-7.7,29-3.7,36.7,8.8l0,0C717.7,496.7,713.7,513.2,701.2,520.9z"
	/>
<circle fill="none" stroke="#FFFFFF" stroke-width="19" stroke-miterlimit="10" cx="668.7" cy="414.1" r="29.8"/>
<polygon fill="none" stroke="#FFFFFF" stroke-width="19" stroke-miterlimit="10" points="738.9,432.7 738.8,366.3 791.5,406.6 "/>
<path fill="none" stroke="#FFFFFF" stroke-width="19" stroke-miterlimit="10" d="M794.5,468.3c6.6,10.4-4.4,44.6-14.8,51.3
	c-10.4,6.6-24.6-2.3-31.2-12.7c-6.6-10.4-0.4-25.6,11.2-33C770,467.2,787.8,457.9,794.5,468.3z"/>
<g>
	<path fill="#FFFFFF" stroke="#FFFFFF" stroke-width="7" stroke-miterlimit="10" d="M324.3,591.7v54.2H316v-52.1
		c0-17.5-8.3-29.2-23.2-29.2c-17.5,0-28.9,17-30.4,35.8v45.5H254v-52.1c0-17.5-8.5-29.2-23.4-29.2c-17.3,0-28.9,17-30.4,35.8v45.5
		h-8.3v-87.5h7.8l0.5,19.4c6.7-11.2,17.6-21.1,32.7-21.1c14.9,0,24.7,9.2,28,23.2c6.6-12.1,17.8-23.2,34.1-23.2
		C313.7,556.6,324.3,571,324.3,591.7z"/>
	<path fill="#FFFFFF" stroke="#FFFFFF" stroke-width="7" stroke-miterlimit="10" d="M430.5,604.7h-79.2C352,626,367.2,640,388.1,640
		c17.5,0,27.9-10,31.8-19.4l7.4,1.2c-4,12.1-17.6,25.8-39.4,25.8c-25.6,0-45-18.7-45-46c0-24.6,18.2-45,43.8-45
		c26.8,0,43.8,21.8,43.8,46.2V604.7z M351.3,598.3H422c-1-18-14.4-34.1-35.3-34.1C366.7,564.2,352,579.4,351.3,598.3z"/>
	<path fill="#FFFFFF" stroke="#FFFFFF" stroke-width="7" stroke-miterlimit="10" d="M484.3,596.4l40.7,49.5h-10.6l-36.2-43.9
		L462.2,617v28.9h-8.3V516.1h8.3v89.8l51-47.6H525L484.3,596.4z"/>
	<path fill="#FFFFFF" stroke="#FFFFFF" stroke-width="7" stroke-miterlimit="10" d="M579.3,556.6c17.8,0,32.9,10.6,39.1,25.3
		l0.3-23.5h8.1v87.5h-8.1l-0.3-23.7c-6.2,14.9-21.3,25.4-39.1,25.4c-25.1,0-45.2-20.4-45.2-45.7C534.1,577,554.2,556.6,579.3,556.6z
		 M580.3,639.6c20.8,0,37.5-17,37.5-37.7c0-20.4-16.8-37.4-37.5-37.4c-20.9,0-37.9,17-37.9,37.4
		C542.4,622.7,559.4,639.6,580.3,639.6z"/>
</g>
<path fill="#FFFFFF" stroke="#FFFFFF" stroke-width="5" stroke-miterlimit="10" d="M423,529.9c0,0-71,0-71.1,0
	c0.1,2.1,0.2,4.3,0.2,6.4c0.1,0,0.3,0,0.4,0h70.7C423.1,534.2,423.1,532.1,423,529.9z"/>
<path fill="#FFFFFF" stroke="#FFFFFF" stroke-width="5" stroke-miterlimit="10" d="M621.1,529.9c0,0-71,0-71.1,0
	c0.1,2.1,0.2,4.3,0.2,6.4c0.1,0,0.3,0,0.4,0h70.7C621.3,534.2,621.2,532.1,621.1,529.9z"/>
</svg>
