<?xml version="1.0" encoding="utf-8"?>
<!-- Generator: Adobe Illustrator 22.0.0, SVG Export Plug-In . SVG Version: 6.00 Build 0)  -->
<svg version="1.1" id="Layer_1" xmlns="http://www.w3.org/2000/svg" x="0px" y="0px"
	 viewBox="0 0 291.5 87.2" enable-background="new 0 0 291.5 87.2" xml:space="preserve">
<g>
	<g>
		<path fill="#FFFFFF" d="M89.9,49.7V86H78V53.7c0-9.3-4.1-15.5-11.6-15.5c-9.2,0-14.9,9.4-15.5,21.6V86H39V53.7
			c0-9.3-4-15.5-11.6-15.5c-9.2,0-14.9,9.4-15.5,21.6V86H0V28h11.2l0.6,9.1c5-5.9,11.7-10.2,20.1-10.2c8.7,0,14.6,4.7,17.3,12.2
			c5.3-6.8,12.4-12.2,21.7-12.2C83.3,26.8,89.9,36.2,89.9,49.7z"/>
		<path fill="#FFFFFF" d="M157.8,60.7h-46.1c0.3,8.9,7,15.8,18.1,15.8c8.4,0,13.6-4.6,16.1-9.1l10.4,1.1c-2,8-11,18.6-26.6,18.6
			c-17.7,0-29.9-13.2-29.9-30.5c0-16.2,11.6-29.8,29-29.8c17.9,0,29,14.3,29,30.9V60.7z M111.7,52.3h34.1c-0.5-7.8-6.9-14.8-17-14.8
			C119.1,37.5,112.2,44.2,111.7,52.3z"/>
		<path fill="#FFFFFF" d="M199.5,53.2L226.1,86h-14.9L191,61.2l-9.2,8.7V86h-11.9V0h11.9v53.9L209.3,28h16.7L199.5,53.2z"/>
		<path fill="#FFFFFF" d="M257.4,26.8c10.4,0,18.7,5.7,22,13.1l0.7-11.9h11.4v58h-11.4l-0.7-12c-3.3,7.5-11.6,13.2-22,13.2
			c-16.6,0-29.1-13.5-29.1-30.2C228.3,40.4,240.8,26.8,257.4,26.8z M259.3,75.8c10.8,0,18.8-8.5,18.8-18.8c0-10.3-8-18.8-18.8-18.8
			c-11,0-19.2,8.5-19.2,18.8C240.2,67.3,248.3,75.8,259.3,75.8z"/>
	</g>
	<path fill="#FFFFFF" d="M153.2,7.3c0,0-47.1-0.1-47.1-0.1c0.1,2.6,0.1,5.3,0.1,7.9c0.1,0,0.2,0,0.3,0.1h46.9
		C153.3,12.6,153.2,10,153.2,7.3z"/>
	<path fill="#FFFFFF" d="M284.6,7.3c0,0-47.1-0.1-47.1-0.1c0.1,2.6,0.1,5.3,0.1,7.9c0.1,0,0.2,0,0.3,0.1h46.9
		C284.7,12.6,284.6,10,284.6,7.3z"/>
</g>
</svg>
