<?xml version="1.0" encoding="utf-8"?>
<!-- Generator: Adobe Illustrator 18.0.0, SVG Export Plug-In . SVG Version: 6.00 Build 0)  -->
<!DOCTYPE svg PUBLIC "-//W3C//DTD SVG 1.1//EN" "http://www.w3.org/Graphics/SVG/1.1/DTD/svg11.dtd">
<svg version="1.1" id="Calque_1" xmlns="http://www.w3.org/2000/svg" xmlns:xlink="http://www.w3.org/1999/xlink" x="0px" y="0px"
	 viewBox="0 0 1000 1000" enable-background="new 0 0 1000 1000" xml:space="preserve">
<circle fill="#1E81ED" stroke="#4BA1EF" stroke-width="16" stroke-miterlimit="10" cx="505.6" cy="542" r="490.8"/>
<g>
	<path fill="#479DEA" d="M227.7,530.8c-43.4-85.5-85.2-147.3-94.3-202.1c-10.4-53.8,12-100.5,65.7-132.6
		c52.6-30.6,120.6-29.6,164.1,19.6c45,47.3,65.5,142.8,55.3,257.1c-9.3,114.9-41.6,218.5-63,290.3c-22.6,72.3-34.1,112.9-33,114.2
		c-0.1,1.1,6.3-41.6-7-107.8C303.7,703.6,272.1,614.4,227.7,530.8z"/>
</g>
<path fill="#ED9E6E" d="M264.3,836.6c0.1,0,0.3,0.1,0.6,0.2c-0.3-0.8-0.6-1.7-0.9-2.5C263.9,835,264.1,835.8,264.3,836.6"/>
<path fill="#ED9E6E" d="M910.5,675.4c0.1-0.2,0.3-0.3,0.5-0.6c-0.3-0.7-0.5-1.5-0.8-2.2C910.3,673.6,910.4,674.5,910.5,675.4"/>
<path fill="#0D599E" d="M710.9,384.2c-34.8,8.7-55.9,43.8-47.1,78.7c8.7,34.8,43.8,55.9,78.6,47.1c34.8-8.7,56-43.8,47.3-78.6
	C780.9,396.6,745.7,375.4,710.9,384.2"/>
<path fill="#0D599E" d="M631.4,749.5c-76.2,38.4-125.9,13.1-136.3-7.3c-2.9-5.6-0.6-12.4,5-15.3l191.1-96.4c5.6-2.9,12.4-0.6,15.3,5
	C716.9,656,707.7,711.1,631.4,749.5z"/>
<path fill="none" stroke="#FF7473" stroke-width="25" stroke-miterlimit="10" d="M501.3,99.4c155.4-5.8,304.6,84.1,380.9,218.2"/>
<linearGradient id="SVGID_1_" gradientUnits="userSpaceOnUse" x1="620.3694" y1="576.4974" x2="758.681" y2="576.4974" gradientTransform="matrix(1.1129 -0.2782 0.2782 1.1129 -118.3711 144.2506)">
	<stop  offset="0" style="stop-color:#FF7BAC"/>
	<stop  offset="1" style="stop-color:#FF7BAC;stop-opacity:0"/>
</linearGradient>
<path opacity="0.56" fill="url(#SVGID_1_)" enable-background="new    " d="M886.3,574.8c10.6,42.4-15.3,85.5-57.7,96.1
	c-42.6,10.7-85.6-15.1-96.2-57.7c-10.7-42.4,15.3-85.6,57.7-96.1C832.6,506.4,875.6,532.4,886.3,574.8"/>
<path fill="#0D599E" d="M382.4,533.2c-8.7-34.8-43.9-55.9-78.7-47.3c-34.8,8.7-55.9,43.8-47.1,78.7c8.7,34.8,43.9,55.9,78.6,47.1
	C370,603,391.1,567.9,382.4,533.2"/>
<linearGradient id="SVGID_2_" gradientUnits="userSpaceOnUse" x1="203.3253" y1="586.0367" x2="341.5398" y2="586.0367" gradientTransform="matrix(1.1129 -0.2782 0.2782 1.1129 -118.3711 144.2506)">
	<stop  offset="0" style="stop-color:#FF7BAC"/>
	<stop  offset="1" style="stop-color:#FF7BAC;stop-opacity:0"/>
</linearGradient>
<path opacity="0.56" fill="url(#SVGID_2_)" enable-background="new    " d="M424.7,701.4c10.6,42.4-15.1,85.5-57.7,96.1
	c-42.4,10.6-85.6-15.3-96.1-57.7c-10.7-42.4,15.3-85.6,57.7-96.1C371.1,633.1,414.1,659,424.7,701.4"/>
</svg>
