<?xml version="1.0" encoding="utf-8"?>
<!-- Generator: Adobe Illustrator 18.0.0, SVG Export Plug-In . SVG Version: 6.00 Build 0)  -->
<!DOCTYPE svg PUBLIC "-//W3C//DTD SVG 1.1//EN" "http://www.w3.org/Graphics/SVG/1.1/DTD/svg11.dtd">
<svg version="1.1" id="Calque_1" xmlns="http://www.w3.org/2000/svg" xmlns:xlink="http://www.w3.org/1999/xlink" x="0px" y="0px"
	 viewBox="0 0 1920.2 989.9" enable-background="new 0 0 1920.2 989.9" xml:space="preserve">
<g>
	<g id="MACKBOOK_x5F_PRO_x5F_RIGHT_1_">
		<g>
			<path fill-rule="evenodd" clip-rule="evenodd" fill="#BBBDBF" d="M0.6,43.5L152,947.1c3.4,20.2,26.1,31,43.5,31h973.1
				c14.5,0,23-15,19.5-32.3l-159.3-769.7c-3-14.6-19.6-30.3-33-31.9L34.7,11.8C15.3,9.2-3.6,16.9,0.6,43.5z"/>
			<linearGradient id="SVGID_1_" gradientUnits="userSpaceOnUse" x1="662.9637" y1="888.8045" x2="494.9722" y2="-68.1476">
				<stop  offset="0" style="stop-color:#939598"/>
				<stop  offset="8.707350e-02" style="stop-color:#D0D1D4"/>
				<stop  offset="0.181" style="stop-color:#E6E7E8"/>
				<stop  offset="0.7753" style="stop-color:#E6E7E8"/>
				<stop  offset="0.9065" style="stop-color:#808184"/>
				<stop  offset="1" style="stop-color:#D0D2D3"/>
			</linearGradient>
			<path fill-rule="evenodd" clip-rule="evenodd" fill="url(#SVGID_1_)" d="M1.1,37.4l154.5,908.9c3.4,20.2,25.9,37.6,43.3,37.6
				H1172c14.5,0,23-15,19.5-32.3L1032.1,168c-3-14.6-19.6-30.3-33-31.9L38.1,3.6C18.7,0.9-3.1,10.9,1.1,37.4z"/>
			<path fill-rule="evenodd" clip-rule="evenodd" fill="#0A1014" d="M5.7,29.7l154,906.2c3.4,20,22,36.3,41.4,36.3h966.3
				c14.4,0,23.1-13.9,19.6-31l-158.8-777.5c-3.3-16.2-17.6-30.9-31.9-32.9L34.8,0.3C15.5-2.3,2.5,10.8,5.7,29.7z"/>
			<g>
				<path opacity="0.1" fill-rule="evenodd" clip-rule="evenodd" fill="#F0F1F1" d="M243.7,938.6h852.9l1,17.5H242.7L243.7,938.6z"
					/>
				<linearGradient id="SVGID_2_" gradientUnits="userSpaceOnUse" x1="670.1215" y1="939.0305" x2="670.1215" y2="948.1677">
					<stop  offset="0" style="stop-color:#000000"/>
					<stop  offset="1" style="stop-color:#252A30"/>
				</linearGradient>
				<path fill-rule="evenodd" clip-rule="evenodd" fill="url(#SVGID_2_)" d="M244.7,938.6h850.8l1,17.5H243.7L244.7,938.6z"/>
			</g>
			<path fill-rule="evenodd" clip-rule="evenodd" d="M5.7,29.7l149,875.2c3.4,20,22,36.3,41.4,36.3l966.3,1
				c14.4,0,23.1-13.9,19.6-31l-153.8-747.5c-3.3-16.2-17.6-30.9-31.9-32.9L34.8,0.3C15.5-2.3,2.5,10.8,5.7,29.7z"/>
			<g>
				<path fill="#272C31" d="M30,2c1.5,0,3,0.1,4.5,0.3l961.6,130.5c13.5,1.8,27.1,15.9,30.2,31.3l153.8,747.5
					c1.8,8.7,0.3,16.9-4.2,22.3c-3.4,4.1-8,6.3-13.5,6.3l-966.3-1c-18.5,0-36.2-15.5-39.4-34.6L7.6,29.3c-1.3-7.7,0.3-14.8,4.5-19.8
					C16.3,4.7,22.6,2,30,2 M30,0C13.4,0,2.7,12.4,5.7,29.7l149,875.2c3.4,20,22,36.3,41.4,36.3l966.3,1c14.4,0,23.1-13.9,19.6-31
					l-153.8-747.5c-3.3-16.2-17.6-30.9-31.9-32.9L34.8,0.3C33.1,0.1,31.5,0,30,0L30,0z"/>
			</g>
			<g>
				<path fill="#231F20" d="M192,907.5L55,69.5c-0.1-0.8,0.1-1.6,0.7-2.1c0.5-0.6,1.3-0.8,2.1-0.7l954,120c1.1,0.1,1.9,0.9,2.1,2
					l143,715c0,0.2,0,0.3,0,0.5v3c0,1.4-1.1,2.5-2.5,2.5h-960C193.3,909.6,192.2,908.7,192,907.5z M1152,904.3l-142.6-713L60.5,72
					l136.1,832.6H1152V904.3z"/>
				<path fill-rule="evenodd" clip-rule="evenodd" fill="#E73383" d="M1154.5,904.1c0,1,0,2,0,3c-320,0-640,0-960,0
					c-45.7-279.3-91.3-558.7-137-838c318,40,636,80,954,120C1059.2,427.4,1106.8,665.8,1154.5,904.1z"/>
			</g>
			<g>
				<path opacity="0.5" fill-rule="evenodd" clip-rule="evenodd" fill="#F0F1F1" d="M582.9,99.7c2.8-0.3,5.4,2.3,5.8,5.7
					c0.4,3.5-1.6,6.6-4.4,6.9c-2.8,0.3-5.4-2.3-5.8-5.7C578.2,103,580.1,100,582.9,99.7z"/>
				<path fill-rule="evenodd" clip-rule="evenodd" fill="#231F20" d="M582.9,99.4c2.8-0.3,5.4,2.3,5.8,5.7c0.4,3.5-1.6,6.6-4.4,6.9
					c-2.8,0.3-5.4-2.3-5.8-5.7C578.1,102.7,580.1,99.7,582.9,99.4z"/>
				<path opacity="0.5" fill-rule="evenodd" clip-rule="evenodd" d="M583,100.3c2.4-0.3,4.6,1.9,4.9,4.9c0.3,3-1.3,5.6-3.7,5.8
					c-2.4,0.3-4.6-1.9-4.9-4.9C579,103.2,580.6,100.6,583,100.3z"/>
				<path opacity="0.5" fill-rule="evenodd" clip-rule="evenodd" d="M583.2,102.3c1.5-0.2,2.9,1.2,3.1,3.1c0.2,1.9-0.8,3.5-2.4,3.7
					c-1.5,0.2-2.9-1.2-3.1-3.1C580.7,104.1,581.7,102.4,583.2,102.3z"/>
				
					<linearGradient id="SVGID_3_" gradientUnits="userSpaceOnUse" x1="535.9798" y1="57.7858" x2="540.4014" y2="57.7858" gradientTransform="matrix(0.9185 -0.102 0.1103 0.9939 82.902 103.114)">
					<stop  offset="0" style="stop-color:#662D90"/>
					<stop  offset="1" style="stop-color:#1C75BB"/>
				</linearGradient>
				<path fill-rule="evenodd" clip-rule="evenodd" fill="url(#SVGID_3_)" d="M583.3,103.1c1.1-0.1,2.2,0.9,2.3,2.3
					c0.2,1.4-0.6,2.6-1.8,2.8c-1.1,0.1-2.2-0.9-2.3-2.3C581.4,104.5,582.2,103.3,583.3,103.1z"/>
				<path fill-rule="evenodd" clip-rule="evenodd" fill="#FFFFFF" d="M583.4,103.6c0.5-0.1,0.9,0.2,1,0.7c0,0.4-0.3,0.8-0.8,0.9
					c-0.5,0.1-0.9-0.2-1-0.7C582.5,104.1,582.9,103.7,583.4,103.6z"/>
			</g>
			
				<radialGradient id="SVGID_4_" cx="-6311.9385" cy="124.6408" r="643.9734" gradientTransform="matrix(-1 0 0 1 -5991.8467 0)" gradientUnits="userSpaceOnUse">
				<stop  offset="0" style="stop-color:#FFFFFF"/>
				<stop  offset="1" style="stop-color:#FFFFFF;stop-opacity:0"/>
			</radialGradient>
			<path opacity="0.1" fill-rule="evenodd" clip-rule="evenodd" fill="url(#SVGID_4_)" d="M703.2,150.3L474.5,907.1
				c-93.3,0-186.7,0-280,0c-45.7-279.3-91.3-558.7-137-838C272.7,96.2,488,123.2,703.2,150.3z"/>
		</g>
		<g>
			<linearGradient id="SVGID_5_" gradientUnits="userSpaceOnUse" x1="223.0823" y1="959.6561" x2="1602.2578" y2="959.6561">
				<stop  offset="0" style="stop-color:#000000"/>
				<stop  offset="0.3459" style="stop-color:#040303"/>
				<stop  offset="0.6705" style="stop-color:#0F0D0E"/>
				<stop  offset="0.9858" style="stop-color:#221E1F"/>
				<stop  offset="1" style="stop-color:#231F20"/>
			</linearGradient>
			<path fill="url(#SVGID_5_)" d="M1601.8,974.5H217.9c-1.4,0-2.5-1.2-2.5-2.7v-24.2c0-1.5,1.1-2.7,2.5-2.7h1383.9
				c1.4,0,2.5,1.2,2.5,2.7v24.2C1604.3,973.3,1603.2,974.5,1601.8,974.5z"/>
			
				<linearGradient id="SVGID_6_" gradientUnits="userSpaceOnUse" x1="-7912.0298" y1="962.9382" x2="-6179.0298" y2="962.9382" gradientTransform="matrix(-1 0 0 1 -5991.8467 0)">
				<stop  offset="9.334121e-04" style="stop-color:#D1D3D4"/>
				<stop  offset="2.791152e-03" style="stop-color:#6D6E71"/>
				<stop  offset="2.473294e-02" style="stop-color:#FFFFFF"/>
				<stop  offset="0.3337" style="stop-color:#F0F1F1"/>
				<stop  offset="0.5275" style="stop-color:#A6A8AB"/>
				<stop  offset="0.5552" style="stop-color:#FFFFFF"/>
				<stop  offset="0.5824" style="stop-color:#A6A8AB"/>
				<stop  offset="0.6573" style="stop-color:#BCBEC0"/>
				<stop  offset="0.9657" style="stop-color:#D1D3D4"/>
				<stop  offset="1" style="stop-color:#58595B"/>
			</linearGradient>
			<path fill-rule="evenodd" clip-rule="evenodd" fill="url(#SVGID_6_)" d="M187.2,977.9l1733-1v-29h-1733V977.9z"/>
			<linearGradient id="SVGID_7_" gradientUnits="userSpaceOnUse" x1="1053.6599" y1="977.9502" x2="1053.6599" y2="990.1765">
				<stop  offset="0" style="stop-color:#808184"/>
				<stop  offset="1" style="stop-color:#414042"/>
			</linearGradient>
			<path fill-rule="evenodd" clip-rule="evenodd" fill="url(#SVGID_7_)" d="M272.1,989.9c66,0,1550.4,0,1588.6,0
				c38.1,0,59.5-13,59.5-13l-1733,1C187.1,977.9,206.1,989.9,272.1,989.9z"/>
			<path fill-rule="evenodd" clip-rule="evenodd" fill="#F0F1F1" d="M1574.5,947.9c-0.1,9.7-6.5,17.5-14.4,17.5c-0.3,0-0.5,0-0.8,0
				h-172.8c-0.3,0-0.5,0-0.8,0c-7.9,0-14.3-7.8-14.4-17.5h28.8h145.6H1574.5z"/>
			
				<linearGradient id="SVGID_8_" gradientUnits="userSpaceOnUse" x1="-7564.498" y1="956.273" x2="-7363.0088" y2="956.273" gradientTransform="matrix(-1 0 0 1 -5991.8467 0)">
				<stop  offset="0" style="stop-color:#FFFFFF"/>
				<stop  offset="0.8" style="stop-color:#D0D2D3"/>
				<stop  offset="1" style="stop-color:#929497"/>
			</linearGradient>
			<path fill-rule="evenodd" clip-rule="evenodd" fill="url(#SVGID_8_)" d="M1572.7,947.9c-0.1,9.2-6.4,16.7-14.3,16.7
				c-0.3,0-0.5,0-0.8,0h-171.3c-0.3,0-0.5,0-0.8,0c-7.8,0-14.2-7.4-14.3-16.7h28.6h144.4H1572.7z"/>
			<g>
				<g opacity="0.5">
					<g>
						
							<linearGradient id="SVGID_9_" gradientUnits="userSpaceOnUse" x1="-7658.1919" y1="984.3179" x2="-7247.6143" y2="984.3179" gradientTransform="matrix(-1 0 0 1 -5991.8467 0)">
							<stop  offset="0" style="stop-color:#929497"/>
							<stop  offset="3.000000e-02" style="stop-color:#F0F1F1"/>
							<stop  offset="5.000000e-02" style="stop-color:#BBBDBF"/>
							<stop  offset="0.4916" style="stop-color:#F0F1F1"/>
							<stop  offset="0.9251" style="stop-color:#BBBDBF"/>
							<stop  offset="0.9587" style="stop-color:#F0F1F1"/>
							<stop  offset="1" style="stop-color:#929497"/>
						</linearGradient>
						<path fill-rule="evenodd" clip-rule="evenodd" fill="url(#SVGID_9_)" d="M1263.7,983.2c-4.4,0-7.9,0.5-7.9,1.2
							c0,0.6,3.5,1.2,7.9,1.2c4.4,0,7.9-0.5,7.9-1.2C1271.6,983.7,1268.1,983.2,1263.7,983.2z M1658.4,983.2c-4.4,0-7.9,0.5-7.9,1.2
							c0,0.6,3.5,1.2,7.9,1.2c4.4,0,7.9-0.5,7.9-1.2C1666.3,983.7,1662.8,983.2,1658.4,983.2z"/>
					</g>
				</g>
				<g>
					<g>
						<path fill-rule="evenodd" clip-rule="evenodd" fill="#231F20" d="M1263.7,982.4c-4.4,0-7.9,0.5-7.9,1.2c0,0.6,3.5,1.2,7.9,1.2
							c4.4,0,7.9-0.5,7.9-1.2C1271.6,982.9,1268.1,982.4,1263.7,982.4z M1658.4,982.4c-4.4,0-7.9,0.5-7.9,1.2c0,0.6,3.5,1.2,7.9,1.2
							c4.4,0,7.9-0.5,7.9-1.2C1666.3,982.9,1662.8,982.4,1658.4,982.4z"/>
					</g>
				</g>
			</g>
			<g>
				<g opacity="0.5">
					<path fill-rule="evenodd" clip-rule="evenodd" fill="#F0F1F1" d="M799.9,982.4h105.6c1,0,1.8,0.8,1.8,1.8s-0.8,1.8-1.8,1.8
						H799.9c-1,0-1.8-0.8-1.8-1.8S798.9,982.4,799.9,982.4z"/>
					<path fill-rule="evenodd" clip-rule="evenodd" fill="#F0F1F1" d="M683.2,982.4h105.6c1,0,1.8,0.8,1.8,1.8s-0.8,1.8-1.8,1.8
						H683.2c-1,0-1.8-0.8-1.8-1.8S682.2,982.4,683.2,982.4z"/>
					<path fill-rule="evenodd" clip-rule="evenodd" fill="#F0F1F1" d="M565.7,982.4h105.6c1,0,1.8,0.8,1.8,1.8s-0.8,1.8-1.8,1.8
						H565.7c-1,0-1.8-0.8-1.8-1.8S564.7,982.4,565.7,982.4z"/>
				</g>
				<g>
					<path fill-rule="evenodd" clip-rule="evenodd" fill="#38373C" d="M799.9,981.7h105.6c1,0,1.8,0.8,1.8,1.8s-0.8,1.8-1.8,1.8
						H799.9c-1,0-1.8-0.8-1.8-1.8S798.9,981.7,799.9,981.7z"/>
					<path fill-rule="evenodd" clip-rule="evenodd" fill="#38373C" d="M683.2,981.7h105.6c1,0,1.8,0.8,1.8,1.8s-0.8,1.8-1.8,1.8
						H683.2c-1,0-1.8-0.8-1.8-1.8S682.2,981.7,683.2,981.7z"/>
					<path fill-rule="evenodd" clip-rule="evenodd" fill="#38373C" d="M565.7,981.7h105.6c1,0,1.8,0.8,1.8,1.8s-0.8,1.8-1.8,1.8
						H565.7c-1,0-1.8-0.8-1.8-1.8S564.7,981.7,565.7,981.7z"/>
				</g>
			</g>
			<g>
				<g>
					<g>
						<path fill-rule="evenodd" clip-rule="evenodd" fill="#535559" d="M263,972h-38c-1.2,0-2.1-1-2.1-2.1v-14.6
							c0-1.2,1-2.1,2.1-2.1h38c1.2,0,2.1,1,2.1,2.1v14.6C265.2,971,264.2,972,263,972z"/>
						<linearGradient id="SVGID_10_" gradientUnits="userSpaceOnUse" x1="248.8311" y1="970.8171" x2="248.8311" y2="954.3639">
							<stop  offset="0" style="stop-color:#A6A8AB"/>
							<stop  offset="1" style="stop-color:#D0D2D3"/>
						</linearGradient>
						<path fill-rule="evenodd" clip-rule="evenodd" fill="url(#SVGID_10_)" d="M262.7,971.1H235c-0.9,0-1.6-0.9-1.6-1.9v-13.2
							c0-1.1,0.7-1.9,1.6-1.9h27.7c0.9,0,1.6,0.9,1.6,1.9v13.2C264.2,970.2,263.5,971.1,262.7,971.1z"/>
						<g>
							<path fill-rule="evenodd" clip-rule="evenodd" fill="#95979A" d="M261.9,962.7c0,1.3-1.1,2.4-2.4,2.4h-23.8
								c-1.3,0-2.4-1.1-2.4-2.4l0,0c0-1.3,1.1-2.4,2.4-2.4h23.8C260.9,960.4,261.9,961.4,261.9,962.7L261.9,962.7z"/>
							<path fill-rule="evenodd" clip-rule="evenodd" fill="#E5E6E7" d="M260.1,962.7c0,1.3-1.1,2.4-2.4,2.4h-23.8
								c-1.3,0-2.4-1.1-2.4-2.4l0,0c0-1.3,1.1-2.4,2.4-2.4h23.8C259,960.4,260.1,961.4,260.1,962.7L260.1,962.7z"/>
							<g>
								<circle fill-rule="evenodd" clip-rule="evenodd" fill="#F0F1F1" cx="234.5" cy="963" r="1.5"/>
								<circle fill-rule="evenodd" clip-rule="evenodd" fill="#F0F1F1" cx="238.8" cy="963" r="1.5"/>
								<circle fill-rule="evenodd" clip-rule="evenodd" fill="#F0F1F1" cx="243.1" cy="963" r="1.5"/>
								<circle fill-rule="evenodd" clip-rule="evenodd" fill="#F0F1F1" cx="247.3" cy="963" r="1.5"/>
								<circle fill-rule="evenodd" clip-rule="evenodd" fill="#F0F1F1" cx="251.6" cy="963" r="1.5"/>
								<circle fill-rule="evenodd" clip-rule="evenodd" fill="#F0F1F1" cx="255.8" cy="963" r="1.5"/>
							</g>
							<g>
								<circle fill-rule="evenodd" clip-rule="evenodd" fill="#85878B" cx="234.9" cy="962.7" r="1.5"/>
								<circle fill-rule="evenodd" clip-rule="evenodd" fill="#85878B" cx="239.2" cy="962.7" r="1.5"/>
								<circle fill-rule="evenodd" clip-rule="evenodd" fill="#85878B" cx="243.4" cy="962.7" r="1.5"/>
								<circle fill-rule="evenodd" clip-rule="evenodd" fill="#85878B" cx="247.7" cy="962.7" r="1.5"/>
								<circle fill-rule="evenodd" clip-rule="evenodd" fill="#85878B" cx="251.9" cy="962.7" r="1.5"/>
								<circle fill-rule="evenodd" clip-rule="evenodd" fill="#85878B" cx="256.2" cy="962.7" r="1.5"/>
							</g>
						</g>
					</g>
					<g>
						<path fill-rule="evenodd" clip-rule="evenodd" fill="#323336" d="M392.5,972h-32.3c-1.2,0-2.1-1-2.1-2.1v-14.6
							c0-1.2,1-2.1,2.1-2.1h32.3c1.2,0,2.1,1,2.1,2.1v14.6C394.7,971,393.7,972,392.5,972z"/>
						<path fill-rule="evenodd" clip-rule="evenodd" fill="#44474C" d="M392.2,971.1h-23.4c-0.9,0-1.6-0.9-1.6-1.9v-13.2
							c0-1.1,0.7-1.9,1.6-1.9h23.4c0.9,0,1.6,0.9,1.6,1.9v13.2C393.7,970.2,393,971.1,392.2,971.1z"/>
						<g>
							<path fill-rule="evenodd" clip-rule="evenodd" fill="#95979A" d="M391.7,962.7c0,1.3-1,2.4-2.1,2.4h-21.5
								c-1.2,0-2.1-1.1-2.1-2.4l0,0c0-1.3,1-2.4,2.1-2.4h21.5C390.8,960.4,391.7,961.4,391.7,962.7L391.7,962.7z"/>
							<path fill-rule="evenodd" clip-rule="evenodd" fill="#B7B8BC" d="M389.6,962.7c0,1.3-1.1,2.4-2.4,2.4h-19.5
								c-1.3,0-2.4-1.1-2.4-2.4l0,0c0-1.3,1.1-2.4,2.4-2.4h19.5C388.5,960.4,389.6,961.4,389.6,962.7L389.6,962.7z"/>
						</g>
					</g>
					<g>
						<path fill-rule="evenodd" clip-rule="evenodd" fill="#393A3D" d="M300.8,972h-16.7c-1.2,0-2.1-1-2.1-2.1v-14.6
							c0-1.2,1-2.1,2.1-2.1h16.7c1.2,0,2.1,1,2.1,2.1v14.6C303,971,302,972,300.8,972z"/>
						<path fill-rule="evenodd" clip-rule="evenodd" fill="#474A4F" d="M300.6,970.6h-12c-0.8,0-1.5-0.8-1.5-1.8v-12.5
							c0-1,0.7-1.8,1.5-1.8h12c0.8,0,1.5,0.8,1.5,1.8v12.5C302.2,969.8,301.5,970.6,300.6,970.6z"/>
						<rect x="293.2" y="960.4" fill-rule="evenodd" clip-rule="evenodd" fill="#B6B7B9" width="9" height="4.2"/>
					</g>
					<g>
						<path fill-rule="evenodd" clip-rule="evenodd" fill="#393A3D" d="M340,972h-16.7c-1.2,0-2.1-1-2.1-2.1v-14.6
							c0-1.2,1-2.1,2.1-2.1H340c1.2,0,2.1,1,2.1,2.1v14.6C342.1,971,341.1,972,340,972z"/>
						<path fill-rule="evenodd" clip-rule="evenodd" fill="#474A4F" d="M339.7,970.6h-12c-0.8,0-1.5-0.8-1.5-1.8v-12.5
							c0-1,0.7-1.8,1.5-1.8h12c0.8,0,1.5,0.8,1.5,1.8v12.5C341.3,969.8,340.6,970.6,339.7,970.6z"/>
						<rect x="332.3" y="960.4" fill-rule="evenodd" clip-rule="evenodd" fill="#B6B7B9" width="9" height="4.2"/>
					</g>
					<g>
						<ellipse fill-rule="evenodd" clip-rule="evenodd" fill="#323336" cx="421.9" cy="960.9" rx="5.8" ry="10.1"/>
						<ellipse fill-rule="evenodd" clip-rule="evenodd" fill="#44474C" cx="423.5" cy="960.9" rx="3.7" ry="8.8"/>
					</g>
				</g>
				<path fill-rule="evenodd" clip-rule="evenodd" fill="#323336" d="M432.4,962.3c-0.1,0-0.2,0.2-0.2,0.4v2.6
					c0,0.2,0.1,0.4,0.2,0.4c0.1,0,0.2-0.2,0.2-0.4v-2.6C432.6,962.5,432.5,962.3,432.4,962.3z M437.2,962.4l0-0.2
					c-0.1-2.4-1.5-4.6-2.9-4.6c-1.4,0-2.8,2.3-2.9,4.7l0,0.1c-0.3,0.1-0.4,0.5-0.4,0.9v1.4c0,0.5,0.2,0.9,0.5,0.9
					c0.3,0,0.5-0.4,0.5-0.9v-1.4l0-0.7c0-1.9,1.1-3.9,2.3-3.9c1.2,0,2.3,2,2.3,3.9c0,0.2,0,0.7,0,0.7v1.4c0,0.5,0.2,0.9,0.5,0.9
					c0.3,0,0.5-0.4,0.5-0.9v-1.4C437.6,962.8,437.5,962.5,437.2,962.4z M436.1,962.3c-0.1,0-0.2,0.2-0.2,0.4v2.6
					c0,0.2,0.1,0.4,0.2,0.4s0.2-0.2,0.2-0.4v-2.6C436.3,962.5,436.2,962.3,436.1,962.3z"/>
				<g>
					<rect x="266.8" y="960.3" fill-rule="evenodd" clip-rule="evenodd" fill="#323336" width="7.7" height="1.8"/>
					<rect x="272.4" y="962.5" fill-rule="evenodd" clip-rule="evenodd" fill="#323336" width="2.1" height="1.8"/>
					<rect x="269.6" y="962.5" fill-rule="evenodd" clip-rule="evenodd" fill="#323336" width="2.1" height="1.8"/>
					<rect x="266.8" y="962.5" fill-rule="evenodd" clip-rule="evenodd" fill="#323336" width="2.1" height="1.8"/>
					<polygon fill-rule="evenodd" clip-rule="evenodd" fill="#323336" points="308.4,955.7 306.8,959.9 308.4,959.8 306.8,967.2 
						309.9,958.8 308.3,958.8 					"/>
					<polygon fill-rule="evenodd" clip-rule="evenodd" fill="#323336" points="348.4,955.7 346.9,959.9 348.5,959.8 346.9,967.2 
						349.9,958.8 348.4,958.8 					"/>
					<path fill-rule="evenodd" clip-rule="evenodd" fill="#323336" d="M403.6,957.3l-0.9,2.8h0.7c0,0.3,0,0.6,0,0.8
						c-0.1,0.3-0.2,0.5-0.4,0.7c-0.2,0.2-0.4,0.2-0.6,0.3c0,0-0.1,0-0.1,0v-3.5h0.5l-0.9-2.8l-0.9,2.8h0.6v4.9c0,0-0.1,0-0.1-0.1
						c-0.2-0.1-0.4-0.2-0.6-0.3c-0.2-0.2-0.4-0.4-0.4-0.7c-0.1-0.3-0.1-0.6,0-0.9h0.6l-0.9-2.8l-0.9,2.8h0.9c0,0,0,0,0,0
						c0,0.5,0,1,0.2,1.5c0,0.2,0.1,0.4,0.2,0.6c0.1,0.2,0.3,0.3,0.5,0.4c0.2,0.2,0.5,0.4,0.6,0.7v0.5h-0.7v2h0.7h0.6h0.6v-2h-0.6v-2
						c0.2-0.2,0.4-0.5,0.6-0.6c0.2-0.1,0.4-0.2,0.5-0.4c0.1-0.2,0.2-0.4,0.2-0.6c0.1-0.5,0.1-1,0.2-1.5h0.7L403.6,957.3z"/>
				</g>
			</g>
		</g>
	</g>
	<path fill="#FFFFFF" d="M625.3,455.3l-30-2.3l5.6,31.6l30.1,2.2L625.3,455.3z M671.1,458.9l-29.6-2.3l5.7,31.4l29.6,2.1
		L671.1,458.9z M687.1,460.1l17.6,96.5l-61.9-3.8l-3.1-17.3l45.9,2.9l-5.7-31.4l-75.9-5.3l14.4,81.1l121.2,6.7l-23.4-127.3
		L687.1,460.1z"/>
</g>
</svg>
