<?xml version="1.0" encoding="utf-8"?>
<!-- Generator: Adobe Illustrator 18.0.0, SVG Export Plug-In . SVG Version: 6.00 Build 0)  -->
<!DOCTYPE svg PUBLIC "-//W3C//DTD SVG 1.1//EN" "http://www.w3.org/Graphics/SVG/1.1/DTD/svg11.dtd">
<svg version="1.1" id="Calque_1" xmlns="http://www.w3.org/2000/svg" xmlns:xlink="http://www.w3.org/1999/xlink" x="0px" y="0px"
	 viewBox="8.5 710.3 1000 590" enable-background="new 8.5 710.3 1000 590" xml:space="preserve">
<g id="XMLID_1_">
	<g>
		<path fill="#FFFFFF" d="M677.2,711C519.3,727.6,39.9,873.4,43,1026.3c2.6,152.3,376.5,290.5,552.7,272.4
			c158.1-15,414.1-63.2,412.8-216.4C1005.9,930,836,695.5,677.2,711z"/>
	</g>
</g>
<path fill="none" stroke="#FFFFFF" stroke-width="19" stroke-miterlimit="10" d="M843,998.8L843,998.8
	c-20.4,12.6-47.3,6.1-59.9-14.4l0,0c-12.6-20.4-6.1-47.3,14.4-59.9l0,0c20.4-12.6,47.3-6.1,59.9,14.4l0,0
	C869.9,959.3,863.4,986.2,843,998.8z"/>
<polygon fill="none" stroke="#FFFFFF" stroke-width="19" stroke-miterlimit="10" points="904.5,854.9 904.3,746.6 990.4,812.3 "/>
<path fill="none" stroke="#FFFFFF" stroke-width="19" stroke-miterlimit="10" d="M995.2,913c10.7,16.9-7.2,72.7-24.1,83.7
	c-16.9,10.7-40.1-3.7-50.9-20.8c-10.7-16.9-0.6-41.7,18.2-53.8C955.3,911.2,984.3,896.1,995.2,913z"/>
<g>
	<path fill="#FFFFFF" stroke="#FFFFFF" stroke-width="7" stroke-miterlimit="10" d="M228.1,1114.3v88.4h-13.6v-85
		c0-28.6-13.6-47.6-37.9-47.6c-28.6,0-47.1,27.8-49.6,58.4v74.3h-13.6v-85c0-28.6-13.9-47.6-38.2-47.6c-28.3,0-47.1,27.8-49.6,58.4
		v74.3H12V1060h12.8l0.8,31.6c10.9-18.2,28.7-34.4,53.4-34.4c24.3,0,40.3,15,45.7,37.9c10.7-19.8,29.1-37.9,55.6-37.9
		C210.8,1057.1,228.1,1080.6,228.1,1114.3z"/>
	<path fill="#FFFFFF" stroke="#FFFFFF" stroke-width="7" stroke-miterlimit="10" d="M401.4,1135.5H272.1
		c1.1,34.8,25.9,57.5,60.1,57.5c28.6,0,45.5-16.3,51.9-31.6l12.1,1.9c-6.5,19.8-28.7,42-64.2,42c-41.7,0-73.5-30.5-73.5-75.1
		c0-40.1,29.7-73.5,71.4-73.5c43.8,0,71.4,35.6,71.4,75.4L401.4,1135.5L401.4,1135.5z M272.1,1125h115.3
		c-1.6-29.4-23.5-55.6-57.5-55.6C297.3,1069.4,273.2,1094.2,272.1,1125z"/>
	<path fill="#FFFFFF" stroke="#FFFFFF" stroke-width="7" stroke-miterlimit="10" d="M489.1,1122l66.4,80.7h-17.3l-59.1-71.6
		l-26,24.5v47.1h-13.6V991h13.6v146.5l83.2-77.7h19.3L489.1,1122z"/>
	<path fill="#FFFFFF" stroke="#FFFFFF" stroke-width="7" stroke-miterlimit="10" d="M644.2,1057.1c29.1,0,53.7,17.3,63.8,41.2
		l0.5-38.3h13.2v142.8h-13.2L708,1164c-10.1,24.3-34.8,41.4-63.8,41.4c-40.9,0-73.8-33.3-73.8-74.6
		C570.4,1090.3,603.1,1057.1,644.2,1057.1z M645.8,1192.4c33.9,0,61.2-27.8,61.2-61.5c0-33.3-27.5-61-61.2-61
		c-34.1,0-61.8,27.8-61.8,61C583.9,1164.9,611.6,1192.4,645.8,1192.4z"/>
</g>
<path fill="#FFFFFF" stroke="#FFFFFF" stroke-width="5" stroke-miterlimit="10" d="M389.1,1013.5c0,0-115.8,0-116,0
	c0.2,3.4,0.3,7,0.3,10.4c0.2,0,0.5,0,0.6,0h115.3C389.2,1020.5,389.2,1017,389.1,1013.5z"/>
<path fill="#FFFFFF" stroke="#FFFFFF" stroke-width="5" stroke-miterlimit="10" d="M712.4,1013.5c0,0-115.8,0-116,0
	c0.2,3.4,0.3,7,0.3,10.4c0.2,0,0.5,0,0.6,0h115.3C712.7,1020.5,712.5,1017,712.4,1013.5z"/>
<g enable-background="new    ">
	<path fill="#FFFFFF" d="M770.8,826.7c5.2,0,9.7,1.8,13.3,5.4c3.7,3.6,5.5,8.4,5.5,14.4s-1.8,10.8-5.5,14.6c-3.7,3.7-8,5.6-12.8,5.6
		s-9.3-2.1-13.2-6.4v20H750v-53h8.2v6.8C761.3,829.2,765.5,826.7,770.8,826.7z M758,846.8c0,3.7,1.1,6.7,3.4,9.1
		c2.2,2.4,5,3.5,8.2,3.5s6-1.2,8.4-3.5s3.6-5.4,3.6-9.1s-1.2-6.8-3.5-9.3s-5.1-3.7-8.4-3.7c-3.3,0-6,1.2-8.2,3.7
		C759.1,840,758,843.1,758,846.8z"/>
	<path fill="#FFFFFF" d="M819.3,835c-4,0-7.1,1.3-9.1,3.9c-2,2.6-3.1,6.2-3.1,10.6v16.6H799v-38.8h8.2v7.8c1.3-2.4,3.1-4.4,5.4-6
		c2.3-1.6,4.7-2.4,7.2-2.4l0.1,8.2C819.6,835,819.5,835,819.3,835z"/>
	<path fill="#FFFFFF" d="M859.7,860.9c-3.9,3.9-8.8,5.8-14.6,5.8s-10.7-1.9-14.6-5.8c-3.9-3.9-5.8-8.6-5.8-14.2
		c0-5.6,1.9-10.3,5.8-14.2c3.9-3.9,8.8-5.8,14.6-5.8s10.7,1.9,14.6,5.8c3.9,3.9,5.8,8.6,5.8,14.2C865.5,852.3,863.6,857,859.7,860.9
		z M836.3,855.9c2.3,2.4,5.2,3.5,8.8,3.5c3.5,0,6.5-1.2,8.8-3.5c2.3-2.4,3.5-5.4,3.5-9.2c0-3.7-1.2-6.8-3.5-9.2s-5.2-3.5-8.8-3.5
		s-6.5,1.2-8.8,3.5c-2.3,2.4-3.5,5.4-3.5,9.2S834,853.5,836.3,855.9z"/>
</g>
</svg>
