<?xml version="1.0" encoding="utf-8"?>
<!-- Generator: Adobe Illustrator 18.0.0, SVG Export Plug-In . SVG Version: 6.00 Build 0)  -->
<!DOCTYPE svg PUBLIC "-//W3C//DTD SVG 1.1//EN" "http://www.w3.org/Graphics/SVG/1.1/DTD/svg11.dtd">
<svg version="1.1" id="Layer_1" xmlns="http://www.w3.org/2000/svg" xmlns:xlink="http://www.w3.org/1999/xlink" x="0px" y="0px"
	 viewBox="0 0 750 500" enable-background="new 0 0 750 500" xml:space="preserve">
<circle fill="#FF828C" cx="491.1" cy="250" r="241.2"/>
<g opacity="0.9">
	
		<image overflow="visible" enable-background="new    " width="300" height="161" xlink:href="A18381C8A4975F16.png"  transform="matrix(2.1307 0 0 2.1307 -76.7045 110.4404)">
	</image>
</g>
<g>
	<path fill="#FF828C" d="M115.9,317.5c2.8,2.8,4.3,6.2,4.3,10.4c0,4-1.5,7.5-4.3,10c-2.8,2.8-6.2,4-10.4,4H16.4
		c-4.5,0-8.1-1.5-10.7-4.3s-3.8-6.4-3.8-10.7s1.5-8.3,4.7-11.5l57.1-60.9c6.4-7,11.5-14.1,15.3-21.1c3.8-7,5.5-13.6,5.5-19.6
		c0-7.9-2.8-14.7-8.3-20.5c-5.5-5.8-12.1-8.7-19.4-8.7c-5.1,0-10.2,1.7-15.3,5.1c-5.1,3.4-9.8,7.9-14.1,13.4
		c-3.2,4.3-7.2,6.2-12.1,6.2c-3.8,0-7.5-1.5-10.7-4.5c-3-2.6-4.7-5.8-4.7-9.6c0-2.6,0.9-5.3,2.6-7.9c1.7-2.8,4.3-5.8,7.9-9.4
		c6.6-6.6,14.3-11.9,23-16s17-6,25.1-6c11.5,0,21.7,2.3,30.5,7.2c8.7,4.9,15.6,11.7,20.2,20.2c4.7,8.5,7,18.3,7,29
		s-2.8,21.5-8.5,32.8c-5.8,11.3-13.2,21.9-23,32.4l-33.2,35.6h53.9C109.7,313.5,113.1,314.8,115.9,317.5z"/>
	<path fill="#FF828C" d="M231.4,227.2c9.4,5.3,16.6,12.6,21.9,21.9c5.3,9.2,7.9,19.6,7.9,30.9c0,11.7-3.4,22.6-10,32.4
		c-6.6,10-15.6,17.9-26.4,23.7c-11.1,5.8-22.8,8.7-35.6,8.7c-6.8,0-13.8-1.1-21.1-3.2s-13.2-4.9-17.7-8.7c-2.1-1.7-3.8-4.3-5.3-7.2
		c-1.5-3.2-2.1-6.2-2.1-8.9c0-3.2,1.3-6,4-8.5c2.8-2.6,6.2-3.8,10.7-3.8c3.2,0,7,1.7,11.7,4.9c7.2,4.5,13.8,6.8,19.4,6.8
		c7.2,0,13.8-1.7,20.2-4.9c6.2-3.4,11.3-7.7,15.1-13.4c3.8-5.5,5.5-11.5,5.5-18.1c0-9.4-3.2-17-9.6-23s-14.1-8.9-23-8.9
		c-4,0-7.7,0.4-10.7,1.5c-3.2,1.1-6.8,2.6-11.3,4.7c-3.2,1.5-5.5,2.8-7.5,3.4c-1.9,0.6-3.6,1.1-5.5,1.1c-6.8,0-11.7-1.9-14.5-5.5
		c-3-3.6-4.3-8.1-4.3-13c0-1.7,0-3,0.2-3.6l8.1-65c0.6-3.6,2.6-6.6,5.3-8.9c3-2.3,6.4-3.6,10.4-3.6h75.6c4.3,0,7.7,1.5,10.4,4.3
		c2.8,2.8,4.3,6.2,4.3,10.4c0,4-1.5,7.5-4.3,10c-2.8,2.8-6.2,4-10.4,4h-65l-4.9,37.9c3.4-1.9,7.5-3.4,12.6-4.7
		c5.1-1.3,9.8-1.9,14.5-1.9C211.6,219.1,222,221.9,231.4,227.2z"/>
	<path fill="#FF828C" d="M308.3,251.7c-6.6-4.5-11.7-10.7-15.3-18.3c-3.6-7.7-5.5-16.4-5.5-25.8c0-9.6,1.9-18.3,5.5-26
		c3.6-7.7,8.7-13.8,15.1-18.3c6.4-4.5,13.8-6.6,22.2-6.6c8.3,0,15.8,2.1,22.2,6.6c6.4,4.5,11.5,10.7,15.1,18.3
		c3.6,7.7,5.3,16.4,5.3,26c0,9.4-1.9,18.1-5.5,25.8c-3.8,7.7-8.9,13.8-15.6,18.3s-13.8,6.6-21.5,6.6
		C322.4,258.3,314.9,256.2,308.3,251.7z M342.6,227.4c3-5.1,4.5-11.7,4.5-19.8c0-8.3-1.5-14.9-4.3-19.8c-3-5.1-7-7.7-12.1-7.7
		c-5.1,0-9.2,2.6-12.1,7.7c-3,5.1-4.7,11.7-4.7,19.8c0,8.1,1.5,14.7,4.5,19.8c3,5.1,7,7.7,12.4,7.7
		C335.6,235.1,339.6,232.5,342.6,227.4z M324.5,339.1c-3-2.3-4.5-5.5-4.5-9.2c0-2.3,0.9-4.9,2.6-7.9l104.2-157.5
		c3.2-4.3,6.8-6.2,10.7-6.2c3.2,0,6.2,1.3,9.2,3.6c3,2.3,4.5,5.5,4.5,9.2c0,2.3-0.9,4.9-2.6,7.9L344.3,336.5
		c-3.2,4.3-6.8,6.2-10.7,6.2C330.5,342.7,327.5,341.4,324.5,339.1z M421.2,338.2c-6.6-4.5-11.7-10.7-15.6-18.3s-5.8-16.4-5.8-25.8
		c0-9.6,1.9-18.3,5.5-26c3.6-7.7,8.7-13.8,15.1-18.3c6.4-4.5,13.8-6.6,22.2-6.6c8.3,0,15.8,2.1,22.2,6.6
		c6.4,4.5,11.5,10.7,15.1,18.3c3.6,7.7,5.3,16.4,5.3,26c0,9.4-1.9,18.1-5.5,25.8c-3.8,7.7-8.9,13.8-15.6,18.3
		c-6.6,4.5-13.8,6.6-21.5,6.6S427.8,342.7,421.2,338.2z M454.9,313.7c3-5.1,4.5-11.7,4.5-19.8c0-8.3-1.5-14.9-4.3-19.8
		c-3-5.1-7-7.7-12.1-7.7s-9.2,2.6-12.1,7.7s-4.7,11.7-4.7,19.8s1.5,14.7,4.5,19.8c3,5.1,7,7.7,12.4,7.7
		C447.9,321.6,451.9,319,454.9,313.7z"/>
</g>
<circle fill="#F1F1F1" cx="717" cy="156.2" r="33"/>
</svg>
