<?xml version="1.0" encoding="utf-8"?>
<!-- Generator: Adobe Illustrator 18.0.0, SVG Export Plug-In . SVG Version: 6.00 Build 0)  -->
<!DOCTYPE svg PUBLIC "-//W3C//DTD SVG 1.1//EN" "http://www.w3.org/Graphics/SVG/1.1/DTD/svg11.dtd">
<svg version="1.1" id="Calque_1" xmlns="http://www.w3.org/2000/svg" xmlns:xlink="http://www.w3.org/1999/xlink" x="0px" y="0px"
	 viewBox="435.3 180.9 392.4 392.5" enable-background="new 435.3 180.9 392.4 392.5" xml:space="preserve">
<g>
	<g>
		<g>
			<path fill="#303136" d="M822.5,542c-2.5,2.6-5.9,4.4-9.8,5c-9.7,1.6-18.8-5.1-20.3-14.7l-43.7-273.5l-273.8-42.5
				c-9.7-1.5-16.4-10.6-14.9-20.3s10.5-16.4,20.3-14.9l286.6,44.5c7.6,1.2,13.6,7.1,14.8,14.7l45.8,286.3
				C828.4,532.5,826.4,538.1,822.5,542L822.5,542z"/>
		</g>
		<g>
			<path fill="#303136" d="M776.7,255.7L465.7,568.2c-6.9,7-18.1,7-25.1,0.1c-7-6.9-7-18.1-0.1-25.1l311.1-312.6
				c6.9-7,18.1-7,25.1-0.1C783.6,237.5,783.6,248.7,776.7,255.7L776.7,255.7z"/>
		</g>
	</g>
</g>
</svg>
