<?xml version="1.0" encoding="utf-8"?>
<!-- Generator: Adobe Illustrator 22.0.0, SVG Export Plug-In . SVG Version: 6.00 Build 0)  -->
<svg version="1.1" id="Vector_Graphics" xmlns="http://www.w3.org/2000/svg" xmlns:xlink="http://www.w3.org/1999/xlink" x="0px"
	 y="0px" viewBox="0 0 411 411" style="enable-background:new 0 0 411 411;" xml:space="preserve">
<style type="text/css">
	.st0{fill:#2D275E;}
	.st1{fill:#FFFFFF;}
	.st2{fill:url(#SVGID_1_);}
	.st3{fill:url(#SVGID_2_);}
	.st4{fill:url(#SVGID_3_);}
	.st5{fill:url(#SVGID_4_);}
	.st6{fill:url(#SVGID_5_);}
	.st7{fill:url(#SVGID_6_);}
	.st8{fill:url(#SVGID_7_);}
	.st9{fill:url(#SVGID_8_);}
	.st10{fill:url(#SVGID_9_);}
	.st11{fill:url(#SVGID_10_);}
	.st12{fill:url(#SVGID_11_);}
	.st13{fill:url(#SVGID_12_);}
	.st14{fill:url(#SVGID_13_);}
	.st15{fill:url(#SVGID_14_);}
	.st16{fill:url(#SVGID_15_);}
	.st17{fill:url(#SVGID_16_);}
	.st18{fill:url(#SVGID_17_);}
	.st19{fill:url(#SVGID_18_);}
	.st20{fill:url(#SVGID_19_);}
	.st21{fill:url(#SVGID_20_);}
	.st22{fill:url(#SVGID_21_);}
	.st23{fill:url(#SVGID_22_);}
	.st24{fill:url(#SVGID_23_);}
	.st25{fill:url(#SVGID_24_);}
	.st26{fill:url(#SVGID_25_);}
	.st27{fill:url(#SVGID_26_);}
	.st28{fill:url(#SVGID_27_);}
	.st29{fill:url(#SVGID_28_);}
</style>
<g>
	<circle class="st0" cx="205.5" cy="205.5" r="205.5"/>
	<path class="st0" d="M296.7,206c0,50.1-40.6,90.7-90.7,90.7s-90.7-40.6-90.7-90.7s40.6-90.7,90.7-90.7S296.7,155.8,296.7,206z"/>
	<circle class="st1" cx="205.5" cy="205.5" r="10.4"/>
	<g>
		<g>
			<g>
				
					<linearGradient id="SVGID_1_" gradientUnits="userSpaceOnUse" x1="1.9" y1="205.5" x2="409.1" y2="205.5" gradientTransform="matrix(1 0 0 -1 0 411)">
					<stop  offset="0" style="stop-color:#2D275E"/>
					<stop  offset="0.5" style="stop-color:#61666D"/>
					<stop  offset="0.9991" style="stop-color:#2D275E"/>
				</linearGradient>
				<path class="st2" d="M408.4,205.5c0,27.4-5.4,54-15.9,79c-10.2,24.2-24.8,45.9-43.5,64.5c-18.6,18.6-40.3,33.3-64.5,43.5
					c-25,10.6-51.6,15.9-79,15.9s-54-5.4-79-15.9C102.3,382.3,80.6,367.7,62,349c-18.6-18.6-33.3-40.3-43.5-64.5
					c-10.6-25-15.9-51.6-15.9-79s5.4-54,15.9-79C28.7,102.3,43.3,80.6,62,62c18.6-18.6,40.3-33.3,64.5-43.5
					c25-10.6,51.6-15.9,79-15.9s54,5.4,79,15.9C308.7,28.7,330.4,43.3,349,62c18.6,18.6,33.3,40.3,43.5,64.5
					C403,151.6,408.4,178.1,408.4,205.5z M205.5,1.9c-27.5,0-54.1,5.4-79.3,16c-24.2,10.3-46,24.9-64.7,43.6S28.2,102,17.9,126.3
					c-10.6,25.1-16,51.8-16,79.3s5.4,54.1,16,79.2c10.3,24.2,24.9,46,43.6,64.7s40.5,33.4,64.7,43.6c25.1,10.6,51.8,16,79.3,16
					s54.1-5.4,79.3-16c24.2-10.3,46-24.9,64.7-43.6s33.4-40.5,43.6-64.7c10.6-25.1,16-51.8,16-79.2c0-27.5-5.4-54.1-16-79.3
					c-10.3-24.2-24.9-46-43.6-64.7S309,28.2,284.8,18C259.7,7.3,233,1.9,205.5,1.9z"/>
			</g>
		</g>
		<g>
			
				<linearGradient id="SVGID_2_" gradientUnits="userSpaceOnUse" x1="5.9" y1="205.45" x2="405.2" y2="205.45" gradientTransform="matrix(1 0 0 -1 0 411)">
				<stop  offset="0" style="stop-color:#2D275E"/>
				<stop  offset="0.5" style="stop-color:#61666D"/>
				<stop  offset="0.9991" style="stop-color:#2D275E"/>
			</linearGradient>
			<path class="st3" d="M404.4,205.5c0,26.9-5.3,52.9-15.6,77.4c-10,23.7-24.4,45-42.6,63.2c-18.3,18.3-39.5,32.6-63.2,42.6
				c-24.5,10.4-50.6,15.6-77.4,15.6c-26.9,0-52.9-5.3-77.4-15.6c-23.7-10-45-24.4-63.2-42.6c-18.3-18.3-32.6-39.5-42.6-63.2
				C12,258.4,6.8,232.3,6.8,205.5c0-26.9,5.3-52.9,15.6-77.4c10-23.7,24.4-45,42.6-63.2c18.3-18.3,39.5-32.6,63.2-42.6
				c24.5-10.4,50.6-15.6,77.4-15.6c26.9,0,52.9,5.3,77.4,15.6c23.7,10,45,24.4,63.2,42.6c18.3,18.3,32.6,39.5,42.6,63.2
				C399.2,152.6,404.4,178.7,404.4,205.5z M205.5,5.9c-27,0-53.1,5.3-77.7,15.7C104,31.6,82.7,46,64.3,64.3
				C46,82.7,31.6,104,21.6,127.8c-10.4,24.6-15.7,50.8-15.7,77.7c0,27,5.3,53.1,15.7,77.7c10,23.8,24.4,45.1,42.7,63.5
				c18.3,18.3,39.7,32.7,63.5,42.8c24.6,10.4,50.8,15.7,77.7,15.7c27,0,53.1-5.3,77.7-15.7c23.8-10.1,45.1-24.5,63.5-42.8
				c18.3-18.3,32.7-39.7,42.8-63.5c10.4-24.6,15.7-50.8,15.7-77.7c0-27-5.3-53.1-15.7-77.7C379.4,104,365,82.7,346.7,64.3
				C328.3,46,307,31.6,283.2,21.5C258.6,11.1,232.5,5.9,205.5,5.9z"/>
		</g>
		<g>
			
				<linearGradient id="SVGID_3_" gradientUnits="userSpaceOnUse" x1="9.8" y1="205.5" x2="401.2" y2="205.5" gradientTransform="matrix(1 0 0 -1 0 411)">
				<stop  offset="0" style="stop-color:#2D275E"/>
				<stop  offset="0.5" style="stop-color:#61666D"/>
				<stop  offset="0.9991" style="stop-color:#2D275E"/>
			</linearGradient>
			<path class="st4" d="M400.5,205.5c0,26.3-5.2,51.9-15.3,75.9c-9.8,23.2-23.9,44.1-41.8,62s-38.8,32-62,41.8
				c-24,10.2-49.6,15.3-75.9,15.3s-51.9-5.2-75.9-15.3c-23.2-9.8-44.1-23.9-62-41.8s-32-38.8-41.8-62c-10.2-24-15.3-49.6-15.3-75.9
				s5.2-51.9,15.3-75.9c9.8-23.2,23.9-44.1,41.8-62s38.8-32,62-41.8c24-10.2,49.6-15.3,75.9-15.3s51.9,5.2,75.9,15.3
				c23.2,9.8,44.1,23.9,62,41.8s32,38.8,41.8,62C395.3,153.7,400.5,179.2,400.5,205.5z M205.5,9.8c-26.4,0-52,5.2-76.2,15.4
				c-23.3,9.9-44.2,24-62.2,41.9c-18,18-32.1,38.9-41.9,62.2C15,153.5,9.8,179.1,9.8,205.5s5.2,52,15.4,76.2
				c9.9,23.3,24,44.2,41.9,62.2c18,18,38.9,32.1,62.2,41.9c24.1,10.2,49.8,15.4,76.2,15.4s52-5.2,76.2-15.4
				c23.3-9.9,44.2-24,62.2-41.9c18-18,32.1-38.9,41.9-62.2c10.2-24.1,15.4-49.7,15.4-76.2s-5.2-52-15.4-76.2
				c-9.9-23.3-24-44.2-41.9-62.2c-18-18-38.9-32.1-62.2-41.9C257.6,15,231.9,9.8,205.5,9.8z"/>
		</g>
		<g>
			
				<linearGradient id="SVGID_4_" gradientUnits="userSpaceOnUse" x1="13.8" y1="205.5" x2="397.2" y2="205.5" gradientTransform="matrix(1 0 0 -1 0 411)">
				<stop  offset="0" style="stop-color:#2D275E"/>
				<stop  offset="0.5" style="stop-color:#61666D"/>
				<stop  offset="0.9991" style="stop-color:#2D275E"/>
			</linearGradient>
			<path class="st5" d="M396.6,205.5c0,25.8-5.1,50.8-15,74.4c-9.6,22.7-23.4,43.2-40.9,60.7s-38,31.3-60.7,40.9
				c-23.6,10-48.6,15-74.4,15s-50.8-5-74.4-15c-22.8-9.6-43.2-23.4-60.7-40.9s-31.3-38-40.9-60.7c-10-23.5-15-48.6-15-74.4
				s5.1-50.8,15-74.4c9.6-22.8,23.4-43.2,40.9-60.7s38-31.3,60.7-40.9c23.6-10,48.6-15,74.4-15s50.8,5,74.4,15
				c22.7,9.6,43.2,23.4,60.7,40.9s31.3,38,40.9,60.7C391.5,154.7,396.6,179.7,396.6,205.5z M205.5,13.8c-25.9,0-51,5.1-74.6,15.1
				C108.1,38.6,87.6,52.4,70,70s-31.4,38.1-41.1,60.9c-10,23.6-15.1,48.7-15.1,74.6s5.1,51,15.1,74.6c9.7,22.8,23.5,43.3,41.1,60.9
				s38.1,31.4,60.9,41.1c23.6,10,48.7,15.1,74.6,15.1s51-5.1,74.6-15.1c22.8-9.7,43.3-23.5,60.9-41.1s31.4-38.1,41.1-60.9
				c10-23.6,15.1-48.7,15.1-74.6s-5.1-51-15.1-74.6c-9.7-22.8-23.5-43.3-41.1-60.9s-38.1-31.4-60.9-41.1
				C256.5,18.9,231.4,13.8,205.5,13.8z"/>
		</g>
		<g>
			
				<linearGradient id="SVGID_5_" gradientUnits="userSpaceOnUse" x1="17.7" y1="205.5" x2="393.3" y2="205.5" gradientTransform="matrix(1 0 0 -1 0 411)">
				<stop  offset="0" style="stop-color:#2D275E"/>
				<stop  offset="0.5" style="stop-color:#61666D"/>
				<stop  offset="0.9991" style="stop-color:#2D275E"/>
			</linearGradient>
			<path class="st6" d="M392.6,205.5c0,25.3-4.9,49.8-14.7,72.8c-9.4,22.3-22.9,42.3-40.1,59.5s-37.2,30.7-59.5,40.1
				c-23.1,9.8-47.6,14.7-72.8,14.7c-25.3,0-49.8-4.9-72.8-14.7c-22.3-9.4-42.3-22.9-59.5-40.1s-30.7-37.2-40.1-59.5
				c-9.8-23.1-14.7-47.6-14.7-72.8s4.9-49.8,14.7-72.8c9.4-22.3,22.9-42.3,40.1-59.5s37.2-30.7,59.5-40.1
				c23.1-9.8,47.6-14.7,72.8-14.7c25.3,0,49.8,4.9,72.8,14.7c22.3,9.4,42.3,22.9,59.5,40.1s30.7,37.2,40.1,59.5
				C387.7,155.8,392.6,180.3,392.6,205.5z M205.5,17.7c-25.3,0-49.9,5-73.1,14.8C110.1,42,90,55.5,72.7,72.7
				C55.5,90,42,110.1,32.5,132.4c-9.8,23.2-14.8,47.7-14.8,73.1s5,49.9,14.8,73.1c9.5,22.4,23,42.4,40.2,59.7
				c17.2,17.2,37.3,30.8,59.7,40.2c23.2,9.8,47.7,14.8,73.1,14.8c25.3,0,49.9-5,73.1-14.8c22.4-9.5,42.4-23,59.7-40.2
				c17.2-17.2,30.8-37.3,40.2-59.7c9.8-23.1,14.8-47.7,14.8-73.1s-5-49.9-14.8-73.1c-9.5-22.4-23-42.4-40.2-59.7
				C321,55.5,301,42,278.6,32.5C255.5,22.7,230.9,17.7,205.5,17.7z"/>
		</g>
		<g>
			
				<linearGradient id="SVGID_6_" gradientUnits="userSpaceOnUse" x1="21.7" y1="205.55" x2="389.1" y2="205.55" gradientTransform="matrix(1 0 0 -1 0 411)">
				<stop  offset="0" style="stop-color:#2D275E"/>
				<stop  offset="0.5" style="stop-color:#61666D"/>
				<stop  offset="0.9991" style="stop-color:#2D275E"/>
			</linearGradient>
			<path class="st7" d="M388.7,205.5c0,24.7-4.8,48.7-14.4,71.3c-9.2,21.8-22.4,41.4-39.2,58.2c-16.8,16.8-36.4,30-58.2,39.2
				c-22.6,9.6-46.6,14.4-71.3,14.4s-48.7-4.8-71.3-14.4C112.4,365,92.8,351.8,76,335s-30-36.4-39.2-58.2
				c-9.6-22.6-14.4-46.6-14.4-71.3s4.8-48.7,14.4-71.3C46,112.4,59.2,92.8,76,76s36.4-30,58.2-39.2c22.6-9.5,46.6-14.4,71.3-14.4
				s48.7,4.8,71.3,14.4C298.6,46,318.2,59.2,335,76s30,36.4,39.2,58.2C383.8,156.8,388.7,180.8,388.7,205.5z M205.5,21.7
				c-24.8,0-48.9,4.9-71.5,14.4c-21.9,9.3-41.5,22.5-58.4,39.4S45.4,112.1,36.1,134c-9.6,22.7-14.4,46.7-14.4,71.5
				s4.9,48.9,14.4,71.5c9.3,21.9,22.5,41.5,39.4,58.4s36.5,30.1,58.4,39.4c22.7,9.6,46.7,14.4,71.5,14.4s48.9-4.9,71.5-14.4
				c21.9-9.3,41.5-22.5,58.4-39.4s30.1-36.5,39.4-58.4c9.6-22.7,14.4-46.7,14.4-71.5s-4.9-48.9-14.4-71.5
				c-9.3-21.9-22.5-41.5-39.4-58.4s-36.5-30.1-58.4-39.4C254.4,26.6,230.3,21.7,205.5,21.7z"/>
		</g>
		<g>
			
				<linearGradient id="SVGID_7_" gradientUnits="userSpaceOnUse" x1="25.7" y1="205.5" x2="385.3" y2="205.5" gradientTransform="matrix(1 0 0 -1 0 411)">
				<stop  offset="0" style="stop-color:#2D275E"/>
				<stop  offset="0.5" style="stop-color:#61666D"/>
				<stop  offset="0.9991" style="stop-color:#2D275E"/>
			</linearGradient>
			<path class="st8" d="M384.7,205.5c0,24.2-4.7,47.7-14.1,69.8c-9,21.3-21.9,40.5-38.4,57s-35.6,29.4-57,38.4
				c-22.1,9.3-45.6,14.1-69.8,14.1s-47.7-4.7-69.8-14.1c-21.3-9-40.5-21.9-57-38.4s-29.4-35.6-38.4-57
				c-9.3-22.1-14.1-45.6-14.1-69.8s4.7-47.7,14.1-69.8c9-21.3,21.9-40.5,38.4-57s35.6-29.4,57-38.4c22.1-9.3,45.6-14.1,69.8-14.1
				s47.7,4.7,69.8,14.1c21.3,9,40.5,21.9,57,38.4s29.4,35.6,38.4,57C380,157.8,384.7,181.3,384.7,205.5z M205.5,25.7
				c-24.3,0-47.8,4.8-70,14.1c-21.4,9.1-40.6,22-57.2,38.5c-16.5,16.5-29.5,35.8-38.5,57.2c-9.4,22.2-14.1,45.7-14.1,70
				s4.8,47.8,14.1,70c9.1,21.4,22,40.7,38.5,57.2s35.8,29.5,57.2,38.5c22.2,9.4,45.7,14.1,70,14.1s47.8-4.8,70-14.1
				c21.4-9.1,40.6-22,57.2-38.5c16.5-16.5,29.5-35.8,38.5-57.2c9.4-22.2,14.1-45.7,14.1-70s-4.8-47.8-14.1-70
				c-9.1-21.4-22-40.7-38.5-57.2s-35.8-29.5-57.2-38.5C253.3,30.4,229.8,25.7,205.5,25.7z"/>
		</g>
		<g>
			
				<linearGradient id="SVGID_8_" gradientUnits="userSpaceOnUse" x1="29.6" y1="205.5" x2="381.4" y2="205.5" gradientTransform="matrix(1 0 0 -1 0 411)">
				<stop  offset="0" style="stop-color:#2D275E"/>
				<stop  offset="0.5" style="stop-color:#61666D"/>
				<stop  offset="0.9991" style="stop-color:#2D275E"/>
			</linearGradient>
			<path class="st9" d="M380.8,205.5c0,23.7-4.6,46.6-13.8,68.2c-8.8,20.9-21.5,39.6-37.6,55.7s-34.8,28.7-55.7,37.6
				c-21.6,9.1-44.6,13.8-68.2,13.8s-46.6-4.6-68.2-13.8c-20.9-8.8-39.6-21.5-55.7-37.6S52.9,294.6,44,273.7
				c-9.1-21.6-13.8-44.6-13.8-68.2c0-23.7,4.6-46.6,13.8-68.2c8.8-20.9,21.5-39.6,37.6-55.7s34.8-28.7,55.7-37.6
				c21.6-9.1,44.6-13.8,68.2-13.8s46.6,4.6,68.2,13.8c20.9,8.8,39.6,21.5,55.7,37.6s28.7,34.8,37.6,55.7
				C376.1,158.9,380.8,181.9,380.8,205.5z M205.5,29.6c-23.7,0-46.8,4.7-68.5,13.8C116.1,52.3,97.3,65,81.1,81.1
				C65,97.3,52.3,116.1,43.4,137c-9.2,21.7-13.8,44.7-13.8,68.5c0,23.7,4.6,46.8,13.8,68.5c8.9,20.9,21.5,39.8,37.7,55.9
				c16.2,16.2,35,28.8,55.9,37.7c21.7,9.2,44.7,13.8,68.5,13.8s46.8-4.7,68.5-13.8c20.9-8.9,39.8-21.5,55.9-37.7
				c16.2-16.2,28.8-35,37.7-55.9c9.2-21.7,13.8-44.7,13.8-68.5c0-23.7-4.6-46.8-13.8-68.5c-8.9-20.9-21.5-39.8-37.7-55.9
				s-35-28.8-55.9-37.7C252.3,34.3,229.3,29.6,205.5,29.6z"/>
		</g>
		<g>
			
				<linearGradient id="SVGID_9_" gradientUnits="userSpaceOnUse" x1="33.7" y1="205.6" x2="377.3" y2="205.6" gradientTransform="matrix(1 0 0 -1 0 411)">
				<stop  offset="0" style="stop-color:#2D275E"/>
				<stop  offset="0.5" style="stop-color:#61666D"/>
				<stop  offset="0.9991" style="stop-color:#2D275E"/>
			</linearGradient>
			<path class="st10" d="M376.8,205.5c0,23.1-4.5,45.6-13.5,66.7c-8.6,20.4-21,38.7-36.7,54.5c-15.7,15.7-34.1,28.1-54.5,36.7
				c-21.1,8.9-43.6,13.5-66.7,13.5s-45.6-4.5-66.7-13.5c-20.4-8.6-38.7-21-54.5-36.7c-15.7-15.7-28.1-34.1-36.7-54.5
				C38.6,251.1,34,228.6,34,205.5s4.5-45.6,13.5-66.7c8.6-20.4,21-38.7,36.7-54.4s34.1-28.1,54.5-36.7c21.1-8.9,43.6-13.5,66.7-13.5
				s45.6,4.5,66.7,13.5c20.4,8.6,38.7,21,54.5,36.7c15.7,15.7,28.1,34,36.7,54.4C372.3,159.9,376.8,182.4,376.8,205.5z M205.5,33.6
				c-23.2,0-45.7,4.5-66.9,13.5C118.1,55.8,99.7,68.2,84,83.9c-15.8,15.8-28.2,34.2-36.8,54.6c-9,21.2-13.5,43.7-13.5,66.9
				s4.5,45.7,13.5,66.9c8.7,20.5,21.1,38.9,36.8,54.6c15.8,15.8,34.2,28.2,54.6,36.8c21.2,9,43.7,13.5,66.9,13.5s45.7-4.5,66.9-13.5
				c20.5-8.7,38.9-21.1,54.6-36.8c15.8-15.8,28.2-34.2,36.8-54.6c9-21.2,13.5-43.7,13.5-66.9s-4.5-45.7-13.5-66.9
				c-8.7-20.5-21.1-38.9-36.8-54.6c-15.8-15.8-34.2-28.2-54.6-36.8C251.2,38.1,228.7,33.6,205.5,33.6z"/>
		</g>
		<g>
			
				<linearGradient id="SVGID_10_" gradientUnits="userSpaceOnUse" x1="37.5" y1="205.5" x2="373.5" y2="205.5" gradientTransform="matrix(1 0 0 -1 0 411)">
				<stop  offset="0" style="stop-color:#2D275E"/>
				<stop  offset="0.5" style="stop-color:#61666D"/>
				<stop  offset="0.9991" style="stop-color:#2D275E"/>
			</linearGradient>
			<path class="st11" d="M372.9,205.5c0,22.6-4.4,44.5-13.2,65.1c-8.4,19.9-20.5,37.8-35.9,53.2c-15.4,15.4-33.3,27.4-53.2,35.9
				c-20.6,8.7-42.5,13.1-65.1,13.1s-44.5-4.4-65.1-13.1c-19.9-8.4-37.8-20.5-53.2-35.9s-27.4-33.3-35.9-53.2
				C42.6,250,38.1,228,38.1,205.5c0-22.6,4.4-44.5,13.2-65.1c8.4-19.9,20.5-37.8,35.9-53.2s33.3-27.4,53.2-35.9
				c20.6-8.7,42.5-13.2,65.1-13.2s44.5,4.4,65.1,13.2c19.9,8.4,37.8,20.5,53.2,35.9c15.4,15.4,27.4,33.3,35.9,53.2
				C368.4,161,372.9,182.9,372.9,205.5z M205.5,37.5c-22.7,0-44.7,4.4-65.4,13.2c-20,8.5-38,20.6-53.4,36s-27.5,33.4-36,53.4
				c-8.8,20.7-13.2,42.7-13.2,65.4s4.4,44.7,13.2,65.4c8.5,20,20.6,38,36,53.4s33.4,27.5,53.4,36c20.7,8.8,42.7,13.2,65.4,13.2
				s44.7-4.4,65.4-13.2c20-8.5,38-20.6,53.4-36s27.5-33.4,36-53.4c8.8-20.7,13.2-42.7,13.2-65.4s-4.4-44.7-13.2-65.4
				c-8.5-20-20.6-38-36-53.4s-33.4-27.5-53.4-36C250.2,42,228.2,37.5,205.5,37.5z"/>
		</g>
		<g>
			
				<linearGradient id="SVGID_11_" gradientUnits="userSpaceOnUse" x1="41.6" y1="205.55" x2="369.4" y2="205.55" gradientTransform="matrix(1 0 0 -1 0 411)">
				<stop  offset="0" style="stop-color:#2D275E"/>
				<stop  offset="0.5" style="stop-color:#61666D"/>
				<stop  offset="0.9991" style="stop-color:#2D275E"/>
			</linearGradient>
			<path class="st12" d="M368.9,205.5c0,22.1-4.3,43.5-12.8,63.6c-8.2,19.5-20,36.9-35,51.9s-32.5,26.8-51.9,35
				c-20.1,8.5-41.5,12.8-63.6,12.8s-43.5-4.3-63.6-12.8c-19.5-8.2-36.9-20-51.9-35s-26.8-32.5-35-51.9
				c-8.5-20.1-12.8-41.5-12.8-63.6s4.3-43.5,12.8-63.6C63.2,122.4,75,105,90,90s32.5-26.8,51.9-35c20.1-8.5,41.5-12.8,63.6-12.8
				S249,46.5,269.1,55c19.5,8.2,36.9,20,51.9,35s26.8,32.5,35,51.9C364.6,162.1,368.9,183.5,368.9,205.5z M205.5,41.5
				c-22.1,0-43.6,4.3-63.8,12.9c-19.5,8.3-37.1,20.1-52.1,35.2c-15.1,15.1-26.9,32.6-35.1,52.1c-8.6,20.2-12.9,41.7-12.9,63.8
				s4.3,43.6,12.9,63.8c8.3,19.5,20.1,37.1,35.1,52.1c15.1,15.1,32.6,26.9,52.1,35.1c20.2,8.6,41.7,12.9,63.8,12.9
				s43.6-4.3,63.8-12.9c19.5-8.3,37.1-20.1,52.1-35.1c15.1-15.1,26.9-32.6,35.1-52.1c8.6-20.2,12.9-41.7,12.9-63.8
				s-4.3-43.6-12.9-63.8c-8.3-19.5-20.1-37.1-35.1-52.1c-15.1-15.1-32.6-26.9-52.1-35.2C249.1,45.8,227.7,41.5,205.5,41.5z"/>
		</g>
		<g>
			
				<linearGradient id="SVGID_12_" gradientUnits="userSpaceOnUse" x1="45.4" y1="205.45" x2="365.6" y2="205.45" gradientTransform="matrix(1 0 0 -1 0 411)">
				<stop  offset="0" style="stop-color:#2D275E"/>
				<stop  offset="0.5" style="stop-color:#61666D"/>
				<stop  offset="0.9991" style="stop-color:#2D275E"/>
			</linearGradient>
			<path class="st13" d="M365,205.5c0,21.5-4.2,42.4-12.5,62.1c-8,19-19.5,36-34.2,50.7s-31.7,26.1-50.7,34.2
				c-19.7,8.3-40.5,12.5-62.1,12.5s-42.4-4.2-62.1-12.5c-19-8-36-19.5-50.7-34.2c-14.6-14.6-26.1-31.7-34.2-50.7
				C50.3,247.9,46,227,46,205.5s4.2-42.4,12.5-62.1c8-19,19.5-36,34.2-50.7c14.6-14.6,31.7-26.1,50.7-34.2
				C163.1,50.3,184,46,205.5,46s42.4,4.2,62.1,12.5c19,8,36,19.5,50.7,34.2c14.6,14.6,26.1,31.7,34.2,50.7
				C360.8,163.1,365,184,365,205.5z M205.5,45.5c-21.6,0-42.6,4.2-62.3,12.6c-19.1,8.1-36.2,19.6-50.9,34.3
				C77.6,107,66.1,124.2,58,143.2c-8.3,19.7-12.6,40.7-12.6,62.3s4.2,42.6,12.6,62.3c8.1,19.1,19.6,36.2,34.3,50.9
				c14.7,14.7,31.8,26.2,50.9,34.3c19.7,8.3,40.7,12.6,62.3,12.6s42.6-4.2,62.3-12.6c19.1-8.1,36.2-19.6,50.9-34.3
				c14.7-14.7,26.2-31.8,34.3-50.9c8.3-19.7,12.6-40.7,12.6-62.3s-4.2-42.6-12.6-62.3c-8.1-19.1-19.6-36.2-34.3-50.9
				C304,77.6,286.9,66.1,267.8,58C248.1,49.7,227.1,45.5,205.5,45.5z"/>
		</g>
		<g>
			
				<linearGradient id="SVGID_13_" gradientUnits="userSpaceOnUse" x1="49.3" y1="205.4" x2="361.6" y2="205.4" gradientTransform="matrix(1 0 0 -1 0 411)">
				<stop  offset="0" style="stop-color:#2D275E"/>
				<stop  offset="0.5" style="stop-color:#61666D"/>
				<stop  offset="0.9991" style="stop-color:#2D275E"/>
			</linearGradient>
			<path class="st14" d="M361,205.5c0,21-4.1,41.4-12.2,60.5c-7.8,18.5-19,35.2-33.3,49.4c-14.3,14.3-30.9,25.5-49.4,33.3
				c-19.2,8.1-39.5,12.2-60.5,12.2s-41.4-4.1-60.5-12.2c-18.5-7.8-35.1-19-49.4-33.3S70,284.6,62.2,266
				C54.1,246.9,50,226.5,50,205.5s4.1-41.4,12.2-60.5c7.8-18.5,19-35.2,33.3-49.4s31-25.6,49.5-33.4c19.2-8.1,39.5-12.2,60.5-12.2
				s41.4,4.1,60.5,12.2c18.5,7.8,35.1,19,49.4,33.3s25.5,30.9,33.3,49.4C356.9,164.1,361,184.5,361,205.5z M205.5,49.4
				c-21.1,0-41.5,4.1-60.8,12.3c-18.6,7.9-35.3,19.1-49.6,33.5c-14.3,14.3-25.6,31-33.5,49.6c-8.1,19.2-12.3,39.7-12.3,60.8
				s4.1,41.5,12.3,60.8c7.9,18.6,19.1,35.3,33.5,49.6c14.3,14.3,31,25.6,49.6,33.5c19.2,8.1,39.7,12.3,60.8,12.3s41.5-4.1,60.8-12.3
				c18.6-7.9,35.3-19.1,49.6-33.5c14.3-14.3,25.6-31,33.4-49.6c8.1-19.2,12.3-39.7,12.3-60.8s-4.1-41.5-12.3-60.8
				c-7.9-18.6-19.1-35.3-33.4-49.6s-31-25.6-49.6-33.5C247,53.5,226.6,49.4,205.5,49.4z"/>
		</g>
		<g>
			
				<linearGradient id="SVGID_14_" gradientUnits="userSpaceOnUse" x1="53.3" y1="205.45" x2="357.7" y2="205.45" gradientTransform="matrix(1 0 0 -1 0 411)">
				<stop  offset="0" style="stop-color:#2D275E"/>
				<stop  offset="0.5" style="stop-color:#61666D"/>
				<stop  offset="0.9991" style="stop-color:#2D275E"/>
			</linearGradient>
			<path class="st15" d="M357.1,205.5c0,20.5-4,40.3-11.9,59c-7.6,18-18.6,34.3-32.5,48.2c-13.9,13.9-30.1,24.9-48.2,32.5
				c-18.7,7.9-38.5,11.9-59,11.9s-40.3-4-59-11.9c-18.1-7.6-34.3-18.6-48.2-32.5s-24.8-30.1-32.5-48.2c-7.9-18.7-11.9-38.5-11.9-59
				s4-40.3,11.9-59c7.6-18,18.6-34.3,32.5-48.2s30.1-24.8,48.2-32.5c18.7-7.9,38.5-11.9,59-11.9s40.3,4,59,11.9
				c18,7.6,34.3,18.6,48.2,32.5c13.9,13.9,24.8,30.1,32.5,48.2C353.1,165.2,357.1,185,357.1,205.5z M205.5,53.4
				c-20.5,0-40.5,4-59.2,12C128.2,73,111.9,84,97.9,97.9c-14,14-24.9,30.2-32.6,48.4c-7.9,18.8-12,38.7-12,59.2s4,40.5,12,59.2
				c7.7,18.1,18.6,34.4,32.6,48.4s30.2,24.9,48.4,32.6c18.8,7.9,38.7,12,59.2,12s40.5-4,59.2-12c18.1-7.7,34.4-18.6,48.4-32.6
				s24.9-30.2,32.6-48.4c7.9-18.8,12-38.7,12-59.2s-4-40.5-12-59.2c-7.7-18.1-18.6-34.4-32.6-48.4S282.9,73,264.7,65.3
				C246,57.4,226,53.4,205.5,53.4z"/>
		</g>
		<g>
			
				<linearGradient id="SVGID_15_" gradientUnits="userSpaceOnUse" x1="57.3" y1="205.5" x2="353.7" y2="205.5" gradientTransform="matrix(1 0 0 -1 0 411)">
				<stop  offset="0" style="stop-color:#2D275E"/>
				<stop  offset="0.5" style="stop-color:#61666D"/>
				<stop  offset="0.9991" style="stop-color:#2D275E"/>
			</linearGradient>
			<path class="st16" d="M353.1,205.5c0,19.9-3.9,39.3-11.6,57.5c-7.4,17.6-18.1,33.4-31.6,46.9c-13.6,13.6-29.3,24.2-46.9,31.6
				c-18.2,7.7-37.5,11.6-57.5,11.6c-19.9,0-39.3-3.9-57.5-11.6c-17.6-7.4-33.4-18.1-46.9-31.6c-13.6-13.6-24.2-29.3-31.6-46.9
				c-7.7-18.2-11.6-37.5-11.6-57.5c0-19.9,3.9-39.3,11.6-57.5c7.4-17.6,18.1-33.4,31.6-46.9c13.6-13.6,29.3-24.2,46.9-31.6
				c18.2-7.7,37.5-11.6,57.5-11.6c19.9,0,39.3,3.9,57.5,11.6c17.6,7.4,33.4,18.1,46.9,31.6c13.6,13.6,24.2,29.3,31.6,46.9
				C349.2,166.2,353.1,185.6,353.1,205.5z M205.5,57.3c-20,0-39.4,3.9-57.7,11.6c-17.6,7.5-33.5,18.1-47.1,31.8
				c-13.6,13.6-24.3,29.5-31.8,47.1c-7.7,18.3-11.6,37.7-11.6,57.7s3.9,39.4,11.6,57.7c7.5,17.6,18.1,33.5,31.8,47.1
				c13.6,13.6,29.5,24.3,47.1,31.8c18.3,7.7,37.7,11.6,57.7,11.6s39.4-3.9,57.7-11.6c17.6-7.5,33.5-18.1,47.1-31.8
				c13.6-13.6,24.3-29.5,31.8-47.1c7.7-18.3,11.6-37.7,11.6-57.7s-3.9-39.4-11.6-57.7c-7.5-17.6-18.1-33.5-31.8-47.1
				c-13.6-13.6-29.5-24.3-47.1-31.8C244.9,61.3,225.5,57.3,205.5,57.3z"/>
		</g>
		<g>
			
				<linearGradient id="SVGID_16_" gradientUnits="userSpaceOnUse" x1="61.4" y1="205.6" x2="349.6" y2="205.6" gradientTransform="matrix(1 0 0 -1 0 411)">
				<stop  offset="0" style="stop-color:#2D275E"/>
				<stop  offset="0.5" style="stop-color:#61666D"/>
				<stop  offset="0.9991" style="stop-color:#2D275E"/>
			</linearGradient>
			<path class="st17" d="M349.2,205.5c0,19.4-3.8,38.2-11.3,55.9c-7.2,17.1-17.6,32.5-30.8,45.7c-13.2,13.2-28.6,23.6-45.7,30.8
				c-17.7,7.5-36.5,11.3-55.9,11.3s-38.2-3.8-55.9-11.3c-17.1-7.2-32.5-17.6-45.7-30.8c-13.2-13.2-23.6-28.6-30.8-45.7
				c-7.5-17.7-11.3-36.5-11.3-55.9s3.8-38.2,11.3-55.9c7.2-17.1,17.6-32.5,30.8-45.7s28.6-23.6,45.7-30.8
				c17.7-7.5,36.5-11.3,55.9-11.3s38.2,3.8,55.9,11.3c17.1,7.2,32.5,17.6,45.7,30.8s23.6,28.6,30.8,45.7
				C345.4,167.3,349.2,186.1,349.2,205.5z M205.5,61.3c-19.5,0-38.4,3.8-56.1,11.3c-17.2,7.3-32.6,17.7-45.8,30.9
				S80,132.2,72.7,149.3c-7.5,17.8-11.3,36.7-11.3,56.1c0,19.5,3.8,38.3,11.3,56.1c7.3,17.2,17.7,32.6,30.9,45.8
				c13.2,13.2,28.7,23.6,45.8,30.9c17.8,7.5,36.7,11.3,56.1,11.3c19.5,0,38.4-3.8,56.1-11.3c17.2-7.3,32.6-17.7,45.8-30.9
				c13.2-13.2,23.6-28.7,30.9-45.8c7.5-17.8,11.3-36.7,11.3-56.1c0-19.5-3.8-38.4-11.3-56.1c-7.3-17.2-17.7-32.6-30.9-45.8
				c-13.2-13.2-28.7-23.6-45.8-30.9C243.9,65.1,225,61.3,205.5,61.3z"/>
		</g>
		<g>
			
				<linearGradient id="SVGID_17_" gradientUnits="userSpaceOnUse" x1="65.2" y1="205.4" x2="345.8" y2="205.4" gradientTransform="matrix(1 0 0 -1 0 411)">
				<stop  offset="0" style="stop-color:#2D275E"/>
				<stop  offset="0.5" style="stop-color:#61666D"/>
				<stop  offset="0.9991" style="stop-color:#2D275E"/>
			</linearGradient>
			<path class="st18" d="M345.2,205.5c0,18.9-3.7,37.2-11,54.4c-7,16.6-17.1,31.6-29.9,44.4s-27.8,22.9-44.4,29.9
				c-17.2,7.3-35.5,11-54.4,11s-37.2-3.7-54.4-11c-16.6-7-31.6-17.1-44.4-29.9s-22.9-27.8-29.9-44.4c-7.3-17.2-11-35.5-11-54.4
				s3.7-37.2,11-54.4c7-16.6,17.1-31.6,29.9-44.4s27.8-22.9,44.4-29.9c17.2-7.3,35.5-11,54.4-11s37.2,3.7,54.4,11
				c16.6,7,31.6,17.1,44.4,29.9s22.9,27.8,29.9,44.4C341.5,168.3,345.2,186.6,345.2,205.5z M205.5,65.3c-18.9,0-37.3,3.7-54.6,11
				c-16.7,7.1-31.7,17.2-44.6,30.1s-23,27.9-30.1,44.6c-7.3,17.3-11,35.7-11,54.6s3.7,37.3,11,54.6c7.1,16.7,17.2,31.7,30.1,44.6
				s27.9,23,44.6,30.1c17.3,7.3,35.7,11,54.6,11s37.3-3.7,54.6-11c16.7-7.1,31.7-17.2,44.6-30.1s23-27.9,30.1-44.6
				c7.3-17.3,11-35.7,11-54.6s-3.7-37.3-11-54.6c-7.1-16.7-17.2-31.7-30.1-44.6s-27.9-23-44.6-30.1C242.8,69,224.4,65.3,205.5,65.3z
				"/>
		</g>
		<g>
			
				<linearGradient id="SVGID_18_" gradientUnits="userSpaceOnUse" x1="69.3" y1="205.55" x2="341.7" y2="205.55" gradientTransform="matrix(1 0 0 -1 0 411)">
				<stop  offset="0" style="stop-color:#2D275E"/>
				<stop  offset="0.5" style="stop-color:#61666D"/>
				<stop  offset="0.9991" style="stop-color:#2D275E"/>
			</linearGradient>
			<path class="st19" d="M341.3,205.5c0,18.3-3.6,36.1-10.7,52.9c-6.8,16.2-16.6,30.7-29.1,43.2s-27,22.3-43.2,29.1
				c-16.7,7.1-34.5,10.7-52.9,10.7c-18.3,0-36.1-3.6-52.9-10.7c-16.2-6.8-30.7-16.6-43.2-29.1s-22.3-27-29.1-43.2
				c-7.1-16.7-10.7-34.5-10.7-52.9c0-18.3,3.6-36.1,10.7-52.9c6.8-16.2,16.6-30.7,29.1-43.2s27-22.3,43.2-29.1
				c16.7-7.1,34.5-10.7,52.9-10.7c18.3,0,36.1,3.6,52.9,10.7c16.2,6.8,30.7,16.6,43.2,29.1s22.3,27,29.1,43.2
				C337.7,169.4,341.3,187.2,341.3,205.5z M205.5,69.2c-18.4,0-36.2,3.6-53,10.7c-16.2,6.9-30.8,16.7-43.3,29.2S86.9,136.2,80,152.4
				c-7.1,16.8-10.7,34.6-10.7,53.1c0,18.4,3.6,36.2,10.7,53c6.9,16.2,16.7,30.8,29.2,43.3s27.1,22.3,43.3,29.2
				c16.8,7.1,34.6,10.7,53,10.7s36.2-3.6,53-10.7c16.2-6.9,30.8-16.7,43.3-29.2s22.3-27.1,29.2-43.3c7.1-16.8,10.7-34.6,10.7-53
				s-3.6-36.3-10.7-53.1c-6.9-16.2-16.7-30.8-29.2-43.3s-27.1-22.3-43.3-29.2C241.8,72.8,223.9,69.2,205.5,69.2z"/>
		</g>
		<g>
			
				<linearGradient id="SVGID_19_" gradientUnits="userSpaceOnUse" x1="73.1" y1="205.4" x2="337.9" y2="205.4" gradientTransform="matrix(1 0 0 -1 0 411)">
				<stop  offset="0" style="stop-color:#2D275E"/>
				<stop  offset="0.5" style="stop-color:#61666D"/>
				<stop  offset="0.9991" style="stop-color:#2D275E"/>
			</linearGradient>
			<path class="st20" d="M337.3,205.5c0,17.8-3.5,35.1-10.4,51.3c-6.6,15.7-16.1,29.8-28.3,41.9c-12.1,12.1-26.2,21.6-41.9,28.2
				c-16.2,6.9-33.5,10.4-51.3,10.4s-35.1-3.5-51.3-10.4c-15.7-6.6-29.8-16.1-41.9-28.2s-21.6-26.2-28.3-41.9
				c-6.9-16.3-10.4-33.5-10.4-51.3s3.5-35.1,10.4-51.3c6.6-15.7,16.1-29.8,28.3-41.9c12.1-12.1,26.2-21.6,41.9-28.3
				c16.3-6.9,33.5-10.4,51.3-10.4s35.1,3.5,51.3,10.4c15.7,6.6,29.8,16.1,41.9,28.3c12.1,12.1,21.6,26.2,28.3,41.9
				C333.9,170.4,337.3,187.7,337.3,205.5z M205.5,73.2c-17.9,0-35.2,3.5-51.5,10.4c-15.8,6.7-29.9,16.2-42.1,28.4
				c-12.2,12.1-21.7,26.3-28.4,42.1c-6.9,16.3-10.4,33.6-10.4,51.5s3.5,35.2,10.4,51.5c6.7,15.8,16.2,29.9,28.4,42.1
				c12.2,12.1,26.3,21.7,42.1,28.4c16.3,6.9,33.6,10.4,51.5,10.4s35.2-3.5,51.5-10.4c15.8-6.7,29.9-16.2,42.1-28.4
				c12.2-12.2,21.7-26.3,28.4-42.1c6.9-16.3,10.4-33.6,10.4-51.5s-3.5-35.2-10.4-51.5c-6.7-15.8-16.2-29.9-28.4-42.1
				c-12.2-12.2-26.3-21.7-42.1-28.4C240.7,76.7,223.4,73.2,205.5,73.2z"/>
		</g>
		<g>
			
				<linearGradient id="SVGID_20_" gradientUnits="userSpaceOnUse" x1="77.1" y1="205.5" x2="333.9" y2="205.5" gradientTransform="matrix(1 0 0 -1 0 411)">
				<stop  offset="0" style="stop-color:#2D275E"/>
				<stop  offset="0.5" style="stop-color:#61666D"/>
				<stop  offset="0.9991" style="stop-color:#2D275E"/>
			</linearGradient>
			<path class="st21" d="M333.4,205.5c0,17.3-3.4,34-10,49.8c-6.4,15.2-15.7,28.9-27.4,40.7c-11.7,11.7-25.4,21-40.6,27.4
				c-15.8,6.7-32.5,10-49.8,10s-34-3.4-49.8-10c-15.2-6.4-28.9-15.7-40.7-27.4c-11.7-11.7-21-25.4-27.4-40.7
				c-6.7-15.8-10-32.5-10-49.8s3.4-34,10-49.8c6.4-15.2,15.7-28.9,27.4-40.7c11.7-11.7,25.4-21,40.7-27.4
				c15.8-6.7,32.5-10.1,49.8-10.1s34,3.4,49.8,10.1c15.2,6.4,28.9,15.7,40.6,27.4s21,25.4,27.4,40.7
				C330,171.5,333.4,188.2,333.4,205.5z M205.5,77.1c-17.3,0-34.1,3.4-50,10.1c-15.3,6.5-29,15.7-40.8,27.5s-21,25.5-27.5,40.8
				c-6.7,15.8-10.1,32.6-10.1,50c0,17.3,3.4,34.1,10.1,50c6.5,15.3,15.7,29,27.5,40.8s25.5,21,40.8,27.5c15.8,6.7,32.6,10.1,50,10.1
				s34.1-3.4,50-10.1c15.3-6.5,29-15.7,40.8-27.5s21-25.5,27.5-40.8c6.7-15.8,10.1-32.6,10.1-50c0-17.3-3.4-34.1-10.1-50
				c-6.5-15.3-15.7-29-27.5-40.8s-25.5-21-40.8-27.5C239.7,80.5,222.8,77.1,205.5,77.1z"/>
		</g>
		<g>
			
				<linearGradient id="SVGID_21_" gradientUnits="userSpaceOnUse" x1="81.1" y1="205.5" x2="329.9" y2="205.5" gradientTransform="matrix(1 0 0 -1 0 411)">
				<stop  offset="0" style="stop-color:#2D275E"/>
				<stop  offset="0.5" style="stop-color:#61666D"/>
				<stop  offset="0.9991" style="stop-color:#2D275E"/>
			</linearGradient>
			<path class="st22" d="M329.5,205.5c0,16.7-3.3,33-9.7,48.2c-6.2,14.8-15.2,28-26.6,39.4s-24.6,20.3-39.4,26.6
				c-15.3,6.5-31.5,9.7-48.2,9.7s-33-3.3-48.2-9.7c-14.8-6.2-28-15.2-39.4-26.6s-20.3-24.6-26.6-39.4c-6.5-15.3-9.7-31.5-9.7-48.2
				s3.3-33,9.7-48.2c6.2-14.8,15.2-28,26.6-39.4s24.6-20.3,39.4-26.6c15.3-6.5,31.5-9.7,48.2-9.7s33,3.3,48.2,9.7
				c14.8,6.2,28,15.2,39.4,26.6s20.3,24.6,26.6,39.4C326.2,172.6,329.5,188.8,329.5,205.5z M205.5,81.1c-16.8,0-33.1,3.3-48.4,9.8
				c-14.8,6.3-28.1,15.2-39.5,26.7c-11.4,11.4-20.4,24.7-26.7,39.5c-6.5,15.3-9.8,31.6-9.8,48.4s3.3,33.1,9.8,48.4
				c6.3,14.8,15.2,28.1,26.7,39.5c11.4,11.4,24.7,20.4,39.5,26.7c15.3,6.5,31.6,9.8,48.4,9.8s33.1-3.3,48.4-9.8
				c14.8-6.3,28.1-15.2,39.5-26.7c11.4-11.4,20.4-24.7,26.7-39.5c6.5-15.3,9.8-31.6,9.8-48.4s-3.3-33.1-9.8-48.4
				c-6.3-14.8-15.2-28.1-26.7-39.5c-11.4-11.4-24.7-20.4-39.5-26.7C238.6,84.4,222.3,81.1,205.5,81.1z"/>
		</g>
		<g>
			
				<linearGradient id="SVGID_22_" gradientUnits="userSpaceOnUse" x1="85" y1="205.4" x2="326" y2="205.4" gradientTransform="matrix(1 0 0 -1 0 411)">
				<stop  offset="0" style="stop-color:#2D275E"/>
				<stop  offset="0.5" style="stop-color:#61666D"/>
				<stop  offset="0.9991" style="stop-color:#2D275E"/>
			</linearGradient>
			<path class="st23" d="M325.5,205.5c0,16.2-3.2,31.9-9.4,46.7c-6,14.3-14.7,27.1-25.7,38.1S266.5,310,252.3,316
				c-14.8,6.3-30.5,9.4-46.7,9.4s-31.9-3.2-46.7-9.4c-14.3-6-27.1-14.7-38.1-25.7s-19.7-23.9-25.7-38.1c-6.3-14.8-9.4-30.5-9.4-46.7
				s3.2-31.9,9.4-46.7c6-14.3,14.7-27.1,25.7-38.1S144.7,101,158.9,95c14.8-6.3,30.5-9.4,46.7-9.4s31.9,3.2,46.7,9.4
				c14.3,6,27.1,14.7,38.1,25.7s19.7,23.9,25.7,38.1C322.3,173.6,325.5,189.3,325.5,205.5z M205.5,85.1c-16.3,0-32,3.2-46.9,9.5
				c-14.3,6.1-27.2,14.8-38.3,25.8c-11.1,11.1-19.7,23.9-25.8,38.3c-6.3,14.9-9.5,30.6-9.5,46.9s3.2,32,9.5,46.9
				c6.1,14.3,14.8,27.2,25.8,38.3c11.1,11.1,23.9,19.7,38.3,25.8c14.9,6.3,30.6,9.5,46.9,9.5s32-3.2,46.9-9.5
				c14.3-6.1,27.2-14.8,38.3-25.8c11.1-11.1,19.7-23.9,25.8-38.3c6.3-14.9,9.5-30.6,9.5-46.9s-3.2-32-9.5-46.9
				c-6.1-14.3-14.8-27.2-25.8-38.3c-11.1-11.1-23.9-19.7-38.3-25.8C237.5,88.2,221.8,85.1,205.5,85.1z"/>
		</g>
		<g>
			
				<linearGradient id="SVGID_23_" gradientUnits="userSpaceOnUse" x1="89" y1="205.5" x2="322" y2="205.5" gradientTransform="matrix(1 0 0 -1 0 411)">
				<stop  offset="0" style="stop-color:#2D275E"/>
				<stop  offset="0.5" style="stop-color:#61666D"/>
				<stop  offset="0.9991" style="stop-color:#2D275E"/>
			</linearGradient>
			<path class="st24" d="M321.6,205.5c0,15.7-3.1,30.9-9.1,45.2c-5.8,13.8-14.2,26.2-24.9,36.9c-10.7,10.7-23.1,19-36.9,24.9
				c-14.3,6-29.5,9.1-45.2,9.1s-30.9-3.1-45.2-9.1c-13.8-5.8-26.2-14.2-36.9-24.9c-10.7-10.7-19-23.1-24.9-36.9
				c-6-14.3-9.1-29.5-9.1-45.2s3.1-30.9,9.1-45.2c5.8-13.8,14.2-26.2,24.9-36.9s23.1-19,36.9-24.9c14.3-6.1,29.5-9.1,45.2-9.1
				s30.9,3.1,45.2,9.1c13.8,5.8,26.2,14.2,36.9,24.9c10.7,10.7,19,23.1,24.9,36.9C318.5,174.6,321.6,189.8,321.6,205.5z M205.5,89
				c-15.7,0-31,3.1-45.3,9.2c-13.9,5.9-26.3,14.3-37,25s-19.1,23.2-25,37c-6.1,14.4-9.2,29.6-9.2,45.3s3.1,31,9.2,45.3
				c5.9,13.9,14.3,26.3,25,37c10.7,10.7,23.2,19.1,37,25c14.4,6.1,29.6,9.2,45.3,9.2s31-3.1,45.3-9.2c13.9-5.9,26.3-14.3,37-25
				c10.7-10.7,19.1-23.2,25-37c6.1-14.4,9.2-29.6,9.2-45.3s-3.1-31-9.2-45.3c-5.9-13.9-14.3-26.3-25-37s-23.2-19.1-37-25
				C236.5,92.1,221.2,89,205.5,89z"/>
		</g>
		<g>
			
				<linearGradient id="SVGID_24_" gradientUnits="userSpaceOnUse" x1="93" y1="205.5" x2="318" y2="205.5" gradientTransform="matrix(1 0 0 -1 0 411)">
				<stop  offset="0" style="stop-color:#2D275E"/>
				<stop  offset="0.5" style="stop-color:#61666D"/>
				<stop  offset="0.9991" style="stop-color:#2D275E"/>
			</linearGradient>
			<path class="st25" d="M317.6,205.5c0,15.1-3,29.8-8.8,43.6c-5.6,13.3-13.7,25.3-24,35.6c-10.3,10.3-22.3,18.4-35.6,24
				c-13.8,5.8-28.5,8.8-43.6,8.8s-29.8-3-43.6-8.8c-13.3-5.6-25.3-13.7-35.6-24s-18.4-22.3-24-35.6c-5.8-13.8-8.8-28.5-8.8-43.6
				s3-29.8,8.8-43.6c5.6-13.3,13.7-25.3,24-35.6s22.3-18.4,35.6-24c13.8-5.8,28.5-8.8,43.6-8.8s29.8,3,43.6,8.8
				c13.3,5.6,25.3,13.7,35.6,24c10.3,10.3,18.4,22.3,24,35.6C314.6,175.7,317.6,190.4,317.6,205.5z M205.5,93
				c-15.2,0-29.9,3-43.8,8.8c-13.4,5.7-25.4,13.8-35.8,24.1c-10.3,10.3-18.4,22.4-24.1,35.8C96,175.6,93,190.3,93,205.5
				s3,29.9,8.8,43.8c5.7,13.4,13.8,25.4,24.1,35.8c10.3,10.3,22.4,18.4,35.8,24.1c13.9,5.9,28.6,8.8,43.8,8.8s29.9-3,43.8-8.8
				c13.4-5.7,25.4-13.8,35.8-24.1c10.3-10.3,18.4-22.4,24.1-35.8c5.9-13.9,8.8-28.6,8.8-43.8s-3-29.9-8.8-43.8
				c-5.7-13.4-13.8-25.4-24.1-35.8c-10.3-10.3-22.4-18.5-35.8-24.1C235.4,96,220.7,93,205.5,93z"/>
		</g>
		<g>
			
				<linearGradient id="SVGID_25_" gradientUnits="userSpaceOnUse" x1="96.9" y1="205.5" x2="314.1" y2="205.5" gradientTransform="matrix(1 0 0 -1 0 411)">
				<stop  offset="0" style="stop-color:#2D275E"/>
				<stop  offset="0.5" style="stop-color:#61666D"/>
				<stop  offset="0.9991" style="stop-color:#2D275E"/>
			</linearGradient>
			<path class="st26" d="M313.7,205.5c0,14.6-2.9,28.8-8.5,42.1C299.8,260.5,292,272,282,282c-9.9,9.9-21.5,17.7-34.4,23.2
				c-13.3,5.6-27.5,8.5-42.1,8.5s-28.8-2.9-42.1-8.5C150.5,299.8,139,292,129,282c-9.9-9.9-17.7-21.5-23.2-34.4
				c-5.6-13.3-8.5-27.5-8.5-42.1s2.9-28.8,8.5-42.1C111.2,150.5,119,139,129,129c9.9-9.9,21.5-17.7,34.4-23.2
				c13.3-5.6,27.5-8.5,42.1-8.5s28.8,2.9,42.1,8.5C260.5,111.3,272,119,282,129c9.9,9.9,17.7,21.5,23.2,34.4
				C310.8,176.7,313.7,190.9,313.7,205.5z M205.5,96.9c-14.7,0-28.9,2.9-42.3,8.5c-12.9,5.5-24.5,13.3-34.5,23.3
				s-17.8,21.6-23.3,34.5c-5.7,13.4-8.5,27.6-8.5,42.3s2.9,28.9,8.5,42.3c5.5,12.9,13.3,24.5,23.3,34.5s21.6,17.8,34.5,23.3
				c13.4,5.7,27.6,8.5,42.3,8.5s28.9-2.9,42.3-8.5c12.9-5.5,24.5-13.3,34.5-23.3s17.8-21.6,23.3-34.5c5.7-13.4,8.5-27.6,8.5-42.3
				s-2.9-28.9-8.5-42.3c-5.5-12.9-13.3-24.5-23.3-34.5s-21.6-17.8-34.5-23.3C234.4,99.8,220.2,96.9,205.5,96.9z"/>
		</g>
		<g>
			
				<linearGradient id="SVGID_26_" gradientUnits="userSpaceOnUse" x1="100.9" y1="205.5" x2="310.1" y2="205.5" gradientTransform="matrix(1 0 0 -1 0 411)">
				<stop  offset="0" style="stop-color:#2D275E"/>
				<stop  offset="0.5" style="stop-color:#61666D"/>
				<stop  offset="0.9991" style="stop-color:#2D275E"/>
			</linearGradient>
			<path class="st27" d="M309.7,205.5c0,14.1-2.8,27.7-8.2,40.6c-5.2,12.4-12.8,23.6-22.3,33.1c-9.6,9.6-20.7,17.1-33.1,22.3
				c-12.8,5.4-26.5,8.2-40.6,8.2s-27.7-2.7-40.6-8.2c-12.4-5.2-23.6-12.8-33.1-22.3c-9.6-9.6-17.1-20.7-22.3-33.1
				c-5.4-12.8-8.2-26.5-8.2-40.6s2.8-27.7,8.2-40.6c5.2-12.4,12.8-23.6,22.3-33.1c9.6-9.6,20.7-17.1,33.1-22.3
				c12.8-5.4,26.5-8.2,40.6-8.2s27.7,2.8,40.6,8.2c12.4,5.3,23.6,12.8,33.1,22.3c9.6,9.6,17.1,20.7,22.3,33.1
				C307,177.8,309.7,191.4,309.7,205.5z M205.5,100.9c-14.1,0-27.8,2.8-40.7,8.2c-12.5,5.3-23.6,12.8-33.3,22.4
				c-9.6,9.6-17.2,20.8-22.4,33.3c-5.5,12.9-8.2,26.6-8.2,40.7c0,14.1,2.8,27.8,8.2,40.7c5.3,12.5,12.8,23.6,22.4,33.3
				c9.6,9.6,20.8,17.1,33.3,22.4c12.9,5.5,26.6,8.2,40.7,8.2c14.1,0,27.8-2.8,40.7-8.2c12.5-5.3,23.6-12.8,33.3-22.4
				c9.6-9.6,17.2-20.8,22.4-33.3c5.5-12.9,8.2-26.6,8.2-40.7c0-14.1-2.8-27.8-8.2-40.7c-5.3-12.5-12.8-23.6-22.4-33.3
				c-9.6-9.6-20.8-17.2-33.3-22.4C233.3,103.7,219.6,100.9,205.5,100.9z"/>
		</g>
		<g>
			
				<linearGradient id="SVGID_27_" gradientUnits="userSpaceOnUse" x1="104.8" y1="205.4" x2="306.2" y2="205.4" gradientTransform="matrix(1 0 0 -1 0 411)">
				<stop  offset="0" style="stop-color:#2D275E"/>
				<stop  offset="0.5" style="stop-color:#61666D"/>
				<stop  offset="0.9991" style="stop-color:#2D275E"/>
			</linearGradient>
			<path class="st28" d="M305.8,205.5c0,13.5-2.7,26.7-7.9,39c-5.1,11.9-12.3,22.7-21.5,31.9c-9.2,9.2-19.9,16.4-31.9,21.5
				c-12.4,5.2-25.5,7.9-39,7.9s-26.7-2.7-39-7.9c-11.9-5-22.7-12.3-31.9-21.5s-16.4-19.9-21.5-31.9c-5.2-12.4-7.9-25.5-7.9-39
				s2.7-26.7,7.9-39c5.1-11.9,12.3-22.7,21.5-31.9s19.9-16.4,31.9-21.5c12.4-5.2,25.5-7.9,39-7.9s26.7,2.7,39,7.9
				c11.9,5.1,22.7,12.3,31.9,21.5c9.2,9.2,16.4,19.9,21.5,31.9C303.1,178.8,305.8,192,305.8,205.5z M205.5,104.9
				c-13.6,0-26.8,2.7-39.2,7.9c-12,5.1-22.7,12.3-32,21.6c-9.2,9.2-16.5,20-21.6,32c-5.2,12.4-7.9,25.6-7.9,39.2s2.7,26.8,7.9,39.2
				c5.1,12,12.3,22.7,21.6,32c9.2,9.2,20,16.5,32,21.6c12.4,5.2,25.6,7.9,39.2,7.9c13.6,0,26.8-2.7,39.2-7.9
				c12-5.1,22.7-12.3,32-21.6c9.2-9.2,16.5-20,21.6-32c5.2-12.4,7.9-25.6,7.9-39.2s-2.7-26.8-7.9-39.2c-5.1-12-12.3-22.7-21.6-32
				c-9.2-9.2-20-16.5-32-21.6C232.3,107.5,219.1,104.9,205.5,104.9z"/>
		</g>
		<g>
			
				<linearGradient id="SVGID_28_" gradientUnits="userSpaceOnUse" x1="110.8" y1="205.5" x2="300.2" y2="205.5" gradientTransform="matrix(1 0 0 -1 0 411)">
				<stop  offset="0" style="stop-color:#2D275E"/>
				<stop  offset="0.5" style="stop-color:#61666D"/>
				<stop  offset="0.9991" style="stop-color:#2D275E"/>
			</linearGradient>
			<path class="st29" d="M299.9,205.5c0,12.7-2.5,25.1-7.4,36.7c-4.8,11.2-11.6,21.3-20.2,30c-8.7,8.7-18.8,15.5-30,20.2
				c-11.6,4.9-24,7.4-36.7,7.4s-25.1-2.5-36.7-7.4c-11.2-4.8-21.3-11.6-30-20.2c-8.7-8.7-15.5-18.8-20.2-30
				c-4.9-11.6-7.4-24-7.4-36.7s2.5-25.1,7.4-36.7c4.8-11.2,11.6-21.3,20.2-30c8.7-8.7,18.8-15.5,30-20.2c11.6-4.9,24-7.4,36.7-7.4
				s25.1,2.5,36.7,7.4c11.2,4.7,21.3,11.6,30,20.2c8.7,8.7,15.5,18.8,20.2,30C297.4,180.4,299.9,192.8,299.9,205.5z M205.5,110.8
				c-12.8,0-25.2,2.5-36.9,7.4c-11.3,4.8-21.4,11.6-30.1,20.3c-8.7,8.7-15.5,18.8-20.3,30.1c-4.9,11.7-7.4,24.1-7.4,36.9
				c0,12.8,2.5,25.2,7.4,36.9c4.8,11.3,11.6,21.4,20.3,30.1s18.8,15.5,30.1,20.3c11.7,4.9,24.1,7.4,36.9,7.4
				c12.8,0,25.2-2.5,36.9-7.4c11.3-4.8,21.4-11.6,30.1-20.3c8.7-8.7,15.5-18.8,20.3-30.1c4.9-11.7,7.4-24.1,7.4-36.9
				c0-12.8-2.5-25.2-7.4-36.9c-4.8-11.3-11.6-21.4-20.3-30.1c-8.7-8.7-18.8-15.5-30.1-20.3C230.7,113.3,218.3,110.8,205.5,110.8z"/>
		</g>
	</g>
</g>
</svg>
